ISO-10303-21;
HEADER;
/* Generated by software containing ST-Developer
 * from STEP Tools, Inc. (www.steptools.com) 
 */
/* OPTION: using custom renumber hook */

FILE_DESCRIPTION(
/* description */ ('STEP AP242 Edition 2',
'CAx-IF Rec.Pracs.---Representation and Presentation of Product Manufa
cturing Information (PMI)---4.0---2014-10-13',
'CAx-IF Rec.Pracs.---3D Tessellated Geometry---0.4---2014-09-14','2;1',
'CAx-IF Rec.Pracs.---User Defined Attributes---1.5---2016-08-15'),
/* implementation_level */ '2;1');

FILE_NAME(
/* name */ 'Vernier Go Direct Mount (Base)_REV. 3',
/* time_stamp */ '2026-07-20T15:50:38Z',
/* author */ (''),
/* organization */ (''),
/* preprocessor_version */ 'ST-DEVELOPER v20',
/* originating_system */ 'ONSHAPE BY PTC INC, 1.218',
/* authorisation */ '  ');

FILE_SCHEMA (('AP242_MANAGED_MODEL_BASED_3D_ENGINEERING_MIM_LF { 1 0 10303 442 3 1 4 }'));
ENDSEC;

DATA;
#10=SHAPE_REPRESENTATION_RELATIONSHIP('','',#1048,#11);
#11=ADVANCED_BREP_SHAPE_REPRESENTATION('',(#1046),#1788);
#12=B_SPLINE_SURFACE_WITH_KNOTS('',1,3,((#1757,#1758,#1759,#1760,#1761,
#1762,#1763,#1764,#1765,#1766,#1767,#1768),(#1769,#1770,#1771,#1772,#1773,
#1774,#1775,#1776,#1777,#1778,#1779,#1780)),.RULED_SURF.,.F.,.F.,.F.,(2,
2),(4,3,2,3,4),(0.,1.),(2.08003527100921E-6,0.00104218365502297,0.00617282421678744,
0.0113034647785519,0.0116522458184087),.UNSPECIFIED.);
#13=CONICAL_SURFACE('',#1148,0.002,0.523598775598299);
#14=CONICAL_SURFACE('',#1149,0.002,0.523598775598299);
#15=CONICAL_SURFACE('',#1152,0.002,0.523598775598299);
#16=B_SPLINE_CURVE_WITH_KNOTS('',3,(#1733,#1734,#1735,#1736,#1737,#1738),
 .UNSPECIFIED.,.F.,.F.,(4,2,4),(0.00104218365502297,0.00617282421678744,
0.0113034647785519),.UNSPECIFIED.);
#17=B_SPLINE_CURVE_WITH_KNOTS('',3,(#1751,#1752,#1753,#1754),
 .UNSPECIFIED.,.F.,.F.,(4,4),(0.,1.),.UNSPECIFIED.);
#18=B_SPLINE_CURVE_WITH_KNOTS('',3,(#1781,#1782,#1783,#1784),
 .UNSPECIFIED.,.F.,.F.,(4,4),(0.,1.),.UNSPECIFIED.);
#19=ELLIPSE('',#1116,0.0175428264009785,0.006);
#20=ELLIPSE('',#1123,0.0141421356237309,0.01);
#21=ELLIPSE('',#1125,0.0292380440016309,0.01);
#22=ELLIPSE('',#1127,0.0141421356237309,0.01);
#23=ELLIPSE('',#1129,0.0292380440016309,0.01);
#24=CYLINDRICAL_SURFACE('',#1109,0.0021);
#25=CYLINDRICAL_SURFACE('',#1110,0.0021);
#26=CYLINDRICAL_SURFACE('',#1111,0.0021);
#27=CYLINDRICAL_SURFACE('',#1112,0.0021);
#28=CYLINDRICAL_SURFACE('',#1113,0.0021);
#29=CYLINDRICAL_SURFACE('',#1114,0.0021);
#30=CYLINDRICAL_SURFACE('',#1115,0.006);
#31=CYLINDRICAL_SURFACE('',#1117,0.006);
#32=CYLINDRICAL_SURFACE('',#1122,0.01);
#33=CYLINDRICAL_SURFACE('',#1124,0.01);
#34=CYLINDRICAL_SURFACE('',#1126,0.01);
#35=CYLINDRICAL_SURFACE('',#1128,0.01);
#36=CYLINDRICAL_SURFACE('',#1130,0.005);
#37=CYLINDRICAL_SURFACE('',#1131,0.005);
#38=CYLINDRICAL_SURFACE('',#1132,0.005);
#39=CYLINDRICAL_SURFACE('',#1133,0.005);
#40=CYLINDRICAL_SURFACE('',#1134,0.003);
#41=CYLINDRICAL_SURFACE('',#1135,0.003);
#42=CYLINDRICAL_SURFACE('',#1136,0.003);
#43=CYLINDRICAL_SURFACE('',#1137,0.003);
#44=CYLINDRICAL_SURFACE('',#1138,0.003);
#45=CYLINDRICAL_SURFACE('',#1139,0.003);
#46=CYLINDRICAL_SURFACE('',#1140,0.002);
#47=CYLINDRICAL_SURFACE('',#1142,0.002);
#48=CYLINDRICAL_SURFACE('',#1144,0.002);
#49=CYLINDRICAL_SURFACE('',#1145,0.002);
#50=CIRCLE('',#1051,0.003);
#51=CIRCLE('',#1052,0.003);
#52=CIRCLE('',#1053,0.003);
#53=CIRCLE('',#1054,0.003);
#54=CIRCLE('',#1056,0.0021);
#55=CIRCLE('',#1057,0.0021);
#56=CIRCLE('',#1058,0.0021);
#57=CIRCLE('',#1059,0.003);
#58=CIRCLE('',#1060,0.003);
#59=CIRCLE('',#1061,0.01);
#60=CIRCLE('',#1062,0.005);
#61=CIRCLE('',#1063,0.005);
#62=CIRCLE('',#1064,0.005);
#63=CIRCLE('',#1065,0.005);
#64=CIRCLE('',#1066,0.01);
#65=CIRCLE('',#1067,0.0021);
#66=CIRCLE('',#1068,0.0021);
#67=CIRCLE('',#1069,0.0021);
#68=CIRCLE('',#1070,0.003);
#69=CIRCLE('',#1071,0.003);
#70=CIRCLE('',#1072,0.003);
#71=CIRCLE('',#1073,0.003);
#72=CIRCLE('',#1075,0.006);
#73=CIRCLE('',#1077,0.003);
#74=CIRCLE('',#1078,0.002);
#75=CIRCLE('',#1079,0.002);
#76=CIRCLE('',#1081,0.0021);
#77=CIRCLE('',#1082,0.005);
#78=CIRCLE('',#1083,0.005);
#79=CIRCLE('',#1084,0.0021);
#80=CIRCLE('',#1085,0.0021);
#81=CIRCLE('',#1087,0.0021);
#82=CIRCLE('',#1088,0.0021);
#83=CIRCLE('',#1089,0.005);
#84=CIRCLE('',#1090,0.005);
#85=CIRCLE('',#1091,0.0021);
#86=CIRCLE('',#1100,0.006);
#87=CIRCLE('',#1103,0.006);
#88=CIRCLE('',#1106,0.002);
#89=CIRCLE('',#1107,0.002);
#90=CIRCLE('',#1108,0.003);
#91=CIRCLE('',#1141,0.002);
#92=CIRCLE('',#1143,0.002);
#93=CIRCLE('',#1146,0.002);
#94=ORIENTED_EDGE('',*,*,#380,.T.);
#95=ORIENTED_EDGE('',*,*,#381,.T.);
#96=ORIENTED_EDGE('',*,*,#382,.T.);
#97=ORIENTED_EDGE('',*,*,#383,.T.);
#98=ORIENTED_EDGE('',*,*,#384,.F.);
#99=ORIENTED_EDGE('',*,*,#385,.T.);
#100=ORIENTED_EDGE('',*,*,#386,.T.);
#101=ORIENTED_EDGE('',*,*,#387,.T.);
#102=ORIENTED_EDGE('',*,*,#388,.T.);
#103=ORIENTED_EDGE('',*,*,#389,.T.);
#104=ORIENTED_EDGE('',*,*,#390,.F.);
#105=ORIENTED_EDGE('',*,*,#391,.T.);
#106=ORIENTED_EDGE('',*,*,#392,.T.);
#107=ORIENTED_EDGE('',*,*,#393,.T.);
#108=ORIENTED_EDGE('',*,*,#394,.T.);
#109=ORIENTED_EDGE('',*,*,#395,.T.);
#110=ORIENTED_EDGE('',*,*,#396,.T.);
#111=ORIENTED_EDGE('',*,*,#397,.F.);
#112=ORIENTED_EDGE('',*,*,#398,.T.);
#113=ORIENTED_EDGE('',*,*,#399,.F.);
#114=ORIENTED_EDGE('',*,*,#400,.T.);
#115=ORIENTED_EDGE('',*,*,#401,.F.);
#116=ORIENTED_EDGE('',*,*,#402,.T.);
#117=ORIENTED_EDGE('',*,*,#403,.T.);
#118=ORIENTED_EDGE('',*,*,#404,.T.);
#119=ORIENTED_EDGE('',*,*,#405,.T.);
#120=ORIENTED_EDGE('',*,*,#406,.T.);
#121=ORIENTED_EDGE('',*,*,#407,.F.);
#122=ORIENTED_EDGE('',*,*,#408,.T.);
#123=ORIENTED_EDGE('',*,*,#409,.T.);
#124=ORIENTED_EDGE('',*,*,#410,.T.);
#125=ORIENTED_EDGE('',*,*,#411,.F.);
#126=ORIENTED_EDGE('',*,*,#412,.F.);
#127=ORIENTED_EDGE('',*,*,#413,.F.);
#128=ORIENTED_EDGE('',*,*,#414,.F.);
#129=ORIENTED_EDGE('',*,*,#415,.T.);
#130=ORIENTED_EDGE('',*,*,#416,.T.);
#131=ORIENTED_EDGE('',*,*,#417,.T.);
#132=ORIENTED_EDGE('',*,*,#418,.T.);
#133=ORIENTED_EDGE('',*,*,#419,.T.);
#134=ORIENTED_EDGE('',*,*,#420,.F.);
#135=ORIENTED_EDGE('',*,*,#421,.T.);
#136=ORIENTED_EDGE('',*,*,#397,.T.);
#137=ORIENTED_EDGE('',*,*,#422,.T.);
#138=ORIENTED_EDGE('',*,*,#423,.F.);
#139=ORIENTED_EDGE('',*,*,#424,.F.);
#140=ORIENTED_EDGE('',*,*,#425,.F.);
#141=ORIENTED_EDGE('',*,*,#426,.T.);
#142=ORIENTED_EDGE('',*,*,#427,.F.);
#143=ORIENTED_EDGE('',*,*,#428,.T.);
#144=ORIENTED_EDGE('',*,*,#429,.T.);
#145=ORIENTED_EDGE('',*,*,#430,.T.);
#146=ORIENTED_EDGE('',*,*,#425,.T.);
#147=ORIENTED_EDGE('',*,*,#431,.F.);
#148=ORIENTED_EDGE('',*,*,#432,.F.);
#149=ORIENTED_EDGE('',*,*,#433,.T.);
#150=ORIENTED_EDGE('',*,*,#434,.T.);
#151=ORIENTED_EDGE('',*,*,#435,.T.);
#152=ORIENTED_EDGE('',*,*,#436,.T.);
#153=ORIENTED_EDGE('',*,*,#437,.F.);
#154=ORIENTED_EDGE('',*,*,#438,.T.);
#155=ORIENTED_EDGE('',*,*,#439,.T.);
#156=ORIENTED_EDGE('',*,*,#440,.F.);
#157=ORIENTED_EDGE('',*,*,#441,.T.);
#158=ORIENTED_EDGE('',*,*,#442,.F.);
#159=ORIENTED_EDGE('',*,*,#443,.T.);
#160=ORIENTED_EDGE('',*,*,#444,.F.);
#161=ORIENTED_EDGE('',*,*,#445,.T.);
#162=ORIENTED_EDGE('',*,*,#446,.T.);
#163=ORIENTED_EDGE('',*,*,#447,.T.);
#164=ORIENTED_EDGE('',*,*,#448,.F.);
#165=ORIENTED_EDGE('',*,*,#449,.T.);
#166=ORIENTED_EDGE('',*,*,#450,.F.);
#167=ORIENTED_EDGE('',*,*,#451,.T.);
#168=ORIENTED_EDGE('',*,*,#452,.T.);
#169=ORIENTED_EDGE('',*,*,#453,.T.);
#170=ORIENTED_EDGE('',*,*,#454,.F.);
#171=ORIENTED_EDGE('',*,*,#450,.T.);
#172=ORIENTED_EDGE('',*,*,#455,.T.);
#173=ORIENTED_EDGE('',*,*,#403,.F.);
#174=ORIENTED_EDGE('',*,*,#456,.T.);
#175=ORIENTED_EDGE('',*,*,#452,.F.);
#176=ORIENTED_EDGE('',*,*,#457,.T.);
#177=ORIENTED_EDGE('',*,*,#401,.T.);
#178=ORIENTED_EDGE('',*,*,#458,.T.);
#179=ORIENTED_EDGE('',*,*,#429,.F.);
#180=ORIENTED_EDGE('',*,*,#459,.T.);
#181=ORIENTED_EDGE('',*,*,#460,.T.);
#182=ORIENTED_EDGE('',*,*,#461,.T.);
#183=ORIENTED_EDGE('',*,*,#399,.T.);
#184=ORIENTED_EDGE('',*,*,#462,.T.);
#185=ORIENTED_EDGE('',*,*,#463,.T.);
#186=ORIENTED_EDGE('',*,*,#464,.T.);
#187=ORIENTED_EDGE('',*,*,#465,.T.);
#188=ORIENTED_EDGE('',*,*,#466,.T.);
#189=ORIENTED_EDGE('',*,*,#395,.F.);
#190=ORIENTED_EDGE('',*,*,#467,.T.);
#191=ORIENTED_EDGE('',*,*,#409,.F.);
#192=ORIENTED_EDGE('',*,*,#468,.T.);
#193=ORIENTED_EDGE('',*,*,#442,.T.);
#194=ORIENTED_EDGE('',*,*,#469,.T.);
#195=ORIENTED_EDGE('',*,*,#407,.T.);
#196=ORIENTED_EDGE('',*,*,#470,.T.);
#197=ORIENTED_EDGE('',*,*,#438,.F.);
#198=ORIENTED_EDGE('',*,*,#471,.T.);
#199=ORIENTED_EDGE('',*,*,#472,.T.);
#200=ORIENTED_EDGE('',*,*,#440,.T.);
#201=ORIENTED_EDGE('',*,*,#473,.T.);
#202=ORIENTED_EDGE('',*,*,#405,.F.);
#203=ORIENTED_EDGE('',*,*,#474,.T.);
#204=ORIENTED_EDGE('',*,*,#448,.T.);
#205=ORIENTED_EDGE('',*,*,#475,.T.);
#206=ORIENTED_EDGE('',*,*,#476,.T.);
#207=ORIENTED_EDGE('',*,*,#477,.T.);
#208=ORIENTED_EDGE('',*,*,#432,.T.);
#209=ORIENTED_EDGE('',*,*,#478,.F.);
#210=ORIENTED_EDGE('',*,*,#479,.T.);
#211=ORIENTED_EDGE('',*,*,#480,.T.);
#212=ORIENTED_EDGE('',*,*,#481,.T.);
#213=ORIENTED_EDGE('',*,*,#482,.T.);
#214=ORIENTED_EDGE('',*,*,#434,.F.);
#215=ORIENTED_EDGE('',*,*,#483,.T.);
#216=ORIENTED_EDGE('',*,*,#484,.T.);
#217=ORIENTED_EDGE('',*,*,#485,.T.);
#218=ORIENTED_EDGE('',*,*,#486,.F.);
#219=ORIENTED_EDGE('',*,*,#487,.T.);
#220=ORIENTED_EDGE('',*,*,#436,.F.);
#221=ORIENTED_EDGE('',*,*,#488,.T.);
#222=ORIENTED_EDGE('',*,*,#489,.T.);
#223=ORIENTED_EDGE('',*,*,#490,.T.);
#224=ORIENTED_EDGE('',*,*,#491,.T.);
#225=ORIENTED_EDGE('',*,*,#465,.F.);
#226=ORIENTED_EDGE('',*,*,#492,.T.);
#227=ORIENTED_EDGE('',*,*,#493,.F.);
#228=ORIENTED_EDGE('',*,*,#486,.T.);
#229=ORIENTED_EDGE('',*,*,#494,.T.);
#230=ORIENTED_EDGE('',*,*,#491,.F.);
#231=ORIENTED_EDGE('',*,*,#495,.T.);
#232=ORIENTED_EDGE('',*,*,#479,.F.);
#233=ORIENTED_EDGE('',*,*,#496,.F.);
#234=ORIENTED_EDGE('',*,*,#423,.T.);
#235=ORIENTED_EDGE('',*,*,#497,.T.);
#236=ORIENTED_EDGE('',*,*,#444,.T.);
#237=ORIENTED_EDGE('',*,*,#411,.T.);
#238=ORIENTED_EDGE('',*,*,#447,.F.);
#239=ORIENTED_EDGE('',*,*,#394,.F.);
#240=ORIENTED_EDGE('',*,*,#446,.F.);
#241=ORIENTED_EDGE('',*,*,#393,.F.);
#242=ORIENTED_EDGE('',*,*,#454,.T.);
#243=ORIENTED_EDGE('',*,*,#412,.T.);
#244=ORIENTED_EDGE('',*,*,#445,.F.);
#245=ORIENTED_EDGE('',*,*,#392,.F.);
#246=ORIENTED_EDGE('',*,*,#437,.T.);
#247=ORIENTED_EDGE('',*,*,#413,.T.);
#248=ORIENTED_EDGE('',*,*,#493,.T.);
#249=ORIENTED_EDGE('',*,*,#498,.T.);
#250=ORIENTED_EDGE('',*,*,#427,.T.);
#251=ORIENTED_EDGE('',*,*,#487,.F.);
#252=ORIENTED_EDGE('',*,*,#431,.T.);
#253=ORIENTED_EDGE('',*,*,#424,.T.);
#254=ORIENTED_EDGE('',*,*,#496,.T.);
#255=ORIENTED_EDGE('',*,*,#478,.T.);
#256=ORIENTED_EDGE('',*,*,#386,.F.);
#257=ORIENTED_EDGE('',*,*,#499,.T.);
#258=ORIENTED_EDGE('',*,*,#414,.T.);
#259=ORIENTED_EDGE('',*,*,#500,.T.);
#260=ORIENTED_EDGE('',*,*,#384,.T.);
#261=ORIENTED_EDGE('',*,*,#501,.T.);
#262=ORIENTED_EDGE('',*,*,#416,.F.);
#263=ORIENTED_EDGE('',*,*,#502,.T.);
#264=ORIENTED_EDGE('',*,*,#418,.F.);
#265=ORIENTED_EDGE('',*,*,#503,.T.);
#266=ORIENTED_EDGE('',*,*,#390,.T.);
#267=ORIENTED_EDGE('',*,*,#504,.T.);
#268=ORIENTED_EDGE('',*,*,#420,.T.);
#269=ORIENTED_EDGE('',*,*,#505,.T.);
#270=ORIENTED_EDGE('',*,*,#388,.F.);
#271=ORIENTED_EDGE('',*,*,#506,.T.);
#272=ORIENTED_EDGE('',*,*,#410,.F.);
#273=ORIENTED_EDGE('',*,*,#469,.F.);
#274=ORIENTED_EDGE('',*,*,#507,.F.);
#275=ORIENTED_EDGE('',*,*,#467,.F.);
#276=ORIENTED_EDGE('',*,*,#441,.F.);
#277=ORIENTED_EDGE('',*,*,#508,.T.);
#278=ORIENTED_EDGE('',*,*,#463,.F.);
#279=ORIENTED_EDGE('',*,*,#507,.T.);
#280=ORIENTED_EDGE('',*,*,#400,.F.);
#281=ORIENTED_EDGE('',*,*,#461,.F.);
#282=ORIENTED_EDGE('',*,*,#509,.F.);
#283=ORIENTED_EDGE('',*,*,#458,.F.);
#284=ORIENTED_EDGE('',*,*,#460,.F.);
#285=ORIENTED_EDGE('',*,*,#510,.T.);
#286=ORIENTED_EDGE('',*,*,#453,.F.);
#287=ORIENTED_EDGE('',*,*,#509,.T.);
#288=ORIENTED_EDGE('',*,*,#449,.F.);
#289=ORIENTED_EDGE('',*,*,#474,.F.);
#290=ORIENTED_EDGE('',*,*,#404,.F.);
#291=ORIENTED_EDGE('',*,*,#455,.F.);
#292=ORIENTED_EDGE('',*,*,#451,.F.);
#293=ORIENTED_EDGE('',*,*,#456,.F.);
#294=ORIENTED_EDGE('',*,*,#402,.F.);
#295=ORIENTED_EDGE('',*,*,#457,.F.);
#296=ORIENTED_EDGE('',*,*,#439,.F.);
#297=ORIENTED_EDGE('',*,*,#470,.F.);
#298=ORIENTED_EDGE('',*,*,#406,.F.);
#299=ORIENTED_EDGE('',*,*,#473,.F.);
#300=ORIENTED_EDGE('',*,*,#443,.F.);
#301=ORIENTED_EDGE('',*,*,#468,.F.);
#302=ORIENTED_EDGE('',*,*,#408,.F.);
#303=ORIENTED_EDGE('',*,*,#471,.F.);
#304=ORIENTED_EDGE('',*,*,#417,.F.);
#305=ORIENTED_EDGE('',*,*,#501,.F.);
#306=ORIENTED_EDGE('',*,*,#391,.F.);
#307=ORIENTED_EDGE('',*,*,#503,.F.);
#308=ORIENTED_EDGE('',*,*,#419,.F.);
#309=ORIENTED_EDGE('',*,*,#504,.F.);
#310=ORIENTED_EDGE('',*,*,#389,.F.);
#311=ORIENTED_EDGE('',*,*,#505,.F.);
#312=ORIENTED_EDGE('',*,*,#415,.F.);
#313=ORIENTED_EDGE('',*,*,#499,.F.);
#314=ORIENTED_EDGE('',*,*,#385,.F.);
#315=ORIENTED_EDGE('',*,*,#502,.F.);
#316=ORIENTED_EDGE('',*,*,#421,.F.);
#317=ORIENTED_EDGE('',*,*,#506,.F.);
#318=ORIENTED_EDGE('',*,*,#387,.F.);
#319=ORIENTED_EDGE('',*,*,#500,.F.);
#320=ORIENTED_EDGE('',*,*,#497,.F.);
#321=ORIENTED_EDGE('',*,*,#422,.F.);
#322=ORIENTED_EDGE('',*,*,#396,.F.);
#323=ORIENTED_EDGE('',*,*,#466,.F.);
#324=ORIENTED_EDGE('',*,*,#430,.F.);
#325=ORIENTED_EDGE('',*,*,#462,.F.);
#326=ORIENTED_EDGE('',*,*,#398,.F.);
#327=ORIENTED_EDGE('',*,*,#426,.F.);
#328=ORIENTED_EDGE('',*,*,#490,.F.);
#329=ORIENTED_EDGE('',*,*,#511,.T.);
#330=ORIENTED_EDGE('',*,*,#475,.F.);
#331=ORIENTED_EDGE('',*,*,#495,.F.);
#332=ORIENTED_EDGE('',*,*,#477,.F.);
#333=ORIENTED_EDGE('',*,*,#512,.T.);
#334=ORIENTED_EDGE('',*,*,#480,.F.);
#335=ORIENTED_EDGE('',*,*,#433,.F.);
#336=ORIENTED_EDGE('',*,*,#513,.T.);
#337=ORIENTED_EDGE('',*,*,#488,.F.);
#338=ORIENTED_EDGE('',*,*,#494,.F.);
#339=ORIENTED_EDGE('',*,*,#485,.F.);
#340=ORIENTED_EDGE('',*,*,#482,.F.);
#341=ORIENTED_EDGE('',*,*,#514,.T.);
#342=ORIENTED_EDGE('',*,*,#483,.F.);
#343=ORIENTED_EDGE('',*,*,#435,.F.);
#344=ORIENTED_EDGE('',*,*,#515,.F.);
#345=ORIENTED_EDGE('',*,*,#481,.F.);
#346=ORIENTED_EDGE('',*,*,#516,.F.);
#347=ORIENTED_EDGE('',*,*,#383,.F.);
#348=ORIENTED_EDGE('',*,*,#516,.T.);
#349=ORIENTED_EDGE('',*,*,#512,.F.);
#350=ORIENTED_EDGE('',*,*,#517,.F.);
#351=ORIENTED_EDGE('',*,*,#514,.F.);
#352=ORIENTED_EDGE('',*,*,#515,.T.);
#353=ORIENTED_EDGE('',*,*,#518,.F.);
#354=ORIENTED_EDGE('',*,*,#517,.T.);
#355=ORIENTED_EDGE('',*,*,#476,.F.);
#356=ORIENTED_EDGE('',*,*,#519,.F.);
#357=ORIENTED_EDGE('',*,*,#380,.F.);
#358=ORIENTED_EDGE('',*,*,#518,.T.);
#359=ORIENTED_EDGE('',*,*,#382,.F.);
#360=ORIENTED_EDGE('',*,*,#520,.F.);
#361=ORIENTED_EDGE('',*,*,#484,.F.);
#362=ORIENTED_EDGE('',*,*,#519,.T.);
#363=ORIENTED_EDGE('',*,*,#511,.F.);
#364=ORIENTED_EDGE('',*,*,#521,.F.);
#365=ORIENTED_EDGE('',*,*,#513,.F.);
#366=ORIENTED_EDGE('',*,*,#520,.T.);
#367=ORIENTED_EDGE('',*,*,#522,.F.);
#368=ORIENTED_EDGE('',*,*,#521,.T.);
#369=ORIENTED_EDGE('',*,*,#489,.F.);
#370=ORIENTED_EDGE('',*,*,#522,.T.);
#371=ORIENTED_EDGE('',*,*,#381,.F.);
#372=ORIENTED_EDGE('',*,*,#428,.F.);
#373=ORIENTED_EDGE('',*,*,#498,.F.);
#374=ORIENTED_EDGE('',*,*,#492,.F.);
#375=ORIENTED_EDGE('',*,*,#464,.F.);
#376=ORIENTED_EDGE('',*,*,#508,.F.);
#377=ORIENTED_EDGE('',*,*,#472,.F.);
#378=ORIENTED_EDGE('',*,*,#510,.F.);
#379=ORIENTED_EDGE('',*,*,#459,.F.);
#380=EDGE_CURVE('',#523,#524,#617,.T.);
#381=EDGE_CURVE('',#524,#525,#618,.T.);
#382=EDGE_CURVE('',#525,#526,#619,.T.);
#383=EDGE_CURVE('',#526,#523,#620,.T.);
#384=EDGE_CURVE('',#527,#528,#621,.T.);
#385=EDGE_CURVE('',#527,#529,#50,.F.);
#386=EDGE_CURVE('',#529,#530,#622,.T.);
#387=EDGE_CURVE('',#530,#531,#51,.F.);
#388=EDGE_CURVE('',#531,#532,#623,.T.);
#389=EDGE_CURVE('',#532,#533,#52,.F.);
#390=EDGE_CURVE('',#534,#533,#624,.T.);
#391=EDGE_CURVE('',#534,#528,#53,.F.);
#392=EDGE_CURVE('',#535,#535,#54,.T.);
#393=EDGE_CURVE('',#536,#536,#55,.T.);
#394=EDGE_CURVE('',#537,#537,#56,.T.);
#395=EDGE_CURVE('',#538,#539,#625,.T.);
#396=EDGE_CURVE('',#539,#540,#57,.F.);
#397=EDGE_CURVE('',#541,#540,#626,.T.);
#398=EDGE_CURVE('',#541,#542,#58,.F.);
#399=EDGE_CURVE('',#543,#542,#627,.T.);
#400=EDGE_CURVE('',#543,#544,#59,.T.);
#401=EDGE_CURVE('',#545,#544,#628,.T.);
#402=EDGE_CURVE('',#545,#546,#60,.F.);
#403=EDGE_CURVE('',#546,#547,#629,.T.);
#404=EDGE_CURVE('',#547,#548,#61,.F.);
#405=EDGE_CURVE('',#548,#549,#630,.T.);
#406=EDGE_CURVE('',#549,#550,#62,.F.);
#407=EDGE_CURVE('',#551,#550,#631,.T.);
#408=EDGE_CURVE('',#551,#552,#63,.F.);
#409=EDGE_CURVE('',#552,#553,#632,.T.);
#410=EDGE_CURVE('',#553,#538,#64,.T.);
#411=EDGE_CURVE('',#554,#554,#65,.T.);
#412=EDGE_CURVE('',#555,#555,#66,.T.);
#413=EDGE_CURVE('',#556,#556,#67,.T.);
#414=EDGE_CURVE('',#557,#558,#633,.T.);
#415=EDGE_CURVE('',#557,#559,#68,.T.);
#416=EDGE_CURVE('',#559,#560,#634,.T.);
#417=EDGE_CURVE('',#560,#561,#69,.T.);
#418=EDGE_CURVE('',#561,#562,#635,.T.);
#419=EDGE_CURVE('',#562,#563,#70,.T.);
#420=EDGE_CURVE('',#564,#563,#636,.T.);
#421=EDGE_CURVE('',#564,#558,#71,.T.);
#422=EDGE_CURVE('',#540,#565,#637,.F.);
#423=EDGE_CURVE('',#566,#565,#638,.T.);
#424=EDGE_CURVE('',#567,#566,#72,.T.);
#425=EDGE_CURVE('',#568,#567,#639,.T.);
#426=EDGE_CURVE('',#568,#541,#640,.T.);
#427=EDGE_CURVE('',#569,#570,#641,.T.);
#428=EDGE_CURVE('',#569,#571,#642,.T.);
#429=EDGE_CURVE('',#571,#572,#643,.T.);
#430=EDGE_CURVE('',#572,#568,#73,.T.);
#431=EDGE_CURVE('',#573,#567,#644,.T.);
#432=EDGE_CURVE('',#574,#573,#645,.T.);
#433=EDGE_CURVE('',#574,#575,#74,.F.);
#434=EDGE_CURVE('',#575,#576,#646,.T.);
#435=EDGE_CURVE('',#576,#577,#75,.F.);
#436=EDGE_CURVE('',#577,#570,#647,.T.);
#437=EDGE_CURVE('',#578,#578,#76,.T.);
#438=EDGE_CURVE('',#579,#580,#648,.T.);
#439=EDGE_CURVE('',#580,#581,#77,.T.);
#440=EDGE_CURVE('',#582,#581,#649,.T.);
#441=EDGE_CURVE('',#582,#583,#650,.T.);
#442=EDGE_CURVE('',#584,#583,#651,.T.);
#443=EDGE_CURVE('',#584,#579,#78,.T.);
#444=EDGE_CURVE('',#585,#585,#79,.T.);
#445=EDGE_CURVE('',#586,#586,#80,.F.);
#446=EDGE_CURVE('',#587,#587,#81,.F.);
#447=EDGE_CURVE('',#588,#588,#82,.F.);
#448=EDGE_CURVE('',#589,#590,#652,.T.);
#449=EDGE_CURVE('',#589,#591,#83,.T.);
#450=EDGE_CURVE('',#592,#591,#653,.T.);
#451=EDGE_CURVE('',#592,#593,#84,.T.);
#452=EDGE_CURVE('',#593,#594,#654,.T.);
#453=EDGE_CURVE('',#594,#590,#655,.F.);
#454=EDGE_CURVE('',#595,#595,#85,.T.);
#455=EDGE_CURVE('',#591,#547,#656,.T.);
#456=EDGE_CURVE('',#546,#592,#657,.F.);
#457=EDGE_CURVE('',#593,#545,#658,.T.);
#458=EDGE_CURVE('',#544,#594,#659,.F.);
#459=EDGE_CURVE('',#571,#596,#660,.F.);
#460=EDGE_CURVE('',#596,#597,#661,.T.);
#461=EDGE_CURVE('',#597,#543,#662,.T.);
#462=EDGE_CURVE('',#542,#572,#663,.F.);
#463=EDGE_CURVE('',#598,#599,#664,.F.);
#464=EDGE_CURVE('',#599,#600,#665,.F.);
#465=EDGE_CURVE('',#600,#601,#666,.T.);
#466=EDGE_CURVE('',#601,#539,#667,.T.);
#467=EDGE_CURVE('',#538,#598,#668,.F.);
#468=EDGE_CURVE('',#552,#584,#669,.F.);
#469=EDGE_CURVE('',#583,#553,#670,.T.);
#470=EDGE_CURVE('',#550,#580,#671,.F.);
#471=EDGE_CURVE('',#579,#551,#672,.T.);
#472=EDGE_CURVE('',#590,#582,#673,.T.);
#473=EDGE_CURVE('',#581,#549,#674,.T.);
#474=EDGE_CURVE('',#548,#589,#675,.F.);
#475=EDGE_CURVE('',#602,#603,#676,.T.);
#476=EDGE_CURVE('',#603,#604,#677,.T.);
#477=EDGE_CURVE('',#604,#574,#678,.F.);
#478=EDGE_CURVE('',#605,#573,#86,.T.);
#479=EDGE_CURVE('',#605,#602,#679,.T.);
#480=EDGE_CURVE('',#575,#606,#680,.T.);
#481=EDGE_CURVE('',#606,#607,#681,.T.);
#482=EDGE_CURVE('',#607,#576,#682,.F.);
#483=EDGE_CURVE('',#577,#608,#683,.T.);
#484=EDGE_CURVE('',#608,#609,#684,.T.);
#485=EDGE_CURVE('',#609,#610,#685,.F.);
#486=EDGE_CURVE('',#611,#610,#686,.T.);
#487=EDGE_CURVE('',#611,#570,#87,.T.);
#488=EDGE_CURVE('',#612,#613,#687,.T.);
#489=EDGE_CURVE('',#613,#614,#688,.T.);
#490=EDGE_CURVE('',#614,#615,#689,.F.);
#491=EDGE_CURVE('',#615,#612,#690,.T.);
#492=EDGE_CURVE('',#600,#616,#691,.T.);
#493=EDGE_CURVE('',#611,#616,#692,.F.);
#494=EDGE_CURVE('',#610,#612,#88,.F.);
#495=EDGE_CURVE('',#615,#602,#89,.F.);
#496=EDGE_CURVE('',#566,#605,#693,.F.);
#497=EDGE_CURVE('',#565,#601,#90,.T.);
#498=EDGE_CURVE('',#616,#569,#19,.F.);
#499=EDGE_CURVE('',#529,#557,#694,.F.);
#500=EDGE_CURVE('',#558,#530,#695,.T.);
#501=EDGE_CURVE('',#528,#560,#696,.F.);
#502=EDGE_CURVE('',#559,#527,#697,.T.);
#503=EDGE_CURVE('',#561,#534,#698,.T.);
#504=EDGE_CURVE('',#533,#562,#699,.F.);
#505=EDGE_CURVE('',#563,#532,#700,.T.);
#506=EDGE_CURVE('',#531,#564,#701,.F.);
#507=EDGE_CURVE('',#598,#583,#20,.F.);
#508=EDGE_CURVE('',#582,#599,#21,.F.);
#509=EDGE_CURVE('',#594,#597,#22,.F.);
#510=EDGE_CURVE('',#596,#590,#23,.F.);
#511=EDGE_CURVE('',#614,#603,#91,.F.);
#512=EDGE_CURVE('',#604,#606,#92,.F.);
#513=EDGE_CURVE('',#609,#613,#16,.F.);
#514=EDGE_CURVE('',#607,#608,#93,.F.);
#515=EDGE_CURVE('',#607,#526,#702,.T.);
#516=EDGE_CURVE('',#523,#606,#703,.T.);
#517=EDGE_CURVE('',#523,#604,#704,.T.);
#518=EDGE_CURVE('',#608,#526,#705,.T.);
#519=EDGE_CURVE('',#524,#603,#706,.T.);
#520=EDGE_CURVE('',#609,#525,#17,.F.);
#521=EDGE_CURVE('',#524,#614,#707,.T.);
#522=EDGE_CURVE('',#613,#525,#18,.T.);
#523=VERTEX_POINT('',#1461);
#524=VERTEX_POINT('',#1462);
#525=VERTEX_POINT('',#1464);
#526=VERTEX_POINT('',#1466);
#527=VERTEX_POINT('',#1469);
#528=VERTEX_POINT('',#1470);
#529=VERTEX_POINT('',#1472);
#530=VERTEX_POINT('',#1474);
#531=VERTEX_POINT('',#1476);
#532=VERTEX_POINT('',#1478);
#533=VERTEX_POINT('',#1480);
#534=VERTEX_POINT('',#1482);
#535=VERTEX_POINT('',#1486);
#536=VERTEX_POINT('',#1488);
#537=VERTEX_POINT('',#1490);
#538=VERTEX_POINT('',#1492);
#539=VERTEX_POINT('',#1493);
#540=VERTEX_POINT('',#1495);
#541=VERTEX_POINT('',#1497);
#542=VERTEX_POINT('',#1499);
#543=VERTEX_POINT('',#1501);
#544=VERTEX_POINT('',#1503);
#545=VERTEX_POINT('',#1505);
#546=VERTEX_POINT('',#1507);
#547=VERTEX_POINT('',#1509);
#548=VERTEX_POINT('',#1511);
#549=VERTEX_POINT('',#1513);
#550=VERTEX_POINT('',#1515);
#551=VERTEX_POINT('',#1517);
#552=VERTEX_POINT('',#1519);
#553=VERTEX_POINT('',#1521);
#554=VERTEX_POINT('',#1524);
#555=VERTEX_POINT('',#1526);
#556=VERTEX_POINT('',#1528);
#557=VERTEX_POINT('',#1530);
#558=VERTEX_POINT('',#1531);
#559=VERTEX_POINT('',#1533);
#560=VERTEX_POINT('',#1535);
#561=VERTEX_POINT('',#1537);
#562=VERTEX_POINT('',#1539);
#563=VERTEX_POINT('',#1541);
#564=VERTEX_POINT('',#1543);
#565=VERTEX_POINT('',#1547);
#566=VERTEX_POINT('',#1549);
#567=VERTEX_POINT('',#1551);
#568=VERTEX_POINT('',#1553);
#569=VERTEX_POINT('',#1557);
#570=VERTEX_POINT('',#1558);
#571=VERTEX_POINT('',#1560);
#572=VERTEX_POINT('',#1562);
#573=VERTEX_POINT('',#1565);
#574=VERTEX_POINT('',#1567);
#575=VERTEX_POINT('',#1569);
#576=VERTEX_POINT('',#1571);
#577=VERTEX_POINT('',#1573);
#578=VERTEX_POINT('',#1577);
#579=VERTEX_POINT('',#1579);
#580=VERTEX_POINT('',#1580);
#581=VERTEX_POINT('',#1582);
#582=VERTEX_POINT('',#1584);
#583=VERTEX_POINT('',#1586);
#584=VERTEX_POINT('',#1588);
#585=VERTEX_POINT('',#1591);
#586=VERTEX_POINT('',#1593);
#587=VERTEX_POINT('',#1596);
#588=VERTEX_POINT('',#1598);
#589=VERTEX_POINT('',#1600);
#590=VERTEX_POINT('',#1601);
#591=VERTEX_POINT('',#1603);
#592=VERTEX_POINT('',#1605);
#593=VERTEX_POINT('',#1607);
#594=VERTEX_POINT('',#1609);
#595=VERTEX_POINT('',#1612);
#596=VERTEX_POINT('',#1621);
#597=VERTEX_POINT('',#1623);
#598=VERTEX_POINT('',#1628);
#599=VERTEX_POINT('',#1629);
#600=VERTEX_POINT('',#1631);
#601=VERTEX_POINT('',#1633);
#602=VERTEX_POINT('',#1648);
#603=VERTEX_POINT('',#1649);
#604=VERTEX_POINT('',#1651);
#605=VERTEX_POINT('',#1654);
#606=VERTEX_POINT('',#1658);
#607=VERTEX_POINT('',#1660);
#608=VERTEX_POINT('',#1664);
#609=VERTEX_POINT('',#1666);
#610=VERTEX_POINT('',#1668);
#611=VERTEX_POINT('',#1670);
#612=VERTEX_POINT('',#1674);
#613=VERTEX_POINT('',#1675);
#614=VERTEX_POINT('',#1677);
#615=VERTEX_POINT('',#1679);
#616=VERTEX_POINT('',#1683);
#617=LINE('',#1460,#708);
#618=LINE('',#1463,#709);
#619=LINE('',#1465,#710);
#620=LINE('',#1467,#711);
#621=LINE('',#1468,#712);
#622=LINE('',#1473,#713);
#623=LINE('',#1477,#714);
#624=LINE('',#1481,#715);
#625=LINE('',#1491,#716);
#626=LINE('',#1496,#717);
#627=LINE('',#1500,#718);
#628=LINE('',#1504,#719);
#629=LINE('',#1508,#720);
#630=LINE('',#1512,#721);
#631=LINE('',#1516,#722);
#632=LINE('',#1520,#723);
#633=LINE('',#1529,#724);
#634=LINE('',#1534,#725);
#635=LINE('',#1538,#726);
#636=LINE('',#1542,#727);
#637=LINE('',#1546,#728);
#638=LINE('',#1548,#729);
#639=LINE('',#1552,#730);
#640=LINE('',#1554,#731);
#641=LINE('',#1556,#732);
#642=LINE('',#1559,#733);
#643=LINE('',#1561,#734);
#644=LINE('',#1564,#735);
#645=LINE('',#1566,#736);
#646=LINE('',#1570,#737);
#647=LINE('',#1574,#738);
#648=LINE('',#1578,#739);
#649=LINE('',#1583,#740);
#650=LINE('',#1585,#741);
#651=LINE('',#1587,#742);
#652=LINE('',#1599,#743);
#653=LINE('',#1604,#744);
#654=LINE('',#1608,#745);
#655=LINE('',#1610,#746);
#656=LINE('',#1614,#747);
#657=LINE('',#1615,#748);
#658=LINE('',#1617,#749);
#659=LINE('',#1618,#750);
#660=LINE('',#1620,#751);
#661=LINE('',#1622,#752);
#662=LINE('',#1624,#753);
#663=LINE('',#1625,#754);
#664=LINE('',#1627,#755);
#665=LINE('',#1630,#756);
#666=LINE('',#1632,#757);
#667=LINE('',#1634,#758);
#668=LINE('',#1635,#759);
#669=LINE('',#1637,#760);
#670=LINE('',#1638,#761);
#671=LINE('',#1640,#762);
#672=LINE('',#1641,#763);
#673=LINE('',#1643,#764);
#674=LINE('',#1644,#765);
#675=LINE('',#1645,#766);
#676=LINE('',#1647,#767);
#677=LINE('',#1650,#768);
#678=LINE('',#1652,#769);
#679=LINE('',#1655,#770);
#680=LINE('',#1657,#771);
#681=LINE('',#1659,#772);
#682=LINE('',#1661,#773);
#683=LINE('',#1663,#774);
#684=LINE('',#1665,#775);
#685=LINE('',#1667,#776);
#686=LINE('',#1669,#777);
#687=LINE('',#1673,#778);
#688=LINE('',#1676,#779);
#689=LINE('',#1678,#780);
#690=LINE('',#1680,#781);
#691=LINE('',#1682,#782);
#692=LINE('',#1684,#783);
#693=LINE('',#1687,#784);
#694=LINE('',#1699,#785);
#695=LINE('',#1700,#786);
#696=LINE('',#1702,#787);
#697=LINE('',#1703,#788);
#698=LINE('',#1705,#789);
#699=LINE('',#1706,#790);
#700=LINE('',#1708,#791);
#701=LINE('',#1709,#792);
#702=LINE('',#1742,#793);
#703=LINE('',#1743,#794);
#704=LINE('',#1745,#795);
#705=LINE('',#1747,#796);
#706=LINE('',#1749,#797);
#707=LINE('',#1756,#798);
#708=VECTOR('',#1159,1.);
#709=VECTOR('',#1160,1.);
#710=VECTOR('',#1161,1.);
#711=VECTOR('',#1162,1.);
#712=VECTOR('',#1163,1.);
#713=VECTOR('',#1166,1.);
#714=VECTOR('',#1169,1.);
#715=VECTOR('',#1172,1.);
#716=VECTOR('',#1183,1.);
#717=VECTOR('',#1186,1.);
#718=VECTOR('',#1189,1.);
#719=VECTOR('',#1192,1.);
#720=VECTOR('',#1195,1.);
#721=VECTOR('',#1198,1.);
#722=VECTOR('',#1201,1.);
#723=VECTOR('',#1204,1.);
#724=VECTOR('',#1213,1.);
#725=VECTOR('',#1216,1.);
#726=VECTOR('',#1219,1.);
#727=VECTOR('',#1222,1.);
#728=VECTOR('',#1227,1.);
#729=VECTOR('',#1228,1.);
#730=VECTOR('',#1231,1.);
#731=VECTOR('',#1232,1.);
#732=VECTOR('',#1235,1.);
#733=VECTOR('',#1236,1.);
#734=VECTOR('',#1237,1.);
#735=VECTOR('',#1240,1.);
#736=VECTOR('',#1241,1.);
#737=VECTOR('',#1244,1.);
#738=VECTOR('',#1247,1.);
#739=VECTOR('',#1252,1.);
#740=VECTOR('',#1255,1.);
#741=VECTOR('',#1256,1.);
#742=VECTOR('',#1257,1.);
#743=VECTOR('',#1270,1.);
#744=VECTOR('',#1273,1.);
#745=VECTOR('',#1276,1.);
#746=VECTOR('',#1277,1.);
#747=VECTOR('',#1282,1.);
#748=VECTOR('',#1283,1.);
#749=VECTOR('',#1286,1.);
#750=VECTOR('',#1287,1.);
#751=VECTOR('',#1290,1.);
#752=VECTOR('',#1291,1.);
#753=VECTOR('',#1292,1.);
#754=VECTOR('',#1293,1.);
#755=VECTOR('',#1296,1.);
#756=VECTOR('',#1297,1.);
#757=VECTOR('',#1298,1.);
#758=VECTOR('',#1299,1.);
#759=VECTOR('',#1300,1.);
#760=VECTOR('',#1303,1.);
#761=VECTOR('',#1304,1.);
#762=VECTOR('',#1307,1.);
#763=VECTOR('',#1308,1.);
#764=VECTOR('',#1311,1.);
#765=VECTOR('',#1312,1.);
#766=VECTOR('',#1313,1.);
#767=VECTOR('',#1316,1.);
#768=VECTOR('',#1317,1.);
#769=VECTOR('',#1318,1.);
#770=VECTOR('',#1321,1.);
#771=VECTOR('',#1324,1.);
#772=VECTOR('',#1325,1.);
#773=VECTOR('',#1326,1.);
#774=VECTOR('',#1329,1.);
#775=VECTOR('',#1330,1.);
#776=VECTOR('',#1331,1.);
#777=VECTOR('',#1332,1.);
#778=VECTOR('',#1337,1.);
#779=VECTOR('',#1338,1.);
#780=VECTOR('',#1339,1.);
#781=VECTOR('',#1340,1.);
#782=VECTOR('',#1343,1.);
#783=VECTOR('',#1344,1.);
#784=VECTOR('',#1349,1.);
#785=VECTOR('',#1372,1.);
#786=VECTOR('',#1373,1.);
#787=VECTOR('',#1376,1.);
#788=VECTOR('',#1377,1.);
#789=VECTOR('',#1380,1.);
#790=VECTOR('',#1381,1.);
#791=VECTOR('',#1384,1.);
#792=VECTOR('',#1385,1.);
#793=VECTOR('',#1438,1.);
#794=VECTOR('',#1439,1.);
#795=VECTOR('',#1442,1.);
#796=VECTOR('',#1445,1.);
#797=VECTOR('',#1448,1.);
#798=VECTOR('',#1453,1.);
#799=EDGE_LOOP('',(#94,#95,#96,#97));
#800=EDGE_LOOP('',(#98,#99,#100,#101,#102,#103,#104,#105));
#801=EDGE_LOOP('',(#106));
#802=EDGE_LOOP('',(#107));
#803=EDGE_LOOP('',(#108));
#804=EDGE_LOOP('',(#109,#110,#111,#112,#113,#114,#115,#116,#117,#118,#119,
#120,#121,#122,#123,#124));
#805=EDGE_LOOP('',(#125));
#806=EDGE_LOOP('',(#126));
#807=EDGE_LOOP('',(#127));
#808=EDGE_LOOP('',(#128,#129,#130,#131,#132,#133,#134,#135));
#809=EDGE_LOOP('',(#136,#137,#138,#139,#140,#141));
#810=EDGE_LOOP('',(#142,#143,#144,#145,#146,#147,#148,#149,#150,#151,#152));
#811=EDGE_LOOP('',(#153));
#812=EDGE_LOOP('',(#154,#155,#156,#157,#158,#159));
#813=EDGE_LOOP('',(#160));
#814=EDGE_LOOP('',(#161));
#815=EDGE_LOOP('',(#162));
#816=EDGE_LOOP('',(#163));
#817=EDGE_LOOP('',(#164,#165,#166,#167,#168,#169));
#818=EDGE_LOOP('',(#170));
#819=EDGE_LOOP('',(#171,#172,#173,#174));
#820=EDGE_LOOP('',(#175,#176,#177,#178));
#821=EDGE_LOOP('',(#179,#180,#181,#182,#183,#184));
#822=EDGE_LOOP('',(#185,#186,#187,#188,#189,#190));
#823=EDGE_LOOP('',(#191,#192,#193,#194));
#824=EDGE_LOOP('',(#195,#196,#197,#198));
#825=EDGE_LOOP('',(#199,#200,#201,#202,#203,#204));
#826=EDGE_LOOP('',(#205,#206,#207,#208,#209,#210));
#827=EDGE_LOOP('',(#211,#212,#213,#214));
#828=EDGE_LOOP('',(#215,#216,#217,#218,#219,#220));
#829=EDGE_LOOP('',(#221,#222,#223,#224));
#830=EDGE_LOOP('',(#225,#226,#227,#228,#229,#230,#231,#232,#233,#234,#235));
#831=EDGE_LOOP('',(#236));
#832=EDGE_LOOP('',(#237));
#833=EDGE_LOOP('',(#238));
#834=EDGE_LOOP('',(#239));
#835=EDGE_LOOP('',(#240));
#836=EDGE_LOOP('',(#241));
#837=EDGE_LOOP('',(#242));
#838=EDGE_LOOP('',(#243));
#839=EDGE_LOOP('',(#244));
#840=EDGE_LOOP('',(#245));
#841=EDGE_LOOP('',(#246));
#842=EDGE_LOOP('',(#247));
#843=EDGE_LOOP('',(#248,#249,#250,#251));
#844=EDGE_LOOP('',(#252,#253,#254,#255));
#845=EDGE_LOOP('',(#256,#257,#258,#259));
#846=EDGE_LOOP('',(#260,#261,#262,#263));
#847=EDGE_LOOP('',(#264,#265,#266,#267));
#848=EDGE_LOOP('',(#268,#269,#270,#271));
#849=EDGE_LOOP('',(#272,#273,#274,#275));
#850=EDGE_LOOP('',(#276,#277,#278,#279));
#851=EDGE_LOOP('',(#280,#281,#282,#283));
#852=EDGE_LOOP('',(#284,#285,#286,#287));
#853=EDGE_LOOP('',(#288,#289,#290,#291));
#854=EDGE_LOOP('',(#292,#293,#294,#295));
#855=EDGE_LOOP('',(#296,#297,#298,#299));
#856=EDGE_LOOP('',(#300,#301,#302,#303));
#857=EDGE_LOOP('',(#304,#305,#306,#307));
#858=EDGE_LOOP('',(#308,#309,#310,#311));
#859=EDGE_LOOP('',(#312,#313,#314,#315));
#860=EDGE_LOOP('',(#316,#317,#318,#319));
#861=EDGE_LOOP('',(#320,#321,#322,#323));
#862=EDGE_LOOP('',(#324,#325,#326,#327));
#863=EDGE_LOOP('',(#328,#329,#330,#331));
#864=EDGE_LOOP('',(#332,#333,#334,#335));
#865=EDGE_LOOP('',(#336,#337,#338,#339));
#866=EDGE_LOOP('',(#340,#341,#342,#343));
#867=EDGE_LOOP('',(#344,#345,#346,#347));
#868=EDGE_LOOP('',(#348,#349,#350));
#869=EDGE_LOOP('',(#351,#352,#353));
#870=EDGE_LOOP('',(#354,#355,#356,#357));
#871=EDGE_LOOP('',(#358,#359,#360,#361));
#872=EDGE_LOOP('',(#362,#363,#364));
#873=EDGE_LOOP('',(#365,#366,#367));
#874=EDGE_LOOP('',(#368,#369,#370,#371));
#875=EDGE_LOOP('',(#372,#373,#374,#375,#376,#377,#378,#379));
#876=FACE_BOUND('',#799,.T.);
#877=FACE_BOUND('',#800,.T.);
#878=FACE_BOUND('',#801,.T.);
#879=FACE_BOUND('',#802,.T.);
#880=FACE_BOUND('',#803,.T.);
#881=FACE_BOUND('',#804,.T.);
#882=FACE_BOUND('',#805,.T.);
#883=FACE_BOUND('',#806,.T.);
#884=FACE_BOUND('',#807,.T.);
#885=FACE_BOUND('',#808,.T.);
#886=FACE_BOUND('',#809,.T.);
#887=FACE_BOUND('',#810,.T.);
#888=FACE_BOUND('',#811,.T.);
#889=FACE_BOUND('',#812,.T.);
#890=FACE_BOUND('',#813,.T.);
#891=FACE_BOUND('',#814,.T.);
#892=FACE_BOUND('',#815,.T.);
#893=FACE_BOUND('',#816,.T.);
#894=FACE_BOUND('',#817,.T.);
#895=FACE_BOUND('',#818,.T.);
#896=FACE_BOUND('',#819,.T.);
#897=FACE_BOUND('',#820,.T.);
#898=FACE_BOUND('',#821,.T.);
#899=FACE_BOUND('',#822,.T.);
#900=FACE_BOUND('',#823,.T.);
#901=FACE_BOUND('',#824,.T.);
#902=FACE_BOUND('',#825,.T.);
#903=FACE_BOUND('',#826,.T.);
#904=FACE_BOUND('',#827,.T.);
#905=FACE_BOUND('',#828,.T.);
#906=FACE_BOUND('',#829,.T.);
#907=FACE_BOUND('',#830,.T.);
#908=FACE_BOUND('',#831,.T.);
#909=FACE_BOUND('',#832,.T.);
#910=FACE_BOUND('',#833,.T.);
#911=FACE_BOUND('',#834,.T.);
#912=FACE_BOUND('',#835,.T.);
#913=FACE_BOUND('',#836,.T.);
#914=FACE_BOUND('',#837,.T.);
#915=FACE_BOUND('',#838,.T.);
#916=FACE_BOUND('',#839,.T.);
#917=FACE_BOUND('',#840,.T.);
#918=FACE_BOUND('',#841,.T.);
#919=FACE_BOUND('',#842,.T.);
#920=FACE_BOUND('',#843,.T.);
#921=FACE_BOUND('',#844,.T.);
#922=FACE_BOUND('',#845,.T.);
#923=FACE_BOUND('',#846,.T.);
#924=FACE_BOUND('',#847,.T.);
#925=FACE_BOUND('',#848,.T.);
#926=FACE_BOUND('',#849,.T.);
#927=FACE_BOUND('',#850,.T.);
#928=FACE_BOUND('',#851,.T.);
#929=FACE_BOUND('',#852,.T.);
#930=FACE_BOUND('',#853,.T.);
#931=FACE_BOUND('',#854,.T.);
#932=FACE_BOUND('',#855,.T.);
#933=FACE_BOUND('',#856,.T.);
#934=FACE_BOUND('',#857,.T.);
#935=FACE_BOUND('',#858,.T.);
#936=FACE_BOUND('',#859,.T.);
#937=FACE_BOUND('',#860,.T.);
#938=FACE_BOUND('',#861,.T.);
#939=FACE_BOUND('',#862,.T.);
#940=FACE_BOUND('',#863,.T.);
#941=FACE_BOUND('',#864,.T.);
#942=FACE_BOUND('',#865,.T.);
#943=FACE_BOUND('',#866,.T.);
#944=FACE_BOUND('',#867,.T.);
#945=FACE_BOUND('',#868,.T.);
#946=FACE_BOUND('',#869,.T.);
#947=FACE_BOUND('',#870,.T.);
#948=FACE_BOUND('',#871,.T.);
#949=FACE_BOUND('',#872,.T.);
#950=FACE_BOUND('',#873,.T.);
#951=FACE_BOUND('',#874,.T.);
#952=FACE_BOUND('',#875,.T.);
#953=PLANE('',#1050);
#954=PLANE('',#1055);
#955=PLANE('',#1074);
#956=PLANE('',#1076);
#957=PLANE('',#1080);
#958=PLANE('',#1086);
#959=PLANE('',#1092);
#960=PLANE('',#1093);
#961=PLANE('',#1094);
#962=PLANE('',#1095);
#963=PLANE('',#1096);
#964=PLANE('',#1097);
#965=PLANE('',#1098);
#966=PLANE('',#1099);
#967=PLANE('',#1101);
#968=PLANE('',#1102);
#969=PLANE('',#1104);
#970=PLANE('',#1105);
#971=PLANE('',#1118);
#972=PLANE('',#1119);
#973=PLANE('',#1120);
#974=PLANE('',#1121);
#975=PLANE('',#1147);
#976=PLANE('',#1150);
#977=PLANE('',#1151);
#978=PLANE('',#1153);
#979=PLANE('',#1154);
#980=ADVANCED_FACE('',(#876,#877),#953,.T.);
#981=ADVANCED_FACE('',(#878,#879,#880,#881,#882,#883,#884,#885),#954,.F.);
#982=ADVANCED_FACE('',(#886),#955,.F.);
#983=ADVANCED_FACE('',(#887),#956,.T.);
#984=ADVANCED_FACE('',(#888,#889,#890,#891),#957,.T.);
#985=ADVANCED_FACE('',(#892,#893,#894,#895),#958,.T.);
#986=ADVANCED_FACE('',(#896),#959,.T.);
#987=ADVANCED_FACE('',(#897),#960,.F.);
#988=ADVANCED_FACE('',(#898),#961,.F.);
#989=ADVANCED_FACE('',(#899),#962,.T.);
#990=ADVANCED_FACE('',(#900),#963,.T.);
#991=ADVANCED_FACE('',(#901),#964,.F.);
#992=ADVANCED_FACE('',(#902),#965,.T.);
#993=ADVANCED_FACE('',(#903),#966,.T.);
#994=ADVANCED_FACE('',(#904),#967,.F.);
#995=ADVANCED_FACE('',(#905),#968,.F.);
#996=ADVANCED_FACE('',(#906),#969,.T.);
#997=ADVANCED_FACE('',(#907),#970,.T.);
#998=ADVANCED_FACE('',(#908,#909),#24,.F.);
#999=ADVANCED_FACE('',(#910,#911),#25,.F.);
#1000=ADVANCED_FACE('',(#912,#913),#26,.F.);
#1001=ADVANCED_FACE('',(#914,#915),#27,.F.);
#1002=ADVANCED_FACE('',(#916,#917),#28,.F.);
#1003=ADVANCED_FACE('',(#918,#919),#29,.F.);
#1004=ADVANCED_FACE('',(#920),#30,.F.);
#1005=ADVANCED_FACE('',(#921),#31,.F.);
#1006=ADVANCED_FACE('',(#922),#971,.T.);
#1007=ADVANCED_FACE('',(#923),#972,.F.);
#1008=ADVANCED_FACE('',(#924),#973,.F.);
#1009=ADVANCED_FACE('',(#925),#974,.T.);
#1010=ADVANCED_FACE('',(#926),#32,.F.);
#1011=ADVANCED_FACE('',(#927),#33,.F.);
#1012=ADVANCED_FACE('',(#928),#34,.F.);
#1013=ADVANCED_FACE('',(#929),#35,.F.);
#1014=ADVANCED_FACE('',(#930),#36,.T.);
#1015=ADVANCED_FACE('',(#931),#37,.T.);
#1016=ADVANCED_FACE('',(#932),#38,.T.);
#1017=ADVANCED_FACE('',(#933),#39,.T.);
#1018=ADVANCED_FACE('',(#934),#40,.F.);
#1019=ADVANCED_FACE('',(#935),#41,.F.);
#1020=ADVANCED_FACE('',(#936),#42,.F.);
#1021=ADVANCED_FACE('',(#937),#43,.F.);
#1022=ADVANCED_FACE('',(#938),#44,.T.);
#1023=ADVANCED_FACE('',(#939),#45,.T.);
#1024=ADVANCED_FACE('',(#940),#46,.F.);
#1025=ADVANCED_FACE('',(#941),#47,.F.);
#1026=ADVANCED_FACE('',(#942),#48,.F.);
#1027=ADVANCED_FACE('',(#943),#49,.F.);
#1028=ADVANCED_FACE('',(#944),#975,.F.);
#1029=ADVANCED_FACE('',(#945),#13,.F.);
#1030=ADVANCED_FACE('',(#946),#14,.F.);
#1031=ADVANCED_FACE('',(#947),#976,.T.);
#1032=ADVANCED_FACE('',(#948),#977,.F.);
#1033=ADVANCED_FACE('',(#949),#15,.F.);
#1034=ADVANCED_FACE('',(#950),#12,.T.);
#1035=ADVANCED_FACE('',(#951),#978,.T.);
#1036=ADVANCED_FACE('',(#952),#979,.F.);
#1037=CLOSED_SHELL('',(#980,#981,#982,#983,#984,#985,#986,#987,#988,#989,
#990,#991,#992,#993,#994,#995,#996,#997,#998,#999,#1000,#1001,#1002,#1003,
#1004,#1005,#1006,#1007,#1008,#1009,#1010,#1011,#1012,#1013,#1014,#1015,
#1016,#1017,#1018,#1019,#1020,#1021,#1022,#1023,#1024,#1025,#1026,#1027,
#1028,#1029,#1030,#1031,#1032,#1033,#1034,#1035,#1036));
#1038=STYLED_ITEM('',(#1039),#1046);
#1039=PRESENTATION_STYLE_ASSIGNMENT((#1040));
#1040=SURFACE_STYLE_USAGE(.BOTH.,#1041);
#1041=SURFACE_SIDE_STYLE('',(#1042));
#1042=SURFACE_STYLE_FILL_AREA(#1043);
#1043=FILL_AREA_STYLE('',(#1044));
#1044=FILL_AREA_STYLE_COLOUR('',#1045);
#1045=COLOUR_RGB('',0.615686274509804,0.811764705882353,0.929411764705882);
#1046=MANIFOLD_SOLID_BREP('Part 1',#1037);
#1047=SHAPE_DEFINITION_REPRESENTATION(#1793,#1048);
#1048=SHAPE_REPRESENTATION('Part 1',(#1049),#1788);
#1049=AXIS2_PLACEMENT_3D('',#1458,#1155,#1156);
#1050=AXIS2_PLACEMENT_3D('',#1459,#1157,#1158);
#1051=AXIS2_PLACEMENT_3D('',#1471,#1164,#1165);
#1052=AXIS2_PLACEMENT_3D('',#1475,#1167,#1168);
#1053=AXIS2_PLACEMENT_3D('',#1479,#1170,#1171);
#1054=AXIS2_PLACEMENT_3D('',#1483,#1173,#1174);
#1055=AXIS2_PLACEMENT_3D('',#1484,#1175,#1176);
#1056=AXIS2_PLACEMENT_3D('',#1485,#1177,#1178);
#1057=AXIS2_PLACEMENT_3D('',#1487,#1179,#1180);
#1058=AXIS2_PLACEMENT_3D('',#1489,#1181,#1182);
#1059=AXIS2_PLACEMENT_3D('',#1494,#1184,#1185);
#1060=AXIS2_PLACEMENT_3D('',#1498,#1187,#1188);
#1061=AXIS2_PLACEMENT_3D('',#1502,#1190,#1191);
#1062=AXIS2_PLACEMENT_3D('',#1506,#1193,#1194);
#1063=AXIS2_PLACEMENT_3D('',#1510,#1196,#1197);
#1064=AXIS2_PLACEMENT_3D('',#1514,#1199,#1200);
#1065=AXIS2_PLACEMENT_3D('',#1518,#1202,#1203);
#1066=AXIS2_PLACEMENT_3D('',#1522,#1205,#1206);
#1067=AXIS2_PLACEMENT_3D('',#1523,#1207,#1208);
#1068=AXIS2_PLACEMENT_3D('',#1525,#1209,#1210);
#1069=AXIS2_PLACEMENT_3D('',#1527,#1211,#1212);
#1070=AXIS2_PLACEMENT_3D('',#1532,#1214,#1215);
#1071=AXIS2_PLACEMENT_3D('',#1536,#1217,#1218);
#1072=AXIS2_PLACEMENT_3D('',#1540,#1220,#1221);
#1073=AXIS2_PLACEMENT_3D('',#1544,#1223,#1224);
#1074=AXIS2_PLACEMENT_3D('',#1545,#1225,#1226);
#1075=AXIS2_PLACEMENT_3D('',#1550,#1229,#1230);
#1076=AXIS2_PLACEMENT_3D('',#1555,#1233,#1234);
#1077=AXIS2_PLACEMENT_3D('',#1563,#1238,#1239);
#1078=AXIS2_PLACEMENT_3D('',#1568,#1242,#1243);
#1079=AXIS2_PLACEMENT_3D('',#1572,#1245,#1246);
#1080=AXIS2_PLACEMENT_3D('',#1575,#1248,#1249);
#1081=AXIS2_PLACEMENT_3D('',#1576,#1250,#1251);
#1082=AXIS2_PLACEMENT_3D('',#1581,#1253,#1254);
#1083=AXIS2_PLACEMENT_3D('',#1589,#1258,#1259);
#1084=AXIS2_PLACEMENT_3D('',#1590,#1260,#1261);
#1085=AXIS2_PLACEMENT_3D('',#1592,#1262,#1263);
#1086=AXIS2_PLACEMENT_3D('',#1594,#1264,#1265);
#1087=AXIS2_PLACEMENT_3D('',#1595,#1266,#1267);
#1088=AXIS2_PLACEMENT_3D('',#1597,#1268,#1269);
#1089=AXIS2_PLACEMENT_3D('',#1602,#1271,#1272);
#1090=AXIS2_PLACEMENT_3D('',#1606,#1274,#1275);
#1091=AXIS2_PLACEMENT_3D('',#1611,#1278,#1279);
#1092=AXIS2_PLACEMENT_3D('',#1613,#1280,#1281);
#1093=AXIS2_PLACEMENT_3D('',#1616,#1284,#1285);
#1094=AXIS2_PLACEMENT_3D('',#1619,#1288,#1289);
#1095=AXIS2_PLACEMENT_3D('',#1626,#1294,#1295);
#1096=AXIS2_PLACEMENT_3D('',#1636,#1301,#1302);
#1097=AXIS2_PLACEMENT_3D('',#1639,#1305,#1306);
#1098=AXIS2_PLACEMENT_3D('',#1642,#1309,#1310);
#1099=AXIS2_PLACEMENT_3D('',#1646,#1314,#1315);
#1100=AXIS2_PLACEMENT_3D('',#1653,#1319,#1320);
#1101=AXIS2_PLACEMENT_3D('',#1656,#1322,#1323);
#1102=AXIS2_PLACEMENT_3D('',#1662,#1327,#1328);
#1103=AXIS2_PLACEMENT_3D('',#1671,#1333,#1334);
#1104=AXIS2_PLACEMENT_3D('',#1672,#1335,#1336);
#1105=AXIS2_PLACEMENT_3D('',#1681,#1341,#1342);
#1106=AXIS2_PLACEMENT_3D('',#1685,#1345,#1346);
#1107=AXIS2_PLACEMENT_3D('',#1686,#1347,#1348);
#1108=AXIS2_PLACEMENT_3D('',#1688,#1350,#1351);
#1109=AXIS2_PLACEMENT_3D('',#1689,#1352,#1353);
#1110=AXIS2_PLACEMENT_3D('',#1690,#1354,#1355);
#1111=AXIS2_PLACEMENT_3D('',#1691,#1356,#1357);
#1112=AXIS2_PLACEMENT_3D('',#1692,#1358,#1359);
#1113=AXIS2_PLACEMENT_3D('',#1693,#1360,#1361);
#1114=AXIS2_PLACEMENT_3D('',#1694,#1362,#1363);
#1115=AXIS2_PLACEMENT_3D('',#1695,#1364,#1365);
#1116=AXIS2_PLACEMENT_3D('',#1696,#1366,#1367);
#1117=AXIS2_PLACEMENT_3D('',#1697,#1368,#1369);
#1118=AXIS2_PLACEMENT_3D('',#1698,#1370,#1371);
#1119=AXIS2_PLACEMENT_3D('',#1701,#1374,#1375);
#1120=AXIS2_PLACEMENT_3D('',#1704,#1378,#1379);
#1121=AXIS2_PLACEMENT_3D('',#1707,#1382,#1383);
#1122=AXIS2_PLACEMENT_3D('',#1710,#1386,#1387);
#1123=AXIS2_PLACEMENT_3D('',#1711,#1388,#1389);
#1124=AXIS2_PLACEMENT_3D('',#1712,#1390,#1391);
#1125=AXIS2_PLACEMENT_3D('',#1713,#1392,#1393);
#1126=AXIS2_PLACEMENT_3D('',#1714,#1394,#1395);
#1127=AXIS2_PLACEMENT_3D('',#1715,#1396,#1397);
#1128=AXIS2_PLACEMENT_3D('',#1716,#1398,#1399);
#1129=AXIS2_PLACEMENT_3D('',#1717,#1400,#1401);
#1130=AXIS2_PLACEMENT_3D('',#1718,#1402,#1403);
#1131=AXIS2_PLACEMENT_3D('',#1719,#1404,#1405);
#1132=AXIS2_PLACEMENT_3D('',#1720,#1406,#1407);
#1133=AXIS2_PLACEMENT_3D('',#1721,#1408,#1409);
#1134=AXIS2_PLACEMENT_3D('',#1722,#1410,#1411);
#1135=AXIS2_PLACEMENT_3D('',#1723,#1412,#1413);
#1136=AXIS2_PLACEMENT_3D('',#1724,#1414,#1415);
#1137=AXIS2_PLACEMENT_3D('',#1725,#1416,#1417);
#1138=AXIS2_PLACEMENT_3D('',#1726,#1418,#1419);
#1139=AXIS2_PLACEMENT_3D('',#1727,#1420,#1421);
#1140=AXIS2_PLACEMENT_3D('',#1728,#1422,#1423);
#1141=AXIS2_PLACEMENT_3D('',#1729,#1424,#1425);
#1142=AXIS2_PLACEMENT_3D('',#1730,#1426,#1427);
#1143=AXIS2_PLACEMENT_3D('',#1731,#1428,#1429);
#1144=AXIS2_PLACEMENT_3D('',#1732,#1430,#1431);
#1145=AXIS2_PLACEMENT_3D('',#1739,#1432,#1433);
#1146=AXIS2_PLACEMENT_3D('',#1740,#1434,#1435);
#1147=AXIS2_PLACEMENT_3D('',#1741,#1436,#1437);
#1148=AXIS2_PLACEMENT_3D('',#1744,#1440,#1441);
#1149=AXIS2_PLACEMENT_3D('',#1746,#1443,#1444);
#1150=AXIS2_PLACEMENT_3D('',#1748,#1446,#1447);
#1151=AXIS2_PLACEMENT_3D('',#1750,#1449,#1450);
#1152=AXIS2_PLACEMENT_3D('',#1755,#1451,#1452);
#1153=AXIS2_PLACEMENT_3D('',#1785,#1454,#1455);
#1154=AXIS2_PLACEMENT_3D('',#1786,#1456,#1457);
#1155=DIRECTION('',(0.,0.,1.));
#1156=DIRECTION('',(1.,0.,0.));
#1157=DIRECTION('',(0.,1.,0.));
#1158=DIRECTION('',(1.,0.,0.));
#1159=DIRECTION('',(1.,0.,0.));
#1160=DIRECTION('',(0.,0.,-1.));
#1161=DIRECTION('',(-1.,0.,0.));
#1162=DIRECTION('',(0.,0.,1.));
#1163=DIRECTION('',(0.,0.,1.));
#1164=DIRECTION('',(0.,1.,0.));
#1165=DIRECTION('',(1.,0.,0.));
#1166=DIRECTION('',(1.,0.,0.));
#1167=DIRECTION('',(0.,1.,0.));
#1168=DIRECTION('',(1.,0.,0.));
#1169=DIRECTION('',(0.,0.,1.));
#1170=DIRECTION('',(0.,1.,0.));
#1171=DIRECTION('',(1.,0.,0.));
#1172=DIRECTION('',(1.,0.,0.));
#1173=DIRECTION('',(0.,1.,0.));
#1174=DIRECTION('',(1.,0.,0.));
#1175=DIRECTION('',(0.,1.,0.));
#1176=DIRECTION('',(1.,0.,0.));
#1177=DIRECTION('',(0.,1.,0.));
#1178=DIRECTION('',(-1.,0.,0.));
#1179=DIRECTION('',(0.,1.,0.));
#1180=DIRECTION('',(-1.,0.,0.));
#1181=DIRECTION('',(0.,1.,0.));
#1182=DIRECTION('',(-1.,0.,0.));
#1183=DIRECTION('',(0.,0.,1.));
#1184=DIRECTION('',(0.,1.,0.));
#1185=DIRECTION('',(1.,0.,0.));
#1186=DIRECTION('',(1.,0.,0.));
#1187=DIRECTION('',(0.,1.,0.));
#1188=DIRECTION('',(1.,0.,0.));
#1189=DIRECTION('',(0.,0.,1.));
#1190=DIRECTION('',(0.,1.,0.));
#1191=DIRECTION('',(1.,0.,0.));
#1192=DIRECTION('',(1.,0.,0.));
#1193=DIRECTION('',(0.,1.,0.));
#1194=DIRECTION('',(1.,0.,0.));
#1195=DIRECTION('',(0.,0.,-1.));
#1196=DIRECTION('',(0.,1.,0.));
#1197=DIRECTION('',(1.,0.,0.));
#1198=DIRECTION('',(1.,0.,0.));
#1199=DIRECTION('',(0.,1.,0.));
#1200=DIRECTION('',(1.,0.,0.));
#1201=DIRECTION('',(0.,0.,-1.));
#1202=DIRECTION('',(0.,1.,0.));
#1203=DIRECTION('',(1.,0.,0.));
#1204=DIRECTION('',(-1.,0.,0.));
#1205=DIRECTION('',(0.,1.,0.));
#1206=DIRECTION('',(1.,0.,0.));
#1207=DIRECTION('',(0.,-1.,0.));
#1208=DIRECTION('',(-1.,0.,0.));
#1209=DIRECTION('',(0.,-1.,0.));
#1210=DIRECTION('',(-1.,0.,0.));
#1211=DIRECTION('',(0.,-1.,0.));
#1212=DIRECTION('',(-1.,0.,0.));
#1213=DIRECTION('',(1.,0.,0.));
#1214=DIRECTION('',(0.,1.,0.));
#1215=DIRECTION('',(1.,0.,0.));
#1216=DIRECTION('',(0.,0.,1.));
#1217=DIRECTION('',(0.,1.,0.));
#1218=DIRECTION('',(1.,0.,0.));
#1219=DIRECTION('',(1.,0.,0.));
#1220=DIRECTION('',(0.,1.,0.));
#1221=DIRECTION('',(1.,0.,0.));
#1222=DIRECTION('',(0.,0.,1.));
#1223=DIRECTION('',(0.,1.,0.));
#1224=DIRECTION('',(1.,0.,0.));
#1225=DIRECTION('',(0.,0.,-1.));
#1226=DIRECTION('',(0.,1.,0.));
#1227=DIRECTION('',(0.,-1.,0.));
#1228=DIRECTION('',(1.,0.,0.));
#1229=DIRECTION('',(0.,0.,1.));
#1230=DIRECTION('',(0.,-1.,0.));
#1231=DIRECTION('',(1.,0.,0.));
#1232=DIRECTION('',(0.,-1.,0.));
#1233=DIRECTION('',(0.,1.,0.));
#1234=DIRECTION('',(1.,0.,0.));
#1235=DIRECTION('',(0.,0.,1.));
#1236=DIRECTION('',(-1.,0.,0.));
#1237=DIRECTION('',(0.,0.,1.));
#1238=DIRECTION('',(0.,1.,0.));
#1239=DIRECTION('',(1.,0.,0.));
#1240=DIRECTION('',(0.,0.,1.));
#1241=DIRECTION('',(1.,0.,0.));
#1242=DIRECTION('',(0.,1.,0.));
#1243=DIRECTION('',(1.,0.,0.));
#1244=DIRECTION('',(0.,0.,-1.));
#1245=DIRECTION('',(0.,1.,0.));
#1246=DIRECTION('',(1.,0.,0.));
#1247=DIRECTION('',(1.,0.,0.));
#1248=DIRECTION('',(0.,1.,0.));
#1249=DIRECTION('',(1.,0.,0.));
#1250=DIRECTION('',(0.,1.,0.));
#1251=DIRECTION('',(1.,0.,0.));
#1252=DIRECTION('',(0.,0.,-1.));
#1253=DIRECTION('',(0.,1.,0.));
#1254=DIRECTION('',(1.,0.,0.));
#1255=DIRECTION('',(1.,0.,0.));
#1256=DIRECTION('',(0.,0.,1.));
#1257=DIRECTION('',(-1.,0.,0.));
#1258=DIRECTION('',(0.,1.,0.));
#1259=DIRECTION('',(1.,0.,0.));
#1260=DIRECTION('',(0.,1.,0.));
#1261=DIRECTION('',(1.,0.,0.));
#1262=DIRECTION('',(0.,1.,0.));
#1263=DIRECTION('',(1.,0.,0.));
#1264=DIRECTION('',(0.,1.,0.));
#1265=DIRECTION('',(1.,0.,0.));
#1266=DIRECTION('',(0.,1.,0.));
#1267=DIRECTION('',(1.,0.,0.));
#1268=DIRECTION('',(0.,1.,0.));
#1269=DIRECTION('',(1.,0.,0.));
#1270=DIRECTION('',(1.,0.,0.));
#1271=DIRECTION('',(0.,1.,0.));
#1272=DIRECTION('',(1.,0.,0.));
#1273=DIRECTION('',(0.,0.,-1.));
#1274=DIRECTION('',(0.,1.,0.));
#1275=DIRECTION('',(1.,0.,0.));
#1276=DIRECTION('',(1.,0.,0.));
#1277=DIRECTION('',(0.,0.,1.));
#1278=DIRECTION('',(0.,1.,0.));
#1279=DIRECTION('',(1.,0.,0.));
#1280=DIRECTION('',(-1.,0.,0.));
#1281=DIRECTION('',(0.,1.,0.));
#1282=DIRECTION('',(0.,-1.,0.));
#1283=DIRECTION('',(0.,-1.,0.));
#1284=DIRECTION('',(0.,0.,-1.));
#1285=DIRECTION('',(0.,1.,0.));
#1286=DIRECTION('',(0.,-1.,0.));
#1287=DIRECTION('',(0.,-1.,0.));
#1288=DIRECTION('',(1.,0.,0.));
#1289=DIRECTION('',(0.,-1.,0.));
#1290=DIRECTION('',(0.,0.342020143325669,0.939692620785909));
#1291=DIRECTION('',(0.,0.,1.));
#1292=DIRECTION('',(0.,-1.,0.));
#1293=DIRECTION('',(0.,-1.,0.));
#1294=DIRECTION('',(1.,0.,0.));
#1295=DIRECTION('',(0.,-1.,0.));
#1296=DIRECTION('',(0.,0.,1.));
#1297=DIRECTION('',(0.,-0.342020143325669,-0.939692620785909));
#1298=DIRECTION('',(0.,0.,1.));
#1299=DIRECTION('',(0.,-1.,0.));
#1300=DIRECTION('',(0.,-1.,0.));
#1301=DIRECTION('',(0.,0.,1.));
#1302=DIRECTION('',(0.,-1.,0.));
#1303=DIRECTION('',(0.,-1.,0.));
#1304=DIRECTION('',(0.,-1.,0.));
#1305=DIRECTION('',(-1.,0.,0.));
#1306=DIRECTION('',(0.,1.,0.));
#1307=DIRECTION('',(0.,-1.,0.));
#1308=DIRECTION('',(0.,-1.,0.));
#1309=DIRECTION('',(0.,0.,-1.));
#1310=DIRECTION('',(0.,1.,0.));
#1311=DIRECTION('',(1.,0.,0.));
#1312=DIRECTION('',(0.,-1.,0.));
#1313=DIRECTION('',(0.,-1.,0.));
#1314=DIRECTION('',(0.,0.,-1.));
#1315=DIRECTION('',(0.,1.,0.));
#1316=DIRECTION('',(0.,-1.,0.));
#1317=DIRECTION('',(-1.,0.,0.));
#1318=DIRECTION('',(0.,-1.,0.));
#1319=DIRECTION('',(0.,0.,-1.));
#1320=DIRECTION('',(0.,1.,0.));
#1321=DIRECTION('',(1.,0.,0.));
#1322=DIRECTION('',(-1.,0.,0.));
#1323=DIRECTION('',(0.,1.,0.));
#1324=DIRECTION('',(0.,-1.,0.));
#1325=DIRECTION('',(0.,0.,-1.));
#1326=DIRECTION('',(0.,-1.,0.));
#1327=DIRECTION('',(0.,0.,-1.));
#1328=DIRECTION('',(0.,1.,0.));
#1329=DIRECTION('',(0.,-1.,0.));
#1330=DIRECTION('',(1.,0.,0.));
#1331=DIRECTION('',(0.,-1.,0.));
#1332=DIRECTION('',(1.,0.,0.));
#1333=DIRECTION('',(0.,0.,-1.));
#1334=DIRECTION('',(0.,1.,0.));
#1335=DIRECTION('',(-1.,0.,0.));
#1336=DIRECTION('',(0.,1.,0.));
#1337=DIRECTION('',(0.,-1.,0.));
#1338=DIRECTION('',(0.,0.,1.));
#1339=DIRECTION('',(0.,-1.,0.));
#1340=DIRECTION('',(0.,0.,-1.));
#1341=DIRECTION('',(0.,1.,0.));
#1342=DIRECTION('',(1.,0.,0.));
#1343=DIRECTION('',(-1.,0.,0.));
#1344=DIRECTION('',(0.,0.,1.));
#1345=DIRECTION('',(0.,1.,0.));
#1346=DIRECTION('',(1.,0.,0.));
#1347=DIRECTION('',(0.,1.,0.));
#1348=DIRECTION('',(1.,0.,0.));
#1349=DIRECTION('',(0.,0.,1.));
#1350=DIRECTION('',(0.,1.,0.));
#1351=DIRECTION('',(1.,0.,0.));
#1352=DIRECTION('',(0.,-1.,0.));
#1353=DIRECTION('',(-1.,0.,0.));
#1354=DIRECTION('',(0.,-1.,0.));
#1355=DIRECTION('',(-1.,0.,0.));
#1356=DIRECTION('',(0.,-1.,0.));
#1357=DIRECTION('',(-1.,0.,0.));
#1358=DIRECTION('',(0.,-1.,0.));
#1359=DIRECTION('',(-1.,0.,0.));
#1360=DIRECTION('',(0.,-1.,0.));
#1361=DIRECTION('',(-1.,0.,0.));
#1362=DIRECTION('',(0.,-1.,0.));
#1363=DIRECTION('',(-1.,0.,0.));
#1364=DIRECTION('',(0.,0.,1.));
#1365=DIRECTION('',(0.,-1.,0.));
#1366=DIRECTION('',(0.,-0.939692620785908,0.342020143325669));
#1367=DIRECTION('',(0.,0.342020143325669,0.939692620785908));
#1368=DIRECTION('',(0.,0.,1.));
#1369=DIRECTION('',(0.,-1.,0.));
#1370=DIRECTION('',(0.,0.,1.));
#1371=DIRECTION('',(0.,-1.,0.));
#1372=DIRECTION('',(0.,1.,0.));
#1373=DIRECTION('',(0.,1.,0.));
#1374=DIRECTION('',(-1.,0.,0.));
#1375=DIRECTION('',(0.,1.,0.));
#1376=DIRECTION('',(0.,1.,0.));
#1377=DIRECTION('',(0.,1.,0.));
#1378=DIRECTION('',(0.,0.,1.));
#1379=DIRECTION('',(0.,-1.,0.));
#1380=DIRECTION('',(0.,1.,0.));
#1381=DIRECTION('',(0.,1.,0.));
#1382=DIRECTION('',(-1.,0.,0.));
#1383=DIRECTION('',(0.,1.,0.));
#1384=DIRECTION('',(0.,1.,0.));
#1385=DIRECTION('',(0.,1.,0.));
#1386=DIRECTION('',(0.,1.,0.));
#1387=DIRECTION('',(1.,0.,0.));
#1388=DIRECTION('',(0.,0.707106781186548,-0.707106781186548));
#1389=DIRECTION('',(0.,0.707106781186548,0.707106781186548));
#1390=DIRECTION('',(0.,0.,-1.));
#1391=DIRECTION('',(0.,1.,0.));
#1392=DIRECTION('',(0.,-0.939692620785908,0.342020143325669));
#1393=DIRECTION('',(0.,-0.342020143325669,-0.939692620785909));
#1394=DIRECTION('',(0.,1.,0.));
#1395=DIRECTION('',(1.,0.,0.));
#1396=DIRECTION('',(0.,0.707106781186548,-0.707106781186548));
#1397=DIRECTION('',(0.,0.707106781186548,0.707106781186548));
#1398=DIRECTION('',(0.,0.,1.));
#1399=DIRECTION('',(0.,-1.,0.));
#1400=DIRECTION('',(0.,-0.939692620785908,0.342020143325669));
#1401=DIRECTION('',(0.,0.342020143325669,0.939692620785909));
#1402=DIRECTION('',(0.,-1.,0.));
#1403=DIRECTION('',(-1.,0.,0.));
#1404=DIRECTION('',(0.,1.,0.));
#1405=DIRECTION('',(1.,0.,0.));
#1406=DIRECTION('',(0.,1.,0.));
#1407=DIRECTION('',(1.,0.,0.));
#1408=DIRECTION('',(0.,1.,0.));
#1409=DIRECTION('',(1.,0.,0.));
#1410=DIRECTION('',(0.,-1.,0.));
#1411=DIRECTION('',(-1.,0.,0.));
#1412=DIRECTION('',(0.,1.,0.));
#1413=DIRECTION('',(1.,0.,0.));
#1414=DIRECTION('',(0.,1.,0.));
#1415=DIRECTION('',(1.,0.,0.));
#1416=DIRECTION('',(0.,-1.,0.));
#1417=DIRECTION('',(-1.,0.,0.));
#1418=DIRECTION('',(0.,1.,0.));
#1419=DIRECTION('',(1.,0.,0.));
#1420=DIRECTION('',(0.,-1.,0.));
#1421=DIRECTION('',(-1.,0.,0.));
#1422=DIRECTION('',(0.,1.,0.));
#1423=DIRECTION('',(1.,0.,0.));
#1424=DIRECTION('',(0.,1.,0.));
#1425=DIRECTION('',(1.,0.,0.));
#1426=DIRECTION('',(0.,-1.,0.));
#1427=DIRECTION('',(-1.,0.,0.));
#1428=DIRECTION('',(0.,1.,0.));
#1429=DIRECTION('',(1.,0.,0.));
#1430=DIRECTION('',(0.,-1.,0.));
#1431=DIRECTION('',(-1.,0.,0.));
#1432=DIRECTION('',(0.,1.,0.));
#1433=DIRECTION('',(1.,0.,0.));
#1434=DIRECTION('',(0.,1.,0.));
#1435=DIRECTION('',(1.,0.,0.));
#1436=DIRECTION('',(-0.866025403784439,-0.5,0.));
#1437=DIRECTION('',(0.,0.,-1.));
#1438=DIRECTION('',(0.5,-0.866025403784439,0.));
#1439=DIRECTION('',(-0.5,0.866025403784439,0.));
#1440=DIRECTION('',(0.,1.,0.));
#1441=DIRECTION('',(1.,0.,0.));
#1442=DIRECTION('',(0.,0.866025403784438,0.5));
#1443=DIRECTION('',(0.,1.,0.));
#1444=DIRECTION('',(1.,0.,0.));
#1445=DIRECTION('',(0.,-0.866025403784439,0.5));
#1446=DIRECTION('',(0.,0.5,-0.866025403784438));
#1447=DIRECTION('',(-1.,0.,0.));
#1448=DIRECTION('',(0.,0.866025403784438,0.5));
#1449=DIRECTION('',(0.,-0.5,-0.866025403784439));
#1450=DIRECTION('',(1.,0.,0.));
#1451=DIRECTION('',(0.,1.,0.));
#1452=DIRECTION('',(1.,0.,0.));
#1453=DIRECTION('',(0.5,0.866025403784439,0.));
#1454=DIRECTION('',(-0.866025403784439,0.5,0.));
#1455=DIRECTION('',(0.,0.,1.));
#1456=DIRECTION('',(0.,-0.939692620785908,0.342020143325669));
#1457=DIRECTION('',(1.,0.,0.));
#1458=CARTESIAN_POINT('',(0.,0.,0.));
#1459=CARTESIAN_POINT('',(0.0545,0.006,-0.074));
#1460=CARTESIAN_POINT('',(0.082,0.006,-0.005));
#1461=CARTESIAN_POINT('',(0.027,0.006,-0.005));
#1462=CARTESIAN_POINT('',(0.082,0.006,-0.005));
#1463=CARTESIAN_POINT('',(0.082,0.006,-0.078));
#1464=CARTESIAN_POINT('',(0.082,0.006,-0.078));
#1465=CARTESIAN_POINT('',(0.0545,0.006,-0.078));
#1466=CARTESIAN_POINT('',(0.027,0.006,-0.078));
#1467=CARTESIAN_POINT('',(0.027,0.006,-0.074));
#1468=CARTESIAN_POINT('',(0.0345,0.006,-0.0415));
#1469=CARTESIAN_POINT('',(0.0345,0.006,-0.0675));
#1470=CARTESIAN_POINT('',(0.0345,0.006,-0.0155));
#1471=CARTESIAN_POINT('',(0.0375,0.006,-0.0675));
#1472=CARTESIAN_POINT('',(0.0375,0.006,-0.0705));
#1473=CARTESIAN_POINT('',(0.0545,0.006,-0.0705));
#1474=CARTESIAN_POINT('',(0.0715,0.006,-0.0705));
#1475=CARTESIAN_POINT('',(0.0715,0.006,-0.0675));
#1476=CARTESIAN_POINT('',(0.0745,0.006,-0.0675));
#1477=CARTESIAN_POINT('',(0.0745,0.006,-0.0415));
#1478=CARTESIAN_POINT('',(0.0745,0.006,-0.0155));
#1479=CARTESIAN_POINT('',(0.0715,0.006,-0.0155));
#1480=CARTESIAN_POINT('',(0.0715,0.006,-0.0125));
#1481=CARTESIAN_POINT('',(0.0545,0.006,-0.0125));
#1482=CARTESIAN_POINT('',(0.0375,0.006,-0.0125));
#1483=CARTESIAN_POINT('',(0.0375,0.006,-0.0155));
#1484=CARTESIAN_POINT('',(0.0545,0.,-0.074));
#1485=CARTESIAN_POINT('',(0.10475,0.,-0.1128));
#1486=CARTESIAN_POINT('',(0.10265,0.,-0.1128));
#1487=CARTESIAN_POINT('',(0.00425,0.,-0.1279));
#1488=CARTESIAN_POINT('',(0.00215,0.,-0.1279));
#1489=CARTESIAN_POINT('',(0.00425,0.,-0.143));
#1490=CARTESIAN_POINT('',(0.00215,0.,-0.143));
#1491=CARTESIAN_POINT('',(0.089,0.,-0.0539));
#1492=CARTESIAN_POINT('',(0.089,0.,-0.0978));
#1493=CARTESIAN_POINT('',(0.089,0.,-0.003));
#1494=CARTESIAN_POINT('',(0.086,0.,-0.003));
#1495=CARTESIAN_POINT('',(0.086,0.,0.));
#1496=CARTESIAN_POINT('',(0.0545,0.,0.));
#1497=CARTESIAN_POINT('',(0.023,0.,0.));
#1498=CARTESIAN_POINT('',(0.023,0.,-0.003));
#1499=CARTESIAN_POINT('',(0.02,0.,-0.003));
#1500=CARTESIAN_POINT('',(0.02,0.,-0.0539));
#1501=CARTESIAN_POINT('',(0.02,0.,-0.0978));
#1502=CARTESIAN_POINT('',(0.01,0.,-0.0978));
#1503=CARTESIAN_POINT('',(0.01,0.,-0.1078));
#1504=CARTESIAN_POINT('',(0.01,0.,-0.1078));
#1505=CARTESIAN_POINT('',(0.005,0.,-0.1078));
#1506=CARTESIAN_POINT('',(0.005,0.,-0.1128));
#1507=CARTESIAN_POINT('',(0.,0.,-0.1128));
#1508=CARTESIAN_POINT('',(0.,0.,-0.1279));
#1509=CARTESIAN_POINT('',(0.,0.,-0.143));
#1510=CARTESIAN_POINT('',(0.005,0.,-0.143));
#1511=CARTESIAN_POINT('',(0.005,0.,-0.148));
#1512=CARTESIAN_POINT('',(0.0545,0.,-0.148));
#1513=CARTESIAN_POINT('',(0.104,0.,-0.148));
#1514=CARTESIAN_POINT('',(0.104,0.,-0.143));
#1515=CARTESIAN_POINT('',(0.109,0.,-0.143));
#1516=CARTESIAN_POINT('',(0.109,0.,-0.1279));
#1517=CARTESIAN_POINT('',(0.109,0.,-0.1128));
#1518=CARTESIAN_POINT('',(0.104,0.,-0.1128));
#1519=CARTESIAN_POINT('',(0.104,0.,-0.1078));
#1520=CARTESIAN_POINT('',(0.099,0.,-0.1078));
#1521=CARTESIAN_POINT('',(0.099,0.,-0.1078));
#1522=CARTESIAN_POINT('',(0.099,0.,-0.0978));
#1523=CARTESIAN_POINT('',(0.10475,0.,-0.1279));
#1524=CARTESIAN_POINT('',(0.10265,0.,-0.1279));
#1525=CARTESIAN_POINT('',(0.00425,0.,-0.1128));
#1526=CARTESIAN_POINT('',(0.00215,0.,-0.1128));
#1527=CARTESIAN_POINT('',(0.10475,0.,-0.143));
#1528=CARTESIAN_POINT('',(0.10265,0.,-0.143));
#1529=CARTESIAN_POINT('',(0.0545,0.,-0.0705));
#1530=CARTESIAN_POINT('',(0.0375,0.,-0.0705));
#1531=CARTESIAN_POINT('',(0.0715,0.,-0.0705));
#1532=CARTESIAN_POINT('',(0.0375,0.,-0.0675));
#1533=CARTESIAN_POINT('',(0.0345,0.,-0.0675));
#1534=CARTESIAN_POINT('',(0.0345,0.,-0.074));
#1535=CARTESIAN_POINT('',(0.0345,0.,-0.0155));
#1536=CARTESIAN_POINT('',(0.0375,0.,-0.0155));
#1537=CARTESIAN_POINT('',(0.0375,0.,-0.0125));
#1538=CARTESIAN_POINT('',(0.0545,0.,-0.0125));
#1539=CARTESIAN_POINT('',(0.0715,0.,-0.0125));
#1540=CARTESIAN_POINT('',(0.0715,0.,-0.0155));
#1541=CARTESIAN_POINT('',(0.0745,0.,-0.0155));
#1542=CARTESIAN_POINT('',(0.0745,0.,-0.074));
#1543=CARTESIAN_POINT('',(0.0745,0.,-0.0675));
#1544=CARTESIAN_POINT('',(0.0715,0.,-0.0675));
#1545=CARTESIAN_POINT('',(0.0545,0.006,0.));
#1546=CARTESIAN_POINT('',(0.086,0.022,0.));
#1547=CARTESIAN_POINT('',(0.086,0.022,0.));
#1548=CARTESIAN_POINT('',(0.0545,0.022,0.));
#1549=CARTESIAN_POINT('',(0.0605,0.022,0.));
#1550=CARTESIAN_POINT('',(0.0545,0.022,0.));
#1551=CARTESIAN_POINT('',(0.0485,0.022,0.));
#1552=CARTESIAN_POINT('',(0.0545,0.022,0.));
#1553=CARTESIAN_POINT('',(0.023,0.022,0.));
#1554=CARTESIAN_POINT('',(0.023,0.006,0.));
#1555=CARTESIAN_POINT('',(0.0545,0.022,-0.074));
#1556=CARTESIAN_POINT('',(0.0485,0.022,-0.185937405188154));
#1557=CARTESIAN_POINT('',(0.0485,0.022,-0.104040361288726));
#1558=CARTESIAN_POINT('',(0.0485,0.022,-0.08));
#1559=CARTESIAN_POINT('',(0.0545,0.022,-0.104040361288726));
#1560=CARTESIAN_POINT('',(0.02,0.022,-0.104040361288726));
#1561=CARTESIAN_POINT('',(0.02,0.022,-0.074));
#1562=CARTESIAN_POINT('',(0.02,0.022,-0.003));
#1563=CARTESIAN_POINT('',(0.023,0.022,-0.003));
#1564=CARTESIAN_POINT('',(0.0485,0.022,-0.185937405188154));
#1565=CARTESIAN_POINT('',(0.0485,0.022,-0.003));
#1566=CARTESIAN_POINT('',(0.06925,0.022,-0.003));
#1567=CARTESIAN_POINT('',(0.027,0.022,-0.003));
#1568=CARTESIAN_POINT('',(0.027,0.022,-0.005));
#1569=CARTESIAN_POINT('',(0.025,0.022,-0.005));
#1570=CARTESIAN_POINT('',(0.025,0.022,-0.0415));
#1571=CARTESIAN_POINT('',(0.025,0.022,-0.078));
#1572=CARTESIAN_POINT('',(0.027,0.022,-0.078));
#1573=CARTESIAN_POINT('',(0.027,0.022,-0.08));
#1574=CARTESIAN_POINT('',(0.03975,0.022,-0.08));
#1575=CARTESIAN_POINT('',(0.0545,0.006,-0.074));
#1576=CARTESIAN_POINT('',(0.10475,0.006,-0.143));
#1577=CARTESIAN_POINT('',(0.10685,0.006,-0.143));
#1578=CARTESIAN_POINT('',(0.109,0.006,-0.1279));
#1579=CARTESIAN_POINT('',(0.109,0.006,-0.1128));
#1580=CARTESIAN_POINT('',(0.109,0.006,-0.143));
#1581=CARTESIAN_POINT('',(0.104,0.006,-0.143));
#1582=CARTESIAN_POINT('',(0.104,0.006,-0.148));
#1583=CARTESIAN_POINT('',(0.0545,0.006,-0.148));
#1584=CARTESIAN_POINT('',(0.099,0.006,-0.148));
#1585=CARTESIAN_POINT('',(0.099,0.006,-0.1078));
#1586=CARTESIAN_POINT('',(0.099,0.006,-0.1078));
#1587=CARTESIAN_POINT('',(0.099,0.006,-0.1078));
#1588=CARTESIAN_POINT('',(0.104,0.006,-0.1078));
#1589=CARTESIAN_POINT('',(0.104,0.006,-0.1128));
#1590=CARTESIAN_POINT('',(0.10475,0.006,-0.1279));
#1591=CARTESIAN_POINT('',(0.10685,0.006,-0.1279));
#1592=CARTESIAN_POINT('',(0.10475,0.006,-0.1128));
#1593=CARTESIAN_POINT('',(0.10685,0.006,-0.1128));
#1594=CARTESIAN_POINT('',(0.0545,0.006,-0.074));
#1595=CARTESIAN_POINT('',(0.00425,0.006,-0.1279));
#1596=CARTESIAN_POINT('',(0.00635,0.006,-0.1279));
#1597=CARTESIAN_POINT('',(0.00425,0.006,-0.143));
#1598=CARTESIAN_POINT('',(0.00635,0.006,-0.143));
#1599=CARTESIAN_POINT('',(0.0545,0.006,-0.148));
#1600=CARTESIAN_POINT('',(0.005,0.006,-0.148));
#1601=CARTESIAN_POINT('',(0.01,0.006,-0.148));
#1602=CARTESIAN_POINT('',(0.005,0.006,-0.143));
#1603=CARTESIAN_POINT('',(0.,0.006,-0.143));
#1604=CARTESIAN_POINT('',(0.,0.006,-0.1279));
#1605=CARTESIAN_POINT('',(0.,0.006,-0.1128));
#1606=CARTESIAN_POINT('',(0.005,0.006,-0.1128));
#1607=CARTESIAN_POINT('',(0.005,0.006,-0.1078));
#1608=CARTESIAN_POINT('',(0.01,0.006,-0.1078));
#1609=CARTESIAN_POINT('',(0.01,0.006,-0.1078));
#1610=CARTESIAN_POINT('',(0.01,0.006,-0.074));
#1611=CARTESIAN_POINT('',(0.00425,0.006,-0.1128));
#1612=CARTESIAN_POINT('',(0.00635,0.006,-0.1128));
#1613=CARTESIAN_POINT('',(0.,0.006,-0.1279));
#1614=CARTESIAN_POINT('',(0.,0.006,-0.143));
#1615=CARTESIAN_POINT('',(0.,0.006,-0.1128));
#1616=CARTESIAN_POINT('',(0.01,0.006,-0.1078));
#1617=CARTESIAN_POINT('',(0.005,0.,-0.1078));
#1618=CARTESIAN_POINT('',(0.01,0.006,-0.1078));
#1619=CARTESIAN_POINT('',(0.02,0.006,-0.0539));
#1620=CARTESIAN_POINT('',(0.02,0.006,-0.148));
#1621=CARTESIAN_POINT('',(0.02,0.016,-0.120525225805454));
#1622=CARTESIAN_POINT('',(0.02,0.016,-0.0539));
#1623=CARTESIAN_POINT('',(0.02,0.016,-0.0978));
#1624=CARTESIAN_POINT('',(0.02,0.,-0.0978));
#1625=CARTESIAN_POINT('',(0.02,0.006,-0.003));
#1626=CARTESIAN_POINT('',(0.089,0.006,-0.0539));
#1627=CARTESIAN_POINT('',(0.089,0.016,-0.148));
#1628=CARTESIAN_POINT('',(0.089,0.016,-0.0978));
#1629=CARTESIAN_POINT('',(0.089,0.016,-0.120525225805454));
#1630=CARTESIAN_POINT('',(0.089,0.0362431570357517,-0.0649076089512521));
#1631=CARTESIAN_POINT('',(0.089,0.022,-0.104040361288726));
#1632=CARTESIAN_POINT('',(0.089,0.022,-0.0539));
#1633=CARTESIAN_POINT('',(0.089,0.022,-0.003));
#1634=CARTESIAN_POINT('',(0.089,0.,-0.003));
#1635=CARTESIAN_POINT('',(0.089,0.006,-0.0978));
#1636=CARTESIAN_POINT('',(0.099,0.006,-0.1078));
#1637=CARTESIAN_POINT('',(0.104,0.006,-0.1078));
#1638=CARTESIAN_POINT('',(0.099,0.,-0.1078));
#1639=CARTESIAN_POINT('',(0.109,0.006,-0.1279));
#1640=CARTESIAN_POINT('',(0.109,0.006,-0.143));
#1641=CARTESIAN_POINT('',(0.109,0.,-0.1128));
#1642=CARTESIAN_POINT('',(0.0545,0.006,-0.148));
#1643=CARTESIAN_POINT('',(0.0545,0.006,-0.148));
#1644=CARTESIAN_POINT('',(0.104,0.,-0.148));
#1645=CARTESIAN_POINT('',(0.005,0.006,-0.148));
#1646=CARTESIAN_POINT('',(0.06925,0.022,-0.003));
#1647=CARTESIAN_POINT('',(0.082,0.006,-0.003));
#1648=CARTESIAN_POINT('',(0.082,0.022,-0.003));
#1649=CARTESIAN_POINT('',(0.082,0.00946410161513775,-0.003));
#1650=CARTESIAN_POINT('',(0.027,0.00946410161513775,-0.003));
#1651=CARTESIAN_POINT('',(0.027,0.00946410161513775,-0.003));
#1652=CARTESIAN_POINT('',(0.027,0.022,-0.003));
#1653=CARTESIAN_POINT('',(0.0545,0.022,-0.003));
#1654=CARTESIAN_POINT('',(0.0605,0.022,-0.00300000000000006));
#1655=CARTESIAN_POINT('',(0.06925,0.022,-0.003));
#1656=CARTESIAN_POINT('',(0.025,0.022,-0.0415));
#1657=CARTESIAN_POINT('',(0.025,0.022,-0.005));
#1658=CARTESIAN_POINT('',(0.025,0.00946410161513776,-0.005));
#1659=CARTESIAN_POINT('',(0.025,0.00946410161513776,-0.0415));
#1660=CARTESIAN_POINT('',(0.025,0.00946410161513775,-0.078));
#1661=CARTESIAN_POINT('',(0.025,0.022,-0.078));
#1662=CARTESIAN_POINT('',(0.03975,0.022,-0.08));
#1663=CARTESIAN_POINT('',(0.027,0.006,-0.08));
#1664=CARTESIAN_POINT('',(0.027,0.00946410161513775,-0.08));
#1665=CARTESIAN_POINT('',(0.03975,0.00946410161513775,-0.08));
#1666=CARTESIAN_POINT('',(0.082,0.0094641016045456,-0.08));
#1667=CARTESIAN_POINT('',(0.082,0.022,-0.08));
#1668=CARTESIAN_POINT('',(0.082,0.022,-0.08));
#1669=CARTESIAN_POINT('',(0.03975,0.022,-0.08));
#1670=CARTESIAN_POINT('',(0.0605,0.022,-0.08));
#1671=CARTESIAN_POINT('',(0.0545,0.022,-0.08));
#1672=CARTESIAN_POINT('',(0.084,0.022,-0.0415));
#1673=CARTESIAN_POINT('',(0.084,0.022,-0.078));
#1674=CARTESIAN_POINT('',(0.084,0.022,-0.078));
#1675=CARTESIAN_POINT('',(0.0840086758298391,0.00946410160564363,-0.0780012282038632));
#1676=CARTESIAN_POINT('',(0.084,0.00946410161513776,-0.005));
#1677=CARTESIAN_POINT('',(0.084,0.00946410161513775,-0.005));
#1678=CARTESIAN_POINT('',(0.084,0.022,-0.005));
#1679=CARTESIAN_POINT('',(0.084,0.022,-0.005));
#1680=CARTESIAN_POINT('',(0.084,0.022,-0.0415));
#1681=CARTESIAN_POINT('',(0.0545,0.022,-0.074));
#1682=CARTESIAN_POINT('',(0.0545,0.022,-0.104040361288726));
#1683=CARTESIAN_POINT('',(0.0605,0.022,-0.104040361288726));
#1684=CARTESIAN_POINT('',(0.0605,0.022,-0.185937405188154));
#1685=CARTESIAN_POINT('',(0.082,0.022,-0.078));
#1686=CARTESIAN_POINT('',(0.082,0.022,-0.005));
#1687=CARTESIAN_POINT('',(0.0605,0.022,-0.185937405188154));
#1688=CARTESIAN_POINT('',(0.086,0.022,-0.003));
#1689=CARTESIAN_POINT('',(0.10475,0.185128880722632,-0.1279));
#1690=CARTESIAN_POINT('',(0.00425,0.185128880722632,-0.143));
#1691=CARTESIAN_POINT('',(0.00425,0.185128880722632,-0.1279));
#1692=CARTESIAN_POINT('',(0.00425,0.185128880722632,-0.1128));
#1693=CARTESIAN_POINT('',(0.10475,0.185128880722632,-0.1128));
#1694=CARTESIAN_POINT('',(0.10475,0.185128880722632,-0.143));
#1695=CARTESIAN_POINT('',(0.0545,0.022,-0.185937405188154));
#1696=CARTESIAN_POINT('',(0.0545,0.022,-0.104040361288726));
#1697=CARTESIAN_POINT('',(0.0545,0.022,-0.185937405188154));
#1698=CARTESIAN_POINT('',(0.0545,-0.179128880722632,-0.0705));
#1699=CARTESIAN_POINT('',(0.0375,-0.179128880722632,-0.0705));
#1700=CARTESIAN_POINT('',(0.0715,0.006,-0.0705));
#1701=CARTESIAN_POINT('',(0.0345,-0.179128880722632,-0.0415));
#1702=CARTESIAN_POINT('',(0.0345,0.,-0.0155));
#1703=CARTESIAN_POINT('',(0.0345,-0.179128880722632,-0.0675));
#1704=CARTESIAN_POINT('',(0.0545,-0.179128880722632,-0.0125));
#1705=CARTESIAN_POINT('',(0.0375,0.006,-0.0125));
#1706=CARTESIAN_POINT('',(0.0715,-0.179128880722632,-0.0125));
#1707=CARTESIAN_POINT('',(0.0745,-0.179128880722632,-0.0415));
#1708=CARTESIAN_POINT('',(0.0745,-0.179128880722632,-0.0155));
#1709=CARTESIAN_POINT('',(0.0745,0.,-0.0675));
#1710=CARTESIAN_POINT('',(0.099,0.006,-0.0978));
#1711=CARTESIAN_POINT('',(0.099,0.016,-0.0978));
#1712=CARTESIAN_POINT('',(0.099,0.016,-0.074));
#1713=CARTESIAN_POINT('',(0.099,0.016,-0.120525225805454));
#1714=CARTESIAN_POINT('',(0.01,0.006,-0.0978));
#1715=CARTESIAN_POINT('',(0.01,0.016,-0.0978));
#1716=CARTESIAN_POINT('',(0.01,0.016,-0.0539));
#1717=CARTESIAN_POINT('',(0.01,0.016,-0.120525225805454));
#1718=CARTESIAN_POINT('',(0.005,0.006,-0.143));
#1719=CARTESIAN_POINT('',(0.005,0.006,-0.1128));
#1720=CARTESIAN_POINT('',(0.104,0.006,-0.143));
#1721=CARTESIAN_POINT('',(0.104,0.006,-0.1128));
#1722=CARTESIAN_POINT('',(0.0375,-0.179128880722632,-0.0155));
#1723=CARTESIAN_POINT('',(0.0715,-0.179128880722632,-0.0155));
#1724=CARTESIAN_POINT('',(0.0375,-0.179128880722632,-0.0675));
#1725=CARTESIAN_POINT('',(0.0715,-0.179128880722632,-0.0675));
#1726=CARTESIAN_POINT('',(0.086,0.006,-0.003));
#1727=CARTESIAN_POINT('',(0.023,0.006,-0.003));
#1728=CARTESIAN_POINT('',(0.082,0.022,-0.005));
#1729=CARTESIAN_POINT('',(0.082,0.00946410161513775,-0.005));
#1730=CARTESIAN_POINT('',(0.027,0.022,-0.005));
#1731=CARTESIAN_POINT('',(0.027,0.00946410161513775,-0.005));
#1732=CARTESIAN_POINT('',(0.082,0.022,-0.078));
#1733=CARTESIAN_POINT('',(0.0839802553104364,0.00946410161513775,-0.0782803371282728));
#1734=CARTESIAN_POINT('',(0.083915484673088,0.00946410165040183,-0.0787378662445905));
#1735=CARTESIAN_POINT('',(0.0836886218001572,0.00946410161512802,-0.079167143452061));
#1736=CARTESIAN_POINT('',(0.0830052226844417,0.00946410161514136,-0.079789747126367));
#1737=CARTESIAN_POINT('',(0.0825494567488444,0.0094641016654322,-0.0799765520509973));
#1738=CARTESIAN_POINT('',(0.0820931585870552,0.00946410161513775,-0.0799978291913119));
#1739=CARTESIAN_POINT('',(0.027,0.022,-0.078));
#1740=CARTESIAN_POINT('',(0.027,0.00946410161513775,-0.078));
#1741=CARTESIAN_POINT('',(0.025,0.00946410161513776,-0.0415));
#1742=CARTESIAN_POINT('',(0.025,0.00946410161513776,-0.078));
#1743=CARTESIAN_POINT('',(0.027,0.006,-0.005));
#1744=CARTESIAN_POINT('',(0.027,0.00946410161513775,-0.005));
#1745=CARTESIAN_POINT('',(0.027,0.006,-0.005));
#1746=CARTESIAN_POINT('',(0.027,0.00946410161513775,-0.078));
#1747=CARTESIAN_POINT('',(0.027,0.00946410161513775,-0.08));
#1748=CARTESIAN_POINT('',(0.0545,0.006,-0.005));
#1749=CARTESIAN_POINT('',(0.082,0.006,-0.005));
#1750=CARTESIAN_POINT('',(0.03975,0.00946410161513775,-0.08));
#1751=CARTESIAN_POINT('',(0.0820000000032351,0.00599999999999867,-0.0779999999999992));
#1752=CARTESIAN_POINT('',(0.0820000337070684,0.00715501352497029,-0.0786668473695593));
#1753=CARTESIAN_POINT('',(0.0820000674109017,0.0083100270499419,-0.0793336947391193));
#1754=CARTESIAN_POINT('',(0.082000101114735,0.00946504057491352,-0.0800005421086793));
#1755=CARTESIAN_POINT('',(0.082,0.00946410161513775,-0.005));
#1756=CARTESIAN_POINT('',(0.082,0.006,-0.005));
#1757=CARTESIAN_POINT('',(0.082,0.006,-0.078));
#1758=CARTESIAN_POINT('',(0.082,0.006,-0.078));
#1759=CARTESIAN_POINT('',(0.082,0.006,-0.078));
#1760=CARTESIAN_POINT('',(0.082,0.006,-0.078));
#1761=CARTESIAN_POINT('',(0.082,0.006,-0.078));
#1762=CARTESIAN_POINT('',(0.0820000000032351,0.006,-0.0780000000035617));
#1763=CARTESIAN_POINT('',(0.0820000000032351,0.006,-0.0780000000035617));
#1764=CARTESIAN_POINT('',(0.082,0.006,-0.078));
#1765=CARTESIAN_POINT('',(0.082,0.006,-0.078));
#1766=CARTESIAN_POINT('',(0.082,0.006,-0.078));
#1767=CARTESIAN_POINT('',(0.082,0.006,-0.078));
#1768=CARTESIAN_POINT('',(0.082,0.006,-0.078));
#1769=CARTESIAN_POINT('',(0.0840196469849547,0.00946410159369114,-0.0780020808261823));
#1770=CARTESIAN_POINT('',(0.084006516426782,0.00946410160084001,-0.0780948329268791));
#1771=CARTESIAN_POINT('',(0.0839933858686092,0.00946410160798888,-0.078187585027576));
#1772=CARTESIAN_POINT('',(0.0839802553104364,0.00946410161513775,-0.0782803371282728));
#1773=CARTESIAN_POINT('',(0.083915484673088,0.00946410165040183,-0.0787378662445905));
#1774=CARTESIAN_POINT('',(0.0836886218001572,0.00946410161512802,-0.079167143452061));
#1775=CARTESIAN_POINT('',(0.0830052226844417,0.00946410161514136,-0.079789747126367));
#1776=CARTESIAN_POINT('',(0.0825494567488444,0.0094641016654322,-0.0799765520509973));
#1777=CARTESIAN_POINT('',(0.0820931585870552,0.00946410161513775,-0.0799978291913119));
#1778=CARTESIAN_POINT('',(0.0820621394296151,0.00946410161171874,-0.0799992756117022));
#1779=CARTESIAN_POINT('',(0.0820311202721751,0.00946410160829972,-0.0800007220320926));
#1780=CARTESIAN_POINT('',(0.082000101114735,0.0094641016048807,-0.0800021684524829));
#1781=CARTESIAN_POINT('',(0.084,0.00946410161513776,-0.078));
#1782=CARTESIAN_POINT('',(0.0833333333333333,0.0083094010767585,-0.078));
#1783=CARTESIAN_POINT('',(0.0826666666666667,0.00715470053837925,-0.078));
#1784=CARTESIAN_POINT('',(0.082,0.006,-0.078));
#1785=CARTESIAN_POINT('',(0.082,0.006,-0.074));
#1786=CARTESIAN_POINT('',(0.0545,0.006,-0.148));
#1787=MECHANICAL_DESIGN_GEOMETRIC_PRESENTATION_REPRESENTATION('',(#1038),
#1788);
#1788=(
GEOMETRIC_REPRESENTATION_CONTEXT(3)
GLOBAL_UNCERTAINTY_ASSIGNED_CONTEXT((#1789))
GLOBAL_UNIT_ASSIGNED_CONTEXT((#1792,#1791,#1790))
REPRESENTATION_CONTEXT('Part 1','TOP_LEVEL_ASSEMBLY_PART')
);
#1789=UNCERTAINTY_MEASURE_WITH_UNIT(LENGTH_MEASURE(4.78783576563598E-5),
#1792,'DISTANCE_ACCURACY_VALUE','Maximum Tolerance applied to model');
#1790=(
NAMED_UNIT(*)
SI_UNIT($,.STERADIAN.)
SOLID_ANGLE_UNIT()
);
#1791=(
NAMED_UNIT(*)
PLANE_ANGLE_UNIT()
SI_UNIT($,.RADIAN.)
);
#1792=(
LENGTH_UNIT()
NAMED_UNIT(*)
SI_UNIT($,.METRE.)
);
#1793=PRODUCT_DEFINITION_SHAPE('','',#1794);
#1794=PRODUCT_DEFINITION('','',#1796,#1795);
#1795=PRODUCT_DEFINITION_CONTEXT('',#1802,'design');
#1796=PRODUCT_DEFINITION_FORMATION_WITH_SPECIFIED_SOURCE('','',#1798,
 .NOT_KNOWN.);
#1797=PRODUCT_RELATED_PRODUCT_CATEGORY('','',(#1798));
#1798=PRODUCT('Part 1','Part 1','Part 1',(#1800));
#1799=PRODUCT_CATEGORY('','');
#1800=PRODUCT_CONTEXT('',#1802,'mechanical');
#1801=APPLICATION_PROTOCOL_DEFINITION('international standard',
'ap242_managed_model_based_3d_engineering',2020,#1802);
#1802=APPLICATION_CONTEXT('managed model based 3d engineering');
ENDSEC;
END-ISO-10303-21;
