ISO-10303-21;
HEADER;
/* Generated by software containing ST-Developer
 * from STEP Tools, Inc. (www.steptools.com) 
 */
/* OPTION: using custom renumber hook */

FILE_DESCRIPTION(
/* description */ ('STEP AP242 Edition 2',
'CAx-IF Rec.Pracs.---Representation and Presentation of Product Manufa
cturing Information (PMI)---4.0---2014-10-13',
'CAx-IF Rec.Pracs.---3D Tessellated Geometry---0.4---2014-09-14','2;1',
'CAx-IF Rec.Pracs.---User Defined Attributes---1.5---2016-08-15'),
/* implementation_level */ '2;1');

FILE_NAME(
/* name */ '100uL Pipette Tip Rack Mounting Base_REV. 0',
/* time_stamp */ '2026-09-03T19:13:23Z',
/* author */ (''),
/* organization */ (''),
/* preprocessor_version */ 'ST-DEVELOPER v20',
/* originating_system */ 'ONSHAPE BY PTC INC, 1.220',
/* authorisation */ '  ');

FILE_SCHEMA (('AP242_MANAGED_MODEL_BASED_3D_ENGINEERING_MIM_LF { 1 0 10303 442 3 1 4 }'));
ENDSEC;

DATA;
#10=SHAPE_REPRESENTATION_RELATIONSHIP('','',#1149,#11);
#11=ADVANCED_BREP_SHAPE_REPRESENTATION('',(#1147),#1921);
#12=CONICAL_SURFACE('',#1215,0.00405,0.785398163397448);
#13=CONICAL_SURFACE('',#1216,0.00305,0.785398163397448);
#14=CONICAL_SURFACE('',#1217,0.0055,0.78539816339745);
#15=CONICAL_SURFACE('',#1218,0.0055,0.78539816339745);
#16=CONICAL_SURFACE('',#1219,0.00305,0.785398163397448);
#17=CONICAL_SURFACE('',#1220,0.00405,0.785398163397448);
#18=CONICAL_SURFACE('',#1234,0.003,0.785398163397449);
#19=CONICAL_SURFACE('',#1235,0.003,0.785398163397449);
#20=CONICAL_SURFACE('',#1238,0.003,0.785398163397449);
#21=CONICAL_SURFACE('',#1239,0.003,0.785398163397449);
#22=CONICAL_SURFACE('',#1241,0.00605,0.785398163397449);
#23=CONICAL_SURFACE('',#1242,0.00805,0.785398163397449);
#24=CONICAL_SURFACE('',#1243,0.0105,0.785398163397448);
#25=CONICAL_SURFACE('',#1244,0.0105,0.785398163397448);
#26=CONICAL_SURFACE('',#1262,0.0055,0.785398163397449);
#27=CONICAL_SURFACE('',#1263,0.0055,0.785398163397449);
#28=CONICAL_SURFACE('',#1266,0.0055,0.785398163397449);
#29=CONICAL_SURFACE('',#1267,0.0055,0.785398163397449);
#30=LINE('',#1632,#130);
#31=LINE('',#1636,#131);
#32=LINE('',#1640,#132);
#33=LINE('',#1644,#133);
#34=LINE('',#1645,#134);
#35=LINE('',#1648,#135);
#36=LINE('',#1650,#136);
#37=LINE('',#1652,#137);
#38=LINE('',#1654,#138);
#39=LINE('',#1657,#139);
#40=LINE('',#1659,#140);
#41=LINE('',#1661,#141);
#42=LINE('',#1663,#142);
#43=LINE('',#1666,#143);
#44=LINE('',#1668,#144);
#45=LINE('',#1670,#145);
#46=LINE('',#1672,#146);
#47=LINE('',#1675,#147);
#48=LINE('',#1677,#148);
#49=LINE('',#1679,#149);
#50=LINE('',#1681,#150);
#51=LINE('',#1684,#151);
#52=LINE('',#1686,#152);
#53=LINE('',#1688,#153);
#54=LINE('',#1690,#154);
#55=LINE('',#1693,#155);
#56=LINE('',#1695,#156);
#57=LINE('',#1697,#157);
#58=LINE('',#1699,#158);
#59=LINE('',#1701,#159);
#60=LINE('',#1703,#160);
#61=LINE('',#1705,#161);
#62=LINE('',#1706,#162);
#63=LINE('',#1707,#163);
#64=LINE('',#1708,#164);
#65=LINE('',#1709,#165);
#66=LINE('',#1714,#166);
#67=LINE('',#1718,#167);
#68=LINE('',#1722,#168);
#69=LINE('',#1726,#169);
#70=LINE('',#1732,#170);
#71=LINE('',#1735,#171);
#72=LINE('',#1737,#172);
#73=LINE('',#1739,#173);
#74=LINE('',#1741,#174);
#75=LINE('',#1744,#175);
#76=LINE('',#1746,#176);
#77=LINE('',#1748,#177);
#78=LINE('',#1750,#178);
#79=LINE('',#1753,#179);
#80=LINE('',#1755,#180);
#81=LINE('',#1757,#181);
#82=LINE('',#1759,#182);
#83=LINE('',#1762,#183);
#84=LINE('',#1764,#184);
#85=LINE('',#1766,#185);
#86=LINE('',#1788,#186);
#87=LINE('',#1791,#187);
#88=LINE('',#1793,#188);
#89=LINE('',#1795,#189);
#90=LINE('',#1797,#190);
#91=LINE('',#1799,#191);
#92=LINE('',#1801,#192);
#93=LINE('',#1803,#193);
#94=LINE('',#1811,#194);
#95=LINE('',#1812,#195);
#96=LINE('',#1814,#196);
#97=LINE('',#1815,#197);
#98=LINE('',#1817,#198);
#99=LINE('',#1818,#199);
#100=LINE('',#1820,#200);
#101=LINE('',#1821,#201);
#102=LINE('',#1857,#202);
#103=LINE('',#1858,#203);
#104=LINE('',#1860,#204);
#105=LINE('',#1862,#205);
#106=LINE('',#1864,#206);
#107=LINE('',#1866,#207);
#108=LINE('',#1868,#208);
#109=LINE('',#1870,#209);
#110=LINE('',#1881,#210);
#111=LINE('',#1883,#211);
#112=LINE('',#1884,#212);
#113=LINE('',#1886,#213);
#114=LINE('',#1888,#214);
#115=LINE('',#1890,#215);
#116=LINE('',#1892,#216);
#117=LINE('',#1894,#217);
#118=LINE('',#1896,#218);
#119=LINE('',#1898,#219);
#120=LINE('',#1900,#220);
#121=LINE('',#1902,#221);
#122=LINE('',#1905,#222);
#123=LINE('',#1906,#223);
#124=LINE('',#1908,#224);
#125=LINE('',#1910,#225);
#126=LINE('',#1912,#226);
#127=LINE('',#1914,#227);
#128=LINE('',#1916,#228);
#129=LINE('',#1918,#229);
#130=VECTOR('',#1299,1.);
#131=VECTOR('',#1302,1.);
#132=VECTOR('',#1305,1.);
#133=VECTOR('',#1308,1.);
#134=VECTOR('',#1309,1.);
#135=VECTOR('',#1310,1.);
#136=VECTOR('',#1311,1.);
#137=VECTOR('',#1312,1.);
#138=VECTOR('',#1315,1.);
#139=VECTOR('',#1316,1.);
#140=VECTOR('',#1317,1.);
#141=VECTOR('',#1318,1.);
#142=VECTOR('',#1321,1.);
#143=VECTOR('',#1322,1.);
#144=VECTOR('',#1323,1.);
#145=VECTOR('',#1324,1.);
#146=VECTOR('',#1327,1.);
#147=VECTOR('',#1328,1.);
#148=VECTOR('',#1329,1.);
#149=VECTOR('',#1330,1.);
#150=VECTOR('',#1333,1.);
#151=VECTOR('',#1334,1.);
#152=VECTOR('',#1335,1.);
#153=VECTOR('',#1336,1.);
#154=VECTOR('',#1339,1.);
#155=VECTOR('',#1340,1.);
#156=VECTOR('',#1341,1.);
#157=VECTOR('',#1342,1.);
#158=VECTOR('',#1343,1.);
#159=VECTOR('',#1344,1.);
#160=VECTOR('',#1345,1.);
#161=VECTOR('',#1346,1.);
#162=VECTOR('',#1347,1.);
#163=VECTOR('',#1348,1.);
#164=VECTOR('',#1349,1.);
#165=VECTOR('',#1350,1.);
#166=VECTOR('',#1355,1.);
#167=VECTOR('',#1358,1.);
#168=VECTOR('',#1361,1.);
#169=VECTOR('',#1364,1.);
#170=VECTOR('',#1371,1.);
#171=VECTOR('',#1372,1.);
#172=VECTOR('',#1373,1.);
#173=VECTOR('',#1374,1.);
#174=VECTOR('',#1377,1.);
#175=VECTOR('',#1378,1.);
#176=VECTOR('',#1379,1.);
#177=VECTOR('',#1380,1.);
#178=VECTOR('',#1383,1.);
#179=VECTOR('',#1384,1.);
#180=VECTOR('',#1385,1.);
#181=VECTOR('',#1386,1.);
#182=VECTOR('',#1389,1.);
#183=VECTOR('',#1390,1.);
#184=VECTOR('',#1391,1.);
#185=VECTOR('',#1392,1.);
#186=VECTOR('',#1419,1.);
#187=VECTOR('',#1420,1.);
#188=VECTOR('',#1421,1.);
#189=VECTOR('',#1422,1.);
#190=VECTOR('',#1423,1.);
#191=VECTOR('',#1424,1.);
#192=VECTOR('',#1425,1.);
#193=VECTOR('',#1426,1.);
#194=VECTOR('',#1437,1.);
#195=VECTOR('',#1438,1.);
#196=VECTOR('',#1441,1.);
#197=VECTOR('',#1442,1.);
#198=VECTOR('',#1445,1.);
#199=VECTOR('',#1446,1.);
#200=VECTOR('',#1449,1.);
#201=VECTOR('',#1450,1.);
#202=VECTOR('',#1509,1.);
#203=VECTOR('',#1510,1.);
#204=VECTOR('',#1513,1.);
#205=VECTOR('',#1516,1.);
#206=VECTOR('',#1519,1.);
#207=VECTOR('',#1522,1.);
#208=VECTOR('',#1525,1.);
#209=VECTOR('',#1528,1.);
#210=VECTOR('',#1549,1.);
#211=VECTOR('',#1552,1.);
#212=VECTOR('',#1553,1.);
#213=VECTOR('',#1556,1.);
#214=VECTOR('',#1559,1.);
#215=VECTOR('',#1562,1.);
#216=VECTOR('',#1565,1.);
#217=VECTOR('',#1568,1.);
#218=VECTOR('',#1571,1.);
#219=VECTOR('',#1574,1.);
#220=VECTOR('',#1577,1.);
#221=VECTOR('',#1580,1.);
#222=VECTOR('',#1585,1.);
#223=VECTOR('',#1586,1.);
#224=VECTOR('',#1589,1.);
#225=VECTOR('',#1592,1.);
#226=VECTOR('',#1595,1.);
#227=VECTOR('',#1598,1.);
#228=VECTOR('',#1601,1.);
#229=VECTOR('',#1604,1.);
#230=CYLINDRICAL_SURFACE('',#1157,0.00305);
#231=CYLINDRICAL_SURFACE('',#1160,0.00305);
#232=CYLINDRICAL_SURFACE('',#1187,0.0055);
#233=CYLINDRICAL_SURFACE('',#1189,0.0055);
#234=CYLINDRICAL_SURFACE('',#1197,0.00605);
#235=CYLINDRICAL_SURFACE('',#1199,0.00605);
#236=CYLINDRICAL_SURFACE('',#1208,0.0085);
#237=CYLINDRICAL_SURFACE('',#1210,0.0085);
#238=CYLINDRICAL_SURFACE('',#1221,0.005);
#239=CYLINDRICAL_SURFACE('',#1224,0.005);
#240=CYLINDRICAL_SURFACE('',#1227,0.005);
#241=CYLINDRICAL_SURFACE('',#1230,0.005);
#242=ORIENTED_EDGE('',*,*,#526,.T.);
#243=ORIENTED_EDGE('',*,*,#527,.F.);
#244=ORIENTED_EDGE('',*,*,#528,.T.);
#245=ORIENTED_EDGE('',*,*,#529,.T.);
#246=ORIENTED_EDGE('',*,*,#530,.T.);
#247=ORIENTED_EDGE('',*,*,#531,.T.);
#248=ORIENTED_EDGE('',*,*,#532,.T.);
#249=ORIENTED_EDGE('',*,*,#533,.T.);
#250=ORIENTED_EDGE('',*,*,#534,.T.);
#251=ORIENTED_EDGE('',*,*,#535,.T.);
#252=ORIENTED_EDGE('',*,*,#536,.T.);
#253=ORIENTED_EDGE('',*,*,#537,.T.);
#254=ORIENTED_EDGE('',*,*,#538,.T.);
#255=ORIENTED_EDGE('',*,*,#539,.T.);
#256=ORIENTED_EDGE('',*,*,#540,.T.);
#257=ORIENTED_EDGE('',*,*,#541,.T.);
#258=ORIENTED_EDGE('',*,*,#542,.T.);
#259=ORIENTED_EDGE('',*,*,#543,.T.);
#260=ORIENTED_EDGE('',*,*,#544,.T.);
#261=ORIENTED_EDGE('',*,*,#545,.T.);
#262=ORIENTED_EDGE('',*,*,#546,.T.);
#263=ORIENTED_EDGE('',*,*,#547,.T.);
#264=ORIENTED_EDGE('',*,*,#548,.T.);
#265=ORIENTED_EDGE('',*,*,#549,.T.);
#266=ORIENTED_EDGE('',*,*,#550,.T.);
#267=ORIENTED_EDGE('',*,*,#551,.T.);
#268=ORIENTED_EDGE('',*,*,#552,.T.);
#269=ORIENTED_EDGE('',*,*,#553,.T.);
#270=ORIENTED_EDGE('',*,*,#554,.T.);
#271=ORIENTED_EDGE('',*,*,#555,.T.);
#272=ORIENTED_EDGE('',*,*,#556,.T.);
#273=ORIENTED_EDGE('',*,*,#557,.T.);
#274=ORIENTED_EDGE('',*,*,#558,.T.);
#275=ORIENTED_EDGE('',*,*,#559,.T.);
#276=ORIENTED_EDGE('',*,*,#560,.T.);
#277=ORIENTED_EDGE('',*,*,#561,.T.);
#278=ORIENTED_EDGE('',*,*,#562,.T.);
#279=ORIENTED_EDGE('',*,*,#563,.T.);
#280=ORIENTED_EDGE('',*,*,#564,.T.);
#281=ORIENTED_EDGE('',*,*,#565,.T.);
#282=ORIENTED_EDGE('',*,*,#566,.T.);
#283=ORIENTED_EDGE('',*,*,#567,.T.);
#284=ORIENTED_EDGE('',*,*,#568,.T.);
#285=ORIENTED_EDGE('',*,*,#569,.T.);
#286=ORIENTED_EDGE('',*,*,#548,.F.);
#287=ORIENTED_EDGE('',*,*,#570,.T.);
#288=ORIENTED_EDGE('',*,*,#558,.F.);
#289=ORIENTED_EDGE('',*,*,#571,.T.);
#290=ORIENTED_EDGE('',*,*,#554,.F.);
#291=ORIENTED_EDGE('',*,*,#572,.T.);
#292=ORIENTED_EDGE('',*,*,#550,.F.);
#293=ORIENTED_EDGE('',*,*,#573,.T.);
#294=ORIENTED_EDGE('',*,*,#574,.T.);
#295=ORIENTED_EDGE('',*,*,#575,.T.);
#296=ORIENTED_EDGE('',*,*,#576,.T.);
#297=ORIENTED_EDGE('',*,*,#577,.T.);
#298=ORIENTED_EDGE('',*,*,#578,.T.);
#299=ORIENTED_EDGE('',*,*,#579,.T.);
#300=ORIENTED_EDGE('',*,*,#580,.T.);
#301=ORIENTED_EDGE('',*,*,#581,.T.);
#302=ORIENTED_EDGE('',*,*,#582,.T.);
#303=ORIENTED_EDGE('',*,*,#583,.T.);
#304=ORIENTED_EDGE('',*,*,#584,.T.);
#305=ORIENTED_EDGE('',*,*,#585,.T.);
#306=ORIENTED_EDGE('',*,*,#586,.T.);
#307=ORIENTED_EDGE('',*,*,#587,.T.);
#308=ORIENTED_EDGE('',*,*,#588,.T.);
#309=ORIENTED_EDGE('',*,*,#589,.T.);
#310=ORIENTED_EDGE('',*,*,#590,.T.);
#311=ORIENTED_EDGE('',*,*,#591,.T.);
#312=ORIENTED_EDGE('',*,*,#592,.T.);
#313=ORIENTED_EDGE('',*,*,#593,.T.);
#314=ORIENTED_EDGE('',*,*,#594,.T.);
#315=ORIENTED_EDGE('',*,*,#595,.T.);
#316=ORIENTED_EDGE('',*,*,#596,.T.);
#317=ORIENTED_EDGE('',*,*,#597,.T.);
#318=ORIENTED_EDGE('',*,*,#598,.T.);
#319=ORIENTED_EDGE('',*,*,#599,.T.);
#320=ORIENTED_EDGE('',*,*,#600,.T.);
#321=ORIENTED_EDGE('',*,*,#601,.T.);
#322=ORIENTED_EDGE('',*,*,#602,.T.);
#323=ORIENTED_EDGE('',*,*,#601,.F.);
#324=ORIENTED_EDGE('',*,*,#603,.T.);
#325=ORIENTED_EDGE('',*,*,#604,.F.);
#326=ORIENTED_EDGE('',*,*,#605,.T.);
#327=ORIENTED_EDGE('',*,*,#604,.T.);
#328=ORIENTED_EDGE('',*,*,#606,.T.);
#329=ORIENTED_EDGE('',*,*,#607,.T.);
#330=ORIENTED_EDGE('',*,*,#608,.F.);
#331=ORIENTED_EDGE('',*,*,#609,.T.);
#332=ORIENTED_EDGE('',*,*,#610,.F.);
#333=ORIENTED_EDGE('',*,*,#611,.T.);
#334=ORIENTED_EDGE('',*,*,#612,.F.);
#335=ORIENTED_EDGE('',*,*,#613,.T.);
#336=ORIENTED_EDGE('',*,*,#614,.F.);
#337=ORIENTED_EDGE('',*,*,#615,.T.);
#338=ORIENTED_EDGE('',*,*,#616,.T.);
#339=ORIENTED_EDGE('',*,*,#527,.T.);
#340=ORIENTED_EDGE('',*,*,#617,.T.);
#341=ORIENTED_EDGE('',*,*,#529,.F.);
#342=ORIENTED_EDGE('',*,*,#566,.F.);
#343=ORIENTED_EDGE('',*,*,#618,.T.);
#344=ORIENTED_EDGE('',*,*,#608,.T.);
#345=ORIENTED_EDGE('',*,*,#619,.T.);
#346=ORIENTED_EDGE('',*,*,#614,.T.);
#347=ORIENTED_EDGE('',*,*,#620,.T.);
#348=ORIENTED_EDGE('',*,*,#568,.F.);
#349=ORIENTED_EDGE('',*,*,#621,.T.);
#350=ORIENTED_EDGE('',*,*,#612,.T.);
#351=ORIENTED_EDGE('',*,*,#622,.T.);
#352=ORIENTED_EDGE('',*,*,#562,.F.);
#353=ORIENTED_EDGE('',*,*,#623,.T.);
#354=ORIENTED_EDGE('',*,*,#610,.T.);
#355=ORIENTED_EDGE('',*,*,#624,.T.);
#356=ORIENTED_EDGE('',*,*,#564,.F.);
#357=ORIENTED_EDGE('',*,*,#625,.T.);
#358=ORIENTED_EDGE('',*,*,#626,.T.);
#359=ORIENTED_EDGE('',*,*,#627,.F.);
#360=ORIENTED_EDGE('',*,*,#628,.T.);
#361=ORIENTED_EDGE('',*,*,#627,.T.);
#362=ORIENTED_EDGE('',*,*,#629,.T.);
#363=ORIENTED_EDGE('',*,*,#630,.T.);
#364=ORIENTED_EDGE('',*,*,#631,.T.);
#365=ORIENTED_EDGE('',*,*,#630,.F.);
#366=ORIENTED_EDGE('',*,*,#532,.F.);
#367=ORIENTED_EDGE('',*,*,#600,.F.);
#368=ORIENTED_EDGE('',*,*,#605,.F.);
#369=ORIENTED_EDGE('',*,*,#530,.F.);
#370=ORIENTED_EDGE('',*,*,#582,.F.);
#371=ORIENTED_EDGE('',*,*,#602,.F.);
#372=ORIENTED_EDGE('',*,*,#583,.F.);
#373=ORIENTED_EDGE('',*,*,#603,.F.);
#374=ORIENTED_EDGE('',*,*,#528,.F.);
#375=ORIENTED_EDGE('',*,*,#533,.F.);
#376=ORIENTED_EDGE('',*,*,#531,.F.);
#377=ORIENTED_EDGE('',*,*,#526,.F.);
#378=ORIENTED_EDGE('',*,*,#594,.F.);
#379=ORIENTED_EDGE('',*,*,#632,.T.);
#380=ORIENTED_EDGE('',*,*,#596,.F.);
#381=ORIENTED_EDGE('',*,*,#633,.T.);
#382=ORIENTED_EDGE('',*,*,#590,.F.);
#383=ORIENTED_EDGE('',*,*,#634,.T.);
#384=ORIENTED_EDGE('',*,*,#592,.F.);
#385=ORIENTED_EDGE('',*,*,#635,.T.);
#386=ORIENTED_EDGE('',*,*,#598,.F.);
#387=ORIENTED_EDGE('',*,*,#636,.T.);
#388=ORIENTED_EDGE('',*,*,#584,.F.);
#389=ORIENTED_EDGE('',*,*,#637,.T.);
#390=ORIENTED_EDGE('',*,*,#586,.F.);
#391=ORIENTED_EDGE('',*,*,#638,.T.);
#392=ORIENTED_EDGE('',*,*,#588,.F.);
#393=ORIENTED_EDGE('',*,*,#639,.T.);
#394=ORIENTED_EDGE('',*,*,#640,.F.);
#395=ORIENTED_EDGE('',*,*,#579,.F.);
#396=ORIENTED_EDGE('',*,*,#641,.F.);
#397=ORIENTED_EDGE('',*,*,#591,.F.);
#398=ORIENTED_EDGE('',*,*,#641,.T.);
#399=ORIENTED_EDGE('',*,*,#578,.F.);
#400=ORIENTED_EDGE('',*,*,#642,.F.);
#401=ORIENTED_EDGE('',*,*,#639,.F.);
#402=ORIENTED_EDGE('',*,*,#640,.T.);
#403=ORIENTED_EDGE('',*,*,#635,.F.);
#404=ORIENTED_EDGE('',*,*,#643,.F.);
#405=ORIENTED_EDGE('',*,*,#580,.F.);
#406=ORIENTED_EDGE('',*,*,#642,.T.);
#407=ORIENTED_EDGE('',*,*,#577,.F.);
#408=ORIENTED_EDGE('',*,*,#644,.F.);
#409=ORIENTED_EDGE('',*,*,#587,.F.);
#410=ORIENTED_EDGE('',*,*,#643,.T.);
#411=ORIENTED_EDGE('',*,*,#595,.F.);
#412=ORIENTED_EDGE('',*,*,#645,.F.);
#413=ORIENTED_EDGE('',*,*,#581,.F.);
#414=ORIENTED_EDGE('',*,*,#644,.T.);
#415=ORIENTED_EDGE('',*,*,#576,.F.);
#416=ORIENTED_EDGE('',*,*,#646,.F.);
#417=ORIENTED_EDGE('',*,*,#637,.F.);
#418=ORIENTED_EDGE('',*,*,#645,.T.);
#419=ORIENTED_EDGE('',*,*,#633,.F.);
#420=ORIENTED_EDGE('',*,*,#647,.F.);
#421=ORIENTED_EDGE('',*,*,#574,.F.);
#422=ORIENTED_EDGE('',*,*,#646,.T.);
#423=ORIENTED_EDGE('',*,*,#575,.F.);
#424=ORIENTED_EDGE('',*,*,#647,.T.);
#425=ORIENTED_EDGE('',*,*,#599,.F.);
#426=ORIENTED_EDGE('',*,*,#626,.F.);
#427=ORIENTED_EDGE('',*,*,#617,.F.);
#428=ORIENTED_EDGE('',*,*,#616,.F.);
#429=ORIENTED_EDGE('',*,*,#631,.F.);
#430=ORIENTED_EDGE('',*,*,#628,.F.);
#431=ORIENTED_EDGE('',*,*,#606,.F.);
#432=ORIENTED_EDGE('',*,*,#629,.F.);
#433=ORIENTED_EDGE('',*,*,#607,.F.);
#434=ORIENTED_EDGE('',*,*,#609,.F.);
#435=ORIENTED_EDGE('',*,*,#618,.F.);
#436=ORIENTED_EDGE('',*,*,#565,.F.);
#437=ORIENTED_EDGE('',*,*,#624,.F.);
#438=ORIENTED_EDGE('',*,*,#611,.F.);
#439=ORIENTED_EDGE('',*,*,#625,.F.);
#440=ORIENTED_EDGE('',*,*,#563,.F.);
#441=ORIENTED_EDGE('',*,*,#622,.F.);
#442=ORIENTED_EDGE('',*,*,#613,.F.);
#443=ORIENTED_EDGE('',*,*,#623,.F.);
#444=ORIENTED_EDGE('',*,*,#569,.F.);
#445=ORIENTED_EDGE('',*,*,#620,.F.);
#446=ORIENTED_EDGE('',*,*,#615,.F.);
#447=ORIENTED_EDGE('',*,*,#621,.F.);
#448=ORIENTED_EDGE('',*,*,#567,.F.);
#449=ORIENTED_EDGE('',*,*,#619,.F.);
#450=ORIENTED_EDGE('',*,*,#572,.F.);
#451=ORIENTED_EDGE('',*,*,#557,.F.);
#452=ORIENTED_EDGE('',*,*,#648,.F.);
#453=ORIENTED_EDGE('',*,*,#551,.F.);
#454=ORIENTED_EDGE('',*,*,#649,.F.);
#455=ORIENTED_EDGE('',*,*,#552,.F.);
#456=ORIENTED_EDGE('',*,*,#650,.F.);
#457=ORIENTED_EDGE('',*,*,#545,.F.);
#458=ORIENTED_EDGE('',*,*,#573,.F.);
#459=ORIENTED_EDGE('',*,*,#553,.F.);
#460=ORIENTED_EDGE('',*,*,#651,.F.);
#461=ORIENTED_EDGE('',*,*,#549,.F.);
#462=ORIENTED_EDGE('',*,*,#650,.T.);
#463=ORIENTED_EDGE('',*,*,#648,.T.);
#464=ORIENTED_EDGE('',*,*,#652,.F.);
#465=ORIENTED_EDGE('',*,*,#651,.T.);
#466=ORIENTED_EDGE('',*,*,#649,.T.);
#467=ORIENTED_EDGE('',*,*,#653,.F.);
#468=ORIENTED_EDGE('',*,*,#571,.F.);
#469=ORIENTED_EDGE('',*,*,#561,.F.);
#470=ORIENTED_EDGE('',*,*,#654,.F.);
#471=ORIENTED_EDGE('',*,*,#555,.F.);
#472=ORIENTED_EDGE('',*,*,#652,.T.);
#473=ORIENTED_EDGE('',*,*,#556,.F.);
#474=ORIENTED_EDGE('',*,*,#655,.F.);
#475=ORIENTED_EDGE('',*,*,#542,.F.);
#476=ORIENTED_EDGE('',*,*,#653,.T.);
#477=ORIENTED_EDGE('',*,*,#544,.F.);
#478=ORIENTED_EDGE('',*,*,#656,.F.);
#479=ORIENTED_EDGE('',*,*,#546,.F.);
#480=ORIENTED_EDGE('',*,*,#570,.F.);
#481=ORIENTED_EDGE('',*,*,#547,.F.);
#482=ORIENTED_EDGE('',*,*,#657,.F.);
#483=ORIENTED_EDGE('',*,*,#559,.F.);
#484=ORIENTED_EDGE('',*,*,#655,.T.);
#485=ORIENTED_EDGE('',*,*,#654,.T.);
#486=ORIENTED_EDGE('',*,*,#658,.F.);
#487=ORIENTED_EDGE('',*,*,#657,.T.);
#488=ORIENTED_EDGE('',*,*,#656,.T.);
#489=ORIENTED_EDGE('',*,*,#659,.F.);
#490=ORIENTED_EDGE('',*,*,#658,.T.);
#491=ORIENTED_EDGE('',*,*,#560,.F.);
#492=ORIENTED_EDGE('',*,*,#659,.T.);
#493=ORIENTED_EDGE('',*,*,#543,.F.);
#494=ORIENTED_EDGE('',*,*,#660,.F.);
#495=ORIENTED_EDGE('',*,*,#589,.F.);
#496=ORIENTED_EDGE('',*,*,#661,.F.);
#497=ORIENTED_EDGE('',*,*,#539,.F.);
#498=ORIENTED_EDGE('',*,*,#661,.T.);
#499=ORIENTED_EDGE('',*,*,#638,.F.);
#500=ORIENTED_EDGE('',*,*,#662,.F.);
#501=ORIENTED_EDGE('',*,*,#540,.F.);
#502=ORIENTED_EDGE('',*,*,#660,.T.);
#503=ORIENTED_EDGE('',*,*,#538,.F.);
#504=ORIENTED_EDGE('',*,*,#663,.F.);
#505=ORIENTED_EDGE('',*,*,#634,.F.);
#506=ORIENTED_EDGE('',*,*,#662,.T.);
#507=ORIENTED_EDGE('',*,*,#585,.F.);
#508=ORIENTED_EDGE('',*,*,#664,.F.);
#509=ORIENTED_EDGE('',*,*,#541,.F.);
#510=ORIENTED_EDGE('',*,*,#663,.T.);
#511=ORIENTED_EDGE('',*,*,#537,.F.);
#512=ORIENTED_EDGE('',*,*,#665,.F.);
#513=ORIENTED_EDGE('',*,*,#593,.F.);
#514=ORIENTED_EDGE('',*,*,#664,.T.);
#515=ORIENTED_EDGE('',*,*,#636,.F.);
#516=ORIENTED_EDGE('',*,*,#666,.F.);
#517=ORIENTED_EDGE('',*,*,#534,.F.);
#518=ORIENTED_EDGE('',*,*,#665,.T.);
#519=ORIENTED_EDGE('',*,*,#536,.F.);
#520=ORIENTED_EDGE('',*,*,#667,.F.);
#521=ORIENTED_EDGE('',*,*,#632,.F.);
#522=ORIENTED_EDGE('',*,*,#666,.T.);
#523=ORIENTED_EDGE('',*,*,#597,.F.);
#524=ORIENTED_EDGE('',*,*,#667,.T.);
#525=ORIENTED_EDGE('',*,*,#535,.F.);
#526=EDGE_CURVE('',#668,#668,#762,.T.);
#527=EDGE_CURVE('',#669,#669,#763,.T.);
#528=EDGE_CURVE('',#670,#670,#764,.T.);
#529=EDGE_CURVE('',#671,#671,#765,.F.);
#530=EDGE_CURVE('',#672,#672,#766,.T.);
#531=EDGE_CURVE('',#673,#673,#767,.F.);
#532=EDGE_CURVE('',#674,#674,#768,.T.);
#533=EDGE_CURVE('',#675,#675,#769,.F.);
#534=EDGE_CURVE('',#676,#677,#770,.F.);
#535=EDGE_CURVE('',#677,#678,#30,.T.);
#536=EDGE_CURVE('',#678,#679,#771,.F.);
#537=EDGE_CURVE('',#679,#680,#31,.T.);
#538=EDGE_CURVE('',#680,#681,#772,.F.);
#539=EDGE_CURVE('',#681,#682,#32,.T.);
#540=EDGE_CURVE('',#682,#683,#773,.F.);
#541=EDGE_CURVE('',#683,#676,#33,.T.);
#542=EDGE_CURVE('',#684,#685,#34,.T.);
#543=EDGE_CURVE('',#685,#686,#35,.T.);
#544=EDGE_CURVE('',#686,#687,#36,.T.);
#545=EDGE_CURVE('',#687,#684,#37,.T.);
#546=EDGE_CURVE('',#688,#689,#38,.T.);
#547=EDGE_CURVE('',#689,#690,#39,.T.);
#548=EDGE_CURVE('',#690,#691,#40,.T.);
#549=EDGE_CURVE('',#691,#688,#41,.T.);
#550=EDGE_CURVE('',#692,#693,#42,.T.);
#551=EDGE_CURVE('',#693,#694,#43,.T.);
#552=EDGE_CURVE('',#694,#695,#44,.T.);
#553=EDGE_CURVE('',#695,#692,#45,.T.);
#554=EDGE_CURVE('',#696,#697,#46,.T.);
#555=EDGE_CURVE('',#697,#698,#47,.T.);
#556=EDGE_CURVE('',#698,#699,#48,.T.);
#557=EDGE_CURVE('',#699,#696,#49,.T.);
#558=EDGE_CURVE('',#700,#701,#50,.T.);
#559=EDGE_CURVE('',#701,#702,#51,.T.);
#560=EDGE_CURVE('',#702,#703,#52,.T.);
#561=EDGE_CURVE('',#703,#700,#53,.T.);
#562=EDGE_CURVE('',#704,#705,#54,.T.);
#563=EDGE_CURVE('',#705,#706,#55,.F.);
#564=EDGE_CURVE('',#706,#707,#56,.T.);
#565=EDGE_CURVE('',#707,#708,#57,.F.);
#566=EDGE_CURVE('',#708,#709,#58,.T.);
#567=EDGE_CURVE('',#709,#710,#59,.F.);
#568=EDGE_CURVE('',#710,#711,#60,.T.);
#569=EDGE_CURVE('',#711,#704,#61,.F.);
#570=EDGE_CURVE('',#690,#701,#62,.F.);
#571=EDGE_CURVE('',#700,#697,#63,.F.);
#572=EDGE_CURVE('',#696,#693,#64,.F.);
#573=EDGE_CURVE('',#692,#691,#65,.F.);
#574=EDGE_CURVE('',#712,#713,#774,.T.);
#575=EDGE_CURVE('',#713,#714,#66,.T.);
#576=EDGE_CURVE('',#714,#715,#775,.T.);
#577=EDGE_CURVE('',#715,#716,#67,.T.);
#578=EDGE_CURVE('',#716,#717,#776,.T.);
#579=EDGE_CURVE('',#717,#718,#68,.T.);
#580=EDGE_CURVE('',#718,#719,#777,.T.);
#581=EDGE_CURVE('',#719,#712,#69,.T.);
#582=EDGE_CURVE('',#720,#720,#778,.F.);
#583=EDGE_CURVE('',#721,#721,#779,.F.);
#584=EDGE_CURVE('',#722,#723,#70,.T.);
#585=EDGE_CURVE('',#723,#724,#71,.T.);
#586=EDGE_CURVE('',#724,#725,#72,.F.);
#587=EDGE_CURVE('',#725,#722,#73,.T.);
#588=EDGE_CURVE('',#726,#727,#74,.T.);
#589=EDGE_CURVE('',#727,#728,#75,.T.);
#590=EDGE_CURVE('',#728,#729,#76,.F.);
#591=EDGE_CURVE('',#729,#726,#77,.T.);
#592=EDGE_CURVE('',#730,#731,#78,.T.);
#593=EDGE_CURVE('',#731,#732,#79,.T.);
#594=EDGE_CURVE('',#732,#733,#80,.F.);
#595=EDGE_CURVE('',#733,#730,#81,.T.);
#596=EDGE_CURVE('',#734,#735,#82,.T.);
#597=EDGE_CURVE('',#735,#736,#83,.T.);
#598=EDGE_CURVE('',#736,#737,#84,.F.);
#599=EDGE_CURVE('',#737,#734,#85,.T.);
#600=EDGE_CURVE('',#738,#738,#780,.F.);
#601=EDGE_CURVE('',#739,#739,#781,.T.);
#602=EDGE_CURVE('',#740,#740,#782,.T.);
#603=EDGE_CURVE('',#741,#741,#783,.T.);
#604=EDGE_CURVE('',#742,#742,#784,.T.);
#605=EDGE_CURVE('',#743,#743,#785,.F.);
#606=EDGE_CURVE('',#744,#744,#786,.T.);
#607=EDGE_CURVE('',#745,#745,#787,.T.);
#608=EDGE_CURVE('',#746,#747,#86,.T.);
#609=EDGE_CURVE('',#746,#748,#87,.F.);
#610=EDGE_CURVE('',#749,#748,#88,.T.);
#611=EDGE_CURVE('',#749,#750,#89,.F.);
#612=EDGE_CURVE('',#751,#750,#90,.T.);
#613=EDGE_CURVE('',#751,#752,#91,.F.);
#614=EDGE_CURVE('',#753,#752,#92,.T.);
#615=EDGE_CURVE('',#753,#747,#93,.F.);
#616=EDGE_CURVE('',#754,#754,#788,.F.);
#617=EDGE_CURVE('',#755,#755,#789,.F.);
#618=EDGE_CURVE('',#708,#746,#94,.T.);
#619=EDGE_CURVE('',#747,#709,#95,.T.);
#620=EDGE_CURVE('',#752,#711,#96,.T.);
#621=EDGE_CURVE('',#710,#753,#97,.T.);
#622=EDGE_CURVE('',#750,#705,#98,.T.);
#623=EDGE_CURVE('',#704,#751,#99,.T.);
#624=EDGE_CURVE('',#748,#707,#100,.T.);
#625=EDGE_CURVE('',#706,#749,#101,.T.);
#626=EDGE_CURVE('',#756,#756,#790,.T.);
#627=EDGE_CURVE('',#757,#757,#791,.T.);
#628=EDGE_CURVE('',#758,#758,#792,.F.);
#629=EDGE_CURVE('',#759,#759,#793,.F.);
#630=EDGE_CURVE('',#760,#760,#794,.T.);
#631=EDGE_CURVE('',#761,#761,#795,.T.);
#632=EDGE_CURVE('',#732,#735,#796,.T.);
#633=EDGE_CURVE('',#734,#733,#797,.F.);
#634=EDGE_CURVE('',#728,#731,#798,.T.);
#635=EDGE_CURVE('',#730,#729,#799,.F.);
#636=EDGE_CURVE('',#736,#723,#800,.T.);
#637=EDGE_CURVE('',#722,#737,#801,.F.);
#638=EDGE_CURVE('',#724,#727,#802,.T.);
#639=EDGE_CURVE('',#726,#725,#803,.F.);
#640=EDGE_CURVE('',#718,#729,#102,.T.);
#641=EDGE_CURVE('',#726,#717,#103,.T.);
#642=EDGE_CURVE('',#725,#716,#104,.T.);
#643=EDGE_CURVE('',#719,#730,#105,.T.);
#644=EDGE_CURVE('',#722,#715,#106,.T.);
#645=EDGE_CURVE('',#712,#733,#107,.T.);
#646=EDGE_CURVE('',#737,#714,#108,.T.);
#647=EDGE_CURVE('',#713,#734,#109,.T.);
#648=EDGE_CURVE('',#694,#699,#110,.F.);
#649=EDGE_CURVE('',#695,#687,#111,.T.);
#650=EDGE_CURVE('',#684,#694,#112,.T.);
#651=EDGE_CURVE('',#688,#695,#113,.F.);
#652=EDGE_CURVE('',#684,#699,#114,.F.);
#653=EDGE_CURVE('',#688,#687,#115,.F.);
#654=EDGE_CURVE('',#698,#703,#116,.F.);
#655=EDGE_CURVE('',#685,#698,#117,.T.);
#656=EDGE_CURVE('',#689,#686,#118,.T.);
#657=EDGE_CURVE('',#702,#689,#119,.F.);
#658=EDGE_CURVE('',#685,#703,#120,.F.);
#659=EDGE_CURVE('',#702,#686,#121,.F.);
#660=EDGE_CURVE('',#728,#681,#122,.T.);
#661=EDGE_CURVE('',#682,#727,#123,.T.);
#662=EDGE_CURVE('',#683,#724,#124,.T.);
#663=EDGE_CURVE('',#731,#680,#125,.T.);
#664=EDGE_CURVE('',#676,#723,#126,.T.);
#665=EDGE_CURVE('',#732,#679,#127,.T.);
#666=EDGE_CURVE('',#677,#736,#128,.T.);
#667=EDGE_CURVE('',#735,#678,#129,.T.);
#668=VERTEX_POINT('',#1610);
#669=VERTEX_POINT('',#1612);
#670=VERTEX_POINT('',#1615);
#671=VERTEX_POINT('',#1617);
#672=VERTEX_POINT('',#1620);
#673=VERTEX_POINT('',#1622);
#674=VERTEX_POINT('',#1625);
#675=VERTEX_POINT('',#1627);
#676=VERTEX_POINT('',#1630);
#677=VERTEX_POINT('',#1631);
#678=VERTEX_POINT('',#1633);
#679=VERTEX_POINT('',#1635);
#680=VERTEX_POINT('',#1637);
#681=VERTEX_POINT('',#1639);
#682=VERTEX_POINT('',#1641);
#683=VERTEX_POINT('',#1643);
#684=VERTEX_POINT('',#1646);
#685=VERTEX_POINT('',#1647);
#686=VERTEX_POINT('',#1649);
#687=VERTEX_POINT('',#1651);
#688=VERTEX_POINT('',#1655);
#689=VERTEX_POINT('',#1656);
#690=VERTEX_POINT('',#1658);
#691=VERTEX_POINT('',#1660);
#692=VERTEX_POINT('',#1664);
#693=VERTEX_POINT('',#1665);
#694=VERTEX_POINT('',#1667);
#695=VERTEX_POINT('',#1669);
#696=VERTEX_POINT('',#1673);
#697=VERTEX_POINT('',#1674);
#698=VERTEX_POINT('',#1676);
#699=VERTEX_POINT('',#1678);
#700=VERTEX_POINT('',#1682);
#701=VERTEX_POINT('',#1683);
#702=VERTEX_POINT('',#1685);
#703=VERTEX_POINT('',#1687);
#704=VERTEX_POINT('',#1691);
#705=VERTEX_POINT('',#1692);
#706=VERTEX_POINT('',#1694);
#707=VERTEX_POINT('',#1696);
#708=VERTEX_POINT('',#1698);
#709=VERTEX_POINT('',#1700);
#710=VERTEX_POINT('',#1702);
#711=VERTEX_POINT('',#1704);
#712=VERTEX_POINT('',#1712);
#713=VERTEX_POINT('',#1713);
#714=VERTEX_POINT('',#1715);
#715=VERTEX_POINT('',#1717);
#716=VERTEX_POINT('',#1719);
#717=VERTEX_POINT('',#1721);
#718=VERTEX_POINT('',#1723);
#719=VERTEX_POINT('',#1725);
#720=VERTEX_POINT('',#1728);
#721=VERTEX_POINT('',#1730);
#722=VERTEX_POINT('',#1733);
#723=VERTEX_POINT('',#1734);
#724=VERTEX_POINT('',#1736);
#725=VERTEX_POINT('',#1738);
#726=VERTEX_POINT('',#1742);
#727=VERTEX_POINT('',#1743);
#728=VERTEX_POINT('',#1745);
#729=VERTEX_POINT('',#1747);
#730=VERTEX_POINT('',#1751);
#731=VERTEX_POINT('',#1752);
#732=VERTEX_POINT('',#1754);
#733=VERTEX_POINT('',#1756);
#734=VERTEX_POINT('',#1760);
#735=VERTEX_POINT('',#1761);
#736=VERTEX_POINT('',#1763);
#737=VERTEX_POINT('',#1765);
#738=VERTEX_POINT('',#1769);
#739=VERTEX_POINT('',#1771);
#740=VERTEX_POINT('',#1774);
#741=VERTEX_POINT('',#1777);
#742=VERTEX_POINT('',#1779);
#743=VERTEX_POINT('',#1782);
#744=VERTEX_POINT('',#1785);
#745=VERTEX_POINT('',#1787);
#746=VERTEX_POINT('',#1789);
#747=VERTEX_POINT('',#1790);
#748=VERTEX_POINT('',#1792);
#749=VERTEX_POINT('',#1794);
#750=VERTEX_POINT('',#1796);
#751=VERTEX_POINT('',#1798);
#752=VERTEX_POINT('',#1800);
#753=VERTEX_POINT('',#1802);
#754=VERTEX_POINT('',#1806);
#755=VERTEX_POINT('',#1809);
#756=VERTEX_POINT('',#1824);
#757=VERTEX_POINT('',#1826);
#758=VERTEX_POINT('',#1829);
#759=VERTEX_POINT('',#1832);
#760=VERTEX_POINT('',#1834);
#761=VERTEX_POINT('',#1837);
#762=CIRCLE('',#1152,0.00405);
#763=CIRCLE('',#1153,0.00605);
#764=CIRCLE('',#1155,0.00405);
#765=CIRCLE('',#1156,0.00605);
#766=CIRCLE('',#1158,0.00305);
#767=CIRCLE('',#1159,0.00305);
#768=CIRCLE('',#1161,0.00305);
#769=CIRCLE('',#1162,0.00305);
#770=CIRCLE('',#1164,0.0055);
#771=CIRCLE('',#1165,0.0055);
#772=CIRCLE('',#1166,0.0055);
#773=CIRCLE('',#1167,0.0055);
#774=CIRCLE('',#1174,0.003);
#775=CIRCLE('',#1175,0.003);
#776=CIRCLE('',#1176,0.003);
#777=CIRCLE('',#1177,0.003);
#778=CIRCLE('',#1178,0.0065);
#779=CIRCLE('',#1179,0.0065);
#780=CIRCLE('',#1185,0.00405);
#781=CIRCLE('',#1186,0.0055);
#782=CIRCLE('',#1188,0.0055);
#783=CIRCLE('',#1190,0.0055);
#784=CIRCLE('',#1191,0.0055);
#785=CIRCLE('',#1193,0.00405);
#786=CIRCLE('',#1195,0.0105);
#787=CIRCLE('',#1196,0.0105);
#788=CIRCLE('',#1198,0.00605);
#789=CIRCLE('',#1200,0.00605);
#790=CIRCLE('',#1206,0.00805);
#791=CIRCLE('',#1207,0.0085);
#792=CIRCLE('',#1209,0.0085);
#793=CIRCLE('',#1211,0.0085);
#794=CIRCLE('',#1212,0.0085);
#795=CIRCLE('',#1214,0.00805);
#796=CIRCLE('',#1222,0.005);
#797=CIRCLE('',#1223,0.005);
#798=CIRCLE('',#1225,0.005);
#799=CIRCLE('',#1226,0.005);
#800=CIRCLE('',#1228,0.005);
#801=CIRCLE('',#1229,0.005);
#802=CIRCLE('',#1231,0.005);
#803=CIRCLE('',#1232,0.005);
#804=EDGE_LOOP('',(#242));
#805=EDGE_LOOP('',(#243));
#806=EDGE_LOOP('',(#244));
#807=EDGE_LOOP('',(#245));
#808=EDGE_LOOP('',(#246));
#809=EDGE_LOOP('',(#247));
#810=EDGE_LOOP('',(#248));
#811=EDGE_LOOP('',(#249));
#812=EDGE_LOOP('',(#250,#251,#252,#253,#254,#255,#256,#257));
#813=EDGE_LOOP('',(#258,#259,#260,#261));
#814=EDGE_LOOP('',(#262,#263,#264,#265));
#815=EDGE_LOOP('',(#266,#267,#268,#269));
#816=EDGE_LOOP('',(#270,#271,#272,#273));
#817=EDGE_LOOP('',(#274,#275,#276,#277));
#818=EDGE_LOOP('',(#278,#279,#280,#281,#282,#283,#284,#285));
#819=EDGE_LOOP('',(#286,#287,#288,#289,#290,#291,#292,#293));
#820=EDGE_LOOP('',(#294,#295,#296,#297,#298,#299,#300,#301));
#821=EDGE_LOOP('',(#302));
#822=EDGE_LOOP('',(#303));
#823=EDGE_LOOP('',(#304,#305,#306,#307));
#824=EDGE_LOOP('',(#308,#309,#310,#311));
#825=EDGE_LOOP('',(#312,#313,#314,#315));
#826=EDGE_LOOP('',(#316,#317,#318,#319));
#827=EDGE_LOOP('',(#320));
#828=EDGE_LOOP('',(#321));
#829=EDGE_LOOP('',(#322));
#830=EDGE_LOOP('',(#323));
#831=EDGE_LOOP('',(#324));
#832=EDGE_LOOP('',(#325));
#833=EDGE_LOOP('',(#326));
#834=EDGE_LOOP('',(#327));
#835=EDGE_LOOP('',(#328));
#836=EDGE_LOOP('',(#329));
#837=EDGE_LOOP('',(#330,#331,#332,#333,#334,#335,#336,#337));
#838=EDGE_LOOP('',(#338));
#839=EDGE_LOOP('',(#339));
#840=EDGE_LOOP('',(#340));
#841=EDGE_LOOP('',(#341));
#842=EDGE_LOOP('',(#342,#343,#344,#345));
#843=EDGE_LOOP('',(#346,#347,#348,#349));
#844=EDGE_LOOP('',(#350,#351,#352,#353));
#845=EDGE_LOOP('',(#354,#355,#356,#357));
#846=EDGE_LOOP('',(#358));
#847=EDGE_LOOP('',(#359));
#848=EDGE_LOOP('',(#360));
#849=EDGE_LOOP('',(#361));
#850=EDGE_LOOP('',(#362));
#851=EDGE_LOOP('',(#363));
#852=EDGE_LOOP('',(#364));
#853=EDGE_LOOP('',(#365));
#854=EDGE_LOOP('',(#366));
#855=EDGE_LOOP('',(#367));
#856=EDGE_LOOP('',(#368));
#857=EDGE_LOOP('',(#369));
#858=EDGE_LOOP('',(#370));
#859=EDGE_LOOP('',(#371));
#860=EDGE_LOOP('',(#372));
#861=EDGE_LOOP('',(#373));
#862=EDGE_LOOP('',(#374));
#863=EDGE_LOOP('',(#375));
#864=EDGE_LOOP('',(#376));
#865=EDGE_LOOP('',(#377));
#866=EDGE_LOOP('',(#378,#379,#380,#381));
#867=EDGE_LOOP('',(#382,#383,#384,#385));
#868=EDGE_LOOP('',(#386,#387,#388,#389));
#869=EDGE_LOOP('',(#390,#391,#392,#393));
#870=EDGE_LOOP('',(#394,#395,#396,#397));
#871=EDGE_LOOP('',(#398,#399,#400,#401));
#872=EDGE_LOOP('',(#402,#403,#404,#405));
#873=EDGE_LOOP('',(#406,#407,#408,#409));
#874=EDGE_LOOP('',(#410,#411,#412,#413));
#875=EDGE_LOOP('',(#414,#415,#416,#417));
#876=EDGE_LOOP('',(#418,#419,#420,#421));
#877=EDGE_LOOP('',(#422,#423,#424,#425));
#878=EDGE_LOOP('',(#426));
#879=EDGE_LOOP('',(#427));
#880=EDGE_LOOP('',(#428));
#881=EDGE_LOOP('',(#429));
#882=EDGE_LOOP('',(#430));
#883=EDGE_LOOP('',(#431));
#884=EDGE_LOOP('',(#432));
#885=EDGE_LOOP('',(#433));
#886=EDGE_LOOP('',(#434,#435,#436,#437));
#887=EDGE_LOOP('',(#438,#439,#440,#441));
#888=EDGE_LOOP('',(#442,#443,#444,#445));
#889=EDGE_LOOP('',(#446,#447,#448,#449));
#890=EDGE_LOOP('',(#450,#451,#452,#453));
#891=EDGE_LOOP('',(#454,#455,#456,#457));
#892=EDGE_LOOP('',(#458,#459,#460,#461));
#893=EDGE_LOOP('',(#462,#463,#464));
#894=EDGE_LOOP('',(#465,#466,#467));
#895=EDGE_LOOP('',(#468,#469,#470,#471));
#896=EDGE_LOOP('',(#472,#473,#474,#475));
#897=EDGE_LOOP('',(#476,#477,#478,#479));
#898=EDGE_LOOP('',(#480,#481,#482,#483));
#899=EDGE_LOOP('',(#484,#485,#486));
#900=EDGE_LOOP('',(#487,#488,#489));
#901=EDGE_LOOP('',(#490,#491,#492,#493));
#902=EDGE_LOOP('',(#494,#495,#496,#497));
#903=EDGE_LOOP('',(#498,#499,#500,#501));
#904=EDGE_LOOP('',(#502,#503,#504,#505));
#905=EDGE_LOOP('',(#506,#507,#508,#509));
#906=EDGE_LOOP('',(#510,#511,#512,#513));
#907=EDGE_LOOP('',(#514,#515,#516,#517));
#908=EDGE_LOOP('',(#518,#519,#520,#521));
#909=EDGE_LOOP('',(#522,#523,#524,#525));
#910=FACE_BOUND('',#804,.T.);
#911=FACE_BOUND('',#805,.T.);
#912=FACE_BOUND('',#806,.T.);
#913=FACE_BOUND('',#807,.T.);
#914=FACE_BOUND('',#808,.T.);
#915=FACE_BOUND('',#809,.T.);
#916=FACE_BOUND('',#810,.T.);
#917=FACE_BOUND('',#811,.T.);
#918=FACE_BOUND('',#812,.T.);
#919=FACE_BOUND('',#813,.T.);
#920=FACE_BOUND('',#814,.T.);
#921=FACE_BOUND('',#815,.T.);
#922=FACE_BOUND('',#816,.T.);
#923=FACE_BOUND('',#817,.T.);
#924=FACE_BOUND('',#818,.T.);
#925=FACE_BOUND('',#819,.T.);
#926=FACE_BOUND('',#820,.T.);
#927=FACE_BOUND('',#821,.T.);
#928=FACE_BOUND('',#822,.T.);
#929=FACE_BOUND('',#823,.T.);
#930=FACE_BOUND('',#824,.T.);
#931=FACE_BOUND('',#825,.T.);
#932=FACE_BOUND('',#826,.T.);
#933=FACE_BOUND('',#827,.T.);
#934=FACE_BOUND('',#828,.T.);
#935=FACE_BOUND('',#829,.T.);
#936=FACE_BOUND('',#830,.T.);
#937=FACE_BOUND('',#831,.T.);
#938=FACE_BOUND('',#832,.T.);
#939=FACE_BOUND('',#833,.T.);
#940=FACE_BOUND('',#834,.T.);
#941=FACE_BOUND('',#835,.T.);
#942=FACE_BOUND('',#836,.T.);
#943=FACE_BOUND('',#837,.T.);
#944=FACE_BOUND('',#838,.T.);
#945=FACE_BOUND('',#839,.T.);
#946=FACE_BOUND('',#840,.T.);
#947=FACE_BOUND('',#841,.T.);
#948=FACE_BOUND('',#842,.T.);
#949=FACE_BOUND('',#843,.T.);
#950=FACE_BOUND('',#844,.T.);
#951=FACE_BOUND('',#845,.T.);
#952=FACE_BOUND('',#846,.T.);
#953=FACE_BOUND('',#847,.T.);
#954=FACE_BOUND('',#848,.T.);
#955=FACE_BOUND('',#849,.T.);
#956=FACE_BOUND('',#850,.T.);
#957=FACE_BOUND('',#851,.T.);
#958=FACE_BOUND('',#852,.T.);
#959=FACE_BOUND('',#853,.T.);
#960=FACE_BOUND('',#854,.T.);
#961=FACE_BOUND('',#855,.T.);
#962=FACE_BOUND('',#856,.T.);
#963=FACE_BOUND('',#857,.T.);
#964=FACE_BOUND('',#858,.T.);
#965=FACE_BOUND('',#859,.T.);
#966=FACE_BOUND('',#860,.T.);
#967=FACE_BOUND('',#861,.T.);
#968=FACE_BOUND('',#862,.T.);
#969=FACE_BOUND('',#863,.T.);
#970=FACE_BOUND('',#864,.T.);
#971=FACE_BOUND('',#865,.T.);
#972=FACE_BOUND('',#866,.T.);
#973=FACE_BOUND('',#867,.T.);
#974=FACE_BOUND('',#868,.T.);
#975=FACE_BOUND('',#869,.T.);
#976=FACE_BOUND('',#870,.T.);
#977=FACE_BOUND('',#871,.T.);
#978=FACE_BOUND('',#872,.T.);
#979=FACE_BOUND('',#873,.T.);
#980=FACE_BOUND('',#874,.T.);
#981=FACE_BOUND('',#875,.T.);
#982=FACE_BOUND('',#876,.T.);
#983=FACE_BOUND('',#877,.T.);
#984=FACE_BOUND('',#878,.T.);
#985=FACE_BOUND('',#879,.T.);
#986=FACE_BOUND('',#880,.T.);
#987=FACE_BOUND('',#881,.T.);
#988=FACE_BOUND('',#882,.T.);
#989=FACE_BOUND('',#883,.T.);
#990=FACE_BOUND('',#884,.T.);
#991=FACE_BOUND('',#885,.T.);
#992=FACE_BOUND('',#886,.T.);
#993=FACE_BOUND('',#887,.T.);
#994=FACE_BOUND('',#888,.T.);
#995=FACE_BOUND('',#889,.T.);
#996=FACE_BOUND('',#890,.T.);
#997=FACE_BOUND('',#891,.T.);
#998=FACE_BOUND('',#892,.T.);
#999=FACE_BOUND('',#893,.T.);
#1000=FACE_BOUND('',#894,.T.);
#1001=FACE_BOUND('',#895,.T.);
#1002=FACE_BOUND('',#896,.T.);
#1003=FACE_BOUND('',#897,.T.);
#1004=FACE_BOUND('',#898,.T.);
#1005=FACE_BOUND('',#899,.T.);
#1006=FACE_BOUND('',#900,.T.);
#1007=FACE_BOUND('',#901,.T.);
#1008=FACE_BOUND('',#902,.T.);
#1009=FACE_BOUND('',#903,.T.);
#1010=FACE_BOUND('',#904,.T.);
#1011=FACE_BOUND('',#905,.T.);
#1012=FACE_BOUND('',#906,.T.);
#1013=FACE_BOUND('',#907,.T.);
#1014=FACE_BOUND('',#908,.T.);
#1015=FACE_BOUND('',#909,.T.);
#1016=PLANE('',#1151);
#1017=PLANE('',#1154);
#1018=PLANE('',#1163);
#1019=PLANE('',#1168);
#1020=PLANE('',#1169);
#1021=PLANE('',#1170);
#1022=PLANE('',#1171);
#1023=PLANE('',#1172);
#1024=PLANE('',#1173);
#1025=PLANE('',#1180);
#1026=PLANE('',#1181);
#1027=PLANE('',#1182);
#1028=PLANE('',#1183);
#1029=PLANE('',#1184);
#1030=PLANE('',#1192);
#1031=PLANE('',#1194);
#1032=PLANE('',#1201);
#1033=PLANE('',#1202);
#1034=PLANE('',#1203);
#1035=PLANE('',#1204);
#1036=PLANE('',#1205);
#1037=PLANE('',#1213);
#1038=PLANE('',#1233);
#1039=PLANE('',#1236);
#1040=PLANE('',#1237);
#1041=PLANE('',#1240);
#1042=PLANE('',#1245);
#1043=PLANE('',#1246);
#1044=PLANE('',#1247);
#1045=PLANE('',#1248);
#1046=PLANE('',#1249);
#1047=PLANE('',#1250);
#1048=PLANE('',#1251);
#1049=PLANE('',#1252);
#1050=PLANE('',#1253);
#1051=PLANE('',#1254);
#1052=PLANE('',#1255);
#1053=PLANE('',#1256);
#1054=PLANE('',#1257);
#1055=PLANE('',#1258);
#1056=PLANE('',#1259);
#1057=PLANE('',#1260);
#1058=PLANE('',#1261);
#1059=PLANE('',#1264);
#1060=PLANE('',#1265);
#1061=PLANE('',#1268);
#1062=ADVANCED_FACE('',(#910,#911),#1016,.F.);
#1063=ADVANCED_FACE('',(#912,#913),#1017,.F.);
#1064=ADVANCED_FACE('',(#914,#915),#230,.F.);
#1065=ADVANCED_FACE('',(#916,#917),#231,.F.);
#1066=ADVANCED_FACE('',(#918,#919),#1018,.T.);
#1067=ADVANCED_FACE('',(#920),#1019,.F.);
#1068=ADVANCED_FACE('',(#921),#1020,.F.);
#1069=ADVANCED_FACE('',(#922),#1021,.F.);
#1070=ADVANCED_FACE('',(#923),#1022,.F.);
#1071=ADVANCED_FACE('',(#924,#925),#1023,.F.);
#1072=ADVANCED_FACE('',(#926,#927,#928),#1024,.T.);
#1073=ADVANCED_FACE('',(#929),#1025,.T.);
#1074=ADVANCED_FACE('',(#930),#1026,.F.);
#1075=ADVANCED_FACE('',(#931),#1027,.F.);
#1076=ADVANCED_FACE('',(#932),#1028,.T.);
#1077=ADVANCED_FACE('',(#933,#934),#1029,.T.);
#1078=ADVANCED_FACE('',(#935,#936),#232,.F.);
#1079=ADVANCED_FACE('',(#937,#938),#233,.F.);
#1080=ADVANCED_FACE('',(#939,#940),#1030,.T.);
#1081=ADVANCED_FACE('',(#941,#942,#943),#1031,.F.);
#1082=ADVANCED_FACE('',(#944,#945),#234,.T.);
#1083=ADVANCED_FACE('',(#946,#947),#235,.T.);
#1084=ADVANCED_FACE('',(#948),#1032,.T.);
#1085=ADVANCED_FACE('',(#949),#1033,.T.);
#1086=ADVANCED_FACE('',(#950),#1034,.T.);
#1087=ADVANCED_FACE('',(#951),#1035,.T.);
#1088=ADVANCED_FACE('',(#952,#953),#1036,.F.);
#1089=ADVANCED_FACE('',(#954,#955),#236,.T.);
#1090=ADVANCED_FACE('',(#956,#957),#237,.T.);
#1091=ADVANCED_FACE('',(#958,#959),#1037,.F.);
#1092=ADVANCED_FACE('',(#960,#961),#12,.F.);
#1093=ADVANCED_FACE('',(#962,#963),#13,.F.);
#1094=ADVANCED_FACE('',(#964,#965),#14,.F.);
#1095=ADVANCED_FACE('',(#966,#967),#15,.F.);
#1096=ADVANCED_FACE('',(#968,#969),#16,.F.);
#1097=ADVANCED_FACE('',(#970,#971),#17,.F.);
#1098=ADVANCED_FACE('',(#972),#238,.F.);
#1099=ADVANCED_FACE('',(#973),#239,.F.);
#1100=ADVANCED_FACE('',(#974),#240,.F.);
#1101=ADVANCED_FACE('',(#975),#241,.F.);
#1102=ADVANCED_FACE('',(#976),#1038,.F.);
#1103=ADVANCED_FACE('',(#977),#18,.F.);
#1104=ADVANCED_FACE('',(#978),#19,.F.);
#1105=ADVANCED_FACE('',(#979),#1039,.T.);
#1106=ADVANCED_FACE('',(#980),#1040,.F.);
#1107=ADVANCED_FACE('',(#981),#20,.F.);
#1108=ADVANCED_FACE('',(#982),#21,.F.);
#1109=ADVANCED_FACE('',(#983),#1041,.T.);
#1110=ADVANCED_FACE('',(#984,#985),#22,.T.);
#1111=ADVANCED_FACE('',(#986,#987),#23,.T.);
#1112=ADVANCED_FACE('',(#988,#989),#24,.T.);
#1113=ADVANCED_FACE('',(#990,#991),#25,.T.);
#1114=ADVANCED_FACE('',(#992),#1042,.T.);
#1115=ADVANCED_FACE('',(#993),#1043,.T.);
#1116=ADVANCED_FACE('',(#994),#1044,.T.);
#1117=ADVANCED_FACE('',(#995),#1045,.T.);
#1118=ADVANCED_FACE('',(#996),#1046,.F.);
#1119=ADVANCED_FACE('',(#997),#1047,.T.);
#1120=ADVANCED_FACE('',(#998),#1048,.F.);
#1121=ADVANCED_FACE('',(#999),#1049,.T.);
#1122=ADVANCED_FACE('',(#1000),#1050,.T.);
#1123=ADVANCED_FACE('',(#1001),#1051,.F.);
#1124=ADVANCED_FACE('',(#1002),#1052,.T.);
#1125=ADVANCED_FACE('',(#1003),#1053,.T.);
#1126=ADVANCED_FACE('',(#1004),#1054,.F.);
#1127=ADVANCED_FACE('',(#1005),#1055,.T.);
#1128=ADVANCED_FACE('',(#1006),#1056,.T.);
#1129=ADVANCED_FACE('',(#1007),#1057,.T.);
#1130=ADVANCED_FACE('',(#1008),#1058,.T.);
#1131=ADVANCED_FACE('',(#1009),#26,.F.);
#1132=ADVANCED_FACE('',(#1010),#27,.F.);
#1133=ADVANCED_FACE('',(#1011),#1059,.F.);
#1134=ADVANCED_FACE('',(#1012),#1060,.T.);
#1135=ADVANCED_FACE('',(#1013),#28,.F.);
#1136=ADVANCED_FACE('',(#1014),#29,.F.);
#1137=ADVANCED_FACE('',(#1015),#1061,.F.);
#1138=CLOSED_SHELL('',(#1062,#1063,#1064,#1065,#1066,#1067,#1068,#1069,
#1070,#1071,#1072,#1073,#1074,#1075,#1076,#1077,#1078,#1079,#1080,#1081,
#1082,#1083,#1084,#1085,#1086,#1087,#1088,#1089,#1090,#1091,#1092,#1093,
#1094,#1095,#1096,#1097,#1098,#1099,#1100,#1101,#1102,#1103,#1104,#1105,
#1106,#1107,#1108,#1109,#1110,#1111,#1112,#1113,#1114,#1115,#1116,#1117,
#1118,#1119,#1120,#1121,#1122,#1123,#1124,#1125,#1126,#1127,#1128,#1129,
#1130,#1131,#1132,#1133,#1134,#1135,#1136,#1137));
#1139=STYLED_ITEM('',(#1140),#1147);
#1140=PRESENTATION_STYLE_ASSIGNMENT((#1141));
#1141=SURFACE_STYLE_USAGE(.BOTH.,#1142);
#1142=SURFACE_SIDE_STYLE('',(#1143));
#1143=SURFACE_STYLE_FILL_AREA(#1144);
#1144=FILL_AREA_STYLE('',(#1145));
#1145=FILL_AREA_STYLE_COLOUR('',#1146);
#1146=COLOUR_RGB('',0.615686274509804,0.811764705882353,0.929411764705882);
#1147=MANIFOLD_SOLID_BREP('Part 1',#1138);
#1148=SHAPE_DEFINITION_REPRESENTATION(#1926,#1149);
#1149=SHAPE_REPRESENTATION('Part 1',(#1150),#1921);
#1150=AXIS2_PLACEMENT_3D('',#1607,#1269,#1270);
#1151=AXIS2_PLACEMENT_3D('',#1608,#1271,#1272);
#1152=AXIS2_PLACEMENT_3D('',#1609,#1273,#1274);
#1153=AXIS2_PLACEMENT_3D('',#1611,#1275,#1276);
#1154=AXIS2_PLACEMENT_3D('',#1613,#1277,#1278);
#1155=AXIS2_PLACEMENT_3D('',#1614,#1279,#1280);
#1156=AXIS2_PLACEMENT_3D('',#1616,#1281,#1282);
#1157=AXIS2_PLACEMENT_3D('',#1618,#1283,#1284);
#1158=AXIS2_PLACEMENT_3D('',#1619,#1285,#1286);
#1159=AXIS2_PLACEMENT_3D('',#1621,#1287,#1288);
#1160=AXIS2_PLACEMENT_3D('',#1623,#1289,#1290);
#1161=AXIS2_PLACEMENT_3D('',#1624,#1291,#1292);
#1162=AXIS2_PLACEMENT_3D('',#1626,#1293,#1294);
#1163=AXIS2_PLACEMENT_3D('',#1628,#1295,#1296);
#1164=AXIS2_PLACEMENT_3D('',#1629,#1297,#1298);
#1165=AXIS2_PLACEMENT_3D('',#1634,#1300,#1301);
#1166=AXIS2_PLACEMENT_3D('',#1638,#1303,#1304);
#1167=AXIS2_PLACEMENT_3D('',#1642,#1306,#1307);
#1168=AXIS2_PLACEMENT_3D('',#1653,#1313,#1314);
#1169=AXIS2_PLACEMENT_3D('',#1662,#1319,#1320);
#1170=AXIS2_PLACEMENT_3D('',#1671,#1325,#1326);
#1171=AXIS2_PLACEMENT_3D('',#1680,#1331,#1332);
#1172=AXIS2_PLACEMENT_3D('',#1689,#1337,#1338);
#1173=AXIS2_PLACEMENT_3D('',#1710,#1351,#1352);
#1174=AXIS2_PLACEMENT_3D('',#1711,#1353,#1354);
#1175=AXIS2_PLACEMENT_3D('',#1716,#1356,#1357);
#1176=AXIS2_PLACEMENT_3D('',#1720,#1359,#1360);
#1177=AXIS2_PLACEMENT_3D('',#1724,#1362,#1363);
#1178=AXIS2_PLACEMENT_3D('',#1727,#1365,#1366);
#1179=AXIS2_PLACEMENT_3D('',#1729,#1367,#1368);
#1180=AXIS2_PLACEMENT_3D('',#1731,#1369,#1370);
#1181=AXIS2_PLACEMENT_3D('',#1740,#1375,#1376);
#1182=AXIS2_PLACEMENT_3D('',#1749,#1381,#1382);
#1183=AXIS2_PLACEMENT_3D('',#1758,#1387,#1388);
#1184=AXIS2_PLACEMENT_3D('',#1767,#1393,#1394);
#1185=AXIS2_PLACEMENT_3D('',#1768,#1395,#1396);
#1186=AXIS2_PLACEMENT_3D('',#1770,#1397,#1398);
#1187=AXIS2_PLACEMENT_3D('',#1772,#1399,#1400);
#1188=AXIS2_PLACEMENT_3D('',#1773,#1401,#1402);
#1189=AXIS2_PLACEMENT_3D('',#1775,#1403,#1404);
#1190=AXIS2_PLACEMENT_3D('',#1776,#1405,#1406);
#1191=AXIS2_PLACEMENT_3D('',#1778,#1407,#1408);
#1192=AXIS2_PLACEMENT_3D('',#1780,#1409,#1410);
#1193=AXIS2_PLACEMENT_3D('',#1781,#1411,#1412);
#1194=AXIS2_PLACEMENT_3D('',#1783,#1413,#1414);
#1195=AXIS2_PLACEMENT_3D('',#1784,#1415,#1416);
#1196=AXIS2_PLACEMENT_3D('',#1786,#1417,#1418);
#1197=AXIS2_PLACEMENT_3D('',#1804,#1427,#1428);
#1198=AXIS2_PLACEMENT_3D('',#1805,#1429,#1430);
#1199=AXIS2_PLACEMENT_3D('',#1807,#1431,#1432);
#1200=AXIS2_PLACEMENT_3D('',#1808,#1433,#1434);
#1201=AXIS2_PLACEMENT_3D('',#1810,#1435,#1436);
#1202=AXIS2_PLACEMENT_3D('',#1813,#1439,#1440);
#1203=AXIS2_PLACEMENT_3D('',#1816,#1443,#1444);
#1204=AXIS2_PLACEMENT_3D('',#1819,#1447,#1448);
#1205=AXIS2_PLACEMENT_3D('',#1822,#1451,#1452);
#1206=AXIS2_PLACEMENT_3D('',#1823,#1453,#1454);
#1207=AXIS2_PLACEMENT_3D('',#1825,#1455,#1456);
#1208=AXIS2_PLACEMENT_3D('',#1827,#1457,#1458);
#1209=AXIS2_PLACEMENT_3D('',#1828,#1459,#1460);
#1210=AXIS2_PLACEMENT_3D('',#1830,#1461,#1462);
#1211=AXIS2_PLACEMENT_3D('',#1831,#1463,#1464);
#1212=AXIS2_PLACEMENT_3D('',#1833,#1465,#1466);
#1213=AXIS2_PLACEMENT_3D('',#1835,#1467,#1468);
#1214=AXIS2_PLACEMENT_3D('',#1836,#1469,#1470);
#1215=AXIS2_PLACEMENT_3D('',#1838,#1471,#1472);
#1216=AXIS2_PLACEMENT_3D('',#1839,#1473,#1474);
#1217=AXIS2_PLACEMENT_3D('',#1840,#1475,#1476);
#1218=AXIS2_PLACEMENT_3D('',#1841,#1477,#1478);
#1219=AXIS2_PLACEMENT_3D('',#1842,#1479,#1480);
#1220=AXIS2_PLACEMENT_3D('',#1843,#1481,#1482);
#1221=AXIS2_PLACEMENT_3D('',#1844,#1483,#1484);
#1222=AXIS2_PLACEMENT_3D('',#1845,#1485,#1486);
#1223=AXIS2_PLACEMENT_3D('',#1846,#1487,#1488);
#1224=AXIS2_PLACEMENT_3D('',#1847,#1489,#1490);
#1225=AXIS2_PLACEMENT_3D('',#1848,#1491,#1492);
#1226=AXIS2_PLACEMENT_3D('',#1849,#1493,#1494);
#1227=AXIS2_PLACEMENT_3D('',#1850,#1495,#1496);
#1228=AXIS2_PLACEMENT_3D('',#1851,#1497,#1498);
#1229=AXIS2_PLACEMENT_3D('',#1852,#1499,#1500);
#1230=AXIS2_PLACEMENT_3D('',#1853,#1501,#1502);
#1231=AXIS2_PLACEMENT_3D('',#1854,#1503,#1504);
#1232=AXIS2_PLACEMENT_3D('',#1855,#1505,#1506);
#1233=AXIS2_PLACEMENT_3D('',#1856,#1507,#1508);
#1234=AXIS2_PLACEMENT_3D('',#1859,#1511,#1512);
#1235=AXIS2_PLACEMENT_3D('',#1861,#1514,#1515);
#1236=AXIS2_PLACEMENT_3D('',#1863,#1517,#1518);
#1237=AXIS2_PLACEMENT_3D('',#1865,#1520,#1521);
#1238=AXIS2_PLACEMENT_3D('',#1867,#1523,#1524);
#1239=AXIS2_PLACEMENT_3D('',#1869,#1526,#1527);
#1240=AXIS2_PLACEMENT_3D('',#1871,#1529,#1530);
#1241=AXIS2_PLACEMENT_3D('',#1872,#1531,#1532);
#1242=AXIS2_PLACEMENT_3D('',#1873,#1533,#1534);
#1243=AXIS2_PLACEMENT_3D('',#1874,#1535,#1536);
#1244=AXIS2_PLACEMENT_3D('',#1875,#1537,#1538);
#1245=AXIS2_PLACEMENT_3D('',#1876,#1539,#1540);
#1246=AXIS2_PLACEMENT_3D('',#1877,#1541,#1542);
#1247=AXIS2_PLACEMENT_3D('',#1878,#1543,#1544);
#1248=AXIS2_PLACEMENT_3D('',#1879,#1545,#1546);
#1249=AXIS2_PLACEMENT_3D('',#1880,#1547,#1548);
#1250=AXIS2_PLACEMENT_3D('',#1882,#1550,#1551);
#1251=AXIS2_PLACEMENT_3D('',#1885,#1554,#1555);
#1252=AXIS2_PLACEMENT_3D('',#1887,#1557,#1558);
#1253=AXIS2_PLACEMENT_3D('',#1889,#1560,#1561);
#1254=AXIS2_PLACEMENT_3D('',#1891,#1563,#1564);
#1255=AXIS2_PLACEMENT_3D('',#1893,#1566,#1567);
#1256=AXIS2_PLACEMENT_3D('',#1895,#1569,#1570);
#1257=AXIS2_PLACEMENT_3D('',#1897,#1572,#1573);
#1258=AXIS2_PLACEMENT_3D('',#1899,#1575,#1576);
#1259=AXIS2_PLACEMENT_3D('',#1901,#1578,#1579);
#1260=AXIS2_PLACEMENT_3D('',#1903,#1581,#1582);
#1261=AXIS2_PLACEMENT_3D('',#1904,#1583,#1584);
#1262=AXIS2_PLACEMENT_3D('',#1907,#1587,#1588);
#1263=AXIS2_PLACEMENT_3D('',#1909,#1590,#1591);
#1264=AXIS2_PLACEMENT_3D('',#1911,#1593,#1594);
#1265=AXIS2_PLACEMENT_3D('',#1913,#1596,#1597);
#1266=AXIS2_PLACEMENT_3D('',#1915,#1599,#1600);
#1267=AXIS2_PLACEMENT_3D('',#1917,#1602,#1603);
#1268=AXIS2_PLACEMENT_3D('',#1919,#1605,#1606);
#1269=DIRECTION('',(0.,0.,1.));
#1270=DIRECTION('',(1.,0.,0.));
#1271=DIRECTION('',(0.,1.,0.));
#1272=DIRECTION('',(1.,0.,0.));
#1273=DIRECTION('',(0.,1.,0.));
#1274=DIRECTION('',(1.,0.,0.));
#1275=DIRECTION('',(0.,1.,0.));
#1276=DIRECTION('',(1.,0.,0.));
#1277=DIRECTION('',(0.,1.,0.));
#1278=DIRECTION('',(1.,0.,0.));
#1279=DIRECTION('',(0.,1.,0.));
#1280=DIRECTION('',(1.,0.,0.));
#1281=DIRECTION('',(0.,1.,0.));
#1282=DIRECTION('',(1.,0.,0.));
#1283=DIRECTION('',(0.,-1.,0.));
#1284=DIRECTION('',(-1.,0.,0.));
#1285=DIRECTION('',(0.,1.,0.));
#1286=DIRECTION('',(1.,0.,0.));
#1287=DIRECTION('',(0.,1.,0.));
#1288=DIRECTION('',(1.,0.,0.));
#1289=DIRECTION('',(0.,-1.,0.));
#1290=DIRECTION('',(-1.,0.,0.));
#1291=DIRECTION('',(0.,1.,0.));
#1292=DIRECTION('',(1.,0.,0.));
#1293=DIRECTION('',(0.,1.,0.));
#1294=DIRECTION('',(1.,0.,0.));
#1295=DIRECTION('',(0.,1.,0.));
#1296=DIRECTION('',(1.,0.,0.));
#1297=DIRECTION('',(0.,1.,0.));
#1298=DIRECTION('',(1.,0.,0.));
#1299=DIRECTION('',(1.07247200987747E-16,0.,1.));
#1300=DIRECTION('',(0.,1.,0.));
#1301=DIRECTION('',(1.,0.,0.));
#1302=DIRECTION('',(-1.,0.,0.));
#1303=DIRECTION('',(0.,1.,0.));
#1304=DIRECTION('',(1.,0.,0.));
#1305=DIRECTION('',(-1.07247200987747E-16,0.,-1.));
#1306=DIRECTION('',(0.,1.,0.));
#1307=DIRECTION('',(1.,0.,0.));
#1308=DIRECTION('',(1.,0.,0.));
#1309=DIRECTION('',(1.40085341263268E-16,0.,1.));
#1310=DIRECTION('',(1.,0.,-2.45624562970168E-16));
#1311=DIRECTION('',(0.,0.,-1.));
#1312=DIRECTION('',(-1.,0.,1.22812281485084E-16));
#1313=DIRECTION('',(-1.,0.,0.));
#1314=DIRECTION('',(0.,1.,0.));
#1315=DIRECTION('',(0.,0.,1.));
#1316=DIRECTION('',(0.,-1.,0.));
#1317=DIRECTION('',(0.,0.,-1.));
#1318=DIRECTION('',(0.,1.,0.));
#1319=DIRECTION('',(1.22812281485084E-16,0.,1.));
#1320=DIRECTION('',(1.,0.,-1.22812281485084E-16));
#1321=DIRECTION('',(-1.,0.,1.22812281485084E-16));
#1322=DIRECTION('',(0.,1.,0.));
#1323=DIRECTION('',(1.,0.,-1.22812281485084E-16));
#1324=DIRECTION('',(0.,-1.,0.));
#1325=DIRECTION('',(1.,0.,-1.40085341263268E-16));
#1326=DIRECTION('',(-1.40085341263268E-16,0.,-1.));
#1327=DIRECTION('',(1.40085341263268E-16,0.,1.));
#1328=DIRECTION('',(0.,1.,0.));
#1329=DIRECTION('',(-1.40085341263268E-16,0.,-1.));
#1330=DIRECTION('',(0.,-1.,0.));
#1331=DIRECTION('',(-2.45624562970168E-16,0.,-1.));
#1332=DIRECTION('',(-1.,0.,2.45624562970168E-16));
#1333=DIRECTION('',(1.,0.,-2.45624562970168E-16));
#1334=DIRECTION('',(0.,1.,0.));
#1335=DIRECTION('',(-1.,0.,2.45624562970168E-16));
#1336=DIRECTION('',(0.,-1.,0.));
#1337=DIRECTION('',(0.,1.,0.));
#1338=DIRECTION('',(1.,0.,0.));
#1339=DIRECTION('',(1.40085341263268E-16,0.,1.));
#1340=DIRECTION('',(-0.707106781186548,0.,-0.707106781186548));
#1341=DIRECTION('',(1.,0.,-2.45624562970168E-16));
#1342=DIRECTION('',(-0.707106781186548,0.,0.707106781186548));
#1343=DIRECTION('',(0.,0.,-1.));
#1344=DIRECTION('',(0.707106781186548,0.,0.707106781186548));
#1345=DIRECTION('',(-1.,0.,1.22812281485084E-16));
#1346=DIRECTION('',(0.707106781186548,0.,-0.707106781186548));
#1347=DIRECTION('',(0.707106781186548,0.,-0.707106781186548));
#1348=DIRECTION('',(0.707106781186548,0.,0.707106781186547));
#1349=DIRECTION('',(-0.707106781186546,0.,0.707106781186549));
#1350=DIRECTION('',(-0.707106781186548,0.,-0.707106781186548));
#1351=DIRECTION('',(0.,1.,0.));
#1352=DIRECTION('',(1.,0.,0.));
#1353=DIRECTION('',(0.,1.,0.));
#1354=DIRECTION('',(1.,0.,0.));
#1355=DIRECTION('',(-1.07247200987747E-16,0.,-1.));
#1356=DIRECTION('',(0.,1.,0.));
#1357=DIRECTION('',(1.,0.,0.));
#1358=DIRECTION('',(-1.,0.,0.));
#1359=DIRECTION('',(0.,1.,0.));
#1360=DIRECTION('',(1.,0.,0.));
#1361=DIRECTION('',(1.07247200987747E-16,0.,1.));
#1362=DIRECTION('',(0.,1.,0.));
#1363=DIRECTION('',(1.,0.,0.));
#1364=DIRECTION('',(1.,0.,0.));
#1365=DIRECTION('',(0.,1.,0.));
#1366=DIRECTION('',(1.,0.,0.));
#1367=DIRECTION('',(0.,1.,0.));
#1368=DIRECTION('',(1.,0.,0.));
#1369=DIRECTION('',(0.,0.,1.));
#1370=DIRECTION('',(0.,-1.,0.));
#1371=DIRECTION('',(0.,1.,0.));
#1372=DIRECTION('',(-1.,0.,0.));
#1373=DIRECTION('',(0.,1.,0.));
#1374=DIRECTION('',(1.,0.,0.));
#1375=DIRECTION('',(-1.,0.,1.07247200987747E-16));
#1376=DIRECTION('',(1.07247200987747E-16,0.,1.));
#1377=DIRECTION('',(0.,1.,0.));
#1378=DIRECTION('',(1.07247200987747E-16,0.,1.));
#1379=DIRECTION('',(0.,1.,0.));
#1380=DIRECTION('',(-1.07247200987747E-16,0.,-1.));
#1381=DIRECTION('',(0.,0.,1.));
#1382=DIRECTION('',(0.,-1.,0.));
#1383=DIRECTION('',(0.,1.,0.));
#1384=DIRECTION('',(1.,0.,0.));
#1385=DIRECTION('',(0.,1.,0.));
#1386=DIRECTION('',(-1.,0.,0.));
#1387=DIRECTION('',(-1.,0.,1.07247200987747E-16));
#1388=DIRECTION('',(1.07247200987747E-16,0.,1.));
#1389=DIRECTION('',(0.,1.,0.));
#1390=DIRECTION('',(-1.07247200987747E-16,0.,-1.));
#1391=DIRECTION('',(0.,1.,0.));
#1392=DIRECTION('',(1.07247200987747E-16,0.,1.));
#1393=DIRECTION('',(0.,1.,0.));
#1394=DIRECTION('',(1.,0.,0.));
#1395=DIRECTION('',(0.,1.,0.));
#1396=DIRECTION('',(1.,0.,0.));
#1397=DIRECTION('',(0.,1.,0.));
#1398=DIRECTION('',(1.,0.,0.));
#1399=DIRECTION('',(0.,1.,0.));
#1400=DIRECTION('',(1.,0.,0.));
#1401=DIRECTION('',(0.,1.,0.));
#1402=DIRECTION('',(1.,0.,0.));
#1403=DIRECTION('',(0.,1.,0.));
#1404=DIRECTION('',(1.,0.,0.));
#1405=DIRECTION('',(0.,1.,0.));
#1406=DIRECTION('',(1.,0.,0.));
#1407=DIRECTION('',(0.,1.,0.));
#1408=DIRECTION('',(1.,0.,0.));
#1409=DIRECTION('',(0.,1.,0.));
#1410=DIRECTION('',(1.,0.,0.));
#1411=DIRECTION('',(0.,1.,0.));
#1412=DIRECTION('',(1.,0.,0.));
#1413=DIRECTION('',(0.,1.,0.));
#1414=DIRECTION('',(1.,0.,0.));
#1415=DIRECTION('',(0.,1.,0.));
#1416=DIRECTION('',(1.,0.,0.));
#1417=DIRECTION('',(0.,1.,0.));
#1418=DIRECTION('',(1.,0.,0.));
#1419=DIRECTION('',(0.,0.,-1.));
#1420=DIRECTION('',(0.707106781186548,0.,-0.707106781186548));
#1421=DIRECTION('',(1.,0.,-2.45624562970168E-16));
#1422=DIRECTION('',(0.707106781186548,0.,0.707106781186548));
#1423=DIRECTION('',(1.40085341263268E-16,0.,1.));
#1424=DIRECTION('',(-0.707106781186548,0.,0.707106781186548));
#1425=DIRECTION('',(-1.,0.,1.22812281485084E-16));
#1426=DIRECTION('',(-0.707106781186548,0.,-0.707106781186548));
#1427=DIRECTION('',(0.,-1.,0.));
#1428=DIRECTION('',(-1.,0.,0.));
#1429=DIRECTION('',(0.,1.,0.));
#1430=DIRECTION('',(1.,0.,0.));
#1431=DIRECTION('',(0.,-1.,0.));
#1432=DIRECTION('',(-1.,0.,0.));
#1433=DIRECTION('',(0.,1.,0.));
#1434=DIRECTION('',(1.,0.,0.));
#1435=DIRECTION('',(-1.,0.,0.));
#1436=DIRECTION('',(0.,1.,0.));
#1437=DIRECTION('',(0.,1.,0.));
#1438=DIRECTION('',(0.,-1.,0.));
#1439=DIRECTION('',(1.22812281485084E-16,0.,1.));
#1440=DIRECTION('',(1.,0.,-1.22812281485084E-16));
#1441=DIRECTION('',(0.,-1.,0.));
#1442=DIRECTION('',(0.,1.,0.));
#1443=DIRECTION('',(1.,0.,-1.40085341263268E-16));
#1444=DIRECTION('',(-1.40085341263268E-16,0.,-1.));
#1445=DIRECTION('',(0.,-1.,0.));
#1446=DIRECTION('',(0.,1.,0.));
#1447=DIRECTION('',(-2.45624562970168E-16,0.,-1.));
#1448=DIRECTION('',(-1.,0.,2.45624562970168E-16));
#1449=DIRECTION('',(0.,-1.,0.));
#1450=DIRECTION('',(0.,1.,0.));
#1451=DIRECTION('',(0.,1.,0.));
#1452=DIRECTION('',(1.,0.,0.));
#1453=DIRECTION('',(0.,1.,0.));
#1454=DIRECTION('',(1.,0.,0.));
#1455=DIRECTION('',(0.,1.,0.));
#1456=DIRECTION('',(1.,0.,0.));
#1457=DIRECTION('',(0.,1.,0.));
#1458=DIRECTION('',(1.,0.,0.));
#1459=DIRECTION('',(0.,1.,0.));
#1460=DIRECTION('',(1.,0.,0.));
#1461=DIRECTION('',(0.,1.,0.));
#1462=DIRECTION('',(1.,0.,0.));
#1463=DIRECTION('',(0.,1.,0.));
#1464=DIRECTION('',(1.,0.,0.));
#1465=DIRECTION('',(0.,1.,0.));
#1466=DIRECTION('',(1.,0.,0.));
#1467=DIRECTION('',(0.,1.,0.));
#1468=DIRECTION('',(1.,0.,0.));
#1469=DIRECTION('',(0.,1.,0.));
#1470=DIRECTION('',(1.,0.,0.));
#1471=DIRECTION('',(0.,1.,0.));
#1472=DIRECTION('',(1.,0.,0.));
#1473=DIRECTION('',(0.,1.,0.));
#1474=DIRECTION('',(1.,0.,0.));
#1475=DIRECTION('',(0.,1.,0.));
#1476=DIRECTION('',(1.,0.,0.));
#1477=DIRECTION('',(0.,1.,0.));
#1478=DIRECTION('',(1.,0.,0.));
#1479=DIRECTION('',(0.,-1.,0.));
#1480=DIRECTION('',(-1.,0.,0.));
#1481=DIRECTION('',(0.,-1.,0.));
#1482=DIRECTION('',(-1.,0.,0.));
#1483=DIRECTION('',(0.,1.,0.));
#1484=DIRECTION('',(1.,0.,0.));
#1485=DIRECTION('',(0.,1.,0.));
#1486=DIRECTION('',(1.,0.,0.));
#1487=DIRECTION('',(0.,1.,0.));
#1488=DIRECTION('',(1.,0.,0.));
#1489=DIRECTION('',(0.,-1.,0.));
#1490=DIRECTION('',(-1.,0.,0.));
#1491=DIRECTION('',(0.,1.,0.));
#1492=DIRECTION('',(1.,0.,0.));
#1493=DIRECTION('',(0.,1.,0.));
#1494=DIRECTION('',(1.,0.,0.));
#1495=DIRECTION('',(0.,-1.,0.));
#1496=DIRECTION('',(-1.,0.,0.));
#1497=DIRECTION('',(0.,1.,0.));
#1498=DIRECTION('',(1.,0.,0.));
#1499=DIRECTION('',(0.,1.,0.));
#1500=DIRECTION('',(1.,0.,0.));
#1501=DIRECTION('',(0.,1.,0.));
#1502=DIRECTION('',(1.,0.,0.));
#1503=DIRECTION('',(0.,1.,0.));
#1504=DIRECTION('',(1.,0.,0.));
#1505=DIRECTION('',(0.,1.,0.));
#1506=DIRECTION('',(1.,0.,0.));
#1507=DIRECTION('',(-0.707106781186547,-0.707106781186548,7.58352230817124E-17));
#1508=DIRECTION('',(1.07247200987747E-16,0.,1.));
#1509=DIRECTION('',(-0.707106781186548,0.707106781186547,0.));
#1510=DIRECTION('',(0.707106781186548,-0.707106781186547,0.));
#1511=DIRECTION('',(0.,1.,0.));
#1512=DIRECTION('',(1.,0.,0.));
#1513=DIRECTION('',(0.,-0.707106781186547,0.707106781186548));
#1514=DIRECTION('',(0.,1.,0.));
#1515=DIRECTION('',(1.,0.,0.));
#1516=DIRECTION('',(0.,0.707106781186547,0.707106781186548));
#1517=DIRECTION('',(0.,0.707106781186548,0.707106781186547));
#1518=DIRECTION('',(-1.,0.,0.));
#1519=DIRECTION('',(0.,-0.707106781186547,0.707106781186548));
#1520=DIRECTION('',(0.,-0.707106781186548,0.707106781186547));
#1521=DIRECTION('',(1.,0.,0.));
#1522=DIRECTION('',(0.,0.707106781186547,0.707106781186548));
#1523=DIRECTION('',(0.,1.,0.));
#1524=DIRECTION('',(1.,0.,0.));
#1525=DIRECTION('',(-0.707106781186548,-0.707106781186547,0.));
#1526=DIRECTION('',(0.,1.,0.));
#1527=DIRECTION('',(1.,0.,0.));
#1528=DIRECTION('',(0.707106781186548,0.707106781186547,0.));
#1529=DIRECTION('',(-0.707106781186547,0.707106781186548,7.58352230817124E-17));
#1530=DIRECTION('',(-1.07247200987747E-16,0.,-1.));
#1531=DIRECTION('',(0.,1.,0.));
#1532=DIRECTION('',(1.,0.,0.));
#1533=DIRECTION('',(0.,1.,0.));
#1534=DIRECTION('',(1.,0.,0.));
#1535=DIRECTION('',(0.,1.,0.));
#1536=DIRECTION('',(1.,0.,0.));
#1537=DIRECTION('',(0.,1.,0.));
#1538=DIRECTION('',(1.,0.,0.));
#1539=DIRECTION('',(-0.707106781186548,0.,-0.707106781186548));
#1540=DIRECTION('',(0.,1.,0.));
#1541=DIRECTION('',(0.707106781186548,0.,-0.707106781186548));
#1542=DIRECTION('',(0.,1.,0.));
#1543=DIRECTION('',(0.707106781186548,0.,0.707106781186548));
#1544=DIRECTION('',(0.,1.,0.));
#1545=DIRECTION('',(-0.707106781186548,0.,0.707106781186548));
#1546=DIRECTION('',(0.,1.,0.));
#1547=DIRECTION('',(0.707106781186549,0.,0.707106781186546));
#1548=DIRECTION('',(0.,-1.,0.));
#1549=DIRECTION('',(0.707106781186546,1.18551870878786E-15,-0.707106781186549));
#1550=DIRECTION('',(-8.68413970510938E-17,0.707106781186548,-0.707106781186548));
#1551=DIRECTION('',(1.,0.,-1.22812281485084E-16));
#1552=DIRECTION('',(1.18153318744577E-15,0.707106781186548,0.707106781186548));
#1553=DIRECTION('',(-3.84592537276712E-15,-0.707106781186548,-0.707106781186548));
#1554=DIRECTION('',(-0.707106781186548,0.,0.707106781186548));
#1555=DIRECTION('',(0.,-1.,0.));
#1556=DIRECTION('',(0.707106781186548,1.18551870878786E-15,0.707106781186548));
#1557=DIRECTION('',(-0.577350269189627,0.577350269189627,-0.577350269189623));
#1558=DIRECTION('',(0.707106781186547,0.707106781186548,0.));
#1559=DIRECTION('',(0.707106781186548,0.707106781186548,-1.05762947751096E-15));
#1560=DIRECTION('',(0.577350269189625,0.577350269189625,-0.577350269189626));
#1561=DIRECTION('',(0.,0.707106781186548,0.707106781186547));
#1562=DIRECTION('',(0.707106781186548,-0.707106781186548,0.));
#1563=DIRECTION('',(0.707106781186547,0.,-0.707106781186548));
#1564=DIRECTION('',(0.,-1.,0.));
#1565=DIRECTION('',(-0.707106781186548,2.77555756156289E-17,-0.707106781186547));
#1566=DIRECTION('',(-0.707106781186548,0.707106781186548,9.90552947520888E-17));
#1567=DIRECTION('',(-1.40085341263268E-16,0.,-1.));
#1568=DIRECTION('',(-0.707106781186548,-0.707106781186548,0.));
#1569=DIRECTION('',(0.707106781186548,0.707106781186548,0.));
#1570=DIRECTION('',(0.,0.,1.));
#1571=DIRECTION('',(-0.707106781186548,0.707106781186548,0.));
#1572=DIRECTION('',(-0.707106781186548,0.,-0.707106781186548));
#1573=DIRECTION('',(0.,-1.,0.));
#1574=DIRECTION('',(-0.707106781186548,0.,0.707106781186548));
#1575=DIRECTION('',(-0.577350269189625,0.577350269189625,0.577350269189626));
#1576=DIRECTION('',(0.,-0.707106781186548,0.707106781186547));
#1577=DIRECTION('',(-1.18153318744577E-15,0.707106781186548,-0.707106781186548));
#1578=DIRECTION('',(0.577350269189626,0.577350269189626,0.577350269189626));
#1579=DIRECTION('',(0.707106781186548,-0.707106781186548,0.));
#1580=DIRECTION('',(0.,-0.707106781186548,0.707106781186548));
#1581=DIRECTION('',(1.73682794102188E-16,0.707106781186548,0.707106781186548));
#1582=DIRECTION('',(-1.,0.,2.45624562970168E-16));
#1583=DIRECTION('',(0.707106781186548,0.707106781186548,-7.58352230817125E-17));
#1584=DIRECTION('',(-1.07247200987747E-16,0.,-1.));
#1585=DIRECTION('',(-0.707106781186548,0.707106781186548,0.));
#1586=DIRECTION('',(0.707106781186548,-0.707106781186548,0.));
#1587=DIRECTION('',(0.,1.,0.));
#1588=DIRECTION('',(1.,0.,0.));
#1589=DIRECTION('',(0.,-0.707106781186548,0.707106781186548));
#1590=DIRECTION('',(0.,1.,0.));
#1591=DIRECTION('',(1.,0.,0.));
#1592=DIRECTION('',(0.,0.707106781186548,0.707106781186548));
#1593=DIRECTION('',(0.,-0.707106781186548,-0.707106781186548));
#1594=DIRECTION('',(1.,0.,0.));
#1595=DIRECTION('',(0.,-0.707106781186548,0.707106781186548));
#1596=DIRECTION('',(0.,0.707106781186548,-0.707106781186548));
#1597=DIRECTION('',(-1.,0.,0.));
#1598=DIRECTION('',(0.,0.707106781186548,0.707106781186548));
#1599=DIRECTION('',(0.,1.,0.));
#1600=DIRECTION('',(1.,0.,0.));
#1601=DIRECTION('',(-0.707106781186548,-0.707106781186548,0.));
#1602=DIRECTION('',(0.,1.,0.));
#1603=DIRECTION('',(1.,0.,0.));
#1604=DIRECTION('',(0.707106781186548,0.707106781186548,0.));
#1605=DIRECTION('',(0.707106781186548,-0.707106781186548,-7.58352230817125E-17));
#1606=DIRECTION('',(1.07247200987747E-16,0.,1.));
#1607=CARTESIAN_POINT('',(0.,0.,0.));
#1608=CARTESIAN_POINT('',(3.46944695195361E-18,0.,6.93889390390723E-18));
#1609=CARTESIAN_POINT('',(0.,0.,-0.02205));
#1610=CARTESIAN_POINT('',(0.00405,0.,-0.02205));
#1611=CARTESIAN_POINT('',(0.,0.,-0.02205));
#1612=CARTESIAN_POINT('',(0.00605,0.,-0.02205));
#1613=CARTESIAN_POINT('',(3.46944695195361E-18,0.,6.93889390390723E-18));
#1614=CARTESIAN_POINT('',(0.,0.,0.02205));
#1615=CARTESIAN_POINT('',(0.00405,0.,0.02205));
#1616=CARTESIAN_POINT('',(0.,0.,0.02205));
#1617=CARTESIAN_POINT('',(0.00605,0.,0.02205));
#1618=CARTESIAN_POINT('',(0.,0.03,-0.02205));
#1619=CARTESIAN_POINT('',(0.,0.02,-0.02205));
#1620=CARTESIAN_POINT('',(0.00305,0.02,-0.02205));
#1621=CARTESIAN_POINT('',(0.,0.001,-0.02205));
#1622=CARTESIAN_POINT('',(0.00305,0.001,-0.02205));
#1623=CARTESIAN_POINT('',(0.,0.03,0.02205));
#1624=CARTESIAN_POINT('',(0.,0.02,0.02205));
#1625=CARTESIAN_POINT('',(0.00305,0.02,0.02205));
#1626=CARTESIAN_POINT('',(0.,0.001,0.02205));
#1627=CARTESIAN_POINT('',(0.00305,0.001,0.02205));
#1628=CARTESIAN_POINT('',(3.46944695195361E-18,0.03,6.93889390390723E-18));
#1629=CARTESIAN_POINT('',(0.01845,0.03,-0.02735));
#1630=CARTESIAN_POINT('',(0.01845,0.03,-0.03285));
#1631=CARTESIAN_POINT('',(0.02395,0.03,-0.02735));
#1632=CARTESIAN_POINT('',(0.02395,0.03,4.37032344025069E-18));
#1633=CARTESIAN_POINT('',(0.02395,0.03,0.02735));
#1634=CARTESIAN_POINT('',(0.01845,0.03,0.02735));
#1635=CARTESIAN_POINT('',(0.01845,0.03,0.03285));
#1636=CARTESIAN_POINT('',(-0.01845,0.03,0.03285));
#1637=CARTESIAN_POINT('',(-0.01845,0.03,0.03285));
#1638=CARTESIAN_POINT('',(-0.01845,0.03,0.02735));
#1639=CARTESIAN_POINT('',(-0.02395,0.03,0.02735));
#1640=CARTESIAN_POINT('',(-0.02395,0.03,-0.02735));
#1641=CARTESIAN_POINT('',(-0.02395,0.03,-0.02735));
#1642=CARTESIAN_POINT('',(-0.01845,0.03,-0.02735));
#1643=CARTESIAN_POINT('',(-0.01845,0.03,-0.03285));
#1644=CARTESIAN_POINT('',(3.46944695195361E-18,0.03,-0.03285));
#1645=CARTESIAN_POINT('',(-0.02625,0.03,0.03715));
#1646=CARTESIAN_POINT('',(-0.02625,0.03,-0.03515));
#1647=CARTESIAN_POINT('',(-0.02625,0.03,0.03515));
#1648=CARTESIAN_POINT('',(0.02825,0.03,0.03515));
#1649=CARTESIAN_POINT('',(0.02625,0.03,0.03515));
#1650=CARTESIAN_POINT('',(0.02625,0.03,-0.03715));
#1651=CARTESIAN_POINT('',(0.02625,0.03,-0.03515));
#1652=CARTESIAN_POINT('',(-0.02825,0.03,-0.03515));
#1653=CARTESIAN_POINT('',(0.02825,0.03,0.018575));
#1654=CARTESIAN_POINT('',(0.02825,0.028,0.03715));
#1655=CARTESIAN_POINT('',(0.02825,0.028,-0.03515));
#1656=CARTESIAN_POINT('',(0.02825,0.028,0.03515));
#1657=CARTESIAN_POINT('',(0.02825,0.03,0.03515));
#1658=CARTESIAN_POINT('',(0.02825,0.,0.03515));
#1659=CARTESIAN_POINT('',(0.02825,0.,0.018575));
#1660=CARTESIAN_POINT('',(0.02825,0.,-0.03515));
#1661=CARTESIAN_POINT('',(0.02825,0.03,-0.03515));
#1662=CARTESIAN_POINT('',(6.93889390390723E-18,0.03,-0.03715));
#1663=CARTESIAN_POINT('',(6.93889390390723E-18,0.,-0.03715));
#1664=CARTESIAN_POINT('',(0.02625,0.,-0.03715));
#1665=CARTESIAN_POINT('',(-0.02625,0.,-0.03715));
#1666=CARTESIAN_POINT('',(-0.02625,0.03,-0.03715));
#1667=CARTESIAN_POINT('',(-0.02625,0.028,-0.03715));
#1668=CARTESIAN_POINT('',(0.02825,0.028,-0.03715));
#1669=CARTESIAN_POINT('',(0.02625,0.028,-0.03715));
#1670=CARTESIAN_POINT('',(0.02625,0.03,-0.03715));
#1671=CARTESIAN_POINT('',(-0.02825,0.03,0.));
#1672=CARTESIAN_POINT('',(-0.02825,0.,0.));
#1673=CARTESIAN_POINT('',(-0.02825,0.,-0.03515));
#1674=CARTESIAN_POINT('',(-0.02825,0.,0.03515));
#1675=CARTESIAN_POINT('',(-0.02825,0.03,0.03515));
#1676=CARTESIAN_POINT('',(-0.02825,0.028,0.03515));
#1677=CARTESIAN_POINT('',(-0.02825,0.028,-0.03715));
#1678=CARTESIAN_POINT('',(-0.02825,0.028,-0.03515));
#1679=CARTESIAN_POINT('',(-0.02825,0.03,-0.03515));
#1680=CARTESIAN_POINT('',(1.04083408558608E-17,0.03,0.03715));
#1681=CARTESIAN_POINT('',(1.04083408558608E-17,0.,0.03715));
#1682=CARTESIAN_POINT('',(-0.02625,0.,0.03715));
#1683=CARTESIAN_POINT('',(0.02625,0.,0.03715));
#1684=CARTESIAN_POINT('',(0.02625,0.03,0.03715));
#1685=CARTESIAN_POINT('',(0.02625,0.028,0.03715));
#1686=CARTESIAN_POINT('',(-0.02825,0.028,0.03715));
#1687=CARTESIAN_POINT('',(-0.02625,0.028,0.03715));
#1688=CARTESIAN_POINT('',(-0.02625,0.03,0.03715));
#1689=CARTESIAN_POINT('',(3.46944695195361E-18,0.,6.93889390390723E-18));
#1690=CARTESIAN_POINT('',(-0.02525,0.,-4.20256023789805E-19));
#1691=CARTESIAN_POINT('',(-0.02525,0.,-0.03215));
#1692=CARTESIAN_POINT('',(-0.02525,0.,0.03215));
#1693=CARTESIAN_POINT('',(-0.0287,0.,0.0287));
#1694=CARTESIAN_POINT('',(-0.02325,0.,0.03415));
#1695=CARTESIAN_POINT('',(9.67146716695034E-18,0.,0.03415));
#1696=CARTESIAN_POINT('',(0.02325,0.,0.03415));
#1697=CARTESIAN_POINT('',(0.0287,0.,0.0287));
#1698=CARTESIAN_POINT('',(0.02525,0.,0.03215));
#1699=CARTESIAN_POINT('',(0.02525,0.,0.018575));
#1700=CARTESIAN_POINT('',(0.02525,0.,-0.03215));
#1701=CARTESIAN_POINT('',(0.0287,0.,-0.0287));
#1702=CARTESIAN_POINT('',(0.02325,0.,-0.03415));
#1703=CARTESIAN_POINT('',(7.30733074836248E-18,0.,-0.03415));
#1704=CARTESIAN_POINT('',(-0.02325,0.,-0.03415));
#1705=CARTESIAN_POINT('',(-0.0287,0.,-0.0287));
#1706=CARTESIAN_POINT('',(0.02825,0.,0.03515));
#1707=CARTESIAN_POINT('',(-0.02625,0.,0.03715));
#1708=CARTESIAN_POINT('',(-0.02825,0.,-0.03515));
#1709=CARTESIAN_POINT('',(0.02625,0.,-0.03715));
#1710=CARTESIAN_POINT('',(3.46944695195361E-18,0.027,6.93889390390723E-18));
#1711=CARTESIAN_POINT('',(0.01845,0.027,0.02735));
#1712=CARTESIAN_POINT('',(0.01845,0.027,0.03035));
#1713=CARTESIAN_POINT('',(0.02145,0.027,0.02735));
#1714=CARTESIAN_POINT('',(0.02145,0.027,-0.02735));
#1715=CARTESIAN_POINT('',(0.02145,0.027,-0.02735));
#1716=CARTESIAN_POINT('',(0.01845,0.027,-0.02735));
#1717=CARTESIAN_POINT('',(0.01845,0.027,-0.03035));
#1718=CARTESIAN_POINT('',(-0.01845,0.027,-0.03035));
#1719=CARTESIAN_POINT('',(-0.01845,0.027,-0.03035));
#1720=CARTESIAN_POINT('',(-0.01845,0.027,-0.02735));
#1721=CARTESIAN_POINT('',(-0.02145,0.027,-0.02735));
#1722=CARTESIAN_POINT('',(-0.02145,0.027,9.2393463650944E-18));
#1723=CARTESIAN_POINT('',(-0.02145,0.027,0.02735));
#1724=CARTESIAN_POINT('',(-0.01845,0.027,0.02735));
#1725=CARTESIAN_POINT('',(-0.01845,0.027,0.03035));
#1726=CARTESIAN_POINT('',(3.46944695195361E-18,0.027,0.03035));
#1727=CARTESIAN_POINT('',(0.,0.027,0.02205));
#1728=CARTESIAN_POINT('',(0.0065,0.027,0.02205));
#1729=CARTESIAN_POINT('',(0.,0.027,-0.02205));
#1730=CARTESIAN_POINT('',(0.0065,0.027,-0.02205));
#1731=CARTESIAN_POINT('',(3.46944695195361E-18,0.027,-0.03235));
#1732=CARTESIAN_POINT('',(0.01845,0.03,-0.03235));
#1733=CARTESIAN_POINT('',(0.01845,0.029,-0.03235));
#1734=CARTESIAN_POINT('',(0.01845,0.0295,-0.03235));
#1735=CARTESIAN_POINT('',(3.46944695195361E-18,0.0295,-0.03235));
#1736=CARTESIAN_POINT('',(-0.01845,0.0295,-0.03235));
#1737=CARTESIAN_POINT('',(-0.01845,0.027,-0.03235));
#1738=CARTESIAN_POINT('',(-0.01845,0.029,-0.03235));
#1739=CARTESIAN_POINT('',(0.01845,0.029,-0.03235));
#1740=CARTESIAN_POINT('',(-0.02345,0.027,0.));
#1741=CARTESIAN_POINT('',(-0.02345,0.027,-0.02735));
#1742=CARTESIAN_POINT('',(-0.02345,0.029,-0.02735));
#1743=CARTESIAN_POINT('',(-0.02345,0.0295,-0.02735));
#1744=CARTESIAN_POINT('',(-0.02345,0.0295,0.02735));
#1745=CARTESIAN_POINT('',(-0.02345,0.0295,0.02735));
#1746=CARTESIAN_POINT('',(-0.02345,0.027,0.02735));
#1747=CARTESIAN_POINT('',(-0.02345,0.029,0.02735));
#1748=CARTESIAN_POINT('',(-0.02345,0.029,0.));
#1749=CARTESIAN_POINT('',(1.04083408558608E-17,0.027,0.03235));
#1750=CARTESIAN_POINT('',(-0.01845,0.03,0.03235));
#1751=CARTESIAN_POINT('',(-0.01845,0.029,0.03235));
#1752=CARTESIAN_POINT('',(-0.01845,0.0295,0.03235));
#1753=CARTESIAN_POINT('',(0.01845,0.0295,0.03235));
#1754=CARTESIAN_POINT('',(0.01845,0.0295,0.03235));
#1755=CARTESIAN_POINT('',(0.01845,0.027,0.03235));
#1756=CARTESIAN_POINT('',(0.01845,0.029,0.03235));
#1757=CARTESIAN_POINT('',(1.04083408558608E-17,0.029,0.03235));
#1758=CARTESIAN_POINT('',(0.02345,0.027,0.));
#1759=CARTESIAN_POINT('',(0.02345,0.027,0.02735));
#1760=CARTESIAN_POINT('',(0.02345,0.029,0.02735));
#1761=CARTESIAN_POINT('',(0.02345,0.0295,0.02735));
#1762=CARTESIAN_POINT('',(0.02345,0.0295,0.));
#1763=CARTESIAN_POINT('',(0.02345,0.0295,-0.02735));
#1764=CARTESIAN_POINT('',(0.02345,0.027,-0.02735));
#1765=CARTESIAN_POINT('',(0.02345,0.029,-0.02735));
#1766=CARTESIAN_POINT('',(0.02345,0.029,0.02735));
#1767=CARTESIAN_POINT('',(6.93889390390723E-18,0.021,0.));
#1768=CARTESIAN_POINT('',(0.,0.021,0.02205));
#1769=CARTESIAN_POINT('',(0.00405,0.021,0.02205));
#1770=CARTESIAN_POINT('',(0.,0.021,0.02205));
#1771=CARTESIAN_POINT('',(0.0055,0.021,0.02205));
#1772=CARTESIAN_POINT('',(0.,0.021,0.02205));
#1773=CARTESIAN_POINT('',(0.,0.026,0.02205));
#1774=CARTESIAN_POINT('',(0.0055,0.026,0.02205));
#1775=CARTESIAN_POINT('',(0.,0.021,-0.02205));
#1776=CARTESIAN_POINT('',(0.,0.026,-0.02205));
#1777=CARTESIAN_POINT('',(0.0055,0.026,-0.02205));
#1778=CARTESIAN_POINT('',(0.,0.021,-0.02205));
#1779=CARTESIAN_POINT('',(0.0055,0.021,-0.02205));
#1780=CARTESIAN_POINT('',(6.93889390390723E-18,0.021,0.));
#1781=CARTESIAN_POINT('',(0.,0.021,-0.02205));
#1782=CARTESIAN_POINT('',(0.00405,0.021,-0.02205));
#1783=CARTESIAN_POINT('',(3.46944695195361E-18,0.024,6.93889390390723E-18));
#1784=CARTESIAN_POINT('',(0.,0.024,0.02205));
#1785=CARTESIAN_POINT('',(0.0105,0.024,0.02205));
#1786=CARTESIAN_POINT('',(0.,0.024,-0.02205));
#1787=CARTESIAN_POINT('',(0.0105,0.024,-0.02205));
#1788=CARTESIAN_POINT('',(0.02525,0.024,0.018575));
#1789=CARTESIAN_POINT('',(0.02525,0.024,0.03215));
#1790=CARTESIAN_POINT('',(0.02525,0.024,-0.03215));
#1791=CARTESIAN_POINT('',(0.02325,0.024,0.03415));
#1792=CARTESIAN_POINT('',(0.02325,0.024,0.03415));
#1793=CARTESIAN_POINT('',(9.67146716695034E-18,0.024,0.03415));
#1794=CARTESIAN_POINT('',(-0.02325,0.024,0.03415));
#1795=CARTESIAN_POINT('',(-0.02525,0.024,0.03215));
#1796=CARTESIAN_POINT('',(-0.02525,0.024,0.03215));
#1797=CARTESIAN_POINT('',(-0.02525,0.024,-4.20256023789805E-19));
#1798=CARTESIAN_POINT('',(-0.02525,0.024,-0.03215));
#1799=CARTESIAN_POINT('',(-0.02325,0.024,-0.03415));
#1800=CARTESIAN_POINT('',(-0.02325,0.024,-0.03415));
#1801=CARTESIAN_POINT('',(7.30733074836248E-18,0.024,-0.03415));
#1802=CARTESIAN_POINT('',(0.02325,0.024,-0.03415));
#1803=CARTESIAN_POINT('',(0.02525,0.024,-0.03215));
#1804=CARTESIAN_POINT('',(0.,0.03,-0.02205));
#1805=CARTESIAN_POINT('',(0.,0.016,-0.02205));
#1806=CARTESIAN_POINT('',(0.00605,0.016,-0.02205));
#1807=CARTESIAN_POINT('',(0.,0.03,0.02205));
#1808=CARTESIAN_POINT('',(0.,0.016,0.02205));
#1809=CARTESIAN_POINT('',(0.00605,0.016,0.02205));
#1810=CARTESIAN_POINT('',(0.02525,0.03,0.018575));
#1811=CARTESIAN_POINT('',(0.02525,0.024,0.03215));
#1812=CARTESIAN_POINT('',(0.02525,0.,-0.03215));
#1813=CARTESIAN_POINT('',(7.30733074836248E-18,0.03,-0.03415));
#1814=CARTESIAN_POINT('',(-0.02325,0.,-0.03415));
#1815=CARTESIAN_POINT('',(0.02325,0.024,-0.03415));
#1816=CARTESIAN_POINT('',(-0.02525,0.03,-4.20256023789805E-19));
#1817=CARTESIAN_POINT('',(-0.02525,0.,0.03215));
#1818=CARTESIAN_POINT('',(-0.02525,0.024,-0.03215));
#1819=CARTESIAN_POINT('',(9.67146716695034E-18,0.03,0.03415));
#1820=CARTESIAN_POINT('',(0.02325,0.,0.03415));
#1821=CARTESIAN_POINT('',(-0.02325,0.024,0.03415));
#1822=CARTESIAN_POINT('',(6.93889390390723E-18,0.018,0.));
#1823=CARTESIAN_POINT('',(0.,0.018,0.02205));
#1824=CARTESIAN_POINT('',(0.00805,0.018,0.02205));
#1825=CARTESIAN_POINT('',(0.,0.018,0.02205));
#1826=CARTESIAN_POINT('',(0.0085,0.018,0.02205));
#1827=CARTESIAN_POINT('',(0.,0.021,0.02205));
#1828=CARTESIAN_POINT('',(0.,0.022,0.02205));
#1829=CARTESIAN_POINT('',(0.0085,0.022,0.02205));
#1830=CARTESIAN_POINT('',(0.,0.021,-0.02205));
#1831=CARTESIAN_POINT('',(0.,0.022,-0.02205));
#1832=CARTESIAN_POINT('',(0.0085,0.022,-0.02205));
#1833=CARTESIAN_POINT('',(0.,0.018,-0.02205));
#1834=CARTESIAN_POINT('',(0.0085,0.018,-0.02205));
#1835=CARTESIAN_POINT('',(6.93889390390723E-18,0.018,0.));
#1836=CARTESIAN_POINT('',(0.,0.018,-0.02205));
#1837=CARTESIAN_POINT('',(0.00805,0.018,-0.02205));
#1838=CARTESIAN_POINT('',(0.,0.021,0.02205));
#1839=CARTESIAN_POINT('',(0.,0.02,-0.02205));
#1840=CARTESIAN_POINT('',(0.,0.026,0.02205));
#1841=CARTESIAN_POINT('',(0.,0.026,-0.02205));
#1842=CARTESIAN_POINT('',(0.,0.001,0.02205));
#1843=CARTESIAN_POINT('',(0.,0.,-0.02205));
#1844=CARTESIAN_POINT('',(0.01845,0.027,0.02735));
#1845=CARTESIAN_POINT('',(0.01845,0.0295,0.02735));
#1846=CARTESIAN_POINT('',(0.01845,0.029,0.02735));
#1847=CARTESIAN_POINT('',(-0.01845,0.027,0.02735));
#1848=CARTESIAN_POINT('',(-0.01845,0.0295,0.02735));
#1849=CARTESIAN_POINT('',(-0.01845,0.029,0.02735));
#1850=CARTESIAN_POINT('',(0.01845,0.027,-0.02735));
#1851=CARTESIAN_POINT('',(0.01845,0.0295,-0.02735));
#1852=CARTESIAN_POINT('',(0.01845,0.029,-0.02735));
#1853=CARTESIAN_POINT('',(-0.01845,0.027,-0.02735));
#1854=CARTESIAN_POINT('',(-0.01845,0.0295,-0.02735));
#1855=CARTESIAN_POINT('',(-0.01845,0.029,-0.02735));
#1856=CARTESIAN_POINT('',(-0.02145,0.027,9.2393463650944E-18));
#1857=CARTESIAN_POINT('',(-0.02145,0.027,0.02735));
#1858=CARTESIAN_POINT('',(-0.02345,0.029,-0.02735));
#1859=CARTESIAN_POINT('',(-0.01845,0.027,-0.02735));
#1860=CARTESIAN_POINT('',(-0.01845,0.029,-0.03235));
#1861=CARTESIAN_POINT('',(-0.01845,0.027,0.02735));
#1862=CARTESIAN_POINT('',(-0.01845,0.027,0.03035));
#1863=CARTESIAN_POINT('',(3.46944695195361E-18,0.029,-0.03235));
#1864=CARTESIAN_POINT('',(0.01845,0.029,-0.03235));
#1865=CARTESIAN_POINT('',(3.46944695195361E-18,0.027,0.03035));
#1866=CARTESIAN_POINT('',(0.01845,0.027,0.03035));
#1867=CARTESIAN_POINT('',(0.01845,0.027,-0.02735));
#1868=CARTESIAN_POINT('',(0.02345,0.029,-0.02735));
#1869=CARTESIAN_POINT('',(0.01845,0.027,0.02735));
#1870=CARTESIAN_POINT('',(0.02145,0.027,0.02735));
#1871=CARTESIAN_POINT('',(0.02345,0.029,0.));
#1872=CARTESIAN_POINT('',(0.,0.016,0.02205));
#1873=CARTESIAN_POINT('',(0.,0.018,-0.02205));
#1874=CARTESIAN_POINT('',(0.,0.024,0.02205));
#1875=CARTESIAN_POINT('',(0.,0.024,-0.02205));
#1876=CARTESIAN_POINT('',(0.02325,0.03,0.03415));
#1877=CARTESIAN_POINT('',(-0.02525,0.03,0.03215));
#1878=CARTESIAN_POINT('',(-0.02325,0.03,-0.03415));
#1879=CARTESIAN_POINT('',(0.02525,0.03,-0.03215));
#1880=CARTESIAN_POINT('',(-0.02825,0.03,-0.03515));
#1881=CARTESIAN_POINT('',(-0.02825,0.028,-0.03515));
#1882=CARTESIAN_POINT('',(-8.47404742247079E-19,0.03,-0.03515));
#1883=CARTESIAN_POINT('',(0.02625,0.028,-0.03715));
#1884=CARTESIAN_POINT('',(-0.02625,0.029,-0.03615));
#1885=CARTESIAN_POINT('',(0.02625,0.03,-0.03715));
#1886=CARTESIAN_POINT('',(0.02625,0.028,-0.03715));
#1887=CARTESIAN_POINT('',(-0.02825,0.028,-0.03515));
#1888=CARTESIAN_POINT('',(-0.02825,0.028,-0.03515));
#1889=CARTESIAN_POINT('',(0.02625,0.028,-0.03715));
#1890=CARTESIAN_POINT('',(0.02725,0.029,-0.03515));
#1891=CARTESIAN_POINT('',(-0.02625,0.03,0.03715));
#1892=CARTESIAN_POINT('',(-0.02625,0.028,0.03715));
#1893=CARTESIAN_POINT('',(-0.02625,0.03,1.0616134112068E-17));
#1894=CARTESIAN_POINT('',(-0.02725,0.029,0.03515));
#1895=CARTESIAN_POINT('',(0.02625,0.03,6.93889390390723E-18));
#1896=CARTESIAN_POINT('',(0.02625,0.03,0.03515));
#1897=CARTESIAN_POINT('',(0.02825,0.03,0.03515));
#1898=CARTESIAN_POINT('',(0.02725,0.028,0.03615));
#1899=CARTESIAN_POINT('',(-0.02625,0.028,0.03715));
#1900=CARTESIAN_POINT('',(-0.02625,0.028,0.03715));
#1901=CARTESIAN_POINT('',(0.02625,0.03,0.03515));
#1902=CARTESIAN_POINT('',(0.02625,0.03,0.03515));
#1903=CARTESIAN_POINT('',(1.2103150340355E-17,0.03,0.03515));
#1904=CARTESIAN_POINT('',(-0.02345,0.0295,0.));
#1905=CARTESIAN_POINT('',(-0.02345,0.0295,0.02735));
#1906=CARTESIAN_POINT('',(-0.02395,0.03,-0.02735));
#1907=CARTESIAN_POINT('',(-0.01845,0.03,-0.02735));
#1908=CARTESIAN_POINT('',(-0.01845,0.03,-0.03285));
#1909=CARTESIAN_POINT('',(-0.01845,0.03,0.02735));
#1910=CARTESIAN_POINT('',(-0.01845,0.0295,0.03235));
#1911=CARTESIAN_POINT('',(3.46944695195361E-18,0.03,-0.03285));
#1912=CARTESIAN_POINT('',(0.01845,0.03,-0.03285));
#1913=CARTESIAN_POINT('',(1.04083408558608E-17,0.0295,0.03235));
#1914=CARTESIAN_POINT('',(0.01845,0.0295,0.03235));
#1915=CARTESIAN_POINT('',(0.01845,0.03,-0.02735));
#1916=CARTESIAN_POINT('',(0.02395,0.03,-0.02735));
#1917=CARTESIAN_POINT('',(0.01845,0.03,0.02735));
#1918=CARTESIAN_POINT('',(0.02345,0.0295,0.02735));
#1919=CARTESIAN_POINT('',(0.02395,0.03,4.37032344025069E-18));
#1920=MECHANICAL_DESIGN_GEOMETRIC_PRESENTATION_REPRESENTATION('',(#1139),
#1921);
#1921=(
GEOMETRIC_REPRESENTATION_CONTEXT(3)
GLOBAL_UNCERTAINTY_ASSIGNED_CONTEXT((#1922))
GLOBAL_UNIT_ASSIGNED_CONTEXT((#1925,#1924,#1923))
REPRESENTATION_CONTEXT('Part 1','TOP_LEVEL_ASSEMBLY_PART')
);
#1922=UNCERTAINTY_MEASURE_WITH_UNIT(LENGTH_MEASURE(1.E-8),#1925,
'DISTANCE_ACCURACY_VALUE','Maximum Tolerance applied to model');
#1923=(
NAMED_UNIT(*)
SI_UNIT($,.STERADIAN.)
SOLID_ANGLE_UNIT()
);
#1924=(
NAMED_UNIT(*)
PLANE_ANGLE_UNIT()
SI_UNIT($,.RADIAN.)
);
#1925=(
LENGTH_UNIT()
NAMED_UNIT(*)
SI_UNIT($,.METRE.)
);
#1926=PRODUCT_DEFINITION_SHAPE('','',#1927);
#1927=PRODUCT_DEFINITION('','',#1929,#1928);
#1928=PRODUCT_DEFINITION_CONTEXT('',#1935,'design');
#1929=PRODUCT_DEFINITION_FORMATION_WITH_SPECIFIED_SOURCE('','',#1931,
 .NOT_KNOWN.);
#1930=PRODUCT_RELATED_PRODUCT_CATEGORY('','',(#1931));
#1931=PRODUCT('Part 1','Part 1','Part 1',(#1933));
#1932=PRODUCT_CATEGORY('','');
#1933=PRODUCT_CONTEXT('',#1935,'mechanical');
#1934=APPLICATION_PROTOCOL_DEFINITION('international standard',
'ap242_managed_model_based_3d_engineering',2020,#1935);
#1935=APPLICATION_CONTEXT('managed model based 3d engineering');
ENDSEC;
END-ISO-10303-21;
