ISO-10303-21;
HEADER;
/* Generated by software containing ST-Developer
 * from STEP Tools, Inc. (www.steptools.com) 
 */
/* OPTION: using custom renumber hook */

FILE_DESCRIPTION(
/* description */ ('STEP AP242 Edition 2',
'CAx-IF Rec.Pracs.---Representation and Presentation of Product Manufa
cturing Information (PMI)---4.0---2014-10-13',
'CAx-IF Rec.Pracs.---3D Tessellated Geometry---0.4---2014-09-14','2;1',
'CAx-IF Rec.Pracs.---User Defined Attributes---1.5---2016-08-15'),
/* implementation_level */ '2;1');

FILE_NAME(
/* name */ 'Hamilton Heater Cooler Plate Holder_REV. 0',
/* time_stamp */ '2026-09-02T16:04:34Z',
/* author */ (''),
/* organization */ (''),
/* preprocessor_version */ 'ST-DEVELOPER v20',
/* originating_system */ 'ONSHAPE BY PTC INC, 1.220',
/* authorisation */ '  ');

FILE_SCHEMA (('AP242_MANAGED_MODEL_BASED_3D_ENGINEERING_MIM_LF { 1 0 10303 442 3 1 4 }'));
ENDSEC;

DATA;
#10=SHAPE_REPRESENTATION_RELATIONSHIP('','',#1289,#11);
#11=ADVANCED_BREP_SHAPE_REPRESENTATION('',(#1287),#2195);
#12=B_SPLINE_CURVE_WITH_KNOTS('',3,(#2153,#2154,#2155,#2156,#2157,#2158,
#2159),.UNSPECIFIED.,.F.,.F.,(4,1,1,1,4),(0.,0.00292661802762325,0.00585323605524651,
0.00877985408286976,0.011706472110493),.UNSPECIFIED.);
#13=B_SPLINE_CURVE_WITH_KNOTS('',3,(#2161,#2162,#2163,#2164,#2165,#2166,
#2167),.UNSPECIFIED.,.F.,.F.,(4,1,1,1,4),(0.,0.00292661802762326,0.00585323605524651,
0.00877985408286977,0.011706472110493),.UNSPECIFIED.);
#14=B_SPLINE_CURVE_WITH_KNOTS('',3,(#2169,#2170,#2171,#2172,#2173,#2174,
#2175),.UNSPECIFIED.,.F.,.F.,(4,1,1,1,4),(0.,0.00292661802762326,0.00585323605524653,
0.00877985408286979,0.0117064721104931),.UNSPECIFIED.);
#15=B_SPLINE_CURVE_WITH_KNOTS('',3,(#2177,#2178,#2179,#2180,#2181,#2182,
#2183),.UNSPECIFIED.,.F.,.F.,(4,1,1,1,4),(0.,0.00292661802762327,0.00585323605524654,
0.0087798540828698,0.0117064721104931),.UNSPECIFIED.);
#16=CYLINDRICAL_SURFACE('',#1340,0.01);
#17=CYLINDRICAL_SURFACE('',#1341,0.01);
#18=CYLINDRICAL_SURFACE('',#1342,0.005);
#19=CYLINDRICAL_SURFACE('',#1343,0.005);
#20=CYLINDRICAL_SURFACE('',#1344,0.005);
#21=CYLINDRICAL_SURFACE('',#1345,0.005);
#22=CYLINDRICAL_SURFACE('',#1346,0.005);
#23=CYLINDRICAL_SURFACE('',#1347,0.005);
#24=CYLINDRICAL_SURFACE('',#1350,0.003);
#25=CYLINDRICAL_SURFACE('',#1351,0.003);
#26=CYLINDRICAL_SURFACE('',#1367,0.01);
#27=CYLINDRICAL_SURFACE('',#1369,0.01);
#28=CYLINDRICAL_SURFACE('',#1371,0.01);
#29=CYLINDRICAL_SURFACE('',#1372,0.01);
#30=CYLINDRICAL_SURFACE('',#1374,0.01);
#31=CYLINDRICAL_SURFACE('',#1376,0.01);
#32=CYLINDRICAL_SURFACE('',#1403,0.01);
#33=CYLINDRICAL_SURFACE('',#1404,0.01);
#34=CYLINDRICAL_SURFACE('',#1405,0.01);
#35=CYLINDRICAL_SURFACE('',#1406,0.01);
#36=CYLINDRICAL_SURFACE('',#1407,0.005);
#37=CYLINDRICAL_SURFACE('',#1408,0.005);
#38=CYLINDRICAL_SURFACE('',#1409,0.005);
#39=CYLINDRICAL_SURFACE('',#1410,0.005);
#40=CYLINDRICAL_SURFACE('',#1411,0.005);
#41=CYLINDRICAL_SURFACE('',#1412,0.005);
#42=CYLINDRICAL_SURFACE('',#1413,0.005);
#43=CYLINDRICAL_SURFACE('',#1414,0.005);
#44=CYLINDRICAL_SURFACE('',#1415,0.005);
#45=CYLINDRICAL_SURFACE('',#1416,0.005);
#46=ELLIPSE('',#1316,0.011238260000416,0.01);
#47=ELLIPSE('',#1317,0.0219146070008111,0.01);
#48=ELLIPSE('',#1322,0.0219146070008111,0.01);
#49=ELLIPSE('',#1323,0.011238260000416,0.01);
#50=ELLIPSE('',#1326,0.011238260000416,0.01);
#51=ELLIPSE('',#1327,0.0219146070008111,0.01);
#52=ELLIPSE('',#1338,0.0219146070008111,0.01);
#53=ELLIPSE('',#1339,0.011238260000416,0.01);
#54=ELLIPSE('',#1368,0.0141421356237309,0.01);
#55=ELLIPSE('',#1370,0.0141421356237309,0.01);
#56=ELLIPSE('',#1373,0.0141421356237309,0.01);
#57=ELLIPSE('',#1375,0.0141421356237309,0.01);
#58=CIRCLE('',#1292,0.005);
#59=CIRCLE('',#1294,0.003);
#60=CIRCLE('',#1295,0.003);
#61=CIRCLE('',#1296,0.005);
#62=CIRCLE('',#1297,0.005);
#63=CIRCLE('',#1298,0.005);
#64=CIRCLE('',#1299,0.005);
#65=CIRCLE('',#1300,0.01);
#66=CIRCLE('',#1301,0.01);
#67=CIRCLE('',#1302,0.005);
#68=CIRCLE('',#1304,0.005);
#69=CIRCLE('',#1305,0.005);
#70=CIRCLE('',#1306,0.01);
#71=CIRCLE('',#1307,0.01);
#72=CIRCLE('',#1308,0.005);
#73=CIRCLE('',#1309,0.005);
#74=CIRCLE('',#1310,0.005);
#75=CIRCLE('',#1311,0.005);
#76=CIRCLE('',#1312,0.003);
#77=CIRCLE('',#1313,0.003);
#78=CIRCLE('',#1332,0.01);
#79=CIRCLE('',#1333,0.01);
#80=CIRCLE('',#1334,0.01);
#81=CIRCLE('',#1335,0.01);
#82=CIRCLE('',#1353,0.01);
#83=CIRCLE('',#1354,0.01);
#84=CIRCLE('',#1355,0.01);
#85=CIRCLE('',#1356,0.01);
#86=CIRCLE('',#1359,0.01);
#87=CIRCLE('',#1360,0.01);
#88=CIRCLE('',#1364,0.01);
#89=CIRCLE('',#1365,0.01);
#90=CIRCLE('',#1381,0.005);
#91=CIRCLE('',#1382,0.005);
#92=CIRCLE('',#1383,0.005);
#93=CIRCLE('',#1384,0.005);
#94=CIRCLE('',#1386,0.005);
#95=CIRCLE('',#1387,0.005);
#96=CIRCLE('',#1388,0.005);
#97=CIRCLE('',#1389,0.005);
#98=CIRCLE('',#1394,0.005);
#99=CIRCLE('',#1395,0.005);
#100=CIRCLE('',#1396,0.005);
#101=CIRCLE('',#1397,0.005);
#102=CIRCLE('',#1399,0.005);
#103=CIRCLE('',#1400,0.005);
#104=CIRCLE('',#1401,0.005);
#105=CIRCLE('',#1402,0.005);
#106=ORIENTED_EDGE('',*,*,#478,.F.);
#107=ORIENTED_EDGE('',*,*,#479,.T.);
#108=ORIENTED_EDGE('',*,*,#480,.F.);
#109=ORIENTED_EDGE('',*,*,#481,.T.);
#110=ORIENTED_EDGE('',*,*,#482,.T.);
#111=ORIENTED_EDGE('',*,*,#483,.T.);
#112=ORIENTED_EDGE('',*,*,#484,.T.);
#113=ORIENTED_EDGE('',*,*,#485,.F.);
#114=ORIENTED_EDGE('',*,*,#486,.F.);
#115=ORIENTED_EDGE('',*,*,#487,.T.);
#116=ORIENTED_EDGE('',*,*,#488,.T.);
#117=ORIENTED_EDGE('',*,*,#489,.T.);
#118=ORIENTED_EDGE('',*,*,#490,.T.);
#119=ORIENTED_EDGE('',*,*,#491,.T.);
#120=ORIENTED_EDGE('',*,*,#492,.F.);
#121=ORIENTED_EDGE('',*,*,#493,.T.);
#122=ORIENTED_EDGE('',*,*,#494,.T.);
#123=ORIENTED_EDGE('',*,*,#495,.T.);
#124=ORIENTED_EDGE('',*,*,#496,.F.);
#125=ORIENTED_EDGE('',*,*,#497,.T.);
#126=ORIENTED_EDGE('',*,*,#498,.F.);
#127=ORIENTED_EDGE('',*,*,#499,.T.);
#128=ORIENTED_EDGE('',*,*,#500,.T.);
#129=ORIENTED_EDGE('',*,*,#501,.T.);
#130=ORIENTED_EDGE('',*,*,#502,.F.);
#131=ORIENTED_EDGE('',*,*,#503,.T.);
#132=ORIENTED_EDGE('',*,*,#504,.T.);
#133=ORIENTED_EDGE('',*,*,#505,.T.);
#134=ORIENTED_EDGE('',*,*,#506,.T.);
#135=ORIENTED_EDGE('',*,*,#507,.T.);
#136=ORIENTED_EDGE('',*,*,#508,.F.);
#137=ORIENTED_EDGE('',*,*,#509,.T.);
#138=ORIENTED_EDGE('',*,*,#510,.T.);
#139=ORIENTED_EDGE('',*,*,#511,.T.);
#140=ORIENTED_EDGE('',*,*,#512,.F.);
#141=ORIENTED_EDGE('',*,*,#513,.T.);
#142=ORIENTED_EDGE('',*,*,#514,.T.);
#143=ORIENTED_EDGE('',*,*,#515,.T.);
#144=ORIENTED_EDGE('',*,*,#516,.F.);
#145=ORIENTED_EDGE('',*,*,#517,.T.);
#146=ORIENTED_EDGE('',*,*,#518,.F.);
#147=ORIENTED_EDGE('',*,*,#519,.T.);
#148=ORIENTED_EDGE('',*,*,#520,.T.);
#149=ORIENTED_EDGE('',*,*,#521,.T.);
#150=ORIENTED_EDGE('',*,*,#522,.F.);
#151=ORIENTED_EDGE('',*,*,#523,.T.);
#152=ORIENTED_EDGE('',*,*,#524,.T.);
#153=ORIENTED_EDGE('',*,*,#525,.T.);
#154=ORIENTED_EDGE('',*,*,#526,.F.);
#155=ORIENTED_EDGE('',*,*,#527,.T.);
#156=ORIENTED_EDGE('',*,*,#528,.T.);
#157=ORIENTED_EDGE('',*,*,#529,.T.);
#158=ORIENTED_EDGE('',*,*,#530,.T.);
#159=ORIENTED_EDGE('',*,*,#531,.T.);
#160=ORIENTED_EDGE('',*,*,#532,.F.);
#161=ORIENTED_EDGE('',*,*,#533,.T.);
#162=ORIENTED_EDGE('',*,*,#523,.F.);
#163=ORIENTED_EDGE('',*,*,#534,.F.);
#164=ORIENTED_EDGE('',*,*,#535,.T.);
#165=ORIENTED_EDGE('',*,*,#536,.T.);
#166=ORIENTED_EDGE('',*,*,#522,.T.);
#167=ORIENTED_EDGE('',*,*,#537,.T.);
#168=ORIENTED_EDGE('',*,*,#500,.F.);
#169=ORIENTED_EDGE('',*,*,#538,.T.);
#170=ORIENTED_EDGE('',*,*,#539,.T.);
#171=ORIENTED_EDGE('',*,*,#534,.T.);
#172=ORIENTED_EDGE('',*,*,#502,.T.);
#173=ORIENTED_EDGE('',*,*,#540,.T.);
#174=ORIENTED_EDGE('',*,*,#520,.F.);
#175=ORIENTED_EDGE('',*,*,#541,.T.);
#176=ORIENTED_EDGE('',*,*,#504,.F.);
#177=ORIENTED_EDGE('',*,*,#542,.T.);
#178=ORIENTED_EDGE('',*,*,#518,.T.);
#179=ORIENTED_EDGE('',*,*,#543,.T.);
#180=ORIENTED_EDGE('',*,*,#516,.T.);
#181=ORIENTED_EDGE('',*,*,#544,.T.);
#182=ORIENTED_EDGE('',*,*,#506,.F.);
#183=ORIENTED_EDGE('',*,*,#545,.T.);
#184=ORIENTED_EDGE('',*,*,#546,.T.);
#185=ORIENTED_EDGE('',*,*,#547,.T.);
#186=ORIENTED_EDGE('',*,*,#486,.T.);
#187=ORIENTED_EDGE('',*,*,#548,.T.);
#188=ORIENTED_EDGE('',*,*,#514,.F.);
#189=ORIENTED_EDGE('',*,*,#549,.F.);
#190=ORIENTED_EDGE('',*,*,#513,.F.);
#191=ORIENTED_EDGE('',*,*,#550,.F.);
#192=ORIENTED_EDGE('',*,*,#551,.T.);
#193=ORIENTED_EDGE('',*,*,#549,.T.);
#194=ORIENTED_EDGE('',*,*,#512,.T.);
#195=ORIENTED_EDGE('',*,*,#552,.T.);
#196=ORIENTED_EDGE('',*,*,#490,.F.);
#197=ORIENTED_EDGE('',*,*,#553,.T.);
#198=ORIENTED_EDGE('',*,*,#554,.T.);
#199=ORIENTED_EDGE('',*,*,#550,.T.);
#200=ORIENTED_EDGE('',*,*,#510,.F.);
#201=ORIENTED_EDGE('',*,*,#555,.T.);
#202=ORIENTED_EDGE('',*,*,#492,.T.);
#203=ORIENTED_EDGE('',*,*,#556,.T.);
#204=ORIENTED_EDGE('',*,*,#494,.F.);
#205=ORIENTED_EDGE('',*,*,#557,.T.);
#206=ORIENTED_EDGE('',*,*,#508,.T.);
#207=ORIENTED_EDGE('',*,*,#558,.T.);
#208=ORIENTED_EDGE('',*,*,#496,.T.);
#209=ORIENTED_EDGE('',*,*,#559,.T.);
#210=ORIENTED_EDGE('',*,*,#530,.F.);
#211=ORIENTED_EDGE('',*,*,#560,.T.);
#212=ORIENTED_EDGE('',*,*,#561,.T.);
#213=ORIENTED_EDGE('',*,*,#562,.T.);
#214=ORIENTED_EDGE('',*,*,#563,.T.);
#215=ORIENTED_EDGE('',*,*,#564,.T.);
#216=ORIENTED_EDGE('',*,*,#565,.T.);
#217=ORIENTED_EDGE('',*,*,#498,.T.);
#218=ORIENTED_EDGE('',*,*,#566,.T.);
#219=ORIENTED_EDGE('',*,*,#528,.F.);
#220=ORIENTED_EDGE('',*,*,#567,.T.);
#221=ORIENTED_EDGE('',*,*,#480,.T.);
#222=ORIENTED_EDGE('',*,*,#568,.T.);
#223=ORIENTED_EDGE('',*,*,#569,.F.);
#224=ORIENTED_EDGE('',*,*,#482,.F.);
#225=ORIENTED_EDGE('',*,*,#570,.T.);
#226=ORIENTED_EDGE('',*,*,#526,.T.);
#227=ORIENTED_EDGE('',*,*,#571,.T.);
#228=ORIENTED_EDGE('',*,*,#572,.T.);
#229=ORIENTED_EDGE('',*,*,#573,.T.);
#230=ORIENTED_EDGE('',*,*,#478,.T.);
#231=ORIENTED_EDGE('',*,*,#574,.T.);
#232=ORIENTED_EDGE('',*,*,#524,.F.);
#233=ORIENTED_EDGE('',*,*,#536,.F.);
#234=ORIENTED_EDGE('',*,*,#503,.F.);
#235=ORIENTED_EDGE('',*,*,#541,.F.);
#236=ORIENTED_EDGE('',*,*,#519,.F.);
#237=ORIENTED_EDGE('',*,*,#542,.F.);
#238=ORIENTED_EDGE('',*,*,#505,.F.);
#239=ORIENTED_EDGE('',*,*,#543,.F.);
#240=ORIENTED_EDGE('',*,*,#517,.F.);
#241=ORIENTED_EDGE('',*,*,#545,.F.);
#242=ORIENTED_EDGE('',*,*,#491,.F.);
#243=ORIENTED_EDGE('',*,*,#552,.F.);
#244=ORIENTED_EDGE('',*,*,#511,.F.);
#245=ORIENTED_EDGE('',*,*,#556,.F.);
#246=ORIENTED_EDGE('',*,*,#507,.F.);
#247=ORIENTED_EDGE('',*,*,#544,.F.);
#248=ORIENTED_EDGE('',*,*,#515,.F.);
#249=ORIENTED_EDGE('',*,*,#548,.F.);
#250=ORIENTED_EDGE('',*,*,#483,.F.);
#251=ORIENTED_EDGE('',*,*,#571,.F.);
#252=ORIENTED_EDGE('',*,*,#525,.F.);
#253=ORIENTED_EDGE('',*,*,#574,.F.);
#254=ORIENTED_EDGE('',*,*,#501,.F.);
#255=ORIENTED_EDGE('',*,*,#537,.F.);
#256=ORIENTED_EDGE('',*,*,#521,.F.);
#257=ORIENTED_EDGE('',*,*,#540,.F.);
#258=ORIENTED_EDGE('',*,*,#495,.F.);
#259=ORIENTED_EDGE('',*,*,#558,.F.);
#260=ORIENTED_EDGE('',*,*,#531,.F.);
#261=ORIENTED_EDGE('',*,*,#559,.F.);
#262=ORIENTED_EDGE('',*,*,#497,.F.);
#263=ORIENTED_EDGE('',*,*,#560,.F.);
#264=ORIENTED_EDGE('',*,*,#529,.F.);
#265=ORIENTED_EDGE('',*,*,#566,.F.);
#266=ORIENTED_EDGE('',*,*,#493,.F.);
#267=ORIENTED_EDGE('',*,*,#555,.F.);
#268=ORIENTED_EDGE('',*,*,#509,.F.);
#269=ORIENTED_EDGE('',*,*,#557,.F.);
#270=ORIENTED_EDGE('',*,*,#481,.F.);
#271=ORIENTED_EDGE('',*,*,#567,.F.);
#272=ORIENTED_EDGE('',*,*,#527,.F.);
#273=ORIENTED_EDGE('',*,*,#570,.F.);
#274=ORIENTED_EDGE('',*,*,#484,.F.);
#275=ORIENTED_EDGE('',*,*,#532,.T.);
#276=ORIENTED_EDGE('',*,*,#485,.T.);
#277=ORIENTED_EDGE('',*,*,#533,.F.);
#278=ORIENTED_EDGE('',*,*,#575,.T.);
#279=ORIENTED_EDGE('',*,*,#576,.T.);
#280=ORIENTED_EDGE('',*,*,#577,.T.);
#281=ORIENTED_EDGE('',*,*,#578,.T.);
#282=ORIENTED_EDGE('',*,*,#579,.T.);
#283=ORIENTED_EDGE('',*,*,#488,.F.);
#284=ORIENTED_EDGE('',*,*,#580,.T.);
#285=ORIENTED_EDGE('',*,*,#581,.F.);
#286=ORIENTED_EDGE('',*,*,#582,.F.);
#287=ORIENTED_EDGE('',*,*,#583,.T.);
#288=ORIENTED_EDGE('',*,*,#581,.T.);
#289=ORIENTED_EDGE('',*,*,#584,.T.);
#290=ORIENTED_EDGE('',*,*,#585,.T.);
#291=ORIENTED_EDGE('',*,*,#586,.T.);
#292=ORIENTED_EDGE('',*,*,#587,.F.);
#293=ORIENTED_EDGE('',*,*,#588,.T.);
#294=ORIENTED_EDGE('',*,*,#582,.T.);
#295=ORIENTED_EDGE('',*,*,#589,.T.);
#296=ORIENTED_EDGE('',*,*,#590,.F.);
#297=ORIENTED_EDGE('',*,*,#591,.T.);
#298=ORIENTED_EDGE('',*,*,#592,.F.);
#299=ORIENTED_EDGE('',*,*,#593,.T.);
#300=ORIENTED_EDGE('',*,*,#578,.F.);
#301=ORIENTED_EDGE('',*,*,#594,.T.);
#302=ORIENTED_EDGE('',*,*,#590,.T.);
#303=ORIENTED_EDGE('',*,*,#595,.T.);
#304=ORIENTED_EDGE('',*,*,#596,.F.);
#305=ORIENTED_EDGE('',*,*,#597,.T.);
#306=ORIENTED_EDGE('',*,*,#569,.T.);
#307=ORIENTED_EDGE('',*,*,#598,.T.);
#308=ORIENTED_EDGE('',*,*,#599,.T.);
#309=ORIENTED_EDGE('',*,*,#600,.T.);
#310=ORIENTED_EDGE('',*,*,#601,.F.);
#311=ORIENTED_EDGE('',*,*,#602,.T.);
#312=ORIENTED_EDGE('',*,*,#596,.T.);
#313=ORIENTED_EDGE('',*,*,#603,.T.);
#314=ORIENTED_EDGE('',*,*,#604,.F.);
#315=ORIENTED_EDGE('',*,*,#605,.T.);
#316=ORIENTED_EDGE('',*,*,#606,.F.);
#317=ORIENTED_EDGE('',*,*,#607,.T.);
#318=ORIENTED_EDGE('',*,*,#564,.F.);
#319=ORIENTED_EDGE('',*,*,#608,.T.);
#320=ORIENTED_EDGE('',*,*,#604,.T.);
#321=ORIENTED_EDGE('',*,*,#609,.T.);
#322=ORIENTED_EDGE('',*,*,#565,.F.);
#323=ORIENTED_EDGE('',*,*,#609,.F.);
#324=ORIENTED_EDGE('',*,*,#610,.F.);
#325=ORIENTED_EDGE('',*,*,#538,.F.);
#326=ORIENTED_EDGE('',*,*,#499,.F.);
#327=ORIENTED_EDGE('',*,*,#479,.F.);
#328=ORIENTED_EDGE('',*,*,#573,.F.);
#329=ORIENTED_EDGE('',*,*,#611,.F.);
#330=ORIENTED_EDGE('',*,*,#598,.F.);
#331=ORIENTED_EDGE('',*,*,#568,.F.);
#332=ORIENTED_EDGE('',*,*,#610,.T.);
#333=ORIENTED_EDGE('',*,*,#603,.F.);
#334=ORIENTED_EDGE('',*,*,#611,.T.);
#335=ORIENTED_EDGE('',*,*,#572,.F.);
#336=ORIENTED_EDGE('',*,*,#535,.F.);
#337=ORIENTED_EDGE('',*,*,#539,.F.);
#338=ORIENTED_EDGE('',*,*,#579,.F.);
#339=ORIENTED_EDGE('',*,*,#595,.F.);
#340=ORIENTED_EDGE('',*,*,#612,.F.);
#341=ORIENTED_EDGE('',*,*,#553,.F.);
#342=ORIENTED_EDGE('',*,*,#489,.F.);
#343=ORIENTED_EDGE('',*,*,#487,.F.);
#344=ORIENTED_EDGE('',*,*,#547,.F.);
#345=ORIENTED_EDGE('',*,*,#613,.F.);
#346=ORIENTED_EDGE('',*,*,#584,.F.);
#347=ORIENTED_EDGE('',*,*,#580,.F.);
#348=ORIENTED_EDGE('',*,*,#612,.T.);
#349=ORIENTED_EDGE('',*,*,#589,.F.);
#350=ORIENTED_EDGE('',*,*,#613,.T.);
#351=ORIENTED_EDGE('',*,*,#546,.F.);
#352=ORIENTED_EDGE('',*,*,#551,.F.);
#353=ORIENTED_EDGE('',*,*,#554,.F.);
#354=ORIENTED_EDGE('',*,*,#614,.F.);
#355=ORIENTED_EDGE('',*,*,#615,.T.);
#356=ORIENTED_EDGE('',*,*,#616,.T.);
#357=ORIENTED_EDGE('',*,*,#617,.T.);
#358=ORIENTED_EDGE('',*,*,#618,.T.);
#359=ORIENTED_EDGE('',*,*,#619,.T.);
#360=ORIENTED_EDGE('',*,*,#620,.F.);
#361=ORIENTED_EDGE('',*,*,#621,.T.);
#362=ORIENTED_EDGE('',*,*,#622,.F.);
#363=ORIENTED_EDGE('',*,*,#623,.T.);
#364=ORIENTED_EDGE('',*,*,#624,.T.);
#365=ORIENTED_EDGE('',*,*,#625,.T.);
#366=ORIENTED_EDGE('',*,*,#624,.F.);
#367=ORIENTED_EDGE('',*,*,#626,.T.);
#368=ORIENTED_EDGE('',*,*,#599,.F.);
#369=ORIENTED_EDGE('',*,*,#627,.T.);
#370=ORIENTED_EDGE('',*,*,#614,.T.);
#371=ORIENTED_EDGE('',*,*,#628,.T.);
#372=ORIENTED_EDGE('',*,*,#620,.T.);
#373=ORIENTED_EDGE('',*,*,#629,.T.);
#374=ORIENTED_EDGE('',*,*,#630,.T.);
#375=ORIENTED_EDGE('',*,*,#631,.T.);
#376=ORIENTED_EDGE('',*,*,#632,.T.);
#377=ORIENTED_EDGE('',*,*,#601,.T.);
#378=ORIENTED_EDGE('',*,*,#633,.T.);
#379=ORIENTED_EDGE('',*,*,#622,.T.);
#380=ORIENTED_EDGE('',*,*,#634,.T.);
#381=ORIENTED_EDGE('',*,*,#618,.F.);
#382=ORIENTED_EDGE('',*,*,#635,.T.);
#383=ORIENTED_EDGE('',*,*,#616,.F.);
#384=ORIENTED_EDGE('',*,*,#636,.T.);
#385=ORIENTED_EDGE('',*,*,#606,.T.);
#386=ORIENTED_EDGE('',*,*,#637,.T.);
#387=ORIENTED_EDGE('',*,*,#638,.T.);
#388=ORIENTED_EDGE('',*,*,#639,.F.);
#389=ORIENTED_EDGE('',*,*,#640,.T.);
#390=ORIENTED_EDGE('',*,*,#641,.T.);
#391=ORIENTED_EDGE('',*,*,#642,.T.);
#392=ORIENTED_EDGE('',*,*,#643,.F.);
#393=ORIENTED_EDGE('',*,*,#644,.T.);
#394=ORIENTED_EDGE('',*,*,#645,.T.);
#395=ORIENTED_EDGE('',*,*,#646,.T.);
#396=ORIENTED_EDGE('',*,*,#647,.F.);
#397=ORIENTED_EDGE('',*,*,#648,.T.);
#398=ORIENTED_EDGE('',*,*,#647,.T.);
#399=ORIENTED_EDGE('',*,*,#649,.T.);
#400=ORIENTED_EDGE('',*,*,#637,.F.);
#401=ORIENTED_EDGE('',*,*,#650,.T.);
#402=ORIENTED_EDGE('',*,*,#585,.F.);
#403=ORIENTED_EDGE('',*,*,#651,.T.);
#404=ORIENTED_EDGE('',*,*,#643,.T.);
#405=ORIENTED_EDGE('',*,*,#652,.T.);
#406=ORIENTED_EDGE('',*,*,#653,.T.);
#407=ORIENTED_EDGE('',*,*,#654,.T.);
#408=ORIENTED_EDGE('',*,*,#655,.T.);
#409=ORIENTED_EDGE('',*,*,#587,.T.);
#410=ORIENTED_EDGE('',*,*,#656,.T.);
#411=ORIENTED_EDGE('',*,*,#639,.T.);
#412=ORIENTED_EDGE('',*,*,#657,.T.);
#413=ORIENTED_EDGE('',*,*,#645,.F.);
#414=ORIENTED_EDGE('',*,*,#658,.T.);
#415=ORIENTED_EDGE('',*,*,#641,.F.);
#416=ORIENTED_EDGE('',*,*,#659,.T.);
#417=ORIENTED_EDGE('',*,*,#592,.T.);
#418=ORIENTED_EDGE('',*,*,#602,.F.);
#419=ORIENTED_EDGE('',*,*,#632,.F.);
#420=ORIENTED_EDGE('',*,*,#660,.T.);
#421=ORIENTED_EDGE('',*,*,#561,.F.);
#422=ORIENTED_EDGE('',*,*,#597,.F.);
#423=ORIENTED_EDGE('',*,*,#605,.F.);
#424=ORIENTED_EDGE('',*,*,#608,.F.);
#425=ORIENTED_EDGE('',*,*,#563,.F.);
#426=ORIENTED_EDGE('',*,*,#661,.T.);
#427=ORIENTED_EDGE('',*,*,#630,.F.);
#428=ORIENTED_EDGE('',*,*,#588,.F.);
#429=ORIENTED_EDGE('',*,*,#655,.F.);
#430=ORIENTED_EDGE('',*,*,#662,.T.);
#431=ORIENTED_EDGE('',*,*,#575,.F.);
#432=ORIENTED_EDGE('',*,*,#583,.F.);
#433=ORIENTED_EDGE('',*,*,#591,.F.);
#434=ORIENTED_EDGE('',*,*,#594,.F.);
#435=ORIENTED_EDGE('',*,*,#577,.F.);
#436=ORIENTED_EDGE('',*,*,#663,.T.);
#437=ORIENTED_EDGE('',*,*,#653,.F.);
#438=ORIENTED_EDGE('',*,*,#660,.F.);
#439=ORIENTED_EDGE('',*,*,#631,.F.);
#440=ORIENTED_EDGE('',*,*,#661,.F.);
#441=ORIENTED_EDGE('',*,*,#562,.F.);
#442=ORIENTED_EDGE('',*,*,#662,.F.);
#443=ORIENTED_EDGE('',*,*,#654,.F.);
#444=ORIENTED_EDGE('',*,*,#663,.F.);
#445=ORIENTED_EDGE('',*,*,#576,.F.);
#446=ORIENTED_EDGE('',*,*,#626,.F.);
#447=ORIENTED_EDGE('',*,*,#623,.F.);
#448=ORIENTED_EDGE('',*,*,#633,.F.);
#449=ORIENTED_EDGE('',*,*,#600,.F.);
#450=ORIENTED_EDGE('',*,*,#627,.F.);
#451=ORIENTED_EDGE('',*,*,#607,.F.);
#452=ORIENTED_EDGE('',*,*,#636,.F.);
#453=ORIENTED_EDGE('',*,*,#615,.F.);
#454=ORIENTED_EDGE('',*,*,#629,.F.);
#455=ORIENTED_EDGE('',*,*,#619,.F.);
#456=ORIENTED_EDGE('',*,*,#634,.F.);
#457=ORIENTED_EDGE('',*,*,#625,.F.);
#458=ORIENTED_EDGE('',*,*,#628,.F.);
#459=ORIENTED_EDGE('',*,*,#617,.F.);
#460=ORIENTED_EDGE('',*,*,#635,.F.);
#461=ORIENTED_EDGE('',*,*,#621,.F.);
#462=ORIENTED_EDGE('',*,*,#649,.F.);
#463=ORIENTED_EDGE('',*,*,#646,.F.);
#464=ORIENTED_EDGE('',*,*,#657,.F.);
#465=ORIENTED_EDGE('',*,*,#638,.F.);
#466=ORIENTED_EDGE('',*,*,#650,.F.);
#467=ORIENTED_EDGE('',*,*,#640,.F.);
#468=ORIENTED_EDGE('',*,*,#656,.F.);
#469=ORIENTED_EDGE('',*,*,#586,.F.);
#470=ORIENTED_EDGE('',*,*,#652,.F.);
#471=ORIENTED_EDGE('',*,*,#642,.F.);
#472=ORIENTED_EDGE('',*,*,#658,.F.);
#473=ORIENTED_EDGE('',*,*,#648,.F.);
#474=ORIENTED_EDGE('',*,*,#651,.F.);
#475=ORIENTED_EDGE('',*,*,#593,.F.);
#476=ORIENTED_EDGE('',*,*,#659,.F.);
#477=ORIENTED_EDGE('',*,*,#644,.F.);
#478=EDGE_CURVE('',#664,#665,#788,.T.);
#479=EDGE_CURVE('',#664,#666,#789,.T.);
#480=EDGE_CURVE('',#667,#666,#790,.T.);
#481=EDGE_CURVE('',#667,#668,#791,.T.);
#482=EDGE_CURVE('',#668,#669,#792,.T.);
#483=EDGE_CURVE('',#669,#665,#58,.T.);
#484=EDGE_CURVE('',#670,#670,#59,.T.);
#485=EDGE_CURVE('',#671,#671,#60,.T.);
#486=EDGE_CURVE('',#672,#673,#793,.T.);
#487=EDGE_CURVE('',#672,#674,#794,.T.);
#488=EDGE_CURVE('',#674,#675,#795,.T.);
#489=EDGE_CURVE('',#675,#676,#796,.F.);
#490=EDGE_CURVE('',#676,#677,#797,.T.);
#491=EDGE_CURVE('',#677,#678,#61,.T.);
#492=EDGE_CURVE('',#679,#678,#798,.T.);
#493=EDGE_CURVE('',#679,#680,#799,.T.);
#494=EDGE_CURVE('',#680,#681,#800,.T.);
#495=EDGE_CURVE('',#681,#682,#62,.F.);
#496=EDGE_CURVE('',#683,#682,#801,.T.);
#497=EDGE_CURVE('',#683,#684,#63,.F.);
#498=EDGE_CURVE('',#685,#684,#802,.T.);
#499=EDGE_CURVE('',#685,#686,#803,.F.);
#500=EDGE_CURVE('',#686,#687,#804,.T.);
#501=EDGE_CURVE('',#687,#688,#64,.F.);
#502=EDGE_CURVE('',#689,#688,#805,.T.);
#503=EDGE_CURVE('',#689,#690,#65,.T.);
#504=EDGE_CURVE('',#690,#691,#806,.T.);
#505=EDGE_CURVE('',#691,#692,#66,.T.);
#506=EDGE_CURVE('',#692,#693,#807,.T.);
#507=EDGE_CURVE('',#693,#673,#67,.F.);
#508=EDGE_CURVE('',#694,#695,#808,.T.);
#509=EDGE_CURVE('',#694,#696,#809,.T.);
#510=EDGE_CURVE('',#696,#697,#810,.T.);
#511=EDGE_CURVE('',#697,#698,#68,.F.);
#512=EDGE_CURVE('',#699,#698,#811,.T.);
#513=EDGE_CURVE('',#699,#700,#812,.T.);
#514=EDGE_CURVE('',#700,#701,#813,.T.);
#515=EDGE_CURVE('',#701,#702,#69,.T.);
#516=EDGE_CURVE('',#703,#702,#814,.T.);
#517=EDGE_CURVE('',#703,#704,#70,.F.);
#518=EDGE_CURVE('',#705,#704,#815,.T.);
#519=EDGE_CURVE('',#705,#706,#71,.F.);
#520=EDGE_CURVE('',#706,#707,#816,.T.);
#521=EDGE_CURVE('',#707,#708,#72,.T.);
#522=EDGE_CURVE('',#709,#708,#817,.T.);
#523=EDGE_CURVE('',#709,#710,#818,.T.);
#524=EDGE_CURVE('',#710,#711,#819,.T.);
#525=EDGE_CURVE('',#711,#712,#73,.F.);
#526=EDGE_CURVE('',#713,#712,#820,.T.);
#527=EDGE_CURVE('',#713,#714,#821,.T.);
#528=EDGE_CURVE('',#714,#715,#822,.T.);
#529=EDGE_CURVE('',#715,#716,#74,.T.);
#530=EDGE_CURVE('',#716,#717,#823,.T.);
#531=EDGE_CURVE('',#717,#695,#75,.T.);
#532=EDGE_CURVE('',#718,#718,#76,.F.);
#533=EDGE_CURVE('',#719,#719,#77,.T.);
#534=EDGE_CURVE('',#720,#709,#824,.T.);
#535=EDGE_CURVE('',#720,#721,#825,.T.);
#536=EDGE_CURVE('',#721,#710,#826,.T.);
#537=EDGE_CURVE('',#708,#687,#827,.F.);
#538=EDGE_CURVE('',#686,#722,#46,.T.);
#539=EDGE_CURVE('',#722,#720,#47,.T.);
#540=EDGE_CURVE('',#688,#707,#828,.T.);
#541=EDGE_CURVE('',#706,#689,#829,.F.);
#542=EDGE_CURVE('',#690,#705,#830,.T.);
#543=EDGE_CURVE('',#704,#691,#831,.F.);
#544=EDGE_CURVE('',#702,#693,#832,.F.);
#545=EDGE_CURVE('',#692,#703,#833,.T.);
#546=EDGE_CURVE('',#723,#724,#48,.F.);
#547=EDGE_CURVE('',#724,#672,#49,.F.);
#548=EDGE_CURVE('',#673,#701,#834,.T.);
#549=EDGE_CURVE('',#723,#700,#835,.T.);
#550=EDGE_CURVE('',#725,#699,#836,.T.);
#551=EDGE_CURVE('',#725,#723,#837,.T.);
#552=EDGE_CURVE('',#698,#677,#838,.F.);
#553=EDGE_CURVE('',#676,#726,#50,.T.);
#554=EDGE_CURVE('',#726,#725,#51,.T.);
#555=EDGE_CURVE('',#696,#679,#839,.T.);
#556=EDGE_CURVE('',#678,#697,#840,.T.);
#557=EDGE_CURVE('',#680,#694,#841,.T.);
#558=EDGE_CURVE('',#695,#681,#842,.F.);
#559=EDGE_CURVE('',#682,#717,#843,.T.);
#560=EDGE_CURVE('',#716,#683,#844,.F.);
#561=EDGE_CURVE('',#727,#728,#78,.F.);
#562=EDGE_CURVE('',#728,#729,#845,.T.);
#563=EDGE_CURVE('',#729,#730,#79,.F.);
#564=EDGE_CURVE('',#730,#731,#846,.T.);
#565=EDGE_CURVE('',#731,#685,#80,.F.);
#566=EDGE_CURVE('',#684,#715,#847,.T.);
#567=EDGE_CURVE('',#714,#667,#848,.T.);
#568=EDGE_CURVE('',#666,#732,#81,.F.);
#569=EDGE_CURVE('',#727,#732,#849,.T.);
#570=EDGE_CURVE('',#668,#713,#850,.T.);
#571=EDGE_CURVE('',#712,#669,#851,.F.);
#572=EDGE_CURVE('',#721,#733,#52,.F.);
#573=EDGE_CURVE('',#733,#664,#53,.F.);
#574=EDGE_CURVE('',#665,#711,#852,.T.);
#575=EDGE_CURVE('',#734,#735,#82,.F.);
#576=EDGE_CURVE('',#735,#736,#853,.T.);
#577=EDGE_CURVE('',#736,#737,#83,.F.);
#578=EDGE_CURVE('',#737,#738,#854,.T.);
#579=EDGE_CURVE('',#738,#675,#84,.F.);
#580=EDGE_CURVE('',#674,#739,#85,.F.);
#581=EDGE_CURVE('',#734,#739,#855,.T.);
#582=EDGE_CURVE('',#740,#741,#856,.T.);
#583=EDGE_CURVE('',#740,#734,#857,.T.);
#584=EDGE_CURVE('',#739,#741,#858,.F.);
#585=EDGE_CURVE('',#742,#743,#859,.T.);
#586=EDGE_CURVE('',#743,#744,#860,.T.);
#587=EDGE_CURVE('',#745,#744,#861,.T.);
#588=EDGE_CURVE('',#745,#740,#86,.F.);
#589=EDGE_CURVE('',#741,#746,#862,.F.);
#590=EDGE_CURVE('',#747,#746,#863,.T.);
#591=EDGE_CURVE('',#747,#748,#87,.F.);
#592=EDGE_CURVE('',#749,#748,#864,.T.);
#593=EDGE_CURVE('',#749,#742,#865,.F.);
#594=EDGE_CURVE('',#737,#747,#866,.F.);
#595=EDGE_CURVE('',#746,#738,#867,.T.);
#596=EDGE_CURVE('',#750,#751,#868,.T.);
#597=EDGE_CURVE('',#750,#727,#869,.T.);
#598=EDGE_CURVE('',#732,#751,#870,.F.);
#599=EDGE_CURVE('',#752,#753,#871,.T.);
#600=EDGE_CURVE('',#753,#754,#872,.T.);
#601=EDGE_CURVE('',#755,#754,#873,.T.);
#602=EDGE_CURVE('',#755,#750,#88,.F.);
#603=EDGE_CURVE('',#751,#756,#874,.F.);
#604=EDGE_CURVE('',#757,#756,#875,.T.);
#605=EDGE_CURVE('',#757,#758,#89,.F.);
#606=EDGE_CURVE('',#759,#758,#876,.T.);
#607=EDGE_CURVE('',#759,#752,#877,.F.);
#608=EDGE_CURVE('',#730,#757,#878,.F.);
#609=EDGE_CURVE('',#756,#731,#879,.T.);
#610=EDGE_CURVE('',#722,#756,#54,.T.);
#611=EDGE_CURVE('',#751,#733,#55,.F.);
#612=EDGE_CURVE('',#726,#746,#56,.T.);
#613=EDGE_CURVE('',#741,#724,#57,.F.);
#614=EDGE_CURVE('',#760,#761,#880,.T.);
#615=EDGE_CURVE('',#760,#762,#881,.T.);
#616=EDGE_CURVE('',#762,#763,#882,.T.);
#617=EDGE_CURVE('',#763,#761,#883,.F.);
#618=EDGE_CURVE('',#764,#765,#884,.T.);
#619=EDGE_CURVE('',#765,#766,#885,.F.);
#620=EDGE_CURVE('',#767,#766,#886,.T.);
#621=EDGE_CURVE('',#767,#764,#887,.T.);
#622=EDGE_CURVE('',#768,#769,#888,.T.);
#623=EDGE_CURVE('',#768,#770,#889,.F.);
#624=EDGE_CURVE('',#770,#771,#890,.T.);
#625=EDGE_CURVE('',#771,#769,#891,.T.);
#626=EDGE_CURVE('',#770,#753,#90,.T.);
#627=EDGE_CURVE('',#752,#760,#91,.T.);
#628=EDGE_CURVE('',#761,#767,#92,.T.);
#629=EDGE_CURVE('',#766,#771,#93,.T.);
#630=EDGE_CURVE('',#758,#772,#892,.T.);
#631=EDGE_CURVE('',#772,#773,#893,.F.);
#632=EDGE_CURVE('',#773,#755,#894,.F.);
#633=EDGE_CURVE('',#754,#768,#94,.F.);
#634=EDGE_CURVE('',#769,#765,#95,.F.);
#635=EDGE_CURVE('',#764,#763,#96,.F.);
#636=EDGE_CURVE('',#762,#759,#97,.F.);
#637=EDGE_CURVE('',#774,#775,#895,.T.);
#638=EDGE_CURVE('',#775,#776,#896,.T.);
#639=EDGE_CURVE('',#777,#776,#897,.T.);
#640=EDGE_CURVE('',#777,#774,#898,.F.);
#641=EDGE_CURVE('',#778,#779,#899,.T.);
#642=EDGE_CURVE('',#779,#780,#900,.F.);
#643=EDGE_CURVE('',#781,#780,#901,.T.);
#644=EDGE_CURVE('',#781,#778,#902,.T.);
#645=EDGE_CURVE('',#782,#783,#903,.T.);
#646=EDGE_CURVE('',#783,#784,#904,.F.);
#647=EDGE_CURVE('',#785,#784,#905,.T.);
#648=EDGE_CURVE('',#785,#782,#906,.T.);
#649=EDGE_CURVE('',#784,#775,#98,.T.);
#650=EDGE_CURVE('',#774,#743,#99,.T.);
#651=EDGE_CURVE('',#742,#781,#100,.T.);
#652=EDGE_CURVE('',#780,#785,#101,.T.);
#653=EDGE_CURVE('',#748,#786,#907,.T.);
#654=EDGE_CURVE('',#786,#787,#908,.F.);
#655=EDGE_CURVE('',#787,#745,#909,.F.);
#656=EDGE_CURVE('',#744,#777,#102,.F.);
#657=EDGE_CURVE('',#776,#783,#103,.F.);
#658=EDGE_CURVE('',#782,#779,#104,.F.);
#659=EDGE_CURVE('',#778,#749,#105,.F.);
#660=EDGE_CURVE('',#773,#728,#12,.F.);
#661=EDGE_CURVE('',#729,#772,#13,.T.);
#662=EDGE_CURVE('',#787,#735,#14,.F.);
#663=EDGE_CURVE('',#736,#786,#15,.T.);
#664=VERTEX_POINT('',#1796);
#665=VERTEX_POINT('',#1797);
#666=VERTEX_POINT('',#1799);
#667=VERTEX_POINT('',#1801);
#668=VERTEX_POINT('',#1803);
#669=VERTEX_POINT('',#1805);
#670=VERTEX_POINT('',#1809);
#671=VERTEX_POINT('',#1811);
#672=VERTEX_POINT('',#1813);
#673=VERTEX_POINT('',#1814);
#674=VERTEX_POINT('',#1816);
#675=VERTEX_POINT('',#1818);
#676=VERTEX_POINT('',#1820);
#677=VERTEX_POINT('',#1822);
#678=VERTEX_POINT('',#1824);
#679=VERTEX_POINT('',#1826);
#680=VERTEX_POINT('',#1828);
#681=VERTEX_POINT('',#1830);
#682=VERTEX_POINT('',#1832);
#683=VERTEX_POINT('',#1834);
#684=VERTEX_POINT('',#1836);
#685=VERTEX_POINT('',#1838);
#686=VERTEX_POINT('',#1840);
#687=VERTEX_POINT('',#1842);
#688=VERTEX_POINT('',#1844);
#689=VERTEX_POINT('',#1846);
#690=VERTEX_POINT('',#1848);
#691=VERTEX_POINT('',#1850);
#692=VERTEX_POINT('',#1852);
#693=VERTEX_POINT('',#1854);
#694=VERTEX_POINT('',#1858);
#695=VERTEX_POINT('',#1859);
#696=VERTEX_POINT('',#1861);
#697=VERTEX_POINT('',#1863);
#698=VERTEX_POINT('',#1865);
#699=VERTEX_POINT('',#1867);
#700=VERTEX_POINT('',#1869);
#701=VERTEX_POINT('',#1871);
#702=VERTEX_POINT('',#1873);
#703=VERTEX_POINT('',#1875);
#704=VERTEX_POINT('',#1877);
#705=VERTEX_POINT('',#1879);
#706=VERTEX_POINT('',#1881);
#707=VERTEX_POINT('',#1883);
#708=VERTEX_POINT('',#1885);
#709=VERTEX_POINT('',#1887);
#710=VERTEX_POINT('',#1889);
#711=VERTEX_POINT('',#1891);
#712=VERTEX_POINT('',#1893);
#713=VERTEX_POINT('',#1895);
#714=VERTEX_POINT('',#1897);
#715=VERTEX_POINT('',#1899);
#716=VERTEX_POINT('',#1901);
#717=VERTEX_POINT('',#1903);
#718=VERTEX_POINT('',#1906);
#719=VERTEX_POINT('',#1908);
#720=VERTEX_POINT('',#1911);
#721=VERTEX_POINT('',#1913);
#722=VERTEX_POINT('',#1918);
#723=VERTEX_POINT('',#1931);
#724=VERTEX_POINT('',#1932);
#725=VERTEX_POINT('',#1938);
#726=VERTEX_POINT('',#1943);
#727=VERTEX_POINT('',#1956);
#728=VERTEX_POINT('',#1957);
#729=VERTEX_POINT('',#1959);
#730=VERTEX_POINT('',#1961);
#731=VERTEX_POINT('',#1963);
#732=VERTEX_POINT('',#1968);
#733=VERTEX_POINT('',#1975);
#734=VERTEX_POINT('',#1992);
#735=VERTEX_POINT('',#1993);
#736=VERTEX_POINT('',#1995);
#737=VERTEX_POINT('',#1997);
#738=VERTEX_POINT('',#1999);
#739=VERTEX_POINT('',#2002);
#740=VERTEX_POINT('',#2006);
#741=VERTEX_POINT('',#2007);
#742=VERTEX_POINT('',#2012);
#743=VERTEX_POINT('',#2013);
#744=VERTEX_POINT('',#2015);
#745=VERTEX_POINT('',#2017);
#746=VERTEX_POINT('',#2020);
#747=VERTEX_POINT('',#2022);
#748=VERTEX_POINT('',#2024);
#749=VERTEX_POINT('',#2026);
#750=VERTEX_POINT('',#2033);
#751=VERTEX_POINT('',#2034);
#752=VERTEX_POINT('',#2039);
#753=VERTEX_POINT('',#2040);
#754=VERTEX_POINT('',#2042);
#755=VERTEX_POINT('',#2044);
#756=VERTEX_POINT('',#2047);
#757=VERTEX_POINT('',#2049);
#758=VERTEX_POINT('',#2051);
#759=VERTEX_POINT('',#2053);
#760=VERTEX_POINT('',#2070);
#761=VERTEX_POINT('',#2071);
#762=VERTEX_POINT('',#2073);
#763=VERTEX_POINT('',#2075);
#764=VERTEX_POINT('',#2079);
#765=VERTEX_POINT('',#2080);
#766=VERTEX_POINT('',#2082);
#767=VERTEX_POINT('',#2084);
#768=VERTEX_POINT('',#2088);
#769=VERTEX_POINT('',#2089);
#770=VERTEX_POINT('',#2091);
#771=VERTEX_POINT('',#2093);
#772=VERTEX_POINT('',#2102);
#773=VERTEX_POINT('',#2104);
#774=VERTEX_POINT('',#2112);
#775=VERTEX_POINT('',#2113);
#776=VERTEX_POINT('',#2115);
#777=VERTEX_POINT('',#2117);
#778=VERTEX_POINT('',#2121);
#779=VERTEX_POINT('',#2122);
#780=VERTEX_POINT('',#2124);
#781=VERTEX_POINT('',#2126);
#782=VERTEX_POINT('',#2130);
#783=VERTEX_POINT('',#2131);
#784=VERTEX_POINT('',#2133);
#785=VERTEX_POINT('',#2135);
#786=VERTEX_POINT('',#2144);
#787=VERTEX_POINT('',#2146);
#788=LINE('',#1795,#910);
#789=LINE('',#1798,#911);
#790=LINE('',#1800,#912);
#791=LINE('',#1802,#913);
#792=LINE('',#1804,#914);
#793=LINE('',#1812,#915);
#794=LINE('',#1815,#916);
#795=LINE('',#1817,#917);
#796=LINE('',#1819,#918);
#797=LINE('',#1821,#919);
#798=LINE('',#1825,#920);
#799=LINE('',#1827,#921);
#800=LINE('',#1829,#922);
#801=LINE('',#1833,#923);
#802=LINE('',#1837,#924);
#803=LINE('',#1839,#925);
#804=LINE('',#1841,#926);
#805=LINE('',#1845,#927);
#806=LINE('',#1849,#928);
#807=LINE('',#1853,#929);
#808=LINE('',#1857,#930);
#809=LINE('',#1860,#931);
#810=LINE('',#1862,#932);
#811=LINE('',#1866,#933);
#812=LINE('',#1868,#934);
#813=LINE('',#1870,#935);
#814=LINE('',#1874,#936);
#815=LINE('',#1878,#937);
#816=LINE('',#1882,#938);
#817=LINE('',#1886,#939);
#818=LINE('',#1888,#940);
#819=LINE('',#1890,#941);
#820=LINE('',#1894,#942);
#821=LINE('',#1896,#943);
#822=LINE('',#1898,#944);
#823=LINE('',#1902,#945);
#824=LINE('',#1910,#946);
#825=LINE('',#1912,#947);
#826=LINE('',#1914,#948);
#827=LINE('',#1916,#949);
#828=LINE('',#1921,#950);
#829=LINE('',#1922,#951);
#830=LINE('',#1924,#952);
#831=LINE('',#1925,#953);
#832=LINE('',#1927,#954);
#833=LINE('',#1928,#955);
#834=LINE('',#1934,#956);
#835=LINE('',#1935,#957);
#836=LINE('',#1937,#958);
#837=LINE('',#1939,#959);
#838=LINE('',#1941,#960);
#839=LINE('',#1946,#961);
#840=LINE('',#1947,#962);
#841=LINE('',#1949,#963);
#842=LINE('',#1950,#964);
#843=LINE('',#1952,#965);
#844=LINE('',#1953,#966);
#845=LINE('',#1958,#967);
#846=LINE('',#1962,#968);
#847=LINE('',#1965,#969);
#848=LINE('',#1966,#970);
#849=LINE('',#1969,#971);
#850=LINE('',#1971,#972);
#851=LINE('',#1972,#973);
#852=LINE('',#1977,#974);
#853=LINE('',#1994,#975);
#854=LINE('',#1998,#976);
#855=LINE('',#2003,#977);
#856=LINE('',#2005,#978);
#857=LINE('',#2008,#979);
#858=LINE('',#2009,#980);
#859=LINE('',#2011,#981);
#860=LINE('',#2014,#982);
#861=LINE('',#2016,#983);
#862=LINE('',#2019,#984);
#863=LINE('',#2021,#985);
#864=LINE('',#2025,#986);
#865=LINE('',#2027,#987);
#866=LINE('',#2029,#988);
#867=LINE('',#2030,#989);
#868=LINE('',#2032,#990);
#869=LINE('',#2035,#991);
#870=LINE('',#2036,#992);
#871=LINE('',#2038,#993);
#872=LINE('',#2041,#994);
#873=LINE('',#2043,#995);
#874=LINE('',#2046,#996);
#875=LINE('',#2048,#997);
#876=LINE('',#2052,#998);
#877=LINE('',#2054,#999);
#878=LINE('',#2056,#1000);
#879=LINE('',#2057,#1001);
#880=LINE('',#2069,#1002);
#881=LINE('',#2072,#1003);
#882=LINE('',#2074,#1004);
#883=LINE('',#2076,#1005);
#884=LINE('',#2078,#1006);
#885=LINE('',#2081,#1007);
#886=LINE('',#2083,#1008);
#887=LINE('',#2085,#1009);
#888=LINE('',#2087,#1010);
#889=LINE('',#2090,#1011);
#890=LINE('',#2092,#1012);
#891=LINE('',#2094,#1013);
#892=LINE('',#2101,#1014);
#893=LINE('',#2103,#1015);
#894=LINE('',#2105,#1016);
#895=LINE('',#2111,#1017);
#896=LINE('',#2114,#1018);
#897=LINE('',#2116,#1019);
#898=LINE('',#2118,#1020);
#899=LINE('',#2120,#1021);
#900=LINE('',#2123,#1022);
#901=LINE('',#2125,#1023);
#902=LINE('',#2127,#1024);
#903=LINE('',#2129,#1025);
#904=LINE('',#2132,#1026);
#905=LINE('',#2134,#1027);
#906=LINE('',#2136,#1028);
#907=LINE('',#2143,#1029);
#908=LINE('',#2145,#1030);
#909=LINE('',#2147,#1031);
#910=VECTOR('',#1421,1.);
#911=VECTOR('',#1422,1.);
#912=VECTOR('',#1423,1.);
#913=VECTOR('',#1424,1.);
#914=VECTOR('',#1425,1.);
#915=VECTOR('',#1434,1.);
#916=VECTOR('',#1435,1.);
#917=VECTOR('',#1436,1.);
#918=VECTOR('',#1437,1.);
#919=VECTOR('',#1438,1.);
#920=VECTOR('',#1441,1.);
#921=VECTOR('',#1442,1.);
#922=VECTOR('',#1443,1.);
#923=VECTOR('',#1446,1.);
#924=VECTOR('',#1449,1.);
#925=VECTOR('',#1450,1.);
#926=VECTOR('',#1451,1.);
#927=VECTOR('',#1454,1.);
#928=VECTOR('',#1457,1.);
#929=VECTOR('',#1460,1.);
#930=VECTOR('',#1465,1.);
#931=VECTOR('',#1466,1.);
#932=VECTOR('',#1467,1.);
#933=VECTOR('',#1470,1.);
#934=VECTOR('',#1471,1.);
#935=VECTOR('',#1472,1.);
#936=VECTOR('',#1475,1.);
#937=VECTOR('',#1478,1.);
#938=VECTOR('',#1481,1.);
#939=VECTOR('',#1484,1.);
#940=VECTOR('',#1485,1.);
#941=VECTOR('',#1486,1.);
#942=VECTOR('',#1489,1.);
#943=VECTOR('',#1490,1.);
#944=VECTOR('',#1491,1.);
#945=VECTOR('',#1494,1.);
#946=VECTOR('',#1503,1.);
#947=VECTOR('',#1504,1.);
#948=VECTOR('',#1505,1.);
#949=VECTOR('',#1508,1.);
#950=VECTOR('',#1515,1.);
#951=VECTOR('',#1516,1.);
#952=VECTOR('',#1519,1.);
#953=VECTOR('',#1520,1.);
#954=VECTOR('',#1523,1.);
#955=VECTOR('',#1524,1.);
#956=VECTOR('',#1531,1.);
#957=VECTOR('',#1532,1.);
#958=VECTOR('',#1535,1.);
#959=VECTOR('',#1536,1.);
#960=VECTOR('',#1539,1.);
#961=VECTOR('',#1546,1.);
#962=VECTOR('',#1547,1.);
#963=VECTOR('',#1550,1.);
#964=VECTOR('',#1551,1.);
#965=VECTOR('',#1554,1.);
#966=VECTOR('',#1555,1.);
#967=VECTOR('',#1560,1.);
#968=VECTOR('',#1563,1.);
#969=VECTOR('',#1566,1.);
#970=VECTOR('',#1567,1.);
#971=VECTOR('',#1570,1.);
#972=VECTOR('',#1573,1.);
#973=VECTOR('',#1574,1.);
#974=VECTOR('',#1581,1.);
#975=VECTOR('',#1610,1.);
#976=VECTOR('',#1613,1.);
#977=VECTOR('',#1618,1.);
#978=VECTOR('',#1621,1.);
#979=VECTOR('',#1622,1.);
#980=VECTOR('',#1623,1.);
#981=VECTOR('',#1626,1.);
#982=VECTOR('',#1627,1.);
#983=VECTOR('',#1628,1.);
#984=VECTOR('',#1631,1.);
#985=VECTOR('',#1632,1.);
#986=VECTOR('',#1635,1.);
#987=VECTOR('',#1636,1.);
#988=VECTOR('',#1639,1.);
#989=VECTOR('',#1640,1.);
#990=VECTOR('',#1643,1.);
#991=VECTOR('',#1644,1.);
#992=VECTOR('',#1645,1.);
#993=VECTOR('',#1648,1.);
#994=VECTOR('',#1649,1.);
#995=VECTOR('',#1650,1.);
#996=VECTOR('',#1653,1.);
#997=VECTOR('',#1654,1.);
#998=VECTOR('',#1657,1.);
#999=VECTOR('',#1658,1.);
#1000=VECTOR('',#1661,1.);
#1001=VECTOR('',#1662,1.);
#1002=VECTOR('',#1685,1.);
#1003=VECTOR('',#1686,1.);
#1004=VECTOR('',#1687,1.);
#1005=VECTOR('',#1688,1.);
#1006=VECTOR('',#1691,1.);
#1007=VECTOR('',#1692,1.);
#1008=VECTOR('',#1693,1.);
#1009=VECTOR('',#1694,1.);
#1010=VECTOR('',#1697,1.);
#1011=VECTOR('',#1698,1.);
#1012=VECTOR('',#1699,1.);
#1013=VECTOR('',#1700,1.);
#1014=VECTOR('',#1713,1.);
#1015=VECTOR('',#1714,1.);
#1016=VECTOR('',#1715,1.);
#1017=VECTOR('',#1726,1.);
#1018=VECTOR('',#1727,1.);
#1019=VECTOR('',#1728,1.);
#1020=VECTOR('',#1729,1.);
#1021=VECTOR('',#1732,1.);
#1022=VECTOR('',#1733,1.);
#1023=VECTOR('',#1734,1.);
#1024=VECTOR('',#1735,1.);
#1025=VECTOR('',#1738,1.);
#1026=VECTOR('',#1739,1.);
#1027=VECTOR('',#1740,1.);
#1028=VECTOR('',#1741,1.);
#1029=VECTOR('',#1754,1.);
#1030=VECTOR('',#1755,1.);
#1031=VECTOR('',#1756,1.);
#1032=EDGE_LOOP('',(#106,#107,#108,#109,#110,#111));
#1033=EDGE_LOOP('',(#112));
#1034=EDGE_LOOP('',(#113));
#1035=EDGE_LOOP('',(#114,#115,#116,#117,#118,#119,#120,#121,#122,#123,#124,
#125,#126,#127,#128,#129,#130,#131,#132,#133,#134,#135));
#1036=EDGE_LOOP('',(#136,#137,#138,#139,#140,#141,#142,#143,#144,#145,#146,
#147,#148,#149,#150,#151,#152,#153,#154,#155,#156,#157,#158,#159));
#1037=EDGE_LOOP('',(#160));
#1038=EDGE_LOOP('',(#161));
#1039=EDGE_LOOP('',(#162,#163,#164,#165));
#1040=EDGE_LOOP('',(#166,#167,#168,#169,#170,#171));
#1041=EDGE_LOOP('',(#172,#173,#174,#175));
#1042=EDGE_LOOP('',(#176,#177,#178,#179));
#1043=EDGE_LOOP('',(#180,#181,#182,#183));
#1044=EDGE_LOOP('',(#184,#185,#186,#187,#188,#189));
#1045=EDGE_LOOP('',(#190,#191,#192,#193));
#1046=EDGE_LOOP('',(#194,#195,#196,#197,#198,#199));
#1047=EDGE_LOOP('',(#200,#201,#202,#203));
#1048=EDGE_LOOP('',(#204,#205,#206,#207));
#1049=EDGE_LOOP('',(#208,#209,#210,#211));
#1050=EDGE_LOOP('',(#212,#213,#214,#215,#216,#217,#218,#219,#220,#221,#222,
#223));
#1051=EDGE_LOOP('',(#224,#225,#226,#227));
#1052=EDGE_LOOP('',(#228,#229,#230,#231,#232,#233));
#1053=EDGE_LOOP('',(#234,#235,#236,#237));
#1054=EDGE_LOOP('',(#238,#239,#240,#241));
#1055=EDGE_LOOP('',(#242,#243,#244,#245));
#1056=EDGE_LOOP('',(#246,#247,#248,#249));
#1057=EDGE_LOOP('',(#250,#251,#252,#253));
#1058=EDGE_LOOP('',(#254,#255,#256,#257));
#1059=EDGE_LOOP('',(#258,#259,#260,#261));
#1060=EDGE_LOOP('',(#262,#263,#264,#265));
#1061=EDGE_LOOP('',(#266,#267,#268,#269));
#1062=EDGE_LOOP('',(#270,#271,#272,#273));
#1063=EDGE_LOOP('',(#274));
#1064=EDGE_LOOP('',(#275));
#1065=EDGE_LOOP('',(#276));
#1066=EDGE_LOOP('',(#277));
#1067=EDGE_LOOP('',(#278,#279,#280,#281,#282,#283,#284,#285));
#1068=EDGE_LOOP('',(#286,#287,#288,#289));
#1069=EDGE_LOOP('',(#290,#291,#292,#293,#294,#295,#296,#297,#298,#299));
#1070=EDGE_LOOP('',(#300,#301,#302,#303));
#1071=EDGE_LOOP('',(#304,#305,#306,#307));
#1072=EDGE_LOOP('',(#308,#309,#310,#311,#312,#313,#314,#315,#316,#317));
#1073=EDGE_LOOP('',(#318,#319,#320,#321));
#1074=EDGE_LOOP('',(#322,#323,#324,#325,#326));
#1075=EDGE_LOOP('',(#327,#328,#329,#330,#331));
#1076=EDGE_LOOP('',(#332,#333,#334,#335,#336,#337));
#1077=EDGE_LOOP('',(#338,#339,#340,#341,#342));
#1078=EDGE_LOOP('',(#343,#344,#345,#346,#347));
#1079=EDGE_LOOP('',(#348,#349,#350,#351,#352,#353));
#1080=EDGE_LOOP('',(#354,#355,#356,#357));
#1081=EDGE_LOOP('',(#358,#359,#360,#361));
#1082=EDGE_LOOP('',(#362,#363,#364,#365));
#1083=EDGE_LOOP('',(#366,#367,#368,#369,#370,#371,#372,#373));
#1084=EDGE_LOOP('',(#374,#375,#376,#377,#378,#379,#380,#381,#382,#383,#384,
#385));
#1085=EDGE_LOOP('',(#386,#387,#388,#389));
#1086=EDGE_LOOP('',(#390,#391,#392,#393));
#1087=EDGE_LOOP('',(#394,#395,#396,#397));
#1088=EDGE_LOOP('',(#398,#399,#400,#401,#402,#403,#404,#405));
#1089=EDGE_LOOP('',(#406,#407,#408,#409,#410,#411,#412,#413,#414,#415,#416,
#417));
#1090=EDGE_LOOP('',(#418,#419,#420,#421,#422));
#1091=EDGE_LOOP('',(#423,#424,#425,#426,#427));
#1092=EDGE_LOOP('',(#428,#429,#430,#431,#432));
#1093=EDGE_LOOP('',(#433,#434,#435,#436,#437));
#1094=EDGE_LOOP('',(#438,#439,#440,#441));
#1095=EDGE_LOOP('',(#442,#443,#444,#445));
#1096=EDGE_LOOP('',(#446,#447,#448,#449));
#1097=EDGE_LOOP('',(#450,#451,#452,#453));
#1098=EDGE_LOOP('',(#454,#455,#456,#457));
#1099=EDGE_LOOP('',(#458,#459,#460,#461));
#1100=EDGE_LOOP('',(#462,#463,#464,#465));
#1101=EDGE_LOOP('',(#466,#467,#468,#469));
#1102=EDGE_LOOP('',(#470,#471,#472,#473));
#1103=EDGE_LOOP('',(#474,#475,#476,#477));
#1104=FACE_BOUND('',#1032,.T.);
#1105=FACE_BOUND('',#1033,.T.);
#1106=FACE_BOUND('',#1034,.T.);
#1107=FACE_BOUND('',#1035,.T.);
#1108=FACE_BOUND('',#1036,.T.);
#1109=FACE_BOUND('',#1037,.T.);
#1110=FACE_BOUND('',#1038,.T.);
#1111=FACE_BOUND('',#1039,.T.);
#1112=FACE_BOUND('',#1040,.T.);
#1113=FACE_BOUND('',#1041,.T.);
#1114=FACE_BOUND('',#1042,.T.);
#1115=FACE_BOUND('',#1043,.T.);
#1116=FACE_BOUND('',#1044,.T.);
#1117=FACE_BOUND('',#1045,.T.);
#1118=FACE_BOUND('',#1046,.T.);
#1119=FACE_BOUND('',#1047,.T.);
#1120=FACE_BOUND('',#1048,.T.);
#1121=FACE_BOUND('',#1049,.T.);
#1122=FACE_BOUND('',#1050,.T.);
#1123=FACE_BOUND('',#1051,.T.);
#1124=FACE_BOUND('',#1052,.T.);
#1125=FACE_BOUND('',#1053,.T.);
#1126=FACE_BOUND('',#1054,.T.);
#1127=FACE_BOUND('',#1055,.T.);
#1128=FACE_BOUND('',#1056,.T.);
#1129=FACE_BOUND('',#1057,.T.);
#1130=FACE_BOUND('',#1058,.T.);
#1131=FACE_BOUND('',#1059,.T.);
#1132=FACE_BOUND('',#1060,.T.);
#1133=FACE_BOUND('',#1061,.T.);
#1134=FACE_BOUND('',#1062,.T.);
#1135=FACE_BOUND('',#1063,.T.);
#1136=FACE_BOUND('',#1064,.T.);
#1137=FACE_BOUND('',#1065,.T.);
#1138=FACE_BOUND('',#1066,.T.);
#1139=FACE_BOUND('',#1067,.T.);
#1140=FACE_BOUND('',#1068,.T.);
#1141=FACE_BOUND('',#1069,.T.);
#1142=FACE_BOUND('',#1070,.T.);
#1143=FACE_BOUND('',#1071,.T.);
#1144=FACE_BOUND('',#1072,.T.);
#1145=FACE_BOUND('',#1073,.T.);
#1146=FACE_BOUND('',#1074,.T.);
#1147=FACE_BOUND('',#1075,.T.);
#1148=FACE_BOUND('',#1076,.T.);
#1149=FACE_BOUND('',#1077,.T.);
#1150=FACE_BOUND('',#1078,.T.);
#1151=FACE_BOUND('',#1079,.T.);
#1152=FACE_BOUND('',#1080,.T.);
#1153=FACE_BOUND('',#1081,.T.);
#1154=FACE_BOUND('',#1082,.T.);
#1155=FACE_BOUND('',#1083,.T.);
#1156=FACE_BOUND('',#1084,.T.);
#1157=FACE_BOUND('',#1085,.T.);
#1158=FACE_BOUND('',#1086,.T.);
#1159=FACE_BOUND('',#1087,.T.);
#1160=FACE_BOUND('',#1088,.T.);
#1161=FACE_BOUND('',#1089,.T.);
#1162=FACE_BOUND('',#1090,.T.);
#1163=FACE_BOUND('',#1091,.T.);
#1164=FACE_BOUND('',#1092,.T.);
#1165=FACE_BOUND('',#1093,.T.);
#1166=FACE_BOUND('',#1094,.T.);
#1167=FACE_BOUND('',#1095,.T.);
#1168=FACE_BOUND('',#1096,.T.);
#1169=FACE_BOUND('',#1097,.T.);
#1170=FACE_BOUND('',#1098,.T.);
#1171=FACE_BOUND('',#1099,.T.);
#1172=FACE_BOUND('',#1100,.T.);
#1173=FACE_BOUND('',#1101,.T.);
#1174=FACE_BOUND('',#1102,.T.);
#1175=FACE_BOUND('',#1103,.T.);
#1176=PLANE('',#1291);
#1177=PLANE('',#1293);
#1178=PLANE('',#1303);
#1179=PLANE('',#1314);
#1180=PLANE('',#1315);
#1181=PLANE('',#1318);
#1182=PLANE('',#1319);
#1183=PLANE('',#1320);
#1184=PLANE('',#1321);
#1185=PLANE('',#1324);
#1186=PLANE('',#1325);
#1187=PLANE('',#1328);
#1188=PLANE('',#1329);
#1189=PLANE('',#1330);
#1190=PLANE('',#1331);
#1191=PLANE('',#1336);
#1192=PLANE('',#1337);
#1193=PLANE('',#1348);
#1194=PLANE('',#1349);
#1195=PLANE('',#1352);
#1196=PLANE('',#1357);
#1197=PLANE('',#1358);
#1198=PLANE('',#1361);
#1199=PLANE('',#1362);
#1200=PLANE('',#1363);
#1201=PLANE('',#1366);
#1202=PLANE('',#1377);
#1203=PLANE('',#1378);
#1204=PLANE('',#1379);
#1205=PLANE('',#1380);
#1206=PLANE('',#1385);
#1207=PLANE('',#1390);
#1208=PLANE('',#1391);
#1209=PLANE('',#1392);
#1210=PLANE('',#1393);
#1211=PLANE('',#1398);
#1212=ADVANCED_FACE('',(#1104),#1176,.T.);
#1213=ADVANCED_FACE('',(#1105,#1106,#1107),#1177,.T.);
#1214=ADVANCED_FACE('',(#1108,#1109,#1110),#1178,.F.);
#1215=ADVANCED_FACE('',(#1111),#1179,.T.);
#1216=ADVANCED_FACE('',(#1112),#1180,.F.);
#1217=ADVANCED_FACE('',(#1113),#1181,.T.);
#1218=ADVANCED_FACE('',(#1114),#1182,.F.);
#1219=ADVANCED_FACE('',(#1115),#1183,.F.);
#1220=ADVANCED_FACE('',(#1116),#1184,.T.);
#1221=ADVANCED_FACE('',(#1117),#1185,.T.);
#1222=ADVANCED_FACE('',(#1118),#1186,.F.);
#1223=ADVANCED_FACE('',(#1119),#1187,.T.);
#1224=ADVANCED_FACE('',(#1120),#1188,.F.);
#1225=ADVANCED_FACE('',(#1121),#1189,.T.);
#1226=ADVANCED_FACE('',(#1122),#1190,.T.);
#1227=ADVANCED_FACE('',(#1123),#1191,.F.);
#1228=ADVANCED_FACE('',(#1124),#1192,.T.);
#1229=ADVANCED_FACE('',(#1125),#16,.T.);
#1230=ADVANCED_FACE('',(#1126),#17,.T.);
#1231=ADVANCED_FACE('',(#1127),#18,.T.);
#1232=ADVANCED_FACE('',(#1128),#19,.F.);
#1233=ADVANCED_FACE('',(#1129),#20,.T.);
#1234=ADVANCED_FACE('',(#1130),#21,.F.);
#1235=ADVANCED_FACE('',(#1131),#22,.F.);
#1236=ADVANCED_FACE('',(#1132),#23,.F.);
#1237=ADVANCED_FACE('',(#1133),#1193,.T.);
#1238=ADVANCED_FACE('',(#1134),#1194,.T.);
#1239=ADVANCED_FACE('',(#1135,#1136),#24,.F.);
#1240=ADVANCED_FACE('',(#1137,#1138),#25,.F.);
#1241=ADVANCED_FACE('',(#1139),#1195,.T.);
#1242=ADVANCED_FACE('',(#1140),#1196,.T.);
#1243=ADVANCED_FACE('',(#1141),#1197,.T.);
#1244=ADVANCED_FACE('',(#1142),#1198,.F.);
#1245=ADVANCED_FACE('',(#1143),#1199,.T.);
#1246=ADVANCED_FACE('',(#1144),#1200,.T.);
#1247=ADVANCED_FACE('',(#1145),#1201,.F.);
#1248=ADVANCED_FACE('',(#1146),#26,.F.);
#1249=ADVANCED_FACE('',(#1147),#27,.F.);
#1250=ADVANCED_FACE('',(#1148),#28,.F.);
#1251=ADVANCED_FACE('',(#1149),#29,.F.);
#1252=ADVANCED_FACE('',(#1150),#30,.F.);
#1253=ADVANCED_FACE('',(#1151),#31,.F.);
#1254=ADVANCED_FACE('',(#1152),#1202,.F.);
#1255=ADVANCED_FACE('',(#1153),#1203,.F.);
#1256=ADVANCED_FACE('',(#1154),#1204,.T.);
#1257=ADVANCED_FACE('',(#1155),#1205,.T.);
#1258=ADVANCED_FACE('',(#1156),#1206,.F.);
#1259=ADVANCED_FACE('',(#1157),#1207,.T.);
#1260=ADVANCED_FACE('',(#1158),#1208,.F.);
#1261=ADVANCED_FACE('',(#1159),#1209,.F.);
#1262=ADVANCED_FACE('',(#1160),#1210,.T.);
#1263=ADVANCED_FACE('',(#1161),#1211,.F.);
#1264=ADVANCED_FACE('',(#1162),#32,.F.);
#1265=ADVANCED_FACE('',(#1163),#33,.F.);
#1266=ADVANCED_FACE('',(#1164),#34,.F.);
#1267=ADVANCED_FACE('',(#1165),#35,.F.);
#1268=ADVANCED_FACE('',(#1166),#36,.F.);
#1269=ADVANCED_FACE('',(#1167),#37,.F.);
#1270=ADVANCED_FACE('',(#1168),#38,.T.);
#1271=ADVANCED_FACE('',(#1169),#39,.T.);
#1272=ADVANCED_FACE('',(#1170),#40,.T.);
#1273=ADVANCED_FACE('',(#1171),#41,.T.);
#1274=ADVANCED_FACE('',(#1172),#42,.T.);
#1275=ADVANCED_FACE('',(#1173),#43,.T.);
#1276=ADVANCED_FACE('',(#1174),#44,.T.);
#1277=ADVANCED_FACE('',(#1175),#45,.T.);
#1278=CLOSED_SHELL('',(#1212,#1213,#1214,#1215,#1216,#1217,#1218,#1219,
#1220,#1221,#1222,#1223,#1224,#1225,#1226,#1227,#1228,#1229,#1230,#1231,
#1232,#1233,#1234,#1235,#1236,#1237,#1238,#1239,#1240,#1241,#1242,#1243,
#1244,#1245,#1246,#1247,#1248,#1249,#1250,#1251,#1252,#1253,#1254,#1255,
#1256,#1257,#1258,#1259,#1260,#1261,#1262,#1263,#1264,#1265,#1266,#1267,
#1268,#1269,#1270,#1271,#1272,#1273,#1274,#1275,#1276,#1277));
#1279=STYLED_ITEM('',(#1280),#1287);
#1280=PRESENTATION_STYLE_ASSIGNMENT((#1281));
#1281=SURFACE_STYLE_USAGE(.BOTH.,#1282);
#1282=SURFACE_SIDE_STYLE('',(#1283));
#1283=SURFACE_STYLE_FILL_AREA(#1284);
#1284=FILL_AREA_STYLE('',(#1285));
#1285=FILL_AREA_STYLE_COLOUR('',#1286);
#1286=COLOUR_RGB('',0.615686274509804,0.811764705882353,0.929411764705882);
#1287=MANIFOLD_SOLID_BREP('Part 1',#1278);
#1288=SHAPE_DEFINITION_REPRESENTATION(#2200,#1289);
#1289=SHAPE_REPRESENTATION('Part 1',(#1290),#2195);
#1290=AXIS2_PLACEMENT_3D('',#1793,#1417,#1418);
#1291=AXIS2_PLACEMENT_3D('',#1794,#1419,#1420);
#1292=AXIS2_PLACEMENT_3D('',#1806,#1426,#1427);
#1293=AXIS2_PLACEMENT_3D('',#1807,#1428,#1429);
#1294=AXIS2_PLACEMENT_3D('',#1808,#1430,#1431);
#1295=AXIS2_PLACEMENT_3D('',#1810,#1432,#1433);
#1296=AXIS2_PLACEMENT_3D('',#1823,#1439,#1440);
#1297=AXIS2_PLACEMENT_3D('',#1831,#1444,#1445);
#1298=AXIS2_PLACEMENT_3D('',#1835,#1447,#1448);
#1299=AXIS2_PLACEMENT_3D('',#1843,#1452,#1453);
#1300=AXIS2_PLACEMENT_3D('',#1847,#1455,#1456);
#1301=AXIS2_PLACEMENT_3D('',#1851,#1458,#1459);
#1302=AXIS2_PLACEMENT_3D('',#1855,#1461,#1462);
#1303=AXIS2_PLACEMENT_3D('',#1856,#1463,#1464);
#1304=AXIS2_PLACEMENT_3D('',#1864,#1468,#1469);
#1305=AXIS2_PLACEMENT_3D('',#1872,#1473,#1474);
#1306=AXIS2_PLACEMENT_3D('',#1876,#1476,#1477);
#1307=AXIS2_PLACEMENT_3D('',#1880,#1479,#1480);
#1308=AXIS2_PLACEMENT_3D('',#1884,#1482,#1483);
#1309=AXIS2_PLACEMENT_3D('',#1892,#1487,#1488);
#1310=AXIS2_PLACEMENT_3D('',#1900,#1492,#1493);
#1311=AXIS2_PLACEMENT_3D('',#1904,#1495,#1496);
#1312=AXIS2_PLACEMENT_3D('',#1905,#1497,#1498);
#1313=AXIS2_PLACEMENT_3D('',#1907,#1499,#1500);
#1314=AXIS2_PLACEMENT_3D('',#1909,#1501,#1502);
#1315=AXIS2_PLACEMENT_3D('',#1915,#1506,#1507);
#1316=AXIS2_PLACEMENT_3D('',#1917,#1509,#1510);
#1317=AXIS2_PLACEMENT_3D('',#1919,#1511,#1512);
#1318=AXIS2_PLACEMENT_3D('',#1920,#1513,#1514);
#1319=AXIS2_PLACEMENT_3D('',#1923,#1517,#1518);
#1320=AXIS2_PLACEMENT_3D('',#1926,#1521,#1522);
#1321=AXIS2_PLACEMENT_3D('',#1929,#1525,#1526);
#1322=AXIS2_PLACEMENT_3D('',#1930,#1527,#1528);
#1323=AXIS2_PLACEMENT_3D('',#1933,#1529,#1530);
#1324=AXIS2_PLACEMENT_3D('',#1936,#1533,#1534);
#1325=AXIS2_PLACEMENT_3D('',#1940,#1537,#1538);
#1326=AXIS2_PLACEMENT_3D('',#1942,#1540,#1541);
#1327=AXIS2_PLACEMENT_3D('',#1944,#1542,#1543);
#1328=AXIS2_PLACEMENT_3D('',#1945,#1544,#1545);
#1329=AXIS2_PLACEMENT_3D('',#1948,#1548,#1549);
#1330=AXIS2_PLACEMENT_3D('',#1951,#1552,#1553);
#1331=AXIS2_PLACEMENT_3D('',#1954,#1556,#1557);
#1332=AXIS2_PLACEMENT_3D('',#1955,#1558,#1559);
#1333=AXIS2_PLACEMENT_3D('',#1960,#1561,#1562);
#1334=AXIS2_PLACEMENT_3D('',#1964,#1564,#1565);
#1335=AXIS2_PLACEMENT_3D('',#1967,#1568,#1569);
#1336=AXIS2_PLACEMENT_3D('',#1970,#1571,#1572);
#1337=AXIS2_PLACEMENT_3D('',#1973,#1575,#1576);
#1338=AXIS2_PLACEMENT_3D('',#1974,#1577,#1578);
#1339=AXIS2_PLACEMENT_3D('',#1976,#1579,#1580);
#1340=AXIS2_PLACEMENT_3D('',#1978,#1582,#1583);
#1341=AXIS2_PLACEMENT_3D('',#1979,#1584,#1585);
#1342=AXIS2_PLACEMENT_3D('',#1980,#1586,#1587);
#1343=AXIS2_PLACEMENT_3D('',#1981,#1588,#1589);
#1344=AXIS2_PLACEMENT_3D('',#1982,#1590,#1591);
#1345=AXIS2_PLACEMENT_3D('',#1983,#1592,#1593);
#1346=AXIS2_PLACEMENT_3D('',#1984,#1594,#1595);
#1347=AXIS2_PLACEMENT_3D('',#1985,#1596,#1597);
#1348=AXIS2_PLACEMENT_3D('',#1986,#1598,#1599);
#1349=AXIS2_PLACEMENT_3D('',#1987,#1600,#1601);
#1350=AXIS2_PLACEMENT_3D('',#1988,#1602,#1603);
#1351=AXIS2_PLACEMENT_3D('',#1989,#1604,#1605);
#1352=AXIS2_PLACEMENT_3D('',#1990,#1606,#1607);
#1353=AXIS2_PLACEMENT_3D('',#1991,#1608,#1609);
#1354=AXIS2_PLACEMENT_3D('',#1996,#1611,#1612);
#1355=AXIS2_PLACEMENT_3D('',#2000,#1614,#1615);
#1356=AXIS2_PLACEMENT_3D('',#2001,#1616,#1617);
#1357=AXIS2_PLACEMENT_3D('',#2004,#1619,#1620);
#1358=AXIS2_PLACEMENT_3D('',#2010,#1624,#1625);
#1359=AXIS2_PLACEMENT_3D('',#2018,#1629,#1630);
#1360=AXIS2_PLACEMENT_3D('',#2023,#1633,#1634);
#1361=AXIS2_PLACEMENT_3D('',#2028,#1637,#1638);
#1362=AXIS2_PLACEMENT_3D('',#2031,#1641,#1642);
#1363=AXIS2_PLACEMENT_3D('',#2037,#1646,#1647);
#1364=AXIS2_PLACEMENT_3D('',#2045,#1651,#1652);
#1365=AXIS2_PLACEMENT_3D('',#2050,#1655,#1656);
#1366=AXIS2_PLACEMENT_3D('',#2055,#1659,#1660);
#1367=AXIS2_PLACEMENT_3D('',#2058,#1663,#1664);
#1368=AXIS2_PLACEMENT_3D('',#2059,#1665,#1666);
#1369=AXIS2_PLACEMENT_3D('',#2060,#1667,#1668);
#1370=AXIS2_PLACEMENT_3D('',#2061,#1669,#1670);
#1371=AXIS2_PLACEMENT_3D('',#2062,#1671,#1672);
#1372=AXIS2_PLACEMENT_3D('',#2063,#1673,#1674);
#1373=AXIS2_PLACEMENT_3D('',#2064,#1675,#1676);
#1374=AXIS2_PLACEMENT_3D('',#2065,#1677,#1678);
#1375=AXIS2_PLACEMENT_3D('',#2066,#1679,#1680);
#1376=AXIS2_PLACEMENT_3D('',#2067,#1681,#1682);
#1377=AXIS2_PLACEMENT_3D('',#2068,#1683,#1684);
#1378=AXIS2_PLACEMENT_3D('',#2077,#1689,#1690);
#1379=AXIS2_PLACEMENT_3D('',#2086,#1695,#1696);
#1380=AXIS2_PLACEMENT_3D('',#2095,#1701,#1702);
#1381=AXIS2_PLACEMENT_3D('',#2096,#1703,#1704);
#1382=AXIS2_PLACEMENT_3D('',#2097,#1705,#1706);
#1383=AXIS2_PLACEMENT_3D('',#2098,#1707,#1708);
#1384=AXIS2_PLACEMENT_3D('',#2099,#1709,#1710);
#1385=AXIS2_PLACEMENT_3D('',#2100,#1711,#1712);
#1386=AXIS2_PLACEMENT_3D('',#2106,#1716,#1717);
#1387=AXIS2_PLACEMENT_3D('',#2107,#1718,#1719);
#1388=AXIS2_PLACEMENT_3D('',#2108,#1720,#1721);
#1389=AXIS2_PLACEMENT_3D('',#2109,#1722,#1723);
#1390=AXIS2_PLACEMENT_3D('',#2110,#1724,#1725);
#1391=AXIS2_PLACEMENT_3D('',#2119,#1730,#1731);
#1392=AXIS2_PLACEMENT_3D('',#2128,#1736,#1737);
#1393=AXIS2_PLACEMENT_3D('',#2137,#1742,#1743);
#1394=AXIS2_PLACEMENT_3D('',#2138,#1744,#1745);
#1395=AXIS2_PLACEMENT_3D('',#2139,#1746,#1747);
#1396=AXIS2_PLACEMENT_3D('',#2140,#1748,#1749);
#1397=AXIS2_PLACEMENT_3D('',#2141,#1750,#1751);
#1398=AXIS2_PLACEMENT_3D('',#2142,#1752,#1753);
#1399=AXIS2_PLACEMENT_3D('',#2148,#1757,#1758);
#1400=AXIS2_PLACEMENT_3D('',#2149,#1759,#1760);
#1401=AXIS2_PLACEMENT_3D('',#2150,#1761,#1762);
#1402=AXIS2_PLACEMENT_3D('',#2151,#1763,#1764);
#1403=AXIS2_PLACEMENT_3D('',#2152,#1765,#1766);
#1404=AXIS2_PLACEMENT_3D('',#2160,#1767,#1768);
#1405=AXIS2_PLACEMENT_3D('',#2168,#1769,#1770);
#1406=AXIS2_PLACEMENT_3D('',#2176,#1771,#1772);
#1407=AXIS2_PLACEMENT_3D('',#2184,#1773,#1774);
#1408=AXIS2_PLACEMENT_3D('',#2185,#1775,#1776);
#1409=AXIS2_PLACEMENT_3D('',#2186,#1777,#1778);
#1410=AXIS2_PLACEMENT_3D('',#2187,#1779,#1780);
#1411=AXIS2_PLACEMENT_3D('',#2188,#1781,#1782);
#1412=AXIS2_PLACEMENT_3D('',#2189,#1783,#1784);
#1413=AXIS2_PLACEMENT_3D('',#2190,#1785,#1786);
#1414=AXIS2_PLACEMENT_3D('',#2191,#1787,#1788);
#1415=AXIS2_PLACEMENT_3D('',#2192,#1789,#1790);
#1416=AXIS2_PLACEMENT_3D('',#2193,#1791,#1792);
#1417=DIRECTION('',(0.,0.,1.));
#1418=DIRECTION('',(1.,0.,0.));
#1419=DIRECTION('',(0.,1.,0.));
#1420=DIRECTION('',(1.,0.,0.));
#1421=DIRECTION('',(0.889817462812737,0.,0.456316647596276));
#1422=DIRECTION('',(0.,0.,1.));
#1423=DIRECTION('',(-1.,0.,0.));
#1424=DIRECTION('',(0.707106781186548,0.,-0.707106781186548));
#1425=DIRECTION('',(0.,0.,-1.));
#1426=DIRECTION('',(0.,1.,0.));
#1427=DIRECTION('',(1.,0.,0.));
#1428=DIRECTION('',(0.,1.,0.));
#1429=DIRECTION('',(1.,0.,0.));
#1430=DIRECTION('',(0.,-1.,0.));
#1431=DIRECTION('',(1.,0.,0.));
#1432=DIRECTION('',(0.,1.,0.));
#1433=DIRECTION('',(1.,0.,0.));
#1434=DIRECTION('',(-0.889817462812737,0.,-0.456316647596276));
#1435=DIRECTION('',(0.,0.,-1.));
#1436=DIRECTION('',(1.,0.,0.));
#1437=DIRECTION('',(0.,0.,-1.));
#1438=DIRECTION('',(0.889817462812737,0.,-0.456316647596276));
#1439=DIRECTION('',(0.,1.,0.));
#1440=DIRECTION('',(1.,0.,0.));
#1441=DIRECTION('',(0.,0.,1.));
#1442=DIRECTION('',(-0.707106781186549,0.,-0.707106781186547));
#1443=DIRECTION('',(-0.99998329421395,0.,-0.00578025025557213));
#1444=DIRECTION('',(0.,1.,0.));
#1445=DIRECTION('',(1.,0.,0.));
#1446=DIRECTION('',(0.,0.,1.));
#1447=DIRECTION('',(0.,1.,0.));
#1448=DIRECTION('',(1.,0.,0.));
#1449=DIRECTION('',(-1.,0.,0.));
#1450=DIRECTION('',(0.,0.,1.));
#1451=DIRECTION('',(-0.889817462812737,0.,0.456316647596275));
#1452=DIRECTION('',(0.,1.,0.));
#1453=DIRECTION('',(1.,0.,0.));
#1454=DIRECTION('',(1.,0.,0.));
#1455=DIRECTION('',(0.,1.,0.));
#1456=DIRECTION('',(1.,0.,0.));
#1457=DIRECTION('',(0.,0.,1.));
#1458=DIRECTION('',(0.,1.,0.));
#1459=DIRECTION('',(1.,0.,0.));
#1460=DIRECTION('',(1.,0.,0.));
#1461=DIRECTION('',(0.,1.,0.));
#1462=DIRECTION('',(1.,0.,0.));
#1463=DIRECTION('',(0.,1.,0.));
#1464=DIRECTION('',(1.,0.,0.));
#1465=DIRECTION('',(-0.99998329421395,0.,-0.00578025025557213));
#1466=DIRECTION('',(0.707106781186549,0.,0.707106781186547));
#1467=DIRECTION('',(0.,0.,1.));
#1468=DIRECTION('',(0.,1.,0.));
#1469=DIRECTION('',(1.,0.,0.));
#1470=DIRECTION('',(0.889817462812737,0.,-0.456316647596276));
#1471=DIRECTION('',(-1.,0.,0.));
#1472=DIRECTION('',(-0.889817462812737,0.,-0.456316647596276));
#1473=DIRECTION('',(0.,1.,0.));
#1474=DIRECTION('',(1.,0.,0.));
#1475=DIRECTION('',(1.,0.,0.));
#1476=DIRECTION('',(0.,1.,0.));
#1477=DIRECTION('',(1.,0.,0.));
#1478=DIRECTION('',(0.,0.,1.));
#1479=DIRECTION('',(0.,1.,0.));
#1480=DIRECTION('',(1.,0.,0.));
#1481=DIRECTION('',(1.,0.,0.));
#1482=DIRECTION('',(0.,1.,0.));
#1483=DIRECTION('',(1.,0.,0.));
#1484=DIRECTION('',(-0.889817462812737,0.,0.456316647596275));
#1485=DIRECTION('',(1.,0.,0.));
#1486=DIRECTION('',(0.889817462812737,0.,0.456316647596276));
#1487=DIRECTION('',(0.,1.,0.));
#1488=DIRECTION('',(1.,0.,0.));
#1489=DIRECTION('',(0.,0.,-1.));
#1490=DIRECTION('',(-0.707106781186548,0.,0.707106781186548));
#1491=DIRECTION('',(-1.,0.,0.));
#1492=DIRECTION('',(0.,1.,0.));
#1493=DIRECTION('',(1.,0.,0.));
#1494=DIRECTION('',(0.,0.,1.));
#1495=DIRECTION('',(0.,1.,0.));
#1496=DIRECTION('',(1.,0.,0.));
#1497=DIRECTION('',(0.,1.,0.));
#1498=DIRECTION('',(1.,0.,0.));
#1499=DIRECTION('',(0.,1.,0.));
#1500=DIRECTION('',(1.,0.,0.));
#1501=DIRECTION('',(0.,0.,-1.));
#1502=DIRECTION('',(0.,1.,0.));
#1503=DIRECTION('',(0.,-1.,0.));
#1504=DIRECTION('',(1.,0.,0.));
#1505=DIRECTION('',(0.,-1.,0.));
#1506=DIRECTION('',(0.456316647596275,0.,0.889817462812737));
#1507=DIRECTION('',(0.889817462812737,0.,-0.456316647596275));
#1508=DIRECTION('',(0.,-1.,0.));
#1509=DIRECTION('',(0.456316647596275,0.,0.889817462812737));
#1510=DIRECTION('',(-0.889817462812737,0.,0.456316647596275));
#1511=DIRECTION('',(0.456316647596275,0.,0.889817462812737));
#1512=DIRECTION('',(-0.889817462812737,0.,0.456316647596275));
#1513=DIRECTION('',(0.,0.,-1.));
#1514=DIRECTION('',(0.,1.,0.));
#1515=DIRECTION('',(0.,-1.,0.));
#1516=DIRECTION('',(0.,-1.,0.));
#1517=DIRECTION('',(1.,0.,0.));
#1518=DIRECTION('',(0.,-1.,0.));
#1519=DIRECTION('',(0.,-1.,0.));
#1520=DIRECTION('',(0.,-1.,0.));
#1521=DIRECTION('',(0.,0.,-1.));
#1522=DIRECTION('',(0.,1.,0.));
#1523=DIRECTION('',(0.,-1.,0.));
#1524=DIRECTION('',(0.,-1.,0.));
#1525=DIRECTION('',(-0.456316647596276,0.,0.889817462812737));
#1526=DIRECTION('',(0.889817462812737,0.,0.456316647596276));
#1527=DIRECTION('',(-0.456316647596276,0.,0.889817462812737));
#1528=DIRECTION('',(0.889817462812737,0.,0.456316647596276));
#1529=DIRECTION('',(-0.456316647596276,0.,0.889817462812737));
#1530=DIRECTION('',(0.889817462812737,0.,0.456316647596276));
#1531=DIRECTION('',(0.,-1.,0.));
#1532=DIRECTION('',(0.,-1.,0.));
#1533=DIRECTION('',(0.,0.,1.));
#1534=DIRECTION('',(0.,-1.,0.));
#1535=DIRECTION('',(0.,-1.,0.));
#1536=DIRECTION('',(-1.,0.,0.));
#1537=DIRECTION('',(-0.456316647596276,0.,-0.889817462812737));
#1538=DIRECTION('',(-0.889817462812737,0.,0.456316647596276));
#1539=DIRECTION('',(0.,-1.,0.));
#1540=DIRECTION('',(-0.456316647596276,0.,-0.889817462812737));
#1541=DIRECTION('',(0.889817462812737,0.,-0.456316647596276));
#1542=DIRECTION('',(-0.456316647596276,0.,-0.889817462812737));
#1543=DIRECTION('',(0.889817462812737,0.,-0.456316647596276));
#1544=DIRECTION('',(1.,0.,0.));
#1545=DIRECTION('',(0.,-1.,0.));
#1546=DIRECTION('',(0.,1.,0.));
#1547=DIRECTION('',(0.,-1.,0.));
#1548=DIRECTION('',(-0.00578025025557213,0.,0.99998329421395));
#1549=DIRECTION('',(0.99998329421395,0.,0.00578025025557213));
#1550=DIRECTION('',(0.,-1.,0.));
#1551=DIRECTION('',(0.,-1.,0.));
#1552=DIRECTION('',(1.,0.,0.));
#1553=DIRECTION('',(0.,-1.,0.));
#1554=DIRECTION('',(0.,-1.,0.));
#1555=DIRECTION('',(0.,-1.,0.));
#1556=DIRECTION('',(0.,0.,1.));
#1557=DIRECTION('',(0.,-1.,0.));
#1558=DIRECTION('',(0.,0.,1.));
#1559=DIRECTION('',(0.,-1.,0.));
#1560=DIRECTION('',(-1.,0.,0.));
#1561=DIRECTION('',(0.,0.,1.));
#1562=DIRECTION('',(0.,-1.,0.));
#1563=DIRECTION('',(0.,-1.,0.));
#1564=DIRECTION('',(0.,0.,1.));
#1565=DIRECTION('',(0.,-1.,0.));
#1566=DIRECTION('',(0.,-1.,0.));
#1567=DIRECTION('',(0.,1.,0.));
#1568=DIRECTION('',(0.,0.,1.));
#1569=DIRECTION('',(0.,-1.,0.));
#1570=DIRECTION('',(0.,-1.,0.));
#1571=DIRECTION('',(-1.,0.,0.));
#1572=DIRECTION('',(0.,1.,0.));
#1573=DIRECTION('',(0.,-1.,0.));
#1574=DIRECTION('',(0.,-1.,0.));
#1575=DIRECTION('',(0.456316647596276,0.,-0.889817462812736));
#1576=DIRECTION('',(-0.889817462812737,0.,-0.456316647596277));
#1577=DIRECTION('',(0.456316647596276,0.,-0.889817462812736));
#1578=DIRECTION('',(-0.889817462812737,0.,-0.456316647596277));
#1579=DIRECTION('',(0.456316647596276,0.,-0.889817462812736));
#1580=DIRECTION('',(-0.889817462812737,0.,-0.456316647596277));
#1581=DIRECTION('',(0.,-1.,0.));
#1582=DIRECTION('',(0.,1.,0.));
#1583=DIRECTION('',(1.,0.,0.));
#1584=DIRECTION('',(0.,-1.,0.));
#1585=DIRECTION('',(-1.,0.,0.));
#1586=DIRECTION('',(0.,1.,0.));
#1587=DIRECTION('',(1.,0.,0.));
#1588=DIRECTION('',(0.,-1.,0.));
#1589=DIRECTION('',(-1.,0.,0.));
#1590=DIRECTION('',(0.,1.,0.));
#1591=DIRECTION('',(1.,0.,0.));
#1592=DIRECTION('',(0.,-1.,0.));
#1593=DIRECTION('',(-1.,0.,0.));
#1594=DIRECTION('',(0.,-1.,0.));
#1595=DIRECTION('',(-1.,0.,0.));
#1596=DIRECTION('',(0.,1.,0.));
#1597=DIRECTION('',(1.,0.,0.));
#1598=DIRECTION('',(0.707106781186546,0.,-0.707106781186549));
#1599=DIRECTION('',(0.,1.,0.));
#1600=DIRECTION('',(0.707106781186548,0.,0.707106781186548));
#1601=DIRECTION('',(0.,1.,0.));
#1602=DIRECTION('',(0.,1.,0.));
#1603=DIRECTION('',(1.,0.,0.));
#1604=DIRECTION('',(0.,1.,0.));
#1605=DIRECTION('',(1.,0.,0.));
#1606=DIRECTION('',(0.,0.,-1.));
#1607=DIRECTION('',(0.,1.,0.));
#1608=DIRECTION('',(0.,0.,-1.));
#1609=DIRECTION('',(0.,1.,0.));
#1610=DIRECTION('',(1.,0.,0.));
#1611=DIRECTION('',(0.,0.,-1.));
#1612=DIRECTION('',(0.,1.,0.));
#1613=DIRECTION('',(0.,-1.,0.));
#1614=DIRECTION('',(0.,0.,-1.));
#1615=DIRECTION('',(0.,1.,0.));
#1616=DIRECTION('',(0.,0.,-1.));
#1617=DIRECTION('',(0.,1.,0.));
#1618=DIRECTION('',(0.,-1.,0.));
#1619=DIRECTION('',(-1.,0.,0.));
#1620=DIRECTION('',(0.,1.,0.));
#1621=DIRECTION('',(0.,-1.,0.));
#1622=DIRECTION('',(0.,0.,-1.));
#1623=DIRECTION('',(0.,0.,-1.));
#1624=DIRECTION('',(0.,0.,1.));
#1625=DIRECTION('',(0.,-1.,0.));
#1626=DIRECTION('',(-1.,0.,0.));
#1627=DIRECTION('',(0.,-1.,0.));
#1628=DIRECTION('',(-1.,0.,0.));
#1629=DIRECTION('',(0.,0.,1.));
#1630=DIRECTION('',(0.,-1.,0.));
#1631=DIRECTION('',(-1.,0.,0.));
#1632=DIRECTION('',(0.,-1.,0.));
#1633=DIRECTION('',(0.,0.,1.));
#1634=DIRECTION('',(0.,-1.,0.));
#1635=DIRECTION('',(-1.,0.,0.));
#1636=DIRECTION('',(0.,-1.,0.));
#1637=DIRECTION('',(-1.,0.,0.));
#1638=DIRECTION('',(0.,1.,0.));
#1639=DIRECTION('',(0.,0.,-1.));
#1640=DIRECTION('',(0.,0.,-1.));
#1641=DIRECTION('',(1.,0.,0.));
#1642=DIRECTION('',(0.,-1.,0.));
#1643=DIRECTION('',(0.,-1.,0.));
#1644=DIRECTION('',(0.,0.,1.));
#1645=DIRECTION('',(0.,0.,1.));
#1646=DIRECTION('',(0.,0.,-1.));
#1647=DIRECTION('',(0.,1.,0.));
#1648=DIRECTION('',(1.,0.,0.));
#1649=DIRECTION('',(0.,-1.,0.));
#1650=DIRECTION('',(1.,0.,0.));
#1651=DIRECTION('',(0.,0.,-1.));
#1652=DIRECTION('',(0.,1.,0.));
#1653=DIRECTION('',(1.,0.,0.));
#1654=DIRECTION('',(0.,-1.,0.));
#1655=DIRECTION('',(0.,0.,-1.));
#1656=DIRECTION('',(0.,1.,0.));
#1657=DIRECTION('',(1.,0.,0.));
#1658=DIRECTION('',(0.,-1.,0.));
#1659=DIRECTION('',(1.,0.,0.));
#1660=DIRECTION('',(0.,-1.,0.));
#1661=DIRECTION('',(0.,0.,1.));
#1662=DIRECTION('',(0.,0.,1.));
#1663=DIRECTION('',(0.,0.,1.));
#1664=DIRECTION('',(0.,-1.,0.));
#1665=DIRECTION('',(-0.707106781186548,0.,0.707106781186548));
#1666=DIRECTION('',(-0.707106781186548,0.,-0.707106781186548));
#1667=DIRECTION('',(0.,0.,-1.));
#1668=DIRECTION('',(0.,1.,0.));
#1669=DIRECTION('',(-0.707106781186548,0.,-0.707106781186548));
#1670=DIRECTION('',(-0.707106781186548,0.,0.707106781186548));
#1671=DIRECTION('',(-1.,0.,0.));
#1672=DIRECTION('',(0.,1.,0.));
#1673=DIRECTION('',(0.,0.,-1.));
#1674=DIRECTION('',(0.,1.,0.));
#1675=DIRECTION('',(0.707106781186548,0.,-0.707106781186548));
#1676=DIRECTION('',(0.707106781186548,0.,0.707106781186548));
#1677=DIRECTION('',(0.,0.,1.));
#1678=DIRECTION('',(0.,-1.,0.));
#1679=DIRECTION('',(0.707106781186548,0.,0.707106781186548));
#1680=DIRECTION('',(0.707106781186548,0.,-0.707106781186548));
#1681=DIRECTION('',(1.,0.,0.));
#1682=DIRECTION('',(0.,-1.,0.));
#1683=DIRECTION('',(1.,0.,0.));
#1684=DIRECTION('',(0.,-1.,0.));
#1685=DIRECTION('',(0.,0.,1.));
#1686=DIRECTION('',(0.,-1.,0.));
#1687=DIRECTION('',(0.,0.,1.));
#1688=DIRECTION('',(0.,-1.,0.));
#1689=DIRECTION('',(0.,0.,-1.));
#1690=DIRECTION('',(0.,1.,0.));
#1691=DIRECTION('',(1.,0.,0.));
#1692=DIRECTION('',(0.,-1.,0.));
#1693=DIRECTION('',(1.,0.,0.));
#1694=DIRECTION('',(0.,-1.,0.));
#1695=DIRECTION('',(1.,0.,0.));
#1696=DIRECTION('',(0.,-1.,0.));
#1697=DIRECTION('',(0.,0.,1.));
#1698=DIRECTION('',(0.,-1.,0.));
#1699=DIRECTION('',(0.,0.,1.));
#1700=DIRECTION('',(0.,-1.,0.));
#1701=DIRECTION('',(0.,1.,0.));
#1702=DIRECTION('',(1.,0.,0.));
#1703=DIRECTION('',(0.,1.,0.));
#1704=DIRECTION('',(1.,0.,0.));
#1705=DIRECTION('',(0.,1.,0.));
#1706=DIRECTION('',(1.,0.,0.));
#1707=DIRECTION('',(0.,1.,0.));
#1708=DIRECTION('',(1.,0.,0.));
#1709=DIRECTION('',(0.,1.,0.));
#1710=DIRECTION('',(1.,0.,0.));
#1711=DIRECTION('',(0.,1.,0.));
#1712=DIRECTION('',(1.,0.,0.));
#1713=DIRECTION('',(0.,0.,1.));
#1714=DIRECTION('',(-1.,0.,0.));
#1715=DIRECTION('',(0.,0.,1.));
#1716=DIRECTION('',(0.,1.,0.));
#1717=DIRECTION('',(1.,0.,0.));
#1718=DIRECTION('',(0.,1.,0.));
#1719=DIRECTION('',(1.,0.,0.));
#1720=DIRECTION('',(0.,1.,0.));
#1721=DIRECTION('',(1.,0.,0.));
#1722=DIRECTION('',(0.,1.,0.));
#1723=DIRECTION('',(1.,0.,0.));
#1724=DIRECTION('',(-1.,0.,0.));
#1725=DIRECTION('',(0.,1.,0.));
#1726=DIRECTION('',(0.,0.,-1.));
#1727=DIRECTION('',(0.,-1.,0.));
#1728=DIRECTION('',(0.,0.,-1.));
#1729=DIRECTION('',(0.,-1.,0.));
#1730=DIRECTION('',(-1.,0.,0.));
#1731=DIRECTION('',(0.,1.,0.));
#1732=DIRECTION('',(0.,0.,-1.));
#1733=DIRECTION('',(0.,-1.,0.));
#1734=DIRECTION('',(0.,0.,-1.));
#1735=DIRECTION('',(0.,-1.,0.));
#1736=DIRECTION('',(2.35216742505329E-16,0.,1.));
#1737=DIRECTION('',(1.,0.,-2.35216742505329E-16));
#1738=DIRECTION('',(-1.,0.,2.35216742505329E-16));
#1739=DIRECTION('',(0.,-1.,0.));
#1740=DIRECTION('',(-1.,0.,2.35216742505329E-16));
#1741=DIRECTION('',(0.,-1.,0.));
#1742=DIRECTION('',(0.,1.,0.));
#1743=DIRECTION('',(1.,0.,0.));
#1744=DIRECTION('',(0.,1.,0.));
#1745=DIRECTION('',(1.,0.,0.));
#1746=DIRECTION('',(0.,1.,0.));
#1747=DIRECTION('',(1.,0.,0.));
#1748=DIRECTION('',(0.,1.,0.));
#1749=DIRECTION('',(1.,0.,0.));
#1750=DIRECTION('',(0.,1.,0.));
#1751=DIRECTION('',(1.,0.,0.));
#1752=DIRECTION('',(0.,1.,0.));
#1753=DIRECTION('',(1.,0.,0.));
#1754=DIRECTION('',(0.,0.,-1.));
#1755=DIRECTION('',(1.,0.,0.));
#1756=DIRECTION('',(0.,0.,-1.));
#1757=DIRECTION('',(0.,1.,0.));
#1758=DIRECTION('',(1.,0.,0.));
#1759=DIRECTION('',(0.,1.,0.));
#1760=DIRECTION('',(1.,0.,0.));
#1761=DIRECTION('',(0.,1.,0.));
#1762=DIRECTION('',(1.,0.,0.));
#1763=DIRECTION('',(0.,1.,0.));
#1764=DIRECTION('',(1.,0.,0.));
#1765=DIRECTION('',(0.,0.,1.));
#1766=DIRECTION('',(0.,-1.,0.));
#1767=DIRECTION('',(0.,0.,-1.));
#1768=DIRECTION('',(0.,1.,0.));
#1769=DIRECTION('',(0.,0.,-1.));
#1770=DIRECTION('',(0.,1.,0.));
#1771=DIRECTION('',(0.,0.,1.));
#1772=DIRECTION('',(0.,-1.,0.));
#1773=DIRECTION('',(-1.,0.,0.));
#1774=DIRECTION('',(0.,1.,0.));
#1775=DIRECTION('',(1.,0.,0.));
#1776=DIRECTION('',(0.,-1.,0.));
#1777=DIRECTION('',(0.,-1.,0.));
#1778=DIRECTION('',(-1.,0.,0.));
#1779=DIRECTION('',(0.,1.,0.));
#1780=DIRECTION('',(1.,0.,0.));
#1781=DIRECTION('',(0.,1.,0.));
#1782=DIRECTION('',(1.,0.,0.));
#1783=DIRECTION('',(0.,-1.,0.));
#1784=DIRECTION('',(-1.,0.,0.));
#1785=DIRECTION('',(0.,1.,0.));
#1786=DIRECTION('',(1.,0.,0.));
#1787=DIRECTION('',(0.,-1.,0.));
#1788=DIRECTION('',(-1.,0.,0.));
#1789=DIRECTION('',(0.,-1.,0.));
#1790=DIRECTION('',(-1.,0.,0.));
#1791=DIRECTION('',(0.,1.,0.));
#1792=DIRECTION('',(1.,0.,0.));
#1793=CARTESIAN_POINT('',(0.,0.,0.));
#1794=CARTESIAN_POINT('',(0.074,0.006,-0.0545));
#1795=CARTESIAN_POINT('',(0.09375,0.006,-0.1255));
#1796=CARTESIAN_POINT('',(0.096,0.006,-0.124346153846154));
#1797=CARTESIAN_POINT('',(0.100781583237981,0.006,-0.121894059877958));
#1798=CARTESIAN_POINT('',(0.096,0.006,-0.1095));
#1799=CARTESIAN_POINT('',(0.096,0.006,-0.1095));
#1800=CARTESIAN_POINT('',(0.06025,0.006,-0.1095));
#1801=CARTESIAN_POINT('',(0.1005,0.006,-0.1095));
#1802=CARTESIAN_POINT('',(0.05975,0.006,-0.06875));
#1803=CARTESIAN_POINT('',(0.1035,0.006,-0.1125));
#1804=CARTESIAN_POINT('',(0.1035,0.006,-0.115));
#1805=CARTESIAN_POINT('',(0.1035,0.006,-0.117444972563895));
#1806=CARTESIAN_POINT('',(0.0985,0.006,-0.117444972563895));
#1807=CARTESIAN_POINT('',(0.074,0.006,-0.0545));
#1808=CARTESIAN_POINT('',(0.0085,0.006,-0.099375));
#1809=CARTESIAN_POINT('',(0.0115,0.006,-0.099375));
#1810=CARTESIAN_POINT('',(0.0085,0.006,-0.009625));
#1811=CARTESIAN_POINT('',(0.0115,0.006,-0.009625));
#1812=CARTESIAN_POINT('',(0.05425,0.006,0.0165));
#1813=CARTESIAN_POINT('',(0.052,0.006,0.0153461538461539));
#1814=CARTESIAN_POINT('',(0.0455742797375758,0.006,0.0120509126859363));
#1815=CARTESIAN_POINT('',(0.052,0.006,0.000500000000000014));
#1816=CARTESIAN_POINT('',(0.052,0.006,0.000500000000000014));
#1817=CARTESIAN_POINT('',(0.068,0.006,0.000500000000000014));
#1818=CARTESIAN_POINT('',(0.096,0.006,0.000500000000000014));
#1819=CARTESIAN_POINT('',(0.096,0.006,-0.0545));
#1820=CARTESIAN_POINT('',(0.096,0.006,0.0153461538461539));
#1821=CARTESIAN_POINT('',(0.09375,0.006,0.0165));
#1822=CARTESIAN_POINT('',(0.100781583237981,0.006,0.0128940598779583));
#1823=CARTESIAN_POINT('',(0.0985,0.006,0.00844497256389459));
#1824=CARTESIAN_POINT('',(0.1035,0.006,0.00844497256389459));
#1825=CARTESIAN_POINT('',(0.1035,0.006,0.006));
#1826=CARTESIAN_POINT('',(0.1035,0.006,0.0035));
#1827=CARTESIAN_POINT('',(0.05975,0.006,-0.04025));
#1828=CARTESIAN_POINT('',(0.100482558139535,0.006,0.000482558139534898));
#1829=CARTESIAN_POINT('',(0.06025,0.006,0.000250000000000007));
#1830=CARTESIAN_POINT('',(0.0219710987487222,0.006,2.87346748481057E-5));
#1831=CARTESIAN_POINT('',(0.022,0.006,-0.00497118179622164));
#1832=CARTESIAN_POINT('',(0.017,0.006,-0.00497118179622164));
#1833=CARTESIAN_POINT('',(0.017,0.006,-0.05475));
#1834=CARTESIAN_POINT('',(0.017,0.006,-0.1045));
#1835=CARTESIAN_POINT('',(0.022,0.006,-0.1045));
#1836=CARTESIAN_POINT('',(0.022,0.006,-0.1095));
#1837=CARTESIAN_POINT('',(0.06025,0.006,-0.1095));
#1838=CARTESIAN_POINT('',(0.052,0.006,-0.1095));
#1839=CARTESIAN_POINT('',(0.052,0.006,-0.0545));
#1840=CARTESIAN_POINT('',(0.052,0.006,-0.124346153846154));
#1841=CARTESIAN_POINT('',(0.05425,0.006,-0.1255));
#1842=CARTESIAN_POINT('',(0.0455742797375758,0.006,-0.121050912685936));
#1843=CARTESIAN_POINT('',(0.0432926964995944,0.006,-0.1255));
#1844=CARTESIAN_POINT('',(0.0432926964995944,0.006,-0.1205));
#1845=CARTESIAN_POINT('',(0.02225,0.006,-0.1205));
#1846=CARTESIAN_POINT('',(0.01,0.006,-0.1205));
#1847=CARTESIAN_POINT('',(0.01,0.006,-0.1105));
#1848=CARTESIAN_POINT('',(0.,0.006,-0.1105));
#1849=CARTESIAN_POINT('',(0.,0.006,-0.0875));
#1850=CARTESIAN_POINT('',(0.,0.006,0.0015));
#1851=CARTESIAN_POINT('',(0.01,0.006,0.0015));
#1852=CARTESIAN_POINT('',(0.01,0.006,0.0115));
#1853=CARTESIAN_POINT('',(0.02225,0.006,0.0115));
#1854=CARTESIAN_POINT('',(0.0432926964995944,0.006,0.0115));
#1855=CARTESIAN_POINT('',(0.0432926964995944,0.006,0.0165));
#1856=CARTESIAN_POINT('',(0.074,0.,-0.0545));
#1857=CARTESIAN_POINT('',(0.06025,0.,0.000250000000000007));
#1858=CARTESIAN_POINT('',(0.100482558139535,0.,0.000482558139534898));
#1859=CARTESIAN_POINT('',(0.0219710987487222,0.,2.87346748481057E-5));
#1860=CARTESIAN_POINT('',(0.100482558139535,0.,0.000482558139534898));
#1861=CARTESIAN_POINT('',(0.1035,0.,0.0035));
#1862=CARTESIAN_POINT('',(0.1035,0.,0.006));
#1863=CARTESIAN_POINT('',(0.1035,0.,0.00844497256389459));
#1864=CARTESIAN_POINT('',(0.0985,0.,0.00844497256389459));
#1865=CARTESIAN_POINT('',(0.100781583237981,0.,0.0128940598779583));
#1866=CARTESIAN_POINT('',(0.09375,0.,0.0165));
#1867=CARTESIAN_POINT('',(0.084,0.,0.0215));
#1868=CARTESIAN_POINT('',(0.069,0.,0.0215));
#1869=CARTESIAN_POINT('',(0.064,0.,0.0215));
#1870=CARTESIAN_POINT('',(0.05425,0.,0.0165));
#1871=CARTESIAN_POINT('',(0.0455742797375758,0.,0.0120509126859363));
#1872=CARTESIAN_POINT('',(0.0432926964995944,0.,0.0165));
#1873=CARTESIAN_POINT('',(0.0432926964995944,0.,0.0115));
#1874=CARTESIAN_POINT('',(0.02225,0.,0.0115));
#1875=CARTESIAN_POINT('',(0.01,0.,0.0115));
#1876=CARTESIAN_POINT('',(0.01,0.,0.0015));
#1877=CARTESIAN_POINT('',(0.,0.,0.0015));
#1878=CARTESIAN_POINT('',(0.,0.,-0.0875));
#1879=CARTESIAN_POINT('',(0.,0.,-0.1105));
#1880=CARTESIAN_POINT('',(0.01,0.,-0.1105));
#1881=CARTESIAN_POINT('',(0.01,0.,-0.1205));
#1882=CARTESIAN_POINT('',(0.02225,0.,-0.1205));
#1883=CARTESIAN_POINT('',(0.0432926964995944,0.,-0.1205));
#1884=CARTESIAN_POINT('',(0.0432926964995944,0.,-0.1255));
#1885=CARTESIAN_POINT('',(0.0455742797375758,0.,-0.121050912685936));
#1886=CARTESIAN_POINT('',(0.05425,0.,-0.1255));
#1887=CARTESIAN_POINT('',(0.064,0.,-0.1305));
#1888=CARTESIAN_POINT('',(0.079,0.,-0.1305));
#1889=CARTESIAN_POINT('',(0.084,0.,-0.1305));
#1890=CARTESIAN_POINT('',(0.09375,0.,-0.1255));
#1891=CARTESIAN_POINT('',(0.100781583237981,0.,-0.121894059877958));
#1892=CARTESIAN_POINT('',(0.0985,0.,-0.117444972563895));
#1893=CARTESIAN_POINT('',(0.1035,0.,-0.117444972563895));
#1894=CARTESIAN_POINT('',(0.1035,0.,-0.115));
#1895=CARTESIAN_POINT('',(0.1035,0.,-0.1125));
#1896=CARTESIAN_POINT('',(0.1035,0.,-0.1125));
#1897=CARTESIAN_POINT('',(0.1005,0.,-0.1095));
#1898=CARTESIAN_POINT('',(0.06025,0.,-0.1095));
#1899=CARTESIAN_POINT('',(0.022,0.,-0.1095));
#1900=CARTESIAN_POINT('',(0.022,0.,-0.1045));
#1901=CARTESIAN_POINT('',(0.017,0.,-0.1045));
#1902=CARTESIAN_POINT('',(0.017,0.,-0.05475));
#1903=CARTESIAN_POINT('',(0.017,0.,-0.00497118179622164));
#1904=CARTESIAN_POINT('',(0.022,0.,-0.00497118179622164));
#1905=CARTESIAN_POINT('',(0.0085,0.,-0.099375));
#1906=CARTESIAN_POINT('',(0.0115,0.,-0.099375));
#1907=CARTESIAN_POINT('',(0.0085,0.,-0.009625));
#1908=CARTESIAN_POINT('',(0.0115,0.,-0.009625));
#1909=CARTESIAN_POINT('',(0.079,0.006,-0.1305));
#1910=CARTESIAN_POINT('',(0.064,0.006,-0.1305));
#1911=CARTESIAN_POINT('',(0.064,0.006,-0.1305));
#1912=CARTESIAN_POINT('',(0.079,0.006,-0.1305));
#1913=CARTESIAN_POINT('',(0.084,0.006,-0.1305));
#1914=CARTESIAN_POINT('',(0.084,0.006,-0.1305));
#1915=CARTESIAN_POINT('',(0.05425,0.006,-0.1255));
#1916=CARTESIAN_POINT('',(0.0455742797375758,0.006,-0.121050912685936));
#1917=CARTESIAN_POINT('',(0.052,0.016,-0.124346153846154));
#1918=CARTESIAN_POINT('',(0.0560677966101695,0.00686473696392415,-0.12643220338983));
#1919=CARTESIAN_POINT('',(0.064,0.016,-0.1305));
#1920=CARTESIAN_POINT('',(0.02225,0.006,-0.1205));
#1921=CARTESIAN_POINT('',(0.0432926964995944,0.006,-0.1205));
#1922=CARTESIAN_POINT('',(0.01,0.006,-0.1205));
#1923=CARTESIAN_POINT('',(0.,0.006,-0.0875));
#1924=CARTESIAN_POINT('',(0.,0.,-0.1105));
#1925=CARTESIAN_POINT('',(0.,0.006,0.0015));
#1926=CARTESIAN_POINT('',(0.02225,0.006,0.0115));
#1927=CARTESIAN_POINT('',(0.0432926964995944,0.006,0.0115));
#1928=CARTESIAN_POINT('',(0.01,0.006,0.0115));
#1929=CARTESIAN_POINT('',(0.05425,0.006,0.0165));
#1930=CARTESIAN_POINT('',(0.064,0.016,0.0215));
#1931=CARTESIAN_POINT('',(0.064,0.006,0.0215));
#1932=CARTESIAN_POINT('',(0.0560677966101695,0.00686473696392415,0.0174322033898306));
#1933=CARTESIAN_POINT('',(0.052,0.016,0.0153461538461539));
#1934=CARTESIAN_POINT('',(0.0455742797375758,0.006,0.0120509126859363));
#1935=CARTESIAN_POINT('',(0.064,0.006,0.0215));
#1936=CARTESIAN_POINT('',(0.069,0.006,0.0215));
#1937=CARTESIAN_POINT('',(0.084,0.006,0.0215));
#1938=CARTESIAN_POINT('',(0.084,0.006,0.0215));
#1939=CARTESIAN_POINT('',(0.069,0.006,0.0215));
#1940=CARTESIAN_POINT('',(0.09375,0.006,0.0165));
#1941=CARTESIAN_POINT('',(0.100781583237981,0.006,0.0128940598779583));
#1942=CARTESIAN_POINT('',(0.096,0.016,0.0153461538461538));
#1943=CARTESIAN_POINT('',(0.0919322033898305,0.00686473696392416,0.0174322033898306));
#1944=CARTESIAN_POINT('',(0.084,0.016,0.0215));
#1945=CARTESIAN_POINT('',(0.1035,0.006,0.006));
#1946=CARTESIAN_POINT('',(0.1035,0.006,0.0035));
#1947=CARTESIAN_POINT('',(0.1035,0.,0.00844497256389459));
#1948=CARTESIAN_POINT('',(0.06025,0.006,0.000250000000000007));
#1949=CARTESIAN_POINT('',(0.100482558139535,0.,0.000482558139534898));
#1950=CARTESIAN_POINT('',(0.0219710987487222,0.006,2.87346748481057E-5));
#1951=CARTESIAN_POINT('',(0.017,0.006,-0.05475));
#1952=CARTESIAN_POINT('',(0.017,0.006,-0.00497118179622164));
#1953=CARTESIAN_POINT('',(0.017,0.006,-0.1045));
#1954=CARTESIAN_POINT('',(0.06025,0.006,-0.1095));
#1955=CARTESIAN_POINT('',(0.096,0.1162,-0.1095));
#1956=CARTESIAN_POINT('',(0.086,0.1162,-0.1095));
#1957=CARTESIAN_POINT('',(0.0873397459621556,0.1212,-0.1095));
#1958=CARTESIAN_POINT('',(0.06025,0.1212,-0.1095));
#1959=CARTESIAN_POINT('',(0.0606602540378444,0.1212,-0.1095));
#1960=CARTESIAN_POINT('',(0.052,0.1162,-0.1095));
#1961=CARTESIAN_POINT('',(0.062,0.1162,-0.1095));
#1962=CARTESIAN_POINT('',(0.062,0.1262,-0.1095));
#1963=CARTESIAN_POINT('',(0.062,0.016,-0.1095));
#1964=CARTESIAN_POINT('',(0.052,0.016,-0.1095));
#1965=CARTESIAN_POINT('',(0.022,0.,-0.1095));
#1966=CARTESIAN_POINT('',(0.1005,0.006,-0.1095));
#1967=CARTESIAN_POINT('',(0.096,0.016,-0.1095));
#1968=CARTESIAN_POINT('',(0.086,0.016,-0.1095));
#1969=CARTESIAN_POINT('',(0.086,0.1262,-0.1095));
#1970=CARTESIAN_POINT('',(0.1035,0.006,-0.115));
#1971=CARTESIAN_POINT('',(0.1035,0.,-0.1125));
#1972=CARTESIAN_POINT('',(0.1035,0.006,-0.117444972563895));
#1973=CARTESIAN_POINT('',(0.09375,0.006,-0.1255));
#1974=CARTESIAN_POINT('',(0.084,0.016,-0.1305));
#1975=CARTESIAN_POINT('',(0.0919322033898305,0.00686473696392416,-0.12643220338983));
#1976=CARTESIAN_POINT('',(0.096,0.016,-0.124346153846154));
#1977=CARTESIAN_POINT('',(0.100781583237981,0.,-0.121894059877958));
#1978=CARTESIAN_POINT('',(0.01,0.006,-0.1105));
#1979=CARTESIAN_POINT('',(0.01,0.006,0.0015));
#1980=CARTESIAN_POINT('',(0.0985,0.006,0.00844497256389459));
#1981=CARTESIAN_POINT('',(0.0432926964995944,0.006,0.0165));
#1982=CARTESIAN_POINT('',(0.0985,0.006,-0.117444972563895));
#1983=CARTESIAN_POINT('',(0.0432926964995944,0.006,-0.1255));
#1984=CARTESIAN_POINT('',(0.022,0.006,-0.00497118179622164));
#1985=CARTESIAN_POINT('',(0.022,0.006,-0.1045));
#1986=CARTESIAN_POINT('',(0.100482558139535,0.006,0.000482558139534898));
#1987=CARTESIAN_POINT('',(0.1035,0.006,-0.1125));
#1988=CARTESIAN_POINT('',(0.0085,-0.019,-0.099375));
#1989=CARTESIAN_POINT('',(0.0085,-0.019,-0.009625));
#1990=CARTESIAN_POINT('',(0.068,0.1262,0.000500000000000014));
#1991=CARTESIAN_POINT('',(0.052,0.1162,0.000500000000000014));
#1992=CARTESIAN_POINT('',(0.062,0.1162,0.000500000000000014));
#1993=CARTESIAN_POINT('',(0.0606602540378444,0.1212,0.000500000000000014));
#1994=CARTESIAN_POINT('',(0.068,0.1212,0.000500000000000014));
#1995=CARTESIAN_POINT('',(0.0873397459621556,0.1212,0.000500000000000014));
#1996=CARTESIAN_POINT('',(0.096,0.1162,0.000500000000000014));
#1997=CARTESIAN_POINT('',(0.086,0.1162,0.000500000000000014));
#1998=CARTESIAN_POINT('',(0.086,0.1262,0.000500000000000014));
#1999=CARTESIAN_POINT('',(0.086,0.016,0.000500000000000014));
#2000=CARTESIAN_POINT('',(0.096,0.016,0.000500000000000014));
#2001=CARTESIAN_POINT('',(0.052,0.016,0.000500000000000014));
#2002=CARTESIAN_POINT('',(0.062,0.016,0.000500000000000014));
#2003=CARTESIAN_POINT('',(0.062,0.1262,0.000500000000000014));
#2004=CARTESIAN_POINT('',(0.062,0.1262,0.006));
#2005=CARTESIAN_POINT('',(0.062,0.1262,0.0115));
#2006=CARTESIAN_POINT('',(0.062,0.1162,0.0115));
#2007=CARTESIAN_POINT('',(0.062,0.016,0.0115));
#2008=CARTESIAN_POINT('',(0.062,0.1162,0.006));
#2009=CARTESIAN_POINT('',(0.062,0.016,0.0115));
#2010=CARTESIAN_POINT('',(0.068,0.1262,0.0115));
#2011=CARTESIAN_POINT('',(0.068,0.1312,0.0115));
#2012=CARTESIAN_POINT('',(0.0985,0.1312,0.0115));
#2013=CARTESIAN_POINT('',(0.0495,0.1312,0.0115));
#2014=CARTESIAN_POINT('',(0.0495,0.1262,0.0115));
#2015=CARTESIAN_POINT('',(0.0495,0.1262,0.0115));
#2016=CARTESIAN_POINT('',(0.068,0.1262,0.0115));
#2017=CARTESIAN_POINT('',(0.052,0.1262,0.0115));
#2018=CARTESIAN_POINT('',(0.052,0.1162,0.0115));
#2019=CARTESIAN_POINT('',(0.086,0.016,0.0115));
#2020=CARTESIAN_POINT('',(0.086,0.016,0.0115));
#2021=CARTESIAN_POINT('',(0.086,0.1262,0.0115));
#2022=CARTESIAN_POINT('',(0.086,0.1162,0.0115));
#2023=CARTESIAN_POINT('',(0.096,0.1162,0.0115));
#2024=CARTESIAN_POINT('',(0.096,0.1262,0.0115));
#2025=CARTESIAN_POINT('',(0.068,0.1262,0.0115));
#2026=CARTESIAN_POINT('',(0.0985,0.1262,0.0115));
#2027=CARTESIAN_POINT('',(0.0985,0.1312,0.0115));
#2028=CARTESIAN_POINT('',(0.086,0.1262,0.006));
#2029=CARTESIAN_POINT('',(0.086,0.1162,0.0115));
#2030=CARTESIAN_POINT('',(0.086,0.016,0.006));
#2031=CARTESIAN_POINT('',(0.086,0.1262,-0.115));
#2032=CARTESIAN_POINT('',(0.086,0.1262,-0.1205));
#2033=CARTESIAN_POINT('',(0.086,0.1162,-0.1205));
#2034=CARTESIAN_POINT('',(0.086,0.016,-0.1205));
#2035=CARTESIAN_POINT('',(0.086,0.1162,-0.115));
#2036=CARTESIAN_POINT('',(0.086,0.016,-0.1205));
#2037=CARTESIAN_POINT('',(0.08,0.1262,-0.1205));
#2038=CARTESIAN_POINT('',(0.08875,0.1312,-0.1205));
#2039=CARTESIAN_POINT('',(0.0495,0.1312,-0.1205));
#2040=CARTESIAN_POINT('',(0.0985,0.1312,-0.1205));
#2041=CARTESIAN_POINT('',(0.0985,0.1262,-0.1205));
#2042=CARTESIAN_POINT('',(0.0985,0.1262,-0.1205));
#2043=CARTESIAN_POINT('',(0.08875,0.1262,-0.1205));
#2044=CARTESIAN_POINT('',(0.096,0.1262,-0.1205));
#2045=CARTESIAN_POINT('',(0.096,0.1162,-0.1205));
#2046=CARTESIAN_POINT('',(0.062,0.016,-0.1205));
#2047=CARTESIAN_POINT('',(0.062,0.016,-0.1205));
#2048=CARTESIAN_POINT('',(0.062,0.1262,-0.1205));
#2049=CARTESIAN_POINT('',(0.062,0.1162,-0.1205));
#2050=CARTESIAN_POINT('',(0.052,0.1162,-0.1205));
#2051=CARTESIAN_POINT('',(0.052,0.1262,-0.1205));
#2052=CARTESIAN_POINT('',(0.08875,0.1262,-0.1205));
#2053=CARTESIAN_POINT('',(0.0495,0.1262,-0.1205));
#2054=CARTESIAN_POINT('',(0.0495,0.1312,-0.1205));
#2055=CARTESIAN_POINT('',(0.062,0.1262,-0.115));
#2056=CARTESIAN_POINT('',(0.062,0.1162,-0.1205));
#2057=CARTESIAN_POINT('',(0.062,0.016,-0.115));
#2058=CARTESIAN_POINT('',(0.052,0.016,-0.115));
#2059=CARTESIAN_POINT('',(0.052,0.016,-0.1305));
#2060=CARTESIAN_POINT('',(0.096,0.016,-0.0545));
#2061=CARTESIAN_POINT('',(0.096,0.016,-0.1305));
#2062=CARTESIAN_POINT('',(0.074,0.016,-0.1305));
#2063=CARTESIAN_POINT('',(0.096,0.016,0.006));
#2064=CARTESIAN_POINT('',(0.096,0.016,0.0215));
#2065=CARTESIAN_POINT('',(0.052,0.016,-0.0545));
#2066=CARTESIAN_POINT('',(0.052,0.016,0.0215));
#2067=CARTESIAN_POINT('',(0.074,0.016,0.0215));
#2068=CARTESIAN_POINT('',(0.0445,0.1312,-0.1055));
#2069=CARTESIAN_POINT('',(0.0445,0.1312,-0.1055));
#2070=CARTESIAN_POINT('',(0.0445,0.1312,-0.1155));
#2071=CARTESIAN_POINT('',(0.0445,0.1312,-0.0955));
#2072=CARTESIAN_POINT('',(0.0445,0.1262,-0.1155));
#2073=CARTESIAN_POINT('',(0.0445,0.1262,-0.1155));
#2074=CARTESIAN_POINT('',(0.0445,0.1262,-0.1055));
#2075=CARTESIAN_POINT('',(0.0445,0.1262,-0.0955));
#2076=CARTESIAN_POINT('',(0.0445,0.1312,-0.0955));
#2077=CARTESIAN_POINT('',(0.05925,0.1312,-0.0905));
#2078=CARTESIAN_POINT('',(0.05925,0.1262,-0.0905));
#2079=CARTESIAN_POINT('',(0.0495,0.1262,-0.0905));
#2080=CARTESIAN_POINT('',(0.0985,0.1262,-0.0905));
#2081=CARTESIAN_POINT('',(0.0985,0.1312,-0.0905));
#2082=CARTESIAN_POINT('',(0.0985,0.1312,-0.0905));
#2083=CARTESIAN_POINT('',(0.05925,0.1312,-0.0905));
#2084=CARTESIAN_POINT('',(0.0495,0.1312,-0.0905));
#2085=CARTESIAN_POINT('',(0.0495,0.1312,-0.0905));
#2086=CARTESIAN_POINT('',(0.1035,0.1312,-0.1055));
#2087=CARTESIAN_POINT('',(0.1035,0.1262,-0.1055));
#2088=CARTESIAN_POINT('',(0.1035,0.1262,-0.1155));
#2089=CARTESIAN_POINT('',(0.1035,0.1262,-0.0955));
#2090=CARTESIAN_POINT('',(0.1035,0.1312,-0.1155));
#2091=CARTESIAN_POINT('',(0.1035,0.1312,-0.1155));
#2092=CARTESIAN_POINT('',(0.1035,0.1312,-0.1055));
#2093=CARTESIAN_POINT('',(0.1035,0.1312,-0.0955));
#2094=CARTESIAN_POINT('',(0.1035,0.1262,-0.0955));
#2095=CARTESIAN_POINT('',(0.074,0.1312,-0.0545));
#2096=CARTESIAN_POINT('',(0.0985,0.1312,-0.1155));
#2097=CARTESIAN_POINT('',(0.0495,0.1312,-0.1155));
#2098=CARTESIAN_POINT('',(0.0495,0.1312,-0.0955));
#2099=CARTESIAN_POINT('',(0.0985,0.1312,-0.0955));
#2100=CARTESIAN_POINT('',(0.074,0.1262,-0.0545));
#2101=CARTESIAN_POINT('',(0.052,0.1262,-0.1095));
#2102=CARTESIAN_POINT('',(0.052,0.1262,-0.1045));
#2103=CARTESIAN_POINT('',(0.074,0.1262,-0.1045));
#2104=CARTESIAN_POINT('',(0.096,0.1262,-0.1045));
#2105=CARTESIAN_POINT('',(0.096,0.1262,-0.0545));
#2106=CARTESIAN_POINT('',(0.0985,0.1262,-0.1155));
#2107=CARTESIAN_POINT('',(0.0985,0.1262,-0.0955));
#2108=CARTESIAN_POINT('',(0.0495,0.1262,-0.0955));
#2109=CARTESIAN_POINT('',(0.0495,0.1262,-0.1155));
#2110=CARTESIAN_POINT('',(0.0445,0.1312,-0.0035));
#2111=CARTESIAN_POINT('',(0.0445,0.1312,-0.0035));
#2112=CARTESIAN_POINT('',(0.0445,0.1312,0.0065));
#2113=CARTESIAN_POINT('',(0.0445,0.1312,-0.0135));
#2114=CARTESIAN_POINT('',(0.0445,0.1262,-0.0135));
#2115=CARTESIAN_POINT('',(0.0445,0.1262,-0.0135));
#2116=CARTESIAN_POINT('',(0.0445,0.1262,-0.0035));
#2117=CARTESIAN_POINT('',(0.0445,0.1262,0.0065));
#2118=CARTESIAN_POINT('',(0.0445,0.1312,0.0065));
#2119=CARTESIAN_POINT('',(0.1035,0.1312,-0.0035));
#2120=CARTESIAN_POINT('',(0.1035,0.1262,-0.0035));
#2121=CARTESIAN_POINT('',(0.1035,0.1262,0.0065));
#2122=CARTESIAN_POINT('',(0.1035,0.1262,-0.0135));
#2123=CARTESIAN_POINT('',(0.1035,0.1312,-0.0135));
#2124=CARTESIAN_POINT('',(0.1035,0.1312,-0.0135));
#2125=CARTESIAN_POINT('',(0.1035,0.1312,-0.0035));
#2126=CARTESIAN_POINT('',(0.1035,0.1312,0.0065));
#2127=CARTESIAN_POINT('',(0.1035,0.1262,0.0065));
#2128=CARTESIAN_POINT('',(0.08875,0.1312,-0.0185));
#2129=CARTESIAN_POINT('',(0.08875,0.1262,-0.0185));
#2130=CARTESIAN_POINT('',(0.0985,0.1262,-0.0185));
#2131=CARTESIAN_POINT('',(0.0495,0.1262,-0.0185));
#2132=CARTESIAN_POINT('',(0.0495,0.1312,-0.0185));
#2133=CARTESIAN_POINT('',(0.0495,0.1312,-0.0185));
#2134=CARTESIAN_POINT('',(0.08875,0.1312,-0.0185));
#2135=CARTESIAN_POINT('',(0.0985,0.1312,-0.0185));
#2136=CARTESIAN_POINT('',(0.0985,0.1312,-0.0185));
#2137=CARTESIAN_POINT('',(0.074,0.1312,-0.0545));
#2138=CARTESIAN_POINT('',(0.0495,0.1312,-0.0135));
#2139=CARTESIAN_POINT('',(0.0495,0.1312,0.0065));
#2140=CARTESIAN_POINT('',(0.0985,0.1312,0.0065));
#2141=CARTESIAN_POINT('',(0.0985,0.1312,-0.0135));
#2142=CARTESIAN_POINT('',(0.074,0.1262,-0.0545));
#2143=CARTESIAN_POINT('',(0.096,0.1262,0.000500000000000014));
#2144=CARTESIAN_POINT('',(0.096,0.1262,-0.0045));
#2145=CARTESIAN_POINT('',(0.074,0.1262,-0.0045));
#2146=CARTESIAN_POINT('',(0.052,0.1262,-0.0045));
#2147=CARTESIAN_POINT('',(0.052,0.1262,-0.0545));
#2148=CARTESIAN_POINT('',(0.0495,0.1262,0.0065));
#2149=CARTESIAN_POINT('',(0.0495,0.1262,-0.0135));
#2150=CARTESIAN_POINT('',(0.0985,0.1262,-0.0135));
#2151=CARTESIAN_POINT('',(0.0985,0.1262,0.0065));
#2152=CARTESIAN_POINT('',(0.096,0.1162,-0.115));
#2153=CARTESIAN_POINT('',(0.0873397459621556,0.1212,-0.1095));
#2154=CARTESIAN_POINT('',(0.0878382219537001,0.122063385743708,-0.1095));
#2155=CARTESIAN_POINT('',(0.0890574528809754,0.123576630903075,-0.109069644007084));
#2156=CARTESIAN_POINT('',(0.0912609571996111,0.125128762064337,-0.107775872666613));
#2157=CARTESIAN_POINT('',(0.0935794490476539,0.126004624943434,-0.106211376111724));
#2158=CARTESIAN_POINT('',(0.0952034751966572,0.1262,-0.105063227901895));
#2159=CARTESIAN_POINT('',(0.096,0.1262,-0.1045));
#2160=CARTESIAN_POINT('',(0.052,0.1162,-0.0545));
#2161=CARTESIAN_POINT('',(0.0606602540378444,0.1212,-0.1095));
#2162=CARTESIAN_POINT('',(0.0601617780463,0.122063385743708,-0.1095));
#2163=CARTESIAN_POINT('',(0.0589425471190246,0.123576630903075,-0.109069644007084));
#2164=CARTESIAN_POINT('',(0.0567390428003889,0.125128762064336,-0.107775872666613));
#2165=CARTESIAN_POINT('',(0.0544205509523462,0.126004624943434,-0.106211376111724));
#2166=CARTESIAN_POINT('',(0.0527965248033425,0.1262,-0.105063227901896));
#2167=CARTESIAN_POINT('',(0.052,0.1262,-0.1045));
#2168=CARTESIAN_POINT('',(0.052,0.1162,0.006));
#2169=CARTESIAN_POINT('',(0.0606602540378444,0.1212,0.000500000000000014));
#2170=CARTESIAN_POINT('',(0.0601617780463,0.122063385743708,0.000500000000000014));
#2171=CARTESIAN_POINT('',(0.0589425471190247,0.123576630903075,6.9644007083335E-5));
#2172=CARTESIAN_POINT('',(0.0567390428003885,0.125128762064336,-0.00122412733338663));
#2173=CARTESIAN_POINT('',(0.0544205509523476,0.126004624943434,-0.00278862388827836));
#2174=CARTESIAN_POINT('',(0.0527965248033396,0.1262,-0.00393677209810007));
#2175=CARTESIAN_POINT('',(0.052,0.1262,-0.0045));
#2176=CARTESIAN_POINT('',(0.096,0.1162,-0.0545));
#2177=CARTESIAN_POINT('',(0.0873397459621556,0.1212,0.000500000000000014));
#2178=CARTESIAN_POINT('',(0.0878382219537,0.122063385743708,0.000500000000000014));
#2179=CARTESIAN_POINT('',(0.0890574528809753,0.123576630903075,6.96440070833389E-5));
#2180=CARTESIAN_POINT('',(0.0912609571996114,0.125128762064337,-0.00122412733338666));
#2181=CARTESIAN_POINT('',(0.0935794490476526,0.126004624943434,-0.00278862388827821));
#2182=CARTESIAN_POINT('',(0.0952034751966602,0.1262,-0.00393677209810039));
#2183=CARTESIAN_POINT('',(0.096,0.1262,-0.0045));
#2184=CARTESIAN_POINT('',(0.06025,0.1212,-0.1045));
#2185=CARTESIAN_POINT('',(0.068,0.1212,-0.0045));
#2186=CARTESIAN_POINT('',(0.0985,0.1262,-0.1155));
#2187=CARTESIAN_POINT('',(0.0495,0.1312,-0.1155));
#2188=CARTESIAN_POINT('',(0.0985,0.1312,-0.0955));
#2189=CARTESIAN_POINT('',(0.0495,0.1312,-0.0955));
#2190=CARTESIAN_POINT('',(0.0495,0.1312,-0.0135));
#2191=CARTESIAN_POINT('',(0.0495,0.1262,0.0065));
#2192=CARTESIAN_POINT('',(0.0985,0.1312,-0.0135));
#2193=CARTESIAN_POINT('',(0.0985,0.1312,0.0065));
#2194=MECHANICAL_DESIGN_GEOMETRIC_PRESENTATION_REPRESENTATION('',(#1279),
#2195);
#2195=(
GEOMETRIC_REPRESENTATION_CONTEXT(3)
GLOBAL_UNCERTAINTY_ASSIGNED_CONTEXT((#2196))
GLOBAL_UNIT_ASSIGNED_CONTEXT((#2199,#2198,#2197))
REPRESENTATION_CONTEXT('Part 1','TOP_LEVEL_ASSEMBLY_PART')
);
#2196=UNCERTAINTY_MEASURE_WITH_UNIT(LENGTH_MEASURE(2.E-5),#2199,
'DISTANCE_ACCURACY_VALUE','Maximum Tolerance applied to model');
#2197=(
NAMED_UNIT(*)
SI_UNIT($,.STERADIAN.)
SOLID_ANGLE_UNIT()
);
#2198=(
NAMED_UNIT(*)
PLANE_ANGLE_UNIT()
SI_UNIT($,.RADIAN.)
);
#2199=(
LENGTH_UNIT()
NAMED_UNIT(*)
SI_UNIT($,.METRE.)
);
#2200=PRODUCT_DEFINITION_SHAPE('','',#2201);
#2201=PRODUCT_DEFINITION('','',#2203,#2202);
#2202=PRODUCT_DEFINITION_CONTEXT('',#2209,'design');
#2203=PRODUCT_DEFINITION_FORMATION_WITH_SPECIFIED_SOURCE('','',#2205,
 .NOT_KNOWN.);
#2204=PRODUCT_RELATED_PRODUCT_CATEGORY('','',(#2205));
#2205=PRODUCT('Part 1','Part 1','Part 1',(#2207));
#2206=PRODUCT_CATEGORY('','');
#2207=PRODUCT_CONTEXT('',#2209,'mechanical');
#2208=APPLICATION_PROTOCOL_DEFINITION('international standard',
'ap242_managed_model_based_3d_engineering',2020,#2209);
#2209=APPLICATION_CONTEXT('managed model based 3d engineering');
ENDSEC;
END-ISO-10303-21;
