ISO-10303-21;
HEADER;
/* Generated by software containing ST-Developer
 * from STEP Tools, Inc. (www.steptools.com) 
 */
/* OPTION: using custom renumber hook */

FILE_DESCRIPTION(
/* description */ ('STEP AP242 Edition 2',
'CAx-IF Rec.Pracs.---Representation and Presentation of Product Manufa
cturing Information (PMI)---4.0---2014-10-13',
'CAx-IF Rec.Pracs.---3D Tessellated Geometry---0.4---2014-09-14','2;1',
'CAx-IF Rec.Pracs.---User Defined Attributes---1.5---2016-08-15'),
/* implementation_level */ '2;1');

FILE_NAME(
/* name */ 'Calibration Base (Cub)_REV. 0',
/* time_stamp */ '2026-08-26T14:48:16Z',
/* author */ (''),
/* organization */ (''),
/* preprocessor_version */ 'ST-DEVELOPER v20',
/* originating_system */ 'ONSHAPE BY PTC INC, 1.219',
/* authorisation */ '  ');

FILE_SCHEMA (('AP242_MANAGED_MODEL_BASED_3D_ENGINEERING_MIM_LF { 1 0 10303 442 3 1 4 }'));
ENDSEC;

DATA;
#10=SHAPE_REPRESENTATION_RELATIONSHIP('','',#759,#11);
#11=ADVANCED_BREP_SHAPE_REPRESENTATION('',(#757),#1209);
#12=CYLINDRICAL_SURFACE('',#805,0.0024);
#13=CYLINDRICAL_SURFACE('',#808,0.0024);
#14=LINE('',#1009,#106);
#15=LINE('',#1012,#107);
#16=LINE('',#1014,#108);
#17=LINE('',#1016,#109);
#18=LINE('',#1020,#110);
#19=LINE('',#1023,#111);
#20=LINE('',#1025,#112);
#21=LINE('',#1027,#113);
#22=LINE('',#1028,#114);
#23=LINE('',#1031,#115);
#24=LINE('',#1033,#116);
#25=LINE('',#1035,#117);
#26=LINE('',#1036,#118);
#27=LINE('',#1039,#119);
#28=LINE('',#1041,#120);
#29=LINE('',#1043,#121);
#30=LINE('',#1044,#122);
#31=LINE('',#1047,#123);
#32=LINE('',#1049,#124);
#33=LINE('',#1051,#125);
#34=LINE('',#1052,#126);
#35=LINE('',#1055,#127);
#36=LINE('',#1057,#128);
#37=LINE('',#1059,#129);
#38=LINE('',#1061,#130);
#39=LINE('',#1062,#131);
#40=LINE('',#1064,#132);
#41=LINE('',#1066,#133);
#42=LINE('',#1069,#134);
#43=LINE('',#1072,#135);
#44=LINE('',#1074,#136);
#45=LINE('',#1076,#137);
#46=LINE('',#1078,#138);
#47=LINE('',#1080,#139);
#48=LINE('',#1082,#140);
#49=LINE('',#1084,#141);
#50=LINE('',#1086,#142);
#51=LINE('',#1088,#143);
#52=LINE('',#1090,#144);
#53=LINE('',#1091,#145);
#54=LINE('',#1094,#146);
#55=LINE('',#1097,#147);
#56=LINE('',#1099,#148);
#57=LINE('',#1101,#149);
#58=LINE('',#1103,#150);
#59=LINE('',#1105,#151);
#60=LINE('',#1107,#152);
#61=LINE('',#1109,#153);
#62=LINE('',#1111,#154);
#63=LINE('',#1113,#155);
#64=LINE('',#1115,#156);
#65=LINE('',#1116,#157);
#66=LINE('',#1119,#158);
#67=LINE('',#1122,#159);
#68=LINE('',#1124,#160);
#69=LINE('',#1126,#161);
#70=LINE('',#1128,#162);
#71=LINE('',#1130,#163);
#72=LINE('',#1132,#164);
#73=LINE('',#1134,#165);
#74=LINE('',#1136,#166);
#75=LINE('',#1138,#167);
#76=LINE('',#1140,#168);
#77=LINE('',#1141,#169);
#78=LINE('',#1144,#170);
#79=LINE('',#1147,#171);
#80=LINE('',#1149,#172);
#81=LINE('',#1151,#173);
#82=LINE('',#1153,#174);
#83=LINE('',#1155,#175);
#84=LINE('',#1157,#176);
#85=LINE('',#1159,#177);
#86=LINE('',#1161,#178);
#87=LINE('',#1163,#179);
#88=LINE('',#1165,#180);
#89=LINE('',#1166,#181);
#90=LINE('',#1169,#182);
#91=LINE('',#1170,#183);
#92=LINE('',#1172,#184);
#93=LINE('',#1174,#185);
#94=LINE('',#1177,#186);
#95=LINE('',#1178,#187);
#96=LINE('',#1180,#188);
#97=LINE('',#1182,#189);
#98=LINE('',#1185,#190);
#99=LINE('',#1186,#191);
#100=LINE('',#1188,#192);
#101=LINE('',#1190,#193);
#102=LINE('',#1193,#194);
#103=LINE('',#1194,#195);
#104=LINE('',#1196,#196);
#105=LINE('',#1198,#197);
#106=VECTOR('',#817,1.);
#107=VECTOR('',#818,1.);
#108=VECTOR('',#819,1.);
#109=VECTOR('',#820,1.);
#110=VECTOR('',#825,1.);
#111=VECTOR('',#826,1.);
#112=VECTOR('',#827,1.);
#113=VECTOR('',#828,1.);
#114=VECTOR('',#829,1.);
#115=VECTOR('',#830,1.);
#116=VECTOR('',#831,1.);
#117=VECTOR('',#832,1.);
#118=VECTOR('',#833,1.);
#119=VECTOR('',#834,1.);
#120=VECTOR('',#835,1.);
#121=VECTOR('',#836,1.);
#122=VECTOR('',#837,1.);
#123=VECTOR('',#838,1.);
#124=VECTOR('',#839,1.);
#125=VECTOR('',#840,1.);
#126=VECTOR('',#841,1.);
#127=VECTOR('',#842,1.);
#128=VECTOR('',#843,1.);
#129=VECTOR('',#844,1.);
#130=VECTOR('',#847,1.);
#131=VECTOR('',#848,1.);
#132=VECTOR('',#851,1.);
#133=VECTOR('',#854,1.);
#134=VECTOR('',#859,1.);
#135=VECTOR('',#860,1.);
#136=VECTOR('',#861,1.);
#137=VECTOR('',#862,1.);
#138=VECTOR('',#865,1.);
#139=VECTOR('',#866,1.);
#140=VECTOR('',#867,1.);
#141=VECTOR('',#870,1.);
#142=VECTOR('',#871,1.);
#143=VECTOR('',#872,1.);
#144=VECTOR('',#875,1.);
#145=VECTOR('',#876,1.);
#146=VECTOR('',#881,1.);
#147=VECTOR('',#882,1.);
#148=VECTOR('',#883,1.);
#149=VECTOR('',#884,1.);
#150=VECTOR('',#887,1.);
#151=VECTOR('',#888,1.);
#152=VECTOR('',#889,1.);
#153=VECTOR('',#892,1.);
#154=VECTOR('',#893,1.);
#155=VECTOR('',#894,1.);
#156=VECTOR('',#897,1.);
#157=VECTOR('',#898,1.);
#158=VECTOR('',#903,1.);
#159=VECTOR('',#904,1.);
#160=VECTOR('',#905,1.);
#161=VECTOR('',#906,1.);
#162=VECTOR('',#909,1.);
#163=VECTOR('',#910,1.);
#164=VECTOR('',#911,1.);
#165=VECTOR('',#914,1.);
#166=VECTOR('',#915,1.);
#167=VECTOR('',#916,1.);
#168=VECTOR('',#919,1.);
#169=VECTOR('',#920,1.);
#170=VECTOR('',#925,1.);
#171=VECTOR('',#926,1.);
#172=VECTOR('',#927,1.);
#173=VECTOR('',#928,1.);
#174=VECTOR('',#931,1.);
#175=VECTOR('',#932,1.);
#176=VECTOR('',#933,1.);
#177=VECTOR('',#936,1.);
#178=VECTOR('',#937,1.);
#179=VECTOR('',#938,1.);
#180=VECTOR('',#941,1.);
#181=VECTOR('',#942,1.);
#182=VECTOR('',#947,1.);
#183=VECTOR('',#948,1.);
#184=VECTOR('',#951,1.);
#185=VECTOR('',#954,1.);
#186=VECTOR('',#959,1.);
#187=VECTOR('',#960,1.);
#188=VECTOR('',#963,1.);
#189=VECTOR('',#966,1.);
#190=VECTOR('',#971,1.);
#191=VECTOR('',#972,1.);
#192=VECTOR('',#975,1.);
#193=VECTOR('',#978,1.);
#194=VECTOR('',#983,1.);
#195=VECTOR('',#984,1.);
#196=VECTOR('',#987,1.);
#197=VECTOR('',#990,1.);
#198=ORIENTED_EDGE('',*,*,#390,.T.);
#199=ORIENTED_EDGE('',*,*,#391,.T.);
#200=ORIENTED_EDGE('',*,*,#392,.T.);
#201=ORIENTED_EDGE('',*,*,#393,.F.);
#202=ORIENTED_EDGE('',*,*,#394,.F.);
#203=ORIENTED_EDGE('',*,*,#395,.F.);
#204=ORIENTED_EDGE('',*,*,#396,.T.);
#205=ORIENTED_EDGE('',*,*,#397,.T.);
#206=ORIENTED_EDGE('',*,*,#398,.T.);
#207=ORIENTED_EDGE('',*,*,#399,.T.);
#208=ORIENTED_EDGE('',*,*,#400,.T.);
#209=ORIENTED_EDGE('',*,*,#401,.T.);
#210=ORIENTED_EDGE('',*,*,#402,.T.);
#211=ORIENTED_EDGE('',*,*,#403,.T.);
#212=ORIENTED_EDGE('',*,*,#404,.T.);
#213=ORIENTED_EDGE('',*,*,#405,.T.);
#214=ORIENTED_EDGE('',*,*,#406,.T.);
#215=ORIENTED_EDGE('',*,*,#407,.T.);
#216=ORIENTED_EDGE('',*,*,#408,.T.);
#217=ORIENTED_EDGE('',*,*,#409,.T.);
#218=ORIENTED_EDGE('',*,*,#410,.T.);
#219=ORIENTED_EDGE('',*,*,#411,.T.);
#220=ORIENTED_EDGE('',*,*,#412,.F.);
#221=ORIENTED_EDGE('',*,*,#413,.T.);
#222=ORIENTED_EDGE('',*,*,#414,.T.);
#223=ORIENTED_EDGE('',*,*,#415,.F.);
#224=ORIENTED_EDGE('',*,*,#391,.F.);
#225=ORIENTED_EDGE('',*,*,#416,.F.);
#226=ORIENTED_EDGE('',*,*,#412,.T.);
#227=ORIENTED_EDGE('',*,*,#417,.T.);
#228=ORIENTED_EDGE('',*,*,#394,.T.);
#229=ORIENTED_EDGE('',*,*,#418,.F.);
#230=ORIENTED_EDGE('',*,*,#413,.F.);
#231=ORIENTED_EDGE('',*,*,#416,.T.);
#232=ORIENTED_EDGE('',*,*,#393,.T.);
#233=ORIENTED_EDGE('',*,*,#419,.F.);
#234=ORIENTED_EDGE('',*,*,#414,.F.);
#235=ORIENTED_EDGE('',*,*,#418,.T.);
#236=ORIENTED_EDGE('',*,*,#392,.F.);
#237=ORIENTED_EDGE('',*,*,#417,.F.);
#238=ORIENTED_EDGE('',*,*,#415,.T.);
#239=ORIENTED_EDGE('',*,*,#419,.T.);
#240=ORIENTED_EDGE('',*,*,#420,.T.);
#241=ORIENTED_EDGE('',*,*,#421,.T.);
#242=ORIENTED_EDGE('',*,*,#422,.F.);
#243=ORIENTED_EDGE('',*,*,#423,.T.);
#244=ORIENTED_EDGE('',*,*,#422,.T.);
#245=ORIENTED_EDGE('',*,*,#424,.T.);
#246=ORIENTED_EDGE('',*,*,#425,.F.);
#247=ORIENTED_EDGE('',*,*,#426,.F.);
#248=ORIENTED_EDGE('',*,*,#425,.T.);
#249=ORIENTED_EDGE('',*,*,#427,.T.);
#250=ORIENTED_EDGE('',*,*,#428,.F.);
#251=ORIENTED_EDGE('',*,*,#429,.T.);
#252=ORIENTED_EDGE('',*,*,#428,.T.);
#253=ORIENTED_EDGE('',*,*,#430,.T.);
#254=ORIENTED_EDGE('',*,*,#420,.F.);
#255=ORIENTED_EDGE('',*,*,#431,.F.);
#256=ORIENTED_EDGE('',*,*,#423,.F.);
#257=ORIENTED_EDGE('',*,*,#426,.T.);
#258=ORIENTED_EDGE('',*,*,#429,.F.);
#259=ORIENTED_EDGE('',*,*,#431,.T.);
#260=ORIENTED_EDGE('',*,*,#432,.T.);
#261=ORIENTED_EDGE('',*,*,#433,.T.);
#262=ORIENTED_EDGE('',*,*,#434,.F.);
#263=ORIENTED_EDGE('',*,*,#435,.T.);
#264=ORIENTED_EDGE('',*,*,#434,.T.);
#265=ORIENTED_EDGE('',*,*,#436,.T.);
#266=ORIENTED_EDGE('',*,*,#437,.F.);
#267=ORIENTED_EDGE('',*,*,#438,.F.);
#268=ORIENTED_EDGE('',*,*,#437,.T.);
#269=ORIENTED_EDGE('',*,*,#439,.T.);
#270=ORIENTED_EDGE('',*,*,#440,.F.);
#271=ORIENTED_EDGE('',*,*,#441,.T.);
#272=ORIENTED_EDGE('',*,*,#440,.T.);
#273=ORIENTED_EDGE('',*,*,#442,.T.);
#274=ORIENTED_EDGE('',*,*,#432,.F.);
#275=ORIENTED_EDGE('',*,*,#443,.F.);
#276=ORIENTED_EDGE('',*,*,#435,.F.);
#277=ORIENTED_EDGE('',*,*,#438,.T.);
#278=ORIENTED_EDGE('',*,*,#441,.F.);
#279=ORIENTED_EDGE('',*,*,#443,.T.);
#280=ORIENTED_EDGE('',*,*,#444,.T.);
#281=ORIENTED_EDGE('',*,*,#445,.T.);
#282=ORIENTED_EDGE('',*,*,#446,.F.);
#283=ORIENTED_EDGE('',*,*,#447,.T.);
#284=ORIENTED_EDGE('',*,*,#446,.T.);
#285=ORIENTED_EDGE('',*,*,#448,.T.);
#286=ORIENTED_EDGE('',*,*,#449,.F.);
#287=ORIENTED_EDGE('',*,*,#450,.F.);
#288=ORIENTED_EDGE('',*,*,#449,.T.);
#289=ORIENTED_EDGE('',*,*,#451,.T.);
#290=ORIENTED_EDGE('',*,*,#452,.F.);
#291=ORIENTED_EDGE('',*,*,#453,.T.);
#292=ORIENTED_EDGE('',*,*,#452,.T.);
#293=ORIENTED_EDGE('',*,*,#454,.T.);
#294=ORIENTED_EDGE('',*,*,#444,.F.);
#295=ORIENTED_EDGE('',*,*,#455,.F.);
#296=ORIENTED_EDGE('',*,*,#447,.F.);
#297=ORIENTED_EDGE('',*,*,#450,.T.);
#298=ORIENTED_EDGE('',*,*,#453,.F.);
#299=ORIENTED_EDGE('',*,*,#455,.T.);
#300=ORIENTED_EDGE('',*,*,#456,.T.);
#301=ORIENTED_EDGE('',*,*,#457,.T.);
#302=ORIENTED_EDGE('',*,*,#458,.F.);
#303=ORIENTED_EDGE('',*,*,#459,.T.);
#304=ORIENTED_EDGE('',*,*,#458,.T.);
#305=ORIENTED_EDGE('',*,*,#460,.T.);
#306=ORIENTED_EDGE('',*,*,#461,.F.);
#307=ORIENTED_EDGE('',*,*,#462,.F.);
#308=ORIENTED_EDGE('',*,*,#461,.T.);
#309=ORIENTED_EDGE('',*,*,#463,.T.);
#310=ORIENTED_EDGE('',*,*,#464,.F.);
#311=ORIENTED_EDGE('',*,*,#465,.T.);
#312=ORIENTED_EDGE('',*,*,#464,.T.);
#313=ORIENTED_EDGE('',*,*,#466,.T.);
#314=ORIENTED_EDGE('',*,*,#456,.F.);
#315=ORIENTED_EDGE('',*,*,#467,.F.);
#316=ORIENTED_EDGE('',*,*,#459,.F.);
#317=ORIENTED_EDGE('',*,*,#462,.T.);
#318=ORIENTED_EDGE('',*,*,#465,.F.);
#319=ORIENTED_EDGE('',*,*,#467,.T.);
#320=ORIENTED_EDGE('',*,*,#468,.F.);
#321=ORIENTED_EDGE('',*,*,#399,.F.);
#322=ORIENTED_EDGE('',*,*,#469,.F.);
#323=ORIENTED_EDGE('',*,*,#442,.F.);
#324=ORIENTED_EDGE('',*,*,#469,.T.);
#325=ORIENTED_EDGE('',*,*,#398,.F.);
#326=ORIENTED_EDGE('',*,*,#470,.F.);
#327=ORIENTED_EDGE('',*,*,#433,.F.);
#328=ORIENTED_EDGE('',*,*,#468,.T.);
#329=ORIENTED_EDGE('',*,*,#439,.F.);
#330=ORIENTED_EDGE('',*,*,#471,.F.);
#331=ORIENTED_EDGE('',*,*,#396,.F.);
#332=ORIENTED_EDGE('',*,*,#470,.T.);
#333=ORIENTED_EDGE('',*,*,#397,.F.);
#334=ORIENTED_EDGE('',*,*,#471,.T.);
#335=ORIENTED_EDGE('',*,*,#436,.F.);
#336=ORIENTED_EDGE('',*,*,#472,.F.);
#337=ORIENTED_EDGE('',*,*,#451,.F.);
#338=ORIENTED_EDGE('',*,*,#473,.F.);
#339=ORIENTED_EDGE('',*,*,#403,.F.);
#340=ORIENTED_EDGE('',*,*,#473,.T.);
#341=ORIENTED_EDGE('',*,*,#448,.F.);
#342=ORIENTED_EDGE('',*,*,#474,.F.);
#343=ORIENTED_EDGE('',*,*,#400,.F.);
#344=ORIENTED_EDGE('',*,*,#472,.T.);
#345=ORIENTED_EDGE('',*,*,#402,.F.);
#346=ORIENTED_EDGE('',*,*,#475,.F.);
#347=ORIENTED_EDGE('',*,*,#454,.F.);
#348=ORIENTED_EDGE('',*,*,#474,.T.);
#349=ORIENTED_EDGE('',*,*,#445,.F.);
#350=ORIENTED_EDGE('',*,*,#475,.T.);
#351=ORIENTED_EDGE('',*,*,#401,.F.);
#352=ORIENTED_EDGE('',*,*,#476,.F.);
#353=ORIENTED_EDGE('',*,*,#407,.F.);
#354=ORIENTED_EDGE('',*,*,#477,.F.);
#355=ORIENTED_EDGE('',*,*,#460,.F.);
#356=ORIENTED_EDGE('',*,*,#477,.T.);
#357=ORIENTED_EDGE('',*,*,#406,.F.);
#358=ORIENTED_EDGE('',*,*,#478,.F.);
#359=ORIENTED_EDGE('',*,*,#463,.F.);
#360=ORIENTED_EDGE('',*,*,#476,.T.);
#361=ORIENTED_EDGE('',*,*,#457,.F.);
#362=ORIENTED_EDGE('',*,*,#479,.F.);
#363=ORIENTED_EDGE('',*,*,#404,.F.);
#364=ORIENTED_EDGE('',*,*,#478,.T.);
#365=ORIENTED_EDGE('',*,*,#405,.F.);
#366=ORIENTED_EDGE('',*,*,#479,.T.);
#367=ORIENTED_EDGE('',*,*,#466,.F.);
#368=ORIENTED_EDGE('',*,*,#480,.F.);
#369=ORIENTED_EDGE('',*,*,#421,.F.);
#370=ORIENTED_EDGE('',*,*,#481,.F.);
#371=ORIENTED_EDGE('',*,*,#411,.F.);
#372=ORIENTED_EDGE('',*,*,#481,.T.);
#373=ORIENTED_EDGE('',*,*,#430,.F.);
#374=ORIENTED_EDGE('',*,*,#482,.F.);
#375=ORIENTED_EDGE('',*,*,#408,.F.);
#376=ORIENTED_EDGE('',*,*,#480,.T.);
#377=ORIENTED_EDGE('',*,*,#410,.F.);
#378=ORIENTED_EDGE('',*,*,#483,.F.);
#379=ORIENTED_EDGE('',*,*,#424,.F.);
#380=ORIENTED_EDGE('',*,*,#482,.T.);
#381=ORIENTED_EDGE('',*,*,#427,.F.);
#382=ORIENTED_EDGE('',*,*,#483,.T.);
#383=ORIENTED_EDGE('',*,*,#409,.F.);
#384=ORIENTED_EDGE('',*,*,#484,.T.);
#385=ORIENTED_EDGE('',*,*,#390,.F.);
#386=ORIENTED_EDGE('',*,*,#484,.F.);
#387=ORIENTED_EDGE('',*,*,#485,.F.);
#388=ORIENTED_EDGE('',*,*,#395,.T.);
#389=ORIENTED_EDGE('',*,*,#485,.T.);
#390=EDGE_CURVE('',#486,#486,#546,.T.);
#391=EDGE_CURVE('',#487,#488,#14,.T.);
#392=EDGE_CURVE('',#488,#489,#15,.T.);
#393=EDGE_CURVE('',#490,#489,#16,.T.);
#394=EDGE_CURVE('',#487,#490,#17,.T.);
#395=EDGE_CURVE('',#491,#491,#547,.T.);
#396=EDGE_CURVE('',#492,#493,#18,.T.);
#397=EDGE_CURVE('',#493,#494,#19,.T.);
#398=EDGE_CURVE('',#494,#495,#20,.T.);
#399=EDGE_CURVE('',#495,#492,#21,.T.);
#400=EDGE_CURVE('',#496,#497,#22,.T.);
#401=EDGE_CURVE('',#497,#498,#23,.T.);
#402=EDGE_CURVE('',#498,#499,#24,.T.);
#403=EDGE_CURVE('',#499,#496,#25,.T.);
#404=EDGE_CURVE('',#500,#501,#26,.T.);
#405=EDGE_CURVE('',#501,#502,#27,.T.);
#406=EDGE_CURVE('',#502,#503,#28,.T.);
#407=EDGE_CURVE('',#503,#500,#29,.T.);
#408=EDGE_CURVE('',#504,#505,#30,.T.);
#409=EDGE_CURVE('',#505,#506,#31,.T.);
#410=EDGE_CURVE('',#506,#507,#32,.T.);
#411=EDGE_CURVE('',#507,#504,#33,.T.);
#412=EDGE_CURVE('',#508,#509,#34,.T.);
#413=EDGE_CURVE('',#508,#510,#35,.T.);
#414=EDGE_CURVE('',#510,#511,#36,.T.);
#415=EDGE_CURVE('',#509,#511,#37,.T.);
#416=EDGE_CURVE('',#508,#487,#38,.T.);
#417=EDGE_CURVE('',#509,#488,#39,.T.);
#418=EDGE_CURVE('',#510,#490,#40,.T.);
#419=EDGE_CURVE('',#511,#489,#41,.T.);
#420=EDGE_CURVE('',#512,#513,#42,.T.);
#421=EDGE_CURVE('',#513,#514,#43,.T.);
#422=EDGE_CURVE('',#515,#514,#44,.T.);
#423=EDGE_CURVE('',#515,#512,#45,.T.);
#424=EDGE_CURVE('',#514,#516,#46,.T.);
#425=EDGE_CURVE('',#517,#516,#47,.T.);
#426=EDGE_CURVE('',#515,#517,#48,.T.);
#427=EDGE_CURVE('',#516,#518,#49,.T.);
#428=EDGE_CURVE('',#519,#518,#50,.T.);
#429=EDGE_CURVE('',#519,#517,#51,.T.);
#430=EDGE_CURVE('',#518,#513,#52,.T.);
#431=EDGE_CURVE('',#519,#512,#53,.T.);
#432=EDGE_CURVE('',#520,#521,#54,.T.);
#433=EDGE_CURVE('',#521,#522,#55,.T.);
#434=EDGE_CURVE('',#523,#522,#56,.T.);
#435=EDGE_CURVE('',#523,#520,#57,.T.);
#436=EDGE_CURVE('',#522,#524,#58,.T.);
#437=EDGE_CURVE('',#525,#524,#59,.T.);
#438=EDGE_CURVE('',#523,#525,#60,.T.);
#439=EDGE_CURVE('',#524,#526,#61,.T.);
#440=EDGE_CURVE('',#527,#526,#62,.T.);
#441=EDGE_CURVE('',#527,#525,#63,.T.);
#442=EDGE_CURVE('',#526,#521,#64,.T.);
#443=EDGE_CURVE('',#527,#520,#65,.T.);
#444=EDGE_CURVE('',#528,#529,#66,.T.);
#445=EDGE_CURVE('',#529,#530,#67,.T.);
#446=EDGE_CURVE('',#531,#530,#68,.T.);
#447=EDGE_CURVE('',#531,#528,#69,.T.);
#448=EDGE_CURVE('',#530,#532,#70,.T.);
#449=EDGE_CURVE('',#533,#532,#71,.T.);
#450=EDGE_CURVE('',#531,#533,#72,.T.);
#451=EDGE_CURVE('',#532,#534,#73,.T.);
#452=EDGE_CURVE('',#535,#534,#74,.T.);
#453=EDGE_CURVE('',#535,#533,#75,.T.);
#454=EDGE_CURVE('',#534,#529,#76,.T.);
#455=EDGE_CURVE('',#535,#528,#77,.T.);
#456=EDGE_CURVE('',#536,#537,#78,.T.);
#457=EDGE_CURVE('',#537,#538,#79,.T.);
#458=EDGE_CURVE('',#539,#538,#80,.T.);
#459=EDGE_CURVE('',#539,#536,#81,.T.);
#460=EDGE_CURVE('',#538,#540,#82,.T.);
#461=EDGE_CURVE('',#541,#540,#83,.T.);
#462=EDGE_CURVE('',#539,#541,#84,.T.);
#463=EDGE_CURVE('',#540,#542,#85,.T.);
#464=EDGE_CURVE('',#543,#542,#86,.T.);
#465=EDGE_CURVE('',#543,#541,#87,.T.);
#466=EDGE_CURVE('',#542,#537,#88,.T.);
#467=EDGE_CURVE('',#543,#536,#89,.T.);
#468=EDGE_CURVE('',#492,#526,#90,.T.);
#469=EDGE_CURVE('',#521,#495,#91,.F.);
#470=EDGE_CURVE('',#522,#494,#92,.T.);
#471=EDGE_CURVE('',#493,#524,#93,.T.);
#472=EDGE_CURVE('',#534,#499,#94,.T.);
#473=EDGE_CURVE('',#496,#532,#95,.F.);
#474=EDGE_CURVE('',#497,#530,#96,.T.);
#475=EDGE_CURVE('',#529,#498,#97,.T.);
#476=EDGE_CURVE('',#500,#538,#98,.F.);
#477=EDGE_CURVE('',#540,#503,#99,.T.);
#478=EDGE_CURVE('',#542,#502,#100,.T.);
#479=EDGE_CURVE('',#501,#537,#101,.T.);
#480=EDGE_CURVE('',#514,#507,#102,.F.);
#481=EDGE_CURVE('',#504,#513,#103,.T.);
#482=EDGE_CURVE('',#505,#518,#104,.T.);
#483=EDGE_CURVE('',#516,#506,#105,.T.);
#484=EDGE_CURVE('',#544,#544,#548,.T.);
#485=EDGE_CURVE('',#545,#545,#549,.T.);
#486=VERTEX_POINT('',#1008);
#487=VERTEX_POINT('',#1010);
#488=VERTEX_POINT('',#1011);
#489=VERTEX_POINT('',#1013);
#490=VERTEX_POINT('',#1015);
#491=VERTEX_POINT('',#1018);
#492=VERTEX_POINT('',#1021);
#493=VERTEX_POINT('',#1022);
#494=VERTEX_POINT('',#1024);
#495=VERTEX_POINT('',#1026);
#496=VERTEX_POINT('',#1029);
#497=VERTEX_POINT('',#1030);
#498=VERTEX_POINT('',#1032);
#499=VERTEX_POINT('',#1034);
#500=VERTEX_POINT('',#1037);
#501=VERTEX_POINT('',#1038);
#502=VERTEX_POINT('',#1040);
#503=VERTEX_POINT('',#1042);
#504=VERTEX_POINT('',#1045);
#505=VERTEX_POINT('',#1046);
#506=VERTEX_POINT('',#1048);
#507=VERTEX_POINT('',#1050);
#508=VERTEX_POINT('',#1053);
#509=VERTEX_POINT('',#1054);
#510=VERTEX_POINT('',#1056);
#511=VERTEX_POINT('',#1058);
#512=VERTEX_POINT('',#1070);
#513=VERTEX_POINT('',#1071);
#514=VERTEX_POINT('',#1073);
#515=VERTEX_POINT('',#1075);
#516=VERTEX_POINT('',#1079);
#517=VERTEX_POINT('',#1081);
#518=VERTEX_POINT('',#1085);
#519=VERTEX_POINT('',#1087);
#520=VERTEX_POINT('',#1095);
#521=VERTEX_POINT('',#1096);
#522=VERTEX_POINT('',#1098);
#523=VERTEX_POINT('',#1100);
#524=VERTEX_POINT('',#1104);
#525=VERTEX_POINT('',#1106);
#526=VERTEX_POINT('',#1110);
#527=VERTEX_POINT('',#1112);
#528=VERTEX_POINT('',#1120);
#529=VERTEX_POINT('',#1121);
#530=VERTEX_POINT('',#1123);
#531=VERTEX_POINT('',#1125);
#532=VERTEX_POINT('',#1129);
#533=VERTEX_POINT('',#1131);
#534=VERTEX_POINT('',#1135);
#535=VERTEX_POINT('',#1137);
#536=VERTEX_POINT('',#1145);
#537=VERTEX_POINT('',#1146);
#538=VERTEX_POINT('',#1148);
#539=VERTEX_POINT('',#1150);
#540=VERTEX_POINT('',#1154);
#541=VERTEX_POINT('',#1156);
#542=VERTEX_POINT('',#1160);
#543=VERTEX_POINT('',#1162);
#544=VERTEX_POINT('',#1202);
#545=VERTEX_POINT('',#1206);
#546=CIRCLE('',#762,0.0024);
#547=CIRCLE('',#763,0.0024);
#548=CIRCLE('',#806,0.0024);
#549=CIRCLE('',#809,0.0024);
#550=EDGE_LOOP('',(#198));
#551=EDGE_LOOP('',(#199,#200,#201,#202));
#552=EDGE_LOOP('',(#203));
#553=EDGE_LOOP('',(#204,#205,#206,#207));
#554=EDGE_LOOP('',(#208,#209,#210,#211));
#555=EDGE_LOOP('',(#212,#213,#214,#215));
#556=EDGE_LOOP('',(#216,#217,#218,#219));
#557=EDGE_LOOP('',(#220,#221,#222,#223));
#558=EDGE_LOOP('',(#224,#225,#226,#227));
#559=EDGE_LOOP('',(#228,#229,#230,#231));
#560=EDGE_LOOP('',(#232,#233,#234,#235));
#561=EDGE_LOOP('',(#236,#237,#238,#239));
#562=EDGE_LOOP('',(#240,#241,#242,#243));
#563=EDGE_LOOP('',(#244,#245,#246,#247));
#564=EDGE_LOOP('',(#248,#249,#250,#251));
#565=EDGE_LOOP('',(#252,#253,#254,#255));
#566=EDGE_LOOP('',(#256,#257,#258,#259));
#567=EDGE_LOOP('',(#260,#261,#262,#263));
#568=EDGE_LOOP('',(#264,#265,#266,#267));
#569=EDGE_LOOP('',(#268,#269,#270,#271));
#570=EDGE_LOOP('',(#272,#273,#274,#275));
#571=EDGE_LOOP('',(#276,#277,#278,#279));
#572=EDGE_LOOP('',(#280,#281,#282,#283));
#573=EDGE_LOOP('',(#284,#285,#286,#287));
#574=EDGE_LOOP('',(#288,#289,#290,#291));
#575=EDGE_LOOP('',(#292,#293,#294,#295));
#576=EDGE_LOOP('',(#296,#297,#298,#299));
#577=EDGE_LOOP('',(#300,#301,#302,#303));
#578=EDGE_LOOP('',(#304,#305,#306,#307));
#579=EDGE_LOOP('',(#308,#309,#310,#311));
#580=EDGE_LOOP('',(#312,#313,#314,#315));
#581=EDGE_LOOP('',(#316,#317,#318,#319));
#582=EDGE_LOOP('',(#320,#321,#322,#323));
#583=EDGE_LOOP('',(#324,#325,#326,#327));
#584=EDGE_LOOP('',(#328,#329,#330,#331));
#585=EDGE_LOOP('',(#332,#333,#334,#335));
#586=EDGE_LOOP('',(#336,#337,#338,#339));
#587=EDGE_LOOP('',(#340,#341,#342,#343));
#588=EDGE_LOOP('',(#344,#345,#346,#347));
#589=EDGE_LOOP('',(#348,#349,#350,#351));
#590=EDGE_LOOP('',(#352,#353,#354,#355));
#591=EDGE_LOOP('',(#356,#357,#358,#359));
#592=EDGE_LOOP('',(#360,#361,#362,#363));
#593=EDGE_LOOP('',(#364,#365,#366,#367));
#594=EDGE_LOOP('',(#368,#369,#370,#371));
#595=EDGE_LOOP('',(#372,#373,#374,#375));
#596=EDGE_LOOP('',(#376,#377,#378,#379));
#597=EDGE_LOOP('',(#380,#381,#382,#383));
#598=EDGE_LOOP('',(#384));
#599=EDGE_LOOP('',(#385));
#600=EDGE_LOOP('',(#386));
#601=EDGE_LOOP('',(#387));
#602=EDGE_LOOP('',(#388));
#603=EDGE_LOOP('',(#389));
#604=FACE_BOUND('',#550,.T.);
#605=FACE_BOUND('',#551,.T.);
#606=FACE_BOUND('',#552,.T.);
#607=FACE_BOUND('',#553,.T.);
#608=FACE_BOUND('',#554,.T.);
#609=FACE_BOUND('',#555,.T.);
#610=FACE_BOUND('',#556,.T.);
#611=FACE_BOUND('',#557,.T.);
#612=FACE_BOUND('',#558,.T.);
#613=FACE_BOUND('',#559,.T.);
#614=FACE_BOUND('',#560,.T.);
#615=FACE_BOUND('',#561,.T.);
#616=FACE_BOUND('',#562,.T.);
#617=FACE_BOUND('',#563,.T.);
#618=FACE_BOUND('',#564,.T.);
#619=FACE_BOUND('',#565,.T.);
#620=FACE_BOUND('',#566,.T.);
#621=FACE_BOUND('',#567,.T.);
#622=FACE_BOUND('',#568,.T.);
#623=FACE_BOUND('',#569,.T.);
#624=FACE_BOUND('',#570,.T.);
#625=FACE_BOUND('',#571,.T.);
#626=FACE_BOUND('',#572,.T.);
#627=FACE_BOUND('',#573,.T.);
#628=FACE_BOUND('',#574,.T.);
#629=FACE_BOUND('',#575,.T.);
#630=FACE_BOUND('',#576,.T.);
#631=FACE_BOUND('',#577,.T.);
#632=FACE_BOUND('',#578,.T.);
#633=FACE_BOUND('',#579,.T.);
#634=FACE_BOUND('',#580,.T.);
#635=FACE_BOUND('',#581,.T.);
#636=FACE_BOUND('',#582,.T.);
#637=FACE_BOUND('',#583,.T.);
#638=FACE_BOUND('',#584,.T.);
#639=FACE_BOUND('',#585,.T.);
#640=FACE_BOUND('',#586,.T.);
#641=FACE_BOUND('',#587,.T.);
#642=FACE_BOUND('',#588,.T.);
#643=FACE_BOUND('',#589,.T.);
#644=FACE_BOUND('',#590,.T.);
#645=FACE_BOUND('',#591,.T.);
#646=FACE_BOUND('',#592,.T.);
#647=FACE_BOUND('',#593,.T.);
#648=FACE_BOUND('',#594,.T.);
#649=FACE_BOUND('',#595,.T.);
#650=FACE_BOUND('',#596,.T.);
#651=FACE_BOUND('',#597,.T.);
#652=FACE_BOUND('',#598,.T.);
#653=FACE_BOUND('',#599,.T.);
#654=FACE_BOUND('',#600,.T.);
#655=FACE_BOUND('',#601,.T.);
#656=FACE_BOUND('',#602,.T.);
#657=FACE_BOUND('',#603,.T.);
#658=PLANE('',#761);
#659=PLANE('',#764);
#660=PLANE('',#765);
#661=PLANE('',#766);
#662=PLANE('',#767);
#663=PLANE('',#768);
#664=PLANE('',#769);
#665=PLANE('',#770);
#666=PLANE('',#771);
#667=PLANE('',#772);
#668=PLANE('',#773);
#669=PLANE('',#774);
#670=PLANE('',#775);
#671=PLANE('',#776);
#672=PLANE('',#777);
#673=PLANE('',#778);
#674=PLANE('',#779);
#675=PLANE('',#780);
#676=PLANE('',#781);
#677=PLANE('',#782);
#678=PLANE('',#783);
#679=PLANE('',#784);
#680=PLANE('',#785);
#681=PLANE('',#786);
#682=PLANE('',#787);
#683=PLANE('',#788);
#684=PLANE('',#789);
#685=PLANE('',#790);
#686=PLANE('',#791);
#687=PLANE('',#792);
#688=PLANE('',#793);
#689=PLANE('',#794);
#690=PLANE('',#795);
#691=PLANE('',#796);
#692=PLANE('',#797);
#693=PLANE('',#798);
#694=PLANE('',#799);
#695=PLANE('',#800);
#696=PLANE('',#801);
#697=PLANE('',#802);
#698=PLANE('',#803);
#699=PLANE('',#804);
#700=PLANE('',#807);
#701=PLANE('',#810);
#702=ADVANCED_FACE('',(#604,#605,#606),#658,.F.);
#703=ADVANCED_FACE('',(#607,#608,#609,#610,#611),#659,.T.);
#704=ADVANCED_FACE('',(#612),#660,.T.);
#705=ADVANCED_FACE('',(#613),#661,.F.);
#706=ADVANCED_FACE('',(#614),#662,.F.);
#707=ADVANCED_FACE('',(#615),#663,.T.);
#708=ADVANCED_FACE('',(#616),#664,.T.);
#709=ADVANCED_FACE('',(#617),#665,.F.);
#710=ADVANCED_FACE('',(#618),#666,.T.);
#711=ADVANCED_FACE('',(#619),#667,.F.);
#712=ADVANCED_FACE('',(#620),#668,.T.);
#713=ADVANCED_FACE('',(#621),#669,.T.);
#714=ADVANCED_FACE('',(#622),#670,.F.);
#715=ADVANCED_FACE('',(#623),#671,.T.);
#716=ADVANCED_FACE('',(#624),#672,.F.);
#717=ADVANCED_FACE('',(#625),#673,.T.);
#718=ADVANCED_FACE('',(#626),#674,.T.);
#719=ADVANCED_FACE('',(#627),#675,.F.);
#720=ADVANCED_FACE('',(#628),#676,.T.);
#721=ADVANCED_FACE('',(#629),#677,.F.);
#722=ADVANCED_FACE('',(#630),#678,.T.);
#723=ADVANCED_FACE('',(#631),#679,.T.);
#724=ADVANCED_FACE('',(#632),#680,.F.);
#725=ADVANCED_FACE('',(#633),#681,.T.);
#726=ADVANCED_FACE('',(#634),#682,.F.);
#727=ADVANCED_FACE('',(#635),#683,.T.);
#728=ADVANCED_FACE('',(#636),#684,.T.);
#729=ADVANCED_FACE('',(#637),#685,.F.);
#730=ADVANCED_FACE('',(#638),#686,.F.);
#731=ADVANCED_FACE('',(#639),#687,.T.);
#732=ADVANCED_FACE('',(#640),#688,.F.);
#733=ADVANCED_FACE('',(#641),#689,.T.);
#734=ADVANCED_FACE('',(#642),#690,.T.);
#735=ADVANCED_FACE('',(#643),#691,.F.);
#736=ADVANCED_FACE('',(#644),#692,.T.);
#737=ADVANCED_FACE('',(#645),#693,.F.);
#738=ADVANCED_FACE('',(#646),#694,.F.);
#739=ADVANCED_FACE('',(#647),#695,.T.);
#740=ADVANCED_FACE('',(#648),#696,.F.);
#741=ADVANCED_FACE('',(#649),#697,.T.);
#742=ADVANCED_FACE('',(#650),#698,.T.);
#743=ADVANCED_FACE('',(#651),#699,.F.);
#744=ADVANCED_FACE('',(#652,#653),#12,.T.);
#745=ADVANCED_FACE('',(#654),#700,.T.);
#746=ADVANCED_FACE('',(#655,#656),#13,.T.);
#747=ADVANCED_FACE('',(#657),#701,.T.);
#748=CLOSED_SHELL('',(#702,#703,#704,#705,#706,#707,#708,#709,#710,#711,
#712,#713,#714,#715,#716,#717,#718,#719,#720,#721,#722,#723,#724,#725,#726,
#727,#728,#729,#730,#731,#732,#733,#734,#735,#736,#737,#738,#739,#740,#741,
#742,#743,#744,#745,#746,#747));
#749=STYLED_ITEM('',(#750),#757);
#750=PRESENTATION_STYLE_ASSIGNMENT((#751));
#751=SURFACE_STYLE_USAGE(.BOTH.,#752);
#752=SURFACE_SIDE_STYLE('',(#753));
#753=SURFACE_STYLE_FILL_AREA(#754);
#754=FILL_AREA_STYLE('',(#755));
#755=FILL_AREA_STYLE_COLOUR('',#756);
#756=COLOUR_RGB('',0.615686274509804,0.811764705882353,0.929411764705882);
#757=MANIFOLD_SOLID_BREP('Part 1',#748);
#758=SHAPE_DEFINITION_REPRESENTATION(#1214,#759);
#759=SHAPE_REPRESENTATION('Part 1',(#760),#1209);
#760=AXIS2_PLACEMENT_3D('',#1005,#811,#812);
#761=AXIS2_PLACEMENT_3D('',#1006,#813,#814);
#762=AXIS2_PLACEMENT_3D('',#1007,#815,#816);
#763=AXIS2_PLACEMENT_3D('',#1017,#821,#822);
#764=AXIS2_PLACEMENT_3D('',#1019,#823,#824);
#765=AXIS2_PLACEMENT_3D('',#1060,#845,#846);
#766=AXIS2_PLACEMENT_3D('',#1063,#849,#850);
#767=AXIS2_PLACEMENT_3D('',#1065,#852,#853);
#768=AXIS2_PLACEMENT_3D('',#1067,#855,#856);
#769=AXIS2_PLACEMENT_3D('',#1068,#857,#858);
#770=AXIS2_PLACEMENT_3D('',#1077,#863,#864);
#771=AXIS2_PLACEMENT_3D('',#1083,#868,#869);
#772=AXIS2_PLACEMENT_3D('',#1089,#873,#874);
#773=AXIS2_PLACEMENT_3D('',#1092,#877,#878);
#774=AXIS2_PLACEMENT_3D('',#1093,#879,#880);
#775=AXIS2_PLACEMENT_3D('',#1102,#885,#886);
#776=AXIS2_PLACEMENT_3D('',#1108,#890,#891);
#777=AXIS2_PLACEMENT_3D('',#1114,#895,#896);
#778=AXIS2_PLACEMENT_3D('',#1117,#899,#900);
#779=AXIS2_PLACEMENT_3D('',#1118,#901,#902);
#780=AXIS2_PLACEMENT_3D('',#1127,#907,#908);
#781=AXIS2_PLACEMENT_3D('',#1133,#912,#913);
#782=AXIS2_PLACEMENT_3D('',#1139,#917,#918);
#783=AXIS2_PLACEMENT_3D('',#1142,#921,#922);
#784=AXIS2_PLACEMENT_3D('',#1143,#923,#924);
#785=AXIS2_PLACEMENT_3D('',#1152,#929,#930);
#786=AXIS2_PLACEMENT_3D('',#1158,#934,#935);
#787=AXIS2_PLACEMENT_3D('',#1164,#939,#940);
#788=AXIS2_PLACEMENT_3D('',#1167,#943,#944);
#789=AXIS2_PLACEMENT_3D('',#1168,#945,#946);
#790=AXIS2_PLACEMENT_3D('',#1171,#949,#950);
#791=AXIS2_PLACEMENT_3D('',#1173,#952,#953);
#792=AXIS2_PLACEMENT_3D('',#1175,#955,#956);
#793=AXIS2_PLACEMENT_3D('',#1176,#957,#958);
#794=AXIS2_PLACEMENT_3D('',#1179,#961,#962);
#795=AXIS2_PLACEMENT_3D('',#1181,#964,#965);
#796=AXIS2_PLACEMENT_3D('',#1183,#967,#968);
#797=AXIS2_PLACEMENT_3D('',#1184,#969,#970);
#798=AXIS2_PLACEMENT_3D('',#1187,#973,#974);
#799=AXIS2_PLACEMENT_3D('',#1189,#976,#977);
#800=AXIS2_PLACEMENT_3D('',#1191,#979,#980);
#801=AXIS2_PLACEMENT_3D('',#1192,#981,#982);
#802=AXIS2_PLACEMENT_3D('',#1195,#985,#986);
#803=AXIS2_PLACEMENT_3D('',#1197,#988,#989);
#804=AXIS2_PLACEMENT_3D('',#1199,#991,#992);
#805=AXIS2_PLACEMENT_3D('',#1200,#993,#994);
#806=AXIS2_PLACEMENT_3D('',#1201,#995,#996);
#807=AXIS2_PLACEMENT_3D('',#1203,#997,#998);
#808=AXIS2_PLACEMENT_3D('',#1204,#999,#1000);
#809=AXIS2_PLACEMENT_3D('',#1205,#1001,#1002);
#810=AXIS2_PLACEMENT_3D('',#1207,#1003,#1004);
#811=DIRECTION('',(0.,0.,1.));
#812=DIRECTION('',(1.,0.,0.));
#813=DIRECTION('',(0.,1.,0.));
#814=DIRECTION('',(1.,0.,0.));
#815=DIRECTION('',(0.,1.,0.));
#816=DIRECTION('',(-1.,0.,0.));
#817=DIRECTION('',(0.,0.,-1.));
#818=DIRECTION('',(1.,0.,0.));
#819=DIRECTION('',(0.,0.,-1.));
#820=DIRECTION('',(1.,0.,0.));
#821=DIRECTION('',(0.,-1.,0.));
#822=DIRECTION('',(-1.,0.,0.));
#823=DIRECTION('',(0.,1.,0.));
#824=DIRECTION('',(1.,0.,0.));
#825=DIRECTION('',(0.447213595499957,0.,-0.894427190999917));
#826=DIRECTION('',(0.447213595499956,0.,0.894427190999917));
#827=DIRECTION('',(-0.447213595499957,0.,0.894427190999917));
#828=DIRECTION('',(-0.447213595499956,0.,-0.894427190999917));
#829=DIRECTION('',(-0.447213595499957,0.,-0.894427190999917));
#830=DIRECTION('',(0.447213595499957,0.,-0.894427190999917));
#831=DIRECTION('',(0.447213595499957,0.,0.894427190999917));
#832=DIRECTION('',(-0.447213595499957,0.,0.894427190999917));
#833=DIRECTION('',(-0.447213595499956,0.,0.894427190999917));
#834=DIRECTION('',(-0.447213595499957,0.,-0.894427190999917));
#835=DIRECTION('',(0.447213595499956,0.,-0.894427190999917));
#836=DIRECTION('',(0.447213595499957,0.,0.894427190999917));
#837=DIRECTION('',(0.447213595499956,0.,0.894427190999917));
#838=DIRECTION('',(-0.447213595499956,0.,0.894427190999917));
#839=DIRECTION('',(-0.447213595499956,0.,-0.894427190999917));
#840=DIRECTION('',(0.447213595499956,0.,-0.894427190999917));
#841=DIRECTION('',(0.,0.,-1.));
#842=DIRECTION('',(1.,0.,0.));
#843=DIRECTION('',(0.,0.,-1.));
#844=DIRECTION('',(1.,0.,0.));
#845=DIRECTION('',(-1.,0.,0.));
#846=DIRECTION('',(0.,1.,0.));
#847=DIRECTION('',(0.,-1.,0.));
#848=DIRECTION('',(0.,-1.,0.));
#849=DIRECTION('',(0.,0.,-1.));
#850=DIRECTION('',(0.,1.,0.));
#851=DIRECTION('',(0.,-1.,0.));
#852=DIRECTION('',(-1.,0.,0.));
#853=DIRECTION('',(0.,1.,0.));
#854=DIRECTION('',(0.,-1.,0.));
#855=DIRECTION('',(0.,0.,-1.));
#856=DIRECTION('',(0.,1.,0.));
#857=DIRECTION('',(0.894427190999917,0.,0.447213595499956));
#858=DIRECTION('',(0.447213595499956,0.,-0.894427190999917));
#859=DIRECTION('',(0.,1.,0.));
#860=DIRECTION('',(-0.447213595499956,0.,0.894427190999917));
#861=DIRECTION('',(0.,1.,0.));
#862=DIRECTION('',(0.447213595499956,0.,-0.894427190999917));
#863=DIRECTION('',(-0.894427190999917,0.,0.447213595499956));
#864=DIRECTION('',(0.447213595499956,0.,0.894427190999917));
#865=DIRECTION('',(0.447213595499956,0.,0.894427190999917));
#866=DIRECTION('',(0.,1.,0.));
#867=DIRECTION('',(0.447213595499956,0.,0.894427190999917));
#868=DIRECTION('',(-0.894427190999917,0.,-0.447213595499956));
#869=DIRECTION('',(-0.447213595499956,0.,0.894427190999917));
#870=DIRECTION('',(0.447213595499956,0.,-0.894427190999917));
#871=DIRECTION('',(0.,1.,0.));
#872=DIRECTION('',(-0.447213595499956,0.,0.894427190999917));
#873=DIRECTION('',(0.894427190999917,0.,-0.447213595499956));
#874=DIRECTION('',(-0.447213595499956,0.,-0.894427190999917));
#875=DIRECTION('',(-0.447213595499956,0.,-0.894427190999917));
#876=DIRECTION('',(-0.447213595499956,0.,-0.894427190999917));
#877=DIRECTION('',(0.,1.,0.));
#878=DIRECTION('',(1.,0.,0.));
#879=DIRECTION('',(-0.894427190999917,0.,-0.447213595499957));
#880=DIRECTION('',(-0.447213595499957,0.,0.894427190999917));
#881=DIRECTION('',(0.,1.,0.));
#882=DIRECTION('',(0.447213595499957,0.,-0.894427190999917));
#883=DIRECTION('',(0.,1.,0.));
#884=DIRECTION('',(-0.447213595499957,0.,0.894427190999917));
#885=DIRECTION('',(0.894427190999917,0.,-0.447213595499956));
#886=DIRECTION('',(-0.447213595499956,0.,-0.894427190999917));
#887=DIRECTION('',(-0.447213595499956,0.,-0.894427190999917));
#888=DIRECTION('',(0.,1.,0.));
#889=DIRECTION('',(-0.447213595499956,0.,-0.894427190999917));
#890=DIRECTION('',(0.894427190999917,0.,0.447213595499957));
#891=DIRECTION('',(0.447213595499957,0.,-0.894427190999917));
#892=DIRECTION('',(-0.447213595499957,0.,0.894427190999917));
#893=DIRECTION('',(0.,1.,0.));
#894=DIRECTION('',(0.447213595499957,0.,-0.894427190999917));
#895=DIRECTION('',(-0.894427190999917,0.,0.447213595499956));
#896=DIRECTION('',(0.447213595499956,0.,0.894427190999917));
#897=DIRECTION('',(0.447213595499956,0.,0.894427190999917));
#898=DIRECTION('',(0.447213595499956,0.,0.894427190999917));
#899=DIRECTION('',(0.,1.,0.));
#900=DIRECTION('',(1.,0.,0.));
#901=DIRECTION('',(0.894427190999917,0.,0.447213595499957));
#902=DIRECTION('',(0.447213595499957,0.,-0.894427190999917));
#903=DIRECTION('',(0.,1.,0.));
#904=DIRECTION('',(-0.447213595499957,0.,0.894427190999917));
#905=DIRECTION('',(0.,1.,0.));
#906=DIRECTION('',(0.447213595499957,0.,-0.894427190999917));
#907=DIRECTION('',(-0.894427190999917,0.,0.447213595499957));
#908=DIRECTION('',(0.447213595499957,0.,0.894427190999917));
#909=DIRECTION('',(0.447213595499957,0.,0.894427190999917));
#910=DIRECTION('',(0.,1.,0.));
#911=DIRECTION('',(0.447213595499957,0.,0.894427190999917));
#912=DIRECTION('',(-0.894427190999917,0.,-0.447213595499957));
#913=DIRECTION('',(-0.447213595499957,0.,0.894427190999917));
#914=DIRECTION('',(0.447213595499957,0.,-0.894427190999917));
#915=DIRECTION('',(0.,1.,0.));
#916=DIRECTION('',(-0.447213595499957,0.,0.894427190999917));
#917=DIRECTION('',(0.894427190999917,0.,-0.447213595499957));
#918=DIRECTION('',(-0.447213595499957,0.,-0.894427190999917));
#919=DIRECTION('',(-0.447213595499957,0.,-0.894427190999917));
#920=DIRECTION('',(-0.447213595499957,0.,-0.894427190999917));
#921=DIRECTION('',(0.,1.,0.));
#922=DIRECTION('',(1.,0.,0.));
#923=DIRECTION('',(-0.894427190999917,0.,-0.447213595499956));
#924=DIRECTION('',(-0.447213595499956,0.,0.894427190999917));
#925=DIRECTION('',(0.,1.,0.));
#926=DIRECTION('',(0.447213595499956,0.,-0.894427190999917));
#927=DIRECTION('',(0.,1.,0.));
#928=DIRECTION('',(-0.447213595499956,0.,0.894427190999917));
#929=DIRECTION('',(0.894427190999917,0.,-0.447213595499957));
#930=DIRECTION('',(-0.447213595499957,0.,-0.894427190999917));
#931=DIRECTION('',(-0.447213595499957,0.,-0.894427190999917));
#932=DIRECTION('',(0.,1.,0.));
#933=DIRECTION('',(-0.447213595499957,0.,-0.894427190999917));
#934=DIRECTION('',(0.894427190999917,0.,0.447213595499956));
#935=DIRECTION('',(0.447213595499956,0.,-0.894427190999917));
#936=DIRECTION('',(-0.447213595499956,0.,0.894427190999917));
#937=DIRECTION('',(0.,1.,0.));
#938=DIRECTION('',(0.447213595499956,0.,-0.894427190999917));
#939=DIRECTION('',(-0.894427190999917,0.,0.447213595499957));
#940=DIRECTION('',(0.447213595499957,0.,0.894427190999917));
#941=DIRECTION('',(0.447213595499957,0.,0.894427190999917));
#942=DIRECTION('',(0.447213595499957,0.,0.894427190999917));
#943=DIRECTION('',(0.,1.,0.));
#944=DIRECTION('',(1.,0.,0.));
#945=DIRECTION('',(0.632455532033676,0.707106781186548,-0.316227766016836));
#946=DIRECTION('',(-0.447213595499956,0.,-0.894427190999917));
#947=DIRECTION('',(0.74535599249993,-0.666666666666667,-1.90888559885154E-15));
#948=DIRECTION('',(9.27316841112039E-16,-0.408248290463862,-0.912870929175277));
#949=DIRECTION('',(0.632455532033677,-0.707106781186547,0.316227766016837));
#950=DIRECTION('',(-0.447213595499957,0.,0.894427190999917));
#951=DIRECTION('',(0.74535599249993,0.666666666666667,-3.48644929907487E-15));
#952=DIRECTION('',(-0.632455532033677,-0.707106781186547,-0.316227766016837));
#953=DIRECTION('',(0.447213595499957,0.,-0.894427190999917));
#954=DIRECTION('',(-1.21810037681151E-15,-0.408248290463862,0.912870929175278));
#955=DIRECTION('',(-0.632455532033676,0.707106781186549,0.316227766016836));
#956=DIRECTION('',(0.447213595499956,0.,0.894427190999917));
#957=DIRECTION('',(0.632455532033675,-0.707106781186549,0.316227766016836));
#958=DIRECTION('',(-0.447213595499957,0.,0.894427190999917));
#959=DIRECTION('',(0.745355992499931,0.666666666666666,7.40148683083441E-16));
#960=DIRECTION('',(8.70661009632435E-16,0.408248290463862,0.912870929175277));
#961=DIRECTION('',(0.632455532033677,0.707106781186547,-0.316227766016837));
#962=DIRECTION('',(-0.447213595499957,0.,-0.894427190999917));
#963=DIRECTION('',(0.74535599249993,-0.666666666666667,3.7007434154172E-16));
#964=DIRECTION('',(-0.632455532033676,0.707106781186549,0.316227766016836));
#965=DIRECTION('',(0.447213595499957,0.,0.894427190999917));
#966=DIRECTION('',(5.66558314796049E-16,0.408248290463862,-0.912870929175278));
#967=DIRECTION('',(-0.632455532033676,-0.707106781186548,-0.316227766016837));
#968=DIRECTION('',(0.447213595499957,0.,-0.894427190999917));
#969=DIRECTION('',(-0.632455532033675,0.70710678118655,0.316227766016836));
#970=DIRECTION('',(0.447213595499957,0.,0.894427190999917));
#971=DIRECTION('',(0.74535599249993,0.666666666666667,-6.85112306719284E-15));
#972=DIRECTION('',(7.08197893495062E-16,0.408248290463861,-0.912870929175278));
#973=DIRECTION('',(-0.632455532033676,-0.707106781186548,-0.316227766016836));
#974=DIRECTION('',(0.447213595499956,0.,-0.894427190999917));
#975=DIRECTION('',(-0.745355992499929,0.666666666666668,-4.34837351311521E-15));
#976=DIRECTION('',(0.632455532033678,-0.707106781186546,0.316227766016837));
#977=DIRECTION('',(-0.447213595499956,0.,0.894427190999917));
#978=DIRECTION('',(-3.39934988877629E-16,-0.408248290463863,-0.912870929175277));
#979=DIRECTION('',(0.632455532033678,0.707106781186546,-0.316227766016837));
#980=DIRECTION('',(-0.447213595499957,0.,-0.894427190999917));
#981=DIRECTION('',(-0.632455532033678,-0.707106781186546,-0.316227766016837));
#982=DIRECTION('',(0.447213595499956,0.,-0.894427190999917));
#983=DIRECTION('',(0.745355992499929,-0.666666666666668,-3.7007434154172E-15));
#984=DIRECTION('',(1.18226808277026E-15,-0.408248290463865,0.912870929175276));
#985=DIRECTION('',(-0.63245553203368,0.707106781186544,0.316227766016838));
#986=DIRECTION('',(0.447213595499956,0.,0.894427190999917));
#987=DIRECTION('',(-0.745355992499927,-0.66666666666667,-4.49940598964357E-15));
#988=DIRECTION('',(0.632455532033677,0.707106781186548,-0.316227766016836));
#989=DIRECTION('',(-0.447213595499956,0.,-0.894427190999917));
#990=DIRECTION('',(-9.27316841112039E-16,0.408248290463863,0.912870929175277));
#991=DIRECTION('',(0.632455532033678,-0.707106781186546,0.316227766016837));
#992=DIRECTION('',(-0.447213595499956,0.,0.894427190999917));
#993=DIRECTION('',(0.,1.,0.));
#994=DIRECTION('',(1.,0.,0.));
#995=DIRECTION('',(0.,1.,0.));
#996=DIRECTION('',(-1.,0.,0.));
#997=DIRECTION('',(0.,-1.,0.));
#998=DIRECTION('',(1.,0.,0.));
#999=DIRECTION('',(0.,1.,0.));
#1000=DIRECTION('',(1.,0.,0.));
#1001=DIRECTION('',(0.,-1.,0.));
#1002=DIRECTION('',(-1.,0.,0.));
#1003=DIRECTION('',(0.,-1.,0.));
#1004=DIRECTION('',(1.,0.,0.));
#1005=CARTESIAN_POINT('',(0.,0.,0.));
#1006=CARTESIAN_POINT('',(0.025,0.,-0.025));
#1007=CARTESIAN_POINT('',(0.045,0.,-0.025));
#1008=CARTESIAN_POINT('',(0.0426,0.,-0.025));
#1009=CARTESIAN_POINT('',(0.,0.,-0.025));
#1010=CARTESIAN_POINT('',(0.,0.,0.));
#1011=CARTESIAN_POINT('',(-1.04083408558608E-17,0.,-0.05));
#1012=CARTESIAN_POINT('',(0.025,0.,-0.05));
#1013=CARTESIAN_POINT('',(0.05,0.,-0.05));
#1014=CARTESIAN_POINT('',(0.05,0.,-0.025));
#1015=CARTESIAN_POINT('',(0.05,0.,0.));
#1016=CARTESIAN_POINT('',(0.025,0.,0.));
#1017=CARTESIAN_POINT('',(0.005,0.,-0.025));
#1018=CARTESIAN_POINT('',(0.0026,0.,-0.025));
#1019=CARTESIAN_POINT('',(0.025,0.015,-0.025));
#1020=CARTESIAN_POINT('',(0.00715278640450004,0.015,-0.0339236067977499));
#1021=CARTESIAN_POINT('',(0.00894098300562507,0.015,-0.0375));
#1022=CARTESIAN_POINT('',(0.0125,0.015,-0.0446180339887499));
#1023=CARTESIAN_POINT('',(0.0159472135954999,0.015,-0.03772360679775));
#1024=CARTESIAN_POINT('',(0.0160590169943749,0.015,-0.0375));
#1025=CARTESIAN_POINT('',(0.0128472135954999,0.015,-0.03107639320225));
#1026=CARTESIAN_POINT('',(0.0125,0.015,-0.0303819660112501));
#1027=CARTESIAN_POINT('',(0.00905278640450005,0.015,-0.03727639320225));
#1028=CARTESIAN_POINT('',(0.0340527864045001,0.015,-0.03727639320225));
#1029=CARTESIAN_POINT('',(0.0375,0.015,-0.0303819660112501));
#1030=CARTESIAN_POINT('',(0.033940983005625,0.015,-0.0375));
#1031=CARTESIAN_POINT('',(0.0271527864045001,0.015,-0.0239236067977499));
#1032=CARTESIAN_POINT('',(0.0375,0.015,-0.0446180339887499));
#1033=CARTESIAN_POINT('',(0.0409472135955,0.015,-0.03772360679775));
#1034=CARTESIAN_POINT('',(0.041059016994375,0.015,-0.0375));
#1035=CARTESIAN_POINT('',(0.0328472135955,0.015,-0.0210763932022501));
#1036=CARTESIAN_POINT('',(0.0228472135955,0.015,-0.02607639320225));
#1037=CARTESIAN_POINT('',(0.0160590169943749,0.015,-0.0125));
#1038=CARTESIAN_POINT('',(0.0125,0.015,-0.00538196601125009));
#1039=CARTESIAN_POINT('',(0.00905278640450006,0.015,-0.01227639320225));
#1040=CARTESIAN_POINT('',(0.00894098300562507,0.015,-0.0125));
#1041=CARTESIAN_POINT('',(0.0171527864045,0.015,-0.02892360679775));
#1042=CARTESIAN_POINT('',(0.0125,0.015,-0.0196180339887499));
#1043=CARTESIAN_POINT('',(0.0159472135954999,0.015,-0.01272360679775));
#1044=CARTESIAN_POINT('',(0.0409472135955,0.015,-0.01272360679775));
#1045=CARTESIAN_POINT('',(0.0375,0.015,-0.0196180339887499));
#1046=CARTESIAN_POINT('',(0.041059016994375,0.015,-0.0125));
#1047=CARTESIAN_POINT('',(0.0428472135955,0.015,-0.0160763932022501));
#1048=CARTESIAN_POINT('',(0.0375,0.015,-0.0053819660112501));
#1049=CARTESIAN_POINT('',(0.0340527864045001,0.015,-0.01227639320225));
#1050=CARTESIAN_POINT('',(0.033940983005625,0.015,-0.0125));
#1051=CARTESIAN_POINT('',(0.0371527864045001,0.015,-0.01892360679775));
#1052=CARTESIAN_POINT('',(0.,0.015,-0.025));
#1053=CARTESIAN_POINT('',(0.,0.015,0.));
#1054=CARTESIAN_POINT('',(-1.04083408558608E-17,0.015,-0.05));
#1055=CARTESIAN_POINT('',(0.025,0.015,0.));
#1056=CARTESIAN_POINT('',(0.05,0.015,0.));
#1057=CARTESIAN_POINT('',(0.05,0.015,-0.025));
#1058=CARTESIAN_POINT('',(0.05,0.015,-0.05));
#1059=CARTESIAN_POINT('',(0.025,0.015,-0.05));
#1060=CARTESIAN_POINT('',(0.,0.015,-0.025));
#1061=CARTESIAN_POINT('',(0.,0.015,0.));
#1062=CARTESIAN_POINT('',(-1.04083408558608E-17,0.015,-0.05));
#1063=CARTESIAN_POINT('',(0.025,0.015,0.));
#1064=CARTESIAN_POINT('',(0.05,0.015,0.));
#1065=CARTESIAN_POINT('',(0.05,0.015,-0.025));
#1066=CARTESIAN_POINT('',(0.05,0.015,-0.05));
#1067=CARTESIAN_POINT('',(0.025,0.015,-0.05));
#1068=CARTESIAN_POINT('',(0.036,0.009,-0.0155));
#1069=CARTESIAN_POINT('',(0.0375,0.009,-0.0185));
#1070=CARTESIAN_POINT('',(0.0375,0.009,-0.0185));
#1071=CARTESIAN_POINT('',(0.0375,0.0145,-0.0185));
#1072=CARTESIAN_POINT('',(0.036,0.0145,-0.0155));
#1073=CARTESIAN_POINT('',(0.0345,0.0145,-0.0125));
#1074=CARTESIAN_POINT('',(0.0345,0.009,-0.0125));
#1075=CARTESIAN_POINT('',(0.0345,0.009,-0.0125));
#1076=CARTESIAN_POINT('',(0.036,0.009,-0.0155));
#1077=CARTESIAN_POINT('',(0.036,0.009,-0.0095));
#1078=CARTESIAN_POINT('',(0.0375,0.0145,-0.0065));
#1079=CARTESIAN_POINT('',(0.0375,0.0145,-0.0065));
#1080=CARTESIAN_POINT('',(0.0375,0.009,-0.0065));
#1081=CARTESIAN_POINT('',(0.0375,0.009,-0.0065));
#1082=CARTESIAN_POINT('',(0.036,0.009,-0.0095));
#1083=CARTESIAN_POINT('',(0.039,0.009,-0.0095));
#1084=CARTESIAN_POINT('',(0.039,0.0145,-0.0095));
#1085=CARTESIAN_POINT('',(0.0405,0.0145,-0.0125));
#1086=CARTESIAN_POINT('',(0.0405,0.009,-0.0125));
#1087=CARTESIAN_POINT('',(0.0405,0.009,-0.0125));
#1088=CARTESIAN_POINT('',(0.039,0.009,-0.0095));
#1089=CARTESIAN_POINT('',(0.039,0.009,-0.0155));
#1090=CARTESIAN_POINT('',(0.0375,0.0145,-0.0185));
#1091=CARTESIAN_POINT('',(0.039,0.009,-0.0155));
#1092=CARTESIAN_POINT('',(0.025,0.009,-0.025));
#1093=CARTESIAN_POINT('',(0.014,0.009,-0.0345));
#1094=CARTESIAN_POINT('',(0.0125,0.009,-0.0315));
#1095=CARTESIAN_POINT('',(0.0125,0.009,-0.0315));
#1096=CARTESIAN_POINT('',(0.0125,0.0145,-0.0315));
#1097=CARTESIAN_POINT('',(0.014,0.0145,-0.0345));
#1098=CARTESIAN_POINT('',(0.0155,0.0145,-0.0375));
#1099=CARTESIAN_POINT('',(0.0155,0.009,-0.0375));
#1100=CARTESIAN_POINT('',(0.0155,0.009,-0.0375));
#1101=CARTESIAN_POINT('',(0.014,0.009,-0.0345));
#1102=CARTESIAN_POINT('',(0.014,0.009,-0.0405));
#1103=CARTESIAN_POINT('',(0.0125,0.0145,-0.0435));
#1104=CARTESIAN_POINT('',(0.0125,0.0145,-0.0435));
#1105=CARTESIAN_POINT('',(0.0125,0.009,-0.0435));
#1106=CARTESIAN_POINT('',(0.0125,0.009,-0.0435));
#1107=CARTESIAN_POINT('',(0.014,0.009,-0.0405));
#1108=CARTESIAN_POINT('',(0.011,0.009,-0.0405));
#1109=CARTESIAN_POINT('',(0.011,0.0145,-0.0405));
#1110=CARTESIAN_POINT('',(0.0095,0.0145,-0.0375));
#1111=CARTESIAN_POINT('',(0.0095,0.009,-0.0375));
#1112=CARTESIAN_POINT('',(0.0095,0.009,-0.0375));
#1113=CARTESIAN_POINT('',(0.011,0.009,-0.0405));
#1114=CARTESIAN_POINT('',(0.011,0.009,-0.0345));
#1115=CARTESIAN_POINT('',(0.0125,0.0145,-0.0315));
#1116=CARTESIAN_POINT('',(0.011,0.009,-0.0345));
#1117=CARTESIAN_POINT('',(0.025,0.009,-0.025));
#1118=CARTESIAN_POINT('',(0.036,0.009,-0.0405));
#1119=CARTESIAN_POINT('',(0.0375,0.009,-0.0435));
#1120=CARTESIAN_POINT('',(0.0375,0.009,-0.0435));
#1121=CARTESIAN_POINT('',(0.0375,0.0145,-0.0435));
#1122=CARTESIAN_POINT('',(0.036,0.0145,-0.0405));
#1123=CARTESIAN_POINT('',(0.0345,0.0145,-0.0375));
#1124=CARTESIAN_POINT('',(0.0345,0.009,-0.0375));
#1125=CARTESIAN_POINT('',(0.0345,0.009,-0.0375));
#1126=CARTESIAN_POINT('',(0.036,0.009,-0.0405));
#1127=CARTESIAN_POINT('',(0.036,0.009,-0.0345));
#1128=CARTESIAN_POINT('',(0.0375,0.0145,-0.0315));
#1129=CARTESIAN_POINT('',(0.0375,0.0145,-0.0315));
#1130=CARTESIAN_POINT('',(0.0375,0.009,-0.0315));
#1131=CARTESIAN_POINT('',(0.0375,0.009,-0.0315));
#1132=CARTESIAN_POINT('',(0.036,0.009,-0.0345));
#1133=CARTESIAN_POINT('',(0.039,0.009,-0.0345));
#1134=CARTESIAN_POINT('',(0.039,0.0145,-0.0345));
#1135=CARTESIAN_POINT('',(0.0405,0.0145,-0.0375));
#1136=CARTESIAN_POINT('',(0.0405,0.009,-0.0375));
#1137=CARTESIAN_POINT('',(0.0405,0.009,-0.0375));
#1138=CARTESIAN_POINT('',(0.039,0.009,-0.0345));
#1139=CARTESIAN_POINT('',(0.039,0.009,-0.0405));
#1140=CARTESIAN_POINT('',(0.0375,0.0145,-0.0435));
#1141=CARTESIAN_POINT('',(0.039,0.009,-0.0405));
#1142=CARTESIAN_POINT('',(0.025,0.009,-0.025));
#1143=CARTESIAN_POINT('',(0.014,0.009,-0.0095));
#1144=CARTESIAN_POINT('',(0.0125,0.009,-0.0065));
#1145=CARTESIAN_POINT('',(0.0125,0.009,-0.0065));
#1146=CARTESIAN_POINT('',(0.0125,0.0145,-0.0065));
#1147=CARTESIAN_POINT('',(0.014,0.0145,-0.0095));
#1148=CARTESIAN_POINT('',(0.0155,0.0145,-0.0125));
#1149=CARTESIAN_POINT('',(0.0155,0.009,-0.0125));
#1150=CARTESIAN_POINT('',(0.0155,0.009,-0.0125));
#1151=CARTESIAN_POINT('',(0.014,0.009,-0.0095));
#1152=CARTESIAN_POINT('',(0.014,0.009,-0.0155));
#1153=CARTESIAN_POINT('',(0.0125,0.0145,-0.0185));
#1154=CARTESIAN_POINT('',(0.0125,0.0145,-0.0185));
#1155=CARTESIAN_POINT('',(0.0125,0.009,-0.0185));
#1156=CARTESIAN_POINT('',(0.0125,0.009,-0.0185));
#1157=CARTESIAN_POINT('',(0.014,0.009,-0.0155));
#1158=CARTESIAN_POINT('',(0.011,0.009,-0.0155));
#1159=CARTESIAN_POINT('',(0.011,0.0145,-0.0155));
#1160=CARTESIAN_POINT('',(0.0095,0.0145,-0.0125));
#1161=CARTESIAN_POINT('',(0.0095,0.009,-0.0125));
#1162=CARTESIAN_POINT('',(0.0095,0.009,-0.0125));
#1163=CARTESIAN_POINT('',(0.011,0.009,-0.0155));
#1164=CARTESIAN_POINT('',(0.011,0.009,-0.0095));
#1165=CARTESIAN_POINT('',(0.0125,0.0145,-0.0065));
#1166=CARTESIAN_POINT('',(0.011,0.009,-0.0095));
#1167=CARTESIAN_POINT('',(0.025,0.009,-0.025));
#1168=CARTESIAN_POINT('',(0.011,0.0145,-0.0345));
#1169=CARTESIAN_POINT('',(0.00794754044944449,0.0158885620349444,-0.0375));
#1170=CARTESIAN_POINT('',(0.0125,0.0133819660112501,-0.034));
#1171=CARTESIAN_POINT('',(0.0128472135954999,0.015,-0.03107639320225));
#1172=CARTESIAN_POINT('',(0.0146666666666667,0.0137546440075001,-0.0375));
#1173=CARTESIAN_POINT('',(0.00715278640450004,0.015,-0.0339236067977499));
#1174=CARTESIAN_POINT('',(0.0125,0.0133819660112501,-0.041));
#1175=CARTESIAN_POINT('',(0.014,0.0145,-0.0405));
#1176=CARTESIAN_POINT('',(0.0328472135955,0.015,-0.0210763932022501));
#1177=CARTESIAN_POINT('',(0.0396666666666666,0.0137546440075001,-0.0375));
#1178=CARTESIAN_POINT('',(0.0375,0.0184679822284163,-0.02262732200375));
#1179=CARTESIAN_POINT('',(0.036,0.0145,-0.0345));
#1180=CARTESIAN_POINT('',(0.0301697626716667,0.0183730820099441,-0.0375));
#1181=CARTESIAN_POINT('',(0.039,0.0145,-0.0405));
#1182=CARTESIAN_POINT('',(0.0375,0.00728764234091737,-0.0273726779962499));
#1183=CARTESIAN_POINT('',(0.0271527864045001,0.015,-0.0239236067977499));
#1184=CARTESIAN_POINT('',(0.014,0.0145,-0.0155));
#1185=CARTESIAN_POINT('',(0.0146666666666667,0.0137546440075001,-0.0125));
#1186=CARTESIAN_POINT('',(0.0125,0.0184679822284163,-0.02737267799625));
#1187=CARTESIAN_POINT('',(0.0171527864045,0.015,-0.02892360679775));
#1188=CARTESIAN_POINT('',(0.0103333333333333,0.0137546440075001,-0.0125));
#1189=CARTESIAN_POINT('',(0.0228472135954999,0.015,-0.02607639320225));
#1190=CARTESIAN_POINT('',(0.0125,0.0133819660112501,-0.009));
#1191=CARTESIAN_POINT('',(0.011,0.0145,-0.0095));
#1192=CARTESIAN_POINT('',(0.0371527864045001,0.015,-0.01892360679775));
#1193=CARTESIAN_POINT('',(0.0357253182272223,0.0134040420599446,-0.0125));
#1194=CARTESIAN_POINT('',(0.0375,0.0133819660112501,-0.016));
#1195=CARTESIAN_POINT('',(0.039,0.0145,-0.0155));
#1196=CARTESIAN_POINT('',(0.0420524595505555,0.0158885620349444,-0.0125));
#1197=CARTESIAN_POINT('',(0.036,0.0145,-0.0095));
#1198=CARTESIAN_POINT('',(0.0375,0.011014422303417,-0.0142939886704167));
#1199=CARTESIAN_POINT('',(0.0428472135955,0.015,-0.0160763932022501));
#1200=CARTESIAN_POINT('',(0.045,-0.005,-0.025));
#1201=CARTESIAN_POINT('',(0.045,-0.005,-0.025));
#1202=CARTESIAN_POINT('',(0.0426,-0.005,-0.025));
#1203=CARTESIAN_POINT('',(0.025,-0.005,-0.025));
#1204=CARTESIAN_POINT('',(0.005,-0.005,-0.025));
#1205=CARTESIAN_POINT('',(0.005,-0.005,-0.025));
#1206=CARTESIAN_POINT('',(0.0026,-0.005,-0.025));
#1207=CARTESIAN_POINT('',(0.025,-0.005,-0.025));
#1208=MECHANICAL_DESIGN_GEOMETRIC_PRESENTATION_REPRESENTATION('',(#749),
#1209);
#1209=(
GEOMETRIC_REPRESENTATION_CONTEXT(3)
GLOBAL_UNCERTAINTY_ASSIGNED_CONTEXT((#1210))
GLOBAL_UNIT_ASSIGNED_CONTEXT((#1213,#1212,#1211))
REPRESENTATION_CONTEXT('Part 1','TOP_LEVEL_ASSEMBLY_PART')
);
#1210=UNCERTAINTY_MEASURE_WITH_UNIT(LENGTH_MEASURE(1.E-8),#1213,
'DISTANCE_ACCURACY_VALUE','Maximum Tolerance applied to model');
#1211=(
NAMED_UNIT(*)
SI_UNIT($,.STERADIAN.)
SOLID_ANGLE_UNIT()
);
#1212=(
NAMED_UNIT(*)
PLANE_ANGLE_UNIT()
SI_UNIT($,.RADIAN.)
);
#1213=(
LENGTH_UNIT()
NAMED_UNIT(*)
SI_UNIT($,.METRE.)
);
#1214=PRODUCT_DEFINITION_SHAPE('','',#1215);
#1215=PRODUCT_DEFINITION('','',#1217,#1216);
#1216=PRODUCT_DEFINITION_CONTEXT('',#1223,'design');
#1217=PRODUCT_DEFINITION_FORMATION_WITH_SPECIFIED_SOURCE('','',#1219,
 .NOT_KNOWN.);
#1218=PRODUCT_RELATED_PRODUCT_CATEGORY('','',(#1219));
#1219=PRODUCT('Part 1','Part 1','Part 1',(#1221));
#1220=PRODUCT_CATEGORY('','');
#1221=PRODUCT_CONTEXT('',#1223,'mechanical');
#1222=APPLICATION_PROTOCOL_DEFINITION('international standard',
'ap242_managed_model_based_3d_engineering',2020,#1223);
#1223=APPLICATION_CONTEXT('managed model based 3d engineering');
ENDSEC;
END-ISO-10303-21;
