ISO-10303-21;
HEADER;
FILE_DESCRIPTION(('FreeCAD Model'),'2;1');
FILE_NAME('Open CASCADE Shape Model','2026-05-19T12:33:35',('FreeCAD'),(
    'FreeCAD'),'Open CASCADE STEP processor 7.8','FreeCAD','Unknown');
FILE_SCHEMA(('AUTOMOTIVE_DESIGN { 1 0 10303 214 1 1 1 1 }'));
ENDSEC;
DATA;
#1 = APPLICATION_PROTOCOL_DEFINITION('international standard',
  'automotive_design',2000,#2);
#2 = APPLICATION_CONTEXT(
  'core data for automotive mechanical design processes');
#3 = SHAPE_DEFINITION_REPRESENTATION(#4,#10);
#4 = PRODUCT_DEFINITION_SHAPE('','',#5);
#5 = PRODUCT_DEFINITION('design','',#6,#9);
#6 = PRODUCT_DEFINITION_FORMATION('','',#7);
#7 = PRODUCT('Open CASCADE STEP translator 7.8 1',
  'Open CASCADE STEP translator 7.8 1','',(#8));
#8 = PRODUCT_CONTEXT('',#2,'mechanical');
#9 = PRODUCT_DEFINITION_CONTEXT('part definition',#2,'design');
#10 = ADVANCED_BREP_SHAPE_REPRESENTATION('',(#11,#15),#1693);
#11 = AXIS2_PLACEMENT_3D('',#12,#13,#14);
#12 = CARTESIAN_POINT('',(0.,0.,0.));
#13 = DIRECTION('',(0.,0.,1.));
#14 = DIRECTION('',(1.,0.,-0.));
#15 = MANIFOLD_SOLID_BREP('',#16);
#16 = CLOSED_SHELL('',(#17,#89,#152,#178,#300,#326,#382,#406,#608,#625,
    #641,#657,#676,#693,#714,#733,#749,#765,#777,#799,#816,#833,#845,
    #877,#901,#926,#943,#975,#999,#1024,#1041,#1073,#1097,#1122,#1139,
    #1171,#1195,#1220,#1237,#1271,#1296,#1322,#1339,#1373,#1398,#1424,
    #1441,#1475,#1500,#1526,#1543,#1577,#1602,#1628,#1645,#1657,#1669,
    #1681));
#17 = ADVANCED_FACE('',(#18),#84,.F.);
#18 = FACE_BOUND('',#19,.F.);
#19 = EDGE_LOOP('',(#20,#30,#38,#46,#54,#62,#70,#78));
#20 = ORIENTED_EDGE('',*,*,#21,.F.);
#21 = EDGE_CURVE('',#22,#24,#26,.T.);
#22 = VERTEX_POINT('',#23);
#23 = CARTESIAN_POINT('',(-50.,-82.,6.));
#24 = VERTEX_POINT('',#25);
#25 = CARTESIAN_POINT('',(-50.,-35.,6.));
#26 = LINE('',#27,#28);
#27 = CARTESIAN_POINT('',(-50.,-82.,6.));
#28 = VECTOR('',#29,1.);
#29 = DIRECTION('',(-0.,1.,0.));
#30 = ORIENTED_EDGE('',*,*,#31,.F.);
#31 = EDGE_CURVE('',#32,#22,#34,.T.);
#32 = VERTEX_POINT('',#33);
#33 = CARTESIAN_POINT('',(-50.,-82.,0.));
#34 = LINE('',#35,#36);
#35 = CARTESIAN_POINT('',(-50.,-82.,0.));
#36 = VECTOR('',#37,1.);
#37 = DIRECTION('',(0.,0.,1.));
#38 = ORIENTED_EDGE('',*,*,#39,.T.);
#39 = EDGE_CURVE('',#32,#40,#42,.T.);
#40 = VERTEX_POINT('',#41);
#41 = CARTESIAN_POINT('',(-50.,82.,0.));
#42 = LINE('',#43,#44);
#43 = CARTESIAN_POINT('',(-50.,-82.,0.));
#44 = VECTOR('',#45,1.);
#45 = DIRECTION('',(-0.,1.,0.));
#46 = ORIENTED_EDGE('',*,*,#47,.T.);
#47 = EDGE_CURVE('',#40,#48,#50,.T.);
#48 = VERTEX_POINT('',#49);
#49 = CARTESIAN_POINT('',(-50.,82.,6.));
#50 = LINE('',#51,#52);
#51 = CARTESIAN_POINT('',(-50.,82.,0.));
#52 = VECTOR('',#53,1.);
#53 = DIRECTION('',(0.,0.,1.));
#54 = ORIENTED_EDGE('',*,*,#55,.F.);
#55 = EDGE_CURVE('',#56,#48,#58,.T.);
#56 = VERTEX_POINT('',#57);
#57 = CARTESIAN_POINT('',(-50.,35.,6.));
#58 = LINE('',#59,#60);
#59 = CARTESIAN_POINT('',(-50.,-82.,6.));
#60 = VECTOR('',#61,1.);
#61 = DIRECTION('',(-0.,1.,0.));
#62 = ORIENTED_EDGE('',*,*,#63,.F.);
#63 = EDGE_CURVE('',#64,#56,#66,.T.);
#64 = VERTEX_POINT('',#65);
#65 = CARTESIAN_POINT('',(-50.,35.,3.));
#66 = LINE('',#67,#68);
#67 = CARTESIAN_POINT('',(-50.,35.,3.));
#68 = VECTOR('',#69,1.);
#69 = DIRECTION('',(0.,0.,1.));
#70 = ORIENTED_EDGE('',*,*,#71,.F.);
#71 = EDGE_CURVE('',#72,#64,#74,.T.);
#72 = VERTEX_POINT('',#73);
#73 = CARTESIAN_POINT('',(-50.,-35.,3.));
#74 = LINE('',#75,#76);
#75 = CARTESIAN_POINT('',(-50.,-35.,3.));
#76 = VECTOR('',#77,1.);
#77 = DIRECTION('',(-0.,1.,0.));
#78 = ORIENTED_EDGE('',*,*,#79,.T.);
#79 = EDGE_CURVE('',#72,#24,#80,.T.);
#80 = LINE('',#81,#82);
#81 = CARTESIAN_POINT('',(-50.,-35.,3.));
#82 = VECTOR('',#83,1.);
#83 = DIRECTION('',(0.,0.,1.));
#84 = PLANE('',#85);
#85 = AXIS2_PLACEMENT_3D('',#86,#87,#88);
#86 = CARTESIAN_POINT('',(-50.,-82.,0.));
#87 = DIRECTION('',(1.,0.,-0.));
#88 = DIRECTION('',(0.,0.,1.));
#89 = ADVANCED_FACE('',(#90),#147,.T.);
#90 = FACE_BOUND('',#91,.T.);
#91 = EDGE_LOOP('',(#92,#93,#101,#109,#117,#125,#133,#141));
#92 = ORIENTED_EDGE('',*,*,#21,.F.);
#93 = ORIENTED_EDGE('',*,*,#94,.T.);
#94 = EDGE_CURVE('',#22,#95,#97,.T.);
#95 = VERTEX_POINT('',#96);
#96 = CARTESIAN_POINT('',(50.,-82.,6.));
#97 = LINE('',#98,#99);
#98 = CARTESIAN_POINT('',(-50.,-82.,6.));
#99 = VECTOR('',#100,1.);
#100 = DIRECTION('',(1.,0.,-0.));
#101 = ORIENTED_EDGE('',*,*,#102,.T.);
#102 = EDGE_CURVE('',#95,#103,#105,.T.);
#103 = VERTEX_POINT('',#104);
#104 = CARTESIAN_POINT('',(50.,-35.,6.));
#105 = LINE('',#106,#107);
#106 = CARTESIAN_POINT('',(50.,-82.,6.));
#107 = VECTOR('',#108,1.);
#108 = DIRECTION('',(-0.,1.,0.));
#109 = ORIENTED_EDGE('',*,*,#110,.T.);
#110 = EDGE_CURVE('',#103,#111,#113,.T.);
#111 = VERTEX_POINT('',#112);
#112 = CARTESIAN_POINT('',(44.622050807569,-35.,6.));
#113 = LINE('',#114,#115);
#114 = CARTESIAN_POINT('',(-8.75,-35.,6.));
#115 = VECTOR('',#116,1.);
#116 = DIRECTION('',(-1.,-0.,0.));
#117 = ORIENTED_EDGE('',*,*,#118,.F.);
#118 = EDGE_CURVE('',#119,#111,#121,.T.);
#119 = VERTEX_POINT('',#120);
#120 = CARTESIAN_POINT('',(44.622050807569,-65.76205080756,6.));
#121 = LINE('',#122,#123);
#122 = CARTESIAN_POINT('',(44.622050807569,-65.76205080756,6.));
#123 = VECTOR('',#124,1.);
#124 = DIRECTION('',(0.,1.,0.));
#125 = ORIENTED_EDGE('',*,*,#126,.F.);
#126 = EDGE_CURVE('',#127,#119,#129,.T.);
#127 = VERTEX_POINT('',#128);
#128 = CARTESIAN_POINT('',(-44.62205080756,-65.76205080756,6.));
#129 = LINE('',#130,#131);
#130 = CARTESIAN_POINT('',(-44.62205080756,-65.76205080756,6.));
#131 = VECTOR('',#132,1.);
#132 = DIRECTION('',(1.,0.,0.));
#133 = ORIENTED_EDGE('',*,*,#134,.F.);
#134 = EDGE_CURVE('',#135,#127,#137,.T.);
#135 = VERTEX_POINT('',#136);
#136 = CARTESIAN_POINT('',(-44.62205080756,-35.,6.));
#137 = LINE('',#138,#139);
#138 = CARTESIAN_POINT('',(-44.62205080756,65.762050807569,6.));
#139 = VECTOR('',#140,1.);
#140 = DIRECTION('',(0.,-1.,0.));
#141 = ORIENTED_EDGE('',*,*,#142,.T.);
#142 = EDGE_CURVE('',#135,#24,#143,.T.);
#143 = LINE('',#144,#145);
#144 = CARTESIAN_POINT('',(-50.,-35.,6.));
#145 = VECTOR('',#146,1.);
#146 = DIRECTION('',(-1.,-0.,0.));
#147 = PLANE('',#148);
#148 = AXIS2_PLACEMENT_3D('',#149,#150,#151);
#149 = CARTESIAN_POINT('',(-50.,-82.,6.));
#150 = DIRECTION('',(0.,0.,1.));
#151 = DIRECTION('',(1.,0.,-0.));
#152 = ADVANCED_FACE('',(#153),#173,.T.);
#153 = FACE_BOUND('',#154,.T.);
#154 = EDGE_LOOP('',(#155,#163,#164,#165));
#155 = ORIENTED_EDGE('',*,*,#156,.F.);
#156 = EDGE_CURVE('',#72,#157,#159,.T.);
#157 = VERTEX_POINT('',#158);
#158 = CARTESIAN_POINT('',(-42.89,-35.,3.));
#159 = LINE('',#160,#161);
#160 = CARTESIAN_POINT('',(-50.,-35.,3.));
#161 = VECTOR('',#162,1.);
#162 = DIRECTION('',(1.,0.,-0.));
#163 = ORIENTED_EDGE('',*,*,#79,.T.);
#164 = ORIENTED_EDGE('',*,*,#142,.F.);
#165 = ORIENTED_EDGE('',*,*,#166,.F.);
#166 = EDGE_CURVE('',#157,#135,#167,.T.);
#167 = B_SPLINE_CURVE_WITH_KNOTS('',4,(#168,#169,#170,#171,#172),
  .UNSPECIFIED.,.F.,.F.,(5,5),(0.,1.),.PIECEWISE_BEZIER_KNOTS.);
#168 = CARTESIAN_POINT('',(-42.89,-35.,3.));
#169 = CARTESIAN_POINT('',(-43.32225205128,-35.,3.748682514493));
#170 = CARTESIAN_POINT('',(-43.75503168299,-35.,4.498278825095));
#171 = CARTESIAN_POINT('',(-44.18830719704,-35.,5.248734029116));
#172 = CARTESIAN_POINT('',(-44.62205080756,-35.,6.));
#173 = PLANE('',#174);
#174 = AXIS2_PLACEMENT_3D('',#175,#176,#177);
#175 = CARTESIAN_POINT('',(-50.,-35.,3.));
#176 = DIRECTION('',(-0.,1.,0.));
#177 = DIRECTION('',(0.,0.,1.));
#178 = ADVANCED_FACE('',(#179,#261),#295,.T.);
#179 = FACE_BOUND('',#180,.T.);
#180 = EDGE_LOOP('',(#181,#182,#183,#191,#199,#207,#215,#223,#231,#239,
    #247,#255));
#181 = ORIENTED_EDGE('',*,*,#71,.F.);
#182 = ORIENTED_EDGE('',*,*,#156,.T.);
#183 = ORIENTED_EDGE('',*,*,#184,.T.);
#184 = EDGE_CURVE('',#157,#185,#187,.T.);
#185 = VERTEX_POINT('',#186);
#186 = CARTESIAN_POINT('',(-42.89,-64.03,3.));
#187 = LINE('',#188,#189);
#188 = CARTESIAN_POINT('',(-42.89,64.03,3.));
#189 = VECTOR('',#190,1.);
#190 = DIRECTION('',(0.,-1.,0.));
#191 = ORIENTED_EDGE('',*,*,#192,.T.);
#192 = EDGE_CURVE('',#185,#193,#195,.T.);
#193 = VERTEX_POINT('',#194);
#194 = CARTESIAN_POINT('',(42.89,-64.03,3.));
#195 = LINE('',#196,#197);
#196 = CARTESIAN_POINT('',(-42.89,-64.03,3.));
#197 = VECTOR('',#198,1.);
#198 = DIRECTION('',(1.,0.,0.));
#199 = ORIENTED_EDGE('',*,*,#200,.T.);
#200 = EDGE_CURVE('',#193,#201,#203,.T.);
#201 = VERTEX_POINT('',#202);
#202 = CARTESIAN_POINT('',(42.89,-35.,3.));
#203 = LINE('',#204,#205);
#204 = CARTESIAN_POINT('',(42.89,-64.03,3.));
#205 = VECTOR('',#206,1.);
#206 = DIRECTION('',(0.,1.,0.));
#207 = ORIENTED_EDGE('',*,*,#208,.T.);
#208 = EDGE_CURVE('',#201,#209,#211,.T.);
#209 = VERTEX_POINT('',#210);
#210 = CARTESIAN_POINT('',(50.,-35.,3.));
#211 = LINE('',#212,#213);
#212 = CARTESIAN_POINT('',(32.5,-35.,3.));
#213 = VECTOR('',#214,1.);
#214 = DIRECTION('',(1.,0.,-0.));
#215 = ORIENTED_EDGE('',*,*,#216,.T.);
#216 = EDGE_CURVE('',#209,#217,#219,.T.);
#217 = VERTEX_POINT('',#218);
#218 = CARTESIAN_POINT('',(50.,35.,3.));
#219 = LINE('',#220,#221);
#220 = CARTESIAN_POINT('',(50.,-35.,3.));
#221 = VECTOR('',#222,1.);
#222 = DIRECTION('',(-0.,1.,0.));
#223 = ORIENTED_EDGE('',*,*,#224,.F.);
#224 = EDGE_CURVE('',#225,#217,#227,.T.);
#225 = VERTEX_POINT('',#226);
#226 = CARTESIAN_POINT('',(42.89,35.,3.));
#227 = LINE('',#228,#229);
#228 = CARTESIAN_POINT('',(32.5,35.,3.));
#229 = VECTOR('',#230,1.);
#230 = DIRECTION('',(1.,0.,-0.));
#231 = ORIENTED_EDGE('',*,*,#232,.T.);
#232 = EDGE_CURVE('',#225,#233,#235,.T.);
#233 = VERTEX_POINT('',#234);
#234 = CARTESIAN_POINT('',(42.89,64.03,3.));
#235 = LINE('',#236,#237);
#236 = CARTESIAN_POINT('',(42.89,-64.03,3.));
#237 = VECTOR('',#238,1.);
#238 = DIRECTION('',(0.,1.,0.));
#239 = ORIENTED_EDGE('',*,*,#240,.T.);
#240 = EDGE_CURVE('',#233,#241,#243,.T.);
#241 = VERTEX_POINT('',#242);
#242 = CARTESIAN_POINT('',(-42.89,64.03,3.));
#243 = LINE('',#244,#245);
#244 = CARTESIAN_POINT('',(42.89,64.03,3.));
#245 = VECTOR('',#246,1.);
#246 = DIRECTION('',(-1.,0.,0.));
#247 = ORIENTED_EDGE('',*,*,#248,.T.);
#248 = EDGE_CURVE('',#241,#249,#251,.T.);
#249 = VERTEX_POINT('',#250);
#250 = CARTESIAN_POINT('',(-42.89,35.,3.));
#251 = LINE('',#252,#253);
#252 = CARTESIAN_POINT('',(-42.89,64.03,3.));
#253 = VECTOR('',#254,1.);
#254 = DIRECTION('',(0.,-1.,0.));
#255 = ORIENTED_EDGE('',*,*,#256,.F.);
#256 = EDGE_CURVE('',#64,#249,#257,.T.);
#257 = LINE('',#258,#259);
#258 = CARTESIAN_POINT('',(-50.,35.,3.));
#259 = VECTOR('',#260,1.);
#260 = DIRECTION('',(1.,0.,-0.));
#261 = FACE_BOUND('',#262,.T.);
#262 = EDGE_LOOP('',(#263,#273,#281,#289));
#263 = ORIENTED_EDGE('',*,*,#264,.F.);
#264 = EDGE_CURVE('',#265,#267,#269,.T.);
#265 = VERTEX_POINT('',#266);
#266 = CARTESIAN_POINT('',(-34.5,55.,3.));
#267 = VERTEX_POINT('',#268);
#268 = CARTESIAN_POINT('',(-34.5,-55.,3.));
#269 = LINE('',#270,#271);
#270 = CARTESIAN_POINT('',(-34.5,-59.515,3.));
#271 = VECTOR('',#272,1.);
#272 = DIRECTION('',(0.,-1.,0.));
#273 = ORIENTED_EDGE('',*,*,#274,.T.);
#274 = EDGE_CURVE('',#265,#275,#277,.T.);
#275 = VERTEX_POINT('',#276);
#276 = CARTESIAN_POINT('',(34.5,55.,3.));
#277 = LINE('',#278,#279);
#278 = CARTESIAN_POINT('',(-38.695,55.,3.));
#279 = VECTOR('',#280,1.);
#280 = DIRECTION('',(1.,0.,0.));
#281 = ORIENTED_EDGE('',*,*,#282,.T.);
#282 = EDGE_CURVE('',#275,#283,#285,.T.);
#283 = VERTEX_POINT('',#284);
#284 = CARTESIAN_POINT('',(34.5,-55.,3.));
#285 = LINE('',#286,#287);
#286 = CARTESIAN_POINT('',(34.5,-59.515,3.));
#287 = VECTOR('',#288,1.);
#288 = DIRECTION('',(0.,-1.,0.));
#289 = ORIENTED_EDGE('',*,*,#290,.F.);
#290 = EDGE_CURVE('',#267,#283,#291,.T.);
#291 = LINE('',#292,#293);
#292 = CARTESIAN_POINT('',(-38.695,-55.,3.));
#293 = VECTOR('',#294,1.);
#294 = DIRECTION('',(1.,0.,0.));
#295 = PLANE('',#296);
#296 = AXIS2_PLACEMENT_3D('',#297,#298,#299);
#297 = CARTESIAN_POINT('',(-1.37086207022E-15,1.246238245655E-15,3.));
#298 = DIRECTION('',(0.,0.,1.));
#299 = DIRECTION('',(1.,0.,-0.));
#300 = ADVANCED_FACE('',(#301),#321,.F.);
#301 = FACE_BOUND('',#302,.F.);
#302 = EDGE_LOOP('',(#303,#304,#305,#313));
#303 = ORIENTED_EDGE('',*,*,#256,.F.);
#304 = ORIENTED_EDGE('',*,*,#63,.T.);
#305 = ORIENTED_EDGE('',*,*,#306,.F.);
#306 = EDGE_CURVE('',#307,#56,#309,.T.);
#307 = VERTEX_POINT('',#308);
#308 = CARTESIAN_POINT('',(-44.62205080756,35.,6.));
#309 = LINE('',#310,#311);
#310 = CARTESIAN_POINT('',(-50.,35.,6.));
#311 = VECTOR('',#312,1.);
#312 = DIRECTION('',(-1.,-0.,0.));
#313 = ORIENTED_EDGE('',*,*,#314,.F.);
#314 = EDGE_CURVE('',#249,#307,#315,.T.);
#315 = B_SPLINE_CURVE_WITH_KNOTS('',4,(#316,#317,#318,#319,#320),
  .UNSPECIFIED.,.F.,.F.,(5,5),(0.,1.),.PIECEWISE_BEZIER_KNOTS.);
#316 = CARTESIAN_POINT('',(-42.89,35.,3.));
#317 = CARTESIAN_POINT('',(-43.32225205128,35.,3.748682514493));
#318 = CARTESIAN_POINT('',(-43.75503168299,35.,4.498278825095));
#319 = CARTESIAN_POINT('',(-44.18830719704,35.,5.248734029116));
#320 = CARTESIAN_POINT('',(-44.62205080756,35.,6.));
#321 = PLANE('',#322);
#322 = AXIS2_PLACEMENT_3D('',#323,#324,#325);
#323 = CARTESIAN_POINT('',(-50.,35.,3.));
#324 = DIRECTION('',(-0.,1.,0.));
#325 = DIRECTION('',(0.,0.,1.));
#326 = ADVANCED_FACE('',(#327),#377,.T.);
#327 = FACE_BOUND('',#328,.T.);
#328 = EDGE_LOOP('',(#329,#339,#347,#353,#354,#355,#363,#371));
#329 = ORIENTED_EDGE('',*,*,#330,.F.);
#330 = EDGE_CURVE('',#331,#333,#335,.T.);
#331 = VERTEX_POINT('',#332);
#332 = CARTESIAN_POINT('',(50.,35.,6.));
#333 = VERTEX_POINT('',#334);
#334 = CARTESIAN_POINT('',(44.622050807569,35.,6.));
#335 = LINE('',#336,#337);
#336 = CARTESIAN_POINT('',(-8.75,35.,6.));
#337 = VECTOR('',#338,1.);
#338 = DIRECTION('',(-1.,-0.,0.));
#339 = ORIENTED_EDGE('',*,*,#340,.T.);
#340 = EDGE_CURVE('',#331,#341,#343,.T.);
#341 = VERTEX_POINT('',#342);
#342 = CARTESIAN_POINT('',(50.,82.,6.));
#343 = LINE('',#344,#345);
#344 = CARTESIAN_POINT('',(50.,-82.,6.));
#345 = VECTOR('',#346,1.);
#346 = DIRECTION('',(-0.,1.,0.));
#347 = ORIENTED_EDGE('',*,*,#348,.F.);
#348 = EDGE_CURVE('',#48,#341,#349,.T.);
#349 = LINE('',#350,#351);
#350 = CARTESIAN_POINT('',(-50.,82.,6.));
#351 = VECTOR('',#352,1.);
#352 = DIRECTION('',(1.,0.,-0.));
#353 = ORIENTED_EDGE('',*,*,#55,.F.);
#354 = ORIENTED_EDGE('',*,*,#306,.F.);
#355 = ORIENTED_EDGE('',*,*,#356,.F.);
#356 = EDGE_CURVE('',#357,#307,#359,.T.);
#357 = VERTEX_POINT('',#358);
#358 = CARTESIAN_POINT('',(-44.62205080756,65.762050807569,6.));
#359 = LINE('',#360,#361);
#360 = CARTESIAN_POINT('',(-44.62205080756,65.762050807569,6.));
#361 = VECTOR('',#362,1.);
#362 = DIRECTION('',(0.,-1.,0.));
#363 = ORIENTED_EDGE('',*,*,#364,.F.);
#364 = EDGE_CURVE('',#365,#357,#367,.T.);
#365 = VERTEX_POINT('',#366);
#366 = CARTESIAN_POINT('',(44.622050807569,65.762050807569,6.));
#367 = LINE('',#368,#369);
#368 = CARTESIAN_POINT('',(44.622050807569,65.762050807569,6.));
#369 = VECTOR('',#370,1.);
#370 = DIRECTION('',(-1.,0.,0.));
#371 = ORIENTED_EDGE('',*,*,#372,.F.);
#372 = EDGE_CURVE('',#333,#365,#373,.T.);
#373 = LINE('',#374,#375);
#374 = CARTESIAN_POINT('',(44.622050807569,-65.76205080756,6.));
#375 = VECTOR('',#376,1.);
#376 = DIRECTION('',(0.,1.,0.));
#377 = PLANE('',#378);
#378 = AXIS2_PLACEMENT_3D('',#379,#380,#381);
#379 = CARTESIAN_POINT('',(-50.,-82.,6.));
#380 = DIRECTION('',(0.,0.,1.));
#381 = DIRECTION('',(1.,0.,-0.));
#382 = ADVANCED_FACE('',(#383),#401,.T.);
#383 = FACE_BOUND('',#384,.T.);
#384 = EDGE_LOOP('',(#385,#393,#394,#395));
#385 = ORIENTED_EDGE('',*,*,#386,.F.);
#386 = EDGE_CURVE('',#40,#387,#389,.T.);
#387 = VERTEX_POINT('',#388);
#388 = CARTESIAN_POINT('',(50.,82.,0.));
#389 = LINE('',#390,#391);
#390 = CARTESIAN_POINT('',(-50.,82.,0.));
#391 = VECTOR('',#392,1.);
#392 = DIRECTION('',(1.,0.,-0.));
#393 = ORIENTED_EDGE('',*,*,#47,.T.);
#394 = ORIENTED_EDGE('',*,*,#348,.T.);
#395 = ORIENTED_EDGE('',*,*,#396,.F.);
#396 = EDGE_CURVE('',#387,#341,#397,.T.);
#397 = LINE('',#398,#399);
#398 = CARTESIAN_POINT('',(50.,82.,0.));
#399 = VECTOR('',#400,1.);
#400 = DIRECTION('',(0.,0.,1.));
#401 = PLANE('',#402);
#402 = AXIS2_PLACEMENT_3D('',#403,#404,#405);
#403 = CARTESIAN_POINT('',(-50.,82.,0.));
#404 = DIRECTION('',(-0.,1.,0.));
#405 = DIRECTION('',(0.,0.,1.));
#406 = ADVANCED_FACE('',(#407,#425,#461,#497,#531,#567),#603,.F.);
#407 = FACE_BOUND('',#408,.F.);
#408 = EDGE_LOOP('',(#409,#410,#418,#424));
#409 = ORIENTED_EDGE('',*,*,#39,.F.);
#410 = ORIENTED_EDGE('',*,*,#411,.T.);
#411 = EDGE_CURVE('',#32,#412,#414,.T.);
#412 = VERTEX_POINT('',#413);
#413 = CARTESIAN_POINT('',(50.,-82.,0.));
#414 = LINE('',#415,#416);
#415 = CARTESIAN_POINT('',(-50.,-82.,0.));
#416 = VECTOR('',#417,1.);
#417 = DIRECTION('',(1.,0.,-0.));
#418 = ORIENTED_EDGE('',*,*,#419,.T.);
#419 = EDGE_CURVE('',#412,#387,#420,.T.);
#420 = LINE('',#421,#422);
#421 = CARTESIAN_POINT('',(50.,-82.,0.));
#422 = VECTOR('',#423,1.);
#423 = DIRECTION('',(-0.,1.,0.));
#424 = ORIENTED_EDGE('',*,*,#386,.F.);
#425 = FACE_BOUND('',#426,.F.);
#426 = EDGE_LOOP('',(#427,#438,#446,#455));
#427 = ORIENTED_EDGE('',*,*,#428,.F.);
#428 = EDGE_CURVE('',#429,#431,#433,.T.);
#429 = VERTEX_POINT('',#430);
#430 = CARTESIAN_POINT('',(-42.4,-75.,0.));
#431 = VERTEX_POINT('',#432);
#432 = CARTESIAN_POINT('',(-32.6,-75.,0.));
#433 = CIRCLE('',#434,4.9);
#434 = AXIS2_PLACEMENT_3D('',#435,#436,#437);
#435 = CARTESIAN_POINT('',(-37.5,-75.,0.));
#436 = DIRECTION('',(0.,0.,1.));
#437 = DIRECTION('',(1.,0.,-0.));
#438 = ORIENTED_EDGE('',*,*,#439,.T.);
#439 = EDGE_CURVE('',#429,#440,#442,.T.);
#440 = VERTEX_POINT('',#441);
#441 = CARTESIAN_POINT('',(-42.4,-60.,0.));
#442 = LINE('',#443,#444);
#443 = CARTESIAN_POINT('',(-42.4,-180.,0.));
#444 = VECTOR('',#445,1.);
#445 = DIRECTION('',(5.782411586589E-17,1.,0.));
#446 = ORIENTED_EDGE('',*,*,#447,.F.);
#447 = EDGE_CURVE('',#448,#440,#450,.T.);
#448 = VERTEX_POINT('',#449);
#449 = CARTESIAN_POINT('',(-32.6,-60.,0.));
#450 = CIRCLE('',#451,4.9);
#451 = AXIS2_PLACEMENT_3D('',#452,#453,#454);
#452 = CARTESIAN_POINT('',(-37.5,-60.,0.));
#453 = DIRECTION('',(0.,0.,1.));
#454 = DIRECTION('',(1.,0.,-0.));
#455 = ORIENTED_EDGE('',*,*,#456,.F.);
#456 = EDGE_CURVE('',#431,#448,#457,.T.);
#457 = LINE('',#458,#459);
#458 = CARTESIAN_POINT('',(-32.6,-180.,0.));
#459 = VECTOR('',#460,1.);
#460 = DIRECTION('',(5.782411586589E-17,1.,0.));
#461 = FACE_BOUND('',#462,.F.);
#462 = EDGE_LOOP('',(#463,#474,#482,#491));
#463 = ORIENTED_EDGE('',*,*,#464,.F.);
#464 = EDGE_CURVE('',#465,#467,#469,.T.);
#465 = VERTEX_POINT('',#466);
#466 = CARTESIAN_POINT('',(32.6,-75.,0.));
#467 = VERTEX_POINT('',#468);
#468 = CARTESIAN_POINT('',(42.4,-75.,0.));
#469 = CIRCLE('',#470,4.9);
#470 = AXIS2_PLACEMENT_3D('',#471,#472,#473);
#471 = CARTESIAN_POINT('',(37.5,-75.,0.));
#472 = DIRECTION('',(0.,0.,1.));
#473 = DIRECTION('',(1.,0.,-0.));
#474 = ORIENTED_EDGE('',*,*,#475,.T.);
#475 = EDGE_CURVE('',#465,#476,#478,.T.);
#476 = VERTEX_POINT('',#477);
#477 = CARTESIAN_POINT('',(32.6,-60.,0.));
#478 = LINE('',#479,#480);
#479 = CARTESIAN_POINT('',(32.6,-180.,0.));
#480 = VECTOR('',#481,1.);
#481 = DIRECTION('',(5.782411586589E-17,1.,0.));
#482 = ORIENTED_EDGE('',*,*,#483,.F.);
#483 = EDGE_CURVE('',#484,#476,#486,.T.);
#484 = VERTEX_POINT('',#485);
#485 = CARTESIAN_POINT('',(42.4,-60.,0.));
#486 = CIRCLE('',#487,4.9);
#487 = AXIS2_PLACEMENT_3D('',#488,#489,#490);
#488 = CARTESIAN_POINT('',(37.5,-60.,0.));
#489 = DIRECTION('',(0.,0.,1.));
#490 = DIRECTION('',(1.,0.,-0.));
#491 = ORIENTED_EDGE('',*,*,#492,.F.);
#492 = EDGE_CURVE('',#467,#484,#493,.T.);
#493 = LINE('',#494,#495);
#494 = CARTESIAN_POINT('',(42.4,-180.,0.));
#495 = VECTOR('',#496,1.);
#496 = DIRECTION('',(5.782411586589E-17,1.,0.));
#497 = FACE_BOUND('',#498,.F.);
#498 = EDGE_LOOP('',(#499,#509,#517,#525));
#499 = ORIENTED_EDGE('',*,*,#500,.T.);
#500 = EDGE_CURVE('',#501,#503,#505,.T.);
#501 = VERTEX_POINT('',#502);
#502 = CARTESIAN_POINT('',(34.5,-55.,0.));
#503 = VERTEX_POINT('',#504);
#504 = CARTESIAN_POINT('',(-34.5,-55.,0.));
#505 = LINE('',#506,#507);
#506 = CARTESIAN_POINT('',(-42.25,-55.,0.));
#507 = VECTOR('',#508,1.);
#508 = DIRECTION('',(-1.,-0.,0.));
#509 = ORIENTED_EDGE('',*,*,#510,.T.);
#510 = EDGE_CURVE('',#503,#511,#513,.T.);
#511 = VERTEX_POINT('',#512);
#512 = CARTESIAN_POINT('',(-34.5,55.,0.));
#513 = LINE('',#514,#515);
#514 = CARTESIAN_POINT('',(-34.5,-68.5,0.));
#515 = VECTOR('',#516,1.);
#516 = DIRECTION('',(-0.,1.,0.));
#517 = ORIENTED_EDGE('',*,*,#518,.F.);
#518 = EDGE_CURVE('',#519,#511,#521,.T.);
#519 = VERTEX_POINT('',#520);
#520 = CARTESIAN_POINT('',(34.5,55.,0.));
#521 = LINE('',#522,#523);
#522 = CARTESIAN_POINT('',(-42.25,55.,0.));
#523 = VECTOR('',#524,1.);
#524 = DIRECTION('',(-1.,-0.,0.));
#525 = ORIENTED_EDGE('',*,*,#526,.F.);
#526 = EDGE_CURVE('',#501,#519,#527,.T.);
#527 = LINE('',#528,#529);
#528 = CARTESIAN_POINT('',(34.5,-68.5,0.));
#529 = VECTOR('',#530,1.);
#530 = DIRECTION('',(-0.,1.,0.));
#531 = FACE_BOUND('',#532,.F.);
#532 = EDGE_LOOP('',(#533,#544,#552,#561));
#533 = ORIENTED_EDGE('',*,*,#534,.F.);
#534 = EDGE_CURVE('',#535,#537,#539,.T.);
#535 = VERTEX_POINT('',#536);
#536 = CARTESIAN_POINT('',(-42.4,60.,0.));
#537 = VERTEX_POINT('',#538);
#538 = CARTESIAN_POINT('',(-32.6,60.,0.));
#539 = CIRCLE('',#540,4.9);
#540 = AXIS2_PLACEMENT_3D('',#541,#542,#543);
#541 = CARTESIAN_POINT('',(-37.5,60.,0.));
#542 = DIRECTION('',(0.,0.,1.));
#543 = DIRECTION('',(1.,0.,-0.));
#544 = ORIENTED_EDGE('',*,*,#545,.T.);
#545 = EDGE_CURVE('',#535,#546,#548,.T.);
#546 = VERTEX_POINT('',#547);
#547 = CARTESIAN_POINT('',(-42.4,75.,0.));
#548 = LINE('',#549,#550);
#549 = CARTESIAN_POINT('',(-42.4,-45.,0.));
#550 = VECTOR('',#551,1.);
#551 = DIRECTION('',(5.782411586589E-17,1.,0.));
#552 = ORIENTED_EDGE('',*,*,#553,.F.);
#553 = EDGE_CURVE('',#554,#546,#556,.T.);
#554 = VERTEX_POINT('',#555);
#555 = CARTESIAN_POINT('',(-32.6,75.,0.));
#556 = CIRCLE('',#557,4.9);
#557 = AXIS2_PLACEMENT_3D('',#558,#559,#560);
#558 = CARTESIAN_POINT('',(-37.5,75.,0.));
#559 = DIRECTION('',(0.,0.,1.));
#560 = DIRECTION('',(1.,0.,-0.));
#561 = ORIENTED_EDGE('',*,*,#562,.F.);
#562 = EDGE_CURVE('',#537,#554,#563,.T.);
#563 = LINE('',#564,#565);
#564 = CARTESIAN_POINT('',(-32.6,-45.,0.));
#565 = VECTOR('',#566,1.);
#566 = DIRECTION('',(5.782411586589E-17,1.,0.));
#567 = FACE_BOUND('',#568,.F.);
#568 = EDGE_LOOP('',(#569,#580,#588,#597));
#569 = ORIENTED_EDGE('',*,*,#570,.F.);
#570 = EDGE_CURVE('',#571,#573,#575,.T.);
#571 = VERTEX_POINT('',#572);
#572 = CARTESIAN_POINT('',(32.6,60.,0.));
#573 = VERTEX_POINT('',#574);
#574 = CARTESIAN_POINT('',(42.4,60.,0.));
#575 = CIRCLE('',#576,4.9);
#576 = AXIS2_PLACEMENT_3D('',#577,#578,#579);
#577 = CARTESIAN_POINT('',(37.5,60.,0.));
#578 = DIRECTION('',(0.,0.,1.));
#579 = DIRECTION('',(1.,0.,-0.));
#580 = ORIENTED_EDGE('',*,*,#581,.T.);
#581 = EDGE_CURVE('',#571,#582,#584,.T.);
#582 = VERTEX_POINT('',#583);
#583 = CARTESIAN_POINT('',(32.6,75.,0.));
#584 = LINE('',#585,#586);
#585 = CARTESIAN_POINT('',(32.6,-45.,0.));
#586 = VECTOR('',#587,1.);
#587 = DIRECTION('',(5.782411586589E-17,1.,0.));
#588 = ORIENTED_EDGE('',*,*,#589,.F.);
#589 = EDGE_CURVE('',#590,#582,#592,.T.);
#590 = VERTEX_POINT('',#591);
#591 = CARTESIAN_POINT('',(42.4,75.,0.));
#592 = CIRCLE('',#593,4.9);
#593 = AXIS2_PLACEMENT_3D('',#594,#595,#596);
#594 = CARTESIAN_POINT('',(37.5,75.,0.));
#595 = DIRECTION('',(0.,0.,1.));
#596 = DIRECTION('',(1.,0.,-0.));
#597 = ORIENTED_EDGE('',*,*,#598,.F.);
#598 = EDGE_CURVE('',#573,#590,#599,.T.);
#599 = LINE('',#600,#601);
#600 = CARTESIAN_POINT('',(42.4,-45.,0.));
#601 = VECTOR('',#602,1.);
#602 = DIRECTION('',(5.782411586589E-17,1.,0.));
#603 = PLANE('',#604);
#604 = AXIS2_PLACEMENT_3D('',#605,#606,#607);
#605 = CARTESIAN_POINT('',(-50.,-82.,0.));
#606 = DIRECTION('',(0.,0.,1.));
#607 = DIRECTION('',(1.,0.,-0.));
#608 = ADVANCED_FACE('',(#609),#620,.F.);
#609 = FACE_BOUND('',#610,.F.);
#610 = EDGE_LOOP('',(#611,#612,#613,#614));
#611 = ORIENTED_EDGE('',*,*,#411,.F.);
#612 = ORIENTED_EDGE('',*,*,#31,.T.);
#613 = ORIENTED_EDGE('',*,*,#94,.T.);
#614 = ORIENTED_EDGE('',*,*,#615,.F.);
#615 = EDGE_CURVE('',#412,#95,#616,.T.);
#616 = LINE('',#617,#618);
#617 = CARTESIAN_POINT('',(50.,-82.,0.));
#618 = VECTOR('',#619,1.);
#619 = DIRECTION('',(0.,0.,1.));
#620 = PLANE('',#621);
#621 = AXIS2_PLACEMENT_3D('',#622,#623,#624);
#622 = CARTESIAN_POINT('',(-50.,-82.,0.));
#623 = DIRECTION('',(-0.,1.,0.));
#624 = DIRECTION('',(0.,0.,1.));
#625 = ADVANCED_FACE('',(#626),#636,.F.);
#626 = FACE_BOUND('',#627,.F.);
#627 = EDGE_LOOP('',(#628,#629,#630,#635));
#628 = ORIENTED_EDGE('',*,*,#166,.F.);
#629 = ORIENTED_EDGE('',*,*,#184,.T.);
#630 = ORIENTED_EDGE('',*,*,#631,.T.);
#631 = EDGE_CURVE('',#185,#127,#632,.T.);
#632 = B_SPLINE_CURVE_WITH_KNOTS('',1,(#633,#634),.UNSPECIFIED.,.F.,.F.,
  (2,2),(0.,1.),.PIECEWISE_BEZIER_KNOTS.);
#633 = CARTESIAN_POINT('',(-42.89,-64.03,3.));
#634 = CARTESIAN_POINT('',(-44.62205080756,-65.76205080756,6.));
#635 = ORIENTED_EDGE('',*,*,#134,.F.);
#636 = B_SPLINE_SURFACE_WITH_KNOTS('',1,1,(
    (#637,#638)
    ,(#639,#640
    )),.UNSPECIFIED.,.F.,.F.,.F.,(2,2),(2,2),(0.,131.52410161513),(0.,1.
    ),.PIECEWISE_BEZIER_KNOTS.);
#637 = CARTESIAN_POINT('',(-42.89,64.03,3.));
#638 = CARTESIAN_POINT('',(-44.62205080756,65.762050807569,6.));
#639 = CARTESIAN_POINT('',(-42.89,-64.03,3.));
#640 = CARTESIAN_POINT('',(-44.62205080756,-65.76205080756,6.));
#641 = ADVANCED_FACE('',(#642),#652,.F.);
#642 = FACE_BOUND('',#643,.F.);
#643 = EDGE_LOOP('',(#644,#645,#650,#651));
#644 = ORIENTED_EDGE('',*,*,#192,.T.);
#645 = ORIENTED_EDGE('',*,*,#646,.T.);
#646 = EDGE_CURVE('',#193,#119,#647,.T.);
#647 = B_SPLINE_CURVE_WITH_KNOTS('',1,(#648,#649),.UNSPECIFIED.,.F.,.F.,
  (2,2),(0.,1.),.PIECEWISE_BEZIER_KNOTS.);
#648 = CARTESIAN_POINT('',(42.89,-64.03,3.));
#649 = CARTESIAN_POINT('',(44.622050807569,-65.76205080756,6.));
#650 = ORIENTED_EDGE('',*,*,#126,.F.);
#651 = ORIENTED_EDGE('',*,*,#631,.F.);
#652 = B_SPLINE_SURFACE_WITH_KNOTS('',1,1,(
    (#653,#654)
    ,(#655,#656
    )),.UNSPECIFIED.,.F.,.F.,.F.,(2,2),(2,2),(0.,89.244101615138),(0.,1.
    ),.PIECEWISE_BEZIER_KNOTS.);
#653 = CARTESIAN_POINT('',(-42.89,-64.03,3.));
#654 = CARTESIAN_POINT('',(-44.62205080756,-65.76205080756,6.));
#655 = CARTESIAN_POINT('',(42.89,-64.03,3.));
#656 = CARTESIAN_POINT('',(44.622050807569,-65.76205080756,6.));
#657 = ADVANCED_FACE('',(#658),#671,.F.);
#658 = FACE_BOUND('',#659,.F.);
#659 = EDGE_LOOP('',(#660,#661,#662,#670));
#660 = ORIENTED_EDGE('',*,*,#646,.F.);
#661 = ORIENTED_EDGE('',*,*,#200,.T.);
#662 = ORIENTED_EDGE('',*,*,#663,.T.);
#663 = EDGE_CURVE('',#201,#111,#664,.T.);
#664 = B_SPLINE_CURVE_WITH_KNOTS('',4,(#665,#666,#667,#668,#669),
  .UNSPECIFIED.,.F.,.F.,(5,5),(0.,1.),.PIECEWISE_BEZIER_KNOTS.);
#665 = CARTESIAN_POINT('',(42.89,-35.,3.));
#666 = CARTESIAN_POINT('',(43.32225205128,-35.,3.748682514493));
#667 = CARTESIAN_POINT('',(43.75503168299,-35.,4.498278825095));
#668 = CARTESIAN_POINT('',(44.188307197046,-35.,5.248734029116));
#669 = CARTESIAN_POINT('',(44.622050807569,-35.,6.));
#670 = ORIENTED_EDGE('',*,*,#118,.F.);
#671 = B_SPLINE_SURFACE_WITH_KNOTS('',1,1,(
    (#672,#673)
    ,(#674,#675
    )),.UNSPECIFIED.,.F.,.F.,.F.,(2,2),(2,2),(0.,131.52410161513),(0.,1.
    ),.PIECEWISE_BEZIER_KNOTS.);
#672 = CARTESIAN_POINT('',(42.89,-64.03,3.));
#673 = CARTESIAN_POINT('',(44.622050807569,-65.76205080756,6.));
#674 = CARTESIAN_POINT('',(42.89,64.03,3.));
#675 = CARTESIAN_POINT('',(44.622050807569,65.762050807569,6.));
#676 = ADVANCED_FACE('',(#677),#688,.T.);
#677 = FACE_BOUND('',#678,.T.);
#678 = EDGE_LOOP('',(#679,#680,#681,#682));
#679 = ORIENTED_EDGE('',*,*,#208,.F.);
#680 = ORIENTED_EDGE('',*,*,#663,.T.);
#681 = ORIENTED_EDGE('',*,*,#110,.F.);
#682 = ORIENTED_EDGE('',*,*,#683,.F.);
#683 = EDGE_CURVE('',#209,#103,#684,.T.);
#684 = LINE('',#685,#686);
#685 = CARTESIAN_POINT('',(50.,-35.,3.));
#686 = VECTOR('',#687,1.);
#687 = DIRECTION('',(0.,0.,1.));
#688 = PLANE('',#689);
#689 = AXIS2_PLACEMENT_3D('',#690,#691,#692);
#690 = CARTESIAN_POINT('',(32.5,-35.,3.));
#691 = DIRECTION('',(-0.,1.,0.));
#692 = DIRECTION('',(0.,0.,1.));
#693 = ADVANCED_FACE('',(#694),#709,.T.);
#694 = FACE_BOUND('',#695,.T.);
#695 = EDGE_LOOP('',(#696,#697,#698,#699,#700,#701,#707,#708));
#696 = ORIENTED_EDGE('',*,*,#102,.F.);
#697 = ORIENTED_EDGE('',*,*,#615,.F.);
#698 = ORIENTED_EDGE('',*,*,#419,.T.);
#699 = ORIENTED_EDGE('',*,*,#396,.T.);
#700 = ORIENTED_EDGE('',*,*,#340,.F.);
#701 = ORIENTED_EDGE('',*,*,#702,.F.);
#702 = EDGE_CURVE('',#217,#331,#703,.T.);
#703 = LINE('',#704,#705);
#704 = CARTESIAN_POINT('',(50.,35.,3.));
#705 = VECTOR('',#706,1.);
#706 = DIRECTION('',(0.,0.,1.));
#707 = ORIENTED_EDGE('',*,*,#216,.F.);
#708 = ORIENTED_EDGE('',*,*,#683,.T.);
#709 = PLANE('',#710);
#710 = AXIS2_PLACEMENT_3D('',#711,#712,#713);
#711 = CARTESIAN_POINT('',(50.,-82.,0.));
#712 = DIRECTION('',(1.,0.,-0.));
#713 = DIRECTION('',(0.,0.,1.));
#714 = ADVANCED_FACE('',(#715),#728,.F.);
#715 = FACE_BOUND('',#716,.F.);
#716 = EDGE_LOOP('',(#717,#718,#726,#727));
#717 = ORIENTED_EDGE('',*,*,#224,.F.);
#718 = ORIENTED_EDGE('',*,*,#719,.T.);
#719 = EDGE_CURVE('',#225,#333,#720,.T.);
#720 = B_SPLINE_CURVE_WITH_KNOTS('',4,(#721,#722,#723,#724,#725),
  .UNSPECIFIED.,.F.,.F.,(5,5),(0.,1.),.PIECEWISE_BEZIER_KNOTS.);
#721 = CARTESIAN_POINT('',(42.89,35.,3.));
#722 = CARTESIAN_POINT('',(43.32225205128,35.,3.748682514493));
#723 = CARTESIAN_POINT('',(43.75503168299,35.,4.498278825095));
#724 = CARTESIAN_POINT('',(44.188307197046,35.,5.248734029116));
#725 = CARTESIAN_POINT('',(44.622050807569,35.,6.));
#726 = ORIENTED_EDGE('',*,*,#330,.F.);
#727 = ORIENTED_EDGE('',*,*,#702,.F.);
#728 = PLANE('',#729);
#729 = AXIS2_PLACEMENT_3D('',#730,#731,#732);
#730 = CARTESIAN_POINT('',(32.5,35.,3.));
#731 = DIRECTION('',(-0.,1.,0.));
#732 = DIRECTION('',(0.,0.,1.));
#733 = ADVANCED_FACE('',(#734),#744,.F.);
#734 = FACE_BOUND('',#735,.F.);
#735 = EDGE_LOOP('',(#736,#737,#738,#743));
#736 = ORIENTED_EDGE('',*,*,#719,.F.);
#737 = ORIENTED_EDGE('',*,*,#232,.T.);
#738 = ORIENTED_EDGE('',*,*,#739,.T.);
#739 = EDGE_CURVE('',#233,#365,#740,.T.);
#740 = B_SPLINE_CURVE_WITH_KNOTS('',1,(#741,#742),.UNSPECIFIED.,.F.,.F.,
  (2,2),(0.,1.),.PIECEWISE_BEZIER_KNOTS.);
#741 = CARTESIAN_POINT('',(42.89,64.03,3.));
#742 = CARTESIAN_POINT('',(44.622050807569,65.762050807569,6.));
#743 = ORIENTED_EDGE('',*,*,#372,.F.);
#744 = B_SPLINE_SURFACE_WITH_KNOTS('',1,1,(
    (#745,#746)
    ,(#747,#748
    )),.UNSPECIFIED.,.F.,.F.,.F.,(2,2),(2,2),(0.,131.52410161513),(0.,1.
    ),.PIECEWISE_BEZIER_KNOTS.);
#745 = CARTESIAN_POINT('',(42.89,-64.03,3.));
#746 = CARTESIAN_POINT('',(44.622050807569,-65.76205080756,6.));
#747 = CARTESIAN_POINT('',(42.89,64.03,3.));
#748 = CARTESIAN_POINT('',(44.622050807569,65.762050807569,6.));
#749 = ADVANCED_FACE('',(#750),#760,.F.);
#750 = FACE_BOUND('',#751,.F.);
#751 = EDGE_LOOP('',(#752,#753,#758,#759));
#752 = ORIENTED_EDGE('',*,*,#240,.T.);
#753 = ORIENTED_EDGE('',*,*,#754,.T.);
#754 = EDGE_CURVE('',#241,#357,#755,.T.);
#755 = B_SPLINE_CURVE_WITH_KNOTS('',1,(#756,#757),.UNSPECIFIED.,.F.,.F.,
  (2,2),(0.,1.),.PIECEWISE_BEZIER_KNOTS.);
#756 = CARTESIAN_POINT('',(-42.89,64.03,3.));
#757 = CARTESIAN_POINT('',(-44.62205080756,65.762050807569,6.));
#758 = ORIENTED_EDGE('',*,*,#364,.F.);
#759 = ORIENTED_EDGE('',*,*,#739,.F.);
#760 = B_SPLINE_SURFACE_WITH_KNOTS('',1,1,(
    (#761,#762)
    ,(#763,#764
    )),.UNSPECIFIED.,.F.,.F.,.F.,(2,2),(2,2),(0.,89.244101615138),(0.,1.
    ),.PIECEWISE_BEZIER_KNOTS.);
#761 = CARTESIAN_POINT('',(42.89,64.03,3.));
#762 = CARTESIAN_POINT('',(44.622050807569,65.762050807569,6.));
#763 = CARTESIAN_POINT('',(-42.89,64.03,3.));
#764 = CARTESIAN_POINT('',(-44.62205080756,65.762050807569,6.));
#765 = ADVANCED_FACE('',(#766),#772,.F.);
#766 = FACE_BOUND('',#767,.F.);
#767 = EDGE_LOOP('',(#768,#769,#770,#771));
#768 = ORIENTED_EDGE('',*,*,#754,.F.);
#769 = ORIENTED_EDGE('',*,*,#248,.T.);
#770 = ORIENTED_EDGE('',*,*,#314,.T.);
#771 = ORIENTED_EDGE('',*,*,#356,.F.);
#772 = B_SPLINE_SURFACE_WITH_KNOTS('',1,1,(
    (#773,#774)
    ,(#775,#776
    )),.UNSPECIFIED.,.F.,.F.,.F.,(2,2),(2,2),(0.,131.52410161513),(0.,1.
    ),.PIECEWISE_BEZIER_KNOTS.);
#773 = CARTESIAN_POINT('',(-42.89,64.03,3.));
#774 = CARTESIAN_POINT('',(-44.62205080756,65.762050807569,6.));
#775 = CARTESIAN_POINT('',(-42.89,-64.03,3.));
#776 = CARTESIAN_POINT('',(-44.62205080756,-65.76205080756,6.));
#777 = ADVANCED_FACE('',(#778),#794,.T.);
#778 = FACE_BOUND('',#779,.T.);
#779 = EDGE_LOOP('',(#780,#786,#787,#793));
#780 = ORIENTED_EDGE('',*,*,#781,.F.);
#781 = EDGE_CURVE('',#503,#267,#782,.T.);
#782 = LINE('',#783,#784);
#783 = CARTESIAN_POINT('',(-34.5,-55.,-1.));
#784 = VECTOR('',#785,1.);
#785 = DIRECTION('',(0.,0.,1.));
#786 = ORIENTED_EDGE('',*,*,#510,.T.);
#787 = ORIENTED_EDGE('',*,*,#788,.T.);
#788 = EDGE_CURVE('',#511,#265,#789,.T.);
#789 = LINE('',#790,#791);
#790 = CARTESIAN_POINT('',(-34.5,55.,-1.));
#791 = VECTOR('',#792,1.);
#792 = DIRECTION('',(0.,0.,1.));
#793 = ORIENTED_EDGE('',*,*,#264,.T.);
#794 = PLANE('',#795);
#795 = AXIS2_PLACEMENT_3D('',#796,#797,#798);
#796 = CARTESIAN_POINT('',(-34.5,-55.,-1.));
#797 = DIRECTION('',(1.,0.,-0.));
#798 = DIRECTION('',(0.,0.,1.));
#799 = ADVANCED_FACE('',(#800),#811,.F.);
#800 = FACE_BOUND('',#801,.F.);
#801 = EDGE_LOOP('',(#802,#808,#809,#810));
#802 = ORIENTED_EDGE('',*,*,#803,.F.);
#803 = EDGE_CURVE('',#519,#275,#804,.T.);
#804 = LINE('',#805,#806);
#805 = CARTESIAN_POINT('',(34.5,55.,-1.));
#806 = VECTOR('',#807,1.);
#807 = DIRECTION('',(0.,0.,1.));
#808 = ORIENTED_EDGE('',*,*,#518,.T.);
#809 = ORIENTED_EDGE('',*,*,#788,.T.);
#810 = ORIENTED_EDGE('',*,*,#274,.T.);
#811 = PLANE('',#812);
#812 = AXIS2_PLACEMENT_3D('',#813,#814,#815);
#813 = CARTESIAN_POINT('',(-34.5,55.,-1.));
#814 = DIRECTION('',(-0.,1.,0.));
#815 = DIRECTION('',(0.,0.,1.));
#816 = ADVANCED_FACE('',(#817),#828,.F.);
#817 = FACE_BOUND('',#818,.F.);
#818 = EDGE_LOOP('',(#819,#825,#826,#827));
#819 = ORIENTED_EDGE('',*,*,#820,.F.);
#820 = EDGE_CURVE('',#501,#283,#821,.T.);
#821 = LINE('',#822,#823);
#822 = CARTESIAN_POINT('',(34.5,-55.,-1.));
#823 = VECTOR('',#824,1.);
#824 = DIRECTION('',(0.,0.,1.));
#825 = ORIENTED_EDGE('',*,*,#526,.T.);
#826 = ORIENTED_EDGE('',*,*,#803,.T.);
#827 = ORIENTED_EDGE('',*,*,#282,.T.);
#828 = PLANE('',#829);
#829 = AXIS2_PLACEMENT_3D('',#830,#831,#832);
#830 = CARTESIAN_POINT('',(34.5,-55.,-1.));
#831 = DIRECTION('',(1.,0.,-0.));
#832 = DIRECTION('',(0.,0.,1.));
#833 = ADVANCED_FACE('',(#834),#840,.T.);
#834 = FACE_BOUND('',#835,.T.);
#835 = EDGE_LOOP('',(#836,#837,#838,#839));
#836 = ORIENTED_EDGE('',*,*,#820,.F.);
#837 = ORIENTED_EDGE('',*,*,#500,.T.);
#838 = ORIENTED_EDGE('',*,*,#781,.T.);
#839 = ORIENTED_EDGE('',*,*,#290,.T.);
#840 = PLANE('',#841);
#841 = AXIS2_PLACEMENT_3D('',#842,#843,#844);
#842 = CARTESIAN_POINT('',(-34.5,-55.,-1.));
#843 = DIRECTION('',(-0.,1.,0.));
#844 = DIRECTION('',(0.,0.,1.));
#845 = ADVANCED_FACE('',(#846),#872,.T.);
#846 = FACE_BOUND('',#847,.T.);
#847 = EDGE_LOOP('',(#848,#856,#865,#871));
#848 = ORIENTED_EDGE('',*,*,#849,.F.);
#849 = EDGE_CURVE('',#850,#429,#852,.T.);
#850 = VERTEX_POINT('',#851);
#851 = CARTESIAN_POINT('',(-42.4,-75.,-9.));
#852 = LINE('',#853,#854);
#853 = CARTESIAN_POINT('',(-42.4,-75.,-15.));
#854 = VECTOR('',#855,1.);
#855 = DIRECTION('',(0.,0.,1.));
#856 = ORIENTED_EDGE('',*,*,#857,.T.);
#857 = EDGE_CURVE('',#850,#858,#860,.T.);
#858 = VERTEX_POINT('',#859);
#859 = CARTESIAN_POINT('',(-32.6,-75.,-9.));
#860 = CIRCLE('',#861,4.9);
#861 = AXIS2_PLACEMENT_3D('',#862,#863,#864);
#862 = CARTESIAN_POINT('',(-37.5,-75.,-9.));
#863 = DIRECTION('',(0.,0.,1.));
#864 = DIRECTION('',(1.,0.,-0.));
#865 = ORIENTED_EDGE('',*,*,#866,.T.);
#866 = EDGE_CURVE('',#858,#431,#867,.T.);
#867 = LINE('',#868,#869);
#868 = CARTESIAN_POINT('',(-32.6,-75.,-15.));
#869 = VECTOR('',#870,1.);
#870 = DIRECTION('',(0.,0.,1.));
#871 = ORIENTED_EDGE('',*,*,#428,.F.);
#872 = CYLINDRICAL_SURFACE('',#873,4.9);
#873 = AXIS2_PLACEMENT_3D('',#874,#875,#876);
#874 = CARTESIAN_POINT('',(-37.5,-75.,-15.));
#875 = DIRECTION('',(0.,0.,1.));
#876 = DIRECTION('',(1.,0.,-0.));
#877 = ADVANCED_FACE('',(#878),#896,.T.);
#878 = FACE_BOUND('',#879,.T.);
#879 = EDGE_LOOP('',(#880,#881,#889,#895));
#880 = ORIENTED_EDGE('',*,*,#866,.F.);
#881 = ORIENTED_EDGE('',*,*,#882,.T.);
#882 = EDGE_CURVE('',#858,#883,#885,.T.);
#883 = VERTEX_POINT('',#884);
#884 = CARTESIAN_POINT('',(-32.6,-60.,-9.));
#885 = LINE('',#886,#887);
#886 = CARTESIAN_POINT('',(-32.6,-60.,-9.));
#887 = VECTOR('',#888,1.);
#888 = DIRECTION('',(5.782411586589E-17,1.,0.));
#889 = ORIENTED_EDGE('',*,*,#890,.T.);
#890 = EDGE_CURVE('',#883,#448,#891,.T.);
#891 = LINE('',#892,#893);
#892 = CARTESIAN_POINT('',(-32.6,-60.,-15.));
#893 = VECTOR('',#894,1.);
#894 = DIRECTION('',(0.,0.,1.));
#895 = ORIENTED_EDGE('',*,*,#456,.F.);
#896 = PLANE('',#897);
#897 = AXIS2_PLACEMENT_3D('',#898,#899,#900);
#898 = CARTESIAN_POINT('',(-32.6,-67.5,-15.));
#899 = DIRECTION('',(1.,-5.782411586589E-17,0.));
#900 = DIRECTION('',(5.782411586589E-17,1.,0.));
#901 = ADVANCED_FACE('',(#902),#921,.T.);
#902 = FACE_BOUND('',#903,.T.);
#903 = EDGE_LOOP('',(#904,#905,#914,#920));
#904 = ORIENTED_EDGE('',*,*,#890,.F.);
#905 = ORIENTED_EDGE('',*,*,#906,.T.);
#906 = EDGE_CURVE('',#883,#907,#909,.T.);
#907 = VERTEX_POINT('',#908);
#908 = CARTESIAN_POINT('',(-42.4,-60.,-9.));
#909 = CIRCLE('',#910,4.9);
#910 = AXIS2_PLACEMENT_3D('',#911,#912,#913);
#911 = CARTESIAN_POINT('',(-37.5,-60.,-9.));
#912 = DIRECTION('',(0.,0.,1.));
#913 = DIRECTION('',(1.,0.,-0.));
#914 = ORIENTED_EDGE('',*,*,#915,.T.);
#915 = EDGE_CURVE('',#907,#440,#916,.T.);
#916 = LINE('',#917,#918);
#917 = CARTESIAN_POINT('',(-42.4,-60.,-15.));
#918 = VECTOR('',#919,1.);
#919 = DIRECTION('',(0.,0.,1.));
#920 = ORIENTED_EDGE('',*,*,#447,.F.);
#921 = CYLINDRICAL_SURFACE('',#922,4.9);
#922 = AXIS2_PLACEMENT_3D('',#923,#924,#925);
#923 = CARTESIAN_POINT('',(-37.5,-60.,-15.));
#924 = DIRECTION('',(0.,0.,1.));
#925 = DIRECTION('',(1.,0.,-0.));
#926 = ADVANCED_FACE('',(#927),#938,.F.);
#927 = FACE_BOUND('',#928,.T.);
#928 = EDGE_LOOP('',(#929,#930,#936,#937));
#929 = ORIENTED_EDGE('',*,*,#915,.F.);
#930 = ORIENTED_EDGE('',*,*,#931,.F.);
#931 = EDGE_CURVE('',#850,#907,#932,.T.);
#932 = LINE('',#933,#934);
#933 = CARTESIAN_POINT('',(-42.4,-67.5,-9.));
#934 = VECTOR('',#935,1.);
#935 = DIRECTION('',(5.782411586589E-17,1.,0.));
#936 = ORIENTED_EDGE('',*,*,#849,.T.);
#937 = ORIENTED_EDGE('',*,*,#439,.T.);
#938 = PLANE('',#939);
#939 = AXIS2_PLACEMENT_3D('',#940,#941,#942);
#940 = CARTESIAN_POINT('',(-42.4,-67.5,-15.));
#941 = DIRECTION('',(1.,-5.782411586589E-17,0.));
#942 = DIRECTION('',(5.782411586589E-17,1.,0.));
#943 = ADVANCED_FACE('',(#944),#970,.T.);
#944 = FACE_BOUND('',#945,.T.);
#945 = EDGE_LOOP('',(#946,#954,#963,#969));
#946 = ORIENTED_EDGE('',*,*,#947,.F.);
#947 = EDGE_CURVE('',#948,#465,#950,.T.);
#948 = VERTEX_POINT('',#949);
#949 = CARTESIAN_POINT('',(32.6,-75.,-9.));
#950 = LINE('',#951,#952);
#951 = CARTESIAN_POINT('',(32.6,-75.,-15.));
#952 = VECTOR('',#953,1.);
#953 = DIRECTION('',(0.,0.,1.));
#954 = ORIENTED_EDGE('',*,*,#955,.T.);
#955 = EDGE_CURVE('',#948,#956,#958,.T.);
#956 = VERTEX_POINT('',#957);
#957 = CARTESIAN_POINT('',(42.4,-75.,-9.));
#958 = CIRCLE('',#959,4.9);
#959 = AXIS2_PLACEMENT_3D('',#960,#961,#962);
#960 = CARTESIAN_POINT('',(37.5,-75.,-9.));
#961 = DIRECTION('',(0.,0.,1.));
#962 = DIRECTION('',(1.,0.,-0.));
#963 = ORIENTED_EDGE('',*,*,#964,.T.);
#964 = EDGE_CURVE('',#956,#467,#965,.T.);
#965 = LINE('',#966,#967);
#966 = CARTESIAN_POINT('',(42.4,-75.,-15.));
#967 = VECTOR('',#968,1.);
#968 = DIRECTION('',(0.,0.,1.));
#969 = ORIENTED_EDGE('',*,*,#464,.F.);
#970 = CYLINDRICAL_SURFACE('',#971,4.9);
#971 = AXIS2_PLACEMENT_3D('',#972,#973,#974);
#972 = CARTESIAN_POINT('',(37.5,-75.,-15.));
#973 = DIRECTION('',(0.,0.,1.));
#974 = DIRECTION('',(1.,0.,-0.));
#975 = ADVANCED_FACE('',(#976),#994,.T.);
#976 = FACE_BOUND('',#977,.T.);
#977 = EDGE_LOOP('',(#978,#979,#987,#993));
#978 = ORIENTED_EDGE('',*,*,#964,.F.);
#979 = ORIENTED_EDGE('',*,*,#980,.T.);
#980 = EDGE_CURVE('',#956,#981,#983,.T.);
#981 = VERTEX_POINT('',#982);
#982 = CARTESIAN_POINT('',(42.4,-60.,-9.));
#983 = LINE('',#984,#985);
#984 = CARTESIAN_POINT('',(42.4,-60.,-9.));
#985 = VECTOR('',#986,1.);
#986 = DIRECTION('',(5.782411586589E-17,1.,0.));
#987 = ORIENTED_EDGE('',*,*,#988,.T.);
#988 = EDGE_CURVE('',#981,#484,#989,.T.);
#989 = LINE('',#990,#991);
#990 = CARTESIAN_POINT('',(42.4,-60.,-15.));
#991 = VECTOR('',#992,1.);
#992 = DIRECTION('',(0.,0.,1.));
#993 = ORIENTED_EDGE('',*,*,#492,.F.);
#994 = PLANE('',#995);
#995 = AXIS2_PLACEMENT_3D('',#996,#997,#998);
#996 = CARTESIAN_POINT('',(42.4,-67.5,-15.));
#997 = DIRECTION('',(1.,-5.782411586589E-17,0.));
#998 = DIRECTION('',(5.782411586589E-17,1.,0.));
#999 = ADVANCED_FACE('',(#1000),#1019,.T.);
#1000 = FACE_BOUND('',#1001,.T.);
#1001 = EDGE_LOOP('',(#1002,#1003,#1012,#1018));
#1002 = ORIENTED_EDGE('',*,*,#988,.F.);
#1003 = ORIENTED_EDGE('',*,*,#1004,.T.);
#1004 = EDGE_CURVE('',#981,#1005,#1007,.T.);
#1005 = VERTEX_POINT('',#1006);
#1006 = CARTESIAN_POINT('',(32.6,-60.,-9.));
#1007 = CIRCLE('',#1008,4.9);
#1008 = AXIS2_PLACEMENT_3D('',#1009,#1010,#1011);
#1009 = CARTESIAN_POINT('',(37.5,-60.,-9.));
#1010 = DIRECTION('',(0.,0.,1.));
#1011 = DIRECTION('',(1.,0.,-0.));
#1012 = ORIENTED_EDGE('',*,*,#1013,.T.);
#1013 = EDGE_CURVE('',#1005,#476,#1014,.T.);
#1014 = LINE('',#1015,#1016);
#1015 = CARTESIAN_POINT('',(32.6,-60.,-15.));
#1016 = VECTOR('',#1017,1.);
#1017 = DIRECTION('',(0.,0.,1.));
#1018 = ORIENTED_EDGE('',*,*,#483,.F.);
#1019 = CYLINDRICAL_SURFACE('',#1020,4.9);
#1020 = AXIS2_PLACEMENT_3D('',#1021,#1022,#1023);
#1021 = CARTESIAN_POINT('',(37.5,-60.,-15.));
#1022 = DIRECTION('',(0.,0.,1.));
#1023 = DIRECTION('',(1.,0.,-0.));
#1024 = ADVANCED_FACE('',(#1025),#1036,.F.);
#1025 = FACE_BOUND('',#1026,.T.);
#1026 = EDGE_LOOP('',(#1027,#1028,#1034,#1035));
#1027 = ORIENTED_EDGE('',*,*,#1013,.F.);
#1028 = ORIENTED_EDGE('',*,*,#1029,.F.);
#1029 = EDGE_CURVE('',#948,#1005,#1030,.T.);
#1030 = LINE('',#1031,#1032);
#1031 = CARTESIAN_POINT('',(32.6,-67.5,-9.));
#1032 = VECTOR('',#1033,1.);
#1033 = DIRECTION('',(5.782411586589E-17,1.,0.));
#1034 = ORIENTED_EDGE('',*,*,#947,.T.);
#1035 = ORIENTED_EDGE('',*,*,#475,.T.);
#1036 = PLANE('',#1037);
#1037 = AXIS2_PLACEMENT_3D('',#1038,#1039,#1040);
#1038 = CARTESIAN_POINT('',(32.6,-67.5,-15.));
#1039 = DIRECTION('',(1.,-5.782411586589E-17,0.));
#1040 = DIRECTION('',(5.782411586589E-17,1.,0.));
#1041 = ADVANCED_FACE('',(#1042),#1068,.T.);
#1042 = FACE_BOUND('',#1043,.T.);
#1043 = EDGE_LOOP('',(#1044,#1052,#1061,#1067));
#1044 = ORIENTED_EDGE('',*,*,#1045,.F.);
#1045 = EDGE_CURVE('',#1046,#535,#1048,.T.);
#1046 = VERTEX_POINT('',#1047);
#1047 = CARTESIAN_POINT('',(-42.4,60.,-9.));
#1048 = LINE('',#1049,#1050);
#1049 = CARTESIAN_POINT('',(-42.4,60.,-15.));
#1050 = VECTOR('',#1051,1.);
#1051 = DIRECTION('',(0.,0.,1.));
#1052 = ORIENTED_EDGE('',*,*,#1053,.T.);
#1053 = EDGE_CURVE('',#1046,#1054,#1056,.T.);
#1054 = VERTEX_POINT('',#1055);
#1055 = CARTESIAN_POINT('',(-32.6,60.,-9.));
#1056 = CIRCLE('',#1057,4.9);
#1057 = AXIS2_PLACEMENT_3D('',#1058,#1059,#1060);
#1058 = CARTESIAN_POINT('',(-37.5,60.,-9.));
#1059 = DIRECTION('',(0.,0.,1.));
#1060 = DIRECTION('',(1.,0.,-0.));
#1061 = ORIENTED_EDGE('',*,*,#1062,.T.);
#1062 = EDGE_CURVE('',#1054,#537,#1063,.T.);
#1063 = LINE('',#1064,#1065);
#1064 = CARTESIAN_POINT('',(-32.6,60.,-15.));
#1065 = VECTOR('',#1066,1.);
#1066 = DIRECTION('',(0.,0.,1.));
#1067 = ORIENTED_EDGE('',*,*,#534,.F.);
#1068 = CYLINDRICAL_SURFACE('',#1069,4.9);
#1069 = AXIS2_PLACEMENT_3D('',#1070,#1071,#1072);
#1070 = CARTESIAN_POINT('',(-37.5,60.,-15.));
#1071 = DIRECTION('',(0.,0.,1.));
#1072 = DIRECTION('',(1.,0.,-0.));
#1073 = ADVANCED_FACE('',(#1074),#1092,.T.);
#1074 = FACE_BOUND('',#1075,.T.);
#1075 = EDGE_LOOP('',(#1076,#1077,#1085,#1091));
#1076 = ORIENTED_EDGE('',*,*,#1062,.F.);
#1077 = ORIENTED_EDGE('',*,*,#1078,.T.);
#1078 = EDGE_CURVE('',#1054,#1079,#1081,.T.);
#1079 = VERTEX_POINT('',#1080);
#1080 = CARTESIAN_POINT('',(-32.6,75.,-9.));
#1081 = LINE('',#1082,#1083);
#1082 = CARTESIAN_POINT('',(-32.6,75.,-9.));
#1083 = VECTOR('',#1084,1.);
#1084 = DIRECTION('',(5.782411586589E-17,1.,0.));
#1085 = ORIENTED_EDGE('',*,*,#1086,.T.);
#1086 = EDGE_CURVE('',#1079,#554,#1087,.T.);
#1087 = LINE('',#1088,#1089);
#1088 = CARTESIAN_POINT('',(-32.6,75.,-15.));
#1089 = VECTOR('',#1090,1.);
#1090 = DIRECTION('',(0.,0.,1.));
#1091 = ORIENTED_EDGE('',*,*,#562,.F.);
#1092 = PLANE('',#1093);
#1093 = AXIS2_PLACEMENT_3D('',#1094,#1095,#1096);
#1094 = CARTESIAN_POINT('',(-32.6,67.5,-15.));
#1095 = DIRECTION('',(1.,-5.782411586589E-17,0.));
#1096 = DIRECTION('',(5.782411586589E-17,1.,0.));
#1097 = ADVANCED_FACE('',(#1098),#1117,.T.);
#1098 = FACE_BOUND('',#1099,.T.);
#1099 = EDGE_LOOP('',(#1100,#1101,#1110,#1116));
#1100 = ORIENTED_EDGE('',*,*,#1086,.F.);
#1101 = ORIENTED_EDGE('',*,*,#1102,.T.);
#1102 = EDGE_CURVE('',#1079,#1103,#1105,.T.);
#1103 = VERTEX_POINT('',#1104);
#1104 = CARTESIAN_POINT('',(-42.4,75.,-9.));
#1105 = CIRCLE('',#1106,4.9);
#1106 = AXIS2_PLACEMENT_3D('',#1107,#1108,#1109);
#1107 = CARTESIAN_POINT('',(-37.5,75.,-9.));
#1108 = DIRECTION('',(0.,0.,1.));
#1109 = DIRECTION('',(1.,0.,-0.));
#1110 = ORIENTED_EDGE('',*,*,#1111,.T.);
#1111 = EDGE_CURVE('',#1103,#546,#1112,.T.);
#1112 = LINE('',#1113,#1114);
#1113 = CARTESIAN_POINT('',(-42.4,75.,-15.));
#1114 = VECTOR('',#1115,1.);
#1115 = DIRECTION('',(0.,0.,1.));
#1116 = ORIENTED_EDGE('',*,*,#553,.F.);
#1117 = CYLINDRICAL_SURFACE('',#1118,4.9);
#1118 = AXIS2_PLACEMENT_3D('',#1119,#1120,#1121);
#1119 = CARTESIAN_POINT('',(-37.5,75.,-15.));
#1120 = DIRECTION('',(0.,0.,1.));
#1121 = DIRECTION('',(1.,0.,-0.));
#1122 = ADVANCED_FACE('',(#1123),#1134,.F.);
#1123 = FACE_BOUND('',#1124,.T.);
#1124 = EDGE_LOOP('',(#1125,#1126,#1132,#1133));
#1125 = ORIENTED_EDGE('',*,*,#1111,.F.);
#1126 = ORIENTED_EDGE('',*,*,#1127,.F.);
#1127 = EDGE_CURVE('',#1046,#1103,#1128,.T.);
#1128 = LINE('',#1129,#1130);
#1129 = CARTESIAN_POINT('',(-42.4,67.5,-9.));
#1130 = VECTOR('',#1131,1.);
#1131 = DIRECTION('',(5.782411586589E-17,1.,0.));
#1132 = ORIENTED_EDGE('',*,*,#1045,.T.);
#1133 = ORIENTED_EDGE('',*,*,#545,.T.);
#1134 = PLANE('',#1135);
#1135 = AXIS2_PLACEMENT_3D('',#1136,#1137,#1138);
#1136 = CARTESIAN_POINT('',(-42.4,67.5,-15.));
#1137 = DIRECTION('',(1.,-5.782411586589E-17,0.));
#1138 = DIRECTION('',(5.782411586589E-17,1.,0.));
#1139 = ADVANCED_FACE('',(#1140),#1166,.T.);
#1140 = FACE_BOUND('',#1141,.T.);
#1141 = EDGE_LOOP('',(#1142,#1150,#1159,#1165));
#1142 = ORIENTED_EDGE('',*,*,#1143,.F.);
#1143 = EDGE_CURVE('',#1144,#571,#1146,.T.);
#1144 = VERTEX_POINT('',#1145);
#1145 = CARTESIAN_POINT('',(32.6,60.,-9.));
#1146 = LINE('',#1147,#1148);
#1147 = CARTESIAN_POINT('',(32.6,60.,-15.));
#1148 = VECTOR('',#1149,1.);
#1149 = DIRECTION('',(0.,0.,1.));
#1150 = ORIENTED_EDGE('',*,*,#1151,.T.);
#1151 = EDGE_CURVE('',#1144,#1152,#1154,.T.);
#1152 = VERTEX_POINT('',#1153);
#1153 = CARTESIAN_POINT('',(42.4,60.,-9.));
#1154 = CIRCLE('',#1155,4.9);
#1155 = AXIS2_PLACEMENT_3D('',#1156,#1157,#1158);
#1156 = CARTESIAN_POINT('',(37.5,60.,-9.));
#1157 = DIRECTION('',(0.,0.,1.));
#1158 = DIRECTION('',(1.,0.,-0.));
#1159 = ORIENTED_EDGE('',*,*,#1160,.T.);
#1160 = EDGE_CURVE('',#1152,#573,#1161,.T.);
#1161 = LINE('',#1162,#1163);
#1162 = CARTESIAN_POINT('',(42.4,60.,-15.));
#1163 = VECTOR('',#1164,1.);
#1164 = DIRECTION('',(0.,0.,1.));
#1165 = ORIENTED_EDGE('',*,*,#570,.F.);
#1166 = CYLINDRICAL_SURFACE('',#1167,4.9);
#1167 = AXIS2_PLACEMENT_3D('',#1168,#1169,#1170);
#1168 = CARTESIAN_POINT('',(37.5,60.,-15.));
#1169 = DIRECTION('',(0.,0.,1.));
#1170 = DIRECTION('',(1.,0.,-0.));
#1171 = ADVANCED_FACE('',(#1172),#1190,.T.);
#1172 = FACE_BOUND('',#1173,.T.);
#1173 = EDGE_LOOP('',(#1174,#1175,#1183,#1189));
#1174 = ORIENTED_EDGE('',*,*,#1160,.F.);
#1175 = ORIENTED_EDGE('',*,*,#1176,.T.);
#1176 = EDGE_CURVE('',#1152,#1177,#1179,.T.);
#1177 = VERTEX_POINT('',#1178);
#1178 = CARTESIAN_POINT('',(42.4,75.,-9.));
#1179 = LINE('',#1180,#1181);
#1180 = CARTESIAN_POINT('',(42.4,75.,-9.));
#1181 = VECTOR('',#1182,1.);
#1182 = DIRECTION('',(5.782411586589E-17,1.,0.));
#1183 = ORIENTED_EDGE('',*,*,#1184,.T.);
#1184 = EDGE_CURVE('',#1177,#590,#1185,.T.);
#1185 = LINE('',#1186,#1187);
#1186 = CARTESIAN_POINT('',(42.4,75.,-15.));
#1187 = VECTOR('',#1188,1.);
#1188 = DIRECTION('',(0.,0.,1.));
#1189 = ORIENTED_EDGE('',*,*,#598,.F.);
#1190 = PLANE('',#1191);
#1191 = AXIS2_PLACEMENT_3D('',#1192,#1193,#1194);
#1192 = CARTESIAN_POINT('',(42.4,67.5,-15.));
#1193 = DIRECTION('',(1.,-5.782411586589E-17,0.));
#1194 = DIRECTION('',(5.782411586589E-17,1.,0.));
#1195 = ADVANCED_FACE('',(#1196),#1215,.T.);
#1196 = FACE_BOUND('',#1197,.T.);
#1197 = EDGE_LOOP('',(#1198,#1199,#1208,#1214));
#1198 = ORIENTED_EDGE('',*,*,#1184,.F.);
#1199 = ORIENTED_EDGE('',*,*,#1200,.T.);
#1200 = EDGE_CURVE('',#1177,#1201,#1203,.T.);
#1201 = VERTEX_POINT('',#1202);
#1202 = CARTESIAN_POINT('',(32.6,75.,-9.));
#1203 = CIRCLE('',#1204,4.9);
#1204 = AXIS2_PLACEMENT_3D('',#1205,#1206,#1207);
#1205 = CARTESIAN_POINT('',(37.5,75.,-9.));
#1206 = DIRECTION('',(0.,0.,1.));
#1207 = DIRECTION('',(1.,0.,-0.));
#1208 = ORIENTED_EDGE('',*,*,#1209,.T.);
#1209 = EDGE_CURVE('',#1201,#582,#1210,.T.);
#1210 = LINE('',#1211,#1212);
#1211 = CARTESIAN_POINT('',(32.6,75.,-15.));
#1212 = VECTOR('',#1213,1.);
#1213 = DIRECTION('',(0.,0.,1.));
#1214 = ORIENTED_EDGE('',*,*,#589,.F.);
#1215 = CYLINDRICAL_SURFACE('',#1216,4.9);
#1216 = AXIS2_PLACEMENT_3D('',#1217,#1218,#1219);
#1217 = CARTESIAN_POINT('',(37.5,75.,-15.));
#1218 = DIRECTION('',(0.,0.,1.));
#1219 = DIRECTION('',(1.,0.,-0.));
#1220 = ADVANCED_FACE('',(#1221),#1232,.F.);
#1221 = FACE_BOUND('',#1222,.T.);
#1222 = EDGE_LOOP('',(#1223,#1224,#1230,#1231));
#1223 = ORIENTED_EDGE('',*,*,#1209,.F.);
#1224 = ORIENTED_EDGE('',*,*,#1225,.F.);
#1225 = EDGE_CURVE('',#1144,#1201,#1226,.T.);
#1226 = LINE('',#1227,#1228);
#1227 = CARTESIAN_POINT('',(32.6,67.5,-9.));
#1228 = VECTOR('',#1229,1.);
#1229 = DIRECTION('',(5.782411586589E-17,1.,0.));
#1230 = ORIENTED_EDGE('',*,*,#1143,.T.);
#1231 = ORIENTED_EDGE('',*,*,#581,.T.);
#1232 = PLANE('',#1233);
#1233 = AXIS2_PLACEMENT_3D('',#1234,#1235,#1236);
#1234 = CARTESIAN_POINT('',(32.6,67.5,-15.));
#1235 = DIRECTION('',(1.,-5.782411586589E-17,0.));
#1236 = DIRECTION('',(5.782411586589E-17,1.,0.));
#1237 = ADVANCED_FACE('',(#1238),#1266,.T.);
#1238 = FACE_BOUND('',#1239,.T.);
#1239 = EDGE_LOOP('',(#1240,#1249,#1258,#1265));
#1240 = ORIENTED_EDGE('',*,*,#1241,.T.);
#1241 = EDGE_CURVE('',#850,#1242,#1244,.T.);
#1242 = VERTEX_POINT('',#1243);
#1243 = CARTESIAN_POINT('',(-41.4,-75.,-10.));
#1244 = CIRCLE('',#1245,1.);
#1245 = AXIS2_PLACEMENT_3D('',#1246,#1247,#1248);
#1246 = CARTESIAN_POINT('',(-41.4,-75.,-9.));
#1247 = DIRECTION('',(0.,-1.,0.));
#1248 = DIRECTION('',(0.,0.,-1.));
#1249 = ORIENTED_EDGE('',*,*,#1250,.T.);
#1250 = EDGE_CURVE('',#1242,#1251,#1253,.T.);
#1251 = VERTEX_POINT('',#1252);
#1252 = CARTESIAN_POINT('',(-33.6,-75.,-10.));
#1253 = CIRCLE('',#1254,3.9);
#1254 = AXIS2_PLACEMENT_3D('',#1255,#1256,#1257);
#1255 = CARTESIAN_POINT('',(-37.5,-75.,-10.));
#1256 = DIRECTION('',(0.,0.,1.));
#1257 = DIRECTION('',(1.,0.,-0.));
#1258 = ORIENTED_EDGE('',*,*,#1259,.T.);
#1259 = EDGE_CURVE('',#1251,#858,#1260,.T.);
#1260 = CIRCLE('',#1261,1.);
#1261 = AXIS2_PLACEMENT_3D('',#1262,#1263,#1264);
#1262 = CARTESIAN_POINT('',(-33.6,-75.,-9.));
#1263 = DIRECTION('',(0.,-1.,0.));
#1264 = DIRECTION('',(0.,0.,-1.));
#1265 = ORIENTED_EDGE('',*,*,#857,.F.);
#1266 = TOROIDAL_SURFACE('',#1267,3.9,1.);
#1267 = AXIS2_PLACEMENT_3D('',#1268,#1269,#1270);
#1268 = CARTESIAN_POINT('',(-37.5,-75.,-9.));
#1269 = DIRECTION('',(0.,0.,1.));
#1270 = DIRECTION('',(1.,0.,-0.));
#1271 = ADVANCED_FACE('',(#1272),#1291,.T.);
#1272 = FACE_BOUND('',#1273,.T.);
#1273 = EDGE_LOOP('',(#1274,#1283,#1284,#1285));
#1274 = ORIENTED_EDGE('',*,*,#1275,.T.);
#1275 = EDGE_CURVE('',#1276,#883,#1278,.T.);
#1276 = VERTEX_POINT('',#1277);
#1277 = CARTESIAN_POINT('',(-33.6,-60.,-10.));
#1278 = CIRCLE('',#1279,1.);
#1279 = AXIS2_PLACEMENT_3D('',#1280,#1281,#1282);
#1280 = CARTESIAN_POINT('',(-33.6,-60.,-9.));
#1281 = DIRECTION('',(0.,-1.,0.));
#1282 = DIRECTION('',(0.,0.,-1.));
#1283 = ORIENTED_EDGE('',*,*,#882,.F.);
#1284 = ORIENTED_EDGE('',*,*,#1259,.F.);
#1285 = ORIENTED_EDGE('',*,*,#1286,.T.);
#1286 = EDGE_CURVE('',#1251,#1276,#1287,.T.);
#1287 = LINE('',#1288,#1289);
#1288 = CARTESIAN_POINT('',(-33.6,-75.,-10.));
#1289 = VECTOR('',#1290,1.);
#1290 = DIRECTION('',(5.782411586589E-17,1.,0.));
#1291 = CYLINDRICAL_SURFACE('',#1292,1.);
#1292 = AXIS2_PLACEMENT_3D('',#1293,#1294,#1295);
#1293 = CARTESIAN_POINT('',(-33.6,-67.5,-9.));
#1294 = DIRECTION('',(-5.782411586589E-17,-1.,0.));
#1295 = DIRECTION('',(1.,-5.782411586589E-17,0.));
#1296 = ADVANCED_FACE('',(#1297),#1317,.T.);
#1297 = FACE_BOUND('',#1298,.T.);
#1298 = EDGE_LOOP('',(#1299,#1300,#1309,#1316));
#1299 = ORIENTED_EDGE('',*,*,#1275,.F.);
#1300 = ORIENTED_EDGE('',*,*,#1301,.T.);
#1301 = EDGE_CURVE('',#1276,#1302,#1304,.T.);
#1302 = VERTEX_POINT('',#1303);
#1303 = CARTESIAN_POINT('',(-41.4,-60.,-10.));
#1304 = CIRCLE('',#1305,3.9);
#1305 = AXIS2_PLACEMENT_3D('',#1306,#1307,#1308);
#1306 = CARTESIAN_POINT('',(-37.5,-60.,-10.));
#1307 = DIRECTION('',(0.,0.,1.));
#1308 = DIRECTION('',(1.,0.,-0.));
#1309 = ORIENTED_EDGE('',*,*,#1310,.F.);
#1310 = EDGE_CURVE('',#907,#1302,#1311,.T.);
#1311 = CIRCLE('',#1312,1.);
#1312 = AXIS2_PLACEMENT_3D('',#1313,#1314,#1315);
#1313 = CARTESIAN_POINT('',(-41.4,-60.,-9.));
#1314 = DIRECTION('',(0.,-1.,0.));
#1315 = DIRECTION('',(0.,0.,-1.));
#1316 = ORIENTED_EDGE('',*,*,#906,.F.);
#1317 = TOROIDAL_SURFACE('',#1318,3.9,1.);
#1318 = AXIS2_PLACEMENT_3D('',#1319,#1320,#1321);
#1319 = CARTESIAN_POINT('',(-37.5,-60.,-9.));
#1320 = DIRECTION('',(0.,0.,1.));
#1321 = DIRECTION('',(1.,0.,-0.));
#1322 = ADVANCED_FACE('',(#1323),#1334,.T.);
#1323 = FACE_BOUND('',#1324,.T.);
#1324 = EDGE_LOOP('',(#1325,#1326,#1332,#1333));
#1325 = ORIENTED_EDGE('',*,*,#1310,.T.);
#1326 = ORIENTED_EDGE('',*,*,#1327,.F.);
#1327 = EDGE_CURVE('',#1242,#1302,#1328,.T.);
#1328 = LINE('',#1329,#1330);
#1329 = CARTESIAN_POINT('',(-41.4,-180.,-10.));
#1330 = VECTOR('',#1331,1.);
#1331 = DIRECTION('',(5.782411586589E-17,1.,0.));
#1332 = ORIENTED_EDGE('',*,*,#1241,.F.);
#1333 = ORIENTED_EDGE('',*,*,#931,.T.);
#1334 = CYLINDRICAL_SURFACE('',#1335,1.);
#1335 = AXIS2_PLACEMENT_3D('',#1336,#1337,#1338);
#1336 = CARTESIAN_POINT('',(-41.4,-180.,-9.));
#1337 = DIRECTION('',(5.782411586589E-17,1.,0.));
#1338 = DIRECTION('',(-1.,5.782411586589E-17,0.));
#1339 = ADVANCED_FACE('',(#1340),#1368,.T.);
#1340 = FACE_BOUND('',#1341,.T.);
#1341 = EDGE_LOOP('',(#1342,#1351,#1360,#1367));
#1342 = ORIENTED_EDGE('',*,*,#1343,.T.);
#1343 = EDGE_CURVE('',#948,#1344,#1346,.T.);
#1344 = VERTEX_POINT('',#1345);
#1345 = CARTESIAN_POINT('',(33.6,-75.,-10.));
#1346 = CIRCLE('',#1347,1.);
#1347 = AXIS2_PLACEMENT_3D('',#1348,#1349,#1350);
#1348 = CARTESIAN_POINT('',(33.6,-75.,-9.));
#1349 = DIRECTION('',(0.,-1.,0.));
#1350 = DIRECTION('',(0.,0.,-1.));
#1351 = ORIENTED_EDGE('',*,*,#1352,.T.);
#1352 = EDGE_CURVE('',#1344,#1353,#1355,.T.);
#1353 = VERTEX_POINT('',#1354);
#1354 = CARTESIAN_POINT('',(41.4,-75.,-10.));
#1355 = CIRCLE('',#1356,3.9);
#1356 = AXIS2_PLACEMENT_3D('',#1357,#1358,#1359);
#1357 = CARTESIAN_POINT('',(37.5,-75.,-10.));
#1358 = DIRECTION('',(0.,0.,1.));
#1359 = DIRECTION('',(1.,0.,-0.));
#1360 = ORIENTED_EDGE('',*,*,#1361,.T.);
#1361 = EDGE_CURVE('',#1353,#956,#1362,.T.);
#1362 = CIRCLE('',#1363,1.);
#1363 = AXIS2_PLACEMENT_3D('',#1364,#1365,#1366);
#1364 = CARTESIAN_POINT('',(41.4,-75.,-9.));
#1365 = DIRECTION('',(0.,-1.,0.));
#1366 = DIRECTION('',(0.,0.,-1.));
#1367 = ORIENTED_EDGE('',*,*,#955,.F.);
#1368 = TOROIDAL_SURFACE('',#1369,3.9,1.);
#1369 = AXIS2_PLACEMENT_3D('',#1370,#1371,#1372);
#1370 = CARTESIAN_POINT('',(37.5,-75.,-9.));
#1371 = DIRECTION('',(0.,0.,1.));
#1372 = DIRECTION('',(1.,0.,-0.));
#1373 = ADVANCED_FACE('',(#1374),#1393,.T.);
#1374 = FACE_BOUND('',#1375,.T.);
#1375 = EDGE_LOOP('',(#1376,#1385,#1386,#1387));
#1376 = ORIENTED_EDGE('',*,*,#1377,.T.);
#1377 = EDGE_CURVE('',#1378,#981,#1380,.T.);
#1378 = VERTEX_POINT('',#1379);
#1379 = CARTESIAN_POINT('',(41.4,-60.,-10.));
#1380 = CIRCLE('',#1381,1.);
#1381 = AXIS2_PLACEMENT_3D('',#1382,#1383,#1384);
#1382 = CARTESIAN_POINT('',(41.4,-60.,-9.));
#1383 = DIRECTION('',(0.,-1.,0.));
#1384 = DIRECTION('',(0.,0.,-1.));
#1385 = ORIENTED_EDGE('',*,*,#980,.F.);
#1386 = ORIENTED_EDGE('',*,*,#1361,.F.);
#1387 = ORIENTED_EDGE('',*,*,#1388,.T.);
#1388 = EDGE_CURVE('',#1353,#1378,#1389,.T.);
#1389 = LINE('',#1390,#1391);
#1390 = CARTESIAN_POINT('',(41.4,-75.,-10.));
#1391 = VECTOR('',#1392,1.);
#1392 = DIRECTION('',(5.782411586589E-17,1.,0.));
#1393 = CYLINDRICAL_SURFACE('',#1394,1.);
#1394 = AXIS2_PLACEMENT_3D('',#1395,#1396,#1397);
#1395 = CARTESIAN_POINT('',(41.4,-67.5,-9.));
#1396 = DIRECTION('',(-5.782411586589E-17,-1.,0.));
#1397 = DIRECTION('',(1.,-5.782411586589E-17,0.));
#1398 = ADVANCED_FACE('',(#1399),#1419,.T.);
#1399 = FACE_BOUND('',#1400,.T.);
#1400 = EDGE_LOOP('',(#1401,#1402,#1411,#1418));
#1401 = ORIENTED_EDGE('',*,*,#1377,.F.);
#1402 = ORIENTED_EDGE('',*,*,#1403,.T.);
#1403 = EDGE_CURVE('',#1378,#1404,#1406,.T.);
#1404 = VERTEX_POINT('',#1405);
#1405 = CARTESIAN_POINT('',(33.6,-60.,-10.));
#1406 = CIRCLE('',#1407,3.9);
#1407 = AXIS2_PLACEMENT_3D('',#1408,#1409,#1410);
#1408 = CARTESIAN_POINT('',(37.5,-60.,-10.));
#1409 = DIRECTION('',(0.,0.,1.));
#1410 = DIRECTION('',(1.,0.,-0.));
#1411 = ORIENTED_EDGE('',*,*,#1412,.F.);
#1412 = EDGE_CURVE('',#1005,#1404,#1413,.T.);
#1413 = CIRCLE('',#1414,1.);
#1414 = AXIS2_PLACEMENT_3D('',#1415,#1416,#1417);
#1415 = CARTESIAN_POINT('',(33.6,-60.,-9.));
#1416 = DIRECTION('',(0.,-1.,0.));
#1417 = DIRECTION('',(0.,0.,-1.));
#1418 = ORIENTED_EDGE('',*,*,#1004,.F.);
#1419 = TOROIDAL_SURFACE('',#1420,3.9,1.);
#1420 = AXIS2_PLACEMENT_3D('',#1421,#1422,#1423);
#1421 = CARTESIAN_POINT('',(37.5,-60.,-9.));
#1422 = DIRECTION('',(0.,0.,1.));
#1423 = DIRECTION('',(1.,0.,-0.));
#1424 = ADVANCED_FACE('',(#1425),#1436,.T.);
#1425 = FACE_BOUND('',#1426,.T.);
#1426 = EDGE_LOOP('',(#1427,#1428,#1434,#1435));
#1427 = ORIENTED_EDGE('',*,*,#1412,.T.);
#1428 = ORIENTED_EDGE('',*,*,#1429,.F.);
#1429 = EDGE_CURVE('',#1344,#1404,#1430,.T.);
#1430 = LINE('',#1431,#1432);
#1431 = CARTESIAN_POINT('',(33.6,-180.,-10.));
#1432 = VECTOR('',#1433,1.);
#1433 = DIRECTION('',(5.782411586589E-17,1.,0.));
#1434 = ORIENTED_EDGE('',*,*,#1343,.F.);
#1435 = ORIENTED_EDGE('',*,*,#1029,.T.);
#1436 = CYLINDRICAL_SURFACE('',#1437,1.);
#1437 = AXIS2_PLACEMENT_3D('',#1438,#1439,#1440);
#1438 = CARTESIAN_POINT('',(33.6,-180.,-9.));
#1439 = DIRECTION('',(5.782411586589E-17,1.,0.));
#1440 = DIRECTION('',(-1.,5.782411586589E-17,0.));
#1441 = ADVANCED_FACE('',(#1442),#1470,.T.);
#1442 = FACE_BOUND('',#1443,.T.);
#1443 = EDGE_LOOP('',(#1444,#1453,#1462,#1469));
#1444 = ORIENTED_EDGE('',*,*,#1445,.T.);
#1445 = EDGE_CURVE('',#1046,#1446,#1448,.T.);
#1446 = VERTEX_POINT('',#1447);
#1447 = CARTESIAN_POINT('',(-41.4,60.,-10.));
#1448 = CIRCLE('',#1449,1.);
#1449 = AXIS2_PLACEMENT_3D('',#1450,#1451,#1452);
#1450 = CARTESIAN_POINT('',(-41.4,60.,-9.));
#1451 = DIRECTION('',(0.,-1.,0.));
#1452 = DIRECTION('',(0.,0.,-1.));
#1453 = ORIENTED_EDGE('',*,*,#1454,.T.);
#1454 = EDGE_CURVE('',#1446,#1455,#1457,.T.);
#1455 = VERTEX_POINT('',#1456);
#1456 = CARTESIAN_POINT('',(-33.6,60.,-10.));
#1457 = CIRCLE('',#1458,3.9);
#1458 = AXIS2_PLACEMENT_3D('',#1459,#1460,#1461);
#1459 = CARTESIAN_POINT('',(-37.5,60.,-10.));
#1460 = DIRECTION('',(0.,0.,1.));
#1461 = DIRECTION('',(1.,0.,-0.));
#1462 = ORIENTED_EDGE('',*,*,#1463,.T.);
#1463 = EDGE_CURVE('',#1455,#1054,#1464,.T.);
#1464 = CIRCLE('',#1465,1.);
#1465 = AXIS2_PLACEMENT_3D('',#1466,#1467,#1468);
#1466 = CARTESIAN_POINT('',(-33.6,60.,-9.));
#1467 = DIRECTION('',(0.,-1.,0.));
#1468 = DIRECTION('',(0.,0.,-1.));
#1469 = ORIENTED_EDGE('',*,*,#1053,.F.);
#1470 = TOROIDAL_SURFACE('',#1471,3.9,1.);
#1471 = AXIS2_PLACEMENT_3D('',#1472,#1473,#1474);
#1472 = CARTESIAN_POINT('',(-37.5,60.,-9.));
#1473 = DIRECTION('',(0.,0.,1.));
#1474 = DIRECTION('',(1.,0.,-0.));
#1475 = ADVANCED_FACE('',(#1476),#1495,.T.);
#1476 = FACE_BOUND('',#1477,.T.);
#1477 = EDGE_LOOP('',(#1478,#1487,#1488,#1489));
#1478 = ORIENTED_EDGE('',*,*,#1479,.T.);
#1479 = EDGE_CURVE('',#1480,#1079,#1482,.T.);
#1480 = VERTEX_POINT('',#1481);
#1481 = CARTESIAN_POINT('',(-33.6,75.,-10.));
#1482 = CIRCLE('',#1483,1.);
#1483 = AXIS2_PLACEMENT_3D('',#1484,#1485,#1486);
#1484 = CARTESIAN_POINT('',(-33.6,75.,-9.));
#1485 = DIRECTION('',(0.,-1.,0.));
#1486 = DIRECTION('',(0.,0.,-1.));
#1487 = ORIENTED_EDGE('',*,*,#1078,.F.);
#1488 = ORIENTED_EDGE('',*,*,#1463,.F.);
#1489 = ORIENTED_EDGE('',*,*,#1490,.T.);
#1490 = EDGE_CURVE('',#1455,#1480,#1491,.T.);
#1491 = LINE('',#1492,#1493);
#1492 = CARTESIAN_POINT('',(-33.6,60.,-10.));
#1493 = VECTOR('',#1494,1.);
#1494 = DIRECTION('',(5.782411586589E-17,1.,0.));
#1495 = CYLINDRICAL_SURFACE('',#1496,1.);
#1496 = AXIS2_PLACEMENT_3D('',#1497,#1498,#1499);
#1497 = CARTESIAN_POINT('',(-33.6,67.5,-9.));
#1498 = DIRECTION('',(-5.782411586589E-17,-1.,0.));
#1499 = DIRECTION('',(1.,-5.782411586589E-17,0.));
#1500 = ADVANCED_FACE('',(#1501),#1521,.T.);
#1501 = FACE_BOUND('',#1502,.T.);
#1502 = EDGE_LOOP('',(#1503,#1504,#1513,#1520));
#1503 = ORIENTED_EDGE('',*,*,#1479,.F.);
#1504 = ORIENTED_EDGE('',*,*,#1505,.T.);
#1505 = EDGE_CURVE('',#1480,#1506,#1508,.T.);
#1506 = VERTEX_POINT('',#1507);
#1507 = CARTESIAN_POINT('',(-41.4,75.,-10.));
#1508 = CIRCLE('',#1509,3.9);
#1509 = AXIS2_PLACEMENT_3D('',#1510,#1511,#1512);
#1510 = CARTESIAN_POINT('',(-37.5,75.,-10.));
#1511 = DIRECTION('',(0.,0.,1.));
#1512 = DIRECTION('',(1.,0.,-0.));
#1513 = ORIENTED_EDGE('',*,*,#1514,.F.);
#1514 = EDGE_CURVE('',#1103,#1506,#1515,.T.);
#1515 = CIRCLE('',#1516,1.);
#1516 = AXIS2_PLACEMENT_3D('',#1517,#1518,#1519);
#1517 = CARTESIAN_POINT('',(-41.4,75.,-9.));
#1518 = DIRECTION('',(0.,-1.,0.));
#1519 = DIRECTION('',(0.,0.,-1.));
#1520 = ORIENTED_EDGE('',*,*,#1102,.F.);
#1521 = TOROIDAL_SURFACE('',#1522,3.9,1.);
#1522 = AXIS2_PLACEMENT_3D('',#1523,#1524,#1525);
#1523 = CARTESIAN_POINT('',(-37.5,75.,-9.));
#1524 = DIRECTION('',(0.,0.,1.));
#1525 = DIRECTION('',(1.,0.,-0.));
#1526 = ADVANCED_FACE('',(#1527),#1538,.T.);
#1527 = FACE_BOUND('',#1528,.T.);
#1528 = EDGE_LOOP('',(#1529,#1530,#1536,#1537));
#1529 = ORIENTED_EDGE('',*,*,#1514,.T.);
#1530 = ORIENTED_EDGE('',*,*,#1531,.F.);
#1531 = EDGE_CURVE('',#1446,#1506,#1532,.T.);
#1532 = LINE('',#1533,#1534);
#1533 = CARTESIAN_POINT('',(-41.4,-45.,-10.));
#1534 = VECTOR('',#1535,1.);
#1535 = DIRECTION('',(5.782411586589E-17,1.,0.));
#1536 = ORIENTED_EDGE('',*,*,#1445,.F.);
#1537 = ORIENTED_EDGE('',*,*,#1127,.T.);
#1538 = CYLINDRICAL_SURFACE('',#1539,1.);
#1539 = AXIS2_PLACEMENT_3D('',#1540,#1541,#1542);
#1540 = CARTESIAN_POINT('',(-41.4,-45.,-9.));
#1541 = DIRECTION('',(5.782411586589E-17,1.,0.));
#1542 = DIRECTION('',(-1.,5.782411586589E-17,0.));
#1543 = ADVANCED_FACE('',(#1544),#1572,.T.);
#1544 = FACE_BOUND('',#1545,.T.);
#1545 = EDGE_LOOP('',(#1546,#1555,#1564,#1571));
#1546 = ORIENTED_EDGE('',*,*,#1547,.T.);
#1547 = EDGE_CURVE('',#1144,#1548,#1550,.T.);
#1548 = VERTEX_POINT('',#1549);
#1549 = CARTESIAN_POINT('',(33.6,60.,-10.));
#1550 = CIRCLE('',#1551,1.);
#1551 = AXIS2_PLACEMENT_3D('',#1552,#1553,#1554);
#1552 = CARTESIAN_POINT('',(33.6,60.,-9.));
#1553 = DIRECTION('',(0.,-1.,0.));
#1554 = DIRECTION('',(0.,0.,-1.));
#1555 = ORIENTED_EDGE('',*,*,#1556,.T.);
#1556 = EDGE_CURVE('',#1548,#1557,#1559,.T.);
#1557 = VERTEX_POINT('',#1558);
#1558 = CARTESIAN_POINT('',(41.4,60.,-10.));
#1559 = CIRCLE('',#1560,3.9);
#1560 = AXIS2_PLACEMENT_3D('',#1561,#1562,#1563);
#1561 = CARTESIAN_POINT('',(37.5,60.,-10.));
#1562 = DIRECTION('',(0.,0.,1.));
#1563 = DIRECTION('',(1.,0.,-0.));
#1564 = ORIENTED_EDGE('',*,*,#1565,.T.);
#1565 = EDGE_CURVE('',#1557,#1152,#1566,.T.);
#1566 = CIRCLE('',#1567,1.);
#1567 = AXIS2_PLACEMENT_3D('',#1568,#1569,#1570);
#1568 = CARTESIAN_POINT('',(41.4,60.,-9.));
#1569 = DIRECTION('',(0.,-1.,0.));
#1570 = DIRECTION('',(0.,0.,-1.));
#1571 = ORIENTED_EDGE('',*,*,#1151,.F.);
#1572 = TOROIDAL_SURFACE('',#1573,3.9,1.);
#1573 = AXIS2_PLACEMENT_3D('',#1574,#1575,#1576);
#1574 = CARTESIAN_POINT('',(37.5,60.,-9.));
#1575 = DIRECTION('',(0.,0.,1.));
#1576 = DIRECTION('',(1.,0.,-0.));
#1577 = ADVANCED_FACE('',(#1578),#1597,.T.);
#1578 = FACE_BOUND('',#1579,.T.);
#1579 = EDGE_LOOP('',(#1580,#1589,#1590,#1591));
#1580 = ORIENTED_EDGE('',*,*,#1581,.T.);
#1581 = EDGE_CURVE('',#1582,#1177,#1584,.T.);
#1582 = VERTEX_POINT('',#1583);
#1583 = CARTESIAN_POINT('',(41.4,75.,-10.));
#1584 = CIRCLE('',#1585,1.);
#1585 = AXIS2_PLACEMENT_3D('',#1586,#1587,#1588);
#1586 = CARTESIAN_POINT('',(41.4,75.,-9.));
#1587 = DIRECTION('',(0.,-1.,0.));
#1588 = DIRECTION('',(0.,0.,-1.));
#1589 = ORIENTED_EDGE('',*,*,#1176,.F.);
#1590 = ORIENTED_EDGE('',*,*,#1565,.F.);
#1591 = ORIENTED_EDGE('',*,*,#1592,.T.);
#1592 = EDGE_CURVE('',#1557,#1582,#1593,.T.);
#1593 = LINE('',#1594,#1595);
#1594 = CARTESIAN_POINT('',(41.4,60.,-10.));
#1595 = VECTOR('',#1596,1.);
#1596 = DIRECTION('',(5.782411586589E-17,1.,0.));
#1597 = CYLINDRICAL_SURFACE('',#1598,1.);
#1598 = AXIS2_PLACEMENT_3D('',#1599,#1600,#1601);
#1599 = CARTESIAN_POINT('',(41.4,67.5,-9.));
#1600 = DIRECTION('',(-5.782411586589E-17,-1.,0.));
#1601 = DIRECTION('',(1.,-5.782411586589E-17,0.));
#1602 = ADVANCED_FACE('',(#1603),#1623,.T.);
#1603 = FACE_BOUND('',#1604,.T.);
#1604 = EDGE_LOOP('',(#1605,#1606,#1615,#1622));
#1605 = ORIENTED_EDGE('',*,*,#1581,.F.);
#1606 = ORIENTED_EDGE('',*,*,#1607,.T.);
#1607 = EDGE_CURVE('',#1582,#1608,#1610,.T.);
#1608 = VERTEX_POINT('',#1609);
#1609 = CARTESIAN_POINT('',(33.6,75.,-10.));
#1610 = CIRCLE('',#1611,3.9);
#1611 = AXIS2_PLACEMENT_3D('',#1612,#1613,#1614);
#1612 = CARTESIAN_POINT('',(37.5,75.,-10.));
#1613 = DIRECTION('',(0.,0.,1.));
#1614 = DIRECTION('',(1.,0.,-0.));
#1615 = ORIENTED_EDGE('',*,*,#1616,.F.);
#1616 = EDGE_CURVE('',#1201,#1608,#1617,.T.);
#1617 = CIRCLE('',#1618,1.);
#1618 = AXIS2_PLACEMENT_3D('',#1619,#1620,#1621);
#1619 = CARTESIAN_POINT('',(33.6,75.,-9.));
#1620 = DIRECTION('',(0.,-1.,0.));
#1621 = DIRECTION('',(0.,0.,-1.));
#1622 = ORIENTED_EDGE('',*,*,#1200,.F.);
#1623 = TOROIDAL_SURFACE('',#1624,3.9,1.);
#1624 = AXIS2_PLACEMENT_3D('',#1625,#1626,#1627);
#1625 = CARTESIAN_POINT('',(37.5,75.,-9.));
#1626 = DIRECTION('',(0.,0.,1.));
#1627 = DIRECTION('',(1.,0.,-0.));
#1628 = ADVANCED_FACE('',(#1629),#1640,.T.);
#1629 = FACE_BOUND('',#1630,.T.);
#1630 = EDGE_LOOP('',(#1631,#1632,#1638,#1639));
#1631 = ORIENTED_EDGE('',*,*,#1616,.T.);
#1632 = ORIENTED_EDGE('',*,*,#1633,.F.);
#1633 = EDGE_CURVE('',#1548,#1608,#1634,.T.);
#1634 = LINE('',#1635,#1636);
#1635 = CARTESIAN_POINT('',(33.6,-45.,-10.));
#1636 = VECTOR('',#1637,1.);
#1637 = DIRECTION('',(5.782411586589E-17,1.,0.));
#1638 = ORIENTED_EDGE('',*,*,#1547,.F.);
#1639 = ORIENTED_EDGE('',*,*,#1225,.T.);
#1640 = CYLINDRICAL_SURFACE('',#1641,1.);
#1641 = AXIS2_PLACEMENT_3D('',#1642,#1643,#1644);
#1642 = CARTESIAN_POINT('',(33.6,-45.,-9.));
#1643 = DIRECTION('',(5.782411586589E-17,1.,0.));
#1644 = DIRECTION('',(-1.,5.782411586589E-17,0.));
#1645 = ADVANCED_FACE('',(#1646),#1652,.F.);
#1646 = FACE_BOUND('',#1647,.T.);
#1647 = EDGE_LOOP('',(#1648,#1649,#1650,#1651));
#1648 = ORIENTED_EDGE('',*,*,#1286,.F.);
#1649 = ORIENTED_EDGE('',*,*,#1250,.F.);
#1650 = ORIENTED_EDGE('',*,*,#1327,.T.);
#1651 = ORIENTED_EDGE('',*,*,#1301,.F.);
#1652 = PLANE('',#1653);
#1653 = AXIS2_PLACEMENT_3D('',#1654,#1655,#1656);
#1654 = CARTESIAN_POINT('',(-36.25,-180.,-10.));
#1655 = DIRECTION('',(0.,0.,1.));
#1656 = DIRECTION('',(1.,0.,-0.));
#1657 = ADVANCED_FACE('',(#1658),#1664,.F.);
#1658 = FACE_BOUND('',#1659,.T.);
#1659 = EDGE_LOOP('',(#1660,#1661,#1662,#1663));
#1660 = ORIENTED_EDGE('',*,*,#1388,.F.);
#1661 = ORIENTED_EDGE('',*,*,#1352,.F.);
#1662 = ORIENTED_EDGE('',*,*,#1429,.T.);
#1663 = ORIENTED_EDGE('',*,*,#1403,.F.);
#1664 = PLANE('',#1665);
#1665 = AXIS2_PLACEMENT_3D('',#1666,#1667,#1668);
#1666 = CARTESIAN_POINT('',(38.75,-180.,-10.));
#1667 = DIRECTION('',(0.,0.,1.));
#1668 = DIRECTION('',(1.,0.,-0.));
#1669 = ADVANCED_FACE('',(#1670),#1676,.F.);
#1670 = FACE_BOUND('',#1671,.T.);
#1671 = EDGE_LOOP('',(#1672,#1673,#1674,#1675));
#1672 = ORIENTED_EDGE('',*,*,#1490,.F.);
#1673 = ORIENTED_EDGE('',*,*,#1454,.F.);
#1674 = ORIENTED_EDGE('',*,*,#1531,.T.);
#1675 = ORIENTED_EDGE('',*,*,#1505,.F.);
#1676 = PLANE('',#1677);
#1677 = AXIS2_PLACEMENT_3D('',#1678,#1679,#1680);
#1678 = CARTESIAN_POINT('',(-36.25,-45.,-10.));
#1679 = DIRECTION('',(0.,0.,1.));
#1680 = DIRECTION('',(1.,0.,-0.));
#1681 = ADVANCED_FACE('',(#1682),#1688,.F.);
#1682 = FACE_BOUND('',#1683,.T.);
#1683 = EDGE_LOOP('',(#1684,#1685,#1686,#1687));
#1684 = ORIENTED_EDGE('',*,*,#1592,.F.);
#1685 = ORIENTED_EDGE('',*,*,#1556,.F.);
#1686 = ORIENTED_EDGE('',*,*,#1633,.T.);
#1687 = ORIENTED_EDGE('',*,*,#1607,.F.);
#1688 = PLANE('',#1689);
#1689 = AXIS2_PLACEMENT_3D('',#1690,#1691,#1692);
#1690 = CARTESIAN_POINT('',(38.75,-45.,-10.));
#1691 = DIRECTION('',(0.,0.,1.));
#1692 = DIRECTION('',(1.,0.,-0.));
#1693 = ( GEOMETRIC_REPRESENTATION_CONTEXT(3) 
GLOBAL_UNCERTAINTY_ASSIGNED_CONTEXT((#1697)) 
GLOBAL_UNIT_ASSIGNED_CONTEXT((#1694,#1695,#1696)) REPRESENTATION_CONTEXT
('Context #1','3D Context with UNIT and UNCERTAINTY') );
#1694 = ( LENGTH_UNIT() NAMED_UNIT(*) SI_UNIT(.MILLI.,.METRE.) );
#1695 = ( NAMED_UNIT(*) PLANE_ANGLE_UNIT() SI_UNIT($,.RADIAN.) );
#1696 = ( NAMED_UNIT(*) SI_UNIT($,.STERADIAN.) SOLID_ANGLE_UNIT() );
#1697 = UNCERTAINTY_MEASURE_WITH_UNIT(LENGTH_MEASURE(5.E-07),#1694,
  'distance_accuracy_value','confusion accuracy');
#1698 = PRODUCT_RELATED_PRODUCT_CATEGORY('part',$,(#7));
ENDSEC;
END-ISO-10303-21;
