ISO-10303-21;
HEADER;
/* Generated by software containing ST-Developer
 * from STEP Tools, Inc. (www.steptools.com) 
 */
/* OPTION: using custom renumber hook */

FILE_DESCRIPTION(
/* description */ ('STEP AP242 Edition 2',
'CAx-IF Rec.Pracs.---Representation and Presentation of Product Manufa
cturing Information (PMI)---4.0---2014-10-13',
'CAx-IF Rec.Pracs.---3D Tessellated Geometry---0.4---2014-09-14','2;1',
'CAx-IF Rec.Pracs.---User Defined Attributes---1.5---2016-08-15'),
/* implementation_level */ '2;1');

FILE_NAME(
/* name */ 'Calibration Base (CubXL)_REV. 0',
/* time_stamp */ '2026-08-26T14:09:03Z',
/* author */ (''),
/* organization */ (''),
/* preprocessor_version */ 'ST-DEVELOPER v20',
/* originating_system */ 'ONSHAPE BY PTC INC, 1.219',
/* authorisation */ '  ');

FILE_SCHEMA (('AP242_MANAGED_MODEL_BASED_3D_ENGINEERING_MIM_LF { 1 0 10303 442 3 1 4 }'));
ENDSEC;

DATA;
#10=SHAPE_REPRESENTATION_RELATIONSHIP('','',#737,#11);
#11=ADVANCED_BREP_SHAPE_REPRESENTATION('',(#735),#1169);
#12=CYLINDRICAL_SURFACE('',#782,0.00305);
#13=CIRCLE('',#745,0.00305);
#14=CIRCLE('',#783,0.00305);
#15=ORIENTED_EDGE('',*,*,#203,.T.);
#16=ORIENTED_EDGE('',*,*,#204,.T.);
#17=ORIENTED_EDGE('',*,*,#205,.T.);
#18=ORIENTED_EDGE('',*,*,#206,.T.);
#19=ORIENTED_EDGE('',*,*,#207,.T.);
#20=ORIENTED_EDGE('',*,*,#208,.T.);
#21=ORIENTED_EDGE('',*,*,#209,.T.);
#22=ORIENTED_EDGE('',*,*,#210,.T.);
#23=ORIENTED_EDGE('',*,*,#211,.T.);
#24=ORIENTED_EDGE('',*,*,#212,.T.);
#25=ORIENTED_EDGE('',*,*,#213,.T.);
#26=ORIENTED_EDGE('',*,*,#214,.T.);
#27=ORIENTED_EDGE('',*,*,#215,.T.);
#28=ORIENTED_EDGE('',*,*,#216,.T.);
#29=ORIENTED_EDGE('',*,*,#217,.T.);
#30=ORIENTED_EDGE('',*,*,#218,.T.);
#31=ORIENTED_EDGE('',*,*,#219,.F.);
#32=ORIENTED_EDGE('',*,*,#220,.T.);
#33=ORIENTED_EDGE('',*,*,#221,.T.);
#34=ORIENTED_EDGE('',*,*,#222,.F.);
#35=ORIENTED_EDGE('',*,*,#223,.F.);
#36=ORIENTED_EDGE('',*,*,#224,.F.);
#37=ORIENTED_EDGE('',*,*,#219,.T.);
#38=ORIENTED_EDGE('',*,*,#225,.T.);
#39=ORIENTED_EDGE('',*,*,#226,.T.);
#40=ORIENTED_EDGE('',*,*,#227,.F.);
#41=ORIENTED_EDGE('',*,*,#220,.F.);
#42=ORIENTED_EDGE('',*,*,#224,.T.);
#43=ORIENTED_EDGE('',*,*,#228,.T.);
#44=ORIENTED_EDGE('',*,*,#229,.F.);
#45=ORIENTED_EDGE('',*,*,#221,.F.);
#46=ORIENTED_EDGE('',*,*,#227,.T.);
#47=ORIENTED_EDGE('',*,*,#230,.F.);
#48=ORIENTED_EDGE('',*,*,#225,.F.);
#49=ORIENTED_EDGE('',*,*,#222,.T.);
#50=ORIENTED_EDGE('',*,*,#229,.T.);
#51=ORIENTED_EDGE('',*,*,#231,.F.);
#52=ORIENTED_EDGE('',*,*,#223,.T.);
#53=ORIENTED_EDGE('',*,*,#230,.T.);
#54=ORIENTED_EDGE('',*,*,#228,.F.);
#55=ORIENTED_EDGE('',*,*,#226,.F.);
#56=ORIENTED_EDGE('',*,*,#232,.T.);
#57=ORIENTED_EDGE('',*,*,#233,.T.);
#58=ORIENTED_EDGE('',*,*,#234,.F.);
#59=ORIENTED_EDGE('',*,*,#235,.T.);
#60=ORIENTED_EDGE('',*,*,#234,.T.);
#61=ORIENTED_EDGE('',*,*,#236,.T.);
#62=ORIENTED_EDGE('',*,*,#237,.F.);
#63=ORIENTED_EDGE('',*,*,#238,.F.);
#64=ORIENTED_EDGE('',*,*,#237,.T.);
#65=ORIENTED_EDGE('',*,*,#239,.T.);
#66=ORIENTED_EDGE('',*,*,#240,.F.);
#67=ORIENTED_EDGE('',*,*,#241,.T.);
#68=ORIENTED_EDGE('',*,*,#240,.T.);
#69=ORIENTED_EDGE('',*,*,#242,.T.);
#70=ORIENTED_EDGE('',*,*,#232,.F.);
#71=ORIENTED_EDGE('',*,*,#243,.F.);
#72=ORIENTED_EDGE('',*,*,#235,.F.);
#73=ORIENTED_EDGE('',*,*,#238,.T.);
#74=ORIENTED_EDGE('',*,*,#241,.F.);
#75=ORIENTED_EDGE('',*,*,#243,.T.);
#76=ORIENTED_EDGE('',*,*,#244,.T.);
#77=ORIENTED_EDGE('',*,*,#245,.T.);
#78=ORIENTED_EDGE('',*,*,#246,.F.);
#79=ORIENTED_EDGE('',*,*,#247,.T.);
#80=ORIENTED_EDGE('',*,*,#246,.T.);
#81=ORIENTED_EDGE('',*,*,#248,.T.);
#82=ORIENTED_EDGE('',*,*,#249,.F.);
#83=ORIENTED_EDGE('',*,*,#250,.F.);
#84=ORIENTED_EDGE('',*,*,#249,.T.);
#85=ORIENTED_EDGE('',*,*,#251,.T.);
#86=ORIENTED_EDGE('',*,*,#252,.F.);
#87=ORIENTED_EDGE('',*,*,#253,.T.);
#88=ORIENTED_EDGE('',*,*,#252,.T.);
#89=ORIENTED_EDGE('',*,*,#254,.T.);
#90=ORIENTED_EDGE('',*,*,#244,.F.);
#91=ORIENTED_EDGE('',*,*,#255,.F.);
#92=ORIENTED_EDGE('',*,*,#247,.F.);
#93=ORIENTED_EDGE('',*,*,#250,.T.);
#94=ORIENTED_EDGE('',*,*,#253,.F.);
#95=ORIENTED_EDGE('',*,*,#255,.T.);
#96=ORIENTED_EDGE('',*,*,#256,.T.);
#97=ORIENTED_EDGE('',*,*,#257,.T.);
#98=ORIENTED_EDGE('',*,*,#258,.F.);
#99=ORIENTED_EDGE('',*,*,#259,.T.);
#100=ORIENTED_EDGE('',*,*,#258,.T.);
#101=ORIENTED_EDGE('',*,*,#260,.T.);
#102=ORIENTED_EDGE('',*,*,#261,.F.);
#103=ORIENTED_EDGE('',*,*,#262,.F.);
#104=ORIENTED_EDGE('',*,*,#261,.T.);
#105=ORIENTED_EDGE('',*,*,#263,.T.);
#106=ORIENTED_EDGE('',*,*,#264,.F.);
#107=ORIENTED_EDGE('',*,*,#265,.T.);
#108=ORIENTED_EDGE('',*,*,#264,.T.);
#109=ORIENTED_EDGE('',*,*,#266,.T.);
#110=ORIENTED_EDGE('',*,*,#256,.F.);
#111=ORIENTED_EDGE('',*,*,#267,.F.);
#112=ORIENTED_EDGE('',*,*,#259,.F.);
#113=ORIENTED_EDGE('',*,*,#262,.T.);
#114=ORIENTED_EDGE('',*,*,#265,.F.);
#115=ORIENTED_EDGE('',*,*,#267,.T.);
#116=ORIENTED_EDGE('',*,*,#268,.T.);
#117=ORIENTED_EDGE('',*,*,#269,.T.);
#118=ORIENTED_EDGE('',*,*,#270,.F.);
#119=ORIENTED_EDGE('',*,*,#271,.T.);
#120=ORIENTED_EDGE('',*,*,#270,.T.);
#121=ORIENTED_EDGE('',*,*,#272,.T.);
#122=ORIENTED_EDGE('',*,*,#273,.F.);
#123=ORIENTED_EDGE('',*,*,#274,.F.);
#124=ORIENTED_EDGE('',*,*,#273,.T.);
#125=ORIENTED_EDGE('',*,*,#275,.T.);
#126=ORIENTED_EDGE('',*,*,#276,.F.);
#127=ORIENTED_EDGE('',*,*,#277,.T.);
#128=ORIENTED_EDGE('',*,*,#276,.T.);
#129=ORIENTED_EDGE('',*,*,#278,.T.);
#130=ORIENTED_EDGE('',*,*,#268,.F.);
#131=ORIENTED_EDGE('',*,*,#279,.F.);
#132=ORIENTED_EDGE('',*,*,#271,.F.);
#133=ORIENTED_EDGE('',*,*,#274,.T.);
#134=ORIENTED_EDGE('',*,*,#277,.F.);
#135=ORIENTED_EDGE('',*,*,#279,.T.);
#136=ORIENTED_EDGE('',*,*,#280,.F.);
#137=ORIENTED_EDGE('',*,*,#206,.F.);
#138=ORIENTED_EDGE('',*,*,#281,.F.);
#139=ORIENTED_EDGE('',*,*,#254,.F.);
#140=ORIENTED_EDGE('',*,*,#281,.T.);
#141=ORIENTED_EDGE('',*,*,#205,.F.);
#142=ORIENTED_EDGE('',*,*,#282,.F.);
#143=ORIENTED_EDGE('',*,*,#245,.F.);
#144=ORIENTED_EDGE('',*,*,#280,.T.);
#145=ORIENTED_EDGE('',*,*,#251,.F.);
#146=ORIENTED_EDGE('',*,*,#283,.F.);
#147=ORIENTED_EDGE('',*,*,#203,.F.);
#148=ORIENTED_EDGE('',*,*,#282,.T.);
#149=ORIENTED_EDGE('',*,*,#204,.F.);
#150=ORIENTED_EDGE('',*,*,#283,.T.);
#151=ORIENTED_EDGE('',*,*,#248,.F.);
#152=ORIENTED_EDGE('',*,*,#284,.F.);
#153=ORIENTED_EDGE('',*,*,#263,.F.);
#154=ORIENTED_EDGE('',*,*,#285,.F.);
#155=ORIENTED_EDGE('',*,*,#210,.F.);
#156=ORIENTED_EDGE('',*,*,#285,.T.);
#157=ORIENTED_EDGE('',*,*,#260,.F.);
#158=ORIENTED_EDGE('',*,*,#286,.F.);
#159=ORIENTED_EDGE('',*,*,#207,.F.);
#160=ORIENTED_EDGE('',*,*,#284,.T.);
#161=ORIENTED_EDGE('',*,*,#209,.F.);
#162=ORIENTED_EDGE('',*,*,#287,.F.);
#163=ORIENTED_EDGE('',*,*,#266,.F.);
#164=ORIENTED_EDGE('',*,*,#286,.T.);
#165=ORIENTED_EDGE('',*,*,#257,.F.);
#166=ORIENTED_EDGE('',*,*,#287,.T.);
#167=ORIENTED_EDGE('',*,*,#208,.F.);
#168=ORIENTED_EDGE('',*,*,#288,.F.);
#169=ORIENTED_EDGE('',*,*,#214,.F.);
#170=ORIENTED_EDGE('',*,*,#289,.F.);
#171=ORIENTED_EDGE('',*,*,#272,.F.);
#172=ORIENTED_EDGE('',*,*,#289,.T.);
#173=ORIENTED_EDGE('',*,*,#213,.F.);
#174=ORIENTED_EDGE('',*,*,#290,.F.);
#175=ORIENTED_EDGE('',*,*,#275,.F.);
#176=ORIENTED_EDGE('',*,*,#288,.T.);
#177=ORIENTED_EDGE('',*,*,#269,.F.);
#178=ORIENTED_EDGE('',*,*,#291,.F.);
#179=ORIENTED_EDGE('',*,*,#211,.F.);
#180=ORIENTED_EDGE('',*,*,#290,.T.);
#181=ORIENTED_EDGE('',*,*,#212,.F.);
#182=ORIENTED_EDGE('',*,*,#291,.T.);
#183=ORIENTED_EDGE('',*,*,#278,.F.);
#184=ORIENTED_EDGE('',*,*,#292,.F.);
#185=ORIENTED_EDGE('',*,*,#233,.F.);
#186=ORIENTED_EDGE('',*,*,#293,.F.);
#187=ORIENTED_EDGE('',*,*,#218,.F.);
#188=ORIENTED_EDGE('',*,*,#293,.T.);
#189=ORIENTED_EDGE('',*,*,#242,.F.);
#190=ORIENTED_EDGE('',*,*,#294,.F.);
#191=ORIENTED_EDGE('',*,*,#215,.F.);
#192=ORIENTED_EDGE('',*,*,#292,.T.);
#193=ORIENTED_EDGE('',*,*,#217,.F.);
#194=ORIENTED_EDGE('',*,*,#295,.F.);
#195=ORIENTED_EDGE('',*,*,#236,.F.);
#196=ORIENTED_EDGE('',*,*,#294,.T.);
#197=ORIENTED_EDGE('',*,*,#239,.F.);
#198=ORIENTED_EDGE('',*,*,#295,.T.);
#199=ORIENTED_EDGE('',*,*,#216,.F.);
#200=ORIENTED_EDGE('',*,*,#296,.F.);
#201=ORIENTED_EDGE('',*,*,#231,.T.);
#202=ORIENTED_EDGE('',*,*,#296,.T.);
#203=EDGE_CURVE('',#297,#298,#355,.T.);
#204=EDGE_CURVE('',#298,#299,#356,.T.);
#205=EDGE_CURVE('',#299,#300,#357,.T.);
#206=EDGE_CURVE('',#300,#297,#358,.T.);
#207=EDGE_CURVE('',#301,#302,#359,.T.);
#208=EDGE_CURVE('',#302,#303,#360,.T.);
#209=EDGE_CURVE('',#303,#304,#361,.T.);
#210=EDGE_CURVE('',#304,#301,#362,.T.);
#211=EDGE_CURVE('',#305,#306,#363,.T.);
#212=EDGE_CURVE('',#306,#307,#364,.T.);
#213=EDGE_CURVE('',#307,#308,#365,.T.);
#214=EDGE_CURVE('',#308,#305,#366,.T.);
#215=EDGE_CURVE('',#309,#310,#367,.T.);
#216=EDGE_CURVE('',#310,#311,#368,.T.);
#217=EDGE_CURVE('',#311,#312,#369,.T.);
#218=EDGE_CURVE('',#312,#309,#370,.T.);
#219=EDGE_CURVE('',#313,#314,#371,.T.);
#220=EDGE_CURVE('',#313,#315,#372,.T.);
#221=EDGE_CURVE('',#315,#316,#373,.T.);
#222=EDGE_CURVE('',#314,#316,#374,.T.);
#223=EDGE_CURVE('',#317,#318,#375,.T.);
#224=EDGE_CURVE('',#313,#317,#376,.T.);
#225=EDGE_CURVE('',#314,#318,#377,.T.);
#226=EDGE_CURVE('',#317,#319,#378,.T.);
#227=EDGE_CURVE('',#315,#319,#379,.T.);
#228=EDGE_CURVE('',#319,#320,#380,.T.);
#229=EDGE_CURVE('',#316,#320,#381,.T.);
#230=EDGE_CURVE('',#318,#320,#382,.T.);
#231=EDGE_CURVE('',#321,#321,#13,.T.);
#232=EDGE_CURVE('',#322,#323,#383,.T.);
#233=EDGE_CURVE('',#323,#324,#384,.T.);
#234=EDGE_CURVE('',#325,#324,#385,.T.);
#235=EDGE_CURVE('',#325,#322,#386,.T.);
#236=EDGE_CURVE('',#324,#326,#387,.T.);
#237=EDGE_CURVE('',#327,#326,#388,.T.);
#238=EDGE_CURVE('',#325,#327,#389,.T.);
#239=EDGE_CURVE('',#326,#328,#390,.T.);
#240=EDGE_CURVE('',#329,#328,#391,.T.);
#241=EDGE_CURVE('',#329,#327,#392,.T.);
#242=EDGE_CURVE('',#328,#323,#393,.T.);
#243=EDGE_CURVE('',#329,#322,#394,.T.);
#244=EDGE_CURVE('',#330,#331,#395,.T.);
#245=EDGE_CURVE('',#331,#332,#396,.T.);
#246=EDGE_CURVE('',#333,#332,#397,.T.);
#247=EDGE_CURVE('',#333,#330,#398,.T.);
#248=EDGE_CURVE('',#332,#334,#399,.T.);
#249=EDGE_CURVE('',#335,#334,#400,.T.);
#250=EDGE_CURVE('',#333,#335,#401,.T.);
#251=EDGE_CURVE('',#334,#336,#402,.T.);
#252=EDGE_CURVE('',#337,#336,#403,.T.);
#253=EDGE_CURVE('',#337,#335,#404,.T.);
#254=EDGE_CURVE('',#336,#331,#405,.T.);
#255=EDGE_CURVE('',#337,#330,#406,.T.);
#256=EDGE_CURVE('',#338,#339,#407,.T.);
#257=EDGE_CURVE('',#339,#340,#408,.T.);
#258=EDGE_CURVE('',#341,#340,#409,.T.);
#259=EDGE_CURVE('',#341,#338,#410,.T.);
#260=EDGE_CURVE('',#340,#342,#411,.T.);
#261=EDGE_CURVE('',#343,#342,#412,.T.);
#262=EDGE_CURVE('',#341,#343,#413,.T.);
#263=EDGE_CURVE('',#342,#344,#414,.T.);
#264=EDGE_CURVE('',#345,#344,#415,.T.);
#265=EDGE_CURVE('',#345,#343,#416,.T.);
#266=EDGE_CURVE('',#344,#339,#417,.T.);
#267=EDGE_CURVE('',#345,#338,#418,.T.);
#268=EDGE_CURVE('',#346,#347,#419,.T.);
#269=EDGE_CURVE('',#347,#348,#420,.T.);
#270=EDGE_CURVE('',#349,#348,#421,.T.);
#271=EDGE_CURVE('',#349,#346,#422,.T.);
#272=EDGE_CURVE('',#348,#350,#423,.T.);
#273=EDGE_CURVE('',#351,#350,#424,.T.);
#274=EDGE_CURVE('',#349,#351,#425,.T.);
#275=EDGE_CURVE('',#350,#352,#426,.T.);
#276=EDGE_CURVE('',#353,#352,#427,.T.);
#277=EDGE_CURVE('',#353,#351,#428,.T.);
#278=EDGE_CURVE('',#352,#347,#429,.T.);
#279=EDGE_CURVE('',#353,#346,#430,.T.);
#280=EDGE_CURVE('',#297,#336,#431,.T.);
#281=EDGE_CURVE('',#331,#300,#432,.F.);
#282=EDGE_CURVE('',#332,#299,#433,.T.);
#283=EDGE_CURVE('',#298,#334,#434,.T.);
#284=EDGE_CURVE('',#344,#304,#435,.T.);
#285=EDGE_CURVE('',#301,#342,#436,.F.);
#286=EDGE_CURVE('',#302,#340,#437,.T.);
#287=EDGE_CURVE('',#339,#303,#438,.T.);
#288=EDGE_CURVE('',#305,#348,#439,.F.);
#289=EDGE_CURVE('',#350,#308,#440,.T.);
#290=EDGE_CURVE('',#352,#307,#441,.T.);
#291=EDGE_CURVE('',#306,#347,#442,.T.);
#292=EDGE_CURVE('',#324,#312,#443,.F.);
#293=EDGE_CURVE('',#309,#323,#444,.T.);
#294=EDGE_CURVE('',#310,#328,#445,.T.);
#295=EDGE_CURVE('',#326,#311,#446,.T.);
#296=EDGE_CURVE('',#354,#354,#14,.T.);
#297=VERTEX_POINT('',#974);
#298=VERTEX_POINT('',#975);
#299=VERTEX_POINT('',#977);
#300=VERTEX_POINT('',#979);
#301=VERTEX_POINT('',#982);
#302=VERTEX_POINT('',#983);
#303=VERTEX_POINT('',#985);
#304=VERTEX_POINT('',#987);
#305=VERTEX_POINT('',#990);
#306=VERTEX_POINT('',#991);
#307=VERTEX_POINT('',#993);
#308=VERTEX_POINT('',#995);
#309=VERTEX_POINT('',#998);
#310=VERTEX_POINT('',#999);
#311=VERTEX_POINT('',#1001);
#312=VERTEX_POINT('',#1003);
#313=VERTEX_POINT('',#1006);
#314=VERTEX_POINT('',#1007);
#315=VERTEX_POINT('',#1009);
#316=VERTEX_POINT('',#1011);
#317=VERTEX_POINT('',#1015);
#318=VERTEX_POINT('',#1016);
#319=VERTEX_POINT('',#1021);
#320=VERTEX_POINT('',#1025);
#321=VERTEX_POINT('',#1031);
#322=VERTEX_POINT('',#1034);
#323=VERTEX_POINT('',#1035);
#324=VERTEX_POINT('',#1037);
#325=VERTEX_POINT('',#1039);
#326=VERTEX_POINT('',#1043);
#327=VERTEX_POINT('',#1045);
#328=VERTEX_POINT('',#1049);
#329=VERTEX_POINT('',#1051);
#330=VERTEX_POINT('',#1059);
#331=VERTEX_POINT('',#1060);
#332=VERTEX_POINT('',#1062);
#333=VERTEX_POINT('',#1064);
#334=VERTEX_POINT('',#1068);
#335=VERTEX_POINT('',#1070);
#336=VERTEX_POINT('',#1074);
#337=VERTEX_POINT('',#1076);
#338=VERTEX_POINT('',#1084);
#339=VERTEX_POINT('',#1085);
#340=VERTEX_POINT('',#1087);
#341=VERTEX_POINT('',#1089);
#342=VERTEX_POINT('',#1093);
#343=VERTEX_POINT('',#1095);
#344=VERTEX_POINT('',#1099);
#345=VERTEX_POINT('',#1101);
#346=VERTEX_POINT('',#1109);
#347=VERTEX_POINT('',#1110);
#348=VERTEX_POINT('',#1112);
#349=VERTEX_POINT('',#1114);
#350=VERTEX_POINT('',#1118);
#351=VERTEX_POINT('',#1120);
#352=VERTEX_POINT('',#1124);
#353=VERTEX_POINT('',#1126);
#354=VERTEX_POINT('',#1166);
#355=LINE('',#973,#447);
#356=LINE('',#976,#448);
#357=LINE('',#978,#449);
#358=LINE('',#980,#450);
#359=LINE('',#981,#451);
#360=LINE('',#984,#452);
#361=LINE('',#986,#453);
#362=LINE('',#988,#454);
#363=LINE('',#989,#455);
#364=LINE('',#992,#456);
#365=LINE('',#994,#457);
#366=LINE('',#996,#458);
#367=LINE('',#997,#459);
#368=LINE('',#1000,#460);
#369=LINE('',#1002,#461);
#370=LINE('',#1004,#462);
#371=LINE('',#1005,#463);
#372=LINE('',#1008,#464);
#373=LINE('',#1010,#465);
#374=LINE('',#1012,#466);
#375=LINE('',#1014,#467);
#376=LINE('',#1017,#468);
#377=LINE('',#1018,#469);
#378=LINE('',#1020,#470);
#379=LINE('',#1022,#471);
#380=LINE('',#1024,#472);
#381=LINE('',#1026,#473);
#382=LINE('',#1028,#474);
#383=LINE('',#1033,#475);
#384=LINE('',#1036,#476);
#385=LINE('',#1038,#477);
#386=LINE('',#1040,#478);
#387=LINE('',#1042,#479);
#388=LINE('',#1044,#480);
#389=LINE('',#1046,#481);
#390=LINE('',#1048,#482);
#391=LINE('',#1050,#483);
#392=LINE('',#1052,#484);
#393=LINE('',#1054,#485);
#394=LINE('',#1055,#486);
#395=LINE('',#1058,#487);
#396=LINE('',#1061,#488);
#397=LINE('',#1063,#489);
#398=LINE('',#1065,#490);
#399=LINE('',#1067,#491);
#400=LINE('',#1069,#492);
#401=LINE('',#1071,#493);
#402=LINE('',#1073,#494);
#403=LINE('',#1075,#495);
#404=LINE('',#1077,#496);
#405=LINE('',#1079,#497);
#406=LINE('',#1080,#498);
#407=LINE('',#1083,#499);
#408=LINE('',#1086,#500);
#409=LINE('',#1088,#501);
#410=LINE('',#1090,#502);
#411=LINE('',#1092,#503);
#412=LINE('',#1094,#504);
#413=LINE('',#1096,#505);
#414=LINE('',#1098,#506);
#415=LINE('',#1100,#507);
#416=LINE('',#1102,#508);
#417=LINE('',#1104,#509);
#418=LINE('',#1105,#510);
#419=LINE('',#1108,#511);
#420=LINE('',#1111,#512);
#421=LINE('',#1113,#513);
#422=LINE('',#1115,#514);
#423=LINE('',#1117,#515);
#424=LINE('',#1119,#516);
#425=LINE('',#1121,#517);
#426=LINE('',#1123,#518);
#427=LINE('',#1125,#519);
#428=LINE('',#1127,#520);
#429=LINE('',#1129,#521);
#430=LINE('',#1130,#522);
#431=LINE('',#1133,#523);
#432=LINE('',#1134,#524);
#433=LINE('',#1136,#525);
#434=LINE('',#1138,#526);
#435=LINE('',#1141,#527);
#436=LINE('',#1142,#528);
#437=LINE('',#1144,#529);
#438=LINE('',#1146,#530);
#439=LINE('',#1149,#531);
#440=LINE('',#1150,#532);
#441=LINE('',#1152,#533);
#442=LINE('',#1154,#534);
#443=LINE('',#1157,#535);
#444=LINE('',#1158,#536);
#445=LINE('',#1160,#537);
#446=LINE('',#1162,#538);
#447=VECTOR('',#789,1.);
#448=VECTOR('',#790,1.);
#449=VECTOR('',#791,1.);
#450=VECTOR('',#792,1.);
#451=VECTOR('',#793,1.);
#452=VECTOR('',#794,1.);
#453=VECTOR('',#795,1.);
#454=VECTOR('',#796,1.);
#455=VECTOR('',#797,1.);
#456=VECTOR('',#798,1.);
#457=VECTOR('',#799,1.);
#458=VECTOR('',#800,1.);
#459=VECTOR('',#801,1.);
#460=VECTOR('',#802,1.);
#461=VECTOR('',#803,1.);
#462=VECTOR('',#804,1.);
#463=VECTOR('',#805,1.);
#464=VECTOR('',#806,1.);
#465=VECTOR('',#807,1.);
#466=VECTOR('',#808,1.);
#467=VECTOR('',#811,1.);
#468=VECTOR('',#812,1.);
#469=VECTOR('',#813,1.);
#470=VECTOR('',#816,1.);
#471=VECTOR('',#817,1.);
#472=VECTOR('',#820,1.);
#473=VECTOR('',#821,1.);
#474=VECTOR('',#824,1.);
#475=VECTOR('',#831,1.);
#476=VECTOR('',#832,1.);
#477=VECTOR('',#833,1.);
#478=VECTOR('',#834,1.);
#479=VECTOR('',#837,1.);
#480=VECTOR('',#838,1.);
#481=VECTOR('',#839,1.);
#482=VECTOR('',#842,1.);
#483=VECTOR('',#843,1.);
#484=VECTOR('',#844,1.);
#485=VECTOR('',#847,1.);
#486=VECTOR('',#848,1.);
#487=VECTOR('',#853,1.);
#488=VECTOR('',#854,1.);
#489=VECTOR('',#855,1.);
#490=VECTOR('',#856,1.);
#491=VECTOR('',#859,1.);
#492=VECTOR('',#860,1.);
#493=VECTOR('',#861,1.);
#494=VECTOR('',#864,1.);
#495=VECTOR('',#865,1.);
#496=VECTOR('',#866,1.);
#497=VECTOR('',#869,1.);
#498=VECTOR('',#870,1.);
#499=VECTOR('',#875,1.);
#500=VECTOR('',#876,1.);
#501=VECTOR('',#877,1.);
#502=VECTOR('',#878,1.);
#503=VECTOR('',#881,1.);
#504=VECTOR('',#882,1.);
#505=VECTOR('',#883,1.);
#506=VECTOR('',#886,1.);
#507=VECTOR('',#887,1.);
#508=VECTOR('',#888,1.);
#509=VECTOR('',#891,1.);
#510=VECTOR('',#892,1.);
#511=VECTOR('',#897,1.);
#512=VECTOR('',#898,1.);
#513=VECTOR('',#899,1.);
#514=VECTOR('',#900,1.);
#515=VECTOR('',#903,1.);
#516=VECTOR('',#904,1.);
#517=VECTOR('',#905,1.);
#518=VECTOR('',#908,1.);
#519=VECTOR('',#909,1.);
#520=VECTOR('',#910,1.);
#521=VECTOR('',#913,1.);
#522=VECTOR('',#914,1.);
#523=VECTOR('',#919,1.);
#524=VECTOR('',#920,1.);
#525=VECTOR('',#923,1.);
#526=VECTOR('',#926,1.);
#527=VECTOR('',#931,1.);
#528=VECTOR('',#932,1.);
#529=VECTOR('',#935,1.);
#530=VECTOR('',#938,1.);
#531=VECTOR('',#943,1.);
#532=VECTOR('',#944,1.);
#533=VECTOR('',#947,1.);
#534=VECTOR('',#950,1.);
#535=VECTOR('',#955,1.);
#536=VECTOR('',#956,1.);
#537=VECTOR('',#959,1.);
#538=VECTOR('',#962,1.);
#539=EDGE_LOOP('',(#15,#16,#17,#18));
#540=EDGE_LOOP('',(#19,#20,#21,#22));
#541=EDGE_LOOP('',(#23,#24,#25,#26));
#542=EDGE_LOOP('',(#27,#28,#29,#30));
#543=EDGE_LOOP('',(#31,#32,#33,#34));
#544=EDGE_LOOP('',(#35,#36,#37,#38));
#545=EDGE_LOOP('',(#39,#40,#41,#42));
#546=EDGE_LOOP('',(#43,#44,#45,#46));
#547=EDGE_LOOP('',(#47,#48,#49,#50));
#548=EDGE_LOOP('',(#51));
#549=EDGE_LOOP('',(#52,#53,#54,#55));
#550=EDGE_LOOP('',(#56,#57,#58,#59));
#551=EDGE_LOOP('',(#60,#61,#62,#63));
#552=EDGE_LOOP('',(#64,#65,#66,#67));
#553=EDGE_LOOP('',(#68,#69,#70,#71));
#554=EDGE_LOOP('',(#72,#73,#74,#75));
#555=EDGE_LOOP('',(#76,#77,#78,#79));
#556=EDGE_LOOP('',(#80,#81,#82,#83));
#557=EDGE_LOOP('',(#84,#85,#86,#87));
#558=EDGE_LOOP('',(#88,#89,#90,#91));
#559=EDGE_LOOP('',(#92,#93,#94,#95));
#560=EDGE_LOOP('',(#96,#97,#98,#99));
#561=EDGE_LOOP('',(#100,#101,#102,#103));
#562=EDGE_LOOP('',(#104,#105,#106,#107));
#563=EDGE_LOOP('',(#108,#109,#110,#111));
#564=EDGE_LOOP('',(#112,#113,#114,#115));
#565=EDGE_LOOP('',(#116,#117,#118,#119));
#566=EDGE_LOOP('',(#120,#121,#122,#123));
#567=EDGE_LOOP('',(#124,#125,#126,#127));
#568=EDGE_LOOP('',(#128,#129,#130,#131));
#569=EDGE_LOOP('',(#132,#133,#134,#135));
#570=EDGE_LOOP('',(#136,#137,#138,#139));
#571=EDGE_LOOP('',(#140,#141,#142,#143));
#572=EDGE_LOOP('',(#144,#145,#146,#147));
#573=EDGE_LOOP('',(#148,#149,#150,#151));
#574=EDGE_LOOP('',(#152,#153,#154,#155));
#575=EDGE_LOOP('',(#156,#157,#158,#159));
#576=EDGE_LOOP('',(#160,#161,#162,#163));
#577=EDGE_LOOP('',(#164,#165,#166,#167));
#578=EDGE_LOOP('',(#168,#169,#170,#171));
#579=EDGE_LOOP('',(#172,#173,#174,#175));
#580=EDGE_LOOP('',(#176,#177,#178,#179));
#581=EDGE_LOOP('',(#180,#181,#182,#183));
#582=EDGE_LOOP('',(#184,#185,#186,#187));
#583=EDGE_LOOP('',(#188,#189,#190,#191));
#584=EDGE_LOOP('',(#192,#193,#194,#195));
#585=EDGE_LOOP('',(#196,#197,#198,#199));
#586=EDGE_LOOP('',(#200));
#587=EDGE_LOOP('',(#201));
#588=EDGE_LOOP('',(#202));
#589=FACE_BOUND('',#539,.T.);
#590=FACE_BOUND('',#540,.T.);
#591=FACE_BOUND('',#541,.T.);
#592=FACE_BOUND('',#542,.T.);
#593=FACE_BOUND('',#543,.T.);
#594=FACE_BOUND('',#544,.T.);
#595=FACE_BOUND('',#545,.T.);
#596=FACE_BOUND('',#546,.T.);
#597=FACE_BOUND('',#547,.T.);
#598=FACE_BOUND('',#548,.T.);
#599=FACE_BOUND('',#549,.T.);
#600=FACE_BOUND('',#550,.T.);
#601=FACE_BOUND('',#551,.T.);
#602=FACE_BOUND('',#552,.T.);
#603=FACE_BOUND('',#553,.T.);
#604=FACE_BOUND('',#554,.T.);
#605=FACE_BOUND('',#555,.T.);
#606=FACE_BOUND('',#556,.T.);
#607=FACE_BOUND('',#557,.T.);
#608=FACE_BOUND('',#558,.T.);
#609=FACE_BOUND('',#559,.T.);
#610=FACE_BOUND('',#560,.T.);
#611=FACE_BOUND('',#561,.T.);
#612=FACE_BOUND('',#562,.T.);
#613=FACE_BOUND('',#563,.T.);
#614=FACE_BOUND('',#564,.T.);
#615=FACE_BOUND('',#565,.T.);
#616=FACE_BOUND('',#566,.T.);
#617=FACE_BOUND('',#567,.T.);
#618=FACE_BOUND('',#568,.T.);
#619=FACE_BOUND('',#569,.T.);
#620=FACE_BOUND('',#570,.T.);
#621=FACE_BOUND('',#571,.T.);
#622=FACE_BOUND('',#572,.T.);
#623=FACE_BOUND('',#573,.T.);
#624=FACE_BOUND('',#574,.T.);
#625=FACE_BOUND('',#575,.T.);
#626=FACE_BOUND('',#576,.T.);
#627=FACE_BOUND('',#577,.T.);
#628=FACE_BOUND('',#578,.T.);
#629=FACE_BOUND('',#579,.T.);
#630=FACE_BOUND('',#580,.T.);
#631=FACE_BOUND('',#581,.T.);
#632=FACE_BOUND('',#582,.T.);
#633=FACE_BOUND('',#583,.T.);
#634=FACE_BOUND('',#584,.T.);
#635=FACE_BOUND('',#585,.T.);
#636=FACE_BOUND('',#586,.T.);
#637=FACE_BOUND('',#587,.T.);
#638=FACE_BOUND('',#588,.T.);
#639=PLANE('',#739);
#640=PLANE('',#740);
#641=PLANE('',#741);
#642=PLANE('',#742);
#643=PLANE('',#743);
#644=PLANE('',#744);
#645=PLANE('',#746);
#646=PLANE('',#747);
#647=PLANE('',#748);
#648=PLANE('',#749);
#649=PLANE('',#750);
#650=PLANE('',#751);
#651=PLANE('',#752);
#652=PLANE('',#753);
#653=PLANE('',#754);
#654=PLANE('',#755);
#655=PLANE('',#756);
#656=PLANE('',#757);
#657=PLANE('',#758);
#658=PLANE('',#759);
#659=PLANE('',#760);
#660=PLANE('',#761);
#661=PLANE('',#762);
#662=PLANE('',#763);
#663=PLANE('',#764);
#664=PLANE('',#765);
#665=PLANE('',#766);
#666=PLANE('',#767);
#667=PLANE('',#768);
#668=PLANE('',#769);
#669=PLANE('',#770);
#670=PLANE('',#771);
#671=PLANE('',#772);
#672=PLANE('',#773);
#673=PLANE('',#774);
#674=PLANE('',#775);
#675=PLANE('',#776);
#676=PLANE('',#777);
#677=PLANE('',#778);
#678=PLANE('',#779);
#679=PLANE('',#780);
#680=PLANE('',#781);
#681=PLANE('',#784);
#682=ADVANCED_FACE('',(#589,#590,#591,#592,#593),#639,.T.);
#683=ADVANCED_FACE('',(#594),#640,.T.);
#684=ADVANCED_FACE('',(#595),#641,.F.);
#685=ADVANCED_FACE('',(#596),#642,.F.);
#686=ADVANCED_FACE('',(#597),#643,.T.);
#687=ADVANCED_FACE('',(#598,#599),#644,.F.);
#688=ADVANCED_FACE('',(#600),#645,.T.);
#689=ADVANCED_FACE('',(#601),#646,.F.);
#690=ADVANCED_FACE('',(#602),#647,.T.);
#691=ADVANCED_FACE('',(#603),#648,.F.);
#692=ADVANCED_FACE('',(#604),#649,.T.);
#693=ADVANCED_FACE('',(#605),#650,.T.);
#694=ADVANCED_FACE('',(#606),#651,.F.);
#695=ADVANCED_FACE('',(#607),#652,.T.);
#696=ADVANCED_FACE('',(#608),#653,.F.);
#697=ADVANCED_FACE('',(#609),#654,.T.);
#698=ADVANCED_FACE('',(#610),#655,.T.);
#699=ADVANCED_FACE('',(#611),#656,.F.);
#700=ADVANCED_FACE('',(#612),#657,.T.);
#701=ADVANCED_FACE('',(#613),#658,.F.);
#702=ADVANCED_FACE('',(#614),#659,.T.);
#703=ADVANCED_FACE('',(#615),#660,.T.);
#704=ADVANCED_FACE('',(#616),#661,.F.);
#705=ADVANCED_FACE('',(#617),#662,.T.);
#706=ADVANCED_FACE('',(#618),#663,.F.);
#707=ADVANCED_FACE('',(#619),#664,.T.);
#708=ADVANCED_FACE('',(#620),#665,.T.);
#709=ADVANCED_FACE('',(#621),#666,.F.);
#710=ADVANCED_FACE('',(#622),#667,.F.);
#711=ADVANCED_FACE('',(#623),#668,.T.);
#712=ADVANCED_FACE('',(#624),#669,.F.);
#713=ADVANCED_FACE('',(#625),#670,.T.);
#714=ADVANCED_FACE('',(#626),#671,.T.);
#715=ADVANCED_FACE('',(#627),#672,.F.);
#716=ADVANCED_FACE('',(#628),#673,.T.);
#717=ADVANCED_FACE('',(#629),#674,.F.);
#718=ADVANCED_FACE('',(#630),#675,.F.);
#719=ADVANCED_FACE('',(#631),#676,.T.);
#720=ADVANCED_FACE('',(#632),#677,.F.);
#721=ADVANCED_FACE('',(#633),#678,.T.);
#722=ADVANCED_FACE('',(#634),#679,.T.);
#723=ADVANCED_FACE('',(#635),#680,.F.);
#724=ADVANCED_FACE('',(#636,#637),#12,.T.);
#725=ADVANCED_FACE('',(#638),#681,.T.);
#726=CLOSED_SHELL('',(#682,#683,#684,#685,#686,#687,#688,#689,#690,#691,
#692,#693,#694,#695,#696,#697,#698,#699,#700,#701,#702,#703,#704,#705,#706,
#707,#708,#709,#710,#711,#712,#713,#714,#715,#716,#717,#718,#719,#720,#721,
#722,#723,#724,#725));
#727=STYLED_ITEM('',(#728),#735);
#728=PRESENTATION_STYLE_ASSIGNMENT((#729));
#729=SURFACE_STYLE_USAGE(.BOTH.,#730);
#730=SURFACE_SIDE_STYLE('',(#731));
#731=SURFACE_STYLE_FILL_AREA(#732);
#732=FILL_AREA_STYLE('',(#733));
#733=FILL_AREA_STYLE_COLOUR('',#734);
#734=COLOUR_RGB('',0.615686274509804,0.811764705882353,0.929411764705882);
#735=MANIFOLD_SOLID_BREP('Part 1',#726);
#736=SHAPE_DEFINITION_REPRESENTATION(#1174,#737);
#737=SHAPE_REPRESENTATION('Part 1',(#738),#1169);
#738=AXIS2_PLACEMENT_3D('',#971,#785,#786);
#739=AXIS2_PLACEMENT_3D('',#972,#787,#788);
#740=AXIS2_PLACEMENT_3D('',#1013,#809,#810);
#741=AXIS2_PLACEMENT_3D('',#1019,#814,#815);
#742=AXIS2_PLACEMENT_3D('',#1023,#818,#819);
#743=AXIS2_PLACEMENT_3D('',#1027,#822,#823);
#744=AXIS2_PLACEMENT_3D('',#1029,#825,#826);
#745=AXIS2_PLACEMENT_3D('',#1030,#827,#828);
#746=AXIS2_PLACEMENT_3D('',#1032,#829,#830);
#747=AXIS2_PLACEMENT_3D('',#1041,#835,#836);
#748=AXIS2_PLACEMENT_3D('',#1047,#840,#841);
#749=AXIS2_PLACEMENT_3D('',#1053,#845,#846);
#750=AXIS2_PLACEMENT_3D('',#1056,#849,#850);
#751=AXIS2_PLACEMENT_3D('',#1057,#851,#852);
#752=AXIS2_PLACEMENT_3D('',#1066,#857,#858);
#753=AXIS2_PLACEMENT_3D('',#1072,#862,#863);
#754=AXIS2_PLACEMENT_3D('',#1078,#867,#868);
#755=AXIS2_PLACEMENT_3D('',#1081,#871,#872);
#756=AXIS2_PLACEMENT_3D('',#1082,#873,#874);
#757=AXIS2_PLACEMENT_3D('',#1091,#879,#880);
#758=AXIS2_PLACEMENT_3D('',#1097,#884,#885);
#759=AXIS2_PLACEMENT_3D('',#1103,#889,#890);
#760=AXIS2_PLACEMENT_3D('',#1106,#893,#894);
#761=AXIS2_PLACEMENT_3D('',#1107,#895,#896);
#762=AXIS2_PLACEMENT_3D('',#1116,#901,#902);
#763=AXIS2_PLACEMENT_3D('',#1122,#906,#907);
#764=AXIS2_PLACEMENT_3D('',#1128,#911,#912);
#765=AXIS2_PLACEMENT_3D('',#1131,#915,#916);
#766=AXIS2_PLACEMENT_3D('',#1132,#917,#918);
#767=AXIS2_PLACEMENT_3D('',#1135,#921,#922);
#768=AXIS2_PLACEMENT_3D('',#1137,#924,#925);
#769=AXIS2_PLACEMENT_3D('',#1139,#927,#928);
#770=AXIS2_PLACEMENT_3D('',#1140,#929,#930);
#771=AXIS2_PLACEMENT_3D('',#1143,#933,#934);
#772=AXIS2_PLACEMENT_3D('',#1145,#936,#937);
#773=AXIS2_PLACEMENT_3D('',#1147,#939,#940);
#774=AXIS2_PLACEMENT_3D('',#1148,#941,#942);
#775=AXIS2_PLACEMENT_3D('',#1151,#945,#946);
#776=AXIS2_PLACEMENT_3D('',#1153,#948,#949);
#777=AXIS2_PLACEMENT_3D('',#1155,#951,#952);
#778=AXIS2_PLACEMENT_3D('',#1156,#953,#954);
#779=AXIS2_PLACEMENT_3D('',#1159,#957,#958);
#780=AXIS2_PLACEMENT_3D('',#1161,#960,#961);
#781=AXIS2_PLACEMENT_3D('',#1163,#963,#964);
#782=AXIS2_PLACEMENT_3D('',#1164,#965,#966);
#783=AXIS2_PLACEMENT_3D('',#1165,#967,#968);
#784=AXIS2_PLACEMENT_3D('',#1167,#969,#970);
#785=DIRECTION('',(0.,0.,1.));
#786=DIRECTION('',(1.,0.,0.));
#787=DIRECTION('',(0.,1.,0.));
#788=DIRECTION('',(1.,0.,0.));
#789=DIRECTION('',(0.447213595499957,0.,-0.894427190999917));
#790=DIRECTION('',(0.447213595499956,0.,0.894427190999917));
#791=DIRECTION('',(-0.447213595499957,0.,0.894427190999917));
#792=DIRECTION('',(-0.447213595499956,0.,-0.894427190999917));
#793=DIRECTION('',(-0.447213595499957,0.,-0.894427190999917));
#794=DIRECTION('',(0.447213595499957,0.,-0.894427190999917));
#795=DIRECTION('',(0.447213595499957,0.,0.894427190999917));
#796=DIRECTION('',(-0.447213595499957,0.,0.894427190999917));
#797=DIRECTION('',(-0.447213595499956,0.,0.894427190999917));
#798=DIRECTION('',(-0.447213595499957,0.,-0.894427190999917));
#799=DIRECTION('',(0.447213595499956,0.,-0.894427190999917));
#800=DIRECTION('',(0.447213595499957,0.,0.894427190999917));
#801=DIRECTION('',(0.447213595499956,0.,0.894427190999917));
#802=DIRECTION('',(-0.447213595499956,0.,0.894427190999917));
#803=DIRECTION('',(-0.447213595499956,0.,-0.894427190999917));
#804=DIRECTION('',(0.447213595499956,0.,-0.894427190999917));
#805=DIRECTION('',(0.,0.,-1.));
#806=DIRECTION('',(1.,0.,0.));
#807=DIRECTION('',(0.,0.,-1.));
#808=DIRECTION('',(1.,0.,0.));
#809=DIRECTION('',(-1.,0.,0.));
#810=DIRECTION('',(0.,1.,0.));
#811=DIRECTION('',(0.,0.,-1.));
#812=DIRECTION('',(0.,-1.,0.));
#813=DIRECTION('',(0.,-1.,0.));
#814=DIRECTION('',(0.,0.,-1.));
#815=DIRECTION('',(0.,1.,0.));
#816=DIRECTION('',(1.,0.,0.));
#817=DIRECTION('',(0.,-1.,0.));
#818=DIRECTION('',(-1.,0.,0.));
#819=DIRECTION('',(0.,1.,0.));
#820=DIRECTION('',(0.,0.,-1.));
#821=DIRECTION('',(0.,-1.,0.));
#822=DIRECTION('',(0.,0.,-1.));
#823=DIRECTION('',(0.,1.,0.));
#824=DIRECTION('',(1.,0.,0.));
#825=DIRECTION('',(0.,1.,0.));
#826=DIRECTION('',(1.,0.,0.));
#827=DIRECTION('',(0.,-1.,0.));
#828=DIRECTION('',(-1.,0.,0.));
#829=DIRECTION('',(0.894427190999917,0.,0.447213595499956));
#830=DIRECTION('',(0.447213595499956,0.,-0.894427190999917));
#831=DIRECTION('',(0.,1.,0.));
#832=DIRECTION('',(-0.447213595499956,0.,0.894427190999917));
#833=DIRECTION('',(0.,1.,0.));
#834=DIRECTION('',(0.447213595499956,0.,-0.894427190999917));
#835=DIRECTION('',(-0.894427190999917,0.,0.447213595499956));
#836=DIRECTION('',(0.447213595499956,0.,0.894427190999917));
#837=DIRECTION('',(0.447213595499956,0.,0.894427190999917));
#838=DIRECTION('',(0.,1.,0.));
#839=DIRECTION('',(0.447213595499956,0.,0.894427190999917));
#840=DIRECTION('',(-0.894427190999917,0.,-0.447213595499956));
#841=DIRECTION('',(-0.447213595499956,0.,0.894427190999917));
#842=DIRECTION('',(0.447213595499956,0.,-0.894427190999917));
#843=DIRECTION('',(0.,1.,0.));
#844=DIRECTION('',(-0.447213595499956,0.,0.894427190999917));
#845=DIRECTION('',(0.894427190999917,0.,-0.447213595499956));
#846=DIRECTION('',(-0.447213595499956,0.,-0.894427190999917));
#847=DIRECTION('',(-0.447213595499956,0.,-0.894427190999917));
#848=DIRECTION('',(-0.447213595499956,0.,-0.894427190999917));
#849=DIRECTION('',(0.,1.,0.));
#850=DIRECTION('',(1.,0.,0.));
#851=DIRECTION('',(-0.894427190999917,0.,-0.447213595499957));
#852=DIRECTION('',(-0.447213595499957,0.,0.894427190999917));
#853=DIRECTION('',(0.,1.,0.));
#854=DIRECTION('',(0.447213595499957,0.,-0.894427190999917));
#855=DIRECTION('',(0.,1.,0.));
#856=DIRECTION('',(-0.447213595499957,0.,0.894427190999917));
#857=DIRECTION('',(0.894427190999917,0.,-0.447213595499956));
#858=DIRECTION('',(-0.447213595499956,0.,-0.894427190999917));
#859=DIRECTION('',(-0.447213595499956,0.,-0.894427190999917));
#860=DIRECTION('',(0.,1.,0.));
#861=DIRECTION('',(-0.447213595499956,0.,-0.894427190999917));
#862=DIRECTION('',(0.894427190999917,0.,0.447213595499957));
#863=DIRECTION('',(0.447213595499957,0.,-0.894427190999917));
#864=DIRECTION('',(-0.447213595499957,0.,0.894427190999917));
#865=DIRECTION('',(0.,1.,0.));
#866=DIRECTION('',(0.447213595499957,0.,-0.894427190999917));
#867=DIRECTION('',(-0.894427190999917,0.,0.447213595499956));
#868=DIRECTION('',(0.447213595499956,0.,0.894427190999917));
#869=DIRECTION('',(0.447213595499956,0.,0.894427190999917));
#870=DIRECTION('',(0.447213595499956,0.,0.894427190999917));
#871=DIRECTION('',(0.,1.,0.));
#872=DIRECTION('',(1.,0.,0.));
#873=DIRECTION('',(0.894427190999917,0.,0.447213595499957));
#874=DIRECTION('',(0.447213595499957,0.,-0.894427190999917));
#875=DIRECTION('',(0.,1.,0.));
#876=DIRECTION('',(-0.447213595499957,0.,0.894427190999917));
#877=DIRECTION('',(0.,1.,0.));
#878=DIRECTION('',(0.447213595499957,0.,-0.894427190999917));
#879=DIRECTION('',(-0.894427190999917,0.,0.447213595499957));
#880=DIRECTION('',(0.447213595499957,0.,0.894427190999917));
#881=DIRECTION('',(0.447213595499957,0.,0.894427190999917));
#882=DIRECTION('',(0.,1.,0.));
#883=DIRECTION('',(0.447213595499957,0.,0.894427190999917));
#884=DIRECTION('',(-0.894427190999917,0.,-0.447213595499957));
#885=DIRECTION('',(-0.447213595499957,0.,0.894427190999917));
#886=DIRECTION('',(0.447213595499957,0.,-0.894427190999917));
#887=DIRECTION('',(0.,1.,0.));
#888=DIRECTION('',(-0.447213595499957,0.,0.894427190999917));
#889=DIRECTION('',(0.894427190999917,0.,-0.447213595499957));
#890=DIRECTION('',(-0.447213595499957,0.,-0.894427190999917));
#891=DIRECTION('',(-0.447213595499957,0.,-0.894427190999917));
#892=DIRECTION('',(-0.447213595499957,0.,-0.894427190999917));
#893=DIRECTION('',(0.,1.,0.));
#894=DIRECTION('',(1.,0.,0.));
#895=DIRECTION('',(-0.894427190999917,0.,-0.447213595499956));
#896=DIRECTION('',(-0.447213595499956,0.,0.894427190999917));
#897=DIRECTION('',(0.,1.,0.));
#898=DIRECTION('',(0.447213595499956,0.,-0.894427190999917));
#899=DIRECTION('',(0.,1.,0.));
#900=DIRECTION('',(-0.447213595499956,0.,0.894427190999917));
#901=DIRECTION('',(0.894427190999917,0.,-0.447213595499957));
#902=DIRECTION('',(-0.447213595499957,0.,-0.894427190999917));
#903=DIRECTION('',(-0.447213595499957,0.,-0.894427190999917));
#904=DIRECTION('',(0.,1.,0.));
#905=DIRECTION('',(-0.447213595499957,0.,-0.894427190999917));
#906=DIRECTION('',(0.894427190999917,0.,0.447213595499956));
#907=DIRECTION('',(0.447213595499956,0.,-0.894427190999917));
#908=DIRECTION('',(-0.447213595499956,0.,0.894427190999917));
#909=DIRECTION('',(0.,1.,0.));
#910=DIRECTION('',(0.447213595499956,0.,-0.894427190999917));
#911=DIRECTION('',(-0.894427190999917,0.,0.447213595499957));
#912=DIRECTION('',(0.447213595499957,0.,0.894427190999917));
#913=DIRECTION('',(0.447213595499957,0.,0.894427190999917));
#914=DIRECTION('',(0.447213595499957,0.,0.894427190999917));
#915=DIRECTION('',(0.,1.,0.));
#916=DIRECTION('',(1.,0.,0.));
#917=DIRECTION('',(0.632455532033676,0.707106781186548,-0.316227766016836));
#918=DIRECTION('',(-0.447213595499956,0.,-0.894427190999917));
#919=DIRECTION('',(0.74535599249993,-0.666666666666667,-1.90888559885154E-15));
#920=DIRECTION('',(9.27316841112039E-16,-0.408248290463862,-0.912870929175277));
#921=DIRECTION('',(0.632455532033677,-0.707106781186547,0.316227766016837));
#922=DIRECTION('',(-0.447213595499957,0.,0.894427190999917));
#923=DIRECTION('',(0.74535599249993,0.666666666666667,-3.48644929907487E-15));
#924=DIRECTION('',(-0.632455532033677,-0.707106781186547,-0.316227766016837));
#925=DIRECTION('',(0.447213595499957,0.,-0.894427190999917));
#926=DIRECTION('',(-1.21810037681151E-15,-0.408248290463862,0.912870929175278));
#927=DIRECTION('',(-0.632455532033676,0.707106781186549,0.316227766016836));
#928=DIRECTION('',(0.447213595499956,0.,0.894427190999917));
#929=DIRECTION('',(0.632455532033675,-0.707106781186549,0.316227766016836));
#930=DIRECTION('',(-0.447213595499957,0.,0.894427190999917));
#931=DIRECTION('',(0.745355992499931,0.666666666666666,7.40148683083441E-16));
#932=DIRECTION('',(8.70661009632435E-16,0.408248290463862,0.912870929175277));
#933=DIRECTION('',(0.632455532033677,0.707106781186547,-0.316227766016837));
#934=DIRECTION('',(-0.447213595499957,0.,-0.894427190999917));
#935=DIRECTION('',(0.74535599249993,-0.666666666666667,3.7007434154172E-16));
#936=DIRECTION('',(-0.632455532033676,0.707106781186549,0.316227766016836));
#937=DIRECTION('',(0.447213595499957,0.,0.894427190999917));
#938=DIRECTION('',(5.66558314796049E-16,0.408248290463862,-0.912870929175278));
#939=DIRECTION('',(-0.632455532033676,-0.707106781186548,-0.316227766016837));
#940=DIRECTION('',(0.447213595499957,0.,-0.894427190999917));
#941=DIRECTION('',(-0.632455532033675,0.70710678118655,0.316227766016836));
#942=DIRECTION('',(0.447213595499957,0.,0.894427190999917));
#943=DIRECTION('',(0.74535599249993,0.666666666666667,-6.85112306719284E-15));
#944=DIRECTION('',(7.08197893495062E-16,0.408248290463861,-0.912870929175278));
#945=DIRECTION('',(-0.632455532033676,-0.707106781186548,-0.316227766016836));
#946=DIRECTION('',(0.447213595499956,0.,-0.894427190999917));
#947=DIRECTION('',(-0.745355992499929,0.666666666666668,-4.34837351311521E-15));
#948=DIRECTION('',(0.632455532033678,-0.707106781186546,0.316227766016837));
#949=DIRECTION('',(-0.447213595499956,0.,0.894427190999917));
#950=DIRECTION('',(-3.39934988877629E-16,-0.408248290463863,-0.912870929175277));
#951=DIRECTION('',(0.632455532033678,0.707106781186546,-0.316227766016837));
#952=DIRECTION('',(-0.447213595499957,0.,-0.894427190999917));
#953=DIRECTION('',(-0.632455532033678,-0.707106781186546,-0.316227766016837));
#954=DIRECTION('',(0.447213595499956,0.,-0.894427190999917));
#955=DIRECTION('',(0.745355992499929,-0.666666666666668,-3.7007434154172E-15));
#956=DIRECTION('',(1.18226808277026E-15,-0.408248290463865,0.912870929175276));
#957=DIRECTION('',(-0.63245553203368,0.707106781186544,0.316227766016838));
#958=DIRECTION('',(0.447213595499956,0.,0.894427190999917));
#959=DIRECTION('',(-0.745355992499927,-0.66666666666667,-4.49940598964357E-15));
#960=DIRECTION('',(0.632455532033677,0.707106781186548,-0.316227766016836));
#961=DIRECTION('',(-0.447213595499956,0.,-0.894427190999917));
#962=DIRECTION('',(-9.27316841112039E-16,0.408248290463863,0.912870929175277));
#963=DIRECTION('',(0.632455532033678,-0.707106781186546,0.316227766016837));
#964=DIRECTION('',(-0.447213595499956,0.,0.894427190999917));
#965=DIRECTION('',(0.,1.,0.));
#966=DIRECTION('',(1.,0.,0.));
#967=DIRECTION('',(0.,-1.,0.));
#968=DIRECTION('',(-1.,0.,0.));
#969=DIRECTION('',(0.,-1.,0.));
#970=DIRECTION('',(1.,0.,0.));
#971=CARTESIAN_POINT('',(0.,0.,0.));
#972=CARTESIAN_POINT('',(0.025,0.015,-0.025));
#973=CARTESIAN_POINT('',(0.00715278640450004,0.015,-0.0339236067977499));
#974=CARTESIAN_POINT('',(0.00894098300562507,0.015,-0.0375));
#975=CARTESIAN_POINT('',(0.0125,0.015,-0.0446180339887499));
#976=CARTESIAN_POINT('',(0.0159472135954999,0.015,-0.03772360679775));
#977=CARTESIAN_POINT('',(0.0160590169943749,0.015,-0.0375));
#978=CARTESIAN_POINT('',(0.0128472135954999,0.015,-0.03107639320225));
#979=CARTESIAN_POINT('',(0.0125,0.015,-0.0303819660112501));
#980=CARTESIAN_POINT('',(0.00905278640450005,0.015,-0.03727639320225));
#981=CARTESIAN_POINT('',(0.0340527864045001,0.015,-0.03727639320225));
#982=CARTESIAN_POINT('',(0.0375,0.015,-0.0303819660112501));
#983=CARTESIAN_POINT('',(0.033940983005625,0.015,-0.0375));
#984=CARTESIAN_POINT('',(0.0271527864045001,0.015,-0.0239236067977499));
#985=CARTESIAN_POINT('',(0.0375,0.015,-0.0446180339887499));
#986=CARTESIAN_POINT('',(0.0409472135955,0.015,-0.03772360679775));
#987=CARTESIAN_POINT('',(0.041059016994375,0.015,-0.0375));
#988=CARTESIAN_POINT('',(0.0328472135955,0.015,-0.0210763932022501));
#989=CARTESIAN_POINT('',(0.0228472135955,0.015,-0.02607639320225));
#990=CARTESIAN_POINT('',(0.0160590169943749,0.015,-0.0125));
#991=CARTESIAN_POINT('',(0.0125,0.015,-0.00538196601125009));
#992=CARTESIAN_POINT('',(0.00905278640450006,0.015,-0.01227639320225));
#993=CARTESIAN_POINT('',(0.00894098300562507,0.015,-0.0125));
#994=CARTESIAN_POINT('',(0.0171527864045,0.015,-0.02892360679775));
#995=CARTESIAN_POINT('',(0.0125,0.015,-0.0196180339887499));
#996=CARTESIAN_POINT('',(0.0159472135954999,0.015,-0.01272360679775));
#997=CARTESIAN_POINT('',(0.0409472135955,0.015,-0.01272360679775));
#998=CARTESIAN_POINT('',(0.0375,0.015,-0.0196180339887499));
#999=CARTESIAN_POINT('',(0.041059016994375,0.015,-0.0125));
#1000=CARTESIAN_POINT('',(0.0428472135955,0.015,-0.0160763932022501));
#1001=CARTESIAN_POINT('',(0.0375,0.015,-0.0053819660112501));
#1002=CARTESIAN_POINT('',(0.0340527864045001,0.015,-0.01227639320225));
#1003=CARTESIAN_POINT('',(0.033940983005625,0.015,-0.0125));
#1004=CARTESIAN_POINT('',(0.0371527864045001,0.015,-0.01892360679775));
#1005=CARTESIAN_POINT('',(0.,0.015,-0.025));
#1006=CARTESIAN_POINT('',(0.,0.015,0.));
#1007=CARTESIAN_POINT('',(-1.04083408558608E-17,0.015,-0.05));
#1008=CARTESIAN_POINT('',(0.025,0.015,0.));
#1009=CARTESIAN_POINT('',(0.05,0.015,0.));
#1010=CARTESIAN_POINT('',(0.05,0.015,-0.025));
#1011=CARTESIAN_POINT('',(0.05,0.015,-0.05));
#1012=CARTESIAN_POINT('',(0.025,0.015,-0.05));
#1013=CARTESIAN_POINT('',(0.,0.015,-0.025));
#1014=CARTESIAN_POINT('',(0.,0.,-0.025));
#1015=CARTESIAN_POINT('',(0.,0.,0.));
#1016=CARTESIAN_POINT('',(-1.04083408558608E-17,0.,-0.05));
#1017=CARTESIAN_POINT('',(0.,0.015,0.));
#1018=CARTESIAN_POINT('',(-1.04083408558608E-17,0.015,-0.05));
#1019=CARTESIAN_POINT('',(0.025,0.015,0.));
#1020=CARTESIAN_POINT('',(0.025,0.,0.));
#1021=CARTESIAN_POINT('',(0.05,0.,0.));
#1022=CARTESIAN_POINT('',(0.05,0.015,0.));
#1023=CARTESIAN_POINT('',(0.05,0.015,-0.025));
#1024=CARTESIAN_POINT('',(0.05,0.,-0.025));
#1025=CARTESIAN_POINT('',(0.05,0.,-0.05));
#1026=CARTESIAN_POINT('',(0.05,0.015,-0.05));
#1027=CARTESIAN_POINT('',(0.025,0.015,-0.05));
#1028=CARTESIAN_POINT('',(0.025,0.,-0.05));
#1029=CARTESIAN_POINT('',(0.025,0.,-0.025));
#1030=CARTESIAN_POINT('',(0.025,0.,-0.025));
#1031=CARTESIAN_POINT('',(0.02195,0.,-0.025));
#1032=CARTESIAN_POINT('',(0.036,0.009,-0.0155));
#1033=CARTESIAN_POINT('',(0.0375,0.009,-0.0185));
#1034=CARTESIAN_POINT('',(0.0375,0.009,-0.0185));
#1035=CARTESIAN_POINT('',(0.0375,0.0145,-0.0185));
#1036=CARTESIAN_POINT('',(0.036,0.0145,-0.0155));
#1037=CARTESIAN_POINT('',(0.0345,0.0145,-0.0125));
#1038=CARTESIAN_POINT('',(0.0345,0.009,-0.0125));
#1039=CARTESIAN_POINT('',(0.0345,0.009,-0.0125));
#1040=CARTESIAN_POINT('',(0.036,0.009,-0.0155));
#1041=CARTESIAN_POINT('',(0.036,0.009,-0.0095));
#1042=CARTESIAN_POINT('',(0.0375,0.0145,-0.0065));
#1043=CARTESIAN_POINT('',(0.0375,0.0145,-0.0065));
#1044=CARTESIAN_POINT('',(0.0375,0.009,-0.0065));
#1045=CARTESIAN_POINT('',(0.0375,0.009,-0.0065));
#1046=CARTESIAN_POINT('',(0.036,0.009,-0.0095));
#1047=CARTESIAN_POINT('',(0.039,0.009,-0.0095));
#1048=CARTESIAN_POINT('',(0.039,0.0145,-0.0095));
#1049=CARTESIAN_POINT('',(0.0405,0.0145,-0.0125));
#1050=CARTESIAN_POINT('',(0.0405,0.009,-0.0125));
#1051=CARTESIAN_POINT('',(0.0405,0.009,-0.0125));
#1052=CARTESIAN_POINT('',(0.039,0.009,-0.0095));
#1053=CARTESIAN_POINT('',(0.039,0.009,-0.0155));
#1054=CARTESIAN_POINT('',(0.0375,0.0145,-0.0185));
#1055=CARTESIAN_POINT('',(0.039,0.009,-0.0155));
#1056=CARTESIAN_POINT('',(0.025,0.009,-0.025));
#1057=CARTESIAN_POINT('',(0.014,0.009,-0.0345));
#1058=CARTESIAN_POINT('',(0.0125,0.009,-0.0315));
#1059=CARTESIAN_POINT('',(0.0125,0.009,-0.0315));
#1060=CARTESIAN_POINT('',(0.0125,0.0145,-0.0315));
#1061=CARTESIAN_POINT('',(0.014,0.0145,-0.0345));
#1062=CARTESIAN_POINT('',(0.0155,0.0145,-0.0375));
#1063=CARTESIAN_POINT('',(0.0155,0.009,-0.0375));
#1064=CARTESIAN_POINT('',(0.0155,0.009,-0.0375));
#1065=CARTESIAN_POINT('',(0.014,0.009,-0.0345));
#1066=CARTESIAN_POINT('',(0.014,0.009,-0.0405));
#1067=CARTESIAN_POINT('',(0.0125,0.0145,-0.0435));
#1068=CARTESIAN_POINT('',(0.0125,0.0145,-0.0435));
#1069=CARTESIAN_POINT('',(0.0125,0.009,-0.0435));
#1070=CARTESIAN_POINT('',(0.0125,0.009,-0.0435));
#1071=CARTESIAN_POINT('',(0.014,0.009,-0.0405));
#1072=CARTESIAN_POINT('',(0.011,0.009,-0.0405));
#1073=CARTESIAN_POINT('',(0.011,0.0145,-0.0405));
#1074=CARTESIAN_POINT('',(0.0095,0.0145,-0.0375));
#1075=CARTESIAN_POINT('',(0.0095,0.009,-0.0375));
#1076=CARTESIAN_POINT('',(0.0095,0.009,-0.0375));
#1077=CARTESIAN_POINT('',(0.011,0.009,-0.0405));
#1078=CARTESIAN_POINT('',(0.011,0.009,-0.0345));
#1079=CARTESIAN_POINT('',(0.0125,0.0145,-0.0315));
#1080=CARTESIAN_POINT('',(0.011,0.009,-0.0345));
#1081=CARTESIAN_POINT('',(0.025,0.009,-0.025));
#1082=CARTESIAN_POINT('',(0.036,0.009,-0.0405));
#1083=CARTESIAN_POINT('',(0.0375,0.009,-0.0435));
#1084=CARTESIAN_POINT('',(0.0375,0.009,-0.0435));
#1085=CARTESIAN_POINT('',(0.0375,0.0145,-0.0435));
#1086=CARTESIAN_POINT('',(0.036,0.0145,-0.0405));
#1087=CARTESIAN_POINT('',(0.0345,0.0145,-0.0375));
#1088=CARTESIAN_POINT('',(0.0345,0.009,-0.0375));
#1089=CARTESIAN_POINT('',(0.0345,0.009,-0.0375));
#1090=CARTESIAN_POINT('',(0.036,0.009,-0.0405));
#1091=CARTESIAN_POINT('',(0.036,0.009,-0.0345));
#1092=CARTESIAN_POINT('',(0.0375,0.0145,-0.0315));
#1093=CARTESIAN_POINT('',(0.0375,0.0145,-0.0315));
#1094=CARTESIAN_POINT('',(0.0375,0.009,-0.0315));
#1095=CARTESIAN_POINT('',(0.0375,0.009,-0.0315));
#1096=CARTESIAN_POINT('',(0.036,0.009,-0.0345));
#1097=CARTESIAN_POINT('',(0.039,0.009,-0.0345));
#1098=CARTESIAN_POINT('',(0.039,0.0145,-0.0345));
#1099=CARTESIAN_POINT('',(0.0405,0.0145,-0.0375));
#1100=CARTESIAN_POINT('',(0.0405,0.009,-0.0375));
#1101=CARTESIAN_POINT('',(0.0405,0.009,-0.0375));
#1102=CARTESIAN_POINT('',(0.039,0.009,-0.0345));
#1103=CARTESIAN_POINT('',(0.039,0.009,-0.0405));
#1104=CARTESIAN_POINT('',(0.0375,0.0145,-0.0435));
#1105=CARTESIAN_POINT('',(0.039,0.009,-0.0405));
#1106=CARTESIAN_POINT('',(0.025,0.009,-0.025));
#1107=CARTESIAN_POINT('',(0.014,0.009,-0.0095));
#1108=CARTESIAN_POINT('',(0.0125,0.009,-0.0065));
#1109=CARTESIAN_POINT('',(0.0125,0.009,-0.0065));
#1110=CARTESIAN_POINT('',(0.0125,0.0145,-0.0065));
#1111=CARTESIAN_POINT('',(0.014,0.0145,-0.0095));
#1112=CARTESIAN_POINT('',(0.0155,0.0145,-0.0125));
#1113=CARTESIAN_POINT('',(0.0155,0.009,-0.0125));
#1114=CARTESIAN_POINT('',(0.0155,0.009,-0.0125));
#1115=CARTESIAN_POINT('',(0.014,0.009,-0.0095));
#1116=CARTESIAN_POINT('',(0.014,0.009,-0.0155));
#1117=CARTESIAN_POINT('',(0.0125,0.0145,-0.0185));
#1118=CARTESIAN_POINT('',(0.0125,0.0145,-0.0185));
#1119=CARTESIAN_POINT('',(0.0125,0.009,-0.0185));
#1120=CARTESIAN_POINT('',(0.0125,0.009,-0.0185));
#1121=CARTESIAN_POINT('',(0.014,0.009,-0.0155));
#1122=CARTESIAN_POINT('',(0.011,0.009,-0.0155));
#1123=CARTESIAN_POINT('',(0.011,0.0145,-0.0155));
#1124=CARTESIAN_POINT('',(0.0095,0.0145,-0.0125));
#1125=CARTESIAN_POINT('',(0.0095,0.009,-0.0125));
#1126=CARTESIAN_POINT('',(0.0095,0.009,-0.0125));
#1127=CARTESIAN_POINT('',(0.011,0.009,-0.0155));
#1128=CARTESIAN_POINT('',(0.011,0.009,-0.0095));
#1129=CARTESIAN_POINT('',(0.0125,0.0145,-0.0065));
#1130=CARTESIAN_POINT('',(0.011,0.009,-0.0095));
#1131=CARTESIAN_POINT('',(0.025,0.009,-0.025));
#1132=CARTESIAN_POINT('',(0.011,0.0145,-0.0345));
#1133=CARTESIAN_POINT('',(0.00794754044944449,0.0158885620349444,-0.0375));
#1134=CARTESIAN_POINT('',(0.0125,0.0133819660112501,-0.034));
#1135=CARTESIAN_POINT('',(0.0128472135954999,0.015,-0.03107639320225));
#1136=CARTESIAN_POINT('',(0.0146666666666667,0.0137546440075001,-0.0375));
#1137=CARTESIAN_POINT('',(0.00715278640450004,0.015,-0.0339236067977499));
#1138=CARTESIAN_POINT('',(0.0125,0.0133819660112501,-0.041));
#1139=CARTESIAN_POINT('',(0.014,0.0145,-0.0405));
#1140=CARTESIAN_POINT('',(0.0328472135955,0.015,-0.0210763932022501));
#1141=CARTESIAN_POINT('',(0.0396666666666666,0.0137546440075001,-0.0375));
#1142=CARTESIAN_POINT('',(0.0375,0.0184679822284163,-0.02262732200375));
#1143=CARTESIAN_POINT('',(0.036,0.0145,-0.0345));
#1144=CARTESIAN_POINT('',(0.0301697626716667,0.0183730820099441,-0.0375));
#1145=CARTESIAN_POINT('',(0.039,0.0145,-0.0405));
#1146=CARTESIAN_POINT('',(0.0375,0.00728764234091737,-0.0273726779962499));
#1147=CARTESIAN_POINT('',(0.0271527864045001,0.015,-0.0239236067977499));
#1148=CARTESIAN_POINT('',(0.014,0.0145,-0.0155));
#1149=CARTESIAN_POINT('',(0.0146666666666667,0.0137546440075001,-0.0125));
#1150=CARTESIAN_POINT('',(0.0125,0.0184679822284163,-0.02737267799625));
#1151=CARTESIAN_POINT('',(0.0171527864045,0.015,-0.02892360679775));
#1152=CARTESIAN_POINT('',(0.0103333333333333,0.0137546440075001,-0.0125));
#1153=CARTESIAN_POINT('',(0.0228472135954999,0.015,-0.02607639320225));
#1154=CARTESIAN_POINT('',(0.0125,0.0133819660112501,-0.009));
#1155=CARTESIAN_POINT('',(0.011,0.0145,-0.0095));
#1156=CARTESIAN_POINT('',(0.0371527864045001,0.015,-0.01892360679775));
#1157=CARTESIAN_POINT('',(0.0357253182272223,0.0134040420599446,-0.0125));
#1158=CARTESIAN_POINT('',(0.0375,0.0133819660112501,-0.016));
#1159=CARTESIAN_POINT('',(0.039,0.0145,-0.0155));
#1160=CARTESIAN_POINT('',(0.0420524595505555,0.0158885620349444,-0.0125));
#1161=CARTESIAN_POINT('',(0.036,0.0145,-0.0095));
#1162=CARTESIAN_POINT('',(0.0375,0.011014422303417,-0.0142939886704167));
#1163=CARTESIAN_POINT('',(0.0428472135955,0.015,-0.0160763932022501));
#1164=CARTESIAN_POINT('',(0.025,-0.005,-0.025));
#1165=CARTESIAN_POINT('',(0.025,-0.005,-0.025));
#1166=CARTESIAN_POINT('',(0.02195,-0.005,-0.025));
#1167=CARTESIAN_POINT('',(0.025,-0.005,-0.025));
#1168=MECHANICAL_DESIGN_GEOMETRIC_PRESENTATION_REPRESENTATION('',(#727),
#1169);
#1169=(
GEOMETRIC_REPRESENTATION_CONTEXT(3)
GLOBAL_UNCERTAINTY_ASSIGNED_CONTEXT((#1170))
GLOBAL_UNIT_ASSIGNED_CONTEXT((#1173,#1172,#1171))
REPRESENTATION_CONTEXT('Part 1','TOP_LEVEL_ASSEMBLY_PART')
);
#1170=UNCERTAINTY_MEASURE_WITH_UNIT(LENGTH_MEASURE(1.E-8),#1173,
'DISTANCE_ACCURACY_VALUE','Maximum Tolerance applied to model');
#1171=(
NAMED_UNIT(*)
SI_UNIT($,.STERADIAN.)
SOLID_ANGLE_UNIT()
);
#1172=(
NAMED_UNIT(*)
PLANE_ANGLE_UNIT()
SI_UNIT($,.RADIAN.)
);
#1173=(
LENGTH_UNIT()
NAMED_UNIT(*)
SI_UNIT($,.METRE.)
);
#1174=PRODUCT_DEFINITION_SHAPE('','',#1175);
#1175=PRODUCT_DEFINITION('','',#1177,#1176);
#1176=PRODUCT_DEFINITION_CONTEXT('',#1183,'design');
#1177=PRODUCT_DEFINITION_FORMATION_WITH_SPECIFIED_SOURCE('','',#1179,
 .NOT_KNOWN.);
#1178=PRODUCT_RELATED_PRODUCT_CATEGORY('','',(#1179));
#1179=PRODUCT('Part 1','Part 1','Part 1',(#1181));
#1180=PRODUCT_CATEGORY('','');
#1181=PRODUCT_CONTEXT('',#1183,'mechanical');
#1182=APPLICATION_PROTOCOL_DEFINITION('international standard',
'ap242_managed_model_based_3d_engineering',2020,#1183);
#1183=APPLICATION_CONTEXT('managed model based 3d engineering');
ENDSEC;
END-ISO-10303-21;
