ISO-10303-21;
HEADER;
/* Generated by software containing ST-Developer
 * from STEP Tools, Inc. (www.steptools.com) 
 */
/* OPTION: using custom renumber hook */

FILE_DESCRIPTION(
/* description */ ('STEP AP242 Edition 2',
'CAx-IF Rec.Pracs.---Representation and Presentation of Product Manufa
cturing Information (PMI)---4.0---2014-10-13',
'CAx-IF Rec.Pracs.---3D Tessellated Geometry---0.4---2014-09-14','2;1',
'CAx-IF Rec.Pracs.---User Defined Attributes---1.5---2016-08-15'),
/* implementation_level */ '2;1');

FILE_NAME(
/* name */ 'Vernier Go Direct Mount (Cover)_REV. 0',
/* time_stamp */ '2026-07-28T14:03:49Z',
/* author */ (''),
/* organization */ (''),
/* preprocessor_version */ 'ST-DEVELOPER v20',
/* originating_system */ 'ONSHAPE BY PTC INC, 1.218',
/* authorisation */ '  ');

FILE_SCHEMA (('AP242_MANAGED_MODEL_BASED_3D_ENGINEERING_MIM_LF { 1 0 10303 442 3 1 4 }'));
ENDSEC;

DATA;
#10=SHAPE_REPRESENTATION_RELATIONSHIP('','',#1097,#11);
#11=ADVANCED_BREP_SHAPE_REPRESENTATION('',(#1095),#2005);
#12=(
BOUNDED_SURFACE()
B_SPLINE_SURFACE(3,2,((#1885,#1886,#1887),(#1888,#1889,#1890),(#1891,#1892,
#1893),(#1894,#1895,#1896),(#1897,#1898,#1899),(#1900,#1901,#1902),(#1903,
#1904,#1905),(#1906,#1907,#1908),(#1909,#1910,#1911)),.UNSPECIFIED.,.F.,
 .F.,.F.)
B_SPLINE_SURFACE_WITH_KNOTS((4,1,1,1,1,1,4),(3,3),(6.28318530717959,6.47953484802895,
6.67588438887831,6.87223392972767,7.06858347057703,7.46128255227576,7.85398163397448),
(0.,1.),.UNSPECIFIED.)
GEOMETRIC_REPRESENTATION_ITEM()
RATIONAL_B_SPLINE_SURFACE(((1.,0.707106781186548,1.),(1.,0.707106781187376,
1.),(1.,0.716400177601319,1.),(1.,0.754563896244269,1.),(1.,0.808034956513216,
1.),(1.,0.886299164406114,1.),(1.,0.973513794545464,1.),(1.,0.999999999999712,
1.),(1.,1.,1.)))
REPRESENTATION_ITEM('')
SURFACE()
);
#13=(
BOUNDED_SURFACE()
B_SPLINE_SURFACE(3,2,((#1915,#1916,#1917),(#1918,#1919,#1920),(#1921,#1922,
#1923),(#1924,#1925,#1926),(#1927,#1928,#1929),(#1930,#1931,#1932),(#1933,
#1934,#1935),(#1936,#1937,#1938),(#1939,#1940,#1941)),.UNSPECIFIED.,.F.,
 .F.,.F.)
B_SPLINE_SURFACE_WITH_KNOTS((4,1,1,1,1,1,4),(3,3),(6.28318530717959,6.47953484802895,
6.67588438887831,6.87223392972767,7.06858347057703,7.46128255227576,7.85398163397448),
(0.,1.),.UNSPECIFIED.)
GEOMETRIC_REPRESENTATION_ITEM()
RATIONAL_B_SPLINE_SURFACE(((1.,0.707106781186548,1.),(1.,0.707106781187783,
1.),(1.,0.71640017760113,1.),(1.,0.754563896244319,1.),(1.,0.808034956513203,
1.),(1.,0.886299164406121,1.),(1.,0.973513794545462,1.),(1.,0.999999999999712,
1.),(1.,1.,1.)))
REPRESENTATION_ITEM('')
SURFACE()
);
#14=(
BOUNDED_SURFACE()
B_SPLINE_SURFACE(3,2,((#1947,#1948,#1949),(#1950,#1951,#1952),(#1953,#1954,
#1955),(#1956,#1957,#1958),(#1959,#1960,#1961),(#1962,#1963,#1964),(#1965,
#1966,#1967),(#1968,#1969,#1970),(#1971,#1972,#1973)),.UNSPECIFIED.,.F.,
 .F.,.F.)
B_SPLINE_SURFACE_WITH_KNOTS((4,1,1,1,1,1,4),(3,3),(4.71238898038469,5.10508806208341,
5.49778714378214,5.6941366846315,5.89048622548086,6.08683576633022,6.28318530717959),
(0.,1.),.UNSPECIFIED.)
GEOMETRIC_REPRESENTATION_ITEM()
RATIONAL_B_SPLINE_SURFACE(((1.,1.,1.),(1.,0.999999999985521,1.),(1.,0.973513794551671,
1.),(1.,0.88629916440679,1.),(1.,0.808034956510762,1.),(1.,0.754563896254191,
1.),(1.,0.716400177564089,1.),(1.,0.707106781267633,1.),(1.,0.707106781186548,
1.)))
REPRESENTATION_ITEM('')
SURFACE()
);
#15=(
BOUNDED_SURFACE()
B_SPLINE_SURFACE(3,2,((#1977,#1978,#1979),(#1980,#1981,#1982),(#1983,#1984,
#1985),(#1986,#1987,#1988),(#1989,#1990,#1991),(#1992,#1993,#1994),(#1995,
#1996,#1997),(#1998,#1999,#2000),(#2001,#2002,#2003)),.UNSPECIFIED.,.F.,
 .F.,.F.)
B_SPLINE_SURFACE_WITH_KNOTS((4,1,1,1,1,1,4),(3,3),(4.71238898038469,5.10508806208341,
5.49778714378214,5.6941366846315,5.89048622548086,6.08683576633022,6.28318530717959),
(0.,1.),.UNSPECIFIED.)
GEOMETRIC_REPRESENTATION_ITEM()
RATIONAL_B_SPLINE_SURFACE(((1.,1.,1.),(1.,0.999999999985521,1.),(1.,0.973513794551671,
1.),(1.,0.886299164406792,1.),(1.,0.808034956510762,1.),(1.,0.75456389625419,
1.),(1.,0.716400177564089,1.),(1.,0.707106781267633,1.),(1.,0.707106781186548,
1.)))
REPRESENTATION_ITEM('')
SURFACE()
);
#16=ELLIPSE('',#1198,0.00707106781186548,0.007);
#17=ELLIPSE('',#1200,0.00707106781186548,0.007);
#18=ELLIPSE('',#1201,0.00806225774829855,0.007);
#19=ELLIPSE('',#1202,0.00806225774829855,0.007);
#20=ELLIPSE('',#1204,0.00806225774829855,0.007);
#21=ELLIPSE('',#1205,0.00806225774829855,0.007);
#22=ELLIPSE('',#1207,0.00707106781186548,0.007);
#23=ELLIPSE('',#1209,0.00707106781186548,0.007);
#24=B_SPLINE_SURFACE_WITH_KNOTS('',1,3,((#1823,#1824,#1825,#1826,#1827,
#1828,#1829,#1830,#1831,#1832,#1833,#1834),(#1835,#1836,#1837,#1838,#1839,
#1840,#1841,#1842,#1843,#1844,#1845,#1846)),.RULED_SURF.,.F.,.F.,.F.,(2,
2),(4,3,2,3,4),(0.,1.),(2.0795547153508E-6,0.00104216624412386,0.00617283345289108,
0.0113035006616583,0.0116522462153654),.UNSPECIFIED.);
#25=CONICAL_SURFACE('',#1189,0.002,0.523598775598299);
#26=CONICAL_SURFACE('',#1190,0.002,0.523598775598299);
#27=CONICAL_SURFACE('',#1193,0.002,0.523598775598299);
#28=CONICAL_SURFACE('',#1195,0.006,0.785398163397448);
#29=CONICAL_SURFACE('',#1196,0.005,0.785398163397448);
#30=B_SPLINE_CURVE_WITH_KNOTS('',3,(#1797,#1798,#1799,#1800,#1801,#1802),
 .UNSPECIFIED.,.F.,.F.,(4,2,4),(0.00104216624412386,0.00617283345289108,
0.0113035006616583),.UNSPECIFIED.);
#31=B_SPLINE_CURVE_WITH_KNOTS('',3,(#1817,#1818,#1819,#1820),
 .UNSPECIFIED.,.F.,.F.,(4,4),(0.,1.),.UNSPECIFIED.);
#32=B_SPLINE_CURVE_WITH_KNOTS('',3,(#1847,#1848,#1849,#1850),
 .UNSPECIFIED.,.F.,.F.,(4,4),(0.,1.),.UNSPECIFIED.);
#33=B_SPLINE_CURVE_WITH_KNOTS('',3,(#1855,#1856,#1857,#1858,#1859,#1860,
#1861),.UNSPECIFIED.,.F.,.F.,(4,1,1,1,4),(0.,0.00245620919757152,0.00491241839514305,
0.00736862759271457,0.00982483679028609),.UNSPECIFIED.);
#34=B_SPLINE_CURVE_WITH_KNOTS('',3,(#1862,#1863,#1864,#1865,#1866),
 .UNSPECIFIED.,.F.,.F.,(4,1,4),(0.,0.00347886446762934,0.00695772893525867),
 .UNSPECIFIED.);
#35=B_SPLINE_CURVE_WITH_KNOTS('',3,(#1868,#1869,#1870,#1871,#1872,#1873,
#1874),.UNSPECIFIED.,.F.,.F.,(4,1,1,1,4),(0.,0.00245620919757152,0.00491241839514304,
0.00736862759271456,0.00982483679028607),.UNSPECIFIED.);
#36=B_SPLINE_CURVE_WITH_KNOTS('',3,(#1875,#1876,#1877,#1878,#1879),
 .UNSPECIFIED.,.F.,.F.,(4,1,4),(0.,0.00347886446762934,0.00695772893525868),
 .UNSPECIFIED.);
#37=CYLINDRICAL_SURFACE('',#1148,0.006);
#38=CYLINDRICAL_SURFACE('',#1149,0.006);
#39=CYLINDRICAL_SURFACE('',#1157,0.005);
#40=CYLINDRICAL_SURFACE('',#1162,0.005);
#41=CYLINDRICAL_SURFACE('',#1167,0.0026);
#42=CYLINDRICAL_SURFACE('',#1168,0.0026);
#43=CYLINDRICAL_SURFACE('',#1169,0.003);
#44=CYLINDRICAL_SURFACE('',#1170,0.003);
#45=CYLINDRICAL_SURFACE('',#1171,0.003);
#46=CYLINDRICAL_SURFACE('',#1172,0.003);
#47=CYLINDRICAL_SURFACE('',#1173,0.003);
#48=CYLINDRICAL_SURFACE('',#1175,0.003);
#49=CYLINDRICAL_SURFACE('',#1177,0.002);
#50=CYLINDRICAL_SURFACE('',#1178,0.002);
#51=CYLINDRICAL_SURFACE('',#1179,0.002);
#52=CYLINDRICAL_SURFACE('',#1180,0.002);
#53=CYLINDRICAL_SURFACE('',#1181,0.002);
#54=CYLINDRICAL_SURFACE('',#1182,0.002);
#55=CYLINDRICAL_SURFACE('',#1184,0.002);
#56=CYLINDRICAL_SURFACE('',#1186,0.002);
#57=CYLINDRICAL_SURFACE('',#1197,0.007);
#58=CYLINDRICAL_SURFACE('',#1199,0.007);
#59=CYLINDRICAL_SURFACE('',#1203,0.007);
#60=CYLINDRICAL_SURFACE('',#1206,0.007);
#61=CYLINDRICAL_SURFACE('',#1208,0.007);
#62=CYLINDRICAL_SURFACE('',#1211,0.006);
#63=CIRCLE('',#1100,0.006);
#64=CIRCLE('',#1102,0.003);
#65=CIRCLE('',#1103,0.003);
#66=CIRCLE('',#1104,0.003);
#67=CIRCLE('',#1105,0.003);
#68=CIRCLE('',#1106,0.006);
#69=CIRCLE('',#1107,0.006);
#70=CIRCLE('',#1109,0.006);
#71=CIRCLE('',#1111,0.003);
#72=CIRCLE('',#1112,0.003);
#73=CIRCLE('',#1113,0.003);
#74=CIRCLE('',#1114,0.003);
#75=CIRCLE('',#1116,0.002);
#76=CIRCLE('',#1117,0.002);
#77=CIRCLE('',#1118,0.002);
#78=CIRCLE('',#1119,0.002);
#79=CIRCLE('',#1121,0.0026);
#80=CIRCLE('',#1122,0.007);
#81=CIRCLE('',#1123,0.002);
#82=CIRCLE('',#1125,0.006);
#83=CIRCLE('',#1127,0.0026);
#84=CIRCLE('',#1128,0.007);
#85=CIRCLE('',#1129,0.003);
#86=CIRCLE('',#1130,0.002);
#87=CIRCLE('',#1131,0.002);
#88=CIRCLE('',#1134,0.002);
#89=CIRCLE('',#1135,0.002);
#90=CIRCLE('',#1136,0.002);
#91=CIRCLE('',#1137,0.002);
#92=CIRCLE('',#1140,0.006);
#93=CIRCLE('',#1142,0.006);
#94=CIRCLE('',#1144,0.006);
#95=CIRCLE('',#1146,0.002);
#96=CIRCLE('',#1147,0.003);
#97=CIRCLE('',#1158,0.005);
#98=CIRCLE('',#1159,0.005);
#99=CIRCLE('',#1161,0.0026);
#100=CIRCLE('',#1163,0.005);
#101=CIRCLE('',#1164,0.005);
#102=CIRCLE('',#1166,0.0026);
#103=CIRCLE('',#1174,0.003);
#104=CIRCLE('',#1176,0.003);
#105=CIRCLE('',#1183,0.002);
#106=CIRCLE('',#1185,0.002);
#107=CIRCLE('',#1187,0.002);
#108=CIRCLE('',#1210,0.006);
#109=CIRCLE('',#1212,0.006);
#110=ORIENTED_EDGE('',*,*,#414,.T.);
#111=ORIENTED_EDGE('',*,*,#415,.T.);
#112=ORIENTED_EDGE('',*,*,#416,.T.);
#113=ORIENTED_EDGE('',*,*,#417,.F.);
#114=ORIENTED_EDGE('',*,*,#418,.T.);
#115=ORIENTED_EDGE('',*,*,#419,.T.);
#116=ORIENTED_EDGE('',*,*,#420,.T.);
#117=ORIENTED_EDGE('',*,*,#421,.T.);
#118=ORIENTED_EDGE('',*,*,#422,.T.);
#119=ORIENTED_EDGE('',*,*,#423,.F.);
#120=ORIENTED_EDGE('',*,*,#424,.T.);
#121=ORIENTED_EDGE('',*,*,#425,.T.);
#122=ORIENTED_EDGE('',*,*,#426,.T.);
#123=ORIENTED_EDGE('',*,*,#427,.T.);
#124=ORIENTED_EDGE('',*,*,#428,.T.);
#125=ORIENTED_EDGE('',*,*,#429,.T.);
#126=ORIENTED_EDGE('',*,*,#430,.T.);
#127=ORIENTED_EDGE('',*,*,#431,.T.);
#128=ORIENTED_EDGE('',*,*,#432,.T.);
#129=ORIENTED_EDGE('',*,*,#433,.T.);
#130=ORIENTED_EDGE('',*,*,#434,.T.);
#131=ORIENTED_EDGE('',*,*,#435,.T.);
#132=ORIENTED_EDGE('',*,*,#436,.T.);
#133=ORIENTED_EDGE('',*,*,#437,.T.);
#134=ORIENTED_EDGE('',*,*,#438,.F.);
#135=ORIENTED_EDGE('',*,*,#439,.T.);
#136=ORIENTED_EDGE('',*,*,#440,.T.);
#137=ORIENTED_EDGE('',*,*,#441,.T.);
#138=ORIENTED_EDGE('',*,*,#442,.T.);
#139=ORIENTED_EDGE('',*,*,#443,.T.);
#140=ORIENTED_EDGE('',*,*,#444,.F.);
#141=ORIENTED_EDGE('',*,*,#445,.T.);
#142=ORIENTED_EDGE('',*,*,#446,.T.);
#143=ORIENTED_EDGE('',*,*,#447,.T.);
#144=ORIENTED_EDGE('',*,*,#448,.T.);
#145=ORIENTED_EDGE('',*,*,#449,.T.);
#146=ORIENTED_EDGE('',*,*,#450,.T.);
#147=ORIENTED_EDGE('',*,*,#451,.F.);
#148=ORIENTED_EDGE('',*,*,#452,.T.);
#149=ORIENTED_EDGE('',*,*,#453,.T.);
#150=ORIENTED_EDGE('',*,*,#454,.T.);
#151=ORIENTED_EDGE('',*,*,#455,.T.);
#152=ORIENTED_EDGE('',*,*,#456,.T.);
#153=ORIENTED_EDGE('',*,*,#457,.T.);
#154=ORIENTED_EDGE('',*,*,#458,.F.);
#155=ORIENTED_EDGE('',*,*,#459,.T.);
#156=ORIENTED_EDGE('',*,*,#460,.T.);
#157=ORIENTED_EDGE('',*,*,#461,.T.);
#158=ORIENTED_EDGE('',*,*,#462,.F.);
#159=ORIENTED_EDGE('',*,*,#463,.T.);
#160=ORIENTED_EDGE('',*,*,#464,.T.);
#161=ORIENTED_EDGE('',*,*,#457,.F.);
#162=ORIENTED_EDGE('',*,*,#465,.T.);
#163=ORIENTED_EDGE('',*,*,#466,.T.);
#164=ORIENTED_EDGE('',*,*,#467,.T.);
#165=ORIENTED_EDGE('',*,*,#468,.T.);
#166=ORIENTED_EDGE('',*,*,#469,.F.);
#167=ORIENTED_EDGE('',*,*,#470,.F.);
#168=ORIENTED_EDGE('',*,*,#471,.F.);
#169=ORIENTED_EDGE('',*,*,#472,.F.);
#170=ORIENTED_EDGE('',*,*,#473,.T.);
#171=ORIENTED_EDGE('',*,*,#474,.T.);
#172=ORIENTED_EDGE('',*,*,#475,.T.);
#173=ORIENTED_EDGE('',*,*,#476,.T.);
#174=ORIENTED_EDGE('',*,*,#471,.T.);
#175=ORIENTED_EDGE('',*,*,#477,.F.);
#176=ORIENTED_EDGE('',*,*,#478,.T.);
#177=ORIENTED_EDGE('',*,*,#479,.T.);
#178=ORIENTED_EDGE('',*,*,#480,.T.);
#179=ORIENTED_EDGE('',*,*,#481,.T.);
#180=ORIENTED_EDGE('',*,*,#482,.T.);
#181=ORIENTED_EDGE('',*,*,#483,.F.);
#182=ORIENTED_EDGE('',*,*,#475,.F.);
#183=ORIENTED_EDGE('',*,*,#484,.T.);
#184=ORIENTED_EDGE('',*,*,#485,.T.);
#185=ORIENTED_EDGE('',*,*,#486,.T.);
#186=ORIENTED_EDGE('',*,*,#487,.T.);
#187=ORIENTED_EDGE('',*,*,#488,.T.);
#188=ORIENTED_EDGE('',*,*,#459,.F.);
#189=ORIENTED_EDGE('',*,*,#489,.T.);
#190=ORIENTED_EDGE('',*,*,#490,.T.);
#191=ORIENTED_EDGE('',*,*,#491,.T.);
#192=ORIENTED_EDGE('',*,*,#492,.T.);
#193=ORIENTED_EDGE('',*,*,#493,.T.);
#194=ORIENTED_EDGE('',*,*,#494,.F.);
#195=ORIENTED_EDGE('',*,*,#495,.T.);
#196=ORIENTED_EDGE('',*,*,#496,.F.);
#197=ORIENTED_EDGE('',*,*,#497,.T.);
#198=ORIENTED_EDGE('',*,*,#498,.T.);
#199=ORIENTED_EDGE('',*,*,#499,.T.);
#200=ORIENTED_EDGE('',*,*,#500,.T.);
#201=ORIENTED_EDGE('',*,*,#480,.F.);
#202=ORIENTED_EDGE('',*,*,#501,.T.);
#203=ORIENTED_EDGE('',*,*,#502,.T.);
#204=ORIENTED_EDGE('',*,*,#503,.T.);
#205=ORIENTED_EDGE('',*,*,#463,.F.);
#206=ORIENTED_EDGE('',*,*,#504,.T.);
#207=ORIENTED_EDGE('',*,*,#482,.F.);
#208=ORIENTED_EDGE('',*,*,#505,.T.);
#209=ORIENTED_EDGE('',*,*,#506,.T.);
#210=ORIENTED_EDGE('',*,*,#507,.T.);
#211=ORIENTED_EDGE('',*,*,#478,.F.);
#212=ORIENTED_EDGE('',*,*,#508,.T.);
#213=ORIENTED_EDGE('',*,*,#509,.F.);
#214=ORIENTED_EDGE('',*,*,#510,.T.);
#215=ORIENTED_EDGE('',*,*,#511,.T.);
#216=ORIENTED_EDGE('',*,*,#512,.T.);
#217=ORIENTED_EDGE('',*,*,#473,.F.);
#218=ORIENTED_EDGE('',*,*,#513,.T.);
#219=ORIENTED_EDGE('',*,*,#461,.F.);
#220=ORIENTED_EDGE('',*,*,#496,.T.);
#221=ORIENTED_EDGE('',*,*,#514,.T.);
#222=ORIENTED_EDGE('',*,*,#449,.F.);
#223=ORIENTED_EDGE('',*,*,#515,.T.);
#224=ORIENTED_EDGE('',*,*,#509,.T.);
#225=ORIENTED_EDGE('',*,*,#516,.F.);
#226=ORIENTED_EDGE('',*,*,#469,.T.);
#227=ORIENTED_EDGE('',*,*,#517,.T.);
#228=ORIENTED_EDGE('',*,*,#483,.T.);
#229=ORIENTED_EDGE('',*,*,#504,.F.);
#230=ORIENTED_EDGE('',*,*,#462,.T.);
#231=ORIENTED_EDGE('',*,*,#513,.F.);
#232=ORIENTED_EDGE('',*,*,#477,.T.);
#233=ORIENTED_EDGE('',*,*,#470,.T.);
#234=ORIENTED_EDGE('',*,*,#516,.T.);
#235=ORIENTED_EDGE('',*,*,#508,.F.);
#236=ORIENTED_EDGE('',*,*,#455,.F.);
#237=ORIENTED_EDGE('',*,*,#518,.T.);
#238=ORIENTED_EDGE('',*,*,#490,.F.);
#239=ORIENTED_EDGE('',*,*,#519,.T.);
#240=ORIENTED_EDGE('',*,*,#494,.T.);
#241=ORIENTED_EDGE('',*,*,#520,.T.);
#242=ORIENTED_EDGE('',*,*,#451,.T.);
#243=ORIENTED_EDGE('',*,*,#521,.T.);
#244=ORIENTED_EDGE('',*,*,#453,.F.);
#245=ORIENTED_EDGE('',*,*,#522,.T.);
#246=ORIENTED_EDGE('',*,*,#492,.F.);
#247=ORIENTED_EDGE('',*,*,#523,.T.);
#248=ORIENTED_EDGE('',*,*,#440,.F.);
#249=ORIENTED_EDGE('',*,*,#524,.T.);
#250=ORIENTED_EDGE('',*,*,#417,.T.);
#251=ORIENTED_EDGE('',*,*,#525,.T.);
#252=ORIENTED_EDGE('',*,*,#438,.T.);
#253=ORIENTED_EDGE('',*,*,#526,.T.);
#254=ORIENTED_EDGE('',*,*,#419,.F.);
#255=ORIENTED_EDGE('',*,*,#527,.T.);
#256=ORIENTED_EDGE('',*,*,#421,.F.);
#257=ORIENTED_EDGE('',*,*,#528,.T.);
#258=ORIENTED_EDGE('',*,*,#444,.T.);
#259=ORIENTED_EDGE('',*,*,#529,.T.);
#260=ORIENTED_EDGE('',*,*,#423,.T.);
#261=ORIENTED_EDGE('',*,*,#530,.T.);
#262=ORIENTED_EDGE('',*,*,#442,.F.);
#263=ORIENTED_EDGE('',*,*,#531,.T.);
#264=ORIENTED_EDGE('',*,*,#532,.T.);
#265=ORIENTED_EDGE('',*,*,#533,.T.);
#266=ORIENTED_EDGE('',*,*,#534,.F.);
#267=ORIENTED_EDGE('',*,*,#533,.F.);
#268=ORIENTED_EDGE('',*,*,#535,.T.);
#269=ORIENTED_EDGE('',*,*,#536,.F.);
#270=ORIENTED_EDGE('',*,*,#537,.F.);
#271=ORIENTED_EDGE('',*,*,#536,.T.);
#272=ORIENTED_EDGE('',*,*,#472,.T.);
#273=ORIENTED_EDGE('',*,*,#537,.T.);
#274=ORIENTED_EDGE('',*,*,#458,.T.);
#275=ORIENTED_EDGE('',*,*,#534,.T.);
#276=ORIENTED_EDGE('',*,*,#420,.F.);
#277=ORIENTED_EDGE('',*,*,#526,.F.);
#278=ORIENTED_EDGE('',*,*,#445,.F.);
#279=ORIENTED_EDGE('',*,*,#528,.F.);
#280=ORIENTED_EDGE('',*,*,#422,.F.);
#281=ORIENTED_EDGE('',*,*,#529,.F.);
#282=ORIENTED_EDGE('',*,*,#443,.F.);
#283=ORIENTED_EDGE('',*,*,#530,.F.);
#284=ORIENTED_EDGE('',*,*,#418,.F.);
#285=ORIENTED_EDGE('',*,*,#524,.F.);
#286=ORIENTED_EDGE('',*,*,#439,.F.);
#287=ORIENTED_EDGE('',*,*,#527,.F.);
#288=ORIENTED_EDGE('',*,*,#424,.F.);
#289=ORIENTED_EDGE('',*,*,#531,.F.);
#290=ORIENTED_EDGE('',*,*,#441,.F.);
#291=ORIENTED_EDGE('',*,*,#525,.F.);
#292=ORIENTED_EDGE('',*,*,#486,.F.);
#293=ORIENTED_EDGE('',*,*,#538,.T.);
#294=ORIENTED_EDGE('',*,*,#466,.F.);
#295=ORIENTED_EDGE('',*,*,#476,.F.);
#296=ORIENTED_EDGE('',*,*,#468,.F.);
#297=ORIENTED_EDGE('',*,*,#539,.T.);
#298=ORIENTED_EDGE('',*,*,#497,.F.);
#299=ORIENTED_EDGE('',*,*,#517,.F.);
#300=ORIENTED_EDGE('',*,*,#452,.F.);
#301=ORIENTED_EDGE('',*,*,#520,.F.);
#302=ORIENTED_EDGE('',*,*,#493,.F.);
#303=ORIENTED_EDGE('',*,*,#522,.F.);
#304=ORIENTED_EDGE('',*,*,#454,.F.);
#305=ORIENTED_EDGE('',*,*,#523,.F.);
#306=ORIENTED_EDGE('',*,*,#491,.F.);
#307=ORIENTED_EDGE('',*,*,#518,.F.);
#308=ORIENTED_EDGE('',*,*,#450,.F.);
#309=ORIENTED_EDGE('',*,*,#514,.F.);
#310=ORIENTED_EDGE('',*,*,#495,.F.);
#311=ORIENTED_EDGE('',*,*,#521,.F.);
#312=ORIENTED_EDGE('',*,*,#456,.F.);
#313=ORIENTED_EDGE('',*,*,#519,.F.);
#314=ORIENTED_EDGE('',*,*,#489,.F.);
#315=ORIENTED_EDGE('',*,*,#465,.F.);
#316=ORIENTED_EDGE('',*,*,#540,.T.);
#317=ORIENTED_EDGE('',*,*,#505,.F.);
#318=ORIENTED_EDGE('',*,*,#515,.F.);
#319=ORIENTED_EDGE('',*,*,#448,.F.);
#320=ORIENTED_EDGE('',*,*,#503,.F.);
#321=ORIENTED_EDGE('',*,*,#541,.T.);
#322=ORIENTED_EDGE('',*,*,#446,.F.);
#323=ORIENTED_EDGE('',*,*,#464,.F.);
#324=ORIENTED_EDGE('',*,*,#507,.F.);
#325=ORIENTED_EDGE('',*,*,#542,.T.);
#326=ORIENTED_EDGE('',*,*,#498,.F.);
#327=ORIENTED_EDGE('',*,*,#479,.F.);
#328=ORIENTED_EDGE('',*,*,#500,.F.);
#329=ORIENTED_EDGE('',*,*,#543,.T.);
#330=ORIENTED_EDGE('',*,*,#501,.F.);
#331=ORIENTED_EDGE('',*,*,#481,.F.);
#332=ORIENTED_EDGE('',*,*,#544,.F.);
#333=ORIENTED_EDGE('',*,*,#502,.F.);
#334=ORIENTED_EDGE('',*,*,#545,.F.);
#335=ORIENTED_EDGE('',*,*,#437,.F.);
#336=ORIENTED_EDGE('',*,*,#541,.F.);
#337=ORIENTED_EDGE('',*,*,#544,.T.);
#338=ORIENTED_EDGE('',*,*,#546,.F.);
#339=ORIENTED_EDGE('',*,*,#545,.T.);
#340=ORIENTED_EDGE('',*,*,#543,.F.);
#341=ORIENTED_EDGE('',*,*,#547,.F.);
#342=ORIENTED_EDGE('',*,*,#546,.T.);
#343=ORIENTED_EDGE('',*,*,#436,.F.);
#344=ORIENTED_EDGE('',*,*,#548,.F.);
#345=ORIENTED_EDGE('',*,*,#447,.F.);
#346=ORIENTED_EDGE('',*,*,#547,.T.);
#347=ORIENTED_EDGE('',*,*,#499,.F.);
#348=ORIENTED_EDGE('',*,*,#549,.F.);
#349=ORIENTED_EDGE('',*,*,#434,.F.);
#350=ORIENTED_EDGE('',*,*,#540,.F.);
#351=ORIENTED_EDGE('',*,*,#548,.T.);
#352=ORIENTED_EDGE('',*,*,#550,.F.);
#353=ORIENTED_EDGE('',*,*,#549,.T.);
#354=ORIENTED_EDGE('',*,*,#542,.F.);
#355=ORIENTED_EDGE('',*,*,#551,.F.);
#356=ORIENTED_EDGE('',*,*,#550,.T.);
#357=ORIENTED_EDGE('',*,*,#435,.F.);
#358=ORIENTED_EDGE('',*,*,#551,.T.);
#359=ORIENTED_EDGE('',*,*,#506,.F.);
#360=ORIENTED_EDGE('',*,*,#532,.F.);
#361=ORIENTED_EDGE('',*,*,#427,.F.);
#362=ORIENTED_EDGE('',*,*,#552,.T.);
#363=ORIENTED_EDGE('',*,*,#431,.F.);
#364=ORIENTED_EDGE('',*,*,#553,.T.);
#365=ORIENTED_EDGE('',*,*,#416,.F.);
#366=ORIENTED_EDGE('',*,*,#554,.T.);
#367=ORIENTED_EDGE('',*,*,#425,.F.);
#368=ORIENTED_EDGE('',*,*,#555,.T.);
#369=ORIENTED_EDGE('',*,*,#535,.F.);
#370=ORIENTED_EDGE('',*,*,#488,.F.);
#371=ORIENTED_EDGE('',*,*,#556,.T.);
#372=ORIENTED_EDGE('',*,*,#510,.F.);
#373=ORIENTED_EDGE('',*,*,#460,.F.);
#374=ORIENTED_EDGE('',*,*,#433,.F.);
#375=ORIENTED_EDGE('',*,*,#557,.T.);
#376=ORIENTED_EDGE('',*,*,#487,.F.);
#377=ORIENTED_EDGE('',*,*,#558,.F.);
#378=ORIENTED_EDGE('',*,*,#428,.F.);
#379=ORIENTED_EDGE('',*,*,#553,.F.);
#380=ORIENTED_EDGE('',*,*,#558,.T.);
#381=ORIENTED_EDGE('',*,*,#539,.F.);
#382=ORIENTED_EDGE('',*,*,#559,.F.);
#383=ORIENTED_EDGE('',*,*,#559,.T.);
#384=ORIENTED_EDGE('',*,*,#467,.F.);
#385=ORIENTED_EDGE('',*,*,#560,.F.);
#386=ORIENTED_EDGE('',*,*,#429,.F.);
#387=ORIENTED_EDGE('',*,*,#560,.T.);
#388=ORIENTED_EDGE('',*,*,#538,.F.);
#389=ORIENTED_EDGE('',*,*,#561,.F.);
#390=ORIENTED_EDGE('',*,*,#485,.F.);
#391=ORIENTED_EDGE('',*,*,#562,.T.);
#392=ORIENTED_EDGE('',*,*,#414,.F.);
#393=ORIENTED_EDGE('',*,*,#555,.F.);
#394=ORIENTED_EDGE('',*,*,#430,.F.);
#395=ORIENTED_EDGE('',*,*,#561,.T.);
#396=ORIENTED_EDGE('',*,*,#512,.F.);
#397=ORIENTED_EDGE('',*,*,#563,.T.);
#398=ORIENTED_EDGE('',*,*,#484,.F.);
#399=ORIENTED_EDGE('',*,*,#474,.F.);
#400=ORIENTED_EDGE('',*,*,#562,.F.);
#401=ORIENTED_EDGE('',*,*,#563,.F.);
#402=ORIENTED_EDGE('',*,*,#564,.F.);
#403=ORIENTED_EDGE('',*,*,#564,.T.);
#404=ORIENTED_EDGE('',*,*,#511,.F.);
#405=ORIENTED_EDGE('',*,*,#565,.F.);
#406=ORIENTED_EDGE('',*,*,#432,.F.);
#407=ORIENTED_EDGE('',*,*,#552,.F.);
#408=ORIENTED_EDGE('',*,*,#426,.F.);
#409=ORIENTED_EDGE('',*,*,#554,.F.);
#410=ORIENTED_EDGE('',*,*,#415,.F.);
#411=ORIENTED_EDGE('',*,*,#565,.T.);
#412=ORIENTED_EDGE('',*,*,#556,.F.);
#413=ORIENTED_EDGE('',*,*,#557,.F.);
#414=EDGE_CURVE('',#566,#567,#662,.F.);
#415=EDGE_CURVE('',#567,#568,#663,.F.);
#416=EDGE_CURVE('',#568,#566,#63,.T.);
#417=EDGE_CURVE('',#569,#570,#664,.T.);
#418=EDGE_CURVE('',#569,#571,#64,.T.);
#419=EDGE_CURVE('',#571,#572,#665,.T.);
#420=EDGE_CURVE('',#572,#573,#65,.T.);
#421=EDGE_CURVE('',#573,#574,#666,.T.);
#422=EDGE_CURVE('',#574,#575,#66,.T.);
#423=EDGE_CURVE('',#576,#575,#667,.T.);
#424=EDGE_CURVE('',#576,#570,#67,.T.);
#425=EDGE_CURVE('',#577,#578,#68,.T.);
#426=EDGE_CURVE('',#578,#579,#668,.F.);
#427=EDGE_CURVE('',#579,#580,#69,.T.);
#428=EDGE_CURVE('',#580,#581,#669,.F.);
#429=EDGE_CURVE('',#581,#582,#670,.F.);
#430=EDGE_CURVE('',#582,#577,#671,.F.);
#431=EDGE_CURVE('',#583,#584,#70,.T.);
#432=EDGE_CURVE('',#584,#585,#672,.F.);
#433=EDGE_CURVE('',#585,#583,#673,.F.);
#434=EDGE_CURVE('',#586,#587,#674,.T.);
#435=EDGE_CURVE('',#587,#588,#675,.T.);
#436=EDGE_CURVE('',#588,#589,#676,.T.);
#437=EDGE_CURVE('',#589,#586,#677,.T.);
#438=EDGE_CURVE('',#590,#591,#678,.T.);
#439=EDGE_CURVE('',#590,#592,#71,.F.);
#440=EDGE_CURVE('',#592,#593,#679,.T.);
#441=EDGE_CURVE('',#593,#594,#72,.F.);
#442=EDGE_CURVE('',#594,#595,#680,.T.);
#443=EDGE_CURVE('',#595,#596,#73,.F.);
#444=EDGE_CURVE('',#597,#596,#681,.T.);
#445=EDGE_CURVE('',#597,#591,#74,.F.);
#446=EDGE_CURVE('',#598,#599,#682,.T.);
#447=EDGE_CURVE('',#599,#600,#683,.T.);
#448=EDGE_CURVE('',#600,#601,#684,.F.);
#449=EDGE_CURVE('',#601,#602,#685,.T.);
#450=EDGE_CURVE('',#602,#603,#75,.T.);
#451=EDGE_CURVE('',#604,#603,#686,.T.);
#452=EDGE_CURVE('',#604,#605,#76,.F.);
#453=EDGE_CURVE('',#605,#606,#687,.T.);
#454=EDGE_CURVE('',#606,#607,#77,.F.);
#455=EDGE_CURVE('',#607,#608,#688,.T.);
#456=EDGE_CURVE('',#608,#609,#78,.T.);
#457=EDGE_CURVE('',#609,#598,#689,.T.);
#458=EDGE_CURVE('',#610,#610,#79,.T.);
#459=EDGE_CURVE('',#611,#612,#690,.T.);
#460=EDGE_CURVE('',#612,#613,#80,.T.);
#461=EDGE_CURVE('',#613,#614,#691,.T.);
#462=EDGE_CURVE('',#615,#614,#692,.F.);
#463=EDGE_CURVE('',#615,#616,#693,.T.);
#464=EDGE_CURVE('',#616,#598,#81,.F.);
#465=EDGE_CURVE('',#609,#611,#694,.T.);
#466=EDGE_CURVE('',#617,#618,#695,.T.);
#467=EDGE_CURVE('',#618,#619,#696,.T.);
#468=EDGE_CURVE('',#619,#620,#697,.F.);
#469=EDGE_CURVE('',#621,#620,#698,.T.);
#470=EDGE_CURVE('',#622,#621,#82,.T.);
#471=EDGE_CURVE('',#617,#622,#699,.T.);
#472=EDGE_CURVE('',#623,#623,#83,.T.);
#473=EDGE_CURVE('',#624,#625,#700,.T.);
#474=EDGE_CURVE('',#625,#626,#84,.T.);
#475=EDGE_CURVE('',#626,#627,#701,.T.);
#476=EDGE_CURVE('',#627,#617,#85,.T.);
#477=EDGE_CURVE('',#628,#622,#702,.T.);
#478=EDGE_CURVE('',#628,#629,#703,.T.);
#479=EDGE_CURVE('',#629,#630,#86,.F.);
#480=EDGE_CURVE('',#630,#631,#704,.T.);
#481=EDGE_CURVE('',#631,#632,#87,.F.);
#482=EDGE_CURVE('',#632,#633,#705,.T.);
#483=EDGE_CURVE('',#624,#633,#706,.T.);
#484=EDGE_CURVE('',#626,#634,#707,.T.);
#485=EDGE_CURVE('',#634,#635,#708,.T.);
#486=EDGE_CURVE('',#635,#627,#709,.F.);
#487=EDGE_CURVE('',#636,#637,#710,.T.);
#488=EDGE_CURVE('',#637,#612,#711,.F.);
#489=EDGE_CURVE('',#611,#638,#88,.F.);
#490=EDGE_CURVE('',#638,#639,#712,.T.);
#491=EDGE_CURVE('',#639,#640,#89,.T.);
#492=EDGE_CURVE('',#640,#641,#713,.T.);
#493=EDGE_CURVE('',#641,#642,#90,.T.);
#494=EDGE_CURVE('',#643,#642,#714,.T.);
#495=EDGE_CURVE('',#643,#644,#91,.F.);
#496=EDGE_CURVE('',#645,#644,#715,.T.);
#497=EDGE_CURVE('',#645,#636,#716,.T.);
#498=EDGE_CURVE('',#630,#646,#717,.T.);
#499=EDGE_CURVE('',#646,#647,#718,.T.);
#500=EDGE_CURVE('',#647,#631,#719,.F.);
#501=EDGE_CURVE('',#632,#648,#720,.T.);
#502=EDGE_CURVE('',#648,#649,#721,.T.);
#503=EDGE_CURVE('',#649,#616,#722,.F.);
#504=EDGE_CURVE('',#615,#633,#92,.T.);
#505=EDGE_CURVE('',#650,#651,#723,.T.);
#506=EDGE_CURVE('',#651,#652,#724,.T.);
#507=EDGE_CURVE('',#652,#629,#725,.F.);
#508=EDGE_CURVE('',#628,#653,#93,.T.);
#509=EDGE_CURVE('',#650,#653,#726,.T.);
#510=EDGE_CURVE('',#613,#654,#727,.T.);
#511=EDGE_CURVE('',#654,#655,#728,.T.);
#512=EDGE_CURVE('',#655,#625,#729,.F.);
#513=EDGE_CURVE('',#624,#614,#94,.T.);
#514=EDGE_CURVE('',#644,#602,#730,.F.);
#515=EDGE_CURVE('',#601,#650,#95,.F.);
#516=EDGE_CURVE('',#621,#653,#731,.F.);
#517=EDGE_CURVE('',#620,#645,#96,.T.);
#518=EDGE_CURVE('',#607,#639,#732,.T.);
#519=EDGE_CURVE('',#638,#608,#733,.F.);
#520=EDGE_CURVE('',#642,#604,#734,.F.);
#521=EDGE_CURVE('',#603,#643,#735,.T.);
#522=EDGE_CURVE('',#605,#641,#736,.T.);
#523=EDGE_CURVE('',#640,#606,#737,.F.);
#524=EDGE_CURVE('',#592,#569,#738,.F.);
#525=EDGE_CURVE('',#570,#593,#739,.T.);
#526=EDGE_CURVE('',#591,#572,#740,.F.);
#527=EDGE_CURVE('',#571,#590,#741,.T.);
#528=EDGE_CURVE('',#573,#597,#742,.T.);
#529=EDGE_CURVE('',#596,#574,#743,.F.);
#530=EDGE_CURVE('',#575,#595,#744,.T.);
#531=EDGE_CURVE('',#594,#576,#745,.F.);
#532=EDGE_CURVE('',#656,#656,#97,.F.);
#533=EDGE_CURVE('',#657,#657,#98,.T.);
#534=EDGE_CURVE('',#658,#658,#99,.T.);
#535=EDGE_CURVE('',#659,#659,#100,.F.);
#536=EDGE_CURVE('',#660,#660,#101,.T.);
#537=EDGE_CURVE('',#661,#661,#102,.T.);
#538=EDGE_CURVE('',#635,#618,#103,.T.);
#539=EDGE_CURVE('',#619,#636,#104,.T.);
#540=EDGE_CURVE('',#600,#651,#30,.F.);
#541=EDGE_CURVE('',#649,#599,#105,.F.);
#542=EDGE_CURVE('',#652,#646,#106,.F.);
#543=EDGE_CURVE('',#647,#648,#107,.F.);
#544=EDGE_CURVE('',#649,#589,#746,.T.);
#545=EDGE_CURVE('',#586,#648,#747,.T.);
#546=EDGE_CURVE('',#599,#589,#748,.T.);
#547=EDGE_CURVE('',#586,#647,#749,.T.);
#548=EDGE_CURVE('',#600,#588,#31,.F.);
#549=EDGE_CURVE('',#587,#646,#750,.T.);
#550=EDGE_CURVE('',#651,#588,#32,.T.);
#551=EDGE_CURVE('',#587,#652,#751,.T.);
#552=EDGE_CURVE('',#579,#584,#33,.T.);
#553=EDGE_CURVE('',#583,#580,#34,.T.);
#554=EDGE_CURVE('',#568,#578,#35,.T.);
#555=EDGE_CURVE('',#577,#566,#36,.T.);
#556=EDGE_CURVE('',#637,#654,#16,.F.);
#557=EDGE_CURVE('',#585,#637,#17,.T.);
#558=EDGE_CURVE('',#581,#636,#18,.T.);
#559=EDGE_CURVE('',#581,#619,#19,.T.);
#560=EDGE_CURVE('',#582,#618,#20,.T.);
#561=EDGE_CURVE('',#582,#635,#21,.T.);
#562=EDGE_CURVE('',#634,#567,#22,.F.);
#563=EDGE_CURVE('',#655,#634,#23,.T.);
#564=EDGE_CURVE('',#567,#655,#108,.T.);
#565=EDGE_CURVE('',#585,#654,#109,.T.);
#566=VERTEX_POINT('',#1536);
#567=VERTEX_POINT('',#1537);
#568=VERTEX_POINT('',#1539);
#569=VERTEX_POINT('',#1543);
#570=VERTEX_POINT('',#1544);
#571=VERTEX_POINT('',#1546);
#572=VERTEX_POINT('',#1548);
#573=VERTEX_POINT('',#1550);
#574=VERTEX_POINT('',#1552);
#575=VERTEX_POINT('',#1554);
#576=VERTEX_POINT('',#1556);
#577=VERTEX_POINT('',#1559);
#578=VERTEX_POINT('',#1560);
#579=VERTEX_POINT('',#1562);
#580=VERTEX_POINT('',#1564);
#581=VERTEX_POINT('',#1566);
#582=VERTEX_POINT('',#1568);
#583=VERTEX_POINT('',#1572);
#584=VERTEX_POINT('',#1573);
#585=VERTEX_POINT('',#1575);
#586=VERTEX_POINT('',#1579);
#587=VERTEX_POINT('',#1580);
#588=VERTEX_POINT('',#1582);
#589=VERTEX_POINT('',#1584);
#590=VERTEX_POINT('',#1587);
#591=VERTEX_POINT('',#1588);
#592=VERTEX_POINT('',#1590);
#593=VERTEX_POINT('',#1592);
#594=VERTEX_POINT('',#1594);
#595=VERTEX_POINT('',#1596);
#596=VERTEX_POINT('',#1598);
#597=VERTEX_POINT('',#1600);
#598=VERTEX_POINT('',#1604);
#599=VERTEX_POINT('',#1605);
#600=VERTEX_POINT('',#1607);
#601=VERTEX_POINT('',#1609);
#602=VERTEX_POINT('',#1611);
#603=VERTEX_POINT('',#1613);
#604=VERTEX_POINT('',#1615);
#605=VERTEX_POINT('',#1617);
#606=VERTEX_POINT('',#1619);
#607=VERTEX_POINT('',#1621);
#608=VERTEX_POINT('',#1623);
#609=VERTEX_POINT('',#1625);
#610=VERTEX_POINT('',#1629);
#611=VERTEX_POINT('',#1631);
#612=VERTEX_POINT('',#1632);
#613=VERTEX_POINT('',#1634);
#614=VERTEX_POINT('',#1636);
#615=VERTEX_POINT('',#1638);
#616=VERTEX_POINT('',#1640);
#617=VERTEX_POINT('',#1645);
#618=VERTEX_POINT('',#1646);
#619=VERTEX_POINT('',#1648);
#620=VERTEX_POINT('',#1650);
#621=VERTEX_POINT('',#1652);
#622=VERTEX_POINT('',#1654);
#623=VERTEX_POINT('',#1658);
#624=VERTEX_POINT('',#1660);
#625=VERTEX_POINT('',#1661);
#626=VERTEX_POINT('',#1663);
#627=VERTEX_POINT('',#1665);
#628=VERTEX_POINT('',#1668);
#629=VERTEX_POINT('',#1670);
#630=VERTEX_POINT('',#1672);
#631=VERTEX_POINT('',#1674);
#632=VERTEX_POINT('',#1676);
#633=VERTEX_POINT('',#1678);
#634=VERTEX_POINT('',#1682);
#635=VERTEX_POINT('',#1684);
#636=VERTEX_POINT('',#1688);
#637=VERTEX_POINT('',#1689);
#638=VERTEX_POINT('',#1692);
#639=VERTEX_POINT('',#1694);
#640=VERTEX_POINT('',#1696);
#641=VERTEX_POINT('',#1698);
#642=VERTEX_POINT('',#1700);
#643=VERTEX_POINT('',#1702);
#644=VERTEX_POINT('',#1704);
#645=VERTEX_POINT('',#1706);
#646=VERTEX_POINT('',#1710);
#647=VERTEX_POINT('',#1712);
#648=VERTEX_POINT('',#1716);
#649=VERTEX_POINT('',#1718);
#650=VERTEX_POINT('',#1723);
#651=VERTEX_POINT('',#1724);
#652=VERTEX_POINT('',#1726);
#653=VERTEX_POINT('',#1729);
#654=VERTEX_POINT('',#1733);
#655=VERTEX_POINT('',#1735);
#656=VERTEX_POINT('',#1768);
#657=VERTEX_POINT('',#1770);
#658=VERTEX_POINT('',#1773);
#659=VERTEX_POINT('',#1776);
#660=VERTEX_POINT('',#1778);
#661=VERTEX_POINT('',#1781);
#662=LINE('',#1535,#752);
#663=LINE('',#1538,#753);
#664=LINE('',#1542,#754);
#665=LINE('',#1547,#755);
#666=LINE('',#1551,#756);
#667=LINE('',#1555,#757);
#668=LINE('',#1561,#758);
#669=LINE('',#1565,#759);
#670=LINE('',#1567,#760);
#671=LINE('',#1569,#761);
#672=LINE('',#1574,#762);
#673=LINE('',#1576,#763);
#674=LINE('',#1578,#764);
#675=LINE('',#1581,#765);
#676=LINE('',#1583,#766);
#677=LINE('',#1585,#767);
#678=LINE('',#1586,#768);
#679=LINE('',#1591,#769);
#680=LINE('',#1595,#770);
#681=LINE('',#1599,#771);
#682=LINE('',#1603,#772);
#683=LINE('',#1606,#773);
#684=LINE('',#1608,#774);
#685=LINE('',#1610,#775);
#686=LINE('',#1614,#776);
#687=LINE('',#1618,#777);
#688=LINE('',#1622,#778);
#689=LINE('',#1626,#779);
#690=LINE('',#1630,#780);
#691=LINE('',#1635,#781);
#692=LINE('',#1637,#782);
#693=LINE('',#1639,#783);
#694=LINE('',#1642,#784);
#695=LINE('',#1644,#785);
#696=LINE('',#1647,#786);
#697=LINE('',#1649,#787);
#698=LINE('',#1651,#788);
#699=LINE('',#1655,#789);
#700=LINE('',#1659,#790);
#701=LINE('',#1664,#791);
#702=LINE('',#1667,#792);
#703=LINE('',#1669,#793);
#704=LINE('',#1673,#794);
#705=LINE('',#1677,#795);
#706=LINE('',#1679,#796);
#707=LINE('',#1681,#797);
#708=LINE('',#1683,#798);
#709=LINE('',#1685,#799);
#710=LINE('',#1687,#800);
#711=LINE('',#1690,#801);
#712=LINE('',#1693,#802);
#713=LINE('',#1697,#803);
#714=LINE('',#1701,#804);
#715=LINE('',#1705,#805);
#716=LINE('',#1707,#806);
#717=LINE('',#1709,#807);
#718=LINE('',#1711,#808);
#719=LINE('',#1713,#809);
#720=LINE('',#1715,#810);
#721=LINE('',#1717,#811);
#722=LINE('',#1719,#812);
#723=LINE('',#1722,#813);
#724=LINE('',#1725,#814);
#725=LINE('',#1727,#815);
#726=LINE('',#1730,#816);
#727=LINE('',#1732,#817);
#728=LINE('',#1734,#818);
#729=LINE('',#1736,#819);
#730=LINE('',#1739,#820);
#731=LINE('',#1741,#821);
#732=LINE('',#1746,#822);
#733=LINE('',#1747,#823);
#734=LINE('',#1749,#824);
#735=LINE('',#1750,#825);
#736=LINE('',#1752,#826);
#737=LINE('',#1753,#827);
#738=LINE('',#1755,#828);
#739=LINE('',#1756,#829);
#740=LINE('',#1758,#830);
#741=LINE('',#1759,#831);
#742=LINE('',#1761,#832);
#743=LINE('',#1762,#833);
#744=LINE('',#1764,#834);
#745=LINE('',#1765,#835);
#746=LINE('',#1810,#836);
#747=LINE('',#1811,#837);
#748=LINE('',#1813,#838);
#749=LINE('',#1815,#839);
#750=LINE('',#1822,#840);
#751=LINE('',#1852,#841);
#752=VECTOR('',#1217,1.);
#753=VECTOR('',#1218,1.);
#754=VECTOR('',#1223,1.);
#755=VECTOR('',#1226,1.);
#756=VECTOR('',#1229,1.);
#757=VECTOR('',#1232,1.);
#758=VECTOR('',#1237,1.);
#759=VECTOR('',#1240,1.);
#760=VECTOR('',#1241,1.);
#761=VECTOR('',#1242,1.);
#762=VECTOR('',#1247,1.);
#763=VECTOR('',#1248,1.);
#764=VECTOR('',#1251,1.);
#765=VECTOR('',#1252,1.);
#766=VECTOR('',#1253,1.);
#767=VECTOR('',#1254,1.);
#768=VECTOR('',#1255,1.);
#769=VECTOR('',#1258,1.);
#770=VECTOR('',#1261,1.);
#771=VECTOR('',#1264,1.);
#772=VECTOR('',#1269,1.);
#773=VECTOR('',#1270,1.);
#774=VECTOR('',#1271,1.);
#775=VECTOR('',#1272,1.);
#776=VECTOR('',#1275,1.);
#777=VECTOR('',#1278,1.);
#778=VECTOR('',#1281,1.);
#779=VECTOR('',#1284,1.);
#780=VECTOR('',#1289,1.);
#781=VECTOR('',#1292,1.);
#782=VECTOR('',#1293,1.);
#783=VECTOR('',#1294,1.);
#784=VECTOR('',#1297,1.);
#785=VECTOR('',#1300,1.);
#786=VECTOR('',#1301,1.);
#787=VECTOR('',#1302,1.);
#788=VECTOR('',#1303,1.);
#789=VECTOR('',#1306,1.);
#790=VECTOR('',#1311,1.);
#791=VECTOR('',#1314,1.);
#792=VECTOR('',#1317,1.);
#793=VECTOR('',#1318,1.);
#794=VECTOR('',#1321,1.);
#795=VECTOR('',#1324,1.);
#796=VECTOR('',#1325,1.);
#797=VECTOR('',#1328,1.);
#798=VECTOR('',#1329,1.);
#799=VECTOR('',#1330,1.);
#800=VECTOR('',#1333,1.);
#801=VECTOR('',#1334,1.);
#802=VECTOR('',#1337,1.);
#803=VECTOR('',#1340,1.);
#804=VECTOR('',#1343,1.);
#805=VECTOR('',#1346,1.);
#806=VECTOR('',#1347,1.);
#807=VECTOR('',#1350,1.);
#808=VECTOR('',#1351,1.);
#809=VECTOR('',#1352,1.);
#810=VECTOR('',#1355,1.);
#811=VECTOR('',#1356,1.);
#812=VECTOR('',#1357,1.);
#813=VECTOR('',#1362,1.);
#814=VECTOR('',#1363,1.);
#815=VECTOR('',#1364,1.);
#816=VECTOR('',#1367,1.);
#817=VECTOR('',#1370,1.);
#818=VECTOR('',#1371,1.);
#819=VECTOR('',#1372,1.);
#820=VECTOR('',#1377,1.);
#821=VECTOR('',#1380,1.);
#822=VECTOR('',#1389,1.);
#823=VECTOR('',#1390,1.);
#824=VECTOR('',#1393,1.);
#825=VECTOR('',#1394,1.);
#826=VECTOR('',#1397,1.);
#827=VECTOR('',#1398,1.);
#828=VECTOR('',#1401,1.);
#829=VECTOR('',#1402,1.);
#830=VECTOR('',#1405,1.);
#831=VECTOR('',#1406,1.);
#832=VECTOR('',#1409,1.);
#833=VECTOR('',#1410,1.);
#834=VECTOR('',#1413,1.);
#835=VECTOR('',#1414,1.);
#836=VECTOR('',#1479,1.);
#837=VECTOR('',#1480,1.);
#838=VECTOR('',#1483,1.);
#839=VECTOR('',#1486,1.);
#840=VECTOR('',#1491,1.);
#841=VECTOR('',#1494,1.);
#842=EDGE_LOOP('',(#110,#111,#112));
#843=EDGE_LOOP('',(#113,#114,#115,#116,#117,#118,#119,#120));
#844=EDGE_LOOP('',(#121,#122,#123,#124,#125,#126));
#845=EDGE_LOOP('',(#127,#128,#129));
#846=EDGE_LOOP('',(#130,#131,#132,#133));
#847=EDGE_LOOP('',(#134,#135,#136,#137,#138,#139,#140,#141));
#848=EDGE_LOOP('',(#142,#143,#144,#145,#146,#147,#148,#149,#150,#151,#152,
#153));
#849=EDGE_LOOP('',(#154));
#850=EDGE_LOOP('',(#155,#156,#157,#158,#159,#160,#161,#162));
#851=EDGE_LOOP('',(#163,#164,#165,#166,#167,#168));
#852=EDGE_LOOP('',(#169));
#853=EDGE_LOOP('',(#170,#171,#172,#173,#174,#175,#176,#177,#178,#179,#180,
#181));
#854=EDGE_LOOP('',(#182,#183,#184,#185));
#855=EDGE_LOOP('',(#186,#187,#188,#189,#190,#191,#192,#193,#194,#195,#196,
#197));
#856=EDGE_LOOP('',(#198,#199,#200,#201));
#857=EDGE_LOOP('',(#202,#203,#204,#205,#206,#207));
#858=EDGE_LOOP('',(#208,#209,#210,#211,#212,#213));
#859=EDGE_LOOP('',(#214,#215,#216,#217,#218,#219));
#860=EDGE_LOOP('',(#220,#221,#222,#223,#224,#225,#226,#227));
#861=EDGE_LOOP('',(#228,#229,#230,#231));
#862=EDGE_LOOP('',(#232,#233,#234,#235));
#863=EDGE_LOOP('',(#236,#237,#238,#239));
#864=EDGE_LOOP('',(#240,#241,#242,#243));
#865=EDGE_LOOP('',(#244,#245,#246,#247));
#866=EDGE_LOOP('',(#248,#249,#250,#251));
#867=EDGE_LOOP('',(#252,#253,#254,#255));
#868=EDGE_LOOP('',(#256,#257,#258,#259));
#869=EDGE_LOOP('',(#260,#261,#262,#263));
#870=EDGE_LOOP('',(#264));
#871=EDGE_LOOP('',(#265));
#872=EDGE_LOOP('',(#266));
#873=EDGE_LOOP('',(#267));
#874=EDGE_LOOP('',(#268));
#875=EDGE_LOOP('',(#269));
#876=EDGE_LOOP('',(#270));
#877=EDGE_LOOP('',(#271));
#878=EDGE_LOOP('',(#272));
#879=EDGE_LOOP('',(#273));
#880=EDGE_LOOP('',(#274));
#881=EDGE_LOOP('',(#275));
#882=EDGE_LOOP('',(#276,#277,#278,#279));
#883=EDGE_LOOP('',(#280,#281,#282,#283));
#884=EDGE_LOOP('',(#284,#285,#286,#287));
#885=EDGE_LOOP('',(#288,#289,#290,#291));
#886=EDGE_LOOP('',(#292,#293,#294,#295));
#887=EDGE_LOOP('',(#296,#297,#298,#299));
#888=EDGE_LOOP('',(#300,#301,#302,#303));
#889=EDGE_LOOP('',(#304,#305,#306,#307));
#890=EDGE_LOOP('',(#308,#309,#310,#311));
#891=EDGE_LOOP('',(#312,#313,#314,#315));
#892=EDGE_LOOP('',(#316,#317,#318,#319));
#893=EDGE_LOOP('',(#320,#321,#322,#323));
#894=EDGE_LOOP('',(#324,#325,#326,#327));
#895=EDGE_LOOP('',(#328,#329,#330,#331));
#896=EDGE_LOOP('',(#332,#333,#334,#335));
#897=EDGE_LOOP('',(#336,#337,#338));
#898=EDGE_LOOP('',(#339,#340,#341));
#899=EDGE_LOOP('',(#342,#343,#344,#345));
#900=EDGE_LOOP('',(#346,#347,#348,#349));
#901=EDGE_LOOP('',(#350,#351,#352));
#902=EDGE_LOOP('',(#353,#354,#355));
#903=EDGE_LOOP('',(#356,#357,#358,#359));
#904=EDGE_LOOP('',(#360));
#905=EDGE_LOOP('',(#361,#362,#363,#364));
#906=EDGE_LOOP('',(#365,#366,#367,#368));
#907=EDGE_LOOP('',(#369));
#908=EDGE_LOOP('',(#370,#371,#372,#373));
#909=EDGE_LOOP('',(#374,#375,#376,#377,#378,#379));
#910=EDGE_LOOP('',(#380,#381,#382));
#911=EDGE_LOOP('',(#383,#384,#385,#386));
#912=EDGE_LOOP('',(#387,#388,#389));
#913=EDGE_LOOP('',(#390,#391,#392,#393,#394,#395));
#914=EDGE_LOOP('',(#396,#397,#398,#399));
#915=EDGE_LOOP('',(#400,#401,#402));
#916=EDGE_LOOP('',(#403,#404,#405,#406,#407,#408,#409,#410));
#917=EDGE_LOOP('',(#411,#412,#413));
#918=FACE_BOUND('',#842,.T.);
#919=FACE_BOUND('',#843,.T.);
#920=FACE_BOUND('',#844,.T.);
#921=FACE_BOUND('',#845,.T.);
#922=FACE_BOUND('',#846,.T.);
#923=FACE_BOUND('',#847,.T.);
#924=FACE_BOUND('',#848,.T.);
#925=FACE_BOUND('',#849,.T.);
#926=FACE_BOUND('',#850,.T.);
#927=FACE_BOUND('',#851,.T.);
#928=FACE_BOUND('',#852,.T.);
#929=FACE_BOUND('',#853,.T.);
#930=FACE_BOUND('',#854,.T.);
#931=FACE_BOUND('',#855,.T.);
#932=FACE_BOUND('',#856,.T.);
#933=FACE_BOUND('',#857,.T.);
#934=FACE_BOUND('',#858,.T.);
#935=FACE_BOUND('',#859,.T.);
#936=FACE_BOUND('',#860,.T.);
#937=FACE_BOUND('',#861,.T.);
#938=FACE_BOUND('',#862,.T.);
#939=FACE_BOUND('',#863,.T.);
#940=FACE_BOUND('',#864,.T.);
#941=FACE_BOUND('',#865,.T.);
#942=FACE_BOUND('',#866,.T.);
#943=FACE_BOUND('',#867,.T.);
#944=FACE_BOUND('',#868,.T.);
#945=FACE_BOUND('',#869,.T.);
#946=FACE_BOUND('',#870,.T.);
#947=FACE_BOUND('',#871,.T.);
#948=FACE_BOUND('',#872,.T.);
#949=FACE_BOUND('',#873,.T.);
#950=FACE_BOUND('',#874,.T.);
#951=FACE_BOUND('',#875,.T.);
#952=FACE_BOUND('',#876,.T.);
#953=FACE_BOUND('',#877,.T.);
#954=FACE_BOUND('',#878,.T.);
#955=FACE_BOUND('',#879,.T.);
#956=FACE_BOUND('',#880,.T.);
#957=FACE_BOUND('',#881,.T.);
#958=FACE_BOUND('',#882,.T.);
#959=FACE_BOUND('',#883,.T.);
#960=FACE_BOUND('',#884,.T.);
#961=FACE_BOUND('',#885,.T.);
#962=FACE_BOUND('',#886,.T.);
#963=FACE_BOUND('',#887,.T.);
#964=FACE_BOUND('',#888,.T.);
#965=FACE_BOUND('',#889,.T.);
#966=FACE_BOUND('',#890,.T.);
#967=FACE_BOUND('',#891,.T.);
#968=FACE_BOUND('',#892,.T.);
#969=FACE_BOUND('',#893,.T.);
#970=FACE_BOUND('',#894,.T.);
#971=FACE_BOUND('',#895,.T.);
#972=FACE_BOUND('',#896,.T.);
#973=FACE_BOUND('',#897,.T.);
#974=FACE_BOUND('',#898,.T.);
#975=FACE_BOUND('',#899,.T.);
#976=FACE_BOUND('',#900,.T.);
#977=FACE_BOUND('',#901,.T.);
#978=FACE_BOUND('',#902,.T.);
#979=FACE_BOUND('',#903,.T.);
#980=FACE_BOUND('',#904,.T.);
#981=FACE_BOUND('',#905,.T.);
#982=FACE_BOUND('',#906,.T.);
#983=FACE_BOUND('',#907,.T.);
#984=FACE_BOUND('',#908,.T.);
#985=FACE_BOUND('',#909,.T.);
#986=FACE_BOUND('',#910,.T.);
#987=FACE_BOUND('',#911,.T.);
#988=FACE_BOUND('',#912,.T.);
#989=FACE_BOUND('',#913,.T.);
#990=FACE_BOUND('',#914,.T.);
#991=FACE_BOUND('',#915,.T.);
#992=FACE_BOUND('',#916,.T.);
#993=FACE_BOUND('',#917,.T.);
#994=PLANE('',#1099);
#995=PLANE('',#1101);
#996=PLANE('',#1108);
#997=PLANE('',#1110);
#998=PLANE('',#1115);
#999=PLANE('',#1120);
#1000=PLANE('',#1124);
#1001=PLANE('',#1126);
#1002=PLANE('',#1132);
#1003=PLANE('',#1133);
#1004=PLANE('',#1138);
#1005=PLANE('',#1139);
#1006=PLANE('',#1141);
#1007=PLANE('',#1143);
#1008=PLANE('',#1145);
#1009=PLANE('',#1150);
#1010=PLANE('',#1151);
#1011=PLANE('',#1152);
#1012=PLANE('',#1153);
#1013=PLANE('',#1154);
#1014=PLANE('',#1155);
#1015=PLANE('',#1156);
#1016=PLANE('',#1160);
#1017=PLANE('',#1165);
#1018=PLANE('',#1188);
#1019=PLANE('',#1191);
#1020=PLANE('',#1192);
#1021=PLANE('',#1194);
#1022=ADVANCED_FACE('',(#918),#994,.F.);
#1023=ADVANCED_FACE('',(#919,#920),#995,.F.);
#1024=ADVANCED_FACE('',(#921),#996,.F.);
#1025=ADVANCED_FACE('',(#922,#923),#997,.T.);
#1026=ADVANCED_FACE('',(#924),#998,.T.);
#1027=ADVANCED_FACE('',(#925,#926),#999,.T.);
#1028=ADVANCED_FACE('',(#927),#1000,.F.);
#1029=ADVANCED_FACE('',(#928,#929),#1001,.T.);
#1030=ADVANCED_FACE('',(#930),#1002,.F.);
#1031=ADVANCED_FACE('',(#931),#1003,.F.);
#1032=ADVANCED_FACE('',(#932),#1004,.F.);
#1033=ADVANCED_FACE('',(#933),#1005,.F.);
#1034=ADVANCED_FACE('',(#934),#1006,.F.);
#1035=ADVANCED_FACE('',(#935),#1007,.F.);
#1036=ADVANCED_FACE('',(#936),#1008,.T.);
#1037=ADVANCED_FACE('',(#937),#37,.F.);
#1038=ADVANCED_FACE('',(#938),#38,.F.);
#1039=ADVANCED_FACE('',(#939),#1009,.T.);
#1040=ADVANCED_FACE('',(#940),#1010,.F.);
#1041=ADVANCED_FACE('',(#941),#1011,.T.);
#1042=ADVANCED_FACE('',(#942),#1012,.T.);
#1043=ADVANCED_FACE('',(#943),#1013,.F.);
#1044=ADVANCED_FACE('',(#944),#1014,.F.);
#1045=ADVANCED_FACE('',(#945),#1015,.T.);
#1046=ADVANCED_FACE('',(#946,#947),#39,.F.);
#1047=ADVANCED_FACE('',(#948,#949),#1016,.T.);
#1048=ADVANCED_FACE('',(#950,#951),#40,.F.);
#1049=ADVANCED_FACE('',(#952,#953),#1017,.T.);
#1050=ADVANCED_FACE('',(#954,#955),#41,.F.);
#1051=ADVANCED_FACE('',(#956,#957),#42,.F.);
#1052=ADVANCED_FACE('',(#958),#43,.F.);
#1053=ADVANCED_FACE('',(#959),#44,.F.);
#1054=ADVANCED_FACE('',(#960),#45,.F.);
#1055=ADVANCED_FACE('',(#961),#46,.F.);
#1056=ADVANCED_FACE('',(#962),#47,.T.);
#1057=ADVANCED_FACE('',(#963),#48,.T.);
#1058=ADVANCED_FACE('',(#964),#49,.F.);
#1059=ADVANCED_FACE('',(#965),#50,.F.);
#1060=ADVANCED_FACE('',(#966),#51,.T.);
#1061=ADVANCED_FACE('',(#967),#52,.T.);
#1062=ADVANCED_FACE('',(#968),#53,.F.);
#1063=ADVANCED_FACE('',(#969),#54,.F.);
#1064=ADVANCED_FACE('',(#970),#55,.F.);
#1065=ADVANCED_FACE('',(#971),#56,.F.);
#1066=ADVANCED_FACE('',(#972),#1018,.F.);
#1067=ADVANCED_FACE('',(#973),#25,.F.);
#1068=ADVANCED_FACE('',(#974),#26,.F.);
#1069=ADVANCED_FACE('',(#975),#1019,.T.);
#1070=ADVANCED_FACE('',(#976),#1020,.F.);
#1071=ADVANCED_FACE('',(#977),#24,.T.);
#1072=ADVANCED_FACE('',(#978),#27,.F.);
#1073=ADVANCED_FACE('',(#979),#1021,.F.);
#1074=ADVANCED_FACE('',(#980,#981),#28,.F.);
#1075=ADVANCED_FACE('',(#982,#983),#29,.F.);
#1076=ADVANCED_FACE('',(#984),#57,.T.);
#1077=ADVANCED_FACE('',(#985),#58,.T.);
#1078=ADVANCED_FACE('',(#986),#12,.T.);
#1079=ADVANCED_FACE('',(#987),#59,.T.);
#1080=ADVANCED_FACE('',(#988),#13,.T.);
#1081=ADVANCED_FACE('',(#989),#60,.T.);
#1082=ADVANCED_FACE('',(#990),#61,.T.);
#1083=ADVANCED_FACE('',(#991),#14,.T.);
#1084=ADVANCED_FACE('',(#992),#62,.T.);
#1085=ADVANCED_FACE('',(#993),#15,.T.);
#1086=CLOSED_SHELL('',(#1022,#1023,#1024,#1025,#1026,#1027,#1028,#1029,
#1030,#1031,#1032,#1033,#1034,#1035,#1036,#1037,#1038,#1039,#1040,#1041,
#1042,#1043,#1044,#1045,#1046,#1047,#1048,#1049,#1050,#1051,#1052,#1053,
#1054,#1055,#1056,#1057,#1058,#1059,#1060,#1061,#1062,#1063,#1064,#1065,
#1066,#1067,#1068,#1069,#1070,#1071,#1072,#1073,#1074,#1075,#1076,#1077,
#1078,#1079,#1080,#1081,#1082,#1083,#1084,#1085));
#1087=STYLED_ITEM('',(#1088),#1095);
#1088=PRESENTATION_STYLE_ASSIGNMENT((#1089));
#1089=SURFACE_STYLE_USAGE(.BOTH.,#1090);
#1090=SURFACE_SIDE_STYLE('',(#1091));
#1091=SURFACE_STYLE_FILL_AREA(#1092);
#1092=FILL_AREA_STYLE('',(#1093));
#1093=FILL_AREA_STYLE_COLOUR('',#1094);
#1094=COLOUR_RGB('',0.615686274509804,0.811764705882353,0.929411764705882);
#1095=MANIFOLD_SOLID_BREP('Part 1',#1086);
#1096=SHAPE_DEFINITION_REPRESENTATION(#2010,#1097);
#1097=SHAPE_REPRESENTATION('Part 1',(#1098),#2005);
#1098=AXIS2_PLACEMENT_3D('',#1533,#1213,#1214);
#1099=AXIS2_PLACEMENT_3D('',#1534,#1215,#1216);
#1100=AXIS2_PLACEMENT_3D('',#1540,#1219,#1220);
#1101=AXIS2_PLACEMENT_3D('',#1541,#1221,#1222);
#1102=AXIS2_PLACEMENT_3D('',#1545,#1224,#1225);
#1103=AXIS2_PLACEMENT_3D('',#1549,#1227,#1228);
#1104=AXIS2_PLACEMENT_3D('',#1553,#1230,#1231);
#1105=AXIS2_PLACEMENT_3D('',#1557,#1233,#1234);
#1106=AXIS2_PLACEMENT_3D('',#1558,#1235,#1236);
#1107=AXIS2_PLACEMENT_3D('',#1563,#1238,#1239);
#1108=AXIS2_PLACEMENT_3D('',#1570,#1243,#1244);
#1109=AXIS2_PLACEMENT_3D('',#1571,#1245,#1246);
#1110=AXIS2_PLACEMENT_3D('',#1577,#1249,#1250);
#1111=AXIS2_PLACEMENT_3D('',#1589,#1256,#1257);
#1112=AXIS2_PLACEMENT_3D('',#1593,#1259,#1260);
#1113=AXIS2_PLACEMENT_3D('',#1597,#1262,#1263);
#1114=AXIS2_PLACEMENT_3D('',#1601,#1265,#1266);
#1115=AXIS2_PLACEMENT_3D('',#1602,#1267,#1268);
#1116=AXIS2_PLACEMENT_3D('',#1612,#1273,#1274);
#1117=AXIS2_PLACEMENT_3D('',#1616,#1276,#1277);
#1118=AXIS2_PLACEMENT_3D('',#1620,#1279,#1280);
#1119=AXIS2_PLACEMENT_3D('',#1624,#1282,#1283);
#1120=AXIS2_PLACEMENT_3D('',#1627,#1285,#1286);
#1121=AXIS2_PLACEMENT_3D('',#1628,#1287,#1288);
#1122=AXIS2_PLACEMENT_3D('',#1633,#1290,#1291);
#1123=AXIS2_PLACEMENT_3D('',#1641,#1295,#1296);
#1124=AXIS2_PLACEMENT_3D('',#1643,#1298,#1299);
#1125=AXIS2_PLACEMENT_3D('',#1653,#1304,#1305);
#1126=AXIS2_PLACEMENT_3D('',#1656,#1307,#1308);
#1127=AXIS2_PLACEMENT_3D('',#1657,#1309,#1310);
#1128=AXIS2_PLACEMENT_3D('',#1662,#1312,#1313);
#1129=AXIS2_PLACEMENT_3D('',#1666,#1315,#1316);
#1130=AXIS2_PLACEMENT_3D('',#1671,#1319,#1320);
#1131=AXIS2_PLACEMENT_3D('',#1675,#1322,#1323);
#1132=AXIS2_PLACEMENT_3D('',#1680,#1326,#1327);
#1133=AXIS2_PLACEMENT_3D('',#1686,#1331,#1332);
#1134=AXIS2_PLACEMENT_3D('',#1691,#1335,#1336);
#1135=AXIS2_PLACEMENT_3D('',#1695,#1338,#1339);
#1136=AXIS2_PLACEMENT_3D('',#1699,#1341,#1342);
#1137=AXIS2_PLACEMENT_3D('',#1703,#1344,#1345);
#1138=AXIS2_PLACEMENT_3D('',#1708,#1348,#1349);
#1139=AXIS2_PLACEMENT_3D('',#1714,#1353,#1354);
#1140=AXIS2_PLACEMENT_3D('',#1720,#1358,#1359);
#1141=AXIS2_PLACEMENT_3D('',#1721,#1360,#1361);
#1142=AXIS2_PLACEMENT_3D('',#1728,#1365,#1366);
#1143=AXIS2_PLACEMENT_3D('',#1731,#1368,#1369);
#1144=AXIS2_PLACEMENT_3D('',#1737,#1373,#1374);
#1145=AXIS2_PLACEMENT_3D('',#1738,#1375,#1376);
#1146=AXIS2_PLACEMENT_3D('',#1740,#1378,#1379);
#1147=AXIS2_PLACEMENT_3D('',#1742,#1381,#1382);
#1148=AXIS2_PLACEMENT_3D('',#1743,#1383,#1384);
#1149=AXIS2_PLACEMENT_3D('',#1744,#1385,#1386);
#1150=AXIS2_PLACEMENT_3D('',#1745,#1387,#1388);
#1151=AXIS2_PLACEMENT_3D('',#1748,#1391,#1392);
#1152=AXIS2_PLACEMENT_3D('',#1751,#1395,#1396);
#1153=AXIS2_PLACEMENT_3D('',#1754,#1399,#1400);
#1154=AXIS2_PLACEMENT_3D('',#1757,#1403,#1404);
#1155=AXIS2_PLACEMENT_3D('',#1760,#1407,#1408);
#1156=AXIS2_PLACEMENT_3D('',#1763,#1411,#1412);
#1157=AXIS2_PLACEMENT_3D('',#1766,#1415,#1416);
#1158=AXIS2_PLACEMENT_3D('',#1767,#1417,#1418);
#1159=AXIS2_PLACEMENT_3D('',#1769,#1419,#1420);
#1160=AXIS2_PLACEMENT_3D('',#1771,#1421,#1422);
#1161=AXIS2_PLACEMENT_3D('',#1772,#1423,#1424);
#1162=AXIS2_PLACEMENT_3D('',#1774,#1425,#1426);
#1163=AXIS2_PLACEMENT_3D('',#1775,#1427,#1428);
#1164=AXIS2_PLACEMENT_3D('',#1777,#1429,#1430);
#1165=AXIS2_PLACEMENT_3D('',#1779,#1431,#1432);
#1166=AXIS2_PLACEMENT_3D('',#1780,#1433,#1434);
#1167=AXIS2_PLACEMENT_3D('',#1782,#1435,#1436);
#1168=AXIS2_PLACEMENT_3D('',#1783,#1437,#1438);
#1169=AXIS2_PLACEMENT_3D('',#1784,#1439,#1440);
#1170=AXIS2_PLACEMENT_3D('',#1785,#1441,#1442);
#1171=AXIS2_PLACEMENT_3D('',#1786,#1443,#1444);
#1172=AXIS2_PLACEMENT_3D('',#1787,#1445,#1446);
#1173=AXIS2_PLACEMENT_3D('',#1788,#1447,#1448);
#1174=AXIS2_PLACEMENT_3D('',#1789,#1449,#1450);
#1175=AXIS2_PLACEMENT_3D('',#1790,#1451,#1452);
#1176=AXIS2_PLACEMENT_3D('',#1791,#1453,#1454);
#1177=AXIS2_PLACEMENT_3D('',#1792,#1455,#1456);
#1178=AXIS2_PLACEMENT_3D('',#1793,#1457,#1458);
#1179=AXIS2_PLACEMENT_3D('',#1794,#1459,#1460);
#1180=AXIS2_PLACEMENT_3D('',#1795,#1461,#1462);
#1181=AXIS2_PLACEMENT_3D('',#1796,#1463,#1464);
#1182=AXIS2_PLACEMENT_3D('',#1803,#1465,#1466);
#1183=AXIS2_PLACEMENT_3D('',#1804,#1467,#1468);
#1184=AXIS2_PLACEMENT_3D('',#1805,#1469,#1470);
#1185=AXIS2_PLACEMENT_3D('',#1806,#1471,#1472);
#1186=AXIS2_PLACEMENT_3D('',#1807,#1473,#1474);
#1187=AXIS2_PLACEMENT_3D('',#1808,#1475,#1476);
#1188=AXIS2_PLACEMENT_3D('',#1809,#1477,#1478);
#1189=AXIS2_PLACEMENT_3D('',#1812,#1481,#1482);
#1190=AXIS2_PLACEMENT_3D('',#1814,#1484,#1485);
#1191=AXIS2_PLACEMENT_3D('',#1816,#1487,#1488);
#1192=AXIS2_PLACEMENT_3D('',#1821,#1489,#1490);
#1193=AXIS2_PLACEMENT_3D('',#1851,#1492,#1493);
#1194=AXIS2_PLACEMENT_3D('',#1853,#1495,#1496);
#1195=AXIS2_PLACEMENT_3D('',#1854,#1497,#1498);
#1196=AXIS2_PLACEMENT_3D('',#1867,#1499,#1500);
#1197=AXIS2_PLACEMENT_3D('',#1880,#1501,#1502);
#1198=AXIS2_PLACEMENT_3D('',#1881,#1503,#1504);
#1199=AXIS2_PLACEMENT_3D('',#1882,#1505,#1506);
#1200=AXIS2_PLACEMENT_3D('',#1883,#1507,#1508);
#1201=AXIS2_PLACEMENT_3D('',#1884,#1509,#1510);
#1202=AXIS2_PLACEMENT_3D('',#1912,#1511,#1512);
#1203=AXIS2_PLACEMENT_3D('',#1913,#1513,#1514);
#1204=AXIS2_PLACEMENT_3D('',#1914,#1515,#1516);
#1205=AXIS2_PLACEMENT_3D('',#1942,#1517,#1518);
#1206=AXIS2_PLACEMENT_3D('',#1943,#1519,#1520);
#1207=AXIS2_PLACEMENT_3D('',#1944,#1521,#1522);
#1208=AXIS2_PLACEMENT_3D('',#1945,#1523,#1524);
#1209=AXIS2_PLACEMENT_3D('',#1946,#1525,#1526);
#1210=AXIS2_PLACEMENT_3D('',#1974,#1527,#1528);
#1211=AXIS2_PLACEMENT_3D('',#1975,#1529,#1530);
#1212=AXIS2_PLACEMENT_3D('',#1976,#1531,#1532);
#1213=DIRECTION('',(0.,0.,1.));
#1214=DIRECTION('',(1.,0.,0.));
#1215=DIRECTION('',(0.,1.,0.));
#1216=DIRECTION('',(1.,0.,0.));
#1217=DIRECTION('',(4.8276163524401E-17,0.,1.));
#1218=DIRECTION('',(-1.,0.,0.));
#1219=DIRECTION('',(0.,1.,0.));
#1220=DIRECTION('',(1.,0.,0.));
#1221=DIRECTION('',(0.,1.,0.));
#1222=DIRECTION('',(1.,0.,0.));
#1223=DIRECTION('',(1.,0.,0.));
#1224=DIRECTION('',(0.,1.,0.));
#1225=DIRECTION('',(1.,0.,0.));
#1226=DIRECTION('',(0.,0.,1.));
#1227=DIRECTION('',(0.,1.,0.));
#1228=DIRECTION('',(1.,0.,0.));
#1229=DIRECTION('',(1.,0.,0.));
#1230=DIRECTION('',(0.,1.,0.));
#1231=DIRECTION('',(1.,0.,0.));
#1232=DIRECTION('',(0.,0.,1.));
#1233=DIRECTION('',(0.,1.,0.));
#1234=DIRECTION('',(1.,0.,0.));
#1235=DIRECTION('',(0.,1.,0.));
#1236=DIRECTION('',(1.,0.,0.));
#1237=DIRECTION('',(-1.,0.,0.));
#1238=DIRECTION('',(0.,1.,0.));
#1239=DIRECTION('',(1.,0.,0.));
#1240=DIRECTION('',(0.,0.,-1.));
#1241=DIRECTION('',(1.,0.,0.));
#1242=DIRECTION('',(4.8276163524401E-17,0.,1.));
#1243=DIRECTION('',(0.,1.,0.));
#1244=DIRECTION('',(1.,0.,0.));
#1245=DIRECTION('',(0.,1.,0.));
#1246=DIRECTION('',(1.,0.,0.));
#1247=DIRECTION('',(-1.,0.,0.));
#1248=DIRECTION('',(0.,0.,-1.));
#1249=DIRECTION('',(0.,1.,0.));
#1250=DIRECTION('',(1.,0.,0.));
#1251=DIRECTION('',(0.,0.,1.));
#1252=DIRECTION('',(1.,0.,0.));
#1253=DIRECTION('',(0.,0.,-1.));
#1254=DIRECTION('',(-1.,0.,0.));
#1255=DIRECTION('',(0.,0.,1.));
#1256=DIRECTION('',(0.,1.,0.));
#1257=DIRECTION('',(1.,0.,0.));
#1258=DIRECTION('',(1.,0.,0.));
#1259=DIRECTION('',(0.,1.,0.));
#1260=DIRECTION('',(1.,0.,0.));
#1261=DIRECTION('',(0.,0.,1.));
#1262=DIRECTION('',(0.,1.,0.));
#1263=DIRECTION('',(1.,0.,0.));
#1264=DIRECTION('',(1.,0.,0.));
#1265=DIRECTION('',(0.,1.,0.));
#1266=DIRECTION('',(1.,0.,0.));
#1267=DIRECTION('',(-1.,0.,0.));
#1268=DIRECTION('',(0.,1.,0.));
#1269=DIRECTION('',(0.,-1.,0.));
#1270=DIRECTION('',(0.,0.,1.));
#1271=DIRECTION('',(0.,-1.,0.));
#1272=DIRECTION('',(0.,0.,-1.));
#1273=DIRECTION('',(-1.,0.,0.));
#1274=DIRECTION('',(0.,1.,0.));
#1275=DIRECTION('',(0.,1.,0.));
#1276=DIRECTION('',(-1.,0.,0.));
#1277=DIRECTION('',(0.,1.,0.));
#1278=DIRECTION('',(0.,1.05134756119806E-16,-1.));
#1279=DIRECTION('',(-1.,0.,0.));
#1280=DIRECTION('',(0.,1.,0.));
#1281=DIRECTION('',(0.,1.,0.));
#1282=DIRECTION('',(-1.,0.,0.));
#1283=DIRECTION('',(0.,1.,0.));
#1284=DIRECTION('',(0.,0.,-1.));
#1285=DIRECTION('',(0.,1.,0.));
#1286=DIRECTION('',(1.,0.,0.));
#1287=DIRECTION('',(0.,1.,0.));
#1288=DIRECTION('',(1.,0.,0.));
#1289=DIRECTION('',(0.,0.,-1.));
#1290=DIRECTION('',(0.,1.,0.));
#1291=DIRECTION('',(1.,0.,0.));
#1292=DIRECTION('',(-1.,0.,0.));
#1293=DIRECTION('',(0.,0.,1.));
#1294=DIRECTION('',(1.,0.,0.));
#1295=DIRECTION('',(0.,1.,0.));
#1296=DIRECTION('',(1.,0.,0.));
#1297=DIRECTION('',(1.,0.,0.));
#1298=DIRECTION('',(0.,0.,-1.));
#1299=DIRECTION('',(0.,1.,0.));
#1300=DIRECTION('',(0.,-1.,0.));
#1301=DIRECTION('',(1.,0.,0.));
#1302=DIRECTION('',(0.,-1.,0.));
#1303=DIRECTION('',(1.,0.,0.));
#1304=DIRECTION('',(0.,0.,1.));
#1305=DIRECTION('',(0.,-1.,0.));
#1306=DIRECTION('',(1.,0.,0.));
#1307=DIRECTION('',(0.,1.,0.));
#1308=DIRECTION('',(1.,0.,0.));
#1309=DIRECTION('',(0.,1.,0.));
#1310=DIRECTION('',(1.,0.,0.));
#1311=DIRECTION('',(-1.,0.,0.));
#1312=DIRECTION('',(0.,1.,0.));
#1313=DIRECTION('',(1.,0.,0.));
#1314=DIRECTION('',(4.8276163524401E-17,0.,1.));
#1315=DIRECTION('',(0.,1.,0.));
#1316=DIRECTION('',(1.,0.,0.));
#1317=DIRECTION('',(0.,0.,1.));
#1318=DIRECTION('',(-1.,0.,0.));
#1319=DIRECTION('',(0.,1.,0.));
#1320=DIRECTION('',(1.,0.,0.));
#1321=DIRECTION('',(0.,0.,-1.));
#1322=DIRECTION('',(0.,1.,0.));
#1323=DIRECTION('',(1.,0.,0.));
#1324=DIRECTION('',(1.,0.,0.));
#1325=DIRECTION('',(0.,0.,1.));
#1326=DIRECTION('',(1.,0.,-4.8276163524401E-17));
#1327=DIRECTION('',(-4.8276163524401E-17,0.,-1.));
#1328=DIRECTION('',(0.,-1.,0.));
#1329=DIRECTION('',(4.8276163524401E-17,0.,1.));
#1330=DIRECTION('',(0.,-1.,0.));
#1331=DIRECTION('',(-1.,0.,0.));
#1332=DIRECTION('',(0.,1.,0.));
#1333=DIRECTION('',(0.,0.,-1.));
#1334=DIRECTION('',(0.,-1.,0.));
#1335=DIRECTION('',(-1.,0.,0.));
#1336=DIRECTION('',(0.,1.,0.));
#1337=DIRECTION('',(0.,-1.,0.));
#1338=DIRECTION('',(-1.,0.,0.));
#1339=DIRECTION('',(0.,1.,0.));
#1340=DIRECTION('',(0.,-1.05134756119806E-16,1.));
#1341=DIRECTION('',(-1.,0.,0.));
#1342=DIRECTION('',(0.,1.,0.));
#1343=DIRECTION('',(0.,-1.,0.));
#1344=DIRECTION('',(-1.,0.,0.));
#1345=DIRECTION('',(0.,1.,0.));
#1346=DIRECTION('',(0.,0.,-1.));
#1347=DIRECTION('',(0.,-1.,0.));
#1348=DIRECTION('',(-1.,0.,0.));
#1349=DIRECTION('',(0.,1.,0.));
#1350=DIRECTION('',(0.,-1.,0.));
#1351=DIRECTION('',(0.,0.,-1.));
#1352=DIRECTION('',(0.,-1.,0.));
#1353=DIRECTION('',(0.,0.,-1.));
#1354=DIRECTION('',(0.,1.,0.));
#1355=DIRECTION('',(0.,-1.,0.));
#1356=DIRECTION('',(1.,0.,0.));
#1357=DIRECTION('',(0.,-1.,0.));
#1358=DIRECTION('',(0.,0.,-1.));
#1359=DIRECTION('',(0.,1.,0.));
#1360=DIRECTION('',(0.,0.,1.));
#1361=DIRECTION('',(0.,-1.,0.));
#1362=DIRECTION('',(0.,-1.,0.));
#1363=DIRECTION('',(-1.,0.,0.));
#1364=DIRECTION('',(0.,-1.,0.));
#1365=DIRECTION('',(0.,0.,1.));
#1366=DIRECTION('',(0.,-1.,0.));
#1367=DIRECTION('',(-1.,0.,0.));
#1368=DIRECTION('',(0.,0.,1.));
#1369=DIRECTION('',(0.,-1.,0.));
#1370=DIRECTION('',(0.,-1.,0.));
#1371=DIRECTION('',(-1.,0.,0.));
#1372=DIRECTION('',(0.,-1.,0.));
#1373=DIRECTION('',(0.,0.,1.));
#1374=DIRECTION('',(0.,-1.,0.));
#1375=DIRECTION('',(0.,1.,0.));
#1376=DIRECTION('',(1.,0.,0.));
#1377=DIRECTION('',(1.,0.,0.));
#1378=DIRECTION('',(0.,1.,0.));
#1379=DIRECTION('',(1.,0.,0.));
#1380=DIRECTION('',(0.,0.,1.));
#1381=DIRECTION('',(0.,1.,0.));
#1382=DIRECTION('',(1.,0.,0.));
#1383=DIRECTION('',(0.,0.,1.));
#1384=DIRECTION('',(0.,-1.,0.));
#1385=DIRECTION('',(0.,0.,1.));
#1386=DIRECTION('',(0.,-1.,0.));
#1387=DIRECTION('',(0.,0.,1.));
#1388=DIRECTION('',(0.,-1.,0.));
#1389=DIRECTION('',(1.,0.,0.));
#1390=DIRECTION('',(1.,0.,0.));
#1391=DIRECTION('',(0.,0.,1.));
#1392=DIRECTION('',(0.,-1.,0.));
#1393=DIRECTION('',(1.,0.,0.));
#1394=DIRECTION('',(1.,0.,0.));
#1395=DIRECTION('',(0.,1.,1.05134756119806E-16));
#1396=DIRECTION('',(0.,-1.05134756119806E-16,1.));
#1397=DIRECTION('',(1.,0.,0.));
#1398=DIRECTION('',(1.,0.,0.));
#1399=DIRECTION('',(0.,0.,1.));
#1400=DIRECTION('',(0.,-1.,0.));
#1401=DIRECTION('',(0.,1.,0.));
#1402=DIRECTION('',(0.,1.,0.));
#1403=DIRECTION('',(-1.,0.,0.));
#1404=DIRECTION('',(0.,1.,0.));
#1405=DIRECTION('',(0.,1.,0.));
#1406=DIRECTION('',(0.,1.,0.));
#1407=DIRECTION('',(0.,0.,1.));
#1408=DIRECTION('',(0.,-1.,0.));
#1409=DIRECTION('',(0.,1.,0.));
#1410=DIRECTION('',(0.,1.,0.));
#1411=DIRECTION('',(-1.,0.,0.));
#1412=DIRECTION('',(0.,1.,0.));
#1413=DIRECTION('',(0.,1.,0.));
#1414=DIRECTION('',(0.,1.,0.));
#1415=DIRECTION('',(0.,-1.,0.));
#1416=DIRECTION('',(-1.,0.,0.));
#1417=DIRECTION('',(0.,1.,0.));
#1418=DIRECTION('',(1.,0.,0.));
#1419=DIRECTION('',(0.,1.,0.));
#1420=DIRECTION('',(-1.,0.,0.));
#1421=DIRECTION('',(0.,-1.,0.));
#1422=DIRECTION('',(1.,0.,0.));
#1423=DIRECTION('',(0.,-1.,0.));
#1424=DIRECTION('',(-1.,0.,0.));
#1425=DIRECTION('',(0.,-1.,0.));
#1426=DIRECTION('',(-1.,0.,0.));
#1427=DIRECTION('',(0.,1.,0.));
#1428=DIRECTION('',(1.,0.,0.));
#1429=DIRECTION('',(0.,-1.,0.));
#1430=DIRECTION('',(-1.,0.,0.));
#1431=DIRECTION('',(0.,-1.,0.));
#1432=DIRECTION('',(1.,0.,0.));
#1433=DIRECTION('',(0.,-1.,0.));
#1434=DIRECTION('',(-1.,0.,0.));
#1435=DIRECTION('',(0.,-1.,0.));
#1436=DIRECTION('',(-1.,0.,0.));
#1437=DIRECTION('',(0.,-1.,0.));
#1438=DIRECTION('',(-1.,0.,0.));
#1439=DIRECTION('',(0.,-1.,0.));
#1440=DIRECTION('',(-1.,0.,0.));
#1441=DIRECTION('',(0.,1.,0.));
#1442=DIRECTION('',(1.,0.,0.));
#1443=DIRECTION('',(0.,1.,0.));
#1444=DIRECTION('',(1.,0.,0.));
#1445=DIRECTION('',(0.,-1.,0.));
#1446=DIRECTION('',(-1.,0.,0.));
#1447=DIRECTION('',(0.,-1.,0.));
#1448=DIRECTION('',(-1.,0.,0.));
#1449=DIRECTION('',(0.,1.,0.));
#1450=DIRECTION('',(1.,0.,0.));
#1451=DIRECTION('',(0.,-1.,0.));
#1452=DIRECTION('',(-1.,0.,0.));
#1453=DIRECTION('',(0.,1.,0.));
#1454=DIRECTION('',(1.,0.,0.));
#1455=DIRECTION('',(1.,0.,0.));
#1456=DIRECTION('',(0.,-1.,0.));
#1457=DIRECTION('',(-1.,0.,0.));
#1458=DIRECTION('',(0.,1.,0.));
#1459=DIRECTION('',(-1.,0.,0.));
#1460=DIRECTION('',(0.,1.,0.));
#1461=DIRECTION('',(1.,0.,0.));
#1462=DIRECTION('',(0.,-1.,0.));
#1463=DIRECTION('',(0.,-1.,0.));
#1464=DIRECTION('',(-1.,0.,0.));
#1465=DIRECTION('',(0.,-1.,0.));
#1466=DIRECTION('',(-1.,0.,0.));
#1467=DIRECTION('',(0.,1.,0.));
#1468=DIRECTION('',(1.,0.,0.));
#1469=DIRECTION('',(0.,1.,0.));
#1470=DIRECTION('',(1.,0.,0.));
#1471=DIRECTION('',(0.,1.,0.));
#1472=DIRECTION('',(1.,0.,0.));
#1473=DIRECTION('',(0.,1.,0.));
#1474=DIRECTION('',(1.,0.,0.));
#1475=DIRECTION('',(0.,1.,0.));
#1476=DIRECTION('',(1.,0.,0.));
#1477=DIRECTION('',(0.,-0.5,-0.866025403784439));
#1478=DIRECTION('',(1.,0.,0.));
#1479=DIRECTION('',(0.,-0.866025403784439,0.5));
#1480=DIRECTION('',(0.,0.866025403784439,-0.5));
#1481=DIRECTION('',(0.,1.,0.));
#1482=DIRECTION('',(1.,0.,0.));
#1483=DIRECTION('',(-0.5,-0.866025403784439,0.));
#1484=DIRECTION('',(0.,1.,0.));
#1485=DIRECTION('',(1.,0.,0.));
#1486=DIRECTION('',(-0.5,0.866025403784439,0.));
#1487=DIRECTION('',(-0.866025403784439,0.5,0.));
#1488=DIRECTION('',(0.,0.,1.));
#1489=DIRECTION('',(-0.866025403784439,-0.5,0.));
#1490=DIRECTION('',(0.,0.,-1.));
#1491=DIRECTION('',(-0.5,0.866025403784439,0.));
#1492=DIRECTION('',(0.,1.,0.));
#1493=DIRECTION('',(1.,0.,0.));
#1494=DIRECTION('',(0.,0.866025403784439,0.5));
#1495=DIRECTION('',(0.,-0.5,0.866025403784439));
#1496=DIRECTION('',(-1.,0.,0.));
#1497=DIRECTION('',(0.,-1.,0.));
#1498=DIRECTION('',(-1.,0.,0.));
#1499=DIRECTION('',(0.,-1.,0.));
#1500=DIRECTION('',(-1.,0.,0.));
#1501=DIRECTION('',(0.,-1.,0.));
#1502=DIRECTION('',(-1.,0.,0.));
#1503=DIRECTION('',(0.,-0.989949493661166,0.141421356237309));
#1504=DIRECTION('',(0.,-0.141421356237309,-0.989949493661167));
#1505=DIRECTION('',(0.,0.,-1.));
#1506=DIRECTION('',(0.,1.,0.));
#1507=DIRECTION('',(0.,-0.14142135623731,0.989949493661166));
#1508=DIRECTION('',(0.,-0.989949493661166,-0.14142135623731));
#1509=DIRECTION('',(-0.496138938356834,0.,0.868243142124459));
#1510=DIRECTION('',(0.868243142124459,0.,0.496138938356834));
#1511=DIRECTION('',(-0.868243142124459,0.,0.496138938356833));
#1512=DIRECTION('',(0.496138938356834,0.,0.868243142124459));
#1513=DIRECTION('',(1.,0.,0.));
#1514=DIRECTION('',(0.,-1.,0.));
#1515=DIRECTION('',(-0.868243142124459,0.,-0.496138938356834));
#1516=DIRECTION('',(-0.496138938356834,0.,0.868243142124459));
#1517=DIRECTION('',(-0.496138938356834,0.,-0.868243142124459));
#1518=DIRECTION('',(-0.868243142124459,0.,0.496138938356834));
#1519=DIRECTION('',(4.8276163524401E-17,0.,1.));
#1520=DIRECTION('',(1.,0.,-4.8276163524401E-17));
#1521=DIRECTION('',(-4.77909636368844E-17,0.14142135623731,-0.989949493661166));
#1522=DIRECTION('',(0.,-0.989949493661166,-0.14142135623731));
#1523=DIRECTION('',(0.,-1.,0.));
#1524=DIRECTION('',(-1.,0.,0.));
#1525=DIRECTION('',(-6.82728051955487E-18,0.989949493661166,-0.141421356237309));
#1526=DIRECTION('',(0.,-0.141421356237309,-0.989949493661167));
#1527=DIRECTION('',(1.,0.,-2.16840434497101E-16));
#1528=DIRECTION('',(-2.16840434497101E-16,0.,-1.));
#1529=DIRECTION('',(-1.,0.,0.));
#1530=DIRECTION('',(0.,1.,0.));
#1531=DIRECTION('',(1.,0.,0.));
#1532=DIRECTION('',(0.,-1.,0.));
#1533=CARTESIAN_POINT('',(0.,0.,0.));
#1534=CARTESIAN_POINT('',(0.0295,-0.006,-0.0509));
#1535=CARTESIAN_POINT('',(0.002,-0.006,-0.0509));
#1536=CARTESIAN_POINT('',(0.002,-0.006,-0.0981166247903554));
#1537=CARTESIAN_POINT('',(0.002,-0.006,-0.0988));
#1538=CARTESIAN_POINT('',(0.0295,-0.006,-0.0988));
#1539=CARTESIAN_POINT('',(0.00252786404500041,-0.006,-0.0988));
#1540=CARTESIAN_POINT('',(0.007,-0.006,-0.0948));
#1541=CARTESIAN_POINT('',(0.0295,-0.006,-0.0509));
#1542=CARTESIAN_POINT('',(0.0295,-0.006,-0.0675));
#1543=CARTESIAN_POINT('',(0.0125,-0.006,-0.0675));
#1544=CARTESIAN_POINT('',(0.0465,-0.006,-0.0675));
#1545=CARTESIAN_POINT('',(0.0125,-0.006,-0.0645));
#1546=CARTESIAN_POINT('',(0.0095,-0.006,-0.0645));
#1547=CARTESIAN_POINT('',(0.0095,-0.006,-0.0509));
#1548=CARTESIAN_POINT('',(0.0095,-0.006,-0.0125));
#1549=CARTESIAN_POINT('',(0.0125,-0.006,-0.0125));
#1550=CARTESIAN_POINT('',(0.0125,-0.006,-0.0095));
#1551=CARTESIAN_POINT('',(0.0295,-0.006,-0.0095));
#1552=CARTESIAN_POINT('',(0.0465,-0.006,-0.0095));
#1553=CARTESIAN_POINT('',(0.0465,-0.006,-0.0125));
#1554=CARTESIAN_POINT('',(0.0495,-0.006,-0.0125));
#1555=CARTESIAN_POINT('',(0.0495,-0.006,-0.0509));
#1556=CARTESIAN_POINT('',(0.0495,-0.006,-0.0645));
#1557=CARTESIAN_POINT('',(0.0465,-0.006,-0.0645));
#1558=CARTESIAN_POINT('',(0.007,-0.006,-0.0948));
#1559=CARTESIAN_POINT('',(0.002,-0.006,-0.0914833752096446));
#1560=CARTESIAN_POINT('',(0.0114721359549996,-0.006,-0.0988));
#1561=CARTESIAN_POINT('',(0.0295,-0.006,-0.0988));
#1562=CARTESIAN_POINT('',(0.0475278640450004,-0.006,-0.0988));
#1563=CARTESIAN_POINT('',(0.052,-0.006,-0.0948));
#1564=CARTESIAN_POINT('',(0.057,-0.006,-0.0914833752096446));
#1565=CARTESIAN_POINT('',(0.057,-0.006,-0.0509));
#1566=CARTESIAN_POINT('',(0.057,-0.006,-0.004));
#1567=CARTESIAN_POINT('',(0.0295,-0.006,-0.004));
#1568=CARTESIAN_POINT('',(0.002,-0.006,-0.004));
#1569=CARTESIAN_POINT('',(0.002,-0.006,-0.0509));
#1570=CARTESIAN_POINT('',(0.0295,-0.006,-0.0509));
#1571=CARTESIAN_POINT('',(0.052,-0.006,-0.0948));
#1572=CARTESIAN_POINT('',(0.057,-0.006,-0.0981166247903554));
#1573=CARTESIAN_POINT('',(0.0564721359549996,-0.006,-0.0988));
#1574=CARTESIAN_POINT('',(0.0295,-0.006,-0.0988));
#1575=CARTESIAN_POINT('',(0.057,-0.006,-0.0988));
#1576=CARTESIAN_POINT('',(0.057,-0.006,-0.0509));
#1577=CARTESIAN_POINT('',(0.0295,0.,-0.0509));
#1578=CARTESIAN_POINT('',(0.002,0.,-0.0509));
#1579=CARTESIAN_POINT('',(0.002,0.,-0.075));
#1580=CARTESIAN_POINT('',(0.002,0.,-0.002));
#1581=CARTESIAN_POINT('',(0.0295,0.,-0.002));
#1582=CARTESIAN_POINT('',(0.057,0.,-0.002));
#1583=CARTESIAN_POINT('',(0.057,0.,-0.075));
#1584=CARTESIAN_POINT('',(0.057,0.,-0.075));
#1585=CARTESIAN_POINT('',(0.0295,0.,-0.075));
#1586=CARTESIAN_POINT('',(0.0095,0.,-0.0385));
#1587=CARTESIAN_POINT('',(0.0095,0.,-0.0645));
#1588=CARTESIAN_POINT('',(0.0095,0.,-0.0125));
#1589=CARTESIAN_POINT('',(0.0125,0.,-0.0645));
#1590=CARTESIAN_POINT('',(0.0125,0.,-0.0675));
#1591=CARTESIAN_POINT('',(0.0295,0.,-0.0675));
#1592=CARTESIAN_POINT('',(0.0465,0.,-0.0675));
#1593=CARTESIAN_POINT('',(0.0465,0.,-0.0645));
#1594=CARTESIAN_POINT('',(0.0495,0.,-0.0645));
#1595=CARTESIAN_POINT('',(0.0495,0.,-0.0385));
#1596=CARTESIAN_POINT('',(0.0495,0.,-0.0125));
#1597=CARTESIAN_POINT('',(0.0465,0.,-0.0125));
#1598=CARTESIAN_POINT('',(0.0465,0.,-0.0095));
#1599=CARTESIAN_POINT('',(0.0295,0.,-0.0095));
#1600=CARTESIAN_POINT('',(0.0125,0.,-0.0095));
#1601=CARTESIAN_POINT('',(0.0125,0.,-0.0125));
#1602=CARTESIAN_POINT('',(0.059,0.016,-0.0385));
#1603=CARTESIAN_POINT('',(0.059,0.016,-0.075));
#1604=CARTESIAN_POINT('',(0.059,0.016,-0.075));
#1605=CARTESIAN_POINT('',(0.059,0.00346410161513775,-0.075));
#1606=CARTESIAN_POINT('',(0.059,0.00346410161513775,-0.002));
#1607=CARTESIAN_POINT('',(0.059,0.00346410161480291,-0.002));
#1608=CARTESIAN_POINT('',(0.059,0.016,-0.002));
#1609=CARTESIAN_POINT('',(0.059,0.016,-0.002));
#1610=CARTESIAN_POINT('',(0.059,0.016,-0.0385));
#1611=CARTESIAN_POINT('',(0.059,0.016,-0.047));
#1612=CARTESIAN_POINT('',(0.059,0.014,-0.047));
#1613=CARTESIAN_POINT('',(0.059,0.014,-0.049));
#1614=CARTESIAN_POINT('',(0.059,0.016,-0.049));
#1615=CARTESIAN_POINT('',(0.059,0.006,-0.049));
#1616=CARTESIAN_POINT('',(0.059,0.006,-0.051));
#1617=CARTESIAN_POINT('',(0.059,0.004,-0.051));
#1618=CARTESIAN_POINT('',(0.059,0.004,-0.0385));
#1619=CARTESIAN_POINT('',(0.059,0.004,-0.0635));
#1620=CARTESIAN_POINT('',(0.059,0.006,-0.0635));
#1621=CARTESIAN_POINT('',(0.059,0.006,-0.0655));
#1622=CARTESIAN_POINT('',(0.059,0.016,-0.0655));
#1623=CARTESIAN_POINT('',(0.059,0.014,-0.0655));
#1624=CARTESIAN_POINT('',(0.059,0.014,-0.0675));
#1625=CARTESIAN_POINT('',(0.059,0.016,-0.0675));
#1626=CARTESIAN_POINT('',(0.059,0.016,-0.0385));
#1627=CARTESIAN_POINT('',(0.0295,0.016,-0.0509));
#1628=CARTESIAN_POINT('',(0.052,0.016,-0.0948));
#1629=CARTESIAN_POINT('',(0.0546,0.016,-0.0948));
#1630=CARTESIAN_POINT('',(0.064,0.016,-0.0509));
#1631=CARTESIAN_POINT('',(0.064,0.016,-0.0675));
#1632=CARTESIAN_POINT('',(0.064,0.016,-0.0978));
#1633=CARTESIAN_POINT('',(0.057,0.016,-0.0978));
#1634=CARTESIAN_POINT('',(0.057,0.016,-0.1048));
#1635=CARTESIAN_POINT('',(0.0295,0.016,-0.1048));
#1636=CARTESIAN_POINT('',(0.0355,0.016,-0.1048));
#1637=CARTESIAN_POINT('',(0.0355,0.016,-0.128028471980099));
#1638=CARTESIAN_POINT('',(0.0355,0.016,-0.077));
#1639=CARTESIAN_POINT('',(0.0295,0.016,-0.077));
#1640=CARTESIAN_POINT('',(0.057,0.016,-0.077));
#1641=CARTESIAN_POINT('',(0.057,0.016,-0.075));
#1642=CARTESIAN_POINT('',(0.0295,0.016,-0.0675));
#1643=CARTESIAN_POINT('',(0.0295,0.016,0.003));
#1644=CARTESIAN_POINT('',(-0.002,0.016,0.003));
#1645=CARTESIAN_POINT('',(-0.002,0.016,0.003));
#1646=CARTESIAN_POINT('',(-0.002,0.001,0.003));
#1647=CARTESIAN_POINT('',(0.0295,0.001,0.003));
#1648=CARTESIAN_POINT('',(0.061,0.001,0.003));
#1649=CARTESIAN_POINT('',(0.061,0.016,0.003));
#1650=CARTESIAN_POINT('',(0.061,0.016,0.003));
#1651=CARTESIAN_POINT('',(0.0295,0.016,0.003));
#1652=CARTESIAN_POINT('',(0.0355,0.016,0.003));
#1653=CARTESIAN_POINT('',(0.0295,0.016,0.003));
#1654=CARTESIAN_POINT('',(0.0235,0.016,0.003));
#1655=CARTESIAN_POINT('',(0.0295,0.016,0.003));
#1656=CARTESIAN_POINT('',(0.0295,0.016,-0.0509));
#1657=CARTESIAN_POINT('',(0.007,0.016,-0.0948));
#1658=CARTESIAN_POINT('',(0.0096,0.016,-0.0948));
#1659=CARTESIAN_POINT('',(0.0295,0.016,-0.1048));
#1660=CARTESIAN_POINT('',(0.0235,0.016,-0.1048));
#1661=CARTESIAN_POINT('',(0.002,0.016,-0.1048));
#1662=CARTESIAN_POINT('',(0.002,0.016,-0.0978));
#1663=CARTESIAN_POINT('',(-0.005,0.016,-0.0978));
#1664=CARTESIAN_POINT('',(-0.005,0.016,-0.0509));
#1665=CARTESIAN_POINT('',(-0.005,0.016,0.));
#1666=CARTESIAN_POINT('',(-0.002,0.016,2.60208521396521E-18));
#1667=CARTESIAN_POINT('',(0.0235,0.016,-0.128028471980099));
#1668=CARTESIAN_POINT('',(0.0235,0.016,0.));
#1669=CARTESIAN_POINT('',(0.04425,0.016,0.));
#1670=CARTESIAN_POINT('',(0.002,0.016,0.));
#1671=CARTESIAN_POINT('',(0.002,0.016,-0.002));
#1672=CARTESIAN_POINT('',(0.,0.016,-0.002));
#1673=CARTESIAN_POINT('',(0.,0.016,-0.0385));
#1674=CARTESIAN_POINT('',(0.,0.016,-0.075));
#1675=CARTESIAN_POINT('',(0.002,0.016,-0.075));
#1676=CARTESIAN_POINT('',(0.002,0.016,-0.077));
#1677=CARTESIAN_POINT('',(0.0295,0.016,-0.077));
#1678=CARTESIAN_POINT('',(0.0235,0.016,-0.077));
#1679=CARTESIAN_POINT('',(0.0235,0.016,-0.128028471980099));
#1680=CARTESIAN_POINT('',(-0.005,0.016,-0.0509));
#1681=CARTESIAN_POINT('',(-0.005,0.016,-0.0978));
#1682=CARTESIAN_POINT('',(-0.005,0.001,-0.0978));
#1683=CARTESIAN_POINT('',(-0.005,0.001,-0.0509));
#1684=CARTESIAN_POINT('',(-0.005,0.001,0.));
#1685=CARTESIAN_POINT('',(-0.005,0.016,0.));
#1686=CARTESIAN_POINT('',(0.064,0.016,-0.0509));
#1687=CARTESIAN_POINT('',(0.064,0.001,-0.0509));
#1688=CARTESIAN_POINT('',(0.064,0.001,0.));
#1689=CARTESIAN_POINT('',(0.064,0.001,-0.0978));
#1690=CARTESIAN_POINT('',(0.064,0.016,-0.0978));
#1691=CARTESIAN_POINT('',(0.064,0.014,-0.0675));
#1692=CARTESIAN_POINT('',(0.064,0.014,-0.0655));
#1693=CARTESIAN_POINT('',(0.064,0.01,-0.0655));
#1694=CARTESIAN_POINT('',(0.064,0.006,-0.0655));
#1695=CARTESIAN_POINT('',(0.064,0.006,-0.0635));
#1696=CARTESIAN_POINT('',(0.064,0.004,-0.0635));
#1697=CARTESIAN_POINT('',(0.064,0.004,-0.05725));
#1698=CARTESIAN_POINT('',(0.064,0.004,-0.051));
#1699=CARTESIAN_POINT('',(0.064,0.006,-0.051));
#1700=CARTESIAN_POINT('',(0.064,0.006,-0.049));
#1701=CARTESIAN_POINT('',(0.064,0.01,-0.049));
#1702=CARTESIAN_POINT('',(0.064,0.014,-0.049));
#1703=CARTESIAN_POINT('',(0.064,0.014,-0.047));
#1704=CARTESIAN_POINT('',(0.064,0.016,-0.047));
#1705=CARTESIAN_POINT('',(0.064,0.016,-0.0509));
#1706=CARTESIAN_POINT('',(0.064,0.016,0.));
#1707=CARTESIAN_POINT('',(0.064,0.016,0.));
#1708=CARTESIAN_POINT('',(0.,0.016,-0.0385));
#1709=CARTESIAN_POINT('',(0.,0.,-0.002));
#1710=CARTESIAN_POINT('',(0.,0.00346410161513775,-0.002));
#1711=CARTESIAN_POINT('',(0.,0.00346410161513775,-0.0385));
#1712=CARTESIAN_POINT('',(0.,0.00346410161513775,-0.075));
#1713=CARTESIAN_POINT('',(0.,0.016,-0.075));
#1714=CARTESIAN_POINT('',(0.0295,0.016,-0.077));
#1715=CARTESIAN_POINT('',(0.002,0.,-0.077));
#1716=CARTESIAN_POINT('',(0.002,0.00346410161513775,-0.077));
#1717=CARTESIAN_POINT('',(0.0295,0.00346410161513775,-0.077));
#1718=CARTESIAN_POINT('',(0.057,0.00346410161513776,-0.077));
#1719=CARTESIAN_POINT('',(0.057,0.016,-0.077));
#1720=CARTESIAN_POINT('',(0.0295,0.016,-0.077));
#1721=CARTESIAN_POINT('',(0.04425,0.016,0.));
#1722=CARTESIAN_POINT('',(0.057,0.016,0.));
#1723=CARTESIAN_POINT('',(0.057,0.016,0.));
#1724=CARTESIAN_POINT('',(0.0570012281435866,0.00346410160564198,8.67554834477299E-6));
#1725=CARTESIAN_POINT('',(0.04425,0.00346410161513775,0.));
#1726=CARTESIAN_POINT('',(0.002,0.00346410161513775,0.));
#1727=CARTESIAN_POINT('',(0.002,0.016,0.));
#1728=CARTESIAN_POINT('',(0.0295,0.016,0.));
#1729=CARTESIAN_POINT('',(0.0355,0.016,0.));
#1730=CARTESIAN_POINT('',(0.04425,0.016,0.));
#1731=CARTESIAN_POINT('',(0.0295,0.016,-0.1048));
#1732=CARTESIAN_POINT('',(0.057,0.016,-0.1048));
#1733=CARTESIAN_POINT('',(0.057,0.,-0.1048));
#1734=CARTESIAN_POINT('',(0.0295,0.,-0.1048));
#1735=CARTESIAN_POINT('',(0.002,0.,-0.1048));
#1736=CARTESIAN_POINT('',(0.002,0.016,-0.1048));
#1737=CARTESIAN_POINT('',(0.0295,0.016,-0.1048));
#1738=CARTESIAN_POINT('',(0.0295,0.016,-0.0509));
#1739=CARTESIAN_POINT('',(0.059,0.016,-0.047));
#1740=CARTESIAN_POINT('',(0.057,0.016,-0.002));
#1741=CARTESIAN_POINT('',(0.0355,0.016,-0.128028471980099));
#1742=CARTESIAN_POINT('',(0.061,0.016,0.));
#1743=CARTESIAN_POINT('',(0.0295,0.016,-0.128028471980099));
#1744=CARTESIAN_POINT('',(0.0295,0.016,-0.128028471980099));
#1745=CARTESIAN_POINT('',(0.039,0.01,-0.0655));
#1746=CARTESIAN_POINT('',(0.064,0.006,-0.0655));
#1747=CARTESIAN_POINT('',(0.039,0.014,-0.0655));
#1748=CARTESIAN_POINT('',(0.039,0.01,-0.049));
#1749=CARTESIAN_POINT('',(0.039,0.006,-0.049));
#1750=CARTESIAN_POINT('',(0.064,0.014,-0.049));
#1751=CARTESIAN_POINT('',(0.039,0.004,-0.05725));
#1752=CARTESIAN_POINT('',(0.039,0.004,-0.051));
#1753=CARTESIAN_POINT('',(0.059,0.004,-0.0635));
#1754=CARTESIAN_POINT('',(0.0295,-0.129878548925442,-0.0675));
#1755=CARTESIAN_POINT('',(0.0125,-0.129878548925442,-0.0675));
#1756=CARTESIAN_POINT('',(0.0465,0.,-0.0675));
#1757=CARTESIAN_POINT('',(0.0095,-0.129878548925442,-0.0385));
#1758=CARTESIAN_POINT('',(0.0095,-0.006,-0.0125));
#1759=CARTESIAN_POINT('',(0.0095,-0.129878548925442,-0.0645));
#1760=CARTESIAN_POINT('',(0.0295,-0.129878548925442,-0.0095));
#1761=CARTESIAN_POINT('',(0.0125,0.,-0.0095));
#1762=CARTESIAN_POINT('',(0.0465,-0.129878548925442,-0.0095));
#1763=CARTESIAN_POINT('',(0.0495,-0.129878548925442,-0.0385));
#1764=CARTESIAN_POINT('',(0.0495,-0.129878548925442,-0.0125));
#1765=CARTESIAN_POINT('',(0.0495,-0.006,-0.0645));
#1766=CARTESIAN_POINT('',(0.052,0.011,-0.0948));
#1767=CARTESIAN_POINT('',(0.052,-0.005,-0.0948));
#1768=CARTESIAN_POINT('',(0.057,-0.005,-0.0948));
#1769=CARTESIAN_POINT('',(0.052,0.011,-0.0948));
#1770=CARTESIAN_POINT('',(0.047,0.011,-0.0948));
#1771=CARTESIAN_POINT('',(0.0295,0.011,-0.0509));
#1772=CARTESIAN_POINT('',(0.052,0.011,-0.0948));
#1773=CARTESIAN_POINT('',(0.0494,0.011,-0.0948));
#1774=CARTESIAN_POINT('',(0.007,0.011,-0.0948));
#1775=CARTESIAN_POINT('',(0.007,-0.005,-0.0948));
#1776=CARTESIAN_POINT('',(0.012,-0.005,-0.0948));
#1777=CARTESIAN_POINT('',(0.007,0.011,-0.0948));
#1778=CARTESIAN_POINT('',(0.002,0.011,-0.0948));
#1779=CARTESIAN_POINT('',(0.0295,0.011,-0.0509));
#1780=CARTESIAN_POINT('',(0.007,0.011,-0.0948));
#1781=CARTESIAN_POINT('',(0.0044,0.011,-0.0948));
#1782=CARTESIAN_POINT('',(0.007,0.140878548925442,-0.0948));
#1783=CARTESIAN_POINT('',(0.052,0.140878548925442,-0.0948));
#1784=CARTESIAN_POINT('',(0.0125,-0.129878548925442,-0.0125));
#1785=CARTESIAN_POINT('',(0.0465,-0.129878548925442,-0.0125));
#1786=CARTESIAN_POINT('',(0.0125,-0.129878548925442,-0.0645));
#1787=CARTESIAN_POINT('',(0.0465,-0.129878548925442,-0.0645));
#1788=CARTESIAN_POINT('',(-0.002,0.016,2.60208521396521E-18));
#1789=CARTESIAN_POINT('',(-0.002,0.001,2.60208521396521E-18));
#1790=CARTESIAN_POINT('',(0.061,0.016,0.));
#1791=CARTESIAN_POINT('',(0.061,0.001,2.60208521396521E-18));
#1792=CARTESIAN_POINT('',(0.039,0.006,-0.051));
#1793=CARTESIAN_POINT('',(0.039,0.006,-0.0635));
#1794=CARTESIAN_POINT('',(0.039,0.014,-0.047));
#1795=CARTESIAN_POINT('',(0.0295,0.014,-0.0675));
#1796=CARTESIAN_POINT('',(0.057,0.016,-0.002));
#1797=CARTESIAN_POINT('',(0.0572803325573638,0.00346410161513775,-1.97440424829242E-5));
#1798=CARTESIAN_POINT('',(0.0577378641497792,0.00346410165040871,-8.45139531046588E-5));
#1799=CARTESIAN_POINT('',(0.0581671438319653,0.00346410161512802,-0.000311377748757688));
#1800=CARTESIAN_POINT('',(0.0587897501535013,0.00346410161514136,-0.000994781506374146));
#1801=CARTESIAN_POINT('',(0.0589765546052577,0.00346410161513656,-0.00145055093697589));
#1802=CARTESIAN_POINT('',(0.0589978296386318,0.00346410161513775,-0.00190685100642418));
#1803=CARTESIAN_POINT('',(0.057,0.016,-0.075));
#1804=CARTESIAN_POINT('',(0.057,0.00346410161513776,-0.075));
#1805=CARTESIAN_POINT('',(0.002,0.016,-0.002));
#1806=CARTESIAN_POINT('',(0.002,0.00346410161513775,-0.002));
#1807=CARTESIAN_POINT('',(0.002,0.016,-0.075));
#1808=CARTESIAN_POINT('',(0.002,0.00346410161513775,-0.075));
#1809=CARTESIAN_POINT('',(0.0295,0.00346410161513775,-0.077));
#1810=CARTESIAN_POINT('',(0.057,0.00346410161513775,-0.077));
#1811=CARTESIAN_POINT('',(0.002,0.,-0.075));
#1812=CARTESIAN_POINT('',(0.057,0.00346410161513776,-0.075));
#1813=CARTESIAN_POINT('',(0.059,0.00346410161513776,-0.075));
#1814=CARTESIAN_POINT('',(0.002,0.00346410161513775,-0.075));
#1815=CARTESIAN_POINT('',(0.002,0.,-0.075));
#1816=CARTESIAN_POINT('',(0.057,0.,-0.0509));
#1817=CARTESIAN_POINT('',(0.0569999999999992,-1.32546438392771E-15,-0.0019999999967667));
#1818=CARTESIAN_POINT('',(0.057666847333844,0.00115501346310968,-0.00199996630334827));
#1819=CARTESIAN_POINT('',(0.0583336946676888,0.00231002692622069,-0.00199993260992983));
#1820=CARTESIAN_POINT('',(0.0590005420015336,0.00346504038933171,-0.0019998989165114));
#1821=CARTESIAN_POINT('',(0.,0.00346410161513775,-0.0385));
#1822=CARTESIAN_POINT('',(0.002,0.,-0.002));
#1823=CARTESIAN_POINT('',(0.057,0.,-0.002));
#1824=CARTESIAN_POINT('',(0.057,0.,-0.002));
#1825=CARTESIAN_POINT('',(0.057,0.,-0.002));
#1826=CARTESIAN_POINT('',(0.057,0.,-0.002));
#1827=CARTESIAN_POINT('',(0.057,0.,-0.002));
#1828=CARTESIAN_POINT('',(0.0570000000035599,0.,-0.0019999999967666));
#1829=CARTESIAN_POINT('',(0.0570000000035599,0.,-0.0019999999967666));
#1830=CARTESIAN_POINT('',(0.057,0.,-0.002));
#1831=CARTESIAN_POINT('',(0.057,0.,-0.002));
#1832=CARTESIAN_POINT('',(0.057,0.,-0.002));
#1833=CARTESIAN_POINT('',(0.057,0.,-0.002));
#1834=CARTESIAN_POINT('',(0.057,0.,-0.002));
#1835=CARTESIAN_POINT('',(0.0570020807238935,0.00346410159368741,1.96463442859138E-5));
#1836=CARTESIAN_POINT('',(0.0570948313350503,0.00346410160083752,6.51621536296779E-6));
#1837=CARTESIAN_POINT('',(0.057187581946207,0.00346410160798764,-6.61391355997822E-6));
#1838=CARTESIAN_POINT('',(0.0572803325573638,0.00346410161513775,-1.97440424829242E-5));
#1839=CARTESIAN_POINT('',(0.0577378641497792,0.00346410165040871,-8.45139531046588E-5));
#1840=CARTESIAN_POINT('',(0.0581671438319653,0.00346410161512802,-0.000311377748757688));
#1841=CARTESIAN_POINT('',(0.0587897501535013,0.00346410161514136,-0.000994781506374146));
#1842=CARTESIAN_POINT('',(0.0589765546052577,0.00346410161513656,-0.00145055093697589));
#1843=CARTESIAN_POINT('',(0.0589978296386318,0.00346410161513775,-0.00190685100642418));
#1844=CARTESIAN_POINT('',(0.0589992757611325,0.00346410161513784,-0.00193786697645326));
#1845=CARTESIAN_POINT('',(0.0590007218836332,0.00346410161513791,-0.00196888294648235));
#1846=CARTESIAN_POINT('',(0.0590021680061339,0.003464101615138,-0.00199989891651143));
#1847=CARTESIAN_POINT('',(0.057,0.00346410161513775,0.));
#1848=CARTESIAN_POINT('',(0.057,0.0023094010767585,-0.000666666666666667));
#1849=CARTESIAN_POINT('',(0.057,0.00115470053837925,-0.00133333333333333));
#1850=CARTESIAN_POINT('',(0.057,-8.67361737988404E-19,-0.002));
#1851=CARTESIAN_POINT('',(0.002,0.00346410161513775,-0.002));
#1852=CARTESIAN_POINT('',(0.002,0.,-0.002));
#1853=CARTESIAN_POINT('',(0.04425,0.00346410161513775,0.));
#1854=CARTESIAN_POINT('',(0.052,-0.006,-0.0948));
#1855=CARTESIAN_POINT('',(0.0475278640450004,-0.006,-0.0988));
#1856=CARTESIAN_POINT('',(0.0480860256452308,-0.006,-0.0994240436402726));
#1857=CARTESIAN_POINT('',(0.0495281354137657,-0.00583180772119006,-0.100272043518907));
#1858=CARTESIAN_POINT('',(0.052001161146066,-0.00569669216358494,-0.100675888495471));
#1859=CARTESIAN_POINT('',(0.0544655417300558,-0.00583136795462811,-0.100274346788486));
#1860=CARTESIAN_POINT('',(0.0559147371991078,-0.006,-0.099423190754374));
#1861=CARTESIAN_POINT('',(0.0564721359549996,-0.006,-0.0988));
#1862=CARTESIAN_POINT('',(0.057,-0.006,-0.0981166247903554));
#1863=CARTESIAN_POINT('',(0.0576505386993404,-0.006,-0.0971359008006655));
#1864=CARTESIAN_POINT('',(0.0582237094072957,-0.00587400787908894,-0.0948013688048784));
#1865=CARTESIAN_POINT('',(0.057650058158916,-0.006,-0.0924633747573872));
#1866=CARTESIAN_POINT('',(0.057,-0.006,-0.0914833752096446));
#1867=CARTESIAN_POINT('',(0.007,-0.005,-0.0948));
#1868=CARTESIAN_POINT('',(0.00252786404500041,-0.006,-0.0988));
#1869=CARTESIAN_POINT('',(0.0030860256452308,-0.006,-0.0994240436402726));
#1870=CARTESIAN_POINT('',(0.00452813541376569,-0.00583180772119007,-0.100272043518907));
#1871=CARTESIAN_POINT('',(0.007001161146066,-0.00569669216358493,-0.100675888495471));
#1872=CARTESIAN_POINT('',(0.00946554173005575,-0.0058313679546281,-0.100274346788486));
#1873=CARTESIAN_POINT('',(0.0109147371991078,-0.006,-0.099423190754374));
#1874=CARTESIAN_POINT('',(0.0114721359549996,-0.006,-0.0988));
#1875=CARTESIAN_POINT('',(0.002,-0.006,-0.0914833752096446));
#1876=CARTESIAN_POINT('',(0.00134946130065965,-0.006,-0.0924640991993345));
#1877=CARTESIAN_POINT('',(0.000776290592704331,-0.00587400787908894,-0.0947986311951216));
#1878=CARTESIAN_POINT('',(0.00134994184108398,-0.006,-0.0971366252426128));
#1879=CARTESIAN_POINT('',(0.002,-0.006,-0.0981166247903554));
#1880=CARTESIAN_POINT('',(0.057,0.016,-0.0978));
#1881=CARTESIAN_POINT('',(0.057,0.001,-0.0978));
#1882=CARTESIAN_POINT('',(0.057,0.001,-0.0509));
#1883=CARTESIAN_POINT('',(0.057,0.001,-0.0978));
#1884=CARTESIAN_POINT('',(0.057,0.001,-0.004));
#1885=CARTESIAN_POINT('',(0.061,0.001,0.003));
#1886=CARTESIAN_POINT('',(0.064,0.001,0.003));
#1887=CARTESIAN_POINT('',(0.064,0.001,2.60208521396521E-18));
#1888=CARTESIAN_POINT('',(0.0609999999999973,0.000541851061806672,0.003));
#1889=CARTESIAN_POINT('',(0.0639999999999815,0.000345501508686202,0.00299999999998814));
#1890=CARTESIAN_POINT('',(0.064,0.000541851061806672,-9.05697016668661E-16));
#1891=CARTESIAN_POINT('',(0.0609484282547365,-0.000374428900173624,0.00290974944578664));
#1892=CARTESIAN_POINT('',(0.063832562252483,-0.000937363376194447,0.00283256225247997));
#1893=CARTESIAN_POINT('',(0.0639097494457867,-0.000374428900173623,-5.15717452643524E-5));
#1894=CARTESIAN_POINT('',(0.0607193478381039,-0.00169606896677969,0.00250885871668245));
#1895=CARTESIAN_POINT('',(0.0631678626853982,-0.00257234020405435,0.002167862685399));
#1896=CARTESIAN_POINT('',(0.0635088587166824,-0.00169606896677969,-0.000280652161895857));
#1897=CARTESIAN_POINT('',(0.0603472891731188,-0.00291399939204134,0.00185775605295765));
#1898=CARTESIAN_POINT('',(0.0622707220804179,-0.0038037241558212,0.00127072208041754));
#1899=CARTESIAN_POINT('',(0.0628577560529577,-0.00291399939204134,-0.000652710826881311));
#1900=CARTESIAN_POINT('',(0.0596799251618698,-0.0043378445384906,0.000689869033272586));
#1901=CARTESIAN_POINT('',(0.0609693084668682,-0.00495154813487501,-3.06915331308154E-5));
#1902=CARTESIAN_POINT('',(0.0616898690332722,-0.0043378445384906,-0.00132007483812997));
#1903=CARTESIAN_POINT('',(0.0585706345487713,-0.00563561421796525,-0.00125138953965381));
#1904=CARTESIAN_POINT('',(0.0592156109059674,-0.00578278815767938,-0.00178438909403936));
#1905=CARTESIAN_POINT('',(0.0597486104603491,-0.00563561421796525,-0.00242936545123072));
#1906=CARTESIAN_POINT('',(0.0575235987810489,-0.00600000000000001,-0.00308370213315713));
#1907=CARTESIAN_POINT('',(0.0577199483351836,-0.00599999999999434,-0.00328005166480277));
#1908=CARTESIAN_POINT('',(0.0579162978668368,-0.00600000000000001,-0.00347640121894698));
#1909=CARTESIAN_POINT('',(0.057,-0.00600000000000001,-0.00400000000000001));
#1910=CARTESIAN_POINT('',(0.057,-0.006,-0.00400000000000001));
#1911=CARTESIAN_POINT('',(0.057,-0.00600000000000001,-0.00400000000000001));
#1912=CARTESIAN_POINT('',(0.057,0.001,-0.004));
#1913=CARTESIAN_POINT('',(0.0295,0.001,-0.004));
#1914=CARTESIAN_POINT('',(0.002,0.001,-0.004));
#1915=CARTESIAN_POINT('',(-0.005,0.001,2.60208521396521E-18));
#1916=CARTESIAN_POINT('',(-0.005,0.001,0.003));
#1917=CARTESIAN_POINT('',(-0.002,0.001,0.003));
#1918=CARTESIAN_POINT('',(-0.005,0.000541851061806672,-9.05697016668661E-16));
#1919=CARTESIAN_POINT('',(-0.00499999999998428,0.000345501508686645,0.00299999999998449));
#1920=CARTESIAN_POINT('',(-0.00199999999999909,0.000541851061806672,0.003));
#1921=CARTESIAN_POINT('',(-0.00490974944578665,-0.000374428900173623,-5.15717452643524E-5));
#1922=CARTESIAN_POINT('',(-0.00483256225248169,-0.000937363376194989,0.00283256225248159));
#1923=CARTESIAN_POINT('',(-0.00194842825473565,-0.000374428900173624,0.00290974944578664));
#1924=CARTESIAN_POINT('',(-0.00450885871668244,-0.00169606896677969,-0.000280652161895857));
#1925=CARTESIAN_POINT('',(-0.00416786268539861,-0.0025723402040541,0.00216786268539864));
#1926=CARTESIAN_POINT('',(-0.00171934783810414,-0.00169606896677969,0.00250885871668245));
#1927=CARTESIAN_POINT('',(-0.00385775605295767,-0.00291399939204134,-0.000652710826881311));
#1928=CARTESIAN_POINT('',(-0.00327072208041762,-0.00380372415582128,0.00127072208041761));
#1929=CARTESIAN_POINT('',(-0.0013472891731187,-0.00291399939204134,0.00185775605295765));
#1930=CARTESIAN_POINT('',(-0.00268986903327251,-0.0043378445384906,-0.00132007483812997));
#1931=CARTESIAN_POINT('',(-0.00196930846686912,-0.00495154813487495,-3.06915331308422E-5));
#1932=CARTESIAN_POINT('',(-0.000679925161869993,-0.0043378445384906,0.000689869033272586));
#1933=CARTESIAN_POINT('',(-0.000748610460346799,-0.00563561421796525,-0.00242936545123072));
#1934=CARTESIAN_POINT('',(-0.000215610905960927,-0.0057827881576794,-0.00178438909403934));
#1935=CARTESIAN_POINT('',(0.000429365451230416,-0.00563561421796525,-0.00125138953965381));
#1936=CARTESIAN_POINT('',(0.00108370213315842,-0.00600000000000001,-0.00347640121894698));
#1937=CARTESIAN_POINT('',(0.00128005166480332,-0.00599999999999434,-0.00328005166480277));
#1938=CARTESIAN_POINT('',(0.00147640121894762,-0.00600000000000001,-0.00308370213315713));
#1939=CARTESIAN_POINT('',(0.00200000000000001,-0.00600000000000001,-0.00400000000000001));
#1940=CARTESIAN_POINT('',(0.00200000000000001,-0.006,-0.00400000000000001));
#1941=CARTESIAN_POINT('',(0.00200000000000001,-0.00600000000000001,-0.00400000000000001));
#1942=CARTESIAN_POINT('',(0.002,0.001,-0.004));
#1943=CARTESIAN_POINT('',(0.002,0.001,-0.0509));
#1944=CARTESIAN_POINT('',(0.002,0.001,-0.0978));
#1945=CARTESIAN_POINT('',(0.002,0.016,-0.0978));
#1946=CARTESIAN_POINT('',(0.002,0.001,-0.0978));
#1947=CARTESIAN_POINT('',(-0.005,0.001,-0.0978));
#1948=CARTESIAN_POINT('',(-0.005,0.001,-0.0978));
#1949=CARTESIAN_POINT('',(-0.005,0.001,-0.0978));
#1950=CARTESIAN_POINT('',(-0.005,0.00086910028428382,-0.0987162980100081));
#1951=CARTESIAN_POINT('',(-0.00500000005516255,0.000476401202102046,-0.0983235987969902));
#1952=CARTESIAN_POINT('',(-0.005,8.3701989986737E-5,-0.0979308997157154));
#1953=CARTESIAN_POINT('',(-0.00463561421698464,0.000607341372543725,-0.100548610392196));
#1954=CARTESIAN_POINT('',(-0.00495604870384163,-0.000612190726976305,-0.0994121907274201));
#1955=CARTESIAN_POINT('',(-0.00463561421698462,-0.00174861039219314,-0.0981926586274566));
#1956=CARTESIAN_POINT('',(-0.00333784454118737,0.00033001870832454,-0.10248986904173));
#1957=CARTESIAN_POINT('',(-0.00461748649281467,-0.00219772618348342,-0.100997726183423));
#1958=CARTESIAN_POINT('',(-0.00333784454118737,-0.00368986904173038,-0.0984699812916754));
#1959=CARTESIAN_POINT('',(-0.00191399938738336,0.000163177706947446,-0.103657756051364));
#1960=CARTESIAN_POINT('',(-0.0037207462430786,-0.00366592793129142,-0.102465927931304));
#1961=CARTESIAN_POINT('',(-0.00191399938738334,-0.00485775605136416,-0.0986368222930526));
#1962=CARTESIAN_POINT('',(-0.000696068984553584,7.01630404146839E-5,-0.104308858717111));
#1963=CARTESIAN_POINT('',(-0.00247560325774464,-0.00481591244919173,-0.103615912449188));
#1964=CARTESIAN_POINT('',(-0.00069606898455358,-0.00550885871711146,-0.0987298369595853));
#1965=CARTESIAN_POINT('',(0.000625571166263865,1.28929363261021E-5,-0.104709749445664));
#1966=CARTESIAN_POINT('',(-0.000517469714237837,-0.00575249559250295,-0.104552495592503));
#1967=CARTESIAN_POINT('',(0.000625571166263888,-0.00590974944566407,-0.0987871070636739));
#1968=CARTESIAN_POINT('',(0.00154185091863505,1.63848640175414E-14,-0.1048));
#1969=CARTESIAN_POINT('',(0.0011491509861923,-0.00599999999742889,-0.104799999997431));
#1970=CARTESIAN_POINT('',(0.00154185091863507,-0.006,-0.0987999999999837));
#1971=CARTESIAN_POINT('',(0.00200000000000001,0.,-0.1048));
#1972=CARTESIAN_POINT('',(0.00200000000000004,-0.006,-0.1048));
#1973=CARTESIAN_POINT('',(0.00200000000000003,-0.006,-0.0988));
#1974=CARTESIAN_POINT('',(0.002,8.67361737988404E-19,-0.0988));
#1975=CARTESIAN_POINT('',(0.0295,0.,-0.0988));
#1976=CARTESIAN_POINT('',(0.057,0.,-0.0988));
#1977=CARTESIAN_POINT('',(0.064,0.001,-0.0978));
#1978=CARTESIAN_POINT('',(0.064,0.001,-0.0978));
#1979=CARTESIAN_POINT('',(0.064,0.001,-0.0978));
#1980=CARTESIAN_POINT('',(0.064,8.3701989986737E-5,-0.0979308997157154));
#1981=CARTESIAN_POINT('',(0.0640000000551646,0.000476401202556208,-0.0983235987974424));
#1982=CARTESIAN_POINT('',(0.064,0.00086910028428382,-0.0987162980100081));
#1983=CARTESIAN_POINT('',(0.0636356142169847,-0.00174861039219314,-0.0981926586274566));
#1984=CARTESIAN_POINT('',(0.0639560487038406,-0.000612190727198375,-0.099412190727199));
#1985=CARTESIAN_POINT('',(0.0636356142169847,0.000607341372543725,-0.100548610392196));
#1986=CARTESIAN_POINT('',(0.0623378445411873,-0.00368986904173036,-0.0984699812916754));
#1987=CARTESIAN_POINT('',(0.0636174864928147,-0.00219772618345313,-0.100997726183453));
#1988=CARTESIAN_POINT('',(0.0623378445411873,0.00033001870832454,-0.10248986904173));
#1989=CARTESIAN_POINT('',(0.0609139993873835,-0.00485775605136416,-0.0986368222930526));
#1990=CARTESIAN_POINT('',(0.0627207462430788,-0.00366592793129767,-0.102465927931298));
#1991=CARTESIAN_POINT('',(0.0609139993873835,0.000163177706947446,-0.103657756051364));
#1992=CARTESIAN_POINT('',(0.0596960689845531,-0.00550885871711146,-0.0987298369595853));
#1993=CARTESIAN_POINT('',(0.0614756032577437,-0.00481591244918995,-0.10361591244919));
#1994=CARTESIAN_POINT('',(0.0596960689845531,7.01630404146839E-5,-0.104308858717111));
#1995=CARTESIAN_POINT('',(0.0583744288337381,-0.00590974944566406,-0.0987871070636739));
#1996=CARTESIAN_POINT('',(0.0595174697142415,-0.00575249559250343,-0.104552495592503));
#1997=CARTESIAN_POINT('',(0.0583744288337381,1.28929363261021E-5,-0.104709749445664));
#1998=CARTESIAN_POINT('',(0.0574581490813607,-0.006,-0.0987999999999837));
#1999=CARTESIAN_POINT('',(0.0578508490137999,-0.00599999999742897,-0.104799999997431));
#2000=CARTESIAN_POINT('',(0.0574581490813607,1.63848640175414E-14,-0.1048));
#2001=CARTESIAN_POINT('',(0.057,-0.006,-0.0988));
#2002=CARTESIAN_POINT('',(0.057,-0.006,-0.1048));
#2003=CARTESIAN_POINT('',(0.057,0.,-0.1048));
#2004=MECHANICAL_DESIGN_GEOMETRIC_PRESENTATION_REPRESENTATION('',(#1087),
#2005);
#2005=(
GEOMETRIC_REPRESENTATION_CONTEXT(3)
GLOBAL_UNCERTAINTY_ASSIGNED_CONTEXT((#2006))
GLOBAL_UNIT_ASSIGNED_CONTEXT((#2009,#2008,#2007))
REPRESENTATION_CONTEXT('Part 1','TOP_LEVEL_ASSEMBLY_PART')
);
#2006=UNCERTAINTY_MEASURE_WITH_UNIT(LENGTH_MEASURE(4.7876788574482E-5),
#2009,'DISTANCE_ACCURACY_VALUE','Maximum Tolerance applied to model');
#2007=(
NAMED_UNIT(*)
SI_UNIT($,.STERADIAN.)
SOLID_ANGLE_UNIT()
);
#2008=(
NAMED_UNIT(*)
PLANE_ANGLE_UNIT()
SI_UNIT($,.RADIAN.)
);
#2009=(
LENGTH_UNIT()
NAMED_UNIT(*)
SI_UNIT($,.METRE.)
);
#2010=PRODUCT_DEFINITION_SHAPE('','',#2011);
#2011=PRODUCT_DEFINITION('','',#2013,#2012);
#2012=PRODUCT_DEFINITION_CONTEXT('',#2019,'design');
#2013=PRODUCT_DEFINITION_FORMATION_WITH_SPECIFIED_SOURCE('','',#2015,
 .NOT_KNOWN.);
#2014=PRODUCT_RELATED_PRODUCT_CATEGORY('','',(#2015));
#2015=PRODUCT('Part 1','Part 1','Part 1',(#2017));
#2016=PRODUCT_CATEGORY('','');
#2017=PRODUCT_CONTEXT('',#2019,'mechanical');
#2018=APPLICATION_PROTOCOL_DEFINITION('international standard',
'ap242_managed_model_based_3d_engineering',2020,#2019);
#2019=APPLICATION_CONTEXT('managed model based 3d engineering');
ENDSEC;
END-ISO-10303-21;
