ISO-10303-21;
HEADER;
/* Generated by software containing ST-Developer
 * from STEP Tools, Inc. (www.steptools.com) 
 */
/* OPTION: using custom renumber hook */

FILE_DESCRIPTION(
/* description */ ('STEP AP242 Edition 2',
'CAx-IF Rec.Pracs.---Representation and Presentation of Product Manufa
cturing Information (PMI)---4.0---2014-10-13',
'CAx-IF Rec.Pracs.---3D Tessellated Geometry---0.4---2014-09-14','2;1',
'CAx-IF Rec.Pracs.---User Defined Attributes---1.5---2016-08-15'),
/* implementation_level */ '2;1');

FILE_NAME(
/* name */ 'Heater Plate Holder_REV. 0',
/* time_stamp */ '2026-07-20T17:58:03Z',
/* author */ (''),
/* organization */ (''),
/* preprocessor_version */ 'ST-DEVELOPER v20',
/* originating_system */ 'ONSHAPE BY PTC INC, 1.218',
/* authorisation */ '  ');

FILE_SCHEMA (('AP242_MANAGED_MODEL_BASED_3D_ENGINEERING_MIM_LF { 1 0 10303 442 3 1 4 }'));
ENDSEC;

DATA;
#10=SHAPE_REPRESENTATION_RELATIONSHIP('','',#1251,#11);
#11=ADVANCED_BREP_SHAPE_REPRESENTATION('',(#1249),#2113);
#12=CYLINDRICAL_SURFACE('',#1302,0.01);
#13=CYLINDRICAL_SURFACE('',#1303,0.01);
#14=CYLINDRICAL_SURFACE('',#1304,0.005);
#15=CYLINDRICAL_SURFACE('',#1305,0.005);
#16=CYLINDRICAL_SURFACE('',#1306,0.005);
#17=CYLINDRICAL_SURFACE('',#1307,0.005);
#18=CYLINDRICAL_SURFACE('',#1308,0.005);
#19=CYLINDRICAL_SURFACE('',#1309,0.005);
#20=CYLINDRICAL_SURFACE('',#1312,0.003);
#21=CYLINDRICAL_SURFACE('',#1313,0.003);
#22=CYLINDRICAL_SURFACE('',#1329,0.01);
#23=CYLINDRICAL_SURFACE('',#1331,0.01);
#24=CYLINDRICAL_SURFACE('',#1333,0.01);
#25=CYLINDRICAL_SURFACE('',#1334,0.01);
#26=CYLINDRICAL_SURFACE('',#1336,0.01);
#27=CYLINDRICAL_SURFACE('',#1338,0.01);
#28=CYLINDRICAL_SURFACE('',#1365,0.01);
#29=CYLINDRICAL_SURFACE('',#1366,0.01);
#30=CYLINDRICAL_SURFACE('',#1367,0.01);
#31=CYLINDRICAL_SURFACE('',#1368,0.01);
#32=CYLINDRICAL_SURFACE('',#1369,0.005);
#33=CYLINDRICAL_SURFACE('',#1370,0.005);
#34=CYLINDRICAL_SURFACE('',#1371,0.005);
#35=CYLINDRICAL_SURFACE('',#1372,0.005);
#36=CYLINDRICAL_SURFACE('',#1373,0.005);
#37=CYLINDRICAL_SURFACE('',#1374,0.005);
#38=CYLINDRICAL_SURFACE('',#1375,0.005);
#39=CYLINDRICAL_SURFACE('',#1376,0.005);
#40=ELLIPSE('',#1278,0.011238260000416,0.01);
#41=ELLIPSE('',#1279,0.0219146070008111,0.01);
#42=ELLIPSE('',#1284,0.0219146070008111,0.01);
#43=ELLIPSE('',#1285,0.011238260000416,0.01);
#44=ELLIPSE('',#1288,0.011238260000416,0.01);
#45=ELLIPSE('',#1289,0.0219146070008111,0.01);
#46=ELLIPSE('',#1300,0.0219146070008111,0.01);
#47=ELLIPSE('',#1301,0.011238260000416,0.01);
#48=ELLIPSE('',#1330,0.0141421356237309,0.01);
#49=ELLIPSE('',#1332,0.0141421356237309,0.01);
#50=ELLIPSE('',#1335,0.0141421356237309,0.01);
#51=ELLIPSE('',#1337,0.0141421356237309,0.01);
#52=CIRCLE('',#1254,0.005);
#53=CIRCLE('',#1256,0.003);
#54=CIRCLE('',#1257,0.003);
#55=CIRCLE('',#1258,0.005);
#56=CIRCLE('',#1259,0.005);
#57=CIRCLE('',#1260,0.005);
#58=CIRCLE('',#1261,0.005);
#59=CIRCLE('',#1262,0.01);
#60=CIRCLE('',#1263,0.01);
#61=CIRCLE('',#1264,0.005);
#62=CIRCLE('',#1266,0.005);
#63=CIRCLE('',#1267,0.005);
#64=CIRCLE('',#1268,0.01);
#65=CIRCLE('',#1269,0.01);
#66=CIRCLE('',#1270,0.005);
#67=CIRCLE('',#1271,0.005);
#68=CIRCLE('',#1272,0.005);
#69=CIRCLE('',#1273,0.005);
#70=CIRCLE('',#1274,0.003);
#71=CIRCLE('',#1275,0.003);
#72=CIRCLE('',#1294,0.01);
#73=CIRCLE('',#1295,0.01);
#74=CIRCLE('',#1296,0.01);
#75=CIRCLE('',#1297,0.01);
#76=CIRCLE('',#1315,0.01);
#77=CIRCLE('',#1316,0.01);
#78=CIRCLE('',#1317,0.01);
#79=CIRCLE('',#1318,0.01);
#80=CIRCLE('',#1321,0.01);
#81=CIRCLE('',#1322,0.01);
#82=CIRCLE('',#1326,0.01);
#83=CIRCLE('',#1327,0.01);
#84=CIRCLE('',#1343,0.005);
#85=CIRCLE('',#1344,0.005);
#86=CIRCLE('',#1345,0.005);
#87=CIRCLE('',#1346,0.005);
#88=CIRCLE('',#1348,0.005);
#89=CIRCLE('',#1349,0.005);
#90=CIRCLE('',#1350,0.005);
#91=CIRCLE('',#1351,0.005);
#92=CIRCLE('',#1356,0.005);
#93=CIRCLE('',#1357,0.005);
#94=CIRCLE('',#1358,0.005);
#95=CIRCLE('',#1359,0.005);
#96=CIRCLE('',#1361,0.005);
#97=CIRCLE('',#1362,0.005);
#98=CIRCLE('',#1363,0.005);
#99=CIRCLE('',#1364,0.005);
#100=ORIENTED_EDGE('',*,*,#460,.F.);
#101=ORIENTED_EDGE('',*,*,#461,.T.);
#102=ORIENTED_EDGE('',*,*,#462,.F.);
#103=ORIENTED_EDGE('',*,*,#463,.T.);
#104=ORIENTED_EDGE('',*,*,#464,.T.);
#105=ORIENTED_EDGE('',*,*,#465,.T.);
#106=ORIENTED_EDGE('',*,*,#466,.T.);
#107=ORIENTED_EDGE('',*,*,#467,.F.);
#108=ORIENTED_EDGE('',*,*,#468,.F.);
#109=ORIENTED_EDGE('',*,*,#469,.T.);
#110=ORIENTED_EDGE('',*,*,#470,.T.);
#111=ORIENTED_EDGE('',*,*,#471,.T.);
#112=ORIENTED_EDGE('',*,*,#472,.T.);
#113=ORIENTED_EDGE('',*,*,#473,.T.);
#114=ORIENTED_EDGE('',*,*,#474,.F.);
#115=ORIENTED_EDGE('',*,*,#475,.T.);
#116=ORIENTED_EDGE('',*,*,#476,.T.);
#117=ORIENTED_EDGE('',*,*,#477,.T.);
#118=ORIENTED_EDGE('',*,*,#478,.F.);
#119=ORIENTED_EDGE('',*,*,#479,.T.);
#120=ORIENTED_EDGE('',*,*,#480,.F.);
#121=ORIENTED_EDGE('',*,*,#481,.T.);
#122=ORIENTED_EDGE('',*,*,#482,.T.);
#123=ORIENTED_EDGE('',*,*,#483,.T.);
#124=ORIENTED_EDGE('',*,*,#484,.F.);
#125=ORIENTED_EDGE('',*,*,#485,.T.);
#126=ORIENTED_EDGE('',*,*,#486,.T.);
#127=ORIENTED_EDGE('',*,*,#487,.T.);
#128=ORIENTED_EDGE('',*,*,#488,.T.);
#129=ORIENTED_EDGE('',*,*,#489,.T.);
#130=ORIENTED_EDGE('',*,*,#490,.F.);
#131=ORIENTED_EDGE('',*,*,#491,.T.);
#132=ORIENTED_EDGE('',*,*,#492,.T.);
#133=ORIENTED_EDGE('',*,*,#493,.T.);
#134=ORIENTED_EDGE('',*,*,#494,.F.);
#135=ORIENTED_EDGE('',*,*,#495,.T.);
#136=ORIENTED_EDGE('',*,*,#496,.T.);
#137=ORIENTED_EDGE('',*,*,#497,.T.);
#138=ORIENTED_EDGE('',*,*,#498,.F.);
#139=ORIENTED_EDGE('',*,*,#499,.T.);
#140=ORIENTED_EDGE('',*,*,#500,.F.);
#141=ORIENTED_EDGE('',*,*,#501,.T.);
#142=ORIENTED_EDGE('',*,*,#502,.T.);
#143=ORIENTED_EDGE('',*,*,#503,.T.);
#144=ORIENTED_EDGE('',*,*,#504,.F.);
#145=ORIENTED_EDGE('',*,*,#505,.T.);
#146=ORIENTED_EDGE('',*,*,#506,.T.);
#147=ORIENTED_EDGE('',*,*,#507,.T.);
#148=ORIENTED_EDGE('',*,*,#508,.F.);
#149=ORIENTED_EDGE('',*,*,#509,.T.);
#150=ORIENTED_EDGE('',*,*,#510,.T.);
#151=ORIENTED_EDGE('',*,*,#511,.T.);
#152=ORIENTED_EDGE('',*,*,#512,.T.);
#153=ORIENTED_EDGE('',*,*,#513,.T.);
#154=ORIENTED_EDGE('',*,*,#514,.F.);
#155=ORIENTED_EDGE('',*,*,#515,.T.);
#156=ORIENTED_EDGE('',*,*,#505,.F.);
#157=ORIENTED_EDGE('',*,*,#516,.F.);
#158=ORIENTED_EDGE('',*,*,#517,.T.);
#159=ORIENTED_EDGE('',*,*,#518,.T.);
#160=ORIENTED_EDGE('',*,*,#504,.T.);
#161=ORIENTED_EDGE('',*,*,#519,.T.);
#162=ORIENTED_EDGE('',*,*,#482,.F.);
#163=ORIENTED_EDGE('',*,*,#520,.T.);
#164=ORIENTED_EDGE('',*,*,#521,.T.);
#165=ORIENTED_EDGE('',*,*,#516,.T.);
#166=ORIENTED_EDGE('',*,*,#484,.T.);
#167=ORIENTED_EDGE('',*,*,#522,.T.);
#168=ORIENTED_EDGE('',*,*,#502,.F.);
#169=ORIENTED_EDGE('',*,*,#523,.T.);
#170=ORIENTED_EDGE('',*,*,#486,.F.);
#171=ORIENTED_EDGE('',*,*,#524,.T.);
#172=ORIENTED_EDGE('',*,*,#500,.T.);
#173=ORIENTED_EDGE('',*,*,#525,.T.);
#174=ORIENTED_EDGE('',*,*,#498,.T.);
#175=ORIENTED_EDGE('',*,*,#526,.T.);
#176=ORIENTED_EDGE('',*,*,#488,.F.);
#177=ORIENTED_EDGE('',*,*,#527,.T.);
#178=ORIENTED_EDGE('',*,*,#528,.T.);
#179=ORIENTED_EDGE('',*,*,#529,.T.);
#180=ORIENTED_EDGE('',*,*,#468,.T.);
#181=ORIENTED_EDGE('',*,*,#530,.T.);
#182=ORIENTED_EDGE('',*,*,#496,.F.);
#183=ORIENTED_EDGE('',*,*,#531,.F.);
#184=ORIENTED_EDGE('',*,*,#495,.F.);
#185=ORIENTED_EDGE('',*,*,#532,.F.);
#186=ORIENTED_EDGE('',*,*,#533,.T.);
#187=ORIENTED_EDGE('',*,*,#531,.T.);
#188=ORIENTED_EDGE('',*,*,#494,.T.);
#189=ORIENTED_EDGE('',*,*,#534,.T.);
#190=ORIENTED_EDGE('',*,*,#472,.F.);
#191=ORIENTED_EDGE('',*,*,#535,.T.);
#192=ORIENTED_EDGE('',*,*,#536,.T.);
#193=ORIENTED_EDGE('',*,*,#532,.T.);
#194=ORIENTED_EDGE('',*,*,#492,.F.);
#195=ORIENTED_EDGE('',*,*,#537,.T.);
#196=ORIENTED_EDGE('',*,*,#474,.T.);
#197=ORIENTED_EDGE('',*,*,#538,.T.);
#198=ORIENTED_EDGE('',*,*,#476,.F.);
#199=ORIENTED_EDGE('',*,*,#539,.T.);
#200=ORIENTED_EDGE('',*,*,#490,.T.);
#201=ORIENTED_EDGE('',*,*,#540,.T.);
#202=ORIENTED_EDGE('',*,*,#478,.T.);
#203=ORIENTED_EDGE('',*,*,#541,.T.);
#204=ORIENTED_EDGE('',*,*,#512,.F.);
#205=ORIENTED_EDGE('',*,*,#542,.T.);
#206=ORIENTED_EDGE('',*,*,#510,.F.);
#207=ORIENTED_EDGE('',*,*,#543,.T.);
#208=ORIENTED_EDGE('',*,*,#462,.T.);
#209=ORIENTED_EDGE('',*,*,#544,.T.);
#210=ORIENTED_EDGE('',*,*,#545,.F.);
#211=ORIENTED_EDGE('',*,*,#546,.T.);
#212=ORIENTED_EDGE('',*,*,#547,.T.);
#213=ORIENTED_EDGE('',*,*,#548,.T.);
#214=ORIENTED_EDGE('',*,*,#549,.T.);
#215=ORIENTED_EDGE('',*,*,#550,.T.);
#216=ORIENTED_EDGE('',*,*,#480,.T.);
#217=ORIENTED_EDGE('',*,*,#551,.T.);
#218=ORIENTED_EDGE('',*,*,#464,.F.);
#219=ORIENTED_EDGE('',*,*,#552,.T.);
#220=ORIENTED_EDGE('',*,*,#508,.T.);
#221=ORIENTED_EDGE('',*,*,#553,.T.);
#222=ORIENTED_EDGE('',*,*,#554,.T.);
#223=ORIENTED_EDGE('',*,*,#555,.T.);
#224=ORIENTED_EDGE('',*,*,#460,.T.);
#225=ORIENTED_EDGE('',*,*,#556,.T.);
#226=ORIENTED_EDGE('',*,*,#506,.F.);
#227=ORIENTED_EDGE('',*,*,#518,.F.);
#228=ORIENTED_EDGE('',*,*,#485,.F.);
#229=ORIENTED_EDGE('',*,*,#523,.F.);
#230=ORIENTED_EDGE('',*,*,#501,.F.);
#231=ORIENTED_EDGE('',*,*,#524,.F.);
#232=ORIENTED_EDGE('',*,*,#487,.F.);
#233=ORIENTED_EDGE('',*,*,#525,.F.);
#234=ORIENTED_EDGE('',*,*,#499,.F.);
#235=ORIENTED_EDGE('',*,*,#527,.F.);
#236=ORIENTED_EDGE('',*,*,#473,.F.);
#237=ORIENTED_EDGE('',*,*,#534,.F.);
#238=ORIENTED_EDGE('',*,*,#493,.F.);
#239=ORIENTED_EDGE('',*,*,#538,.F.);
#240=ORIENTED_EDGE('',*,*,#489,.F.);
#241=ORIENTED_EDGE('',*,*,#526,.F.);
#242=ORIENTED_EDGE('',*,*,#497,.F.);
#243=ORIENTED_EDGE('',*,*,#530,.F.);
#244=ORIENTED_EDGE('',*,*,#465,.F.);
#245=ORIENTED_EDGE('',*,*,#553,.F.);
#246=ORIENTED_EDGE('',*,*,#507,.F.);
#247=ORIENTED_EDGE('',*,*,#556,.F.);
#248=ORIENTED_EDGE('',*,*,#483,.F.);
#249=ORIENTED_EDGE('',*,*,#519,.F.);
#250=ORIENTED_EDGE('',*,*,#503,.F.);
#251=ORIENTED_EDGE('',*,*,#522,.F.);
#252=ORIENTED_EDGE('',*,*,#477,.F.);
#253=ORIENTED_EDGE('',*,*,#540,.F.);
#254=ORIENTED_EDGE('',*,*,#513,.F.);
#255=ORIENTED_EDGE('',*,*,#541,.F.);
#256=ORIENTED_EDGE('',*,*,#479,.F.);
#257=ORIENTED_EDGE('',*,*,#542,.F.);
#258=ORIENTED_EDGE('',*,*,#511,.F.);
#259=ORIENTED_EDGE('',*,*,#551,.F.);
#260=ORIENTED_EDGE('',*,*,#475,.F.);
#261=ORIENTED_EDGE('',*,*,#537,.F.);
#262=ORIENTED_EDGE('',*,*,#491,.F.);
#263=ORIENTED_EDGE('',*,*,#539,.F.);
#264=ORIENTED_EDGE('',*,*,#463,.F.);
#265=ORIENTED_EDGE('',*,*,#543,.F.);
#266=ORIENTED_EDGE('',*,*,#509,.F.);
#267=ORIENTED_EDGE('',*,*,#552,.F.);
#268=ORIENTED_EDGE('',*,*,#466,.F.);
#269=ORIENTED_EDGE('',*,*,#514,.T.);
#270=ORIENTED_EDGE('',*,*,#467,.T.);
#271=ORIENTED_EDGE('',*,*,#515,.F.);
#272=ORIENTED_EDGE('',*,*,#470,.F.);
#273=ORIENTED_EDGE('',*,*,#557,.T.);
#274=ORIENTED_EDGE('',*,*,#558,.F.);
#275=ORIENTED_EDGE('',*,*,#559,.T.);
#276=ORIENTED_EDGE('',*,*,#560,.T.);
#277=ORIENTED_EDGE('',*,*,#561,.T.);
#278=ORIENTED_EDGE('',*,*,#562,.T.);
#279=ORIENTED_EDGE('',*,*,#563,.T.);
#280=ORIENTED_EDGE('',*,*,#564,.F.);
#281=ORIENTED_EDGE('',*,*,#565,.T.);
#282=ORIENTED_EDGE('',*,*,#558,.T.);
#283=ORIENTED_EDGE('',*,*,#566,.T.);
#284=ORIENTED_EDGE('',*,*,#567,.T.);
#285=ORIENTED_EDGE('',*,*,#568,.T.);
#286=ORIENTED_EDGE('',*,*,#569,.F.);
#287=ORIENTED_EDGE('',*,*,#570,.T.);
#288=ORIENTED_EDGE('',*,*,#564,.T.);
#289=ORIENTED_EDGE('',*,*,#571,.T.);
#290=ORIENTED_EDGE('',*,*,#572,.F.);
#291=ORIENTED_EDGE('',*,*,#573,.T.);
#292=ORIENTED_EDGE('',*,*,#574,.F.);
#293=ORIENTED_EDGE('',*,*,#575,.T.);
#294=ORIENTED_EDGE('',*,*,#562,.F.);
#295=ORIENTED_EDGE('',*,*,#576,.T.);
#296=ORIENTED_EDGE('',*,*,#572,.T.);
#297=ORIENTED_EDGE('',*,*,#577,.T.);
#298=ORIENTED_EDGE('',*,*,#578,.F.);
#299=ORIENTED_EDGE('',*,*,#579,.T.);
#300=ORIENTED_EDGE('',*,*,#545,.T.);
#301=ORIENTED_EDGE('',*,*,#580,.T.);
#302=ORIENTED_EDGE('',*,*,#581,.T.);
#303=ORIENTED_EDGE('',*,*,#582,.T.);
#304=ORIENTED_EDGE('',*,*,#583,.F.);
#305=ORIENTED_EDGE('',*,*,#584,.T.);
#306=ORIENTED_EDGE('',*,*,#578,.T.);
#307=ORIENTED_EDGE('',*,*,#585,.T.);
#308=ORIENTED_EDGE('',*,*,#586,.F.);
#309=ORIENTED_EDGE('',*,*,#587,.T.);
#310=ORIENTED_EDGE('',*,*,#588,.F.);
#311=ORIENTED_EDGE('',*,*,#589,.T.);
#312=ORIENTED_EDGE('',*,*,#549,.F.);
#313=ORIENTED_EDGE('',*,*,#590,.T.);
#314=ORIENTED_EDGE('',*,*,#586,.T.);
#315=ORIENTED_EDGE('',*,*,#591,.T.);
#316=ORIENTED_EDGE('',*,*,#550,.F.);
#317=ORIENTED_EDGE('',*,*,#591,.F.);
#318=ORIENTED_EDGE('',*,*,#592,.F.);
#319=ORIENTED_EDGE('',*,*,#520,.F.);
#320=ORIENTED_EDGE('',*,*,#481,.F.);
#321=ORIENTED_EDGE('',*,*,#461,.F.);
#322=ORIENTED_EDGE('',*,*,#555,.F.);
#323=ORIENTED_EDGE('',*,*,#593,.F.);
#324=ORIENTED_EDGE('',*,*,#580,.F.);
#325=ORIENTED_EDGE('',*,*,#544,.F.);
#326=ORIENTED_EDGE('',*,*,#592,.T.);
#327=ORIENTED_EDGE('',*,*,#585,.F.);
#328=ORIENTED_EDGE('',*,*,#593,.T.);
#329=ORIENTED_EDGE('',*,*,#554,.F.);
#330=ORIENTED_EDGE('',*,*,#517,.F.);
#331=ORIENTED_EDGE('',*,*,#521,.F.);
#332=ORIENTED_EDGE('',*,*,#563,.F.);
#333=ORIENTED_EDGE('',*,*,#577,.F.);
#334=ORIENTED_EDGE('',*,*,#594,.F.);
#335=ORIENTED_EDGE('',*,*,#535,.F.);
#336=ORIENTED_EDGE('',*,*,#471,.F.);
#337=ORIENTED_EDGE('',*,*,#469,.F.);
#338=ORIENTED_EDGE('',*,*,#529,.F.);
#339=ORIENTED_EDGE('',*,*,#595,.F.);
#340=ORIENTED_EDGE('',*,*,#566,.F.);
#341=ORIENTED_EDGE('',*,*,#557,.F.);
#342=ORIENTED_EDGE('',*,*,#594,.T.);
#343=ORIENTED_EDGE('',*,*,#571,.F.);
#344=ORIENTED_EDGE('',*,*,#595,.T.);
#345=ORIENTED_EDGE('',*,*,#528,.F.);
#346=ORIENTED_EDGE('',*,*,#533,.F.);
#347=ORIENTED_EDGE('',*,*,#536,.F.);
#348=ORIENTED_EDGE('',*,*,#596,.F.);
#349=ORIENTED_EDGE('',*,*,#597,.T.);
#350=ORIENTED_EDGE('',*,*,#598,.T.);
#351=ORIENTED_EDGE('',*,*,#599,.T.);
#352=ORIENTED_EDGE('',*,*,#600,.T.);
#353=ORIENTED_EDGE('',*,*,#601,.T.);
#354=ORIENTED_EDGE('',*,*,#602,.F.);
#355=ORIENTED_EDGE('',*,*,#603,.T.);
#356=ORIENTED_EDGE('',*,*,#604,.F.);
#357=ORIENTED_EDGE('',*,*,#605,.T.);
#358=ORIENTED_EDGE('',*,*,#606,.T.);
#359=ORIENTED_EDGE('',*,*,#607,.T.);
#360=ORIENTED_EDGE('',*,*,#606,.F.);
#361=ORIENTED_EDGE('',*,*,#608,.T.);
#362=ORIENTED_EDGE('',*,*,#581,.F.);
#363=ORIENTED_EDGE('',*,*,#609,.T.);
#364=ORIENTED_EDGE('',*,*,#596,.T.);
#365=ORIENTED_EDGE('',*,*,#610,.T.);
#366=ORIENTED_EDGE('',*,*,#602,.T.);
#367=ORIENTED_EDGE('',*,*,#611,.T.);
#368=ORIENTED_EDGE('',*,*,#583,.T.);
#369=ORIENTED_EDGE('',*,*,#612,.T.);
#370=ORIENTED_EDGE('',*,*,#604,.T.);
#371=ORIENTED_EDGE('',*,*,#613,.T.);
#372=ORIENTED_EDGE('',*,*,#600,.F.);
#373=ORIENTED_EDGE('',*,*,#614,.T.);
#374=ORIENTED_EDGE('',*,*,#598,.F.);
#375=ORIENTED_EDGE('',*,*,#615,.T.);
#376=ORIENTED_EDGE('',*,*,#588,.T.);
#377=ORIENTED_EDGE('',*,*,#616,.T.);
#378=ORIENTED_EDGE('',*,*,#547,.F.);
#379=ORIENTED_EDGE('',*,*,#617,.T.);
#380=ORIENTED_EDGE('',*,*,#618,.T.);
#381=ORIENTED_EDGE('',*,*,#619,.T.);
#382=ORIENTED_EDGE('',*,*,#620,.F.);
#383=ORIENTED_EDGE('',*,*,#621,.T.);
#384=ORIENTED_EDGE('',*,*,#622,.T.);
#385=ORIENTED_EDGE('',*,*,#623,.T.);
#386=ORIENTED_EDGE('',*,*,#624,.F.);
#387=ORIENTED_EDGE('',*,*,#625,.T.);
#388=ORIENTED_EDGE('',*,*,#626,.T.);
#389=ORIENTED_EDGE('',*,*,#627,.T.);
#390=ORIENTED_EDGE('',*,*,#628,.F.);
#391=ORIENTED_EDGE('',*,*,#629,.T.);
#392=ORIENTED_EDGE('',*,*,#628,.T.);
#393=ORIENTED_EDGE('',*,*,#630,.T.);
#394=ORIENTED_EDGE('',*,*,#618,.F.);
#395=ORIENTED_EDGE('',*,*,#631,.T.);
#396=ORIENTED_EDGE('',*,*,#567,.F.);
#397=ORIENTED_EDGE('',*,*,#632,.T.);
#398=ORIENTED_EDGE('',*,*,#624,.T.);
#399=ORIENTED_EDGE('',*,*,#633,.T.);
#400=ORIENTED_EDGE('',*,*,#620,.T.);
#401=ORIENTED_EDGE('',*,*,#634,.T.);
#402=ORIENTED_EDGE('',*,*,#626,.F.);
#403=ORIENTED_EDGE('',*,*,#635,.T.);
#404=ORIENTED_EDGE('',*,*,#622,.F.);
#405=ORIENTED_EDGE('',*,*,#636,.T.);
#406=ORIENTED_EDGE('',*,*,#574,.T.);
#407=ORIENTED_EDGE('',*,*,#637,.T.);
#408=ORIENTED_EDGE('',*,*,#560,.F.);
#409=ORIENTED_EDGE('',*,*,#638,.T.);
#410=ORIENTED_EDGE('',*,*,#569,.T.);
#411=ORIENTED_EDGE('',*,*,#639,.T.);
#412=ORIENTED_EDGE('',*,*,#584,.F.);
#413=ORIENTED_EDGE('',*,*,#617,.F.);
#414=ORIENTED_EDGE('',*,*,#546,.F.);
#415=ORIENTED_EDGE('',*,*,#579,.F.);
#416=ORIENTED_EDGE('',*,*,#587,.F.);
#417=ORIENTED_EDGE('',*,*,#590,.F.);
#418=ORIENTED_EDGE('',*,*,#548,.F.);
#419=ORIENTED_EDGE('',*,*,#616,.F.);
#420=ORIENTED_EDGE('',*,*,#570,.F.);
#421=ORIENTED_EDGE('',*,*,#638,.F.);
#422=ORIENTED_EDGE('',*,*,#559,.F.);
#423=ORIENTED_EDGE('',*,*,#565,.F.);
#424=ORIENTED_EDGE('',*,*,#573,.F.);
#425=ORIENTED_EDGE('',*,*,#576,.F.);
#426=ORIENTED_EDGE('',*,*,#561,.F.);
#427=ORIENTED_EDGE('',*,*,#637,.F.);
#428=ORIENTED_EDGE('',*,*,#608,.F.);
#429=ORIENTED_EDGE('',*,*,#605,.F.);
#430=ORIENTED_EDGE('',*,*,#612,.F.);
#431=ORIENTED_EDGE('',*,*,#582,.F.);
#432=ORIENTED_EDGE('',*,*,#609,.F.);
#433=ORIENTED_EDGE('',*,*,#589,.F.);
#434=ORIENTED_EDGE('',*,*,#615,.F.);
#435=ORIENTED_EDGE('',*,*,#597,.F.);
#436=ORIENTED_EDGE('',*,*,#611,.F.);
#437=ORIENTED_EDGE('',*,*,#601,.F.);
#438=ORIENTED_EDGE('',*,*,#613,.F.);
#439=ORIENTED_EDGE('',*,*,#607,.F.);
#440=ORIENTED_EDGE('',*,*,#610,.F.);
#441=ORIENTED_EDGE('',*,*,#599,.F.);
#442=ORIENTED_EDGE('',*,*,#614,.F.);
#443=ORIENTED_EDGE('',*,*,#603,.F.);
#444=ORIENTED_EDGE('',*,*,#630,.F.);
#445=ORIENTED_EDGE('',*,*,#627,.F.);
#446=ORIENTED_EDGE('',*,*,#634,.F.);
#447=ORIENTED_EDGE('',*,*,#619,.F.);
#448=ORIENTED_EDGE('',*,*,#631,.F.);
#449=ORIENTED_EDGE('',*,*,#621,.F.);
#450=ORIENTED_EDGE('',*,*,#639,.F.);
#451=ORIENTED_EDGE('',*,*,#568,.F.);
#452=ORIENTED_EDGE('',*,*,#633,.F.);
#453=ORIENTED_EDGE('',*,*,#623,.F.);
#454=ORIENTED_EDGE('',*,*,#635,.F.);
#455=ORIENTED_EDGE('',*,*,#629,.F.);
#456=ORIENTED_EDGE('',*,*,#632,.F.);
#457=ORIENTED_EDGE('',*,*,#575,.F.);
#458=ORIENTED_EDGE('',*,*,#636,.F.);
#459=ORIENTED_EDGE('',*,*,#625,.F.);
#460=EDGE_CURVE('',#640,#641,#760,.T.);
#461=EDGE_CURVE('',#640,#642,#761,.T.);
#462=EDGE_CURVE('',#643,#642,#762,.T.);
#463=EDGE_CURVE('',#643,#644,#763,.T.);
#464=EDGE_CURVE('',#644,#645,#764,.T.);
#465=EDGE_CURVE('',#645,#641,#52,.T.);
#466=EDGE_CURVE('',#646,#646,#53,.T.);
#467=EDGE_CURVE('',#647,#647,#54,.T.);
#468=EDGE_CURVE('',#648,#649,#765,.T.);
#469=EDGE_CURVE('',#648,#650,#766,.T.);
#470=EDGE_CURVE('',#650,#651,#767,.T.);
#471=EDGE_CURVE('',#651,#652,#768,.F.);
#472=EDGE_CURVE('',#652,#653,#769,.T.);
#473=EDGE_CURVE('',#653,#654,#55,.T.);
#474=EDGE_CURVE('',#655,#654,#770,.T.);
#475=EDGE_CURVE('',#655,#656,#771,.T.);
#476=EDGE_CURVE('',#656,#657,#772,.T.);
#477=EDGE_CURVE('',#657,#658,#56,.F.);
#478=EDGE_CURVE('',#659,#658,#773,.T.);
#479=EDGE_CURVE('',#659,#660,#57,.F.);
#480=EDGE_CURVE('',#661,#660,#774,.T.);
#481=EDGE_CURVE('',#661,#662,#775,.F.);
#482=EDGE_CURVE('',#662,#663,#776,.T.);
#483=EDGE_CURVE('',#663,#664,#58,.F.);
#484=EDGE_CURVE('',#665,#664,#777,.T.);
#485=EDGE_CURVE('',#665,#666,#59,.T.);
#486=EDGE_CURVE('',#666,#667,#778,.T.);
#487=EDGE_CURVE('',#667,#668,#60,.T.);
#488=EDGE_CURVE('',#668,#669,#779,.T.);
#489=EDGE_CURVE('',#669,#649,#61,.F.);
#490=EDGE_CURVE('',#670,#671,#780,.T.);
#491=EDGE_CURVE('',#670,#672,#781,.T.);
#492=EDGE_CURVE('',#672,#673,#782,.T.);
#493=EDGE_CURVE('',#673,#674,#62,.F.);
#494=EDGE_CURVE('',#675,#674,#783,.T.);
#495=EDGE_CURVE('',#675,#676,#784,.T.);
#496=EDGE_CURVE('',#676,#677,#785,.T.);
#497=EDGE_CURVE('',#677,#678,#63,.T.);
#498=EDGE_CURVE('',#679,#678,#786,.T.);
#499=EDGE_CURVE('',#679,#680,#64,.F.);
#500=EDGE_CURVE('',#681,#680,#787,.T.);
#501=EDGE_CURVE('',#681,#682,#65,.F.);
#502=EDGE_CURVE('',#682,#683,#788,.T.);
#503=EDGE_CURVE('',#683,#684,#66,.T.);
#504=EDGE_CURVE('',#685,#684,#789,.T.);
#505=EDGE_CURVE('',#685,#686,#790,.T.);
#506=EDGE_CURVE('',#686,#687,#791,.T.);
#507=EDGE_CURVE('',#687,#688,#67,.F.);
#508=EDGE_CURVE('',#689,#688,#792,.T.);
#509=EDGE_CURVE('',#689,#690,#793,.T.);
#510=EDGE_CURVE('',#690,#691,#794,.T.);
#511=EDGE_CURVE('',#691,#692,#68,.T.);
#512=EDGE_CURVE('',#692,#693,#795,.T.);
#513=EDGE_CURVE('',#693,#671,#69,.T.);
#514=EDGE_CURVE('',#694,#694,#70,.F.);
#515=EDGE_CURVE('',#695,#695,#71,.T.);
#516=EDGE_CURVE('',#696,#685,#796,.T.);
#517=EDGE_CURVE('',#696,#697,#797,.T.);
#518=EDGE_CURVE('',#697,#686,#798,.T.);
#519=EDGE_CURVE('',#684,#663,#799,.F.);
#520=EDGE_CURVE('',#662,#698,#40,.T.);
#521=EDGE_CURVE('',#698,#696,#41,.T.);
#522=EDGE_CURVE('',#664,#683,#800,.T.);
#523=EDGE_CURVE('',#682,#665,#801,.F.);
#524=EDGE_CURVE('',#666,#681,#802,.T.);
#525=EDGE_CURVE('',#680,#667,#803,.F.);
#526=EDGE_CURVE('',#678,#669,#804,.F.);
#527=EDGE_CURVE('',#668,#679,#805,.T.);
#528=EDGE_CURVE('',#699,#700,#42,.F.);
#529=EDGE_CURVE('',#700,#648,#43,.F.);
#530=EDGE_CURVE('',#649,#677,#806,.T.);
#531=EDGE_CURVE('',#699,#676,#807,.T.);
#532=EDGE_CURVE('',#701,#675,#808,.T.);
#533=EDGE_CURVE('',#701,#699,#809,.T.);
#534=EDGE_CURVE('',#674,#653,#810,.F.);
#535=EDGE_CURVE('',#652,#702,#44,.T.);
#536=EDGE_CURVE('',#702,#701,#45,.T.);
#537=EDGE_CURVE('',#672,#655,#811,.T.);
#538=EDGE_CURVE('',#654,#673,#812,.T.);
#539=EDGE_CURVE('',#656,#670,#813,.T.);
#540=EDGE_CURVE('',#671,#657,#814,.F.);
#541=EDGE_CURVE('',#658,#693,#815,.T.);
#542=EDGE_CURVE('',#692,#659,#816,.F.);
#543=EDGE_CURVE('',#690,#643,#817,.T.);
#544=EDGE_CURVE('',#642,#703,#72,.F.);
#545=EDGE_CURVE('',#704,#703,#818,.T.);
#546=EDGE_CURVE('',#704,#705,#73,.F.);
#547=EDGE_CURVE('',#705,#706,#819,.T.);
#548=EDGE_CURVE('',#706,#707,#74,.F.);
#549=EDGE_CURVE('',#707,#708,#820,.T.);
#550=EDGE_CURVE('',#708,#661,#75,.F.);
#551=EDGE_CURVE('',#660,#691,#821,.T.);
#552=EDGE_CURVE('',#644,#689,#822,.T.);
#553=EDGE_CURVE('',#688,#645,#823,.F.);
#554=EDGE_CURVE('',#697,#709,#46,.F.);
#555=EDGE_CURVE('',#709,#640,#47,.F.);
#556=EDGE_CURVE('',#641,#687,#824,.T.);
#557=EDGE_CURVE('',#650,#710,#76,.F.);
#558=EDGE_CURVE('',#711,#710,#825,.T.);
#559=EDGE_CURVE('',#711,#712,#77,.F.);
#560=EDGE_CURVE('',#712,#713,#826,.T.);
#561=EDGE_CURVE('',#713,#714,#78,.F.);
#562=EDGE_CURVE('',#714,#715,#827,.T.);
#563=EDGE_CURVE('',#715,#651,#79,.F.);
#564=EDGE_CURVE('',#716,#717,#828,.T.);
#565=EDGE_CURVE('',#716,#711,#829,.T.);
#566=EDGE_CURVE('',#710,#717,#830,.F.);
#567=EDGE_CURVE('',#718,#719,#831,.T.);
#568=EDGE_CURVE('',#719,#720,#832,.T.);
#569=EDGE_CURVE('',#721,#720,#833,.T.);
#570=EDGE_CURVE('',#721,#716,#80,.F.);
#571=EDGE_CURVE('',#717,#722,#834,.F.);
#572=EDGE_CURVE('',#723,#722,#835,.T.);
#573=EDGE_CURVE('',#723,#724,#81,.F.);
#574=EDGE_CURVE('',#725,#724,#836,.T.);
#575=EDGE_CURVE('',#725,#718,#837,.F.);
#576=EDGE_CURVE('',#714,#723,#838,.F.);
#577=EDGE_CURVE('',#722,#715,#839,.T.);
#578=EDGE_CURVE('',#726,#727,#840,.T.);
#579=EDGE_CURVE('',#726,#704,#841,.T.);
#580=EDGE_CURVE('',#703,#727,#842,.F.);
#581=EDGE_CURVE('',#728,#729,#843,.T.);
#582=EDGE_CURVE('',#729,#730,#844,.T.);
#583=EDGE_CURVE('',#731,#730,#845,.T.);
#584=EDGE_CURVE('',#731,#726,#82,.F.);
#585=EDGE_CURVE('',#727,#732,#846,.F.);
#586=EDGE_CURVE('',#733,#732,#847,.T.);
#587=EDGE_CURVE('',#733,#734,#83,.F.);
#588=EDGE_CURVE('',#735,#734,#848,.T.);
#589=EDGE_CURVE('',#735,#728,#849,.F.);
#590=EDGE_CURVE('',#707,#733,#850,.F.);
#591=EDGE_CURVE('',#732,#708,#851,.T.);
#592=EDGE_CURVE('',#698,#732,#48,.T.);
#593=EDGE_CURVE('',#727,#709,#49,.F.);
#594=EDGE_CURVE('',#702,#722,#50,.T.);
#595=EDGE_CURVE('',#717,#700,#51,.F.);
#596=EDGE_CURVE('',#736,#737,#852,.T.);
#597=EDGE_CURVE('',#736,#738,#853,.T.);
#598=EDGE_CURVE('',#738,#739,#854,.T.);
#599=EDGE_CURVE('',#739,#737,#855,.F.);
#600=EDGE_CURVE('',#740,#741,#856,.T.);
#601=EDGE_CURVE('',#741,#742,#857,.F.);
#602=EDGE_CURVE('',#743,#742,#858,.T.);
#603=EDGE_CURVE('',#743,#740,#859,.T.);
#604=EDGE_CURVE('',#744,#745,#860,.T.);
#605=EDGE_CURVE('',#744,#746,#861,.F.);
#606=EDGE_CURVE('',#746,#747,#862,.T.);
#607=EDGE_CURVE('',#747,#745,#863,.T.);
#608=EDGE_CURVE('',#746,#729,#84,.T.);
#609=EDGE_CURVE('',#728,#736,#85,.T.);
#610=EDGE_CURVE('',#737,#743,#86,.T.);
#611=EDGE_CURVE('',#742,#747,#87,.T.);
#612=EDGE_CURVE('',#730,#744,#88,.F.);
#613=EDGE_CURVE('',#745,#741,#89,.F.);
#614=EDGE_CURVE('',#740,#739,#90,.F.);
#615=EDGE_CURVE('',#738,#735,#91,.F.);
#616=EDGE_CURVE('',#734,#706,#864,.T.);
#617=EDGE_CURVE('',#705,#731,#865,.F.);
#618=EDGE_CURVE('',#748,#749,#866,.T.);
#619=EDGE_CURVE('',#749,#750,#867,.T.);
#620=EDGE_CURVE('',#751,#750,#868,.T.);
#621=EDGE_CURVE('',#751,#748,#869,.F.);
#622=EDGE_CURVE('',#752,#753,#870,.T.);
#623=EDGE_CURVE('',#753,#754,#871,.F.);
#624=EDGE_CURVE('',#755,#754,#872,.T.);
#625=EDGE_CURVE('',#755,#752,#873,.T.);
#626=EDGE_CURVE('',#756,#757,#874,.T.);
#627=EDGE_CURVE('',#757,#758,#875,.F.);
#628=EDGE_CURVE('',#759,#758,#876,.T.);
#629=EDGE_CURVE('',#759,#756,#877,.T.);
#630=EDGE_CURVE('',#758,#749,#92,.T.);
#631=EDGE_CURVE('',#748,#719,#93,.T.);
#632=EDGE_CURVE('',#718,#755,#94,.T.);
#633=EDGE_CURVE('',#754,#759,#95,.T.);
#634=EDGE_CURVE('',#750,#757,#96,.F.);
#635=EDGE_CURVE('',#756,#753,#97,.F.);
#636=EDGE_CURVE('',#752,#725,#98,.F.);
#637=EDGE_CURVE('',#724,#713,#878,.T.);
#638=EDGE_CURVE('',#712,#721,#879,.F.);
#639=EDGE_CURVE('',#720,#751,#99,.F.);
#640=VERTEX_POINT('',#1750);
#641=VERTEX_POINT('',#1751);
#642=VERTEX_POINT('',#1753);
#643=VERTEX_POINT('',#1755);
#644=VERTEX_POINT('',#1757);
#645=VERTEX_POINT('',#1759);
#646=VERTEX_POINT('',#1763);
#647=VERTEX_POINT('',#1765);
#648=VERTEX_POINT('',#1767);
#649=VERTEX_POINT('',#1768);
#650=VERTEX_POINT('',#1770);
#651=VERTEX_POINT('',#1772);
#652=VERTEX_POINT('',#1774);
#653=VERTEX_POINT('',#1776);
#654=VERTEX_POINT('',#1778);
#655=VERTEX_POINT('',#1780);
#656=VERTEX_POINT('',#1782);
#657=VERTEX_POINT('',#1784);
#658=VERTEX_POINT('',#1786);
#659=VERTEX_POINT('',#1788);
#660=VERTEX_POINT('',#1790);
#661=VERTEX_POINT('',#1792);
#662=VERTEX_POINT('',#1794);
#663=VERTEX_POINT('',#1796);
#664=VERTEX_POINT('',#1798);
#665=VERTEX_POINT('',#1800);
#666=VERTEX_POINT('',#1802);
#667=VERTEX_POINT('',#1804);
#668=VERTEX_POINT('',#1806);
#669=VERTEX_POINT('',#1808);
#670=VERTEX_POINT('',#1812);
#671=VERTEX_POINT('',#1813);
#672=VERTEX_POINT('',#1815);
#673=VERTEX_POINT('',#1817);
#674=VERTEX_POINT('',#1819);
#675=VERTEX_POINT('',#1821);
#676=VERTEX_POINT('',#1823);
#677=VERTEX_POINT('',#1825);
#678=VERTEX_POINT('',#1827);
#679=VERTEX_POINT('',#1829);
#680=VERTEX_POINT('',#1831);
#681=VERTEX_POINT('',#1833);
#682=VERTEX_POINT('',#1835);
#683=VERTEX_POINT('',#1837);
#684=VERTEX_POINT('',#1839);
#685=VERTEX_POINT('',#1841);
#686=VERTEX_POINT('',#1843);
#687=VERTEX_POINT('',#1845);
#688=VERTEX_POINT('',#1847);
#689=VERTEX_POINT('',#1849);
#690=VERTEX_POINT('',#1851);
#691=VERTEX_POINT('',#1853);
#692=VERTEX_POINT('',#1855);
#693=VERTEX_POINT('',#1857);
#694=VERTEX_POINT('',#1860);
#695=VERTEX_POINT('',#1862);
#696=VERTEX_POINT('',#1865);
#697=VERTEX_POINT('',#1867);
#698=VERTEX_POINT('',#1872);
#699=VERTEX_POINT('',#1885);
#700=VERTEX_POINT('',#1886);
#701=VERTEX_POINT('',#1892);
#702=VERTEX_POINT('',#1897);
#703=VERTEX_POINT('',#1911);
#704=VERTEX_POINT('',#1913);
#705=VERTEX_POINT('',#1915);
#706=VERTEX_POINT('',#1917);
#707=VERTEX_POINT('',#1919);
#708=VERTEX_POINT('',#1921);
#709=VERTEX_POINT('',#1929);
#710=VERTEX_POINT('',#1946);
#711=VERTEX_POINT('',#1948);
#712=VERTEX_POINT('',#1950);
#713=VERTEX_POINT('',#1952);
#714=VERTEX_POINT('',#1954);
#715=VERTEX_POINT('',#1956);
#716=VERTEX_POINT('',#1960);
#717=VERTEX_POINT('',#1961);
#718=VERTEX_POINT('',#1966);
#719=VERTEX_POINT('',#1967);
#720=VERTEX_POINT('',#1969);
#721=VERTEX_POINT('',#1971);
#722=VERTEX_POINT('',#1974);
#723=VERTEX_POINT('',#1976);
#724=VERTEX_POINT('',#1978);
#725=VERTEX_POINT('',#1980);
#726=VERTEX_POINT('',#1987);
#727=VERTEX_POINT('',#1988);
#728=VERTEX_POINT('',#1993);
#729=VERTEX_POINT('',#1994);
#730=VERTEX_POINT('',#1996);
#731=VERTEX_POINT('',#1998);
#732=VERTEX_POINT('',#2001);
#733=VERTEX_POINT('',#2003);
#734=VERTEX_POINT('',#2005);
#735=VERTEX_POINT('',#2007);
#736=VERTEX_POINT('',#2024);
#737=VERTEX_POINT('',#2025);
#738=VERTEX_POINT('',#2027);
#739=VERTEX_POINT('',#2029);
#740=VERTEX_POINT('',#2033);
#741=VERTEX_POINT('',#2034);
#742=VERTEX_POINT('',#2036);
#743=VERTEX_POINT('',#2038);
#744=VERTEX_POINT('',#2042);
#745=VERTEX_POINT('',#2043);
#746=VERTEX_POINT('',#2045);
#747=VERTEX_POINT('',#2047);
#748=VERTEX_POINT('',#2063);
#749=VERTEX_POINT('',#2064);
#750=VERTEX_POINT('',#2066);
#751=VERTEX_POINT('',#2068);
#752=VERTEX_POINT('',#2072);
#753=VERTEX_POINT('',#2073);
#754=VERTEX_POINT('',#2075);
#755=VERTEX_POINT('',#2077);
#756=VERTEX_POINT('',#2081);
#757=VERTEX_POINT('',#2082);
#758=VERTEX_POINT('',#2084);
#759=VERTEX_POINT('',#2086);
#760=LINE('',#1749,#880);
#761=LINE('',#1752,#881);
#762=LINE('',#1754,#882);
#763=LINE('',#1756,#883);
#764=LINE('',#1758,#884);
#765=LINE('',#1766,#885);
#766=LINE('',#1769,#886);
#767=LINE('',#1771,#887);
#768=LINE('',#1773,#888);
#769=LINE('',#1775,#889);
#770=LINE('',#1779,#890);
#771=LINE('',#1781,#891);
#772=LINE('',#1783,#892);
#773=LINE('',#1787,#893);
#774=LINE('',#1791,#894);
#775=LINE('',#1793,#895);
#776=LINE('',#1795,#896);
#777=LINE('',#1799,#897);
#778=LINE('',#1803,#898);
#779=LINE('',#1807,#899);
#780=LINE('',#1811,#900);
#781=LINE('',#1814,#901);
#782=LINE('',#1816,#902);
#783=LINE('',#1820,#903);
#784=LINE('',#1822,#904);
#785=LINE('',#1824,#905);
#786=LINE('',#1828,#906);
#787=LINE('',#1832,#907);
#788=LINE('',#1836,#908);
#789=LINE('',#1840,#909);
#790=LINE('',#1842,#910);
#791=LINE('',#1844,#911);
#792=LINE('',#1848,#912);
#793=LINE('',#1850,#913);
#794=LINE('',#1852,#914);
#795=LINE('',#1856,#915);
#796=LINE('',#1864,#916);
#797=LINE('',#1866,#917);
#798=LINE('',#1868,#918);
#799=LINE('',#1870,#919);
#800=LINE('',#1875,#920);
#801=LINE('',#1876,#921);
#802=LINE('',#1878,#922);
#803=LINE('',#1879,#923);
#804=LINE('',#1881,#924);
#805=LINE('',#1882,#925);
#806=LINE('',#1888,#926);
#807=LINE('',#1889,#927);
#808=LINE('',#1891,#928);
#809=LINE('',#1893,#929);
#810=LINE('',#1895,#930);
#811=LINE('',#1900,#931);
#812=LINE('',#1901,#932);
#813=LINE('',#1903,#933);
#814=LINE('',#1904,#934);
#815=LINE('',#1906,#935);
#816=LINE('',#1907,#936);
#817=LINE('',#1909,#937);
#818=LINE('',#1912,#938);
#819=LINE('',#1916,#939);
#820=LINE('',#1920,#940);
#821=LINE('',#1923,#941);
#822=LINE('',#1925,#942);
#823=LINE('',#1926,#943);
#824=LINE('',#1931,#944);
#825=LINE('',#1947,#945);
#826=LINE('',#1951,#946);
#827=LINE('',#1955,#947);
#828=LINE('',#1959,#948);
#829=LINE('',#1962,#949);
#830=LINE('',#1963,#950);
#831=LINE('',#1965,#951);
#832=LINE('',#1968,#952);
#833=LINE('',#1970,#953);
#834=LINE('',#1973,#954);
#835=LINE('',#1975,#955);
#836=LINE('',#1979,#956);
#837=LINE('',#1981,#957);
#838=LINE('',#1983,#958);
#839=LINE('',#1984,#959);
#840=LINE('',#1986,#960);
#841=LINE('',#1989,#961);
#842=LINE('',#1990,#962);
#843=LINE('',#1992,#963);
#844=LINE('',#1995,#964);
#845=LINE('',#1997,#965);
#846=LINE('',#2000,#966);
#847=LINE('',#2002,#967);
#848=LINE('',#2006,#968);
#849=LINE('',#2008,#969);
#850=LINE('',#2010,#970);
#851=LINE('',#2011,#971);
#852=LINE('',#2023,#972);
#853=LINE('',#2026,#973);
#854=LINE('',#2028,#974);
#855=LINE('',#2030,#975);
#856=LINE('',#2032,#976);
#857=LINE('',#2035,#977);
#858=LINE('',#2037,#978);
#859=LINE('',#2039,#979);
#860=LINE('',#2041,#980);
#861=LINE('',#2044,#981);
#862=LINE('',#2046,#982);
#863=LINE('',#2048,#983);
#864=LINE('',#2059,#984);
#865=LINE('',#2060,#985);
#866=LINE('',#2062,#986);
#867=LINE('',#2065,#987);
#868=LINE('',#2067,#988);
#869=LINE('',#2069,#989);
#870=LINE('',#2071,#990);
#871=LINE('',#2074,#991);
#872=LINE('',#2076,#992);
#873=LINE('',#2078,#993);
#874=LINE('',#2080,#994);
#875=LINE('',#2083,#995);
#876=LINE('',#2085,#996);
#877=LINE('',#2087,#997);
#878=LINE('',#2097,#998);
#879=LINE('',#2098,#999);
#880=VECTOR('',#1381,1.);
#881=VECTOR('',#1382,1.);
#882=VECTOR('',#1383,1.);
#883=VECTOR('',#1384,1.);
#884=VECTOR('',#1385,1.);
#885=VECTOR('',#1394,1.);
#886=VECTOR('',#1395,1.);
#887=VECTOR('',#1396,1.);
#888=VECTOR('',#1397,1.);
#889=VECTOR('',#1398,1.);
#890=VECTOR('',#1401,1.);
#891=VECTOR('',#1402,1.);
#892=VECTOR('',#1403,1.);
#893=VECTOR('',#1406,1.);
#894=VECTOR('',#1409,1.);
#895=VECTOR('',#1410,1.);
#896=VECTOR('',#1411,1.);
#897=VECTOR('',#1414,1.);
#898=VECTOR('',#1417,1.);
#899=VECTOR('',#1420,1.);
#900=VECTOR('',#1425,1.);
#901=VECTOR('',#1426,1.);
#902=VECTOR('',#1427,1.);
#903=VECTOR('',#1430,1.);
#904=VECTOR('',#1431,1.);
#905=VECTOR('',#1432,1.);
#906=VECTOR('',#1435,1.);
#907=VECTOR('',#1438,1.);
#908=VECTOR('',#1441,1.);
#909=VECTOR('',#1444,1.);
#910=VECTOR('',#1445,1.);
#911=VECTOR('',#1446,1.);
#912=VECTOR('',#1449,1.);
#913=VECTOR('',#1450,1.);
#914=VECTOR('',#1451,1.);
#915=VECTOR('',#1454,1.);
#916=VECTOR('',#1463,1.);
#917=VECTOR('',#1464,1.);
#918=VECTOR('',#1465,1.);
#919=VECTOR('',#1468,1.);
#920=VECTOR('',#1475,1.);
#921=VECTOR('',#1476,1.);
#922=VECTOR('',#1479,1.);
#923=VECTOR('',#1480,1.);
#924=VECTOR('',#1483,1.);
#925=VECTOR('',#1484,1.);
#926=VECTOR('',#1491,1.);
#927=VECTOR('',#1492,1.);
#928=VECTOR('',#1495,1.);
#929=VECTOR('',#1496,1.);
#930=VECTOR('',#1499,1.);
#931=VECTOR('',#1506,1.);
#932=VECTOR('',#1507,1.);
#933=VECTOR('',#1510,1.);
#934=VECTOR('',#1511,1.);
#935=VECTOR('',#1514,1.);
#936=VECTOR('',#1515,1.);
#937=VECTOR('',#1518,1.);
#938=VECTOR('',#1521,1.);
#939=VECTOR('',#1524,1.);
#940=VECTOR('',#1527,1.);
#941=VECTOR('',#1530,1.);
#942=VECTOR('',#1533,1.);
#943=VECTOR('',#1534,1.);
#944=VECTOR('',#1541,1.);
#945=VECTOR('',#1570,1.);
#946=VECTOR('',#1573,1.);
#947=VECTOR('',#1576,1.);
#948=VECTOR('',#1581,1.);
#949=VECTOR('',#1582,1.);
#950=VECTOR('',#1583,1.);
#951=VECTOR('',#1586,1.);
#952=VECTOR('',#1587,1.);
#953=VECTOR('',#1588,1.);
#954=VECTOR('',#1591,1.);
#955=VECTOR('',#1592,1.);
#956=VECTOR('',#1595,1.);
#957=VECTOR('',#1596,1.);
#958=VECTOR('',#1599,1.);
#959=VECTOR('',#1600,1.);
#960=VECTOR('',#1603,1.);
#961=VECTOR('',#1604,1.);
#962=VECTOR('',#1605,1.);
#963=VECTOR('',#1608,1.);
#964=VECTOR('',#1609,1.);
#965=VECTOR('',#1610,1.);
#966=VECTOR('',#1613,1.);
#967=VECTOR('',#1614,1.);
#968=VECTOR('',#1617,1.);
#969=VECTOR('',#1618,1.);
#970=VECTOR('',#1621,1.);
#971=VECTOR('',#1622,1.);
#972=VECTOR('',#1645,1.);
#973=VECTOR('',#1646,1.);
#974=VECTOR('',#1647,1.);
#975=VECTOR('',#1648,1.);
#976=VECTOR('',#1651,1.);
#977=VECTOR('',#1652,1.);
#978=VECTOR('',#1653,1.);
#979=VECTOR('',#1654,1.);
#980=VECTOR('',#1657,1.);
#981=VECTOR('',#1658,1.);
#982=VECTOR('',#1659,1.);
#983=VECTOR('',#1660,1.);
#984=VECTOR('',#1681,1.);
#985=VECTOR('',#1682,1.);
#986=VECTOR('',#1685,1.);
#987=VECTOR('',#1686,1.);
#988=VECTOR('',#1687,1.);
#989=VECTOR('',#1688,1.);
#990=VECTOR('',#1691,1.);
#991=VECTOR('',#1692,1.);
#992=VECTOR('',#1693,1.);
#993=VECTOR('',#1694,1.);
#994=VECTOR('',#1697,1.);
#995=VECTOR('',#1698,1.);
#996=VECTOR('',#1699,1.);
#997=VECTOR('',#1700,1.);
#998=VECTOR('',#1719,1.);
#999=VECTOR('',#1720,1.);
#1000=EDGE_LOOP('',(#100,#101,#102,#103,#104,#105));
#1001=EDGE_LOOP('',(#106));
#1002=EDGE_LOOP('',(#107));
#1003=EDGE_LOOP('',(#108,#109,#110,#111,#112,#113,#114,#115,#116,#117,#118,
#119,#120,#121,#122,#123,#124,#125,#126,#127,#128,#129));
#1004=EDGE_LOOP('',(#130,#131,#132,#133,#134,#135,#136,#137,#138,#139,#140,
#141,#142,#143,#144,#145,#146,#147,#148,#149,#150,#151,#152,#153));
#1005=EDGE_LOOP('',(#154));
#1006=EDGE_LOOP('',(#155));
#1007=EDGE_LOOP('',(#156,#157,#158,#159));
#1008=EDGE_LOOP('',(#160,#161,#162,#163,#164,#165));
#1009=EDGE_LOOP('',(#166,#167,#168,#169));
#1010=EDGE_LOOP('',(#170,#171,#172,#173));
#1011=EDGE_LOOP('',(#174,#175,#176,#177));
#1012=EDGE_LOOP('',(#178,#179,#180,#181,#182,#183));
#1013=EDGE_LOOP('',(#184,#185,#186,#187));
#1014=EDGE_LOOP('',(#188,#189,#190,#191,#192,#193));
#1015=EDGE_LOOP('',(#194,#195,#196,#197));
#1016=EDGE_LOOP('',(#198,#199,#200,#201));
#1017=EDGE_LOOP('',(#202,#203,#204,#205));
#1018=EDGE_LOOP('',(#206,#207,#208,#209,#210,#211,#212,#213,#214,#215,#216,
#217));
#1019=EDGE_LOOP('',(#218,#219,#220,#221));
#1020=EDGE_LOOP('',(#222,#223,#224,#225,#226,#227));
#1021=EDGE_LOOP('',(#228,#229,#230,#231));
#1022=EDGE_LOOP('',(#232,#233,#234,#235));
#1023=EDGE_LOOP('',(#236,#237,#238,#239));
#1024=EDGE_LOOP('',(#240,#241,#242,#243));
#1025=EDGE_LOOP('',(#244,#245,#246,#247));
#1026=EDGE_LOOP('',(#248,#249,#250,#251));
#1027=EDGE_LOOP('',(#252,#253,#254,#255));
#1028=EDGE_LOOP('',(#256,#257,#258,#259));
#1029=EDGE_LOOP('',(#260,#261,#262,#263));
#1030=EDGE_LOOP('',(#264,#265,#266,#267));
#1031=EDGE_LOOP('',(#268));
#1032=EDGE_LOOP('',(#269));
#1033=EDGE_LOOP('',(#270));
#1034=EDGE_LOOP('',(#271));
#1035=EDGE_LOOP('',(#272,#273,#274,#275,#276,#277,#278,#279));
#1036=EDGE_LOOP('',(#280,#281,#282,#283));
#1037=EDGE_LOOP('',(#284,#285,#286,#287,#288,#289,#290,#291,#292,#293));
#1038=EDGE_LOOP('',(#294,#295,#296,#297));
#1039=EDGE_LOOP('',(#298,#299,#300,#301));
#1040=EDGE_LOOP('',(#302,#303,#304,#305,#306,#307,#308,#309,#310,#311));
#1041=EDGE_LOOP('',(#312,#313,#314,#315));
#1042=EDGE_LOOP('',(#316,#317,#318,#319,#320));
#1043=EDGE_LOOP('',(#321,#322,#323,#324,#325));
#1044=EDGE_LOOP('',(#326,#327,#328,#329,#330,#331));
#1045=EDGE_LOOP('',(#332,#333,#334,#335,#336));
#1046=EDGE_LOOP('',(#337,#338,#339,#340,#341));
#1047=EDGE_LOOP('',(#342,#343,#344,#345,#346,#347));
#1048=EDGE_LOOP('',(#348,#349,#350,#351));
#1049=EDGE_LOOP('',(#352,#353,#354,#355));
#1050=EDGE_LOOP('',(#356,#357,#358,#359));
#1051=EDGE_LOOP('',(#360,#361,#362,#363,#364,#365,#366,#367));
#1052=EDGE_LOOP('',(#368,#369,#370,#371,#372,#373,#374,#375,#376,#377,#378,
#379));
#1053=EDGE_LOOP('',(#380,#381,#382,#383));
#1054=EDGE_LOOP('',(#384,#385,#386,#387));
#1055=EDGE_LOOP('',(#388,#389,#390,#391));
#1056=EDGE_LOOP('',(#392,#393,#394,#395,#396,#397,#398,#399));
#1057=EDGE_LOOP('',(#400,#401,#402,#403,#404,#405,#406,#407,#408,#409,#410,
#411));
#1058=EDGE_LOOP('',(#412,#413,#414,#415));
#1059=EDGE_LOOP('',(#416,#417,#418,#419));
#1060=EDGE_LOOP('',(#420,#421,#422,#423));
#1061=EDGE_LOOP('',(#424,#425,#426,#427));
#1062=EDGE_LOOP('',(#428,#429,#430,#431));
#1063=EDGE_LOOP('',(#432,#433,#434,#435));
#1064=EDGE_LOOP('',(#436,#437,#438,#439));
#1065=EDGE_LOOP('',(#440,#441,#442,#443));
#1066=EDGE_LOOP('',(#444,#445,#446,#447));
#1067=EDGE_LOOP('',(#448,#449,#450,#451));
#1068=EDGE_LOOP('',(#452,#453,#454,#455));
#1069=EDGE_LOOP('',(#456,#457,#458,#459));
#1070=FACE_BOUND('',#1000,.T.);
#1071=FACE_BOUND('',#1001,.T.);
#1072=FACE_BOUND('',#1002,.T.);
#1073=FACE_BOUND('',#1003,.T.);
#1074=FACE_BOUND('',#1004,.T.);
#1075=FACE_BOUND('',#1005,.T.);
#1076=FACE_BOUND('',#1006,.T.);
#1077=FACE_BOUND('',#1007,.T.);
#1078=FACE_BOUND('',#1008,.T.);
#1079=FACE_BOUND('',#1009,.T.);
#1080=FACE_BOUND('',#1010,.T.);
#1081=FACE_BOUND('',#1011,.T.);
#1082=FACE_BOUND('',#1012,.T.);
#1083=FACE_BOUND('',#1013,.T.);
#1084=FACE_BOUND('',#1014,.T.);
#1085=FACE_BOUND('',#1015,.T.);
#1086=FACE_BOUND('',#1016,.T.);
#1087=FACE_BOUND('',#1017,.T.);
#1088=FACE_BOUND('',#1018,.T.);
#1089=FACE_BOUND('',#1019,.T.);
#1090=FACE_BOUND('',#1020,.T.);
#1091=FACE_BOUND('',#1021,.T.);
#1092=FACE_BOUND('',#1022,.T.);
#1093=FACE_BOUND('',#1023,.T.);
#1094=FACE_BOUND('',#1024,.T.);
#1095=FACE_BOUND('',#1025,.T.);
#1096=FACE_BOUND('',#1026,.T.);
#1097=FACE_BOUND('',#1027,.T.);
#1098=FACE_BOUND('',#1028,.T.);
#1099=FACE_BOUND('',#1029,.T.);
#1100=FACE_BOUND('',#1030,.T.);
#1101=FACE_BOUND('',#1031,.T.);
#1102=FACE_BOUND('',#1032,.T.);
#1103=FACE_BOUND('',#1033,.T.);
#1104=FACE_BOUND('',#1034,.T.);
#1105=FACE_BOUND('',#1035,.T.);
#1106=FACE_BOUND('',#1036,.T.);
#1107=FACE_BOUND('',#1037,.T.);
#1108=FACE_BOUND('',#1038,.T.);
#1109=FACE_BOUND('',#1039,.T.);
#1110=FACE_BOUND('',#1040,.T.);
#1111=FACE_BOUND('',#1041,.T.);
#1112=FACE_BOUND('',#1042,.T.);
#1113=FACE_BOUND('',#1043,.T.);
#1114=FACE_BOUND('',#1044,.T.);
#1115=FACE_BOUND('',#1045,.T.);
#1116=FACE_BOUND('',#1046,.T.);
#1117=FACE_BOUND('',#1047,.T.);
#1118=FACE_BOUND('',#1048,.T.);
#1119=FACE_BOUND('',#1049,.T.);
#1120=FACE_BOUND('',#1050,.T.);
#1121=FACE_BOUND('',#1051,.T.);
#1122=FACE_BOUND('',#1052,.T.);
#1123=FACE_BOUND('',#1053,.T.);
#1124=FACE_BOUND('',#1054,.T.);
#1125=FACE_BOUND('',#1055,.T.);
#1126=FACE_BOUND('',#1056,.T.);
#1127=FACE_BOUND('',#1057,.T.);
#1128=FACE_BOUND('',#1058,.T.);
#1129=FACE_BOUND('',#1059,.T.);
#1130=FACE_BOUND('',#1060,.T.);
#1131=FACE_BOUND('',#1061,.T.);
#1132=FACE_BOUND('',#1062,.T.);
#1133=FACE_BOUND('',#1063,.T.);
#1134=FACE_BOUND('',#1064,.T.);
#1135=FACE_BOUND('',#1065,.T.);
#1136=FACE_BOUND('',#1066,.T.);
#1137=FACE_BOUND('',#1067,.T.);
#1138=FACE_BOUND('',#1068,.T.);
#1139=FACE_BOUND('',#1069,.T.);
#1140=PLANE('',#1253);
#1141=PLANE('',#1255);
#1142=PLANE('',#1265);
#1143=PLANE('',#1276);
#1144=PLANE('',#1277);
#1145=PLANE('',#1280);
#1146=PLANE('',#1281);
#1147=PLANE('',#1282);
#1148=PLANE('',#1283);
#1149=PLANE('',#1286);
#1150=PLANE('',#1287);
#1151=PLANE('',#1290);
#1152=PLANE('',#1291);
#1153=PLANE('',#1292);
#1154=PLANE('',#1293);
#1155=PLANE('',#1298);
#1156=PLANE('',#1299);
#1157=PLANE('',#1310);
#1158=PLANE('',#1311);
#1159=PLANE('',#1314);
#1160=PLANE('',#1319);
#1161=PLANE('',#1320);
#1162=PLANE('',#1323);
#1163=PLANE('',#1324);
#1164=PLANE('',#1325);
#1165=PLANE('',#1328);
#1166=PLANE('',#1339);
#1167=PLANE('',#1340);
#1168=PLANE('',#1341);
#1169=PLANE('',#1342);
#1170=PLANE('',#1347);
#1171=PLANE('',#1352);
#1172=PLANE('',#1353);
#1173=PLANE('',#1354);
#1174=PLANE('',#1355);
#1175=PLANE('',#1360);
#1176=ADVANCED_FACE('',(#1070),#1140,.T.);
#1177=ADVANCED_FACE('',(#1071,#1072,#1073),#1141,.T.);
#1178=ADVANCED_FACE('',(#1074,#1075,#1076),#1142,.F.);
#1179=ADVANCED_FACE('',(#1077),#1143,.T.);
#1180=ADVANCED_FACE('',(#1078),#1144,.F.);
#1181=ADVANCED_FACE('',(#1079),#1145,.T.);
#1182=ADVANCED_FACE('',(#1080),#1146,.F.);
#1183=ADVANCED_FACE('',(#1081),#1147,.F.);
#1184=ADVANCED_FACE('',(#1082),#1148,.T.);
#1185=ADVANCED_FACE('',(#1083),#1149,.T.);
#1186=ADVANCED_FACE('',(#1084),#1150,.F.);
#1187=ADVANCED_FACE('',(#1085),#1151,.T.);
#1188=ADVANCED_FACE('',(#1086),#1152,.F.);
#1189=ADVANCED_FACE('',(#1087),#1153,.T.);
#1190=ADVANCED_FACE('',(#1088),#1154,.T.);
#1191=ADVANCED_FACE('',(#1089),#1155,.F.);
#1192=ADVANCED_FACE('',(#1090),#1156,.T.);
#1193=ADVANCED_FACE('',(#1091),#12,.T.);
#1194=ADVANCED_FACE('',(#1092),#13,.T.);
#1195=ADVANCED_FACE('',(#1093),#14,.T.);
#1196=ADVANCED_FACE('',(#1094),#15,.F.);
#1197=ADVANCED_FACE('',(#1095),#16,.T.);
#1198=ADVANCED_FACE('',(#1096),#17,.F.);
#1199=ADVANCED_FACE('',(#1097),#18,.F.);
#1200=ADVANCED_FACE('',(#1098),#19,.F.);
#1201=ADVANCED_FACE('',(#1099),#1157,.T.);
#1202=ADVANCED_FACE('',(#1100),#1158,.T.);
#1203=ADVANCED_FACE('',(#1101,#1102),#20,.F.);
#1204=ADVANCED_FACE('',(#1103,#1104),#21,.F.);
#1205=ADVANCED_FACE('',(#1105),#1159,.T.);
#1206=ADVANCED_FACE('',(#1106),#1160,.T.);
#1207=ADVANCED_FACE('',(#1107),#1161,.T.);
#1208=ADVANCED_FACE('',(#1108),#1162,.F.);
#1209=ADVANCED_FACE('',(#1109),#1163,.T.);
#1210=ADVANCED_FACE('',(#1110),#1164,.T.);
#1211=ADVANCED_FACE('',(#1111),#1165,.F.);
#1212=ADVANCED_FACE('',(#1112),#22,.F.);
#1213=ADVANCED_FACE('',(#1113),#23,.F.);
#1214=ADVANCED_FACE('',(#1114),#24,.F.);
#1215=ADVANCED_FACE('',(#1115),#25,.F.);
#1216=ADVANCED_FACE('',(#1116),#26,.F.);
#1217=ADVANCED_FACE('',(#1117),#27,.F.);
#1218=ADVANCED_FACE('',(#1118),#1166,.F.);
#1219=ADVANCED_FACE('',(#1119),#1167,.F.);
#1220=ADVANCED_FACE('',(#1120),#1168,.T.);
#1221=ADVANCED_FACE('',(#1121),#1169,.T.);
#1222=ADVANCED_FACE('',(#1122),#1170,.F.);
#1223=ADVANCED_FACE('',(#1123),#1171,.T.);
#1224=ADVANCED_FACE('',(#1124),#1172,.F.);
#1225=ADVANCED_FACE('',(#1125),#1173,.F.);
#1226=ADVANCED_FACE('',(#1126),#1174,.T.);
#1227=ADVANCED_FACE('',(#1127),#1175,.F.);
#1228=ADVANCED_FACE('',(#1128),#28,.F.);
#1229=ADVANCED_FACE('',(#1129),#29,.F.);
#1230=ADVANCED_FACE('',(#1130),#30,.F.);
#1231=ADVANCED_FACE('',(#1131),#31,.F.);
#1232=ADVANCED_FACE('',(#1132),#32,.T.);
#1233=ADVANCED_FACE('',(#1133),#33,.T.);
#1234=ADVANCED_FACE('',(#1134),#34,.T.);
#1235=ADVANCED_FACE('',(#1135),#35,.T.);
#1236=ADVANCED_FACE('',(#1136),#36,.T.);
#1237=ADVANCED_FACE('',(#1137),#37,.T.);
#1238=ADVANCED_FACE('',(#1138),#38,.T.);
#1239=ADVANCED_FACE('',(#1139),#39,.T.);
#1240=CLOSED_SHELL('',(#1176,#1177,#1178,#1179,#1180,#1181,#1182,#1183,
#1184,#1185,#1186,#1187,#1188,#1189,#1190,#1191,#1192,#1193,#1194,#1195,
#1196,#1197,#1198,#1199,#1200,#1201,#1202,#1203,#1204,#1205,#1206,#1207,
#1208,#1209,#1210,#1211,#1212,#1213,#1214,#1215,#1216,#1217,#1218,#1219,
#1220,#1221,#1222,#1223,#1224,#1225,#1226,#1227,#1228,#1229,#1230,#1231,
#1232,#1233,#1234,#1235,#1236,#1237,#1238,#1239));
#1241=STYLED_ITEM('',(#1242),#1249);
#1242=PRESENTATION_STYLE_ASSIGNMENT((#1243));
#1243=SURFACE_STYLE_USAGE(.BOTH.,#1244);
#1244=SURFACE_SIDE_STYLE('',(#1245));
#1245=SURFACE_STYLE_FILL_AREA(#1246);
#1246=FILL_AREA_STYLE('',(#1247));
#1247=FILL_AREA_STYLE_COLOUR('',#1248);
#1248=COLOUR_RGB('',0.615686274509804,0.811764705882353,0.929411764705882);
#1249=MANIFOLD_SOLID_BREP('Part 1',#1240);
#1250=SHAPE_DEFINITION_REPRESENTATION(#2118,#1251);
#1251=SHAPE_REPRESENTATION('Part 1',(#1252),#2113);
#1252=AXIS2_PLACEMENT_3D('',#1747,#1377,#1378);
#1253=AXIS2_PLACEMENT_3D('',#1748,#1379,#1380);
#1254=AXIS2_PLACEMENT_3D('',#1760,#1386,#1387);
#1255=AXIS2_PLACEMENT_3D('',#1761,#1388,#1389);
#1256=AXIS2_PLACEMENT_3D('',#1762,#1390,#1391);
#1257=AXIS2_PLACEMENT_3D('',#1764,#1392,#1393);
#1258=AXIS2_PLACEMENT_3D('',#1777,#1399,#1400);
#1259=AXIS2_PLACEMENT_3D('',#1785,#1404,#1405);
#1260=AXIS2_PLACEMENT_3D('',#1789,#1407,#1408);
#1261=AXIS2_PLACEMENT_3D('',#1797,#1412,#1413);
#1262=AXIS2_PLACEMENT_3D('',#1801,#1415,#1416);
#1263=AXIS2_PLACEMENT_3D('',#1805,#1418,#1419);
#1264=AXIS2_PLACEMENT_3D('',#1809,#1421,#1422);
#1265=AXIS2_PLACEMENT_3D('',#1810,#1423,#1424);
#1266=AXIS2_PLACEMENT_3D('',#1818,#1428,#1429);
#1267=AXIS2_PLACEMENT_3D('',#1826,#1433,#1434);
#1268=AXIS2_PLACEMENT_3D('',#1830,#1436,#1437);
#1269=AXIS2_PLACEMENT_3D('',#1834,#1439,#1440);
#1270=AXIS2_PLACEMENT_3D('',#1838,#1442,#1443);
#1271=AXIS2_PLACEMENT_3D('',#1846,#1447,#1448);
#1272=AXIS2_PLACEMENT_3D('',#1854,#1452,#1453);
#1273=AXIS2_PLACEMENT_3D('',#1858,#1455,#1456);
#1274=AXIS2_PLACEMENT_3D('',#1859,#1457,#1458);
#1275=AXIS2_PLACEMENT_3D('',#1861,#1459,#1460);
#1276=AXIS2_PLACEMENT_3D('',#1863,#1461,#1462);
#1277=AXIS2_PLACEMENT_3D('',#1869,#1466,#1467);
#1278=AXIS2_PLACEMENT_3D('',#1871,#1469,#1470);
#1279=AXIS2_PLACEMENT_3D('',#1873,#1471,#1472);
#1280=AXIS2_PLACEMENT_3D('',#1874,#1473,#1474);
#1281=AXIS2_PLACEMENT_3D('',#1877,#1477,#1478);
#1282=AXIS2_PLACEMENT_3D('',#1880,#1481,#1482);
#1283=AXIS2_PLACEMENT_3D('',#1883,#1485,#1486);
#1284=AXIS2_PLACEMENT_3D('',#1884,#1487,#1488);
#1285=AXIS2_PLACEMENT_3D('',#1887,#1489,#1490);
#1286=AXIS2_PLACEMENT_3D('',#1890,#1493,#1494);
#1287=AXIS2_PLACEMENT_3D('',#1894,#1497,#1498);
#1288=AXIS2_PLACEMENT_3D('',#1896,#1500,#1501);
#1289=AXIS2_PLACEMENT_3D('',#1898,#1502,#1503);
#1290=AXIS2_PLACEMENT_3D('',#1899,#1504,#1505);
#1291=AXIS2_PLACEMENT_3D('',#1902,#1508,#1509);
#1292=AXIS2_PLACEMENT_3D('',#1905,#1512,#1513);
#1293=AXIS2_PLACEMENT_3D('',#1908,#1516,#1517);
#1294=AXIS2_PLACEMENT_3D('',#1910,#1519,#1520);
#1295=AXIS2_PLACEMENT_3D('',#1914,#1522,#1523);
#1296=AXIS2_PLACEMENT_3D('',#1918,#1525,#1526);
#1297=AXIS2_PLACEMENT_3D('',#1922,#1528,#1529);
#1298=AXIS2_PLACEMENT_3D('',#1924,#1531,#1532);
#1299=AXIS2_PLACEMENT_3D('',#1927,#1535,#1536);
#1300=AXIS2_PLACEMENT_3D('',#1928,#1537,#1538);
#1301=AXIS2_PLACEMENT_3D('',#1930,#1539,#1540);
#1302=AXIS2_PLACEMENT_3D('',#1932,#1542,#1543);
#1303=AXIS2_PLACEMENT_3D('',#1933,#1544,#1545);
#1304=AXIS2_PLACEMENT_3D('',#1934,#1546,#1547);
#1305=AXIS2_PLACEMENT_3D('',#1935,#1548,#1549);
#1306=AXIS2_PLACEMENT_3D('',#1936,#1550,#1551);
#1307=AXIS2_PLACEMENT_3D('',#1937,#1552,#1553);
#1308=AXIS2_PLACEMENT_3D('',#1938,#1554,#1555);
#1309=AXIS2_PLACEMENT_3D('',#1939,#1556,#1557);
#1310=AXIS2_PLACEMENT_3D('',#1940,#1558,#1559);
#1311=AXIS2_PLACEMENT_3D('',#1941,#1560,#1561);
#1312=AXIS2_PLACEMENT_3D('',#1942,#1562,#1563);
#1313=AXIS2_PLACEMENT_3D('',#1943,#1564,#1565);
#1314=AXIS2_PLACEMENT_3D('',#1944,#1566,#1567);
#1315=AXIS2_PLACEMENT_3D('',#1945,#1568,#1569);
#1316=AXIS2_PLACEMENT_3D('',#1949,#1571,#1572);
#1317=AXIS2_PLACEMENT_3D('',#1953,#1574,#1575);
#1318=AXIS2_PLACEMENT_3D('',#1957,#1577,#1578);
#1319=AXIS2_PLACEMENT_3D('',#1958,#1579,#1580);
#1320=AXIS2_PLACEMENT_3D('',#1964,#1584,#1585);
#1321=AXIS2_PLACEMENT_3D('',#1972,#1589,#1590);
#1322=AXIS2_PLACEMENT_3D('',#1977,#1593,#1594);
#1323=AXIS2_PLACEMENT_3D('',#1982,#1597,#1598);
#1324=AXIS2_PLACEMENT_3D('',#1985,#1601,#1602);
#1325=AXIS2_PLACEMENT_3D('',#1991,#1606,#1607);
#1326=AXIS2_PLACEMENT_3D('',#1999,#1611,#1612);
#1327=AXIS2_PLACEMENT_3D('',#2004,#1615,#1616);
#1328=AXIS2_PLACEMENT_3D('',#2009,#1619,#1620);
#1329=AXIS2_PLACEMENT_3D('',#2012,#1623,#1624);
#1330=AXIS2_PLACEMENT_3D('',#2013,#1625,#1626);
#1331=AXIS2_PLACEMENT_3D('',#2014,#1627,#1628);
#1332=AXIS2_PLACEMENT_3D('',#2015,#1629,#1630);
#1333=AXIS2_PLACEMENT_3D('',#2016,#1631,#1632);
#1334=AXIS2_PLACEMENT_3D('',#2017,#1633,#1634);
#1335=AXIS2_PLACEMENT_3D('',#2018,#1635,#1636);
#1336=AXIS2_PLACEMENT_3D('',#2019,#1637,#1638);
#1337=AXIS2_PLACEMENT_3D('',#2020,#1639,#1640);
#1338=AXIS2_PLACEMENT_3D('',#2021,#1641,#1642);
#1339=AXIS2_PLACEMENT_3D('',#2022,#1643,#1644);
#1340=AXIS2_PLACEMENT_3D('',#2031,#1649,#1650);
#1341=AXIS2_PLACEMENT_3D('',#2040,#1655,#1656);
#1342=AXIS2_PLACEMENT_3D('',#2049,#1661,#1662);
#1343=AXIS2_PLACEMENT_3D('',#2050,#1663,#1664);
#1344=AXIS2_PLACEMENT_3D('',#2051,#1665,#1666);
#1345=AXIS2_PLACEMENT_3D('',#2052,#1667,#1668);
#1346=AXIS2_PLACEMENT_3D('',#2053,#1669,#1670);
#1347=AXIS2_PLACEMENT_3D('',#2054,#1671,#1672);
#1348=AXIS2_PLACEMENT_3D('',#2055,#1673,#1674);
#1349=AXIS2_PLACEMENT_3D('',#2056,#1675,#1676);
#1350=AXIS2_PLACEMENT_3D('',#2057,#1677,#1678);
#1351=AXIS2_PLACEMENT_3D('',#2058,#1679,#1680);
#1352=AXIS2_PLACEMENT_3D('',#2061,#1683,#1684);
#1353=AXIS2_PLACEMENT_3D('',#2070,#1689,#1690);
#1354=AXIS2_PLACEMENT_3D('',#2079,#1695,#1696);
#1355=AXIS2_PLACEMENT_3D('',#2088,#1701,#1702);
#1356=AXIS2_PLACEMENT_3D('',#2089,#1703,#1704);
#1357=AXIS2_PLACEMENT_3D('',#2090,#1705,#1706);
#1358=AXIS2_PLACEMENT_3D('',#2091,#1707,#1708);
#1359=AXIS2_PLACEMENT_3D('',#2092,#1709,#1710);
#1360=AXIS2_PLACEMENT_3D('',#2093,#1711,#1712);
#1361=AXIS2_PLACEMENT_3D('',#2094,#1713,#1714);
#1362=AXIS2_PLACEMENT_3D('',#2095,#1715,#1716);
#1363=AXIS2_PLACEMENT_3D('',#2096,#1717,#1718);
#1364=AXIS2_PLACEMENT_3D('',#2099,#1721,#1722);
#1365=AXIS2_PLACEMENT_3D('',#2100,#1723,#1724);
#1366=AXIS2_PLACEMENT_3D('',#2101,#1725,#1726);
#1367=AXIS2_PLACEMENT_3D('',#2102,#1727,#1728);
#1368=AXIS2_PLACEMENT_3D('',#2103,#1729,#1730);
#1369=AXIS2_PLACEMENT_3D('',#2104,#1731,#1732);
#1370=AXIS2_PLACEMENT_3D('',#2105,#1733,#1734);
#1371=AXIS2_PLACEMENT_3D('',#2106,#1735,#1736);
#1372=AXIS2_PLACEMENT_3D('',#2107,#1737,#1738);
#1373=AXIS2_PLACEMENT_3D('',#2108,#1739,#1740);
#1374=AXIS2_PLACEMENT_3D('',#2109,#1741,#1742);
#1375=AXIS2_PLACEMENT_3D('',#2110,#1743,#1744);
#1376=AXIS2_PLACEMENT_3D('',#2111,#1745,#1746);
#1377=DIRECTION('',(0.,0.,1.));
#1378=DIRECTION('',(1.,0.,0.));
#1379=DIRECTION('',(0.,1.,0.));
#1380=DIRECTION('',(1.,0.,0.));
#1381=DIRECTION('',(0.889817462812737,0.,0.456316647596276));
#1382=DIRECTION('',(0.,0.,1.));
#1383=DIRECTION('',(-1.,0.,0.));
#1384=DIRECTION('',(0.707106781186548,0.,-0.707106781186548));
#1385=DIRECTION('',(0.,0.,-1.));
#1386=DIRECTION('',(0.,1.,0.));
#1387=DIRECTION('',(1.,0.,0.));
#1388=DIRECTION('',(0.,1.,0.));
#1389=DIRECTION('',(1.,0.,0.));
#1390=DIRECTION('',(0.,-1.,0.));
#1391=DIRECTION('',(1.,0.,0.));
#1392=DIRECTION('',(0.,1.,0.));
#1393=DIRECTION('',(1.,0.,0.));
#1394=DIRECTION('',(-0.889817462812737,0.,-0.456316647596276));
#1395=DIRECTION('',(0.,0.,-1.));
#1396=DIRECTION('',(1.,0.,0.));
#1397=DIRECTION('',(0.,0.,-1.));
#1398=DIRECTION('',(0.889817462812737,0.,-0.456316647596276));
#1399=DIRECTION('',(0.,1.,0.));
#1400=DIRECTION('',(1.,0.,0.));
#1401=DIRECTION('',(0.,0.,1.));
#1402=DIRECTION('',(-0.707106781186549,0.,-0.707106781186547));
#1403=DIRECTION('',(-0.99998329421395,0.,-0.00578025025557213));
#1404=DIRECTION('',(0.,1.,0.));
#1405=DIRECTION('',(1.,0.,0.));
#1406=DIRECTION('',(0.,0.,1.));
#1407=DIRECTION('',(0.,1.,0.));
#1408=DIRECTION('',(1.,0.,0.));
#1409=DIRECTION('',(-1.,0.,0.));
#1410=DIRECTION('',(0.,0.,1.));
#1411=DIRECTION('',(-0.889817462812737,0.,0.456316647596275));
#1412=DIRECTION('',(0.,1.,0.));
#1413=DIRECTION('',(1.,0.,0.));
#1414=DIRECTION('',(1.,0.,0.));
#1415=DIRECTION('',(0.,1.,0.));
#1416=DIRECTION('',(1.,0.,0.));
#1417=DIRECTION('',(0.,0.,1.));
#1418=DIRECTION('',(0.,1.,0.));
#1419=DIRECTION('',(1.,0.,0.));
#1420=DIRECTION('',(1.,0.,0.));
#1421=DIRECTION('',(0.,1.,0.));
#1422=DIRECTION('',(1.,0.,0.));
#1423=DIRECTION('',(0.,1.,0.));
#1424=DIRECTION('',(1.,0.,0.));
#1425=DIRECTION('',(-0.99998329421395,0.,-0.00578025025557213));
#1426=DIRECTION('',(0.707106781186549,0.,0.707106781186547));
#1427=DIRECTION('',(0.,0.,1.));
#1428=DIRECTION('',(0.,1.,0.));
#1429=DIRECTION('',(1.,0.,0.));
#1430=DIRECTION('',(0.889817462812737,0.,-0.456316647596276));
#1431=DIRECTION('',(-1.,0.,0.));
#1432=DIRECTION('',(-0.889817462812737,0.,-0.456316647596276));
#1433=DIRECTION('',(0.,1.,0.));
#1434=DIRECTION('',(1.,0.,0.));
#1435=DIRECTION('',(1.,0.,0.));
#1436=DIRECTION('',(0.,1.,0.));
#1437=DIRECTION('',(1.,0.,0.));
#1438=DIRECTION('',(0.,0.,1.));
#1439=DIRECTION('',(0.,1.,0.));
#1440=DIRECTION('',(1.,0.,0.));
#1441=DIRECTION('',(1.,0.,0.));
#1442=DIRECTION('',(0.,1.,0.));
#1443=DIRECTION('',(1.,0.,0.));
#1444=DIRECTION('',(-0.889817462812737,0.,0.456316647596275));
#1445=DIRECTION('',(1.,0.,0.));
#1446=DIRECTION('',(0.889817462812737,0.,0.456316647596276));
#1447=DIRECTION('',(0.,1.,0.));
#1448=DIRECTION('',(1.,0.,0.));
#1449=DIRECTION('',(0.,0.,-1.));
#1450=DIRECTION('',(-0.707106781186548,0.,0.707106781186548));
#1451=DIRECTION('',(-1.,0.,0.));
#1452=DIRECTION('',(0.,1.,0.));
#1453=DIRECTION('',(1.,0.,0.));
#1454=DIRECTION('',(0.,0.,1.));
#1455=DIRECTION('',(0.,1.,0.));
#1456=DIRECTION('',(1.,0.,0.));
#1457=DIRECTION('',(0.,1.,0.));
#1458=DIRECTION('',(1.,0.,0.));
#1459=DIRECTION('',(0.,1.,0.));
#1460=DIRECTION('',(1.,0.,0.));
#1461=DIRECTION('',(0.,0.,-1.));
#1462=DIRECTION('',(0.,1.,0.));
#1463=DIRECTION('',(0.,-1.,0.));
#1464=DIRECTION('',(1.,0.,0.));
#1465=DIRECTION('',(0.,-1.,0.));
#1466=DIRECTION('',(0.456316647596275,0.,0.889817462812737));
#1467=DIRECTION('',(0.889817462812737,0.,-0.456316647596275));
#1468=DIRECTION('',(0.,-1.,0.));
#1469=DIRECTION('',(0.456316647596275,0.,0.889817462812737));
#1470=DIRECTION('',(-0.889817462812737,0.,0.456316647596275));
#1471=DIRECTION('',(0.456316647596275,0.,0.889817462812737));
#1472=DIRECTION('',(-0.889817462812737,0.,0.456316647596275));
#1473=DIRECTION('',(0.,0.,-1.));
#1474=DIRECTION('',(0.,1.,0.));
#1475=DIRECTION('',(0.,-1.,0.));
#1476=DIRECTION('',(0.,-1.,0.));
#1477=DIRECTION('',(1.,0.,0.));
#1478=DIRECTION('',(0.,-1.,0.));
#1479=DIRECTION('',(0.,-1.,0.));
#1480=DIRECTION('',(0.,-1.,0.));
#1481=DIRECTION('',(0.,0.,-1.));
#1482=DIRECTION('',(0.,1.,0.));
#1483=DIRECTION('',(0.,-1.,0.));
#1484=DIRECTION('',(0.,-1.,0.));
#1485=DIRECTION('',(-0.456316647596276,0.,0.889817462812737));
#1486=DIRECTION('',(0.889817462812737,0.,0.456316647596276));
#1487=DIRECTION('',(-0.456316647596276,0.,0.889817462812737));
#1488=DIRECTION('',(0.889817462812737,0.,0.456316647596276));
#1489=DIRECTION('',(-0.456316647596276,0.,0.889817462812737));
#1490=DIRECTION('',(0.889817462812737,0.,0.456316647596276));
#1491=DIRECTION('',(0.,-1.,0.));
#1492=DIRECTION('',(0.,-1.,0.));
#1493=DIRECTION('',(0.,0.,1.));
#1494=DIRECTION('',(0.,-1.,0.));
#1495=DIRECTION('',(0.,-1.,0.));
#1496=DIRECTION('',(-1.,0.,0.));
#1497=DIRECTION('',(-0.456316647596276,0.,-0.889817462812737));
#1498=DIRECTION('',(-0.889817462812737,0.,0.456316647596276));
#1499=DIRECTION('',(0.,-1.,0.));
#1500=DIRECTION('',(-0.456316647596276,0.,-0.889817462812737));
#1501=DIRECTION('',(0.889817462812737,0.,-0.456316647596276));
#1502=DIRECTION('',(-0.456316647596276,0.,-0.889817462812737));
#1503=DIRECTION('',(0.889817462812737,0.,-0.456316647596276));
#1504=DIRECTION('',(1.,0.,0.));
#1505=DIRECTION('',(0.,-1.,0.));
#1506=DIRECTION('',(0.,1.,0.));
#1507=DIRECTION('',(0.,-1.,0.));
#1508=DIRECTION('',(-0.00578025025557213,0.,0.99998329421395));
#1509=DIRECTION('',(0.99998329421395,0.,0.00578025025557213));
#1510=DIRECTION('',(0.,-1.,0.));
#1511=DIRECTION('',(0.,-1.,0.));
#1512=DIRECTION('',(1.,0.,0.));
#1513=DIRECTION('',(0.,-1.,0.));
#1514=DIRECTION('',(0.,-1.,0.));
#1515=DIRECTION('',(0.,-1.,0.));
#1516=DIRECTION('',(0.,0.,1.));
#1517=DIRECTION('',(0.,-1.,0.));
#1518=DIRECTION('',(0.,1.,0.));
#1519=DIRECTION('',(0.,0.,1.));
#1520=DIRECTION('',(0.,-1.,0.));
#1521=DIRECTION('',(0.,-1.,0.));
#1522=DIRECTION('',(0.,0.,1.));
#1523=DIRECTION('',(0.,-1.,0.));
#1524=DIRECTION('',(-1.,0.,0.));
#1525=DIRECTION('',(0.,0.,1.));
#1526=DIRECTION('',(0.,-1.,0.));
#1527=DIRECTION('',(0.,-1.,0.));
#1528=DIRECTION('',(0.,0.,1.));
#1529=DIRECTION('',(0.,-1.,0.));
#1530=DIRECTION('',(0.,-1.,0.));
#1531=DIRECTION('',(-1.,0.,0.));
#1532=DIRECTION('',(0.,1.,0.));
#1533=DIRECTION('',(0.,-1.,0.));
#1534=DIRECTION('',(0.,-1.,0.));
#1535=DIRECTION('',(0.456316647596276,0.,-0.889817462812736));
#1536=DIRECTION('',(-0.889817462812737,0.,-0.456316647596277));
#1537=DIRECTION('',(0.456316647596276,0.,-0.889817462812736));
#1538=DIRECTION('',(-0.889817462812737,0.,-0.456316647596277));
#1539=DIRECTION('',(0.456316647596276,0.,-0.889817462812736));
#1540=DIRECTION('',(-0.889817462812737,0.,-0.456316647596277));
#1541=DIRECTION('',(0.,-1.,0.));
#1542=DIRECTION('',(0.,1.,0.));
#1543=DIRECTION('',(1.,0.,0.));
#1544=DIRECTION('',(0.,-1.,0.));
#1545=DIRECTION('',(-1.,0.,0.));
#1546=DIRECTION('',(0.,1.,0.));
#1547=DIRECTION('',(1.,0.,0.));
#1548=DIRECTION('',(0.,-1.,0.));
#1549=DIRECTION('',(-1.,0.,0.));
#1550=DIRECTION('',(0.,1.,0.));
#1551=DIRECTION('',(1.,0.,0.));
#1552=DIRECTION('',(0.,-1.,0.));
#1553=DIRECTION('',(-1.,0.,0.));
#1554=DIRECTION('',(0.,-1.,0.));
#1555=DIRECTION('',(-1.,0.,0.));
#1556=DIRECTION('',(0.,1.,0.));
#1557=DIRECTION('',(1.,0.,0.));
#1558=DIRECTION('',(0.707106781186546,0.,-0.707106781186549));
#1559=DIRECTION('',(0.,1.,0.));
#1560=DIRECTION('',(0.707106781186548,0.,0.707106781186548));
#1561=DIRECTION('',(0.,1.,0.));
#1562=DIRECTION('',(0.,1.,0.));
#1563=DIRECTION('',(1.,0.,0.));
#1564=DIRECTION('',(0.,1.,0.));
#1565=DIRECTION('',(1.,0.,0.));
#1566=DIRECTION('',(0.,0.,-1.));
#1567=DIRECTION('',(0.,1.,0.));
#1568=DIRECTION('',(0.,0.,-1.));
#1569=DIRECTION('',(0.,1.,0.));
#1570=DIRECTION('',(0.,-1.,0.));
#1571=DIRECTION('',(0.,0.,-1.));
#1572=DIRECTION('',(0.,1.,0.));
#1573=DIRECTION('',(1.,0.,0.));
#1574=DIRECTION('',(0.,0.,-1.));
#1575=DIRECTION('',(0.,1.,0.));
#1576=DIRECTION('',(0.,-1.,0.));
#1577=DIRECTION('',(0.,0.,-1.));
#1578=DIRECTION('',(0.,1.,0.));
#1579=DIRECTION('',(-1.,0.,0.));
#1580=DIRECTION('',(0.,1.,0.));
#1581=DIRECTION('',(0.,-1.,0.));
#1582=DIRECTION('',(0.,0.,-1.));
#1583=DIRECTION('',(0.,0.,-1.));
#1584=DIRECTION('',(0.,0.,1.));
#1585=DIRECTION('',(0.,-1.,0.));
#1586=DIRECTION('',(-1.,0.,0.));
#1587=DIRECTION('',(0.,-1.,0.));
#1588=DIRECTION('',(-1.,0.,0.));
#1589=DIRECTION('',(0.,0.,1.));
#1590=DIRECTION('',(0.,-1.,0.));
#1591=DIRECTION('',(-1.,0.,0.));
#1592=DIRECTION('',(0.,-1.,0.));
#1593=DIRECTION('',(0.,0.,1.));
#1594=DIRECTION('',(0.,-1.,0.));
#1595=DIRECTION('',(-1.,0.,0.));
#1596=DIRECTION('',(0.,-1.,0.));
#1597=DIRECTION('',(-1.,0.,0.));
#1598=DIRECTION('',(0.,1.,0.));
#1599=DIRECTION('',(0.,0.,-1.));
#1600=DIRECTION('',(0.,0.,-1.));
#1601=DIRECTION('',(1.,0.,0.));
#1602=DIRECTION('',(0.,-1.,0.));
#1603=DIRECTION('',(0.,-1.,0.));
#1604=DIRECTION('',(0.,0.,1.));
#1605=DIRECTION('',(0.,0.,1.));
#1606=DIRECTION('',(0.,0.,-1.));
#1607=DIRECTION('',(0.,1.,0.));
#1608=DIRECTION('',(1.,0.,0.));
#1609=DIRECTION('',(0.,-1.,0.));
#1610=DIRECTION('',(1.,0.,0.));
#1611=DIRECTION('',(0.,0.,-1.));
#1612=DIRECTION('',(0.,1.,0.));
#1613=DIRECTION('',(1.,0.,0.));
#1614=DIRECTION('',(0.,-1.,0.));
#1615=DIRECTION('',(0.,0.,-1.));
#1616=DIRECTION('',(0.,1.,0.));
#1617=DIRECTION('',(1.,0.,0.));
#1618=DIRECTION('',(0.,-1.,0.));
#1619=DIRECTION('',(1.,0.,0.));
#1620=DIRECTION('',(0.,-1.,0.));
#1621=DIRECTION('',(0.,0.,1.));
#1622=DIRECTION('',(0.,0.,1.));
#1623=DIRECTION('',(0.,0.,1.));
#1624=DIRECTION('',(0.,-1.,0.));
#1625=DIRECTION('',(-0.707106781186548,0.,0.707106781186548));
#1626=DIRECTION('',(-0.707106781186548,0.,-0.707106781186548));
#1627=DIRECTION('',(0.,0.,-1.));
#1628=DIRECTION('',(0.,1.,0.));
#1629=DIRECTION('',(-0.707106781186548,0.,-0.707106781186548));
#1630=DIRECTION('',(-0.707106781186548,0.,0.707106781186548));
#1631=DIRECTION('',(-1.,0.,0.));
#1632=DIRECTION('',(0.,1.,0.));
#1633=DIRECTION('',(0.,0.,-1.));
#1634=DIRECTION('',(0.,1.,0.));
#1635=DIRECTION('',(0.707106781186548,0.,-0.707106781186548));
#1636=DIRECTION('',(0.707106781186548,0.,0.707106781186548));
#1637=DIRECTION('',(0.,0.,1.));
#1638=DIRECTION('',(0.,-1.,0.));
#1639=DIRECTION('',(0.707106781186548,0.,0.707106781186548));
#1640=DIRECTION('',(0.707106781186548,0.,-0.707106781186548));
#1641=DIRECTION('',(1.,0.,0.));
#1642=DIRECTION('',(0.,-1.,0.));
#1643=DIRECTION('',(1.,0.,0.));
#1644=DIRECTION('',(0.,-1.,0.));
#1645=DIRECTION('',(0.,0.,1.));
#1646=DIRECTION('',(0.,-1.,0.));
#1647=DIRECTION('',(0.,0.,1.));
#1648=DIRECTION('',(0.,-1.,0.));
#1649=DIRECTION('',(0.,0.,-1.));
#1650=DIRECTION('',(0.,1.,0.));
#1651=DIRECTION('',(1.,0.,0.));
#1652=DIRECTION('',(0.,-1.,0.));
#1653=DIRECTION('',(1.,0.,0.));
#1654=DIRECTION('',(0.,-1.,0.));
#1655=DIRECTION('',(1.,0.,0.));
#1656=DIRECTION('',(0.,-1.,0.));
#1657=DIRECTION('',(0.,0.,1.));
#1658=DIRECTION('',(0.,-1.,0.));
#1659=DIRECTION('',(0.,0.,1.));
#1660=DIRECTION('',(0.,-1.,0.));
#1661=DIRECTION('',(0.,1.,0.));
#1662=DIRECTION('',(1.,0.,0.));
#1663=DIRECTION('',(0.,1.,0.));
#1664=DIRECTION('',(1.,0.,0.));
#1665=DIRECTION('',(0.,1.,0.));
#1666=DIRECTION('',(1.,0.,0.));
#1667=DIRECTION('',(0.,1.,0.));
#1668=DIRECTION('',(1.,0.,0.));
#1669=DIRECTION('',(0.,1.,0.));
#1670=DIRECTION('',(1.,0.,0.));
#1671=DIRECTION('',(0.,1.,0.));
#1672=DIRECTION('',(1.,0.,0.));
#1673=DIRECTION('',(0.,1.,0.));
#1674=DIRECTION('',(1.,0.,0.));
#1675=DIRECTION('',(0.,1.,0.));
#1676=DIRECTION('',(1.,0.,0.));
#1677=DIRECTION('',(0.,1.,0.));
#1678=DIRECTION('',(1.,0.,0.));
#1679=DIRECTION('',(0.,1.,0.));
#1680=DIRECTION('',(1.,0.,0.));
#1681=DIRECTION('',(0.,0.,1.));
#1682=DIRECTION('',(0.,0.,1.));
#1683=DIRECTION('',(-1.,0.,0.));
#1684=DIRECTION('',(0.,1.,0.));
#1685=DIRECTION('',(0.,0.,-1.));
#1686=DIRECTION('',(0.,-1.,0.));
#1687=DIRECTION('',(0.,0.,-1.));
#1688=DIRECTION('',(0.,-1.,0.));
#1689=DIRECTION('',(-1.,0.,0.));
#1690=DIRECTION('',(0.,1.,0.));
#1691=DIRECTION('',(0.,0.,-1.));
#1692=DIRECTION('',(0.,-1.,0.));
#1693=DIRECTION('',(0.,0.,-1.));
#1694=DIRECTION('',(0.,-1.,0.));
#1695=DIRECTION('',(0.,0.,1.));
#1696=DIRECTION('',(0.,-1.,0.));
#1697=DIRECTION('',(-1.,0.,0.));
#1698=DIRECTION('',(0.,-1.,0.));
#1699=DIRECTION('',(-1.,0.,0.));
#1700=DIRECTION('',(0.,-1.,0.));
#1701=DIRECTION('',(0.,1.,0.));
#1702=DIRECTION('',(1.,0.,0.));
#1703=DIRECTION('',(0.,1.,0.));
#1704=DIRECTION('',(1.,0.,0.));
#1705=DIRECTION('',(0.,1.,0.));
#1706=DIRECTION('',(1.,0.,0.));
#1707=DIRECTION('',(0.,1.,0.));
#1708=DIRECTION('',(1.,0.,0.));
#1709=DIRECTION('',(0.,1.,0.));
#1710=DIRECTION('',(1.,0.,0.));
#1711=DIRECTION('',(0.,1.,0.));
#1712=DIRECTION('',(1.,0.,0.));
#1713=DIRECTION('',(0.,1.,0.));
#1714=DIRECTION('',(1.,0.,0.));
#1715=DIRECTION('',(0.,1.,0.));
#1716=DIRECTION('',(1.,0.,0.));
#1717=DIRECTION('',(0.,1.,0.));
#1718=DIRECTION('',(1.,0.,0.));
#1719=DIRECTION('',(0.,0.,-1.));
#1720=DIRECTION('',(0.,0.,-1.));
#1721=DIRECTION('',(0.,1.,0.));
#1722=DIRECTION('',(1.,0.,0.));
#1723=DIRECTION('',(0.,0.,1.));
#1724=DIRECTION('',(0.,-1.,0.));
#1725=DIRECTION('',(0.,0.,-1.));
#1726=DIRECTION('',(0.,1.,0.));
#1727=DIRECTION('',(0.,0.,-1.));
#1728=DIRECTION('',(0.,1.,0.));
#1729=DIRECTION('',(0.,0.,1.));
#1730=DIRECTION('',(0.,-1.,0.));
#1731=DIRECTION('',(0.,-1.,0.));
#1732=DIRECTION('',(-1.,0.,0.));
#1733=DIRECTION('',(0.,1.,0.));
#1734=DIRECTION('',(1.,0.,0.));
#1735=DIRECTION('',(0.,1.,0.));
#1736=DIRECTION('',(1.,0.,0.));
#1737=DIRECTION('',(0.,-1.,0.));
#1738=DIRECTION('',(-1.,0.,0.));
#1739=DIRECTION('',(0.,1.,0.));
#1740=DIRECTION('',(1.,0.,0.));
#1741=DIRECTION('',(0.,-1.,0.));
#1742=DIRECTION('',(-1.,0.,0.));
#1743=DIRECTION('',(0.,-1.,0.));
#1744=DIRECTION('',(-1.,0.,0.));
#1745=DIRECTION('',(0.,1.,0.));
#1746=DIRECTION('',(1.,0.,0.));
#1747=CARTESIAN_POINT('',(0.,0.,0.));
#1748=CARTESIAN_POINT('',(0.074,0.006,-0.0545));
#1749=CARTESIAN_POINT('',(0.09375,0.006,-0.1255));
#1750=CARTESIAN_POINT('',(0.096,0.006,-0.124346153846154));
#1751=CARTESIAN_POINT('',(0.100781583237981,0.006,-0.121894059877958));
#1752=CARTESIAN_POINT('',(0.096,0.006,-0.1095));
#1753=CARTESIAN_POINT('',(0.096,0.006,-0.1095));
#1754=CARTESIAN_POINT('',(0.06025,0.006,-0.1095));
#1755=CARTESIAN_POINT('',(0.1005,0.006,-0.1095));
#1756=CARTESIAN_POINT('',(0.05975,0.006,-0.06875));
#1757=CARTESIAN_POINT('',(0.1035,0.006,-0.1125));
#1758=CARTESIAN_POINT('',(0.1035,0.006,-0.115));
#1759=CARTESIAN_POINT('',(0.1035,0.006,-0.117444972563895));
#1760=CARTESIAN_POINT('',(0.0985,0.006,-0.117444972563895));
#1761=CARTESIAN_POINT('',(0.074,0.006,-0.0545));
#1762=CARTESIAN_POINT('',(0.0085,0.006,-0.099375));
#1763=CARTESIAN_POINT('',(0.0115,0.006,-0.099375));
#1764=CARTESIAN_POINT('',(0.0085,0.006,-0.009625));
#1765=CARTESIAN_POINT('',(0.0115,0.006,-0.009625));
#1766=CARTESIAN_POINT('',(0.05425,0.006,0.0165));
#1767=CARTESIAN_POINT('',(0.052,0.006,0.0153461538461539));
#1768=CARTESIAN_POINT('',(0.0455742797375758,0.006,0.0120509126859363));
#1769=CARTESIAN_POINT('',(0.052,0.006,0.000500000000000014));
#1770=CARTESIAN_POINT('',(0.052,0.006,0.000500000000000014));
#1771=CARTESIAN_POINT('',(0.068,0.006,0.000500000000000014));
#1772=CARTESIAN_POINT('',(0.096,0.006,0.000500000000000014));
#1773=CARTESIAN_POINT('',(0.096,0.006,-0.0545));
#1774=CARTESIAN_POINT('',(0.096,0.006,0.0153461538461539));
#1775=CARTESIAN_POINT('',(0.09375,0.006,0.0165));
#1776=CARTESIAN_POINT('',(0.100781583237981,0.006,0.0128940598779583));
#1777=CARTESIAN_POINT('',(0.0985,0.006,0.00844497256389459));
#1778=CARTESIAN_POINT('',(0.1035,0.006,0.00844497256389459));
#1779=CARTESIAN_POINT('',(0.1035,0.006,0.006));
#1780=CARTESIAN_POINT('',(0.1035,0.006,0.0035));
#1781=CARTESIAN_POINT('',(0.05975,0.006,-0.04025));
#1782=CARTESIAN_POINT('',(0.100482558139535,0.006,0.000482558139534898));
#1783=CARTESIAN_POINT('',(0.06025,0.006,0.000250000000000007));
#1784=CARTESIAN_POINT('',(0.0219710987487222,0.006,2.87346748481057E-5));
#1785=CARTESIAN_POINT('',(0.022,0.006,-0.00497118179622164));
#1786=CARTESIAN_POINT('',(0.017,0.006,-0.00497118179622164));
#1787=CARTESIAN_POINT('',(0.017,0.006,-0.05475));
#1788=CARTESIAN_POINT('',(0.017,0.006,-0.1045));
#1789=CARTESIAN_POINT('',(0.022,0.006,-0.1045));
#1790=CARTESIAN_POINT('',(0.022,0.006,-0.1095));
#1791=CARTESIAN_POINT('',(0.06025,0.006,-0.1095));
#1792=CARTESIAN_POINT('',(0.052,0.006,-0.1095));
#1793=CARTESIAN_POINT('',(0.052,0.006,-0.0545));
#1794=CARTESIAN_POINT('',(0.052,0.006,-0.124346153846154));
#1795=CARTESIAN_POINT('',(0.05425,0.006,-0.1255));
#1796=CARTESIAN_POINT('',(0.0455742797375758,0.006,-0.121050912685936));
#1797=CARTESIAN_POINT('',(0.0432926964995944,0.006,-0.1255));
#1798=CARTESIAN_POINT('',(0.0432926964995944,0.006,-0.1205));
#1799=CARTESIAN_POINT('',(0.02225,0.006,-0.1205));
#1800=CARTESIAN_POINT('',(0.01,0.006,-0.1205));
#1801=CARTESIAN_POINT('',(0.01,0.006,-0.1105));
#1802=CARTESIAN_POINT('',(0.,0.006,-0.1105));
#1803=CARTESIAN_POINT('',(0.,0.006,-0.0875));
#1804=CARTESIAN_POINT('',(0.,0.006,0.0015));
#1805=CARTESIAN_POINT('',(0.01,0.006,0.0015));
#1806=CARTESIAN_POINT('',(0.01,0.006,0.0115));
#1807=CARTESIAN_POINT('',(0.02225,0.006,0.0115));
#1808=CARTESIAN_POINT('',(0.0432926964995944,0.006,0.0115));
#1809=CARTESIAN_POINT('',(0.0432926964995944,0.006,0.0165));
#1810=CARTESIAN_POINT('',(0.074,0.,-0.0545));
#1811=CARTESIAN_POINT('',(0.06025,0.,0.000250000000000007));
#1812=CARTESIAN_POINT('',(0.100482558139535,0.,0.000482558139534898));
#1813=CARTESIAN_POINT('',(0.0219710987487222,0.,2.87346748481057E-5));
#1814=CARTESIAN_POINT('',(0.100482558139535,0.,0.000482558139534898));
#1815=CARTESIAN_POINT('',(0.1035,0.,0.0035));
#1816=CARTESIAN_POINT('',(0.1035,0.,0.006));
#1817=CARTESIAN_POINT('',(0.1035,0.,0.00844497256389459));
#1818=CARTESIAN_POINT('',(0.0985,0.,0.00844497256389459));
#1819=CARTESIAN_POINT('',(0.100781583237981,0.,0.0128940598779583));
#1820=CARTESIAN_POINT('',(0.09375,0.,0.0165));
#1821=CARTESIAN_POINT('',(0.084,0.,0.0215));
#1822=CARTESIAN_POINT('',(0.069,0.,0.0215));
#1823=CARTESIAN_POINT('',(0.064,0.,0.0215));
#1824=CARTESIAN_POINT('',(0.05425,0.,0.0165));
#1825=CARTESIAN_POINT('',(0.0455742797375758,0.,0.0120509126859363));
#1826=CARTESIAN_POINT('',(0.0432926964995944,0.,0.0165));
#1827=CARTESIAN_POINT('',(0.0432926964995944,0.,0.0115));
#1828=CARTESIAN_POINT('',(0.02225,0.,0.0115));
#1829=CARTESIAN_POINT('',(0.01,0.,0.0115));
#1830=CARTESIAN_POINT('',(0.01,0.,0.0015));
#1831=CARTESIAN_POINT('',(0.,0.,0.0015));
#1832=CARTESIAN_POINT('',(0.,0.,-0.0875));
#1833=CARTESIAN_POINT('',(0.,0.,-0.1105));
#1834=CARTESIAN_POINT('',(0.01,0.,-0.1105));
#1835=CARTESIAN_POINT('',(0.01,0.,-0.1205));
#1836=CARTESIAN_POINT('',(0.02225,0.,-0.1205));
#1837=CARTESIAN_POINT('',(0.0432926964995944,0.,-0.1205));
#1838=CARTESIAN_POINT('',(0.0432926964995944,0.,-0.1255));
#1839=CARTESIAN_POINT('',(0.0455742797375758,0.,-0.121050912685936));
#1840=CARTESIAN_POINT('',(0.05425,0.,-0.1255));
#1841=CARTESIAN_POINT('',(0.064,0.,-0.1305));
#1842=CARTESIAN_POINT('',(0.079,0.,-0.1305));
#1843=CARTESIAN_POINT('',(0.084,0.,-0.1305));
#1844=CARTESIAN_POINT('',(0.09375,0.,-0.1255));
#1845=CARTESIAN_POINT('',(0.100781583237981,0.,-0.121894059877958));
#1846=CARTESIAN_POINT('',(0.0985,0.,-0.117444972563895));
#1847=CARTESIAN_POINT('',(0.1035,0.,-0.117444972563895));
#1848=CARTESIAN_POINT('',(0.1035,0.,-0.115));
#1849=CARTESIAN_POINT('',(0.1035,0.,-0.1125));
#1850=CARTESIAN_POINT('',(0.1035,0.,-0.1125));
#1851=CARTESIAN_POINT('',(0.1005,0.,-0.1095));
#1852=CARTESIAN_POINT('',(0.06025,0.,-0.1095));
#1853=CARTESIAN_POINT('',(0.022,0.,-0.1095));
#1854=CARTESIAN_POINT('',(0.022,0.,-0.1045));
#1855=CARTESIAN_POINT('',(0.017,0.,-0.1045));
#1856=CARTESIAN_POINT('',(0.017,0.,-0.05475));
#1857=CARTESIAN_POINT('',(0.017,0.,-0.00497118179622164));
#1858=CARTESIAN_POINT('',(0.022,0.,-0.00497118179622164));
#1859=CARTESIAN_POINT('',(0.0085,0.,-0.099375));
#1860=CARTESIAN_POINT('',(0.0115,0.,-0.099375));
#1861=CARTESIAN_POINT('',(0.0085,0.,-0.009625));
#1862=CARTESIAN_POINT('',(0.0115,0.,-0.009625));
#1863=CARTESIAN_POINT('',(0.079,0.006,-0.1305));
#1864=CARTESIAN_POINT('',(0.064,0.006,-0.1305));
#1865=CARTESIAN_POINT('',(0.064,0.006,-0.1305));
#1866=CARTESIAN_POINT('',(0.079,0.006,-0.1305));
#1867=CARTESIAN_POINT('',(0.084,0.006,-0.1305));
#1868=CARTESIAN_POINT('',(0.084,0.006,-0.1305));
#1869=CARTESIAN_POINT('',(0.05425,0.006,-0.1255));
#1870=CARTESIAN_POINT('',(0.0455742797375758,0.006,-0.121050912685936));
#1871=CARTESIAN_POINT('',(0.052,0.016,-0.124346153846154));
#1872=CARTESIAN_POINT('',(0.0560677966101695,0.00686473696392415,-0.12643220338983));
#1873=CARTESIAN_POINT('',(0.064,0.016,-0.1305));
#1874=CARTESIAN_POINT('',(0.02225,0.006,-0.1205));
#1875=CARTESIAN_POINT('',(0.0432926964995944,0.006,-0.1205));
#1876=CARTESIAN_POINT('',(0.01,0.006,-0.1205));
#1877=CARTESIAN_POINT('',(0.,0.006,-0.0875));
#1878=CARTESIAN_POINT('',(0.,0.,-0.1105));
#1879=CARTESIAN_POINT('',(0.,0.006,0.0015));
#1880=CARTESIAN_POINT('',(0.02225,0.006,0.0115));
#1881=CARTESIAN_POINT('',(0.0432926964995944,0.006,0.0115));
#1882=CARTESIAN_POINT('',(0.01,0.006,0.0115));
#1883=CARTESIAN_POINT('',(0.05425,0.006,0.0165));
#1884=CARTESIAN_POINT('',(0.064,0.016,0.0215));
#1885=CARTESIAN_POINT('',(0.064,0.006,0.0215));
#1886=CARTESIAN_POINT('',(0.0560677966101695,0.00686473696392415,0.0174322033898306));
#1887=CARTESIAN_POINT('',(0.052,0.016,0.0153461538461539));
#1888=CARTESIAN_POINT('',(0.0455742797375758,0.006,0.0120509126859363));
#1889=CARTESIAN_POINT('',(0.064,0.006,0.0215));
#1890=CARTESIAN_POINT('',(0.069,0.006,0.0215));
#1891=CARTESIAN_POINT('',(0.084,0.006,0.0215));
#1892=CARTESIAN_POINT('',(0.084,0.006,0.0215));
#1893=CARTESIAN_POINT('',(0.069,0.006,0.0215));
#1894=CARTESIAN_POINT('',(0.09375,0.006,0.0165));
#1895=CARTESIAN_POINT('',(0.100781583237981,0.006,0.0128940598779583));
#1896=CARTESIAN_POINT('',(0.096,0.016,0.0153461538461538));
#1897=CARTESIAN_POINT('',(0.0919322033898305,0.00686473696392416,0.0174322033898306));
#1898=CARTESIAN_POINT('',(0.084,0.016,0.0215));
#1899=CARTESIAN_POINT('',(0.1035,0.006,0.006));
#1900=CARTESIAN_POINT('',(0.1035,0.006,0.0035));
#1901=CARTESIAN_POINT('',(0.1035,0.,0.00844497256389459));
#1902=CARTESIAN_POINT('',(0.06025,0.006,0.000250000000000007));
#1903=CARTESIAN_POINT('',(0.100482558139535,0.,0.000482558139534898));
#1904=CARTESIAN_POINT('',(0.0219710987487222,0.006,2.87346748481057E-5));
#1905=CARTESIAN_POINT('',(0.017,0.006,-0.05475));
#1906=CARTESIAN_POINT('',(0.017,0.006,-0.00497118179622164));
#1907=CARTESIAN_POINT('',(0.017,0.006,-0.1045));
#1908=CARTESIAN_POINT('',(0.06025,0.006,-0.1095));
#1909=CARTESIAN_POINT('',(0.1005,0.006,-0.1095));
#1910=CARTESIAN_POINT('',(0.096,0.016,-0.1095));
#1911=CARTESIAN_POINT('',(0.086,0.016,-0.1095));
#1912=CARTESIAN_POINT('',(0.086,0.1262,-0.1095));
#1913=CARTESIAN_POINT('',(0.086,0.1162,-0.1095));
#1914=CARTESIAN_POINT('',(0.096,0.1162,-0.1095));
#1915=CARTESIAN_POINT('',(0.096,0.1262,-0.1095));
#1916=CARTESIAN_POINT('',(0.06025,0.1262,-0.1095));
#1917=CARTESIAN_POINT('',(0.052,0.1262,-0.1095));
#1918=CARTESIAN_POINT('',(0.052,0.1162,-0.1095));
#1919=CARTESIAN_POINT('',(0.062,0.1162,-0.1095));
#1920=CARTESIAN_POINT('',(0.062,0.1262,-0.1095));
#1921=CARTESIAN_POINT('',(0.062,0.016,-0.1095));
#1922=CARTESIAN_POINT('',(0.052,0.016,-0.1095));
#1923=CARTESIAN_POINT('',(0.022,0.,-0.1095));
#1924=CARTESIAN_POINT('',(0.1035,0.006,-0.115));
#1925=CARTESIAN_POINT('',(0.1035,0.,-0.1125));
#1926=CARTESIAN_POINT('',(0.1035,0.006,-0.117444972563895));
#1927=CARTESIAN_POINT('',(0.09375,0.006,-0.1255));
#1928=CARTESIAN_POINT('',(0.084,0.016,-0.1305));
#1929=CARTESIAN_POINT('',(0.0919322033898305,0.00686473696392416,-0.12643220338983));
#1930=CARTESIAN_POINT('',(0.096,0.016,-0.124346153846154));
#1931=CARTESIAN_POINT('',(0.100781583237981,0.,-0.121894059877958));
#1932=CARTESIAN_POINT('',(0.01,0.006,-0.1105));
#1933=CARTESIAN_POINT('',(0.01,0.006,0.0015));
#1934=CARTESIAN_POINT('',(0.0985,0.006,0.00844497256389459));
#1935=CARTESIAN_POINT('',(0.0432926964995944,0.006,0.0165));
#1936=CARTESIAN_POINT('',(0.0985,0.006,-0.117444972563895));
#1937=CARTESIAN_POINT('',(0.0432926964995944,0.006,-0.1255));
#1938=CARTESIAN_POINT('',(0.022,0.006,-0.00497118179622164));
#1939=CARTESIAN_POINT('',(0.022,0.006,-0.1045));
#1940=CARTESIAN_POINT('',(0.100482558139535,0.006,0.000482558139534898));
#1941=CARTESIAN_POINT('',(0.1035,0.006,-0.1125));
#1942=CARTESIAN_POINT('',(0.0085,-0.019,-0.099375));
#1943=CARTESIAN_POINT('',(0.0085,-0.019,-0.009625));
#1944=CARTESIAN_POINT('',(0.068,0.1262,0.000500000000000014));
#1945=CARTESIAN_POINT('',(0.052,0.016,0.000500000000000014));
#1946=CARTESIAN_POINT('',(0.062,0.016,0.000500000000000014));
#1947=CARTESIAN_POINT('',(0.062,0.1262,0.000500000000000014));
#1948=CARTESIAN_POINT('',(0.062,0.1162,0.000500000000000014));
#1949=CARTESIAN_POINT('',(0.052,0.1162,0.000500000000000014));
#1950=CARTESIAN_POINT('',(0.052,0.1262,0.000500000000000014));
#1951=CARTESIAN_POINT('',(0.068,0.1262,0.000500000000000014));
#1952=CARTESIAN_POINT('',(0.096,0.1262,0.000500000000000014));
#1953=CARTESIAN_POINT('',(0.096,0.1162,0.000500000000000014));
#1954=CARTESIAN_POINT('',(0.086,0.1162,0.000500000000000014));
#1955=CARTESIAN_POINT('',(0.086,0.1262,0.000500000000000014));
#1956=CARTESIAN_POINT('',(0.086,0.016,0.000500000000000014));
#1957=CARTESIAN_POINT('',(0.096,0.016,0.000500000000000014));
#1958=CARTESIAN_POINT('',(0.062,0.1262,0.006));
#1959=CARTESIAN_POINT('',(0.062,0.1262,0.0115));
#1960=CARTESIAN_POINT('',(0.062,0.1162,0.0115));
#1961=CARTESIAN_POINT('',(0.062,0.016,0.0115));
#1962=CARTESIAN_POINT('',(0.062,0.1162,0.006));
#1963=CARTESIAN_POINT('',(0.062,0.016,0.0115));
#1964=CARTESIAN_POINT('',(0.068,0.1262,0.0115));
#1965=CARTESIAN_POINT('',(0.068,0.1312,0.0115));
#1966=CARTESIAN_POINT('',(0.0985,0.1312,0.0115));
#1967=CARTESIAN_POINT('',(0.0495,0.1312,0.0115));
#1968=CARTESIAN_POINT('',(0.0495,0.1262,0.0115));
#1969=CARTESIAN_POINT('',(0.0495,0.1262,0.0115));
#1970=CARTESIAN_POINT('',(0.068,0.1262,0.0115));
#1971=CARTESIAN_POINT('',(0.052,0.1262,0.0115));
#1972=CARTESIAN_POINT('',(0.052,0.1162,0.0115));
#1973=CARTESIAN_POINT('',(0.086,0.016,0.0115));
#1974=CARTESIAN_POINT('',(0.086,0.016,0.0115));
#1975=CARTESIAN_POINT('',(0.086,0.1262,0.0115));
#1976=CARTESIAN_POINT('',(0.086,0.1162,0.0115));
#1977=CARTESIAN_POINT('',(0.096,0.1162,0.0115));
#1978=CARTESIAN_POINT('',(0.096,0.1262,0.0115));
#1979=CARTESIAN_POINT('',(0.068,0.1262,0.0115));
#1980=CARTESIAN_POINT('',(0.0985,0.1262,0.0115));
#1981=CARTESIAN_POINT('',(0.0985,0.1312,0.0115));
#1982=CARTESIAN_POINT('',(0.086,0.1262,0.006));
#1983=CARTESIAN_POINT('',(0.086,0.1162,0.0115));
#1984=CARTESIAN_POINT('',(0.086,0.016,0.006));
#1985=CARTESIAN_POINT('',(0.086,0.1262,-0.115));
#1986=CARTESIAN_POINT('',(0.086,0.1262,-0.1205));
#1987=CARTESIAN_POINT('',(0.086,0.1162,-0.1205));
#1988=CARTESIAN_POINT('',(0.086,0.016,-0.1205));
#1989=CARTESIAN_POINT('',(0.086,0.1162,-0.115));
#1990=CARTESIAN_POINT('',(0.086,0.016,-0.1205));
#1991=CARTESIAN_POINT('',(0.08,0.1262,-0.1205));
#1992=CARTESIAN_POINT('',(0.08875,0.1312,-0.1205));
#1993=CARTESIAN_POINT('',(0.0495,0.1312,-0.1205));
#1994=CARTESIAN_POINT('',(0.0985,0.1312,-0.1205));
#1995=CARTESIAN_POINT('',(0.0985,0.1262,-0.1205));
#1996=CARTESIAN_POINT('',(0.0985,0.1262,-0.1205));
#1997=CARTESIAN_POINT('',(0.08875,0.1262,-0.1205));
#1998=CARTESIAN_POINT('',(0.096,0.1262,-0.1205));
#1999=CARTESIAN_POINT('',(0.096,0.1162,-0.1205));
#2000=CARTESIAN_POINT('',(0.062,0.016,-0.1205));
#2001=CARTESIAN_POINT('',(0.062,0.016,-0.1205));
#2002=CARTESIAN_POINT('',(0.062,0.1262,-0.1205));
#2003=CARTESIAN_POINT('',(0.062,0.1162,-0.1205));
#2004=CARTESIAN_POINT('',(0.052,0.1162,-0.1205));
#2005=CARTESIAN_POINT('',(0.052,0.1262,-0.1205));
#2006=CARTESIAN_POINT('',(0.08875,0.1262,-0.1205));
#2007=CARTESIAN_POINT('',(0.0495,0.1262,-0.1205));
#2008=CARTESIAN_POINT('',(0.0495,0.1312,-0.1205));
#2009=CARTESIAN_POINT('',(0.062,0.1262,-0.115));
#2010=CARTESIAN_POINT('',(0.062,0.1162,-0.1205));
#2011=CARTESIAN_POINT('',(0.062,0.016,-0.115));
#2012=CARTESIAN_POINT('',(0.052,0.016,-0.115));
#2013=CARTESIAN_POINT('',(0.052,0.016,-0.1305));
#2014=CARTESIAN_POINT('',(0.096,0.016,-0.0545));
#2015=CARTESIAN_POINT('',(0.096,0.016,-0.1305));
#2016=CARTESIAN_POINT('',(0.074,0.016,-0.1305));
#2017=CARTESIAN_POINT('',(0.096,0.016,0.006));
#2018=CARTESIAN_POINT('',(0.096,0.016,0.0215));
#2019=CARTESIAN_POINT('',(0.052,0.016,-0.0545));
#2020=CARTESIAN_POINT('',(0.052,0.016,0.0215));
#2021=CARTESIAN_POINT('',(0.074,0.016,0.0215));
#2022=CARTESIAN_POINT('',(0.0445,0.1312,-0.10925));
#2023=CARTESIAN_POINT('',(0.0445,0.1312,-0.10925));
#2024=CARTESIAN_POINT('',(0.0445,0.1312,-0.1155));
#2025=CARTESIAN_POINT('',(0.0445,0.1312,-0.103));
#2026=CARTESIAN_POINT('',(0.0445,0.1262,-0.1155));
#2027=CARTESIAN_POINT('',(0.0445,0.1262,-0.1155));
#2028=CARTESIAN_POINT('',(0.0445,0.1262,-0.10925));
#2029=CARTESIAN_POINT('',(0.0445,0.1262,-0.103));
#2030=CARTESIAN_POINT('',(0.0445,0.1312,-0.103));
#2031=CARTESIAN_POINT('',(0.05925,0.1312,-0.098));
#2032=CARTESIAN_POINT('',(0.05925,0.1262,-0.098));
#2033=CARTESIAN_POINT('',(0.0495,0.1262,-0.098));
#2034=CARTESIAN_POINT('',(0.0985,0.1262,-0.098));
#2035=CARTESIAN_POINT('',(0.0985,0.1312,-0.098));
#2036=CARTESIAN_POINT('',(0.0985,0.1312,-0.098));
#2037=CARTESIAN_POINT('',(0.05925,0.1312,-0.098));
#2038=CARTESIAN_POINT('',(0.0495,0.1312,-0.098));
#2039=CARTESIAN_POINT('',(0.0495,0.1312,-0.098));
#2040=CARTESIAN_POINT('',(0.1035,0.1312,-0.10925));
#2041=CARTESIAN_POINT('',(0.1035,0.1262,-0.10925));
#2042=CARTESIAN_POINT('',(0.1035,0.1262,-0.1155));
#2043=CARTESIAN_POINT('',(0.1035,0.1262,-0.103));
#2044=CARTESIAN_POINT('',(0.1035,0.1312,-0.1155));
#2045=CARTESIAN_POINT('',(0.1035,0.1312,-0.1155));
#2046=CARTESIAN_POINT('',(0.1035,0.1312,-0.10925));
#2047=CARTESIAN_POINT('',(0.1035,0.1312,-0.103));
#2048=CARTESIAN_POINT('',(0.1035,0.1262,-0.103));
#2049=CARTESIAN_POINT('',(0.074,0.1312,-0.0545));
#2050=CARTESIAN_POINT('',(0.0985,0.1312,-0.1155));
#2051=CARTESIAN_POINT('',(0.0495,0.1312,-0.1155));
#2052=CARTESIAN_POINT('',(0.0495,0.1312,-0.103));
#2053=CARTESIAN_POINT('',(0.0985,0.1312,-0.103));
#2054=CARTESIAN_POINT('',(0.074,0.1262,-0.0545));
#2055=CARTESIAN_POINT('',(0.0985,0.1262,-0.1155));
#2056=CARTESIAN_POINT('',(0.0985,0.1262,-0.103));
#2057=CARTESIAN_POINT('',(0.0495,0.1262,-0.103));
#2058=CARTESIAN_POINT('',(0.0495,0.1262,-0.1155));
#2059=CARTESIAN_POINT('',(0.052,0.1262,-0.1095));
#2060=CARTESIAN_POINT('',(0.096,0.1262,-0.0545));
#2061=CARTESIAN_POINT('',(0.0445,0.1312,0.000250000000000011));
#2062=CARTESIAN_POINT('',(0.0445,0.1312,0.000250000000000011));
#2063=CARTESIAN_POINT('',(0.0445,0.1312,0.0065));
#2064=CARTESIAN_POINT('',(0.0445,0.1312,-0.006));
#2065=CARTESIAN_POINT('',(0.0445,0.1262,-0.006));
#2066=CARTESIAN_POINT('',(0.0445,0.1262,-0.006));
#2067=CARTESIAN_POINT('',(0.0445,0.1262,0.000250000000000011));
#2068=CARTESIAN_POINT('',(0.0445,0.1262,0.0065));
#2069=CARTESIAN_POINT('',(0.0445,0.1312,0.0065));
#2070=CARTESIAN_POINT('',(0.1035,0.1312,0.000250000000000011));
#2071=CARTESIAN_POINT('',(0.1035,0.1262,0.000250000000000011));
#2072=CARTESIAN_POINT('',(0.1035,0.1262,0.0065));
#2073=CARTESIAN_POINT('',(0.1035,0.1262,-0.006));
#2074=CARTESIAN_POINT('',(0.1035,0.1312,-0.006));
#2075=CARTESIAN_POINT('',(0.1035,0.1312,-0.006));
#2076=CARTESIAN_POINT('',(0.1035,0.1312,0.000250000000000011));
#2077=CARTESIAN_POINT('',(0.1035,0.1312,0.0065));
#2078=CARTESIAN_POINT('',(0.1035,0.1262,0.0065));
#2079=CARTESIAN_POINT('',(0.08875,0.1312,-0.011));
#2080=CARTESIAN_POINT('',(0.08875,0.1262,-0.011));
#2081=CARTESIAN_POINT('',(0.0985,0.1262,-0.011));
#2082=CARTESIAN_POINT('',(0.0495,0.1262,-0.011));
#2083=CARTESIAN_POINT('',(0.0495,0.1312,-0.011));
#2084=CARTESIAN_POINT('',(0.0495,0.1312,-0.011));
#2085=CARTESIAN_POINT('',(0.08875,0.1312,-0.011));
#2086=CARTESIAN_POINT('',(0.0985,0.1312,-0.011));
#2087=CARTESIAN_POINT('',(0.0985,0.1312,-0.011));
#2088=CARTESIAN_POINT('',(0.074,0.1312,-0.0545));
#2089=CARTESIAN_POINT('',(0.0495,0.1312,-0.006));
#2090=CARTESIAN_POINT('',(0.0495,0.1312,0.0065));
#2091=CARTESIAN_POINT('',(0.0985,0.1312,0.0065));
#2092=CARTESIAN_POINT('',(0.0985,0.1312,-0.006));
#2093=CARTESIAN_POINT('',(0.074,0.1262,-0.0545));
#2094=CARTESIAN_POINT('',(0.0495,0.1262,-0.006));
#2095=CARTESIAN_POINT('',(0.0985,0.1262,-0.006));
#2096=CARTESIAN_POINT('',(0.0985,0.1262,0.0065));
#2097=CARTESIAN_POINT('',(0.096,0.1262,0.000500000000000014));
#2098=CARTESIAN_POINT('',(0.052,0.1262,-0.0545));
#2099=CARTESIAN_POINT('',(0.0495,0.1262,0.0065));
#2100=CARTESIAN_POINT('',(0.096,0.1162,-0.115));
#2101=CARTESIAN_POINT('',(0.052,0.1162,-0.0545));
#2102=CARTESIAN_POINT('',(0.052,0.1162,0.006));
#2103=CARTESIAN_POINT('',(0.096,0.1162,-0.0545));
#2104=CARTESIAN_POINT('',(0.0985,0.1262,-0.1155));
#2105=CARTESIAN_POINT('',(0.0495,0.1312,-0.1155));
#2106=CARTESIAN_POINT('',(0.0985,0.1312,-0.103));
#2107=CARTESIAN_POINT('',(0.0495,0.1312,-0.103));
#2108=CARTESIAN_POINT('',(0.0495,0.1312,-0.006));
#2109=CARTESIAN_POINT('',(0.0495,0.1262,0.0065));
#2110=CARTESIAN_POINT('',(0.0985,0.1312,-0.006));
#2111=CARTESIAN_POINT('',(0.0985,0.1312,0.0065));
#2112=MECHANICAL_DESIGN_GEOMETRIC_PRESENTATION_REPRESENTATION('',(#1241),
#2113);
#2113=(
GEOMETRIC_REPRESENTATION_CONTEXT(3)
GLOBAL_UNCERTAINTY_ASSIGNED_CONTEXT((#2114))
GLOBAL_UNIT_ASSIGNED_CONTEXT((#2117,#2116,#2115))
REPRESENTATION_CONTEXT('Part 1','TOP_LEVEL_ASSEMBLY_PART')
);
#2114=UNCERTAINTY_MEASURE_WITH_UNIT(LENGTH_MEASURE(1.E-8),#2117,
'DISTANCE_ACCURACY_VALUE','Maximum Tolerance applied to model');
#2115=(
NAMED_UNIT(*)
SI_UNIT($,.STERADIAN.)
SOLID_ANGLE_UNIT()
);
#2116=(
NAMED_UNIT(*)
PLANE_ANGLE_UNIT()
SI_UNIT($,.RADIAN.)
);
#2117=(
LENGTH_UNIT()
NAMED_UNIT(*)
SI_UNIT($,.METRE.)
);
#2118=PRODUCT_DEFINITION_SHAPE('','',#2119);
#2119=PRODUCT_DEFINITION('','',#2121,#2120);
#2120=PRODUCT_DEFINITION_CONTEXT('',#2127,'design');
#2121=PRODUCT_DEFINITION_FORMATION_WITH_SPECIFIED_SOURCE('','',#2123,
 .NOT_KNOWN.);
#2122=PRODUCT_RELATED_PRODUCT_CATEGORY('','',(#2123));
#2123=PRODUCT('Part 1','Part 1','Part 1',(#2125));
#2124=PRODUCT_CATEGORY('','');
#2125=PRODUCT_CONTEXT('',#2127,'mechanical');
#2126=APPLICATION_PROTOCOL_DEFINITION('international standard',
'ap242_managed_model_based_3d_engineering',2020,#2127);
#2127=APPLICATION_CONTEXT('managed model based 3d engineering');
ENDSEC;
END-ISO-10303-21;
