ISO-10303-21;
HEADER;
/* Generated by software containing ST-Developer
 * from STEP Tools, Inc. (www.steptools.com) 
 */
/* OPTION: using custom renumber hook */

FILE_DESCRIPTION(
/* description */ ('STEP AP242 Edition 2',
'CAx-IF Rec.Pracs.---Representation and Presentation of Product Manufa
cturing Information (PMI)---4.0---2014-10-13',
'CAx-IF Rec.Pracs.---3D Tessellated Geometry---0.4---2014-09-14','2;1',
'CAx-IF Rec.Pracs.---User Defined Attributes---1.5---2016-08-15'),
/* implementation_level */ '2;1');

FILE_NAME(
/* name */ 'Calibration Block_REV. 0',
/* time_stamp */ '2026-08-26T14:08:51Z',
/* author */ (''),
/* organization */ (''),
/* preprocessor_version */ 'ST-DEVELOPER v20',
/* originating_system */ 'ONSHAPE BY PTC INC, 1.219',
/* authorisation */ '  ');

FILE_SCHEMA (('AP242_MANAGED_MODEL_BASED_3D_ENGINEERING_MIM_LF { 1 0 10303 442 3 1 4 }'));
ENDSEC;

DATA;
#10=SHAPE_REPRESENTATION_RELATIONSHIP('','',#913,#11);
#11=ADVANCED_BREP_SHAPE_REPRESENTATION('',(#911),#1489);
#12=CYLINDRICAL_SURFACE('',#973,0.0005);
#13=CYLINDRICAL_SURFACE('',#978,0.0005);
#14=CYLINDRICAL_SURFACE('',#983,0.0005);
#15=CYLINDRICAL_SURFACE('',#988,0.0005);
#16=SPHERICAL_SURFACE('',#969,0.0005);
#17=SPHERICAL_SURFACE('',#971,0.0005);
#18=SPHERICAL_SURFACE('',#974,0.0005);
#19=SPHERICAL_SURFACE('',#976,0.0005);
#20=SPHERICAL_SURFACE('',#979,0.0005);
#21=SPHERICAL_SURFACE('',#981,0.0005);
#22=SPHERICAL_SURFACE('',#984,0.0005);
#23=SPHERICAL_SURFACE('',#986,0.0005);
#24=TOROIDAL_SURFACE('',#968,0.0015,0.0005);
#25=CIRCLE('',#916,0.0005);
#26=CIRCLE('',#917,0.0005);
#27=CIRCLE('',#918,0.002);
#28=CIRCLE('',#919,0.0005);
#29=CIRCLE('',#920,0.0005);
#30=CIRCLE('',#921,0.0005);
#31=CIRCLE('',#922,0.0005);
#32=CIRCLE('',#923,0.0005);
#33=CIRCLE('',#924,0.0005);
#34=CIRCLE('',#967,0.001);
#35=CIRCLE('',#970,0.0005);
#36=CIRCLE('',#972,0.0005);
#37=CIRCLE('',#975,0.0005);
#38=CIRCLE('',#977,0.0005);
#39=CIRCLE('',#980,0.0005);
#40=CIRCLE('',#982,0.0005);
#41=CIRCLE('',#985,0.0005);
#42=CIRCLE('',#987,0.0005);
#43=ORIENTED_EDGE('',*,*,#279,.F.);
#44=ORIENTED_EDGE('',*,*,#280,.T.);
#45=ORIENTED_EDGE('',*,*,#281,.T.);
#46=ORIENTED_EDGE('',*,*,#282,.T.);
#47=ORIENTED_EDGE('',*,*,#283,.F.);
#48=ORIENTED_EDGE('',*,*,#284,.F.);
#49=ORIENTED_EDGE('',*,*,#285,.T.);
#50=ORIENTED_EDGE('',*,*,#286,.F.);
#51=ORIENTED_EDGE('',*,*,#287,.T.);
#52=ORIENTED_EDGE('',*,*,#288,.F.);
#53=ORIENTED_EDGE('',*,*,#289,.T.);
#54=ORIENTED_EDGE('',*,*,#290,.T.);
#55=ORIENTED_EDGE('',*,*,#291,.F.);
#56=ORIENTED_EDGE('',*,*,#292,.T.);
#57=ORIENTED_EDGE('',*,*,#293,.T.);
#58=ORIENTED_EDGE('',*,*,#294,.T.);
#59=ORIENTED_EDGE('',*,*,#295,.F.);
#60=ORIENTED_EDGE('',*,*,#296,.T.);
#61=ORIENTED_EDGE('',*,*,#297,.T.);
#62=ORIENTED_EDGE('',*,*,#298,.T.);
#63=ORIENTED_EDGE('',*,*,#299,.T.);
#64=ORIENTED_EDGE('',*,*,#300,.F.);
#65=ORIENTED_EDGE('',*,*,#301,.F.);
#66=ORIENTED_EDGE('',*,*,#288,.T.);
#67=ORIENTED_EDGE('',*,*,#302,.T.);
#68=ORIENTED_EDGE('',*,*,#303,.T.);
#69=ORIENTED_EDGE('',*,*,#304,.F.);
#70=ORIENTED_EDGE('',*,*,#289,.F.);
#71=ORIENTED_EDGE('',*,*,#301,.T.);
#72=ORIENTED_EDGE('',*,*,#305,.T.);
#73=ORIENTED_EDGE('',*,*,#306,.F.);
#74=ORIENTED_EDGE('',*,*,#290,.F.);
#75=ORIENTED_EDGE('',*,*,#304,.T.);
#76=ORIENTED_EDGE('',*,*,#307,.F.);
#77=ORIENTED_EDGE('',*,*,#302,.F.);
#78=ORIENTED_EDGE('',*,*,#291,.T.);
#79=ORIENTED_EDGE('',*,*,#306,.T.);
#80=ORIENTED_EDGE('',*,*,#308,.F.);
#81=ORIENTED_EDGE('',*,*,#309,.T.);
#82=ORIENTED_EDGE('',*,*,#310,.F.);
#83=ORIENTED_EDGE('',*,*,#311,.T.);
#84=ORIENTED_EDGE('',*,*,#312,.F.);
#85=ORIENTED_EDGE('',*,*,#313,.T.);
#86=ORIENTED_EDGE('',*,*,#314,.F.);
#87=ORIENTED_EDGE('',*,*,#315,.T.);
#88=ORIENTED_EDGE('',*,*,#316,.F.);
#89=ORIENTED_EDGE('',*,*,#317,.T.);
#90=ORIENTED_EDGE('',*,*,#318,.F.);
#91=ORIENTED_EDGE('',*,*,#319,.T.);
#92=ORIENTED_EDGE('',*,*,#320,.F.);
#93=ORIENTED_EDGE('',*,*,#321,.T.);
#94=ORIENTED_EDGE('',*,*,#322,.F.);
#95=ORIENTED_EDGE('',*,*,#323,.T.);
#96=ORIENTED_EDGE('',*,*,#300,.T.);
#97=ORIENTED_EDGE('',*,*,#307,.T.);
#98=ORIENTED_EDGE('',*,*,#305,.F.);
#99=ORIENTED_EDGE('',*,*,#303,.F.);
#100=ORIENTED_EDGE('',*,*,#324,.F.);
#101=ORIENTED_EDGE('',*,*,#325,.T.);
#102=ORIENTED_EDGE('',*,*,#326,.T.);
#103=ORIENTED_EDGE('',*,*,#321,.F.);
#104=ORIENTED_EDGE('',*,*,#327,.F.);
#105=ORIENTED_EDGE('',*,*,#328,.T.);
#106=ORIENTED_EDGE('',*,*,#324,.T.);
#107=ORIENTED_EDGE('',*,*,#320,.T.);
#108=ORIENTED_EDGE('',*,*,#329,.F.);
#109=ORIENTED_EDGE('',*,*,#330,.T.);
#110=ORIENTED_EDGE('',*,*,#327,.T.);
#111=ORIENTED_EDGE('',*,*,#323,.F.);
#112=ORIENTED_EDGE('',*,*,#326,.F.);
#113=ORIENTED_EDGE('',*,*,#331,.T.);
#114=ORIENTED_EDGE('',*,*,#329,.T.);
#115=ORIENTED_EDGE('',*,*,#322,.T.);
#116=ORIENTED_EDGE('',*,*,#332,.T.);
#117=ORIENTED_EDGE('',*,*,#333,.T.);
#118=ORIENTED_EDGE('',*,*,#334,.T.);
#119=ORIENTED_EDGE('',*,*,#335,.T.);
#120=ORIENTED_EDGE('',*,*,#336,.F.);
#121=ORIENTED_EDGE('',*,*,#337,.T.);
#122=ORIENTED_EDGE('',*,*,#338,.T.);
#123=ORIENTED_EDGE('',*,*,#317,.F.);
#124=ORIENTED_EDGE('',*,*,#339,.F.);
#125=ORIENTED_EDGE('',*,*,#340,.T.);
#126=ORIENTED_EDGE('',*,*,#336,.T.);
#127=ORIENTED_EDGE('',*,*,#316,.T.);
#128=ORIENTED_EDGE('',*,*,#341,.F.);
#129=ORIENTED_EDGE('',*,*,#342,.T.);
#130=ORIENTED_EDGE('',*,*,#339,.T.);
#131=ORIENTED_EDGE('',*,*,#319,.F.);
#132=ORIENTED_EDGE('',*,*,#338,.F.);
#133=ORIENTED_EDGE('',*,*,#343,.T.);
#134=ORIENTED_EDGE('',*,*,#341,.T.);
#135=ORIENTED_EDGE('',*,*,#318,.T.);
#136=ORIENTED_EDGE('',*,*,#344,.T.);
#137=ORIENTED_EDGE('',*,*,#345,.T.);
#138=ORIENTED_EDGE('',*,*,#346,.T.);
#139=ORIENTED_EDGE('',*,*,#347,.T.);
#140=ORIENTED_EDGE('',*,*,#348,.F.);
#141=ORIENTED_EDGE('',*,*,#349,.T.);
#142=ORIENTED_EDGE('',*,*,#350,.T.);
#143=ORIENTED_EDGE('',*,*,#313,.F.);
#144=ORIENTED_EDGE('',*,*,#351,.F.);
#145=ORIENTED_EDGE('',*,*,#352,.T.);
#146=ORIENTED_EDGE('',*,*,#348,.T.);
#147=ORIENTED_EDGE('',*,*,#312,.T.);
#148=ORIENTED_EDGE('',*,*,#353,.F.);
#149=ORIENTED_EDGE('',*,*,#354,.T.);
#150=ORIENTED_EDGE('',*,*,#351,.T.);
#151=ORIENTED_EDGE('',*,*,#315,.F.);
#152=ORIENTED_EDGE('',*,*,#350,.F.);
#153=ORIENTED_EDGE('',*,*,#355,.T.);
#154=ORIENTED_EDGE('',*,*,#353,.T.);
#155=ORIENTED_EDGE('',*,*,#314,.T.);
#156=ORIENTED_EDGE('',*,*,#356,.T.);
#157=ORIENTED_EDGE('',*,*,#357,.T.);
#158=ORIENTED_EDGE('',*,*,#358,.T.);
#159=ORIENTED_EDGE('',*,*,#359,.T.);
#160=ORIENTED_EDGE('',*,*,#360,.F.);
#161=ORIENTED_EDGE('',*,*,#361,.T.);
#162=ORIENTED_EDGE('',*,*,#362,.T.);
#163=ORIENTED_EDGE('',*,*,#309,.F.);
#164=ORIENTED_EDGE('',*,*,#363,.F.);
#165=ORIENTED_EDGE('',*,*,#364,.T.);
#166=ORIENTED_EDGE('',*,*,#360,.T.);
#167=ORIENTED_EDGE('',*,*,#308,.T.);
#168=ORIENTED_EDGE('',*,*,#365,.F.);
#169=ORIENTED_EDGE('',*,*,#366,.T.);
#170=ORIENTED_EDGE('',*,*,#363,.T.);
#171=ORIENTED_EDGE('',*,*,#311,.F.);
#172=ORIENTED_EDGE('',*,*,#362,.F.);
#173=ORIENTED_EDGE('',*,*,#367,.T.);
#174=ORIENTED_EDGE('',*,*,#365,.T.);
#175=ORIENTED_EDGE('',*,*,#310,.T.);
#176=ORIENTED_EDGE('',*,*,#368,.T.);
#177=ORIENTED_EDGE('',*,*,#369,.T.);
#178=ORIENTED_EDGE('',*,*,#370,.T.);
#179=ORIENTED_EDGE('',*,*,#371,.T.);
#180=ORIENTED_EDGE('',*,*,#372,.F.);
#181=ORIENTED_EDGE('',*,*,#340,.F.);
#182=ORIENTED_EDGE('',*,*,#373,.F.);
#183=ORIENTED_EDGE('',*,*,#347,.F.);
#184=ORIENTED_EDGE('',*,*,#373,.T.);
#185=ORIENTED_EDGE('',*,*,#342,.F.);
#186=ORIENTED_EDGE('',*,*,#374,.F.);
#187=ORIENTED_EDGE('',*,*,#344,.F.);
#188=ORIENTED_EDGE('',*,*,#372,.T.);
#189=ORIENTED_EDGE('',*,*,#346,.F.);
#190=ORIENTED_EDGE('',*,*,#375,.F.);
#191=ORIENTED_EDGE('',*,*,#337,.F.);
#192=ORIENTED_EDGE('',*,*,#374,.T.);
#193=ORIENTED_EDGE('',*,*,#343,.F.);
#194=ORIENTED_EDGE('',*,*,#375,.T.);
#195=ORIENTED_EDGE('',*,*,#345,.F.);
#196=ORIENTED_EDGE('',*,*,#376,.F.);
#197=ORIENTED_EDGE('',*,*,#352,.F.);
#198=ORIENTED_EDGE('',*,*,#377,.F.);
#199=ORIENTED_EDGE('',*,*,#359,.F.);
#200=ORIENTED_EDGE('',*,*,#377,.T.);
#201=ORIENTED_EDGE('',*,*,#354,.F.);
#202=ORIENTED_EDGE('',*,*,#378,.F.);
#203=ORIENTED_EDGE('',*,*,#356,.F.);
#204=ORIENTED_EDGE('',*,*,#376,.T.);
#205=ORIENTED_EDGE('',*,*,#358,.F.);
#206=ORIENTED_EDGE('',*,*,#379,.F.);
#207=ORIENTED_EDGE('',*,*,#349,.F.);
#208=ORIENTED_EDGE('',*,*,#378,.T.);
#209=ORIENTED_EDGE('',*,*,#355,.F.);
#210=ORIENTED_EDGE('',*,*,#379,.T.);
#211=ORIENTED_EDGE('',*,*,#357,.F.);
#212=ORIENTED_EDGE('',*,*,#380,.F.);
#213=ORIENTED_EDGE('',*,*,#371,.F.);
#214=ORIENTED_EDGE('',*,*,#381,.F.);
#215=ORIENTED_EDGE('',*,*,#361,.F.);
#216=ORIENTED_EDGE('',*,*,#381,.T.);
#217=ORIENTED_EDGE('',*,*,#370,.F.);
#218=ORIENTED_EDGE('',*,*,#382,.F.);
#219=ORIENTED_EDGE('',*,*,#367,.F.);
#220=ORIENTED_EDGE('',*,*,#380,.T.);
#221=ORIENTED_EDGE('',*,*,#364,.F.);
#222=ORIENTED_EDGE('',*,*,#383,.F.);
#223=ORIENTED_EDGE('',*,*,#368,.F.);
#224=ORIENTED_EDGE('',*,*,#382,.T.);
#225=ORIENTED_EDGE('',*,*,#369,.F.);
#226=ORIENTED_EDGE('',*,*,#383,.T.);
#227=ORIENTED_EDGE('',*,*,#366,.F.);
#228=ORIENTED_EDGE('',*,*,#384,.F.);
#229=ORIENTED_EDGE('',*,*,#328,.F.);
#230=ORIENTED_EDGE('',*,*,#385,.F.);
#231=ORIENTED_EDGE('',*,*,#335,.F.);
#232=ORIENTED_EDGE('',*,*,#385,.T.);
#233=ORIENTED_EDGE('',*,*,#330,.F.);
#234=ORIENTED_EDGE('',*,*,#386,.F.);
#235=ORIENTED_EDGE('',*,*,#332,.F.);
#236=ORIENTED_EDGE('',*,*,#384,.T.);
#237=ORIENTED_EDGE('',*,*,#334,.F.);
#238=ORIENTED_EDGE('',*,*,#387,.F.);
#239=ORIENTED_EDGE('',*,*,#325,.F.);
#240=ORIENTED_EDGE('',*,*,#386,.T.);
#241=ORIENTED_EDGE('',*,*,#331,.F.);
#242=ORIENTED_EDGE('',*,*,#387,.T.);
#243=ORIENTED_EDGE('',*,*,#333,.F.);
#244=ORIENTED_EDGE('',*,*,#388,.T.);
#245=ORIENTED_EDGE('',*,*,#388,.F.);
#246=ORIENTED_EDGE('',*,*,#283,.T.);
#247=ORIENTED_EDGE('',*,*,#389,.F.);
#248=ORIENTED_EDGE('',*,*,#292,.F.);
#249=ORIENTED_EDGE('',*,*,#390,.F.);
#250=ORIENTED_EDGE('',*,*,#294,.F.);
#251=ORIENTED_EDGE('',*,*,#293,.F.);
#252=ORIENTED_EDGE('',*,*,#389,.T.);
#253=ORIENTED_EDGE('',*,*,#295,.T.);
#254=ORIENTED_EDGE('',*,*,#390,.T.);
#255=ORIENTED_EDGE('',*,*,#287,.F.);
#256=ORIENTED_EDGE('',*,*,#391,.F.);
#257=ORIENTED_EDGE('',*,*,#392,.F.);
#258=ORIENTED_EDGE('',*,*,#285,.F.);
#259=ORIENTED_EDGE('',*,*,#284,.T.);
#260=ORIENTED_EDGE('',*,*,#391,.T.);
#261=ORIENTED_EDGE('',*,*,#286,.T.);
#262=ORIENTED_EDGE('',*,*,#392,.T.);
#263=ORIENTED_EDGE('',*,*,#393,.F.);
#264=ORIENTED_EDGE('',*,*,#282,.F.);
#265=ORIENTED_EDGE('',*,*,#394,.F.);
#266=ORIENTED_EDGE('',*,*,#280,.F.);
#267=ORIENTED_EDGE('',*,*,#279,.T.);
#268=ORIENTED_EDGE('',*,*,#393,.T.);
#269=ORIENTED_EDGE('',*,*,#281,.F.);
#270=ORIENTED_EDGE('',*,*,#394,.T.);
#271=ORIENTED_EDGE('',*,*,#395,.F.);
#272=ORIENTED_EDGE('',*,*,#298,.F.);
#273=ORIENTED_EDGE('',*,*,#396,.F.);
#274=ORIENTED_EDGE('',*,*,#296,.F.);
#275=ORIENTED_EDGE('',*,*,#299,.F.);
#276=ORIENTED_EDGE('',*,*,#395,.T.);
#277=ORIENTED_EDGE('',*,*,#297,.F.);
#278=ORIENTED_EDGE('',*,*,#396,.T.);
#279=EDGE_CURVE('',#397,#398,#471,.T.);
#280=EDGE_CURVE('',#397,#399,#25,.F.);
#281=EDGE_CURVE('',#399,#400,#472,.T.);
#282=EDGE_CURVE('',#400,#398,#26,.F.);
#283=EDGE_CURVE('',#401,#401,#27,.T.);
#284=EDGE_CURVE('',#402,#403,#473,.T.);
#285=EDGE_CURVE('',#402,#404,#28,.F.);
#286=EDGE_CURVE('',#405,#404,#474,.T.);
#287=EDGE_CURVE('',#405,#403,#29,.F.);
#288=EDGE_CURVE('',#406,#407,#475,.T.);
#289=EDGE_CURVE('',#406,#408,#476,.T.);
#290=EDGE_CURVE('',#408,#409,#477,.T.);
#291=EDGE_CURVE('',#407,#409,#478,.T.);
#292=EDGE_CURVE('',#410,#411,#30,.F.);
#293=EDGE_CURVE('',#411,#412,#479,.T.);
#294=EDGE_CURVE('',#412,#413,#31,.F.);
#295=EDGE_CURVE('',#410,#413,#480,.T.);
#296=EDGE_CURVE('',#414,#415,#32,.F.);
#297=EDGE_CURVE('',#415,#416,#481,.T.);
#298=EDGE_CURVE('',#416,#417,#33,.F.);
#299=EDGE_CURVE('',#417,#414,#482,.T.);
#300=EDGE_CURVE('',#418,#419,#483,.T.);
#301=EDGE_CURVE('',#406,#418,#484,.T.);
#302=EDGE_CURVE('',#407,#419,#485,.T.);
#303=EDGE_CURVE('',#418,#420,#486,.T.);
#304=EDGE_CURVE('',#408,#420,#487,.T.);
#305=EDGE_CURVE('',#420,#421,#488,.T.);
#306=EDGE_CURVE('',#409,#421,#489,.T.);
#307=EDGE_CURVE('',#419,#421,#490,.T.);
#308=EDGE_CURVE('',#422,#423,#491,.T.);
#309=EDGE_CURVE('',#422,#424,#492,.T.);
#310=EDGE_CURVE('',#425,#424,#493,.T.);
#311=EDGE_CURVE('',#425,#423,#494,.T.);
#312=EDGE_CURVE('',#426,#427,#495,.T.);
#313=EDGE_CURVE('',#426,#428,#496,.T.);
#314=EDGE_CURVE('',#429,#428,#497,.T.);
#315=EDGE_CURVE('',#429,#427,#498,.T.);
#316=EDGE_CURVE('',#430,#431,#499,.T.);
#317=EDGE_CURVE('',#430,#432,#500,.T.);
#318=EDGE_CURVE('',#433,#432,#501,.T.);
#319=EDGE_CURVE('',#433,#431,#502,.T.);
#320=EDGE_CURVE('',#434,#435,#503,.T.);
#321=EDGE_CURVE('',#434,#436,#504,.T.);
#322=EDGE_CURVE('',#437,#436,#505,.T.);
#323=EDGE_CURVE('',#437,#435,#506,.T.);
#324=EDGE_CURVE('',#438,#434,#507,.T.);
#325=EDGE_CURVE('',#438,#439,#508,.T.);
#326=EDGE_CURVE('',#439,#436,#509,.T.);
#327=EDGE_CURVE('',#440,#435,#510,.T.);
#328=EDGE_CURVE('',#440,#438,#511,.T.);
#329=EDGE_CURVE('',#441,#437,#512,.T.);
#330=EDGE_CURVE('',#441,#440,#513,.T.);
#331=EDGE_CURVE('',#439,#441,#514,.T.);
#332=EDGE_CURVE('',#442,#443,#515,.T.);
#333=EDGE_CURVE('',#443,#444,#516,.T.);
#334=EDGE_CURVE('',#444,#445,#517,.T.);
#335=EDGE_CURVE('',#445,#442,#518,.T.);
#336=EDGE_CURVE('',#446,#430,#519,.T.);
#337=EDGE_CURVE('',#446,#447,#520,.T.);
#338=EDGE_CURVE('',#447,#432,#521,.T.);
#339=EDGE_CURVE('',#448,#431,#522,.T.);
#340=EDGE_CURVE('',#448,#446,#523,.T.);
#341=EDGE_CURVE('',#449,#433,#524,.T.);
#342=EDGE_CURVE('',#449,#448,#525,.T.);
#343=EDGE_CURVE('',#447,#449,#526,.T.);
#344=EDGE_CURVE('',#450,#451,#527,.T.);
#345=EDGE_CURVE('',#451,#452,#528,.T.);
#346=EDGE_CURVE('',#452,#453,#529,.T.);
#347=EDGE_CURVE('',#453,#450,#530,.T.);
#348=EDGE_CURVE('',#454,#426,#531,.T.);
#349=EDGE_CURVE('',#454,#455,#532,.T.);
#350=EDGE_CURVE('',#455,#428,#533,.T.);
#351=EDGE_CURVE('',#456,#427,#534,.T.);
#352=EDGE_CURVE('',#456,#454,#535,.T.);
#353=EDGE_CURVE('',#457,#429,#536,.T.);
#354=EDGE_CURVE('',#457,#456,#537,.T.);
#355=EDGE_CURVE('',#455,#457,#538,.T.);
#356=EDGE_CURVE('',#458,#459,#539,.T.);
#357=EDGE_CURVE('',#459,#460,#540,.T.);
#358=EDGE_CURVE('',#460,#461,#541,.T.);
#359=EDGE_CURVE('',#461,#458,#542,.T.);
#360=EDGE_CURVE('',#462,#422,#543,.T.);
#361=EDGE_CURVE('',#462,#463,#544,.T.);
#362=EDGE_CURVE('',#463,#424,#545,.T.);
#363=EDGE_CURVE('',#464,#423,#546,.T.);
#364=EDGE_CURVE('',#464,#462,#547,.T.);
#365=EDGE_CURVE('',#465,#425,#548,.T.);
#366=EDGE_CURVE('',#465,#464,#549,.T.);
#367=EDGE_CURVE('',#463,#465,#550,.T.);
#368=EDGE_CURVE('',#466,#467,#551,.T.);
#369=EDGE_CURVE('',#467,#468,#552,.T.);
#370=EDGE_CURVE('',#468,#469,#553,.T.);
#371=EDGE_CURVE('',#469,#466,#554,.T.);
#372=EDGE_CURVE('',#446,#453,#555,.T.);
#373=EDGE_CURVE('',#450,#448,#556,.F.);
#374=EDGE_CURVE('',#451,#449,#557,.T.);
#375=EDGE_CURVE('',#447,#452,#558,.T.);
#376=EDGE_CURVE('',#454,#461,#559,.T.);
#377=EDGE_CURVE('',#458,#456,#560,.F.);
#378=EDGE_CURVE('',#459,#457,#561,.T.);
#379=EDGE_CURVE('',#455,#460,#562,.T.);
#380=EDGE_CURVE('',#466,#462,#563,.F.);
#381=EDGE_CURVE('',#463,#469,#564,.T.);
#382=EDGE_CURVE('',#465,#468,#565,.T.);
#383=EDGE_CURVE('',#467,#464,#566,.T.);
#384=EDGE_CURVE('',#438,#445,#567,.T.);
#385=EDGE_CURVE('',#442,#440,#568,.F.);
#386=EDGE_CURVE('',#443,#441,#569,.T.);
#387=EDGE_CURVE('',#439,#444,#570,.T.);
#388=EDGE_CURVE('',#470,#470,#34,.T.);
#389=EDGE_CURVE('',#411,#410,#35,.F.);
#390=EDGE_CURVE('',#413,#412,#36,.F.);
#391=EDGE_CURVE('',#403,#405,#37,.F.);
#392=EDGE_CURVE('',#404,#402,#38,.F.);
#393=EDGE_CURVE('',#398,#400,#39,.F.);
#394=EDGE_CURVE('',#399,#397,#40,.F.);
#395=EDGE_CURVE('',#417,#416,#41,.F.);
#396=EDGE_CURVE('',#415,#414,#42,.F.);
#397=VERTEX_POINT('',#1242);
#398=VERTEX_POINT('',#1243);
#399=VERTEX_POINT('',#1245);
#400=VERTEX_POINT('',#1247);
#401=VERTEX_POINT('',#1250);
#402=VERTEX_POINT('',#1252);
#403=VERTEX_POINT('',#1253);
#404=VERTEX_POINT('',#1255);
#405=VERTEX_POINT('',#1257);
#406=VERTEX_POINT('',#1260);
#407=VERTEX_POINT('',#1261);
#408=VERTEX_POINT('',#1263);
#409=VERTEX_POINT('',#1265);
#410=VERTEX_POINT('',#1268);
#411=VERTEX_POINT('',#1269);
#412=VERTEX_POINT('',#1271);
#413=VERTEX_POINT('',#1273);
#414=VERTEX_POINT('',#1276);
#415=VERTEX_POINT('',#1277);
#416=VERTEX_POINT('',#1279);
#417=VERTEX_POINT('',#1281);
#418=VERTEX_POINT('',#1285);
#419=VERTEX_POINT('',#1286);
#420=VERTEX_POINT('',#1291);
#421=VERTEX_POINT('',#1295);
#422=VERTEX_POINT('',#1301);
#423=VERTEX_POINT('',#1302);
#424=VERTEX_POINT('',#1304);
#425=VERTEX_POINT('',#1306);
#426=VERTEX_POINT('',#1309);
#427=VERTEX_POINT('',#1310);
#428=VERTEX_POINT('',#1312);
#429=VERTEX_POINT('',#1314);
#430=VERTEX_POINT('',#1317);
#431=VERTEX_POINT('',#1318);
#432=VERTEX_POINT('',#1320);
#433=VERTEX_POINT('',#1322);
#434=VERTEX_POINT('',#1325);
#435=VERTEX_POINT('',#1326);
#436=VERTEX_POINT('',#1328);
#437=VERTEX_POINT('',#1330);
#438=VERTEX_POINT('',#1334);
#439=VERTEX_POINT('',#1336);
#440=VERTEX_POINT('',#1340);
#441=VERTEX_POINT('',#1344);
#442=VERTEX_POINT('',#1350);
#443=VERTEX_POINT('',#1351);
#444=VERTEX_POINT('',#1353);
#445=VERTEX_POINT('',#1355);
#446=VERTEX_POINT('',#1359);
#447=VERTEX_POINT('',#1361);
#448=VERTEX_POINT('',#1365);
#449=VERTEX_POINT('',#1369);
#450=VERTEX_POINT('',#1375);
#451=VERTEX_POINT('',#1376);
#452=VERTEX_POINT('',#1378);
#453=VERTEX_POINT('',#1380);
#454=VERTEX_POINT('',#1384);
#455=VERTEX_POINT('',#1386);
#456=VERTEX_POINT('',#1390);
#457=VERTEX_POINT('',#1394);
#458=VERTEX_POINT('',#1400);
#459=VERTEX_POINT('',#1401);
#460=VERTEX_POINT('',#1403);
#461=VERTEX_POINT('',#1405);
#462=VERTEX_POINT('',#1409);
#463=VERTEX_POINT('',#1411);
#464=VERTEX_POINT('',#1415);
#465=VERTEX_POINT('',#1419);
#466=VERTEX_POINT('',#1425);
#467=VERTEX_POINT('',#1426);
#468=VERTEX_POINT('',#1428);
#469=VERTEX_POINT('',#1430);
#470=VERTEX_POINT('',#1466);
#471=LINE('',#1241,#571);
#472=LINE('',#1246,#572);
#473=LINE('',#1251,#573);
#474=LINE('',#1256,#574);
#475=LINE('',#1259,#575);
#476=LINE('',#1262,#576);
#477=LINE('',#1264,#577);
#478=LINE('',#1266,#578);
#479=LINE('',#1270,#579);
#480=LINE('',#1274,#580);
#481=LINE('',#1278,#581);
#482=LINE('',#1282,#582);
#483=LINE('',#1284,#583);
#484=LINE('',#1287,#584);
#485=LINE('',#1288,#585);
#486=LINE('',#1290,#586);
#487=LINE('',#1292,#587);
#488=LINE('',#1294,#588);
#489=LINE('',#1296,#589);
#490=LINE('',#1298,#590);
#491=LINE('',#1300,#591);
#492=LINE('',#1303,#592);
#493=LINE('',#1305,#593);
#494=LINE('',#1307,#594);
#495=LINE('',#1308,#595);
#496=LINE('',#1311,#596);
#497=LINE('',#1313,#597);
#498=LINE('',#1315,#598);
#499=LINE('',#1316,#599);
#500=LINE('',#1319,#600);
#501=LINE('',#1321,#601);
#502=LINE('',#1323,#602);
#503=LINE('',#1324,#603);
#504=LINE('',#1327,#604);
#505=LINE('',#1329,#605);
#506=LINE('',#1331,#606);
#507=LINE('',#1333,#607);
#508=LINE('',#1335,#608);
#509=LINE('',#1337,#609);
#510=LINE('',#1339,#610);
#511=LINE('',#1341,#611);
#512=LINE('',#1343,#612);
#513=LINE('',#1345,#613);
#514=LINE('',#1347,#614);
#515=LINE('',#1349,#615);
#516=LINE('',#1352,#616);
#517=LINE('',#1354,#617);
#518=LINE('',#1356,#618);
#519=LINE('',#1358,#619);
#520=LINE('',#1360,#620);
#521=LINE('',#1362,#621);
#522=LINE('',#1364,#622);
#523=LINE('',#1366,#623);
#524=LINE('',#1368,#624);
#525=LINE('',#1370,#625);
#526=LINE('',#1372,#626);
#527=LINE('',#1374,#627);
#528=LINE('',#1377,#628);
#529=LINE('',#1379,#629);
#530=LINE('',#1381,#630);
#531=LINE('',#1383,#631);
#532=LINE('',#1385,#632);
#533=LINE('',#1387,#633);
#534=LINE('',#1389,#634);
#535=LINE('',#1391,#635);
#536=LINE('',#1393,#636);
#537=LINE('',#1395,#637);
#538=LINE('',#1397,#638);
#539=LINE('',#1399,#639);
#540=LINE('',#1402,#640);
#541=LINE('',#1404,#641);
#542=LINE('',#1406,#642);
#543=LINE('',#1408,#643);
#544=LINE('',#1410,#644);
#545=LINE('',#1412,#645);
#546=LINE('',#1414,#646);
#547=LINE('',#1416,#647);
#548=LINE('',#1418,#648);
#549=LINE('',#1420,#649);
#550=LINE('',#1422,#650);
#551=LINE('',#1424,#651);
#552=LINE('',#1427,#652);
#553=LINE('',#1429,#653);
#554=LINE('',#1431,#654);
#555=LINE('',#1433,#655);
#556=LINE('',#1434,#656);
#557=LINE('',#1436,#657);
#558=LINE('',#1438,#658);
#559=LINE('',#1441,#659);
#560=LINE('',#1442,#660);
#561=LINE('',#1444,#661);
#562=LINE('',#1446,#662);
#563=LINE('',#1449,#663);
#564=LINE('',#1450,#664);
#565=LINE('',#1452,#665);
#566=LINE('',#1454,#666);
#567=LINE('',#1457,#667);
#568=LINE('',#1458,#668);
#569=LINE('',#1460,#669);
#570=LINE('',#1462,#670);
#571=VECTOR('',#993,1.);
#572=VECTOR('',#996,1.);
#573=VECTOR('',#1001,1.);
#574=VECTOR('',#1004,1.);
#575=VECTOR('',#1007,1.);
#576=VECTOR('',#1008,1.);
#577=VECTOR('',#1009,1.);
#578=VECTOR('',#1010,1.);
#579=VECTOR('',#1013,1.);
#580=VECTOR('',#1016,1.);
#581=VECTOR('',#1019,1.);
#582=VECTOR('',#1022,1.);
#583=VECTOR('',#1025,1.);
#584=VECTOR('',#1026,1.);
#585=VECTOR('',#1027,1.);
#586=VECTOR('',#1030,1.);
#587=VECTOR('',#1031,1.);
#588=VECTOR('',#1034,1.);
#589=VECTOR('',#1035,1.);
#590=VECTOR('',#1038,1.);
#591=VECTOR('',#1041,1.);
#592=VECTOR('',#1042,1.);
#593=VECTOR('',#1043,1.);
#594=VECTOR('',#1044,1.);
#595=VECTOR('',#1045,1.);
#596=VECTOR('',#1046,1.);
#597=VECTOR('',#1047,1.);
#598=VECTOR('',#1048,1.);
#599=VECTOR('',#1049,1.);
#600=VECTOR('',#1050,1.);
#601=VECTOR('',#1051,1.);
#602=VECTOR('',#1052,1.);
#603=VECTOR('',#1053,1.);
#604=VECTOR('',#1054,1.);
#605=VECTOR('',#1055,1.);
#606=VECTOR('',#1056,1.);
#607=VECTOR('',#1059,1.);
#608=VECTOR('',#1060,1.);
#609=VECTOR('',#1061,1.);
#610=VECTOR('',#1064,1.);
#611=VECTOR('',#1065,1.);
#612=VECTOR('',#1068,1.);
#613=VECTOR('',#1069,1.);
#614=VECTOR('',#1072,1.);
#615=VECTOR('',#1075,1.);
#616=VECTOR('',#1076,1.);
#617=VECTOR('',#1077,1.);
#618=VECTOR('',#1078,1.);
#619=VECTOR('',#1081,1.);
#620=VECTOR('',#1082,1.);
#621=VECTOR('',#1083,1.);
#622=VECTOR('',#1086,1.);
#623=VECTOR('',#1087,1.);
#624=VECTOR('',#1090,1.);
#625=VECTOR('',#1091,1.);
#626=VECTOR('',#1094,1.);
#627=VECTOR('',#1097,1.);
#628=VECTOR('',#1098,1.);
#629=VECTOR('',#1099,1.);
#630=VECTOR('',#1100,1.);
#631=VECTOR('',#1103,1.);
#632=VECTOR('',#1104,1.);
#633=VECTOR('',#1105,1.);
#634=VECTOR('',#1108,1.);
#635=VECTOR('',#1109,1.);
#636=VECTOR('',#1112,1.);
#637=VECTOR('',#1113,1.);
#638=VECTOR('',#1116,1.);
#639=VECTOR('',#1119,1.);
#640=VECTOR('',#1120,1.);
#641=VECTOR('',#1121,1.);
#642=VECTOR('',#1122,1.);
#643=VECTOR('',#1125,1.);
#644=VECTOR('',#1126,1.);
#645=VECTOR('',#1127,1.);
#646=VECTOR('',#1130,1.);
#647=VECTOR('',#1131,1.);
#648=VECTOR('',#1134,1.);
#649=VECTOR('',#1135,1.);
#650=VECTOR('',#1138,1.);
#651=VECTOR('',#1141,1.);
#652=VECTOR('',#1142,1.);
#653=VECTOR('',#1143,1.);
#654=VECTOR('',#1144,1.);
#655=VECTOR('',#1147,1.);
#656=VECTOR('',#1148,1.);
#657=VECTOR('',#1151,1.);
#658=VECTOR('',#1154,1.);
#659=VECTOR('',#1159,1.);
#660=VECTOR('',#1160,1.);
#661=VECTOR('',#1163,1.);
#662=VECTOR('',#1166,1.);
#663=VECTOR('',#1171,1.);
#664=VECTOR('',#1172,1.);
#665=VECTOR('',#1175,1.);
#666=VECTOR('',#1178,1.);
#667=VECTOR('',#1183,1.);
#668=VECTOR('',#1184,1.);
#669=VECTOR('',#1187,1.);
#670=VECTOR('',#1190,1.);
#671=EDGE_LOOP('',(#43,#44,#45,#46));
#672=EDGE_LOOP('',(#47));
#673=EDGE_LOOP('',(#48,#49,#50,#51));
#674=EDGE_LOOP('',(#52,#53,#54,#55));
#675=EDGE_LOOP('',(#56,#57,#58,#59));
#676=EDGE_LOOP('',(#60,#61,#62,#63));
#677=EDGE_LOOP('',(#64,#65,#66,#67));
#678=EDGE_LOOP('',(#68,#69,#70,#71));
#679=EDGE_LOOP('',(#72,#73,#74,#75));
#680=EDGE_LOOP('',(#76,#77,#78,#79));
#681=EDGE_LOOP('',(#80,#81,#82,#83));
#682=EDGE_LOOP('',(#84,#85,#86,#87));
#683=EDGE_LOOP('',(#88,#89,#90,#91));
#684=EDGE_LOOP('',(#92,#93,#94,#95));
#685=EDGE_LOOP('',(#96,#97,#98,#99));
#686=EDGE_LOOP('',(#100,#101,#102,#103));
#687=EDGE_LOOP('',(#104,#105,#106,#107));
#688=EDGE_LOOP('',(#108,#109,#110,#111));
#689=EDGE_LOOP('',(#112,#113,#114,#115));
#690=EDGE_LOOP('',(#116,#117,#118,#119));
#691=EDGE_LOOP('',(#120,#121,#122,#123));
#692=EDGE_LOOP('',(#124,#125,#126,#127));
#693=EDGE_LOOP('',(#128,#129,#130,#131));
#694=EDGE_LOOP('',(#132,#133,#134,#135));
#695=EDGE_LOOP('',(#136,#137,#138,#139));
#696=EDGE_LOOP('',(#140,#141,#142,#143));
#697=EDGE_LOOP('',(#144,#145,#146,#147));
#698=EDGE_LOOP('',(#148,#149,#150,#151));
#699=EDGE_LOOP('',(#152,#153,#154,#155));
#700=EDGE_LOOP('',(#156,#157,#158,#159));
#701=EDGE_LOOP('',(#160,#161,#162,#163));
#702=EDGE_LOOP('',(#164,#165,#166,#167));
#703=EDGE_LOOP('',(#168,#169,#170,#171));
#704=EDGE_LOOP('',(#172,#173,#174,#175));
#705=EDGE_LOOP('',(#176,#177,#178,#179));
#706=EDGE_LOOP('',(#180,#181,#182,#183));
#707=EDGE_LOOP('',(#184,#185,#186,#187));
#708=EDGE_LOOP('',(#188,#189,#190,#191));
#709=EDGE_LOOP('',(#192,#193,#194,#195));
#710=EDGE_LOOP('',(#196,#197,#198,#199));
#711=EDGE_LOOP('',(#200,#201,#202,#203));
#712=EDGE_LOOP('',(#204,#205,#206,#207));
#713=EDGE_LOOP('',(#208,#209,#210,#211));
#714=EDGE_LOOP('',(#212,#213,#214,#215));
#715=EDGE_LOOP('',(#216,#217,#218,#219));
#716=EDGE_LOOP('',(#220,#221,#222,#223));
#717=EDGE_LOOP('',(#224,#225,#226,#227));
#718=EDGE_LOOP('',(#228,#229,#230,#231));
#719=EDGE_LOOP('',(#232,#233,#234,#235));
#720=EDGE_LOOP('',(#236,#237,#238,#239));
#721=EDGE_LOOP('',(#240,#241,#242,#243));
#722=EDGE_LOOP('',(#244));
#723=EDGE_LOOP('',(#245));
#724=EDGE_LOOP('',(#246));
#725=EDGE_LOOP('',(#247,#248));
#726=EDGE_LOOP('',(#249,#250));
#727=EDGE_LOOP('',(#251,#252,#253,#254));
#728=EDGE_LOOP('',(#255,#256));
#729=EDGE_LOOP('',(#257,#258));
#730=EDGE_LOOP('',(#259,#260,#261,#262));
#731=EDGE_LOOP('',(#263,#264));
#732=EDGE_LOOP('',(#265,#266));
#733=EDGE_LOOP('',(#267,#268,#269,#270));
#734=EDGE_LOOP('',(#271,#272));
#735=EDGE_LOOP('',(#273,#274));
#736=EDGE_LOOP('',(#275,#276,#277,#278));
#737=FACE_BOUND('',#671,.T.);
#738=FACE_BOUND('',#672,.T.);
#739=FACE_BOUND('',#673,.T.);
#740=FACE_BOUND('',#674,.T.);
#741=FACE_BOUND('',#675,.T.);
#742=FACE_BOUND('',#676,.T.);
#743=FACE_BOUND('',#677,.T.);
#744=FACE_BOUND('',#678,.T.);
#745=FACE_BOUND('',#679,.T.);
#746=FACE_BOUND('',#680,.T.);
#747=FACE_BOUND('',#681,.T.);
#748=FACE_BOUND('',#682,.T.);
#749=FACE_BOUND('',#683,.T.);
#750=FACE_BOUND('',#684,.T.);
#751=FACE_BOUND('',#685,.T.);
#752=FACE_BOUND('',#686,.T.);
#753=FACE_BOUND('',#687,.T.);
#754=FACE_BOUND('',#688,.T.);
#755=FACE_BOUND('',#689,.T.);
#756=FACE_BOUND('',#690,.T.);
#757=FACE_BOUND('',#691,.T.);
#758=FACE_BOUND('',#692,.T.);
#759=FACE_BOUND('',#693,.T.);
#760=FACE_BOUND('',#694,.T.);
#761=FACE_BOUND('',#695,.T.);
#762=FACE_BOUND('',#696,.T.);
#763=FACE_BOUND('',#697,.T.);
#764=FACE_BOUND('',#698,.T.);
#765=FACE_BOUND('',#699,.T.);
#766=FACE_BOUND('',#700,.T.);
#767=FACE_BOUND('',#701,.T.);
#768=FACE_BOUND('',#702,.T.);
#769=FACE_BOUND('',#703,.T.);
#770=FACE_BOUND('',#704,.T.);
#771=FACE_BOUND('',#705,.T.);
#772=FACE_BOUND('',#706,.T.);
#773=FACE_BOUND('',#707,.T.);
#774=FACE_BOUND('',#708,.T.);
#775=FACE_BOUND('',#709,.T.);
#776=FACE_BOUND('',#710,.T.);
#777=FACE_BOUND('',#711,.T.);
#778=FACE_BOUND('',#712,.T.);
#779=FACE_BOUND('',#713,.T.);
#780=FACE_BOUND('',#714,.T.);
#781=FACE_BOUND('',#715,.T.);
#782=FACE_BOUND('',#716,.T.);
#783=FACE_BOUND('',#717,.T.);
#784=FACE_BOUND('',#718,.T.);
#785=FACE_BOUND('',#719,.T.);
#786=FACE_BOUND('',#720,.T.);
#787=FACE_BOUND('',#721,.T.);
#788=FACE_BOUND('',#722,.T.);
#789=FACE_BOUND('',#723,.T.);
#790=FACE_BOUND('',#724,.T.);
#791=FACE_BOUND('',#725,.T.);
#792=FACE_BOUND('',#726,.T.);
#793=FACE_BOUND('',#727,.T.);
#794=FACE_BOUND('',#728,.T.);
#795=FACE_BOUND('',#729,.T.);
#796=FACE_BOUND('',#730,.T.);
#797=FACE_BOUND('',#731,.T.);
#798=FACE_BOUND('',#732,.T.);
#799=FACE_BOUND('',#733,.T.);
#800=FACE_BOUND('',#734,.T.);
#801=FACE_BOUND('',#735,.T.);
#802=FACE_BOUND('',#736,.T.);
#803=PLANE('',#915);
#804=PLANE('',#925);
#805=PLANE('',#926);
#806=PLANE('',#927);
#807=PLANE('',#928);
#808=PLANE('',#929);
#809=PLANE('',#930);
#810=PLANE('',#931);
#811=PLANE('',#932);
#812=PLANE('',#933);
#813=PLANE('',#934);
#814=PLANE('',#935);
#815=PLANE('',#936);
#816=PLANE('',#937);
#817=PLANE('',#938);
#818=PLANE('',#939);
#819=PLANE('',#940);
#820=PLANE('',#941);
#821=PLANE('',#942);
#822=PLANE('',#943);
#823=PLANE('',#944);
#824=PLANE('',#945);
#825=PLANE('',#946);
#826=PLANE('',#947);
#827=PLANE('',#948);
#828=PLANE('',#949);
#829=PLANE('',#950);
#830=PLANE('',#951);
#831=PLANE('',#952);
#832=PLANE('',#953);
#833=PLANE('',#954);
#834=PLANE('',#955);
#835=PLANE('',#956);
#836=PLANE('',#957);
#837=PLANE('',#958);
#838=PLANE('',#959);
#839=PLANE('',#960);
#840=PLANE('',#961);
#841=PLANE('',#962);
#842=PLANE('',#963);
#843=PLANE('',#964);
#844=PLANE('',#965);
#845=PLANE('',#966);
#846=ADVANCED_FACE('',(#737,#738,#739,#740,#741,#742),#803,.T.);
#847=ADVANCED_FACE('',(#743),#804,.T.);
#848=ADVANCED_FACE('',(#744),#805,.F.);
#849=ADVANCED_FACE('',(#745),#806,.F.);
#850=ADVANCED_FACE('',(#746),#807,.T.);
#851=ADVANCED_FACE('',(#747,#748,#749,#750,#751),#808,.F.);
#852=ADVANCED_FACE('',(#752),#809,.T.);
#853=ADVANCED_FACE('',(#753),#810,.F.);
#854=ADVANCED_FACE('',(#754),#811,.T.);
#855=ADVANCED_FACE('',(#755),#812,.F.);
#856=ADVANCED_FACE('',(#756),#813,.T.);
#857=ADVANCED_FACE('',(#757),#814,.T.);
#858=ADVANCED_FACE('',(#758),#815,.F.);
#859=ADVANCED_FACE('',(#759),#816,.T.);
#860=ADVANCED_FACE('',(#760),#817,.F.);
#861=ADVANCED_FACE('',(#761),#818,.T.);
#862=ADVANCED_FACE('',(#762),#819,.T.);
#863=ADVANCED_FACE('',(#763),#820,.F.);
#864=ADVANCED_FACE('',(#764),#821,.T.);
#865=ADVANCED_FACE('',(#765),#822,.F.);
#866=ADVANCED_FACE('',(#766),#823,.T.);
#867=ADVANCED_FACE('',(#767),#824,.T.);
#868=ADVANCED_FACE('',(#768),#825,.F.);
#869=ADVANCED_FACE('',(#769),#826,.T.);
#870=ADVANCED_FACE('',(#770),#827,.F.);
#871=ADVANCED_FACE('',(#771),#828,.T.);
#872=ADVANCED_FACE('',(#772),#829,.T.);
#873=ADVANCED_FACE('',(#773),#830,.F.);
#874=ADVANCED_FACE('',(#774),#831,.F.);
#875=ADVANCED_FACE('',(#775),#832,.T.);
#876=ADVANCED_FACE('',(#776),#833,.T.);
#877=ADVANCED_FACE('',(#777),#834,.F.);
#878=ADVANCED_FACE('',(#778),#835,.F.);
#879=ADVANCED_FACE('',(#779),#836,.T.);
#880=ADVANCED_FACE('',(#780),#837,.F.);
#881=ADVANCED_FACE('',(#781),#838,.T.);
#882=ADVANCED_FACE('',(#782),#839,.T.);
#883=ADVANCED_FACE('',(#783),#840,.F.);
#884=ADVANCED_FACE('',(#784),#841,.T.);
#885=ADVANCED_FACE('',(#785),#842,.F.);
#886=ADVANCED_FACE('',(#786),#843,.F.);
#887=ADVANCED_FACE('',(#787),#844,.T.);
#888=ADVANCED_FACE('',(#788),#845,.T.);
#889=ADVANCED_FACE('',(#789,#790),#24,.F.);
#890=ADVANCED_FACE('',(#791),#16,.F.);
#891=ADVANCED_FACE('',(#792),#17,.F.);
#892=ADVANCED_FACE('',(#793),#12,.F.);
#893=ADVANCED_FACE('',(#794),#18,.F.);
#894=ADVANCED_FACE('',(#795),#19,.F.);
#895=ADVANCED_FACE('',(#796),#13,.F.);
#896=ADVANCED_FACE('',(#797),#20,.F.);
#897=ADVANCED_FACE('',(#798),#21,.F.);
#898=ADVANCED_FACE('',(#799),#14,.F.);
#899=ADVANCED_FACE('',(#800),#22,.F.);
#900=ADVANCED_FACE('',(#801),#23,.F.);
#901=ADVANCED_FACE('',(#802),#15,.F.);
#902=CLOSED_SHELL('',(#846,#847,#848,#849,#850,#851,#852,#853,#854,#855,
#856,#857,#858,#859,#860,#861,#862,#863,#864,#865,#866,#867,#868,#869,#870,
#871,#872,#873,#874,#875,#876,#877,#878,#879,#880,#881,#882,#883,#884,#885,
#886,#887,#888,#889,#890,#891,#892,#893,#894,#895,#896,#897,#898,#899,#900,
#901));
#903=STYLED_ITEM('',(#904),#911);
#904=PRESENTATION_STYLE_ASSIGNMENT((#905));
#905=SURFACE_STYLE_USAGE(.BOTH.,#906);
#906=SURFACE_SIDE_STYLE('',(#907));
#907=SURFACE_STYLE_FILL_AREA(#908);
#908=FILL_AREA_STYLE('',(#909));
#909=FILL_AREA_STYLE_COLOUR('',#910);
#910=COLOUR_RGB('',0.615686274509804,0.811764705882353,0.929411764705882);
#911=MANIFOLD_SOLID_BREP('Part 1',#902);
#912=SHAPE_DEFINITION_REPRESENTATION(#1494,#913);
#913=SHAPE_REPRESENTATION('Part 1',(#914),#1489);
#914=AXIS2_PLACEMENT_3D('',#1239,#989,#990);
#915=AXIS2_PLACEMENT_3D('',#1240,#991,#992);
#916=AXIS2_PLACEMENT_3D('',#1244,#994,#995);
#917=AXIS2_PLACEMENT_3D('',#1248,#997,#998);
#918=AXIS2_PLACEMENT_3D('',#1249,#999,#1000);
#919=AXIS2_PLACEMENT_3D('',#1254,#1002,#1003);
#920=AXIS2_PLACEMENT_3D('',#1258,#1005,#1006);
#921=AXIS2_PLACEMENT_3D('',#1267,#1011,#1012);
#922=AXIS2_PLACEMENT_3D('',#1272,#1014,#1015);
#923=AXIS2_PLACEMENT_3D('',#1275,#1017,#1018);
#924=AXIS2_PLACEMENT_3D('',#1280,#1020,#1021);
#925=AXIS2_PLACEMENT_3D('',#1283,#1023,#1024);
#926=AXIS2_PLACEMENT_3D('',#1289,#1028,#1029);
#927=AXIS2_PLACEMENT_3D('',#1293,#1032,#1033);
#928=AXIS2_PLACEMENT_3D('',#1297,#1036,#1037);
#929=AXIS2_PLACEMENT_3D('',#1299,#1039,#1040);
#930=AXIS2_PLACEMENT_3D('',#1332,#1057,#1058);
#931=AXIS2_PLACEMENT_3D('',#1338,#1062,#1063);
#932=AXIS2_PLACEMENT_3D('',#1342,#1066,#1067);
#933=AXIS2_PLACEMENT_3D('',#1346,#1070,#1071);
#934=AXIS2_PLACEMENT_3D('',#1348,#1073,#1074);
#935=AXIS2_PLACEMENT_3D('',#1357,#1079,#1080);
#936=AXIS2_PLACEMENT_3D('',#1363,#1084,#1085);
#937=AXIS2_PLACEMENT_3D('',#1367,#1088,#1089);
#938=AXIS2_PLACEMENT_3D('',#1371,#1092,#1093);
#939=AXIS2_PLACEMENT_3D('',#1373,#1095,#1096);
#940=AXIS2_PLACEMENT_3D('',#1382,#1101,#1102);
#941=AXIS2_PLACEMENT_3D('',#1388,#1106,#1107);
#942=AXIS2_PLACEMENT_3D('',#1392,#1110,#1111);
#943=AXIS2_PLACEMENT_3D('',#1396,#1114,#1115);
#944=AXIS2_PLACEMENT_3D('',#1398,#1117,#1118);
#945=AXIS2_PLACEMENT_3D('',#1407,#1123,#1124);
#946=AXIS2_PLACEMENT_3D('',#1413,#1128,#1129);
#947=AXIS2_PLACEMENT_3D('',#1417,#1132,#1133);
#948=AXIS2_PLACEMENT_3D('',#1421,#1136,#1137);
#949=AXIS2_PLACEMENT_3D('',#1423,#1139,#1140);
#950=AXIS2_PLACEMENT_3D('',#1432,#1145,#1146);
#951=AXIS2_PLACEMENT_3D('',#1435,#1149,#1150);
#952=AXIS2_PLACEMENT_3D('',#1437,#1152,#1153);
#953=AXIS2_PLACEMENT_3D('',#1439,#1155,#1156);
#954=AXIS2_PLACEMENT_3D('',#1440,#1157,#1158);
#955=AXIS2_PLACEMENT_3D('',#1443,#1161,#1162);
#956=AXIS2_PLACEMENT_3D('',#1445,#1164,#1165);
#957=AXIS2_PLACEMENT_3D('',#1447,#1167,#1168);
#958=AXIS2_PLACEMENT_3D('',#1448,#1169,#1170);
#959=AXIS2_PLACEMENT_3D('',#1451,#1173,#1174);
#960=AXIS2_PLACEMENT_3D('',#1453,#1176,#1177);
#961=AXIS2_PLACEMENT_3D('',#1455,#1179,#1180);
#962=AXIS2_PLACEMENT_3D('',#1456,#1181,#1182);
#963=AXIS2_PLACEMENT_3D('',#1459,#1185,#1186);
#964=AXIS2_PLACEMENT_3D('',#1461,#1188,#1189);
#965=AXIS2_PLACEMENT_3D('',#1463,#1191,#1192);
#966=AXIS2_PLACEMENT_3D('',#1464,#1193,#1194);
#967=AXIS2_PLACEMENT_3D('',#1465,#1195,#1196);
#968=AXIS2_PLACEMENT_3D('',#1467,#1197,#1198);
#969=AXIS2_PLACEMENT_3D('',#1468,#1199,#1200);
#970=AXIS2_PLACEMENT_3D('',#1469,#1201,#1202);
#971=AXIS2_PLACEMENT_3D('',#1470,#1203,#1204);
#972=AXIS2_PLACEMENT_3D('',#1471,#1205,#1206);
#973=AXIS2_PLACEMENT_3D('',#1472,#1207,#1208);
#974=AXIS2_PLACEMENT_3D('',#1473,#1209,#1210);
#975=AXIS2_PLACEMENT_3D('',#1474,#1211,#1212);
#976=AXIS2_PLACEMENT_3D('',#1475,#1213,#1214);
#977=AXIS2_PLACEMENT_3D('',#1476,#1215,#1216);
#978=AXIS2_PLACEMENT_3D('',#1477,#1217,#1218);
#979=AXIS2_PLACEMENT_3D('',#1478,#1219,#1220);
#980=AXIS2_PLACEMENT_3D('',#1479,#1221,#1222);
#981=AXIS2_PLACEMENT_3D('',#1480,#1223,#1224);
#982=AXIS2_PLACEMENT_3D('',#1481,#1225,#1226);
#983=AXIS2_PLACEMENT_3D('',#1482,#1227,#1228);
#984=AXIS2_PLACEMENT_3D('',#1483,#1229,#1230);
#985=AXIS2_PLACEMENT_3D('',#1484,#1231,#1232);
#986=AXIS2_PLACEMENT_3D('',#1485,#1233,#1234);
#987=AXIS2_PLACEMENT_3D('',#1486,#1235,#1236);
#988=AXIS2_PLACEMENT_3D('',#1487,#1237,#1238);
#989=DIRECTION('',(0.,0.,1.));
#990=DIRECTION('',(1.,0.,0.));
#991=DIRECTION('',(0.,1.,0.));
#992=DIRECTION('',(1.,0.,0.));
#993=DIRECTION('',(0.,0.,1.));
#994=DIRECTION('',(0.,1.,0.));
#995=DIRECTION('',(1.,0.,0.));
#996=DIRECTION('',(0.,0.,1.));
#997=DIRECTION('',(0.,1.,0.));
#998=DIRECTION('',(1.,0.,0.));
#999=DIRECTION('',(0.,1.,0.));
#1000=DIRECTION('',(1.,0.,0.));
#1001=DIRECTION('',(-1.,0.,0.));
#1002=DIRECTION('',(0.,1.,0.));
#1003=DIRECTION('',(1.,0.,0.));
#1004=DIRECTION('',(1.,0.,0.));
#1005=DIRECTION('',(0.,1.,0.));
#1006=DIRECTION('',(1.,0.,0.));
#1007=DIRECTION('',(0.,0.,-1.));
#1008=DIRECTION('',(1.,0.,0.));
#1009=DIRECTION('',(0.,0.,-1.));
#1010=DIRECTION('',(1.,0.,0.));
#1011=DIRECTION('',(0.,1.,0.));
#1012=DIRECTION('',(1.,0.,0.));
#1013=DIRECTION('',(0.,0.,-1.));
#1014=DIRECTION('',(0.,1.,0.));
#1015=DIRECTION('',(1.,0.,0.));
#1016=DIRECTION('',(0.,0.,-1.));
#1017=DIRECTION('',(0.,1.,0.));
#1018=DIRECTION('',(1.,0.,0.));
#1019=DIRECTION('',(-1.,0.,0.));
#1020=DIRECTION('',(0.,1.,0.));
#1021=DIRECTION('',(1.,0.,0.));
#1022=DIRECTION('',(1.,0.,0.));
#1023=DIRECTION('',(-1.,0.,0.));
#1024=DIRECTION('',(0.,1.,0.));
#1025=DIRECTION('',(0.,0.,-1.));
#1026=DIRECTION('',(0.,-1.,0.));
#1027=DIRECTION('',(0.,-1.,0.));
#1028=DIRECTION('',(0.,0.,-1.));
#1029=DIRECTION('',(0.,1.,0.));
#1030=DIRECTION('',(1.,0.,0.));
#1031=DIRECTION('',(0.,-1.,0.));
#1032=DIRECTION('',(-1.,0.,0.));
#1033=DIRECTION('',(0.,1.,0.));
#1034=DIRECTION('',(0.,0.,-1.));
#1035=DIRECTION('',(0.,-1.,0.));
#1036=DIRECTION('',(0.,0.,-1.));
#1037=DIRECTION('',(0.,1.,0.));
#1038=DIRECTION('',(1.,0.,0.));
#1039=DIRECTION('',(0.,1.,0.));
#1040=DIRECTION('',(1.,0.,0.));
#1041=DIRECTION('',(-0.447213595499959,0.,-0.894427190999916));
#1042=DIRECTION('',(0.447213595499959,0.,-0.894427190999916));
#1043=DIRECTION('',(0.447213595499959,0.,0.894427190999916));
#1044=DIRECTION('',(-0.447213595499959,0.,0.894427190999916));
#1045=DIRECTION('',(0.447213595499959,0.,0.894427190999916));
#1046=DIRECTION('',(-0.447213595499959,0.,0.894427190999916));
#1047=DIRECTION('',(-0.447213595499959,0.,-0.894427190999915));
#1048=DIRECTION('',(0.447213595499959,0.,-0.894427190999915));
#1049=DIRECTION('',(0.447213595499959,0.,0.894427190999916));
#1050=DIRECTION('',(-0.447213595499959,0.,0.894427190999916));
#1051=DIRECTION('',(-0.447213595499959,0.,-0.894427190999916));
#1052=DIRECTION('',(0.447213595499959,0.,-0.894427190999915));
#1053=DIRECTION('',(0.44721359549996,0.,0.894427190999915));
#1054=DIRECTION('',(-0.44721359549996,0.,0.894427190999915));
#1055=DIRECTION('',(-0.447213595499959,0.,-0.894427190999916));
#1056=DIRECTION('',(0.447213595499959,0.,-0.894427190999916));
#1057=DIRECTION('',(-0.894427190999915,0.,-0.44721359549996));
#1058=DIRECTION('',(-0.44721359549996,0.,0.894427190999915));
#1059=DIRECTION('',(0.,1.,0.));
#1060=DIRECTION('',(-0.44721359549996,0.,0.894427190999915));
#1061=DIRECTION('',(0.,1.,0.));
#1062=DIRECTION('',(-0.894427190999915,0.,0.44721359549996));
#1063=DIRECTION('',(0.44721359549996,0.,0.894427190999915));
#1064=DIRECTION('',(0.,1.,0.));
#1065=DIRECTION('',(-0.44721359549996,0.,-0.894427190999915));
#1066=DIRECTION('',(0.894427190999916,0.,0.447213595499959));
#1067=DIRECTION('',(0.447213595499959,0.,-0.894427190999916));
#1068=DIRECTION('',(0.,1.,0.));
#1069=DIRECTION('',(0.447213595499959,0.,-0.894427190999916));
#1070=DIRECTION('',(0.894427190999916,0.,-0.447213595499959));
#1071=DIRECTION('',(-0.447213595499959,0.,-0.894427190999916));
#1072=DIRECTION('',(0.447213595499959,0.,0.894427190999916));
#1073=DIRECTION('',(0.,-1.,0.));
#1074=DIRECTION('',(1.,0.,0.));
#1075=DIRECTION('',(-0.447213595499959,0.,0.894427190999916));
#1076=DIRECTION('',(-0.447213595499959,0.,-0.894427190999916));
#1077=DIRECTION('',(0.44721359549996,0.,-0.894427190999915));
#1078=DIRECTION('',(0.44721359549996,0.,0.894427190999915));
#1079=DIRECTION('',(-0.894427190999916,0.,-0.447213595499959));
#1080=DIRECTION('',(-0.447213595499959,0.,0.894427190999916));
#1081=DIRECTION('',(0.,1.,0.));
#1082=DIRECTION('',(-0.447213595499959,0.,0.894427190999916));
#1083=DIRECTION('',(0.,1.,0.));
#1084=DIRECTION('',(-0.894427190999916,0.,0.447213595499959));
#1085=DIRECTION('',(0.447213595499959,0.,0.894427190999916));
#1086=DIRECTION('',(0.,1.,0.));
#1087=DIRECTION('',(-0.447213595499959,0.,-0.894427190999916));
#1088=DIRECTION('',(0.894427190999915,0.,0.447213595499959));
#1089=DIRECTION('',(0.447213595499959,0.,-0.894427190999916));
#1090=DIRECTION('',(0.,1.,0.));
#1091=DIRECTION('',(0.447213595499959,0.,-0.894427190999916));
#1092=DIRECTION('',(0.894427190999916,0.,-0.447213595499959));
#1093=DIRECTION('',(-0.447213595499959,0.,-0.894427190999915));
#1094=DIRECTION('',(0.447213595499959,0.,0.894427190999915));
#1095=DIRECTION('',(0.,-1.,0.));
#1096=DIRECTION('',(1.,0.,0.));
#1097=DIRECTION('',(-0.447213595499959,0.,0.894427190999916));
#1098=DIRECTION('',(-0.447213595499959,0.,-0.894427190999916));
#1099=DIRECTION('',(0.447213595499959,0.,-0.894427190999916));
#1100=DIRECTION('',(0.447213595499959,0.,0.894427190999916));
#1101=DIRECTION('',(-0.894427190999916,0.,-0.447213595499959));
#1102=DIRECTION('',(-0.447213595499959,0.,0.894427190999916));
#1103=DIRECTION('',(0.,1.,0.));
#1104=DIRECTION('',(-0.447213595499959,0.,0.894427190999916));
#1105=DIRECTION('',(0.,1.,0.));
#1106=DIRECTION('',(-0.894427190999916,0.,0.447213595499959));
#1107=DIRECTION('',(0.447213595499959,0.,0.894427190999916));
#1108=DIRECTION('',(0.,1.,0.));
#1109=DIRECTION('',(-0.447213595499959,0.,-0.894427190999916));
#1110=DIRECTION('',(0.894427190999915,0.,0.447213595499959));
#1111=DIRECTION('',(0.447213595499959,0.,-0.894427190999915));
#1112=DIRECTION('',(0.,1.,0.));
#1113=DIRECTION('',(0.447213595499959,0.,-0.894427190999915));
#1114=DIRECTION('',(0.894427190999915,0.,-0.447213595499959));
#1115=DIRECTION('',(-0.447213595499959,0.,-0.894427190999915));
#1116=DIRECTION('',(0.447213595499959,0.,0.894427190999915));
#1117=DIRECTION('',(0.,-1.,0.));
#1118=DIRECTION('',(1.,0.,0.));
#1119=DIRECTION('',(-0.447213595499959,0.,0.894427190999915));
#1120=DIRECTION('',(-0.44721359549996,0.,-0.894427190999915));
#1121=DIRECTION('',(0.447213595499959,0.,-0.894427190999916));
#1122=DIRECTION('',(0.447213595499959,0.,0.894427190999916));
#1123=DIRECTION('',(0.894427190999916,0.,0.447213595499959));
#1124=DIRECTION('',(0.447213595499959,0.,-0.894427190999916));
#1125=DIRECTION('',(0.,1.,0.));
#1126=DIRECTION('',(0.447213595499959,0.,-0.894427190999916));
#1127=DIRECTION('',(0.,1.,0.));
#1128=DIRECTION('',(0.894427190999916,0.,-0.447213595499959));
#1129=DIRECTION('',(-0.447213595499959,0.,-0.894427190999916));
#1130=DIRECTION('',(0.,1.,0.));
#1131=DIRECTION('',(0.447213595499959,0.,0.894427190999916));
#1132=DIRECTION('',(-0.894427190999916,0.,-0.447213595499959));
#1133=DIRECTION('',(-0.447213595499959,0.,0.894427190999916));
#1134=DIRECTION('',(0.,1.,0.));
#1135=DIRECTION('',(-0.447213595499959,0.,0.894427190999916));
#1136=DIRECTION('',(-0.894427190999916,0.,0.447213595499959));
#1137=DIRECTION('',(0.447213595499959,0.,0.894427190999916));
#1138=DIRECTION('',(-0.447213595499959,0.,-0.894427190999916));
#1139=DIRECTION('',(0.,-1.,0.));
#1140=DIRECTION('',(1.,0.,0.));
#1141=DIRECTION('',(-0.447213595499959,0.,-0.894427190999916));
#1142=DIRECTION('',(0.447213595499959,0.,-0.894427190999916));
#1143=DIRECTION('',(0.447213595499959,0.,0.894427190999916));
#1144=DIRECTION('',(-0.447213595499959,0.,0.894427190999916));
#1145=DIRECTION('',(0.632455532033677,-0.707106781186546,-0.316227766016839));
#1146=DIRECTION('',(-0.447213595499959,0.,-0.894427190999916));
#1147=DIRECTION('',(7.0069351519362E-16,-0.408248290463865,0.912870929175276));
#1148=DIRECTION('',(-0.745355992499928,-0.666666666666668,-1.55780225199386E-16));
#1149=DIRECTION('',(-0.632455532033677,0.707106781186546,-0.316227766016839));
#1150=DIRECTION('',(0.447213595499959,0.,-0.894427190999916));
#1151=DIRECTION('',(-2.26623325918419E-16,0.408248290463866,0.912870929175276));
#1152=DIRECTION('',(0.632455532033676,0.707106781186547,0.316227766016838));
#1153=DIRECTION('',(-0.447213595499959,0.,0.894427190999916));
#1154=DIRECTION('',(0.745355992499929,-0.666666666666668,2.43948791426365E-15));
#1155=DIRECTION('',(-0.632455532033677,-0.707106781186546,0.316227766016839));
#1156=DIRECTION('',(0.447213595499959,0.,0.894427190999915));
#1157=DIRECTION('',(0.632455532033677,-0.707106781186546,-0.316227766016839));
#1158=DIRECTION('',(-0.447213595499959,0.,-0.894427190999916));
#1159=DIRECTION('',(-4.68255408439722E-16,-0.408248290463865,0.912870929175276));
#1160=DIRECTION('',(-0.74535599249993,-0.666666666666667,-4.53815843255706E-15));
#1161=DIRECTION('',(-0.632455532033675,0.707106781186549,-0.316227766016838));
#1162=DIRECTION('',(0.447213595499959,0.,-0.894427190999915));
#1163=DIRECTION('',(1.14062100789354E-15,0.408248290463864,0.912870929175277));
#1164=DIRECTION('',(0.632455532033677,0.707106781186546,0.316227766016839));
#1165=DIRECTION('',(-0.447213595499959,0.,0.894427190999916));
#1166=DIRECTION('',(0.745355992499929,-0.666666666666668,-2.83881920137684E-15));
#1167=DIRECTION('',(-0.632455532033676,-0.707106781186547,0.316227766016839));
#1168=DIRECTION('',(0.447213595499959,0.,0.894427190999915));
#1169=DIRECTION('',(-0.632455532033677,0.707106781186546,-0.316227766016839));
#1170=DIRECTION('',(0.447213595499959,0.,-0.894427190999916));
#1171=DIRECTION('',(7.93181640714469E-16,-0.408248290463865,-0.912870929175276));
#1172=DIRECTION('',(-0.74535599249993,-0.666666666666667,5.14703608734157E-15));
#1173=DIRECTION('',(0.632455532033675,-0.707106781186548,-0.316227766016838));
#1174=DIRECTION('',(-0.447213595499959,0.,-0.894427190999916));
#1175=DIRECTION('',(-2.77613574250064E-15,-0.408248290463865,0.912870929175276));
#1176=DIRECTION('',(-0.632455532033676,-0.707106781186547,0.316227766016838));
#1177=DIRECTION('',(0.447213595499959,0.,0.894427190999916));
#1178=DIRECTION('',(-0.745355992499928,0.666666666666669,6.59807650793695E-15));
#1179=DIRECTION('',(0.632455532033679,0.707106781186544,0.31622776601684));
#1180=DIRECTION('',(-0.447213595499959,0.,0.894427190999916));
#1181=DIRECTION('',(0.632455532033677,-0.707106781186546,-0.316227766016839));
#1182=DIRECTION('',(-0.44721359549996,0.,-0.894427190999915));
#1183=DIRECTION('',(7.93181640714469E-16,-0.408248290463865,0.912870929175276));
#1184=DIRECTION('',(-0.745355992499929,-0.666666666666668,1.51032476528374E-16));
#1185=DIRECTION('',(-0.632455532033677,0.707106781186546,-0.316227766016839));
#1186=DIRECTION('',(0.447213595499959,0.,-0.894427190999916));
#1187=DIRECTION('',(1.14062100789354E-15,0.408248290463866,0.912870929175276));
#1188=DIRECTION('',(0.632455532033675,0.707106781186548,0.316227766016839));
#1189=DIRECTION('',(-0.44721359549996,0.,0.894427190999915));
#1190=DIRECTION('',(0.745355992499929,-0.666666666666668,6.26200686063772E-15));
#1191=DIRECTION('',(-0.632455532033678,-0.707106781186545,0.31622776601684));
#1192=DIRECTION('',(0.447213595499959,0.,0.894427190999916));
#1193=DIRECTION('',(0.,1.,0.));
#1194=DIRECTION('',(1.,0.,0.));
#1195=DIRECTION('',(0.,1.,0.));
#1196=DIRECTION('',(1.,0.,0.));
#1197=DIRECTION('',(0.,1.,0.));
#1198=DIRECTION('',(1.,0.,0.));
#1199=DIRECTION('',(0.,0.,1.));
#1200=DIRECTION('',(0.,-1.,0.));
#1201=DIRECTION('',(0.,0.,-1.));
#1202=DIRECTION('',(0.,1.,0.));
#1203=DIRECTION('',(0.,0.,-1.));
#1204=DIRECTION('',(0.,1.,0.));
#1205=DIRECTION('',(0.,0.,1.));
#1206=DIRECTION('',(0.,-1.,0.));
#1207=DIRECTION('',(0.,0.,1.));
#1208=DIRECTION('',(0.,-1.,0.));
#1209=DIRECTION('',(-1.,0.,0.));
#1210=DIRECTION('',(0.,1.,0.));
#1211=DIRECTION('',(1.,0.,0.));
#1212=DIRECTION('',(0.,-1.,0.));
#1213=DIRECTION('',(1.,0.,0.));
#1214=DIRECTION('',(0.,-1.,0.));
#1215=DIRECTION('',(-1.,0.,0.));
#1216=DIRECTION('',(0.,1.,0.));
#1217=DIRECTION('',(-1.,0.,0.));
#1218=DIRECTION('',(0.,1.,0.));
#1219=DIRECTION('',(0.,0.,1.));
#1220=DIRECTION('',(0.,-1.,0.));
#1221=DIRECTION('',(0.,0.,-1.));
#1222=DIRECTION('',(0.,1.,0.));
#1223=DIRECTION('',(0.,0.,-1.));
#1224=DIRECTION('',(0.,1.,0.));
#1225=DIRECTION('',(0.,0.,1.));
#1226=DIRECTION('',(0.,-1.,0.));
#1227=DIRECTION('',(0.,0.,1.));
#1228=DIRECTION('',(0.,-1.,0.));
#1229=DIRECTION('',(-1.,0.,0.));
#1230=DIRECTION('',(0.,1.,0.));
#1231=DIRECTION('',(1.,0.,0.));
#1232=DIRECTION('',(0.,-1.,0.));
#1233=DIRECTION('',(1.,0.,0.));
#1234=DIRECTION('',(0.,-1.,0.));
#1235=DIRECTION('',(-1.,0.,0.));
#1236=DIRECTION('',(0.,1.,0.));
#1237=DIRECTION('',(-1.,0.,0.));
#1238=DIRECTION('',(0.,1.,0.));
#1239=CARTESIAN_POINT('',(0.,0.,0.));
#1240=CARTESIAN_POINT('',(0.025,0.02,-0.025));
#1241=CARTESIAN_POINT('',(0.0245,0.02,-0.0205));
#1242=CARTESIAN_POINT('',(0.0245,0.02,-0.0215));
#1243=CARTESIAN_POINT('',(0.0245,0.02,-0.0195));
#1244=CARTESIAN_POINT('',(0.025,0.02,-0.0215));
#1245=CARTESIAN_POINT('',(0.0255,0.02,-0.0215));
#1246=CARTESIAN_POINT('',(0.0255,0.02,-0.0205));
#1247=CARTESIAN_POINT('',(0.0255,0.02,-0.0195));
#1248=CARTESIAN_POINT('',(0.025,0.02,-0.0195));
#1249=CARTESIAN_POINT('',(0.025,0.02,-0.025));
#1250=CARTESIAN_POINT('',(0.027,0.02,-0.025));
#1251=CARTESIAN_POINT('',(0.0205,0.02,-0.0255));
#1252=CARTESIAN_POINT('',(0.0215,0.02,-0.0255));
#1253=CARTESIAN_POINT('',(0.0195,0.02,-0.0255));
#1254=CARTESIAN_POINT('',(0.0215,0.02,-0.025));
#1255=CARTESIAN_POINT('',(0.0215,0.02,-0.0245));
#1256=CARTESIAN_POINT('',(0.0205,0.02,-0.0245));
#1257=CARTESIAN_POINT('',(0.0195,0.02,-0.0245));
#1258=CARTESIAN_POINT('',(0.0195,0.02,-0.025));
#1259=CARTESIAN_POINT('',(0.,0.02,-0.025));
#1260=CARTESIAN_POINT('',(0.,0.02,0.));
#1261=CARTESIAN_POINT('',(-1.04083408558608E-17,0.02,-0.05));
#1262=CARTESIAN_POINT('',(0.025,0.02,0.));
#1263=CARTESIAN_POINT('',(0.05,0.02,0.));
#1264=CARTESIAN_POINT('',(0.05,0.02,-0.025));
#1265=CARTESIAN_POINT('',(0.05,0.02,-0.05));
#1266=CARTESIAN_POINT('',(0.025,0.02,-0.05));
#1267=CARTESIAN_POINT('',(0.025,0.02,-0.0285));
#1268=CARTESIAN_POINT('',(0.0255,0.02,-0.0285));
#1269=CARTESIAN_POINT('',(0.0245,0.02,-0.0285));
#1270=CARTESIAN_POINT('',(0.0245,0.02,-0.0295));
#1271=CARTESIAN_POINT('',(0.0245,0.02,-0.0305));
#1272=CARTESIAN_POINT('',(0.025,0.02,-0.0305));
#1273=CARTESIAN_POINT('',(0.0255,0.02,-0.0305));
#1274=CARTESIAN_POINT('',(0.0255,0.02,-0.0295));
#1275=CARTESIAN_POINT('',(0.0305,0.02,-0.025));
#1276=CARTESIAN_POINT('',(0.0305,0.02,-0.0255));
#1277=CARTESIAN_POINT('',(0.0305,0.02,-0.0245));
#1278=CARTESIAN_POINT('',(0.0295,0.02,-0.0245));
#1279=CARTESIAN_POINT('',(0.0285,0.02,-0.0245));
#1280=CARTESIAN_POINT('',(0.0285,0.02,-0.025));
#1281=CARTESIAN_POINT('',(0.0285,0.02,-0.0255));
#1282=CARTESIAN_POINT('',(0.0295,0.02,-0.0255));
#1283=CARTESIAN_POINT('',(0.,0.02,-0.025));
#1284=CARTESIAN_POINT('',(0.,0.,-0.025));
#1285=CARTESIAN_POINT('',(0.,0.,0.));
#1286=CARTESIAN_POINT('',(-1.04083408558608E-17,0.,-0.05));
#1287=CARTESIAN_POINT('',(0.,0.02,0.));
#1288=CARTESIAN_POINT('',(-1.04083408558608E-17,0.02,-0.05));
#1289=CARTESIAN_POINT('',(0.025,0.02,0.));
#1290=CARTESIAN_POINT('',(0.025,0.,0.));
#1291=CARTESIAN_POINT('',(0.05,0.,0.));
#1292=CARTESIAN_POINT('',(0.05,0.02,0.));
#1293=CARTESIAN_POINT('',(0.05,0.02,-0.025));
#1294=CARTESIAN_POINT('',(0.05,0.,-0.025));
#1295=CARTESIAN_POINT('',(0.05,0.,-0.05));
#1296=CARTESIAN_POINT('',(0.05,0.02,-0.05));
#1297=CARTESIAN_POINT('',(0.025,0.02,-0.05));
#1298=CARTESIAN_POINT('',(0.025,0.,-0.05));
#1299=CARTESIAN_POINT('',(0.025,0.,-0.025));
#1300=CARTESIAN_POINT('',(0.0110709951582856,0.,-0.0346419903165712));
#1301=CARTESIAN_POINT('',(0.0125,0.,-0.0317839806331424));
#1302=CARTESIAN_POINT('',(0.00964199031657122,0.,-0.0375));
#1303=CARTESIAN_POINT('',(0.0139290048417144,0.,-0.0346419903165713));
#1304=CARTESIAN_POINT('',(0.0153580096834287,0.,-0.0375));
#1305=CARTESIAN_POINT('',(0.0139290048417144,0.,-0.0403580096834288));
#1306=CARTESIAN_POINT('',(0.0125,0.,-0.0432160193668575));
#1307=CARTESIAN_POINT('',(0.0110709951582856,0.,-0.0403580096834288));
#1308=CARTESIAN_POINT('',(0.0389290048417144,0.,-0.0153580096834288));
#1309=CARTESIAN_POINT('',(0.0375,0.,-0.0182160193668575));
#1310=CARTESIAN_POINT('',(0.0403580096834288,0.,-0.0125));
#1311=CARTESIAN_POINT('',(0.0360709951582856,0.,-0.0153580096834288));
#1312=CARTESIAN_POINT('',(0.0346419903165713,0.,-0.0125));
#1313=CARTESIAN_POINT('',(0.0360709951582856,0.,-0.00964199031657125));
#1314=CARTESIAN_POINT('',(0.0375,0.,-0.00678398063314249));
#1315=CARTESIAN_POINT('',(0.0389290048417144,0.,-0.00964199031657126));
#1316=CARTESIAN_POINT('',(0.0139290048417144,0.,-0.0153580096834288));
#1317=CARTESIAN_POINT('',(0.0125,0.,-0.0182160193668575));
#1318=CARTESIAN_POINT('',(0.0153580096834287,0.,-0.0125));
#1319=CARTESIAN_POINT('',(0.0110709951582856,0.,-0.0153580096834288));
#1320=CARTESIAN_POINT('',(0.00964199031657122,0.,-0.0125));
#1321=CARTESIAN_POINT('',(0.0110709951582856,0.,-0.00964199031657126));
#1322=CARTESIAN_POINT('',(0.0125,0.,-0.0067839806331425));
#1323=CARTESIAN_POINT('',(0.0139290048417144,0.,-0.00964199031657125));
#1324=CARTESIAN_POINT('',(0.0389290048417144,0.,-0.0403580096834288));
#1325=CARTESIAN_POINT('',(0.0375,0.,-0.0432160193668575));
#1326=CARTESIAN_POINT('',(0.0403580096834288,0.,-0.0375));
#1327=CARTESIAN_POINT('',(0.0360709951582856,0.,-0.0403580096834288));
#1328=CARTESIAN_POINT('',(0.0346419903165713,0.,-0.0375));
#1329=CARTESIAN_POINT('',(0.0360709951582856,0.,-0.0346419903165713));
#1330=CARTESIAN_POINT('',(0.0375,0.,-0.0317839806331424));
#1331=CARTESIAN_POINT('',(0.0389290048417144,0.,-0.0346419903165713));
#1332=CARTESIAN_POINT('',(0.0360709951582856,-0.005,-0.0403580096834288));
#1333=CARTESIAN_POINT('',(0.0375,-0.005,-0.0432160193668575));
#1334=CARTESIAN_POINT('',(0.0375,-0.0045,-0.0432160193668575));
#1335=CARTESIAN_POINT('',(0.0360709951582856,-0.0045,-0.0403580096834288));
#1336=CARTESIAN_POINT('',(0.0346419903165713,-0.0045,-0.0375));
#1337=CARTESIAN_POINT('',(0.0346419903165713,-0.005,-0.0375));
#1338=CARTESIAN_POINT('',(0.0389290048417144,-0.005,-0.0403580096834288));
#1339=CARTESIAN_POINT('',(0.0403580096834288,-0.005,-0.0375));
#1340=CARTESIAN_POINT('',(0.0403580096834288,-0.0045,-0.0375));
#1341=CARTESIAN_POINT('',(0.0375,-0.0045,-0.0432160193668575));
#1342=CARTESIAN_POINT('',(0.0389290048417144,-0.005,-0.0346419903165713));
#1343=CARTESIAN_POINT('',(0.0375,-0.005,-0.0317839806331424));
#1344=CARTESIAN_POINT('',(0.0375,-0.0045,-0.0317839806331424));
#1345=CARTESIAN_POINT('',(0.0389290048417144,-0.0045,-0.0346419903165713));
#1346=CARTESIAN_POINT('',(0.0360709951582856,-0.005,-0.0346419903165713));
#1347=CARTESIAN_POINT('',(0.0375,-0.0045,-0.0317839806331424));
#1348=CARTESIAN_POINT('',(0.025,-0.005,-0.025));
#1349=CARTESIAN_POINT('',(0.0318391941512431,-0.005,-0.0215804029243785));
#1350=CARTESIAN_POINT('',(0.0397989926890538,-0.005,-0.0375));
#1351=CARTESIAN_POINT('',(0.0375,-0.005,-0.0329020146218924));
#1352=CARTESIAN_POINT('',(0.0350892039120712,-0.005,-0.0377236067977499));
#1353=CARTESIAN_POINT('',(0.0352010073109462,-0.005,-0.0375));
#1354=CARTESIAN_POINT('',(0.0281608058487569,-0.005,-0.0234195970756216));
#1355=CARTESIAN_POINT('',(0.0375,-0.005,-0.0420979853781077));
#1356=CARTESIAN_POINT('',(0.0399107960879288,-0.005,-0.03727639320225));
#1357=CARTESIAN_POINT('',(0.0110709951582856,-0.005,-0.0153580096834288));
#1358=CARTESIAN_POINT('',(0.0125,-0.005,-0.0182160193668575));
#1359=CARTESIAN_POINT('',(0.0125,-0.0045,-0.0182160193668575));
#1360=CARTESIAN_POINT('',(0.0110709951582856,-0.0045,-0.0153580096834288));
#1361=CARTESIAN_POINT('',(0.00964199031657122,-0.0045,-0.0125));
#1362=CARTESIAN_POINT('',(0.00964199031657122,-0.005,-0.0125));
#1363=CARTESIAN_POINT('',(0.0139290048417144,-0.005,-0.0153580096834288));
#1364=CARTESIAN_POINT('',(0.0153580096834287,-0.005,-0.0125));
#1365=CARTESIAN_POINT('',(0.0153580096834287,-0.0045,-0.0125));
#1366=CARTESIAN_POINT('',(0.0125,-0.0045,-0.0182160193668575));
#1367=CARTESIAN_POINT('',(0.0139290048417144,-0.005,-0.00964199031657125));
#1368=CARTESIAN_POINT('',(0.0125,-0.005,-0.0067839806331425));
#1369=CARTESIAN_POINT('',(0.0125,-0.0045,-0.0067839806331425));
#1370=CARTESIAN_POINT('',(0.0139290048417144,-0.0045,-0.00964199031657125));
#1371=CARTESIAN_POINT('',(0.0110709951582856,-0.005,-0.00964199031657126));
#1372=CARTESIAN_POINT('',(0.0125,-0.0045,-0.0067839806331425));
#1373=CARTESIAN_POINT('',(0.025,-0.005,-0.025));
#1374=CARTESIAN_POINT('',(0.0218391941512431,-0.005,-0.0265804029243785));
#1375=CARTESIAN_POINT('',(0.0147989926890538,-0.005,-0.0125));
#1376=CARTESIAN_POINT('',(0.0125,-0.005,-0.00790201462189238));
#1377=CARTESIAN_POINT('',(0.0100892039120712,-0.005,-0.01272360679775));
#1378=CARTESIAN_POINT('',(0.0102010073109462,-0.005,-0.0125));
#1379=CARTESIAN_POINT('',(0.0181608058487569,-0.005,-0.0284195970756216));
#1380=CARTESIAN_POINT('',(0.0125,-0.005,-0.0170979853781076));
#1381=CARTESIAN_POINT('',(0.0149107960879288,-0.005,-0.01227639320225));
#1382=CARTESIAN_POINT('',(0.0360709951582856,-0.005,-0.0153580096834288));
#1383=CARTESIAN_POINT('',(0.0375,-0.005,-0.0182160193668575));
#1384=CARTESIAN_POINT('',(0.0375,-0.0045,-0.0182160193668575));
#1385=CARTESIAN_POINT('',(0.0360709951582856,-0.0045,-0.0153580096834288));
#1386=CARTESIAN_POINT('',(0.0346419903165713,-0.0045,-0.0125));
#1387=CARTESIAN_POINT('',(0.0346419903165713,-0.005,-0.0125));
#1388=CARTESIAN_POINT('',(0.0389290048417144,-0.005,-0.0153580096834288));
#1389=CARTESIAN_POINT('',(0.0403580096834288,-0.005,-0.0125));
#1390=CARTESIAN_POINT('',(0.0403580096834288,-0.0045,-0.0125));
#1391=CARTESIAN_POINT('',(0.0375,-0.0045,-0.0182160193668575));
#1392=CARTESIAN_POINT('',(0.0389290048417144,-0.005,-0.00964199031657126));
#1393=CARTESIAN_POINT('',(0.0375,-0.005,-0.00678398063314249));
#1394=CARTESIAN_POINT('',(0.0375,-0.0045,-0.00678398063314249));
#1395=CARTESIAN_POINT('',(0.0389290048417144,-0.0045,-0.00964199031657126));
#1396=CARTESIAN_POINT('',(0.0360709951582856,-0.005,-0.00964199031657125));
#1397=CARTESIAN_POINT('',(0.0375,-0.0045,-0.0067839806331425));
#1398=CARTESIAN_POINT('',(0.025,-0.005,-0.025));
#1399=CARTESIAN_POINT('',(0.041839194151243,-0.005,-0.0165804029243784));
#1400=CARTESIAN_POINT('',(0.0397989926890538,-0.005,-0.0125));
#1401=CARTESIAN_POINT('',(0.0375,-0.005,-0.00790201462189239));
#1402=CARTESIAN_POINT('',(0.0350892039120712,-0.005,-0.01272360679775));
#1403=CARTESIAN_POINT('',(0.0352010073109462,-0.005,-0.0125));
#1404=CARTESIAN_POINT('',(0.038160805848757,-0.005,-0.0184195970756215));
#1405=CARTESIAN_POINT('',(0.0375,-0.005,-0.0170979853781076));
#1406=CARTESIAN_POINT('',(0.0399107960879288,-0.005,-0.01227639320225));
#1407=CARTESIAN_POINT('',(0.0139290048417144,-0.005,-0.0346419903165713));
#1408=CARTESIAN_POINT('',(0.0125,-0.005,-0.0317839806331424));
#1409=CARTESIAN_POINT('',(0.0125,-0.0045,-0.0317839806331424));
#1410=CARTESIAN_POINT('',(0.0139290048417144,-0.0045,-0.0346419903165713));
#1411=CARTESIAN_POINT('',(0.0153580096834287,-0.0045,-0.0375));
#1412=CARTESIAN_POINT('',(0.0153580096834287,-0.005,-0.0375));
#1413=CARTESIAN_POINT('',(0.0110709951582856,-0.005,-0.0346419903165712));
#1414=CARTESIAN_POINT('',(0.00964199031657122,-0.005,-0.0375));
#1415=CARTESIAN_POINT('',(0.00964199031657122,-0.0045,-0.0375));
#1416=CARTESIAN_POINT('',(0.0125,-0.0045,-0.0317839806331424));
#1417=CARTESIAN_POINT('',(0.0110709951582856,-0.005,-0.0403580096834288));
#1418=CARTESIAN_POINT('',(0.0125,-0.005,-0.0432160193668575));
#1419=CARTESIAN_POINT('',(0.0125,-0.0045,-0.0432160193668575));
#1420=CARTESIAN_POINT('',(0.0110709951582856,-0.0045,-0.0403580096834288));
#1421=CARTESIAN_POINT('',(0.0139290048417144,-0.005,-0.0403580096834288));
#1422=CARTESIAN_POINT('',(0.0125,-0.0045,-0.0432160193668575));
#1423=CARTESIAN_POINT('',(0.025,-0.005,-0.025));
#1424=CARTESIAN_POINT('',(0.0100892039120712,-0.005,-0.0377236067977499));
#1425=CARTESIAN_POINT('',(0.0125,-0.005,-0.0329020146218924));
#1426=CARTESIAN_POINT('',(0.0102010073109462,-0.005,-0.0375));
#1427=CARTESIAN_POINT('',(0.00816080584875694,-0.005,-0.0334195970756216));
#1428=CARTESIAN_POINT('',(0.0125,-0.005,-0.0420979853781077));
#1429=CARTESIAN_POINT('',(0.0149107960879288,-0.005,-0.03727639320225));
#1430=CARTESIAN_POINT('',(0.0147989926890538,-0.005,-0.0375));
#1431=CARTESIAN_POINT('',(0.0118391941512431,-0.005,-0.0315804029243785));
#1432=CARTESIAN_POINT('',(0.0118391941512431,-0.005,-0.0184195970756216));
#1433=CARTESIAN_POINT('',(0.0125,-0.00450746440075002,-0.0181993284593692));
#1434=CARTESIAN_POINT('',(0.0145641181046985,-0.00521007821472216,-0.0125));
#1435=CARTESIAN_POINT('',(0.0139290048417144,-0.0045,-0.00964199031657125));
#1436=CARTESIAN_POINT('',(0.0125,-0.00556511732208323,-0.00916565536933312));
#1437=CARTESIAN_POINT('',(0.0110709951582856,-0.0045,-0.0153580096834288));
#1438=CARTESIAN_POINT('',(0.0104358818953014,-0.00521007821472215,-0.0125));
#1439=CARTESIAN_POINT('',(0.00816080584875694,-0.005,-0.0165804029243784));
#1440=CARTESIAN_POINT('',(0.0318391941512431,-0.005,-0.0284195970756216));
#1441=CARTESIAN_POINT('',(0.0375,-0.000780684438250348,-0.0265326617927026));
#1442=CARTESIAN_POINT('',(0.0395641181046985,-0.00521007821472215,-0.0125));
#1443=CARTESIAN_POINT('',(0.0389290048417144,-0.0045,-0.00964199031657126));
#1444=CARTESIAN_POINT('',(0.0375,-0.00556511732208323,-0.00916565536933313));
#1445=CARTESIAN_POINT('',(0.0360709951582856,-0.0045,-0.0153580096834288));
#1446=CARTESIAN_POINT('',(0.0354358818953014,-0.00521007821472216,-0.0125));
#1447=CARTESIAN_POINT('',(0.028160805848757,-0.005,-0.0265804029243785));
#1448=CARTESIAN_POINT('',(0.0139290048417144,-0.0045,-0.0346419903165713));
#1449=CARTESIAN_POINT('',(0.0125,-0.000780684438250353,-0.0234673382072975));
#1450=CARTESIAN_POINT('',(0.0145641181046985,-0.00521007821472216,-0.0375));
#1451=CARTESIAN_POINT('',(0.0218391941512431,-0.005,-0.0234195970756216));
#1452=CARTESIAN_POINT('',(0.0125,-0.0119610243257493,-0.0265326617927026));
#1453=CARTESIAN_POINT('',(0.0181608058487569,-0.005,-0.0215804029243785));
#1454=CARTESIAN_POINT('',(0.0146231176097298,-0.0089552556928329,-0.0375));
#1455=CARTESIAN_POINT('',(0.0110709951582856,-0.0045,-0.0403580096834288));
#1456=CARTESIAN_POINT('',(0.041839194151243,-0.005,-0.0334195970756216));
#1457=CARTESIAN_POINT('',(0.0375,-0.00823424436324965,-0.0348659951260359));
#1458=CARTESIAN_POINT('',(0.0395641181046985,-0.00521007821472216,-0.0375));
#1459=CARTESIAN_POINT('',(0.0389290048417144,-0.0045,-0.0346419903165713));
#1460=CARTESIAN_POINT('',(0.0375,-0.00556511732208323,-0.0341656553693331));
#1461=CARTESIAN_POINT('',(0.0360709951582856,-0.0045,-0.0403580096834288));
#1462=CARTESIAN_POINT('',(0.0354358818953014,-0.00521007821472214,-0.0375));
#1463=CARTESIAN_POINT('',(0.038160805848757,-0.005,-0.0315804029243785));
#1464=CARTESIAN_POINT('',(0.025,0.02,-0.025));
#1465=CARTESIAN_POINT('',(0.025,0.02,-0.025));
#1466=CARTESIAN_POINT('',(0.026,0.02,-0.025));
#1467=CARTESIAN_POINT('',(0.025,0.02,-0.025));
#1468=CARTESIAN_POINT('',(0.025,0.02,-0.0285));
#1469=CARTESIAN_POINT('',(0.025,0.02,-0.0285));
#1470=CARTESIAN_POINT('',(0.025,0.02,-0.0305));
#1471=CARTESIAN_POINT('',(0.025,0.02,-0.0305));
#1472=CARTESIAN_POINT('',(0.025,0.02,-0.0295));
#1473=CARTESIAN_POINT('',(0.0195,0.02,-0.025));
#1474=CARTESIAN_POINT('',(0.0195,0.02,-0.025));
#1475=CARTESIAN_POINT('',(0.0215,0.02,-0.025));
#1476=CARTESIAN_POINT('',(0.0215,0.02,-0.025));
#1477=CARTESIAN_POINT('',(0.025,0.02,-0.025));
#1478=CARTESIAN_POINT('',(0.025,0.02,-0.0195));
#1479=CARTESIAN_POINT('',(0.025,0.02,-0.0195));
#1480=CARTESIAN_POINT('',(0.025,0.02,-0.0215));
#1481=CARTESIAN_POINT('',(0.025,0.02,-0.0215));
#1482=CARTESIAN_POINT('',(0.025,0.02,-0.025));
#1483=CARTESIAN_POINT('',(0.0285,0.02,-0.025));
#1484=CARTESIAN_POINT('',(0.0285,0.02,-0.025));
#1485=CARTESIAN_POINT('',(0.0305,0.02,-0.025));
#1486=CARTESIAN_POINT('',(0.0305,0.02,-0.025));
#1487=CARTESIAN_POINT('',(0.0295,0.02,-0.025));
#1488=MECHANICAL_DESIGN_GEOMETRIC_PRESENTATION_REPRESENTATION('',(#903),
#1489);
#1489=(
GEOMETRIC_REPRESENTATION_CONTEXT(3)
GLOBAL_UNCERTAINTY_ASSIGNED_CONTEXT((#1490))
GLOBAL_UNIT_ASSIGNED_CONTEXT((#1493,#1492,#1491))
REPRESENTATION_CONTEXT('Part 1','TOP_LEVEL_ASSEMBLY_PART')
);
#1490=UNCERTAINTY_MEASURE_WITH_UNIT(LENGTH_MEASURE(1.E-8),#1493,
'DISTANCE_ACCURACY_VALUE','Maximum Tolerance applied to model');
#1491=(
NAMED_UNIT(*)
SI_UNIT($,.STERADIAN.)
SOLID_ANGLE_UNIT()
);
#1492=(
NAMED_UNIT(*)
PLANE_ANGLE_UNIT()
SI_UNIT($,.RADIAN.)
);
#1493=(
LENGTH_UNIT()
NAMED_UNIT(*)
SI_UNIT($,.METRE.)
);
#1494=PRODUCT_DEFINITION_SHAPE('','',#1495);
#1495=PRODUCT_DEFINITION('','',#1497,#1496);
#1496=PRODUCT_DEFINITION_CONTEXT('',#1503,'design');
#1497=PRODUCT_DEFINITION_FORMATION_WITH_SPECIFIED_SOURCE('','',#1499,
 .NOT_KNOWN.);
#1498=PRODUCT_RELATED_PRODUCT_CATEGORY('','',(#1499));
#1499=PRODUCT('Part 1','Part 1','Part 1',(#1501));
#1500=PRODUCT_CATEGORY('','');
#1501=PRODUCT_CONTEXT('',#1503,'mechanical');
#1502=APPLICATION_PROTOCOL_DEFINITION('international standard',
'ap242_managed_model_based_3d_engineering',2020,#1503);
#1503=APPLICATION_CONTEXT('managed model based 3d engineering');
ENDSEC;
END-ISO-10303-21;
