ISO-10303-21;
HEADER;
/* Generated by software containing ST-Developer
 * from STEP Tools, Inc. (www.steptools.com) 
 */
/* OPTION: using custom renumber hook */

FILE_DESCRIPTION(
/* description */ ('STEP AP242 Edition 2',
'CAx-IF Rec.Pracs.---Representation and Presentation of Product Manufa
cturing Information (PMI)---4.0---2014-10-13',
'CAx-IF Rec.Pracs.---3D Tessellated Geometry---0.4---2014-09-14','2;1',
'CAx-IF Rec.Pracs.---User Defined Attributes---1.5---2016-08-15'),
/* implementation_level */ '2;1');

FILE_NAME(
/* name */ 'Calibration Base (CubXL +)_REV. 0',
/* time_stamp */ '2026-08-26T14:56:19Z',
/* author */ (''),
/* organization */ (''),
/* preprocessor_version */ 'ST-DEVELOPER v20',
/* originating_system */ 'ONSHAPE BY PTC INC, 1.219',
/* authorisation */ '  ');

FILE_SCHEMA (('AP242_MANAGED_MODEL_BASED_3D_ENGINEERING_MIM_LF { 1 0 10303 442 3 1 4 }'));
ENDSEC;

DATA;
#10=SHAPE_REPRESENTATION_RELATIONSHIP('','',#1003,#11);
#11=ADVANCED_BREP_SHAPE_REPRESENTATION('',(#1001),#1617);
#12=CONICAL_SURFACE('',#1069,0.00495,0.785398163397446);
#13=CONICAL_SURFACE('',#1072,0.00495,0.785398163397448);
#14=CONICAL_SURFACE('',#1073,0.00445,0.785398163397449);
#15=CONICAL_SURFACE('',#1076,0.00445,0.785398163397446);
#16=CYLINDRICAL_SURFACE('',#1051,0.00495);
#17=CYLINDRICAL_SURFACE('',#1054,0.00495);
#18=CYLINDRICAL_SURFACE('',#1060,0.00495);
#19=CYLINDRICAL_SURFACE('',#1063,0.00495);
#20=CIRCLE('',#1006,0.00495);
#21=CIRCLE('',#1007,0.00495);
#22=CIRCLE('',#1008,0.00495);
#23=CIRCLE('',#1009,0.00495);
#24=CIRCLE('',#1052,0.00495);
#25=CIRCLE('',#1055,0.00495);
#26=CIRCLE('',#1058,0.00445);
#27=CIRCLE('',#1059,0.00445);
#28=CIRCLE('',#1061,0.00495);
#29=CIRCLE('',#1064,0.00495);
#30=CIRCLE('',#1067,0.00445);
#31=CIRCLE('',#1068,0.00445);
#32=ORIENTED_EDGE('',*,*,#296,.T.);
#33=ORIENTED_EDGE('',*,*,#297,.T.);
#34=ORIENTED_EDGE('',*,*,#298,.F.);
#35=ORIENTED_EDGE('',*,*,#299,.F.);
#36=ORIENTED_EDGE('',*,*,#300,.F.);
#37=ORIENTED_EDGE('',*,*,#301,.T.);
#38=ORIENTED_EDGE('',*,*,#302,.T.);
#39=ORIENTED_EDGE('',*,*,#303,.T.);
#40=ORIENTED_EDGE('',*,*,#304,.F.);
#41=ORIENTED_EDGE('',*,*,#305,.T.);
#42=ORIENTED_EDGE('',*,*,#306,.F.);
#43=ORIENTED_EDGE('',*,*,#307,.F.);
#44=ORIENTED_EDGE('',*,*,#308,.T.);
#45=ORIENTED_EDGE('',*,*,#309,.T.);
#46=ORIENTED_EDGE('',*,*,#310,.T.);
#47=ORIENTED_EDGE('',*,*,#311,.T.);
#48=ORIENTED_EDGE('',*,*,#312,.T.);
#49=ORIENTED_EDGE('',*,*,#313,.T.);
#50=ORIENTED_EDGE('',*,*,#314,.T.);
#51=ORIENTED_EDGE('',*,*,#315,.T.);
#52=ORIENTED_EDGE('',*,*,#316,.T.);
#53=ORIENTED_EDGE('',*,*,#317,.T.);
#54=ORIENTED_EDGE('',*,*,#318,.T.);
#55=ORIENTED_EDGE('',*,*,#319,.T.);
#56=ORIENTED_EDGE('',*,*,#320,.T.);
#57=ORIENTED_EDGE('',*,*,#321,.T.);
#58=ORIENTED_EDGE('',*,*,#322,.T.);
#59=ORIENTED_EDGE('',*,*,#323,.T.);
#60=ORIENTED_EDGE('',*,*,#324,.F.);
#61=ORIENTED_EDGE('',*,*,#325,.T.);
#62=ORIENTED_EDGE('',*,*,#326,.T.);
#63=ORIENTED_EDGE('',*,*,#327,.F.);
#64=ORIENTED_EDGE('',*,*,#296,.F.);
#65=ORIENTED_EDGE('',*,*,#328,.F.);
#66=ORIENTED_EDGE('',*,*,#324,.T.);
#67=ORIENTED_EDGE('',*,*,#329,.T.);
#68=ORIENTED_EDGE('',*,*,#299,.T.);
#69=ORIENTED_EDGE('',*,*,#330,.F.);
#70=ORIENTED_EDGE('',*,*,#325,.F.);
#71=ORIENTED_EDGE('',*,*,#328,.T.);
#72=ORIENTED_EDGE('',*,*,#298,.T.);
#73=ORIENTED_EDGE('',*,*,#331,.F.);
#74=ORIENTED_EDGE('',*,*,#326,.F.);
#75=ORIENTED_EDGE('',*,*,#330,.T.);
#76=ORIENTED_EDGE('',*,*,#297,.F.);
#77=ORIENTED_EDGE('',*,*,#329,.F.);
#78=ORIENTED_EDGE('',*,*,#327,.T.);
#79=ORIENTED_EDGE('',*,*,#331,.T.);
#80=ORIENTED_EDGE('',*,*,#332,.T.);
#81=ORIENTED_EDGE('',*,*,#333,.T.);
#82=ORIENTED_EDGE('',*,*,#334,.F.);
#83=ORIENTED_EDGE('',*,*,#335,.T.);
#84=ORIENTED_EDGE('',*,*,#334,.T.);
#85=ORIENTED_EDGE('',*,*,#336,.T.);
#86=ORIENTED_EDGE('',*,*,#337,.F.);
#87=ORIENTED_EDGE('',*,*,#338,.F.);
#88=ORIENTED_EDGE('',*,*,#337,.T.);
#89=ORIENTED_EDGE('',*,*,#339,.T.);
#90=ORIENTED_EDGE('',*,*,#340,.F.);
#91=ORIENTED_EDGE('',*,*,#341,.T.);
#92=ORIENTED_EDGE('',*,*,#340,.T.);
#93=ORIENTED_EDGE('',*,*,#342,.T.);
#94=ORIENTED_EDGE('',*,*,#332,.F.);
#95=ORIENTED_EDGE('',*,*,#343,.F.);
#96=ORIENTED_EDGE('',*,*,#335,.F.);
#97=ORIENTED_EDGE('',*,*,#338,.T.);
#98=ORIENTED_EDGE('',*,*,#341,.F.);
#99=ORIENTED_EDGE('',*,*,#343,.T.);
#100=ORIENTED_EDGE('',*,*,#344,.T.);
#101=ORIENTED_EDGE('',*,*,#345,.T.);
#102=ORIENTED_EDGE('',*,*,#346,.F.);
#103=ORIENTED_EDGE('',*,*,#347,.T.);
#104=ORIENTED_EDGE('',*,*,#346,.T.);
#105=ORIENTED_EDGE('',*,*,#348,.T.);
#106=ORIENTED_EDGE('',*,*,#349,.F.);
#107=ORIENTED_EDGE('',*,*,#350,.F.);
#108=ORIENTED_EDGE('',*,*,#349,.T.);
#109=ORIENTED_EDGE('',*,*,#351,.T.);
#110=ORIENTED_EDGE('',*,*,#352,.F.);
#111=ORIENTED_EDGE('',*,*,#353,.T.);
#112=ORIENTED_EDGE('',*,*,#352,.T.);
#113=ORIENTED_EDGE('',*,*,#354,.T.);
#114=ORIENTED_EDGE('',*,*,#344,.F.);
#115=ORIENTED_EDGE('',*,*,#355,.F.);
#116=ORIENTED_EDGE('',*,*,#347,.F.);
#117=ORIENTED_EDGE('',*,*,#350,.T.);
#118=ORIENTED_EDGE('',*,*,#353,.F.);
#119=ORIENTED_EDGE('',*,*,#355,.T.);
#120=ORIENTED_EDGE('',*,*,#356,.T.);
#121=ORIENTED_EDGE('',*,*,#357,.T.);
#122=ORIENTED_EDGE('',*,*,#358,.F.);
#123=ORIENTED_EDGE('',*,*,#359,.T.);
#124=ORIENTED_EDGE('',*,*,#358,.T.);
#125=ORIENTED_EDGE('',*,*,#360,.T.);
#126=ORIENTED_EDGE('',*,*,#361,.F.);
#127=ORIENTED_EDGE('',*,*,#362,.F.);
#128=ORIENTED_EDGE('',*,*,#361,.T.);
#129=ORIENTED_EDGE('',*,*,#363,.T.);
#130=ORIENTED_EDGE('',*,*,#364,.F.);
#131=ORIENTED_EDGE('',*,*,#365,.T.);
#132=ORIENTED_EDGE('',*,*,#364,.T.);
#133=ORIENTED_EDGE('',*,*,#366,.T.);
#134=ORIENTED_EDGE('',*,*,#356,.F.);
#135=ORIENTED_EDGE('',*,*,#367,.F.);
#136=ORIENTED_EDGE('',*,*,#359,.F.);
#137=ORIENTED_EDGE('',*,*,#362,.T.);
#138=ORIENTED_EDGE('',*,*,#365,.F.);
#139=ORIENTED_EDGE('',*,*,#367,.T.);
#140=ORIENTED_EDGE('',*,*,#368,.T.);
#141=ORIENTED_EDGE('',*,*,#369,.T.);
#142=ORIENTED_EDGE('',*,*,#370,.F.);
#143=ORIENTED_EDGE('',*,*,#371,.T.);
#144=ORIENTED_EDGE('',*,*,#370,.T.);
#145=ORIENTED_EDGE('',*,*,#372,.T.);
#146=ORIENTED_EDGE('',*,*,#373,.F.);
#147=ORIENTED_EDGE('',*,*,#374,.F.);
#148=ORIENTED_EDGE('',*,*,#373,.T.);
#149=ORIENTED_EDGE('',*,*,#375,.T.);
#150=ORIENTED_EDGE('',*,*,#376,.F.);
#151=ORIENTED_EDGE('',*,*,#377,.T.);
#152=ORIENTED_EDGE('',*,*,#376,.T.);
#153=ORIENTED_EDGE('',*,*,#378,.T.);
#154=ORIENTED_EDGE('',*,*,#368,.F.);
#155=ORIENTED_EDGE('',*,*,#379,.F.);
#156=ORIENTED_EDGE('',*,*,#371,.F.);
#157=ORIENTED_EDGE('',*,*,#374,.T.);
#158=ORIENTED_EDGE('',*,*,#377,.F.);
#159=ORIENTED_EDGE('',*,*,#379,.T.);
#160=ORIENTED_EDGE('',*,*,#380,.F.);
#161=ORIENTED_EDGE('',*,*,#311,.F.);
#162=ORIENTED_EDGE('',*,*,#381,.F.);
#163=ORIENTED_EDGE('',*,*,#354,.F.);
#164=ORIENTED_EDGE('',*,*,#381,.T.);
#165=ORIENTED_EDGE('',*,*,#310,.F.);
#166=ORIENTED_EDGE('',*,*,#382,.F.);
#167=ORIENTED_EDGE('',*,*,#345,.F.);
#168=ORIENTED_EDGE('',*,*,#380,.T.);
#169=ORIENTED_EDGE('',*,*,#351,.F.);
#170=ORIENTED_EDGE('',*,*,#383,.F.);
#171=ORIENTED_EDGE('',*,*,#308,.F.);
#172=ORIENTED_EDGE('',*,*,#382,.T.);
#173=ORIENTED_EDGE('',*,*,#309,.F.);
#174=ORIENTED_EDGE('',*,*,#383,.T.);
#175=ORIENTED_EDGE('',*,*,#348,.F.);
#176=ORIENTED_EDGE('',*,*,#384,.F.);
#177=ORIENTED_EDGE('',*,*,#363,.F.);
#178=ORIENTED_EDGE('',*,*,#385,.F.);
#179=ORIENTED_EDGE('',*,*,#315,.F.);
#180=ORIENTED_EDGE('',*,*,#385,.T.);
#181=ORIENTED_EDGE('',*,*,#360,.F.);
#182=ORIENTED_EDGE('',*,*,#386,.F.);
#183=ORIENTED_EDGE('',*,*,#312,.F.);
#184=ORIENTED_EDGE('',*,*,#384,.T.);
#185=ORIENTED_EDGE('',*,*,#314,.F.);
#186=ORIENTED_EDGE('',*,*,#387,.F.);
#187=ORIENTED_EDGE('',*,*,#366,.F.);
#188=ORIENTED_EDGE('',*,*,#386,.T.);
#189=ORIENTED_EDGE('',*,*,#357,.F.);
#190=ORIENTED_EDGE('',*,*,#387,.T.);
#191=ORIENTED_EDGE('',*,*,#313,.F.);
#192=ORIENTED_EDGE('',*,*,#388,.F.);
#193=ORIENTED_EDGE('',*,*,#319,.F.);
#194=ORIENTED_EDGE('',*,*,#389,.F.);
#195=ORIENTED_EDGE('',*,*,#372,.F.);
#196=ORIENTED_EDGE('',*,*,#389,.T.);
#197=ORIENTED_EDGE('',*,*,#318,.F.);
#198=ORIENTED_EDGE('',*,*,#390,.F.);
#199=ORIENTED_EDGE('',*,*,#375,.F.);
#200=ORIENTED_EDGE('',*,*,#388,.T.);
#201=ORIENTED_EDGE('',*,*,#369,.F.);
#202=ORIENTED_EDGE('',*,*,#391,.F.);
#203=ORIENTED_EDGE('',*,*,#316,.F.);
#204=ORIENTED_EDGE('',*,*,#390,.T.);
#205=ORIENTED_EDGE('',*,*,#317,.F.);
#206=ORIENTED_EDGE('',*,*,#391,.T.);
#207=ORIENTED_EDGE('',*,*,#378,.F.);
#208=ORIENTED_EDGE('',*,*,#392,.F.);
#209=ORIENTED_EDGE('',*,*,#333,.F.);
#210=ORIENTED_EDGE('',*,*,#393,.F.);
#211=ORIENTED_EDGE('',*,*,#323,.F.);
#212=ORIENTED_EDGE('',*,*,#393,.T.);
#213=ORIENTED_EDGE('',*,*,#342,.F.);
#214=ORIENTED_EDGE('',*,*,#394,.F.);
#215=ORIENTED_EDGE('',*,*,#320,.F.);
#216=ORIENTED_EDGE('',*,*,#392,.T.);
#217=ORIENTED_EDGE('',*,*,#322,.F.);
#218=ORIENTED_EDGE('',*,*,#395,.F.);
#219=ORIENTED_EDGE('',*,*,#336,.F.);
#220=ORIENTED_EDGE('',*,*,#394,.T.);
#221=ORIENTED_EDGE('',*,*,#339,.F.);
#222=ORIENTED_EDGE('',*,*,#395,.T.);
#223=ORIENTED_EDGE('',*,*,#321,.F.);
#224=ORIENTED_EDGE('',*,*,#396,.F.);
#225=ORIENTED_EDGE('',*,*,#397,.T.);
#226=ORIENTED_EDGE('',*,*,#398,.T.);
#227=ORIENTED_EDGE('',*,*,#301,.F.);
#228=ORIENTED_EDGE('',*,*,#399,.F.);
#229=ORIENTED_EDGE('',*,*,#400,.T.);
#230=ORIENTED_EDGE('',*,*,#396,.T.);
#231=ORIENTED_EDGE('',*,*,#300,.T.);
#232=ORIENTED_EDGE('',*,*,#401,.F.);
#233=ORIENTED_EDGE('',*,*,#402,.T.);
#234=ORIENTED_EDGE('',*,*,#399,.T.);
#235=ORIENTED_EDGE('',*,*,#303,.F.);
#236=ORIENTED_EDGE('',*,*,#398,.F.);
#237=ORIENTED_EDGE('',*,*,#403,.T.);
#238=ORIENTED_EDGE('',*,*,#401,.T.);
#239=ORIENTED_EDGE('',*,*,#302,.F.);
#240=ORIENTED_EDGE('',*,*,#404,.T.);
#241=ORIENTED_EDGE('',*,*,#405,.T.);
#242=ORIENTED_EDGE('',*,*,#406,.T.);
#243=ORIENTED_EDGE('',*,*,#407,.T.);
#244=ORIENTED_EDGE('',*,*,#408,.F.);
#245=ORIENTED_EDGE('',*,*,#409,.T.);
#246=ORIENTED_EDGE('',*,*,#410,.T.);
#247=ORIENTED_EDGE('',*,*,#304,.T.);
#248=ORIENTED_EDGE('',*,*,#411,.F.);
#249=ORIENTED_EDGE('',*,*,#412,.T.);
#250=ORIENTED_EDGE('',*,*,#408,.T.);
#251=ORIENTED_EDGE('',*,*,#307,.T.);
#252=ORIENTED_EDGE('',*,*,#413,.F.);
#253=ORIENTED_EDGE('',*,*,#414,.T.);
#254=ORIENTED_EDGE('',*,*,#411,.T.);
#255=ORIENTED_EDGE('',*,*,#306,.T.);
#256=ORIENTED_EDGE('',*,*,#410,.F.);
#257=ORIENTED_EDGE('',*,*,#415,.T.);
#258=ORIENTED_EDGE('',*,*,#413,.T.);
#259=ORIENTED_EDGE('',*,*,#305,.F.);
#260=ORIENTED_EDGE('',*,*,#416,.T.);
#261=ORIENTED_EDGE('',*,*,#417,.T.);
#262=ORIENTED_EDGE('',*,*,#418,.T.);
#263=ORIENTED_EDGE('',*,*,#419,.T.);
#264=ORIENTED_EDGE('',*,*,#420,.F.);
#265=ORIENTED_EDGE('',*,*,#407,.F.);
#266=ORIENTED_EDGE('',*,*,#421,.F.);
#267=ORIENTED_EDGE('',*,*,#397,.F.);
#268=ORIENTED_EDGE('',*,*,#421,.T.);
#269=ORIENTED_EDGE('',*,*,#406,.F.);
#270=ORIENTED_EDGE('',*,*,#422,.F.);
#271=ORIENTED_EDGE('',*,*,#403,.F.);
#272=ORIENTED_EDGE('',*,*,#420,.T.);
#273=ORIENTED_EDGE('',*,*,#400,.F.);
#274=ORIENTED_EDGE('',*,*,#423,.F.);
#275=ORIENTED_EDGE('',*,*,#404,.F.);
#276=ORIENTED_EDGE('',*,*,#422,.T.);
#277=ORIENTED_EDGE('',*,*,#405,.F.);
#278=ORIENTED_EDGE('',*,*,#423,.T.);
#279=ORIENTED_EDGE('',*,*,#402,.F.);
#280=ORIENTED_EDGE('',*,*,#424,.F.);
#281=ORIENTED_EDGE('',*,*,#409,.F.);
#282=ORIENTED_EDGE('',*,*,#425,.F.);
#283=ORIENTED_EDGE('',*,*,#419,.F.);
#284=ORIENTED_EDGE('',*,*,#425,.T.);
#285=ORIENTED_EDGE('',*,*,#412,.F.);
#286=ORIENTED_EDGE('',*,*,#426,.F.);
#287=ORIENTED_EDGE('',*,*,#416,.F.);
#288=ORIENTED_EDGE('',*,*,#424,.T.);
#289=ORIENTED_EDGE('',*,*,#418,.F.);
#290=ORIENTED_EDGE('',*,*,#427,.F.);
#291=ORIENTED_EDGE('',*,*,#415,.F.);
#292=ORIENTED_EDGE('',*,*,#426,.T.);
#293=ORIENTED_EDGE('',*,*,#414,.F.);
#294=ORIENTED_EDGE('',*,*,#427,.T.);
#295=ORIENTED_EDGE('',*,*,#417,.F.);
#296=EDGE_CURVE('',#428,#429,#508,.T.);
#297=EDGE_CURVE('',#429,#430,#509,.T.);
#298=EDGE_CURVE('',#431,#430,#510,.T.);
#299=EDGE_CURVE('',#428,#431,#511,.T.);
#300=EDGE_CURVE('',#432,#433,#512,.T.);
#301=EDGE_CURVE('',#432,#434,#20,.T.);
#302=EDGE_CURVE('',#434,#435,#513,.T.);
#303=EDGE_CURVE('',#435,#433,#21,.T.);
#304=EDGE_CURVE('',#436,#437,#22,.T.);
#305=EDGE_CURVE('',#436,#438,#514,.T.);
#306=EDGE_CURVE('',#439,#438,#23,.T.);
#307=EDGE_CURVE('',#437,#439,#515,.T.);
#308=EDGE_CURVE('',#440,#441,#516,.T.);
#309=EDGE_CURVE('',#441,#442,#517,.T.);
#310=EDGE_CURVE('',#442,#443,#518,.T.);
#311=EDGE_CURVE('',#443,#440,#519,.T.);
#312=EDGE_CURVE('',#444,#445,#520,.T.);
#313=EDGE_CURVE('',#445,#446,#521,.T.);
#314=EDGE_CURVE('',#446,#447,#522,.T.);
#315=EDGE_CURVE('',#447,#444,#523,.T.);
#316=EDGE_CURVE('',#448,#449,#524,.T.);
#317=EDGE_CURVE('',#449,#450,#525,.T.);
#318=EDGE_CURVE('',#450,#451,#526,.T.);
#319=EDGE_CURVE('',#451,#448,#527,.T.);
#320=EDGE_CURVE('',#452,#453,#528,.T.);
#321=EDGE_CURVE('',#453,#454,#529,.T.);
#322=EDGE_CURVE('',#454,#455,#530,.T.);
#323=EDGE_CURVE('',#455,#452,#531,.T.);
#324=EDGE_CURVE('',#456,#457,#532,.T.);
#325=EDGE_CURVE('',#456,#458,#533,.T.);
#326=EDGE_CURVE('',#458,#459,#534,.T.);
#327=EDGE_CURVE('',#457,#459,#535,.T.);
#328=EDGE_CURVE('',#456,#428,#536,.T.);
#329=EDGE_CURVE('',#457,#429,#537,.T.);
#330=EDGE_CURVE('',#458,#431,#538,.T.);
#331=EDGE_CURVE('',#459,#430,#539,.T.);
#332=EDGE_CURVE('',#460,#461,#540,.T.);
#333=EDGE_CURVE('',#461,#462,#541,.T.);
#334=EDGE_CURVE('',#463,#462,#542,.T.);
#335=EDGE_CURVE('',#463,#460,#543,.T.);
#336=EDGE_CURVE('',#462,#464,#544,.T.);
#337=EDGE_CURVE('',#465,#464,#545,.T.);
#338=EDGE_CURVE('',#463,#465,#546,.T.);
#339=EDGE_CURVE('',#464,#466,#547,.T.);
#340=EDGE_CURVE('',#467,#466,#548,.T.);
#341=EDGE_CURVE('',#467,#465,#549,.T.);
#342=EDGE_CURVE('',#466,#461,#550,.T.);
#343=EDGE_CURVE('',#467,#460,#551,.T.);
#344=EDGE_CURVE('',#468,#469,#552,.T.);
#345=EDGE_CURVE('',#469,#470,#553,.T.);
#346=EDGE_CURVE('',#471,#470,#554,.T.);
#347=EDGE_CURVE('',#471,#468,#555,.T.);
#348=EDGE_CURVE('',#470,#472,#556,.T.);
#349=EDGE_CURVE('',#473,#472,#557,.T.);
#350=EDGE_CURVE('',#471,#473,#558,.T.);
#351=EDGE_CURVE('',#472,#474,#559,.T.);
#352=EDGE_CURVE('',#475,#474,#560,.T.);
#353=EDGE_CURVE('',#475,#473,#561,.T.);
#354=EDGE_CURVE('',#474,#469,#562,.T.);
#355=EDGE_CURVE('',#475,#468,#563,.T.);
#356=EDGE_CURVE('',#476,#477,#564,.T.);
#357=EDGE_CURVE('',#477,#478,#565,.T.);
#358=EDGE_CURVE('',#479,#478,#566,.T.);
#359=EDGE_CURVE('',#479,#476,#567,.T.);
#360=EDGE_CURVE('',#478,#480,#568,.T.);
#361=EDGE_CURVE('',#481,#480,#569,.T.);
#362=EDGE_CURVE('',#479,#481,#570,.T.);
#363=EDGE_CURVE('',#480,#482,#571,.T.);
#364=EDGE_CURVE('',#483,#482,#572,.T.);
#365=EDGE_CURVE('',#483,#481,#573,.T.);
#366=EDGE_CURVE('',#482,#477,#574,.T.);
#367=EDGE_CURVE('',#483,#476,#575,.T.);
#368=EDGE_CURVE('',#484,#485,#576,.T.);
#369=EDGE_CURVE('',#485,#486,#577,.T.);
#370=EDGE_CURVE('',#487,#486,#578,.T.);
#371=EDGE_CURVE('',#487,#484,#579,.T.);
#372=EDGE_CURVE('',#486,#488,#580,.T.);
#373=EDGE_CURVE('',#489,#488,#581,.T.);
#374=EDGE_CURVE('',#487,#489,#582,.T.);
#375=EDGE_CURVE('',#488,#490,#583,.T.);
#376=EDGE_CURVE('',#491,#490,#584,.T.);
#377=EDGE_CURVE('',#491,#489,#585,.T.);
#378=EDGE_CURVE('',#490,#485,#586,.T.);
#379=EDGE_CURVE('',#491,#484,#587,.T.);
#380=EDGE_CURVE('',#440,#474,#588,.T.);
#381=EDGE_CURVE('',#469,#443,#589,.F.);
#382=EDGE_CURVE('',#470,#442,#590,.T.);
#383=EDGE_CURVE('',#441,#472,#591,.T.);
#384=EDGE_CURVE('',#482,#447,#592,.T.);
#385=EDGE_CURVE('',#444,#480,#593,.F.);
#386=EDGE_CURVE('',#445,#478,#594,.T.);
#387=EDGE_CURVE('',#477,#446,#595,.T.);
#388=EDGE_CURVE('',#448,#486,#596,.F.);
#389=EDGE_CURVE('',#488,#451,#597,.T.);
#390=EDGE_CURVE('',#490,#450,#598,.T.);
#391=EDGE_CURVE('',#449,#485,#599,.T.);
#392=EDGE_CURVE('',#462,#455,#600,.F.);
#393=EDGE_CURVE('',#452,#461,#601,.T.);
#394=EDGE_CURVE('',#453,#466,#602,.T.);
#395=EDGE_CURVE('',#464,#454,#603,.T.);
#396=EDGE_CURVE('',#492,#432,#604,.T.);
#397=EDGE_CURVE('',#492,#493,#24,.F.);
#398=EDGE_CURVE('',#493,#434,#605,.T.);
#399=EDGE_CURVE('',#494,#433,#606,.T.);
#400=EDGE_CURVE('',#494,#492,#607,.T.);
#401=EDGE_CURVE('',#495,#435,#608,.T.);
#402=EDGE_CURVE('',#495,#494,#25,.F.);
#403=EDGE_CURVE('',#493,#495,#609,.T.);
#404=EDGE_CURVE('',#496,#497,#610,.T.);
#405=EDGE_CURVE('',#497,#498,#26,.T.);
#406=EDGE_CURVE('',#498,#499,#611,.T.);
#407=EDGE_CURVE('',#499,#496,#27,.T.);
#408=EDGE_CURVE('',#500,#437,#612,.T.);
#409=EDGE_CURVE('',#500,#501,#28,.F.);
#410=EDGE_CURVE('',#501,#436,#613,.T.);
#411=EDGE_CURVE('',#502,#439,#614,.T.);
#412=EDGE_CURVE('',#502,#500,#615,.T.);
#413=EDGE_CURVE('',#503,#438,#616,.T.);
#414=EDGE_CURVE('',#503,#502,#29,.F.);
#415=EDGE_CURVE('',#501,#503,#617,.T.);
#416=EDGE_CURVE('',#504,#505,#618,.T.);
#417=EDGE_CURVE('',#505,#506,#30,.T.);
#418=EDGE_CURVE('',#506,#507,#619,.T.);
#419=EDGE_CURVE('',#507,#504,#31,.T.);
#420=EDGE_CURVE('',#496,#492,#620,.T.);
#421=EDGE_CURVE('',#493,#499,#621,.T.);
#422=EDGE_CURVE('',#495,#498,#622,.T.);
#423=EDGE_CURVE('',#497,#494,#623,.T.);
#424=EDGE_CURVE('',#501,#507,#624,.T.);
#425=EDGE_CURVE('',#504,#500,#625,.T.);
#426=EDGE_CURVE('',#505,#502,#626,.T.);
#427=EDGE_CURVE('',#503,#506,#627,.T.);
#428=VERTEX_POINT('',#1346);
#429=VERTEX_POINT('',#1347);
#430=VERTEX_POINT('',#1349);
#431=VERTEX_POINT('',#1351);
#432=VERTEX_POINT('',#1354);
#433=VERTEX_POINT('',#1355);
#434=VERTEX_POINT('',#1357);
#435=VERTEX_POINT('',#1359);
#436=VERTEX_POINT('',#1362);
#437=VERTEX_POINT('',#1363);
#438=VERTEX_POINT('',#1365);
#439=VERTEX_POINT('',#1367);
#440=VERTEX_POINT('',#1371);
#441=VERTEX_POINT('',#1372);
#442=VERTEX_POINT('',#1374);
#443=VERTEX_POINT('',#1376);
#444=VERTEX_POINT('',#1379);
#445=VERTEX_POINT('',#1380);
#446=VERTEX_POINT('',#1382);
#447=VERTEX_POINT('',#1384);
#448=VERTEX_POINT('',#1387);
#449=VERTEX_POINT('',#1388);
#450=VERTEX_POINT('',#1390);
#451=VERTEX_POINT('',#1392);
#452=VERTEX_POINT('',#1395);
#453=VERTEX_POINT('',#1396);
#454=VERTEX_POINT('',#1398);
#455=VERTEX_POINT('',#1400);
#456=VERTEX_POINT('',#1403);
#457=VERTEX_POINT('',#1404);
#458=VERTEX_POINT('',#1406);
#459=VERTEX_POINT('',#1408);
#460=VERTEX_POINT('',#1420);
#461=VERTEX_POINT('',#1421);
#462=VERTEX_POINT('',#1423);
#463=VERTEX_POINT('',#1425);
#464=VERTEX_POINT('',#1429);
#465=VERTEX_POINT('',#1431);
#466=VERTEX_POINT('',#1435);
#467=VERTEX_POINT('',#1437);
#468=VERTEX_POINT('',#1445);
#469=VERTEX_POINT('',#1446);
#470=VERTEX_POINT('',#1448);
#471=VERTEX_POINT('',#1450);
#472=VERTEX_POINT('',#1454);
#473=VERTEX_POINT('',#1456);
#474=VERTEX_POINT('',#1460);
#475=VERTEX_POINT('',#1462);
#476=VERTEX_POINT('',#1470);
#477=VERTEX_POINT('',#1471);
#478=VERTEX_POINT('',#1473);
#479=VERTEX_POINT('',#1475);
#480=VERTEX_POINT('',#1479);
#481=VERTEX_POINT('',#1481);
#482=VERTEX_POINT('',#1485);
#483=VERTEX_POINT('',#1487);
#484=VERTEX_POINT('',#1495);
#485=VERTEX_POINT('',#1496);
#486=VERTEX_POINT('',#1498);
#487=VERTEX_POINT('',#1500);
#488=VERTEX_POINT('',#1504);
#489=VERTEX_POINT('',#1506);
#490=VERTEX_POINT('',#1510);
#491=VERTEX_POINT('',#1512);
#492=VERTEX_POINT('',#1552);
#493=VERTEX_POINT('',#1554);
#494=VERTEX_POINT('',#1558);
#495=VERTEX_POINT('',#1562);
#496=VERTEX_POINT('',#1568);
#497=VERTEX_POINT('',#1569);
#498=VERTEX_POINT('',#1571);
#499=VERTEX_POINT('',#1573);
#500=VERTEX_POINT('',#1577);
#501=VERTEX_POINT('',#1579);
#502=VERTEX_POINT('',#1583);
#503=VERTEX_POINT('',#1587);
#504=VERTEX_POINT('',#1593);
#505=VERTEX_POINT('',#1594);
#506=VERTEX_POINT('',#1596);
#507=VERTEX_POINT('',#1598);
#508=LINE('',#1345,#628);
#509=LINE('',#1348,#629);
#510=LINE('',#1350,#630);
#511=LINE('',#1352,#631);
#512=LINE('',#1353,#632);
#513=LINE('',#1358,#633);
#514=LINE('',#1364,#634);
#515=LINE('',#1368,#635);
#516=LINE('',#1370,#636);
#517=LINE('',#1373,#637);
#518=LINE('',#1375,#638);
#519=LINE('',#1377,#639);
#520=LINE('',#1378,#640);
#521=LINE('',#1381,#641);
#522=LINE('',#1383,#642);
#523=LINE('',#1385,#643);
#524=LINE('',#1386,#644);
#525=LINE('',#1389,#645);
#526=LINE('',#1391,#646);
#527=LINE('',#1393,#647);
#528=LINE('',#1394,#648);
#529=LINE('',#1397,#649);
#530=LINE('',#1399,#650);
#531=LINE('',#1401,#651);
#532=LINE('',#1402,#652);
#533=LINE('',#1405,#653);
#534=LINE('',#1407,#654);
#535=LINE('',#1409,#655);
#536=LINE('',#1411,#656);
#537=LINE('',#1412,#657);
#538=LINE('',#1414,#658);
#539=LINE('',#1416,#659);
#540=LINE('',#1419,#660);
#541=LINE('',#1422,#661);
#542=LINE('',#1424,#662);
#543=LINE('',#1426,#663);
#544=LINE('',#1428,#664);
#545=LINE('',#1430,#665);
#546=LINE('',#1432,#666);
#547=LINE('',#1434,#667);
#548=LINE('',#1436,#668);
#549=LINE('',#1438,#669);
#550=LINE('',#1440,#670);
#551=LINE('',#1441,#671);
#552=LINE('',#1444,#672);
#553=LINE('',#1447,#673);
#554=LINE('',#1449,#674);
#555=LINE('',#1451,#675);
#556=LINE('',#1453,#676);
#557=LINE('',#1455,#677);
#558=LINE('',#1457,#678);
#559=LINE('',#1459,#679);
#560=LINE('',#1461,#680);
#561=LINE('',#1463,#681);
#562=LINE('',#1465,#682);
#563=LINE('',#1466,#683);
#564=LINE('',#1469,#684);
#565=LINE('',#1472,#685);
#566=LINE('',#1474,#686);
#567=LINE('',#1476,#687);
#568=LINE('',#1478,#688);
#569=LINE('',#1480,#689);
#570=LINE('',#1482,#690);
#571=LINE('',#1484,#691);
#572=LINE('',#1486,#692);
#573=LINE('',#1488,#693);
#574=LINE('',#1490,#694);
#575=LINE('',#1491,#695);
#576=LINE('',#1494,#696);
#577=LINE('',#1497,#697);
#578=LINE('',#1499,#698);
#579=LINE('',#1501,#699);
#580=LINE('',#1503,#700);
#581=LINE('',#1505,#701);
#582=LINE('',#1507,#702);
#583=LINE('',#1509,#703);
#584=LINE('',#1511,#704);
#585=LINE('',#1513,#705);
#586=LINE('',#1515,#706);
#587=LINE('',#1516,#707);
#588=LINE('',#1519,#708);
#589=LINE('',#1520,#709);
#590=LINE('',#1522,#710);
#591=LINE('',#1524,#711);
#592=LINE('',#1527,#712);
#593=LINE('',#1528,#713);
#594=LINE('',#1530,#714);
#595=LINE('',#1532,#715);
#596=LINE('',#1535,#716);
#597=LINE('',#1536,#717);
#598=LINE('',#1538,#718);
#599=LINE('',#1540,#719);
#600=LINE('',#1543,#720);
#601=LINE('',#1544,#721);
#602=LINE('',#1546,#722);
#603=LINE('',#1548,#723);
#604=LINE('',#1551,#724);
#605=LINE('',#1555,#725);
#606=LINE('',#1557,#726);
#607=LINE('',#1559,#727);
#608=LINE('',#1561,#728);
#609=LINE('',#1565,#729);
#610=LINE('',#1567,#730);
#611=LINE('',#1572,#731);
#612=LINE('',#1576,#732);
#613=LINE('',#1580,#733);
#614=LINE('',#1582,#734);
#615=LINE('',#1584,#735);
#616=LINE('',#1586,#736);
#617=LINE('',#1590,#737);
#618=LINE('',#1592,#738);
#619=LINE('',#1597,#739);
#620=LINE('',#1601,#740);
#621=LINE('',#1602,#741);
#622=LINE('',#1604,#742);
#623=LINE('',#1606,#743);
#624=LINE('',#1609,#744);
#625=LINE('',#1610,#745);
#626=LINE('',#1612,#746);
#627=LINE('',#1614,#747);
#628=VECTOR('',#1081,1.);
#629=VECTOR('',#1082,1.);
#630=VECTOR('',#1083,1.);
#631=VECTOR('',#1084,1.);
#632=VECTOR('',#1085,1.);
#633=VECTOR('',#1088,1.);
#634=VECTOR('',#1093,1.);
#635=VECTOR('',#1096,1.);
#636=VECTOR('',#1099,1.);
#637=VECTOR('',#1100,1.);
#638=VECTOR('',#1101,1.);
#639=VECTOR('',#1102,1.);
#640=VECTOR('',#1103,1.);
#641=VECTOR('',#1104,1.);
#642=VECTOR('',#1105,1.);
#643=VECTOR('',#1106,1.);
#644=VECTOR('',#1107,1.);
#645=VECTOR('',#1108,1.);
#646=VECTOR('',#1109,1.);
#647=VECTOR('',#1110,1.);
#648=VECTOR('',#1111,1.);
#649=VECTOR('',#1112,1.);
#650=VECTOR('',#1113,1.);
#651=VECTOR('',#1114,1.);
#652=VECTOR('',#1115,1.);
#653=VECTOR('',#1116,1.);
#654=VECTOR('',#1117,1.);
#655=VECTOR('',#1118,1.);
#656=VECTOR('',#1121,1.);
#657=VECTOR('',#1122,1.);
#658=VECTOR('',#1125,1.);
#659=VECTOR('',#1128,1.);
#660=VECTOR('',#1133,1.);
#661=VECTOR('',#1134,1.);
#662=VECTOR('',#1135,1.);
#663=VECTOR('',#1136,1.);
#664=VECTOR('',#1139,1.);
#665=VECTOR('',#1140,1.);
#666=VECTOR('',#1141,1.);
#667=VECTOR('',#1144,1.);
#668=VECTOR('',#1145,1.);
#669=VECTOR('',#1146,1.);
#670=VECTOR('',#1149,1.);
#671=VECTOR('',#1150,1.);
#672=VECTOR('',#1155,1.);
#673=VECTOR('',#1156,1.);
#674=VECTOR('',#1157,1.);
#675=VECTOR('',#1158,1.);
#676=VECTOR('',#1161,1.);
#677=VECTOR('',#1162,1.);
#678=VECTOR('',#1163,1.);
#679=VECTOR('',#1166,1.);
#680=VECTOR('',#1167,1.);
#681=VECTOR('',#1168,1.);
#682=VECTOR('',#1171,1.);
#683=VECTOR('',#1172,1.);
#684=VECTOR('',#1177,1.);
#685=VECTOR('',#1178,1.);
#686=VECTOR('',#1179,1.);
#687=VECTOR('',#1180,1.);
#688=VECTOR('',#1183,1.);
#689=VECTOR('',#1184,1.);
#690=VECTOR('',#1185,1.);
#691=VECTOR('',#1188,1.);
#692=VECTOR('',#1189,1.);
#693=VECTOR('',#1190,1.);
#694=VECTOR('',#1193,1.);
#695=VECTOR('',#1194,1.);
#696=VECTOR('',#1199,1.);
#697=VECTOR('',#1200,1.);
#698=VECTOR('',#1201,1.);
#699=VECTOR('',#1202,1.);
#700=VECTOR('',#1205,1.);
#701=VECTOR('',#1206,1.);
#702=VECTOR('',#1207,1.);
#703=VECTOR('',#1210,1.);
#704=VECTOR('',#1211,1.);
#705=VECTOR('',#1212,1.);
#706=VECTOR('',#1215,1.);
#707=VECTOR('',#1216,1.);
#708=VECTOR('',#1221,1.);
#709=VECTOR('',#1222,1.);
#710=VECTOR('',#1225,1.);
#711=VECTOR('',#1228,1.);
#712=VECTOR('',#1233,1.);
#713=VECTOR('',#1234,1.);
#714=VECTOR('',#1237,1.);
#715=VECTOR('',#1240,1.);
#716=VECTOR('',#1245,1.);
#717=VECTOR('',#1246,1.);
#718=VECTOR('',#1249,1.);
#719=VECTOR('',#1252,1.);
#720=VECTOR('',#1257,1.);
#721=VECTOR('',#1258,1.);
#722=VECTOR('',#1261,1.);
#723=VECTOR('',#1264,1.);
#724=VECTOR('',#1269,1.);
#725=VECTOR('',#1272,1.);
#726=VECTOR('',#1275,1.);
#727=VECTOR('',#1276,1.);
#728=VECTOR('',#1279,1.);
#729=VECTOR('',#1284,1.);
#730=VECTOR('',#1287,1.);
#731=VECTOR('',#1290,1.);
#732=VECTOR('',#1295,1.);
#733=VECTOR('',#1298,1.);
#734=VECTOR('',#1301,1.);
#735=VECTOR('',#1302,1.);
#736=VECTOR('',#1305,1.);
#737=VECTOR('',#1310,1.);
#738=VECTOR('',#1313,1.);
#739=VECTOR('',#1316,1.);
#740=VECTOR('',#1321,1.);
#741=VECTOR('',#1322,1.);
#742=VECTOR('',#1325,1.);
#743=VECTOR('',#1328,1.);
#744=VECTOR('',#1333,1.);
#745=VECTOR('',#1334,1.);
#746=VECTOR('',#1337,1.);
#747=VECTOR('',#1340,1.);
#748=EDGE_LOOP('',(#32,#33,#34,#35));
#749=EDGE_LOOP('',(#36,#37,#38,#39));
#750=EDGE_LOOP('',(#40,#41,#42,#43));
#751=EDGE_LOOP('',(#44,#45,#46,#47));
#752=EDGE_LOOP('',(#48,#49,#50,#51));
#753=EDGE_LOOP('',(#52,#53,#54,#55));
#754=EDGE_LOOP('',(#56,#57,#58,#59));
#755=EDGE_LOOP('',(#60,#61,#62,#63));
#756=EDGE_LOOP('',(#64,#65,#66,#67));
#757=EDGE_LOOP('',(#68,#69,#70,#71));
#758=EDGE_LOOP('',(#72,#73,#74,#75));
#759=EDGE_LOOP('',(#76,#77,#78,#79));
#760=EDGE_LOOP('',(#80,#81,#82,#83));
#761=EDGE_LOOP('',(#84,#85,#86,#87));
#762=EDGE_LOOP('',(#88,#89,#90,#91));
#763=EDGE_LOOP('',(#92,#93,#94,#95));
#764=EDGE_LOOP('',(#96,#97,#98,#99));
#765=EDGE_LOOP('',(#100,#101,#102,#103));
#766=EDGE_LOOP('',(#104,#105,#106,#107));
#767=EDGE_LOOP('',(#108,#109,#110,#111));
#768=EDGE_LOOP('',(#112,#113,#114,#115));
#769=EDGE_LOOP('',(#116,#117,#118,#119));
#770=EDGE_LOOP('',(#120,#121,#122,#123));
#771=EDGE_LOOP('',(#124,#125,#126,#127));
#772=EDGE_LOOP('',(#128,#129,#130,#131));
#773=EDGE_LOOP('',(#132,#133,#134,#135));
#774=EDGE_LOOP('',(#136,#137,#138,#139));
#775=EDGE_LOOP('',(#140,#141,#142,#143));
#776=EDGE_LOOP('',(#144,#145,#146,#147));
#777=EDGE_LOOP('',(#148,#149,#150,#151));
#778=EDGE_LOOP('',(#152,#153,#154,#155));
#779=EDGE_LOOP('',(#156,#157,#158,#159));
#780=EDGE_LOOP('',(#160,#161,#162,#163));
#781=EDGE_LOOP('',(#164,#165,#166,#167));
#782=EDGE_LOOP('',(#168,#169,#170,#171));
#783=EDGE_LOOP('',(#172,#173,#174,#175));
#784=EDGE_LOOP('',(#176,#177,#178,#179));
#785=EDGE_LOOP('',(#180,#181,#182,#183));
#786=EDGE_LOOP('',(#184,#185,#186,#187));
#787=EDGE_LOOP('',(#188,#189,#190,#191));
#788=EDGE_LOOP('',(#192,#193,#194,#195));
#789=EDGE_LOOP('',(#196,#197,#198,#199));
#790=EDGE_LOOP('',(#200,#201,#202,#203));
#791=EDGE_LOOP('',(#204,#205,#206,#207));
#792=EDGE_LOOP('',(#208,#209,#210,#211));
#793=EDGE_LOOP('',(#212,#213,#214,#215));
#794=EDGE_LOOP('',(#216,#217,#218,#219));
#795=EDGE_LOOP('',(#220,#221,#222,#223));
#796=EDGE_LOOP('',(#224,#225,#226,#227));
#797=EDGE_LOOP('',(#228,#229,#230,#231));
#798=EDGE_LOOP('',(#232,#233,#234,#235));
#799=EDGE_LOOP('',(#236,#237,#238,#239));
#800=EDGE_LOOP('',(#240,#241,#242,#243));
#801=EDGE_LOOP('',(#244,#245,#246,#247));
#802=EDGE_LOOP('',(#248,#249,#250,#251));
#803=EDGE_LOOP('',(#252,#253,#254,#255));
#804=EDGE_LOOP('',(#256,#257,#258,#259));
#805=EDGE_LOOP('',(#260,#261,#262,#263));
#806=EDGE_LOOP('',(#264,#265,#266,#267));
#807=EDGE_LOOP('',(#268,#269,#270,#271));
#808=EDGE_LOOP('',(#272,#273,#274,#275));
#809=EDGE_LOOP('',(#276,#277,#278,#279));
#810=EDGE_LOOP('',(#280,#281,#282,#283));
#811=EDGE_LOOP('',(#284,#285,#286,#287));
#812=EDGE_LOOP('',(#288,#289,#290,#291));
#813=EDGE_LOOP('',(#292,#293,#294,#295));
#814=FACE_BOUND('',#748,.T.);
#815=FACE_BOUND('',#749,.T.);
#816=FACE_BOUND('',#750,.T.);
#817=FACE_BOUND('',#751,.T.);
#818=FACE_BOUND('',#752,.T.);
#819=FACE_BOUND('',#753,.T.);
#820=FACE_BOUND('',#754,.T.);
#821=FACE_BOUND('',#755,.T.);
#822=FACE_BOUND('',#756,.T.);
#823=FACE_BOUND('',#757,.T.);
#824=FACE_BOUND('',#758,.T.);
#825=FACE_BOUND('',#759,.T.);
#826=FACE_BOUND('',#760,.T.);
#827=FACE_BOUND('',#761,.T.);
#828=FACE_BOUND('',#762,.T.);
#829=FACE_BOUND('',#763,.T.);
#830=FACE_BOUND('',#764,.T.);
#831=FACE_BOUND('',#765,.T.);
#832=FACE_BOUND('',#766,.T.);
#833=FACE_BOUND('',#767,.T.);
#834=FACE_BOUND('',#768,.T.);
#835=FACE_BOUND('',#769,.T.);
#836=FACE_BOUND('',#770,.T.);
#837=FACE_BOUND('',#771,.T.);
#838=FACE_BOUND('',#772,.T.);
#839=FACE_BOUND('',#773,.T.);
#840=FACE_BOUND('',#774,.T.);
#841=FACE_BOUND('',#775,.T.);
#842=FACE_BOUND('',#776,.T.);
#843=FACE_BOUND('',#777,.T.);
#844=FACE_BOUND('',#778,.T.);
#845=FACE_BOUND('',#779,.T.);
#846=FACE_BOUND('',#780,.T.);
#847=FACE_BOUND('',#781,.T.);
#848=FACE_BOUND('',#782,.T.);
#849=FACE_BOUND('',#783,.T.);
#850=FACE_BOUND('',#784,.T.);
#851=FACE_BOUND('',#785,.T.);
#852=FACE_BOUND('',#786,.T.);
#853=FACE_BOUND('',#787,.T.);
#854=FACE_BOUND('',#788,.T.);
#855=FACE_BOUND('',#789,.T.);
#856=FACE_BOUND('',#790,.T.);
#857=FACE_BOUND('',#791,.T.);
#858=FACE_BOUND('',#792,.T.);
#859=FACE_BOUND('',#793,.T.);
#860=FACE_BOUND('',#794,.T.);
#861=FACE_BOUND('',#795,.T.);
#862=FACE_BOUND('',#796,.T.);
#863=FACE_BOUND('',#797,.T.);
#864=FACE_BOUND('',#798,.T.);
#865=FACE_BOUND('',#799,.T.);
#866=FACE_BOUND('',#800,.T.);
#867=FACE_BOUND('',#801,.T.);
#868=FACE_BOUND('',#802,.T.);
#869=FACE_BOUND('',#803,.T.);
#870=FACE_BOUND('',#804,.T.);
#871=FACE_BOUND('',#805,.T.);
#872=FACE_BOUND('',#806,.T.);
#873=FACE_BOUND('',#807,.T.);
#874=FACE_BOUND('',#808,.T.);
#875=FACE_BOUND('',#809,.T.);
#876=FACE_BOUND('',#810,.T.);
#877=FACE_BOUND('',#811,.T.);
#878=FACE_BOUND('',#812,.T.);
#879=FACE_BOUND('',#813,.T.);
#880=PLANE('',#1005);
#881=PLANE('',#1010);
#882=PLANE('',#1011);
#883=PLANE('',#1012);
#884=PLANE('',#1013);
#885=PLANE('',#1014);
#886=PLANE('',#1015);
#887=PLANE('',#1016);
#888=PLANE('',#1017);
#889=PLANE('',#1018);
#890=PLANE('',#1019);
#891=PLANE('',#1020);
#892=PLANE('',#1021);
#893=PLANE('',#1022);
#894=PLANE('',#1023);
#895=PLANE('',#1024);
#896=PLANE('',#1025);
#897=PLANE('',#1026);
#898=PLANE('',#1027);
#899=PLANE('',#1028);
#900=PLANE('',#1029);
#901=PLANE('',#1030);
#902=PLANE('',#1031);
#903=PLANE('',#1032);
#904=PLANE('',#1033);
#905=PLANE('',#1034);
#906=PLANE('',#1035);
#907=PLANE('',#1036);
#908=PLANE('',#1037);
#909=PLANE('',#1038);
#910=PLANE('',#1039);
#911=PLANE('',#1040);
#912=PLANE('',#1041);
#913=PLANE('',#1042);
#914=PLANE('',#1043);
#915=PLANE('',#1044);
#916=PLANE('',#1045);
#917=PLANE('',#1046);
#918=PLANE('',#1047);
#919=PLANE('',#1048);
#920=PLANE('',#1049);
#921=PLANE('',#1050);
#922=PLANE('',#1053);
#923=PLANE('',#1056);
#924=PLANE('',#1057);
#925=PLANE('',#1062);
#926=PLANE('',#1065);
#927=PLANE('',#1066);
#928=PLANE('',#1070);
#929=PLANE('',#1071);
#930=PLANE('',#1074);
#931=PLANE('',#1075);
#932=ADVANCED_FACE('',(#814,#815,#816),#880,.F.);
#933=ADVANCED_FACE('',(#817,#818,#819,#820,#821),#881,.T.);
#934=ADVANCED_FACE('',(#822),#882,.T.);
#935=ADVANCED_FACE('',(#823),#883,.F.);
#936=ADVANCED_FACE('',(#824),#884,.F.);
#937=ADVANCED_FACE('',(#825),#885,.T.);
#938=ADVANCED_FACE('',(#826),#886,.T.);
#939=ADVANCED_FACE('',(#827),#887,.F.);
#940=ADVANCED_FACE('',(#828),#888,.T.);
#941=ADVANCED_FACE('',(#829),#889,.F.);
#942=ADVANCED_FACE('',(#830),#890,.T.);
#943=ADVANCED_FACE('',(#831),#891,.T.);
#944=ADVANCED_FACE('',(#832),#892,.F.);
#945=ADVANCED_FACE('',(#833),#893,.T.);
#946=ADVANCED_FACE('',(#834),#894,.F.);
#947=ADVANCED_FACE('',(#835),#895,.T.);
#948=ADVANCED_FACE('',(#836),#896,.T.);
#949=ADVANCED_FACE('',(#837),#897,.F.);
#950=ADVANCED_FACE('',(#838),#898,.T.);
#951=ADVANCED_FACE('',(#839),#899,.F.);
#952=ADVANCED_FACE('',(#840),#900,.T.);
#953=ADVANCED_FACE('',(#841),#901,.T.);
#954=ADVANCED_FACE('',(#842),#902,.F.);
#955=ADVANCED_FACE('',(#843),#903,.T.);
#956=ADVANCED_FACE('',(#844),#904,.F.);
#957=ADVANCED_FACE('',(#845),#905,.T.);
#958=ADVANCED_FACE('',(#846),#906,.T.);
#959=ADVANCED_FACE('',(#847),#907,.F.);
#960=ADVANCED_FACE('',(#848),#908,.F.);
#961=ADVANCED_FACE('',(#849),#909,.T.);
#962=ADVANCED_FACE('',(#850),#910,.F.);
#963=ADVANCED_FACE('',(#851),#911,.T.);
#964=ADVANCED_FACE('',(#852),#912,.T.);
#965=ADVANCED_FACE('',(#853),#913,.F.);
#966=ADVANCED_FACE('',(#854),#914,.T.);
#967=ADVANCED_FACE('',(#855),#915,.F.);
#968=ADVANCED_FACE('',(#856),#916,.F.);
#969=ADVANCED_FACE('',(#857),#917,.T.);
#970=ADVANCED_FACE('',(#858),#918,.F.);
#971=ADVANCED_FACE('',(#859),#919,.T.);
#972=ADVANCED_FACE('',(#860),#920,.T.);
#973=ADVANCED_FACE('',(#861),#921,.F.);
#974=ADVANCED_FACE('',(#862),#16,.T.);
#975=ADVANCED_FACE('',(#863),#922,.F.);
#976=ADVANCED_FACE('',(#864),#17,.T.);
#977=ADVANCED_FACE('',(#865),#923,.T.);
#978=ADVANCED_FACE('',(#866),#924,.T.);
#979=ADVANCED_FACE('',(#867),#18,.T.);
#980=ADVANCED_FACE('',(#868),#925,.F.);
#981=ADVANCED_FACE('',(#869),#19,.T.);
#982=ADVANCED_FACE('',(#870),#926,.T.);
#983=ADVANCED_FACE('',(#871),#927,.T.);
#984=ADVANCED_FACE('',(#872),#12,.T.);
#985=ADVANCED_FACE('',(#873),#928,.F.);
#986=ADVANCED_FACE('',(#874),#929,.T.);
#987=ADVANCED_FACE('',(#875),#13,.T.);
#988=ADVANCED_FACE('',(#876),#14,.T.);
#989=ADVANCED_FACE('',(#877),#930,.T.);
#990=ADVANCED_FACE('',(#878),#931,.F.);
#991=ADVANCED_FACE('',(#879),#15,.T.);
#992=CLOSED_SHELL('',(#932,#933,#934,#935,#936,#937,#938,#939,#940,#941,
#942,#943,#944,#945,#946,#947,#948,#949,#950,#951,#952,#953,#954,#955,#956,
#957,#958,#959,#960,#961,#962,#963,#964,#965,#966,#967,#968,#969,#970,#971,
#972,#973,#974,#975,#976,#977,#978,#979,#980,#981,#982,#983,#984,#985,#986,
#987,#988,#989,#990,#991));
#993=STYLED_ITEM('',(#994),#1001);
#994=PRESENTATION_STYLE_ASSIGNMENT((#995));
#995=SURFACE_STYLE_USAGE(.BOTH.,#996);
#996=SURFACE_SIDE_STYLE('',(#997));
#997=SURFACE_STYLE_FILL_AREA(#998);
#998=FILL_AREA_STYLE('',(#999));
#999=FILL_AREA_STYLE_COLOUR('',#1000);
#1000=COLOUR_RGB('',0.615686274509804,0.811764705882353,0.929411764705882);
#1001=MANIFOLD_SOLID_BREP('Part 1',#992);
#1002=SHAPE_DEFINITION_REPRESENTATION(#1622,#1003);
#1003=SHAPE_REPRESENTATION('Part 1',(#1004),#1617);
#1004=AXIS2_PLACEMENT_3D('',#1343,#1077,#1078);
#1005=AXIS2_PLACEMENT_3D('',#1344,#1079,#1080);
#1006=AXIS2_PLACEMENT_3D('',#1356,#1086,#1087);
#1007=AXIS2_PLACEMENT_3D('',#1360,#1089,#1090);
#1008=AXIS2_PLACEMENT_3D('',#1361,#1091,#1092);
#1009=AXIS2_PLACEMENT_3D('',#1366,#1094,#1095);
#1010=AXIS2_PLACEMENT_3D('',#1369,#1097,#1098);
#1011=AXIS2_PLACEMENT_3D('',#1410,#1119,#1120);
#1012=AXIS2_PLACEMENT_3D('',#1413,#1123,#1124);
#1013=AXIS2_PLACEMENT_3D('',#1415,#1126,#1127);
#1014=AXIS2_PLACEMENT_3D('',#1417,#1129,#1130);
#1015=AXIS2_PLACEMENT_3D('',#1418,#1131,#1132);
#1016=AXIS2_PLACEMENT_3D('',#1427,#1137,#1138);
#1017=AXIS2_PLACEMENT_3D('',#1433,#1142,#1143);
#1018=AXIS2_PLACEMENT_3D('',#1439,#1147,#1148);
#1019=AXIS2_PLACEMENT_3D('',#1442,#1151,#1152);
#1020=AXIS2_PLACEMENT_3D('',#1443,#1153,#1154);
#1021=AXIS2_PLACEMENT_3D('',#1452,#1159,#1160);
#1022=AXIS2_PLACEMENT_3D('',#1458,#1164,#1165);
#1023=AXIS2_PLACEMENT_3D('',#1464,#1169,#1170);
#1024=AXIS2_PLACEMENT_3D('',#1467,#1173,#1174);
#1025=AXIS2_PLACEMENT_3D('',#1468,#1175,#1176);
#1026=AXIS2_PLACEMENT_3D('',#1477,#1181,#1182);
#1027=AXIS2_PLACEMENT_3D('',#1483,#1186,#1187);
#1028=AXIS2_PLACEMENT_3D('',#1489,#1191,#1192);
#1029=AXIS2_PLACEMENT_3D('',#1492,#1195,#1196);
#1030=AXIS2_PLACEMENT_3D('',#1493,#1197,#1198);
#1031=AXIS2_PLACEMENT_3D('',#1502,#1203,#1204);
#1032=AXIS2_PLACEMENT_3D('',#1508,#1208,#1209);
#1033=AXIS2_PLACEMENT_3D('',#1514,#1213,#1214);
#1034=AXIS2_PLACEMENT_3D('',#1517,#1217,#1218);
#1035=AXIS2_PLACEMENT_3D('',#1518,#1219,#1220);
#1036=AXIS2_PLACEMENT_3D('',#1521,#1223,#1224);
#1037=AXIS2_PLACEMENT_3D('',#1523,#1226,#1227);
#1038=AXIS2_PLACEMENT_3D('',#1525,#1229,#1230);
#1039=AXIS2_PLACEMENT_3D('',#1526,#1231,#1232);
#1040=AXIS2_PLACEMENT_3D('',#1529,#1235,#1236);
#1041=AXIS2_PLACEMENT_3D('',#1531,#1238,#1239);
#1042=AXIS2_PLACEMENT_3D('',#1533,#1241,#1242);
#1043=AXIS2_PLACEMENT_3D('',#1534,#1243,#1244);
#1044=AXIS2_PLACEMENT_3D('',#1537,#1247,#1248);
#1045=AXIS2_PLACEMENT_3D('',#1539,#1250,#1251);
#1046=AXIS2_PLACEMENT_3D('',#1541,#1253,#1254);
#1047=AXIS2_PLACEMENT_3D('',#1542,#1255,#1256);
#1048=AXIS2_PLACEMENT_3D('',#1545,#1259,#1260);
#1049=AXIS2_PLACEMENT_3D('',#1547,#1262,#1263);
#1050=AXIS2_PLACEMENT_3D('',#1549,#1265,#1266);
#1051=AXIS2_PLACEMENT_3D('',#1550,#1267,#1268);
#1052=AXIS2_PLACEMENT_3D('',#1553,#1270,#1271);
#1053=AXIS2_PLACEMENT_3D('',#1556,#1273,#1274);
#1054=AXIS2_PLACEMENT_3D('',#1560,#1277,#1278);
#1055=AXIS2_PLACEMENT_3D('',#1563,#1280,#1281);
#1056=AXIS2_PLACEMENT_3D('',#1564,#1282,#1283);
#1057=AXIS2_PLACEMENT_3D('',#1566,#1285,#1286);
#1058=AXIS2_PLACEMENT_3D('',#1570,#1288,#1289);
#1059=AXIS2_PLACEMENT_3D('',#1574,#1291,#1292);
#1060=AXIS2_PLACEMENT_3D('',#1575,#1293,#1294);
#1061=AXIS2_PLACEMENT_3D('',#1578,#1296,#1297);
#1062=AXIS2_PLACEMENT_3D('',#1581,#1299,#1300);
#1063=AXIS2_PLACEMENT_3D('',#1585,#1303,#1304);
#1064=AXIS2_PLACEMENT_3D('',#1588,#1306,#1307);
#1065=AXIS2_PLACEMENT_3D('',#1589,#1308,#1309);
#1066=AXIS2_PLACEMENT_3D('',#1591,#1311,#1312);
#1067=AXIS2_PLACEMENT_3D('',#1595,#1314,#1315);
#1068=AXIS2_PLACEMENT_3D('',#1599,#1317,#1318);
#1069=AXIS2_PLACEMENT_3D('',#1600,#1319,#1320);
#1070=AXIS2_PLACEMENT_3D('',#1603,#1323,#1324);
#1071=AXIS2_PLACEMENT_3D('',#1605,#1326,#1327);
#1072=AXIS2_PLACEMENT_3D('',#1607,#1329,#1330);
#1073=AXIS2_PLACEMENT_3D('',#1608,#1331,#1332);
#1074=AXIS2_PLACEMENT_3D('',#1611,#1335,#1336);
#1075=AXIS2_PLACEMENT_3D('',#1613,#1338,#1339);
#1076=AXIS2_PLACEMENT_3D('',#1615,#1341,#1342);
#1077=DIRECTION('',(0.,0.,1.));
#1078=DIRECTION('',(1.,0.,0.));
#1079=DIRECTION('',(0.,1.,0.));
#1080=DIRECTION('',(1.,0.,0.));
#1081=DIRECTION('',(0.,0.,-1.));
#1082=DIRECTION('',(1.,0.,0.));
#1083=DIRECTION('',(0.,0.,-1.));
#1084=DIRECTION('',(1.,0.,0.));
#1085=DIRECTION('',(0.,0.,-1.));
#1086=DIRECTION('',(0.,1.,0.));
#1087=DIRECTION('',(-1.,0.,0.));
#1088=DIRECTION('',(0.,0.,-1.));
#1089=DIRECTION('',(0.,1.,0.));
#1090=DIRECTION('',(-1.,0.,0.));
#1091=DIRECTION('',(0.,-1.,0.));
#1092=DIRECTION('',(-1.,0.,0.));
#1093=DIRECTION('',(0.,0.,-1.));
#1094=DIRECTION('',(0.,-1.,0.));
#1095=DIRECTION('',(-1.,0.,0.));
#1096=DIRECTION('',(1.09446276086865E-16,0.,-1.));
#1097=DIRECTION('',(0.,1.,0.));
#1098=DIRECTION('',(1.,0.,0.));
#1099=DIRECTION('',(0.447213595499957,0.,-0.894427190999917));
#1100=DIRECTION('',(0.447213595499956,0.,0.894427190999917));
#1101=DIRECTION('',(-0.447213595499957,0.,0.894427190999917));
#1102=DIRECTION('',(-0.447213595499956,0.,-0.894427190999917));
#1103=DIRECTION('',(-0.447213595499957,0.,-0.894427190999917));
#1104=DIRECTION('',(0.447213595499957,0.,-0.894427190999917));
#1105=DIRECTION('',(0.447213595499957,0.,0.894427190999917));
#1106=DIRECTION('',(-0.447213595499957,0.,0.894427190999917));
#1107=DIRECTION('',(-0.447213595499956,0.,0.894427190999917));
#1108=DIRECTION('',(-0.447213595499957,0.,-0.894427190999917));
#1109=DIRECTION('',(0.447213595499956,0.,-0.894427190999917));
#1110=DIRECTION('',(0.447213595499957,0.,0.894427190999917));
#1111=DIRECTION('',(0.447213595499956,0.,0.894427190999917));
#1112=DIRECTION('',(-0.447213595499956,0.,0.894427190999917));
#1113=DIRECTION('',(-0.447213595499956,0.,-0.894427190999917));
#1114=DIRECTION('',(0.447213595499956,0.,-0.894427190999917));
#1115=DIRECTION('',(0.,0.,-1.));
#1116=DIRECTION('',(1.,0.,0.));
#1117=DIRECTION('',(0.,0.,-1.));
#1118=DIRECTION('',(1.,0.,0.));
#1119=DIRECTION('',(-1.,0.,0.));
#1120=DIRECTION('',(0.,1.,0.));
#1121=DIRECTION('',(0.,-1.,0.));
#1122=DIRECTION('',(0.,-1.,0.));
#1123=DIRECTION('',(0.,0.,-1.));
#1124=DIRECTION('',(0.,1.,0.));
#1125=DIRECTION('',(0.,-1.,0.));
#1126=DIRECTION('',(-1.,0.,0.));
#1127=DIRECTION('',(0.,1.,0.));
#1128=DIRECTION('',(0.,-1.,0.));
#1129=DIRECTION('',(0.,0.,-1.));
#1130=DIRECTION('',(0.,1.,0.));
#1131=DIRECTION('',(0.894427190999917,0.,0.447213595499956));
#1132=DIRECTION('',(0.447213595499956,0.,-0.894427190999917));
#1133=DIRECTION('',(0.,1.,0.));
#1134=DIRECTION('',(-0.447213595499956,0.,0.894427190999917));
#1135=DIRECTION('',(0.,1.,0.));
#1136=DIRECTION('',(0.447213595499956,0.,-0.894427190999917));
#1137=DIRECTION('',(-0.894427190999917,0.,0.447213595499956));
#1138=DIRECTION('',(0.447213595499956,0.,0.894427190999917));
#1139=DIRECTION('',(0.447213595499956,0.,0.894427190999917));
#1140=DIRECTION('',(0.,1.,0.));
#1141=DIRECTION('',(0.447213595499956,0.,0.894427190999917));
#1142=DIRECTION('',(-0.894427190999917,0.,-0.447213595499956));
#1143=DIRECTION('',(-0.447213595499956,0.,0.894427190999917));
#1144=DIRECTION('',(0.447213595499956,0.,-0.894427190999917));
#1145=DIRECTION('',(0.,1.,0.));
#1146=DIRECTION('',(-0.447213595499956,0.,0.894427190999917));
#1147=DIRECTION('',(0.894427190999917,0.,-0.447213595499956));
#1148=DIRECTION('',(-0.447213595499956,0.,-0.894427190999917));
#1149=DIRECTION('',(-0.447213595499956,0.,-0.894427190999917));
#1150=DIRECTION('',(-0.447213595499956,0.,-0.894427190999917));
#1151=DIRECTION('',(0.,1.,0.));
#1152=DIRECTION('',(1.,0.,0.));
#1153=DIRECTION('',(-0.894427190999917,0.,-0.447213595499957));
#1154=DIRECTION('',(-0.447213595499957,0.,0.894427190999917));
#1155=DIRECTION('',(0.,1.,0.));
#1156=DIRECTION('',(0.447213595499957,0.,-0.894427190999917));
#1157=DIRECTION('',(0.,1.,0.));
#1158=DIRECTION('',(-0.447213595499957,0.,0.894427190999917));
#1159=DIRECTION('',(0.894427190999917,0.,-0.447213595499956));
#1160=DIRECTION('',(-0.447213595499956,0.,-0.894427190999917));
#1161=DIRECTION('',(-0.447213595499956,0.,-0.894427190999917));
#1162=DIRECTION('',(0.,1.,0.));
#1163=DIRECTION('',(-0.447213595499956,0.,-0.894427190999917));
#1164=DIRECTION('',(0.894427190999917,0.,0.447213595499957));
#1165=DIRECTION('',(0.447213595499957,0.,-0.894427190999917));
#1166=DIRECTION('',(-0.447213595499957,0.,0.894427190999917));
#1167=DIRECTION('',(0.,1.,0.));
#1168=DIRECTION('',(0.447213595499957,0.,-0.894427190999917));
#1169=DIRECTION('',(-0.894427190999917,0.,0.447213595499956));
#1170=DIRECTION('',(0.447213595499956,0.,0.894427190999917));
#1171=DIRECTION('',(0.447213595499956,0.,0.894427190999917));
#1172=DIRECTION('',(0.447213595499956,0.,0.894427190999917));
#1173=DIRECTION('',(0.,1.,0.));
#1174=DIRECTION('',(1.,0.,0.));
#1175=DIRECTION('',(0.894427190999917,0.,0.447213595499957));
#1176=DIRECTION('',(0.447213595499957,0.,-0.894427190999917));
#1177=DIRECTION('',(0.,1.,0.));
#1178=DIRECTION('',(-0.447213595499957,0.,0.894427190999917));
#1179=DIRECTION('',(0.,1.,0.));
#1180=DIRECTION('',(0.447213595499957,0.,-0.894427190999917));
#1181=DIRECTION('',(-0.894427190999917,0.,0.447213595499957));
#1182=DIRECTION('',(0.447213595499957,0.,0.894427190999917));
#1183=DIRECTION('',(0.447213595499957,0.,0.894427190999917));
#1184=DIRECTION('',(0.,1.,0.));
#1185=DIRECTION('',(0.447213595499957,0.,0.894427190999917));
#1186=DIRECTION('',(-0.894427190999917,0.,-0.447213595499957));
#1187=DIRECTION('',(-0.447213595499957,0.,0.894427190999917));
#1188=DIRECTION('',(0.447213595499957,0.,-0.894427190999917));
#1189=DIRECTION('',(0.,1.,0.));
#1190=DIRECTION('',(-0.447213595499957,0.,0.894427190999917));
#1191=DIRECTION('',(0.894427190999917,0.,-0.447213595499957));
#1192=DIRECTION('',(-0.447213595499957,0.,-0.894427190999917));
#1193=DIRECTION('',(-0.447213595499957,0.,-0.894427190999917));
#1194=DIRECTION('',(-0.447213595499957,0.,-0.894427190999917));
#1195=DIRECTION('',(0.,1.,0.));
#1196=DIRECTION('',(1.,0.,0.));
#1197=DIRECTION('',(-0.894427190999917,0.,-0.447213595499956));
#1198=DIRECTION('',(-0.447213595499956,0.,0.894427190999917));
#1199=DIRECTION('',(0.,1.,0.));
#1200=DIRECTION('',(0.447213595499956,0.,-0.894427190999917));
#1201=DIRECTION('',(0.,1.,0.));
#1202=DIRECTION('',(-0.447213595499956,0.,0.894427190999917));
#1203=DIRECTION('',(0.894427190999917,0.,-0.447213595499957));
#1204=DIRECTION('',(-0.447213595499957,0.,-0.894427190999917));
#1205=DIRECTION('',(-0.447213595499957,0.,-0.894427190999917));
#1206=DIRECTION('',(0.,1.,0.));
#1207=DIRECTION('',(-0.447213595499957,0.,-0.894427190999917));
#1208=DIRECTION('',(0.894427190999917,0.,0.447213595499956));
#1209=DIRECTION('',(0.447213595499956,0.,-0.894427190999917));
#1210=DIRECTION('',(-0.447213595499956,0.,0.894427190999917));
#1211=DIRECTION('',(0.,1.,0.));
#1212=DIRECTION('',(0.447213595499956,0.,-0.894427190999917));
#1213=DIRECTION('',(-0.894427190999917,0.,0.447213595499957));
#1214=DIRECTION('',(0.447213595499957,0.,0.894427190999917));
#1215=DIRECTION('',(0.447213595499957,0.,0.894427190999917));
#1216=DIRECTION('',(0.447213595499957,0.,0.894427190999917));
#1217=DIRECTION('',(0.,1.,0.));
#1218=DIRECTION('',(1.,0.,0.));
#1219=DIRECTION('',(0.632455532033676,0.707106781186548,-0.316227766016836));
#1220=DIRECTION('',(-0.447213595499956,0.,-0.894427190999917));
#1221=DIRECTION('',(0.74535599249993,-0.666666666666667,-1.90888559885154E-15));
#1222=DIRECTION('',(9.27316841112039E-16,-0.408248290463862,-0.912870929175277));
#1223=DIRECTION('',(0.632455532033677,-0.707106781186547,0.316227766016837));
#1224=DIRECTION('',(-0.447213595499957,0.,0.894427190999917));
#1225=DIRECTION('',(0.74535599249993,0.666666666666667,-3.48644929907487E-15));
#1226=DIRECTION('',(-0.632455532033677,-0.707106781186547,-0.316227766016837));
#1227=DIRECTION('',(0.447213595499957,0.,-0.894427190999917));
#1228=DIRECTION('',(-1.21810037681151E-15,-0.408248290463862,0.912870929175278));
#1229=DIRECTION('',(-0.632455532033676,0.707106781186549,0.316227766016836));
#1230=DIRECTION('',(0.447213595499956,0.,0.894427190999917));
#1231=DIRECTION('',(0.632455532033675,-0.707106781186549,0.316227766016836));
#1232=DIRECTION('',(-0.447213595499957,0.,0.894427190999917));
#1233=DIRECTION('',(0.745355992499931,0.666666666666666,7.40148683083441E-16));
#1234=DIRECTION('',(8.70661009632435E-16,0.408248290463862,0.912870929175277));
#1235=DIRECTION('',(0.632455532033677,0.707106781186547,-0.316227766016837));
#1236=DIRECTION('',(-0.447213595499957,0.,-0.894427190999917));
#1237=DIRECTION('',(0.74535599249993,-0.666666666666667,3.7007434154172E-16));
#1238=DIRECTION('',(-0.632455532033676,0.707106781186549,0.316227766016836));
#1239=DIRECTION('',(0.447213595499957,0.,0.894427190999917));
#1240=DIRECTION('',(5.66558314796049E-16,0.408248290463862,-0.912870929175278));
#1241=DIRECTION('',(-0.632455532033676,-0.707106781186548,-0.316227766016837));
#1242=DIRECTION('',(0.447213595499957,0.,-0.894427190999917));
#1243=DIRECTION('',(-0.632455532033675,0.70710678118655,0.316227766016836));
#1244=DIRECTION('',(0.447213595499957,0.,0.894427190999917));
#1245=DIRECTION('',(0.74535599249993,0.666666666666667,-6.85112306719284E-15));
#1246=DIRECTION('',(7.08197893495062E-16,0.408248290463861,-0.912870929175278));
#1247=DIRECTION('',(-0.632455532033676,-0.707106781186548,-0.316227766016836));
#1248=DIRECTION('',(0.447213595499956,0.,-0.894427190999917));
#1249=DIRECTION('',(-0.745355992499929,0.666666666666668,-4.34837351311521E-15));
#1250=DIRECTION('',(0.632455532033678,-0.707106781186546,0.316227766016837));
#1251=DIRECTION('',(-0.447213595499956,0.,0.894427190999917));
#1252=DIRECTION('',(-3.39934988877629E-16,-0.408248290463863,-0.912870929175277));
#1253=DIRECTION('',(0.632455532033678,0.707106781186546,-0.316227766016837));
#1254=DIRECTION('',(-0.447213595499957,0.,-0.894427190999917));
#1255=DIRECTION('',(-0.632455532033678,-0.707106781186546,-0.316227766016837));
#1256=DIRECTION('',(0.447213595499956,0.,-0.894427190999917));
#1257=DIRECTION('',(0.745355992499929,-0.666666666666668,-3.7007434154172E-15));
#1258=DIRECTION('',(1.18226808277026E-15,-0.408248290463865,0.912870929175276));
#1259=DIRECTION('',(-0.63245553203368,0.707106781186544,0.316227766016838));
#1260=DIRECTION('',(0.447213595499956,0.,0.894427190999917));
#1261=DIRECTION('',(-0.745355992499927,-0.66666666666667,-4.49940598964357E-15));
#1262=DIRECTION('',(0.632455532033677,0.707106781186548,-0.316227766016836));
#1263=DIRECTION('',(-0.447213595499956,0.,-0.894427190999917));
#1264=DIRECTION('',(-9.27316841112039E-16,0.408248290463863,0.912870929175277));
#1265=DIRECTION('',(0.632455532033678,-0.707106781186546,0.316227766016837));
#1266=DIRECTION('',(-0.447213595499956,0.,0.894427190999917));
#1267=DIRECTION('',(0.,1.,0.));
#1268=DIRECTION('',(1.,0.,0.));
#1269=DIRECTION('',(0.,1.,0.));
#1270=DIRECTION('',(0.,-1.,0.));
#1271=DIRECTION('',(-1.,0.,0.));
#1272=DIRECTION('',(0.,1.,0.));
#1273=DIRECTION('',(1.,0.,0.));
#1274=DIRECTION('',(0.,-1.,0.));
#1275=DIRECTION('',(0.,1.,0.));
#1276=DIRECTION('',(0.,0.,1.));
#1277=DIRECTION('',(0.,1.,0.));
#1278=DIRECTION('',(1.,0.,0.));
#1279=DIRECTION('',(0.,1.,0.));
#1280=DIRECTION('',(0.,-1.,0.));
#1281=DIRECTION('',(-1.,0.,0.));
#1282=DIRECTION('',(1.,0.,0.));
#1283=DIRECTION('',(0.,-1.,0.));
#1284=DIRECTION('',(0.,0.,-1.));
#1285=DIRECTION('',(0.,-1.,0.));
#1286=DIRECTION('',(1.,0.,0.));
#1287=DIRECTION('',(0.,0.,-1.));
#1288=DIRECTION('',(0.,-1.,0.));
#1289=DIRECTION('',(-1.,0.,0.));
#1290=DIRECTION('',(0.,0.,1.));
#1291=DIRECTION('',(0.,-1.,0.));
#1292=DIRECTION('',(-1.,0.,0.));
#1293=DIRECTION('',(0.,1.,0.));
#1294=DIRECTION('',(1.,0.,0.));
#1295=DIRECTION('',(0.,1.,0.));
#1296=DIRECTION('',(0.,-1.,0.));
#1297=DIRECTION('',(-1.,0.,0.));
#1298=DIRECTION('',(0.,1.,0.));
#1299=DIRECTION('',(1.,0.,1.09446276086865E-16));
#1300=DIRECTION('',(1.09446276086865E-16,0.,-1.));
#1301=DIRECTION('',(0.,1.,0.));
#1302=DIRECTION('',(-1.09446276086865E-16,0.,1.));
#1303=DIRECTION('',(0.,1.,0.));
#1304=DIRECTION('',(1.,0.,0.));
#1305=DIRECTION('',(0.,1.,0.));
#1306=DIRECTION('',(0.,-1.,0.));
#1307=DIRECTION('',(-1.,0.,0.));
#1308=DIRECTION('',(1.,0.,0.));
#1309=DIRECTION('',(0.,-1.,0.));
#1310=DIRECTION('',(0.,0.,-1.));
#1311=DIRECTION('',(0.,-1.,0.));
#1312=DIRECTION('',(1.,0.,0.));
#1313=DIRECTION('',(1.09446276086865E-16,0.,-1.));
#1314=DIRECTION('',(0.,-1.,0.));
#1315=DIRECTION('',(-1.,0.,0.));
#1316=DIRECTION('',(0.,0.,1.));
#1317=DIRECTION('',(0.,-1.,0.));
#1318=DIRECTION('',(-1.,0.,0.));
#1319=DIRECTION('',(0.,1.,0.));
#1320=DIRECTION('',(1.,0.,0.));
#1321=DIRECTION('',(-0.707106781186548,0.707106781186548,0.));
#1322=DIRECTION('',(-0.707106781186548,-0.707106781186548,0.));
#1323=DIRECTION('',(-0.707106781186548,0.707106781186548,0.));
#1324=DIRECTION('',(0.,0.,-1.));
#1325=DIRECTION('',(-0.707106781186548,-0.707106781186548,0.));
#1326=DIRECTION('',(-0.707106781186548,-0.707106781186548,0.));
#1327=DIRECTION('',(0.,0.,1.));
#1328=DIRECTION('',(-0.707106781186548,0.707106781186548,0.));
#1329=DIRECTION('',(0.,1.,0.));
#1330=DIRECTION('',(1.,0.,0.));
#1331=DIRECTION('',(0.,1.,0.));
#1332=DIRECTION('',(1.,0.,0.));
#1333=DIRECTION('',(-0.707106781186548,-0.707106781186548,0.));
#1334=DIRECTION('',(-0.707106781186548,0.707106781186547,0.));
#1335=DIRECTION('',(-0.707106781186548,-0.707106781186547,-7.73902039966372E-17));
#1336=DIRECTION('',(-1.09446276086865E-16,0.,1.));
#1337=DIRECTION('',(-0.707106781186548,0.707106781186548,0.));
#1338=DIRECTION('',(-0.707106781186548,0.707106781186548,0.));
#1339=DIRECTION('',(0.,0.,-1.));
#1340=DIRECTION('',(-0.707106781186548,-0.707106781186548,0.));
#1341=DIRECTION('',(0.,1.,0.));
#1342=DIRECTION('',(1.,0.,0.));
#1343=CARTESIAN_POINT('',(0.,0.,0.));
#1344=CARTESIAN_POINT('',(0.025,0.,-0.025));
#1345=CARTESIAN_POINT('',(0.,0.,-0.025));
#1346=CARTESIAN_POINT('',(0.,0.,0.));
#1347=CARTESIAN_POINT('',(-1.04083408558608E-17,0.,-0.05));
#1348=CARTESIAN_POINT('',(0.025,0.,-0.05));
#1349=CARTESIAN_POINT('',(0.05,0.,-0.05));
#1350=CARTESIAN_POINT('',(0.05,0.,-0.025));
#1351=CARTESIAN_POINT('',(0.05,0.,0.));
#1352=CARTESIAN_POINT('',(0.025,0.,0.));
#1353=CARTESIAN_POINT('',(0.032425,0.,-0.025));
#1354=CARTESIAN_POINT('',(0.032425,0.,-0.017075));
#1355=CARTESIAN_POINT('',(0.032425,0.,-0.032925));
#1356=CARTESIAN_POINT('',(0.037375,0.,-0.017075));
#1357=CARTESIAN_POINT('',(0.042325,0.,-0.017075));
#1358=CARTESIAN_POINT('',(0.042325,0.,-0.025));
#1359=CARTESIAN_POINT('',(0.042325,0.,-0.032925));
#1360=CARTESIAN_POINT('',(0.037375,0.,-0.032925));
#1361=CARTESIAN_POINT('',(0.012625,0.,-0.017075));
#1362=CARTESIAN_POINT('',(0.017575,0.,-0.017075));
#1363=CARTESIAN_POINT('',(0.007675,0.,-0.017075));
#1364=CARTESIAN_POINT('',(0.017575,0.,-0.025));
#1365=CARTESIAN_POINT('',(0.017575,0.,-0.032925));
#1366=CARTESIAN_POINT('',(0.012625,0.,-0.032925));
#1367=CARTESIAN_POINT('',(0.007675,0.,-0.032925));
#1368=CARTESIAN_POINT('',(0.007675,0.,-0.025));
#1369=CARTESIAN_POINT('',(0.025,0.015,-0.025));
#1370=CARTESIAN_POINT('',(0.00715278640450004,0.015,-0.0339236067977499));
#1371=CARTESIAN_POINT('',(0.00894098300562507,0.015,-0.0375));
#1372=CARTESIAN_POINT('',(0.0125,0.015,-0.0446180339887499));
#1373=CARTESIAN_POINT('',(0.0159472135954999,0.015,-0.03772360679775));
#1374=CARTESIAN_POINT('',(0.0160590169943749,0.015,-0.0375));
#1375=CARTESIAN_POINT('',(0.0128472135954999,0.015,-0.03107639320225));
#1376=CARTESIAN_POINT('',(0.0125,0.015,-0.0303819660112501));
#1377=CARTESIAN_POINT('',(0.00905278640450005,0.015,-0.03727639320225));
#1378=CARTESIAN_POINT('',(0.0340527864045001,0.015,-0.03727639320225));
#1379=CARTESIAN_POINT('',(0.0375,0.015,-0.0303819660112501));
#1380=CARTESIAN_POINT('',(0.033940983005625,0.015,-0.0375));
#1381=CARTESIAN_POINT('',(0.0271527864045001,0.015,-0.0239236067977499));
#1382=CARTESIAN_POINT('',(0.0375,0.015,-0.0446180339887499));
#1383=CARTESIAN_POINT('',(0.0409472135955,0.015,-0.03772360679775));
#1384=CARTESIAN_POINT('',(0.041059016994375,0.015,-0.0375));
#1385=CARTESIAN_POINT('',(0.0328472135955,0.015,-0.0210763932022501));
#1386=CARTESIAN_POINT('',(0.0228472135955,0.015,-0.02607639320225));
#1387=CARTESIAN_POINT('',(0.0160590169943749,0.015,-0.0125));
#1388=CARTESIAN_POINT('',(0.0125,0.015,-0.00538196601125009));
#1389=CARTESIAN_POINT('',(0.00905278640450006,0.015,-0.01227639320225));
#1390=CARTESIAN_POINT('',(0.00894098300562507,0.015,-0.0125));
#1391=CARTESIAN_POINT('',(0.0171527864045,0.015,-0.02892360679775));
#1392=CARTESIAN_POINT('',(0.0125,0.015,-0.0196180339887499));
#1393=CARTESIAN_POINT('',(0.0159472135954999,0.015,-0.01272360679775));
#1394=CARTESIAN_POINT('',(0.0409472135955,0.015,-0.01272360679775));
#1395=CARTESIAN_POINT('',(0.0375,0.015,-0.0196180339887499));
#1396=CARTESIAN_POINT('',(0.041059016994375,0.015,-0.0125));
#1397=CARTESIAN_POINT('',(0.0428472135955,0.015,-0.0160763932022501));
#1398=CARTESIAN_POINT('',(0.0375,0.015,-0.0053819660112501));
#1399=CARTESIAN_POINT('',(0.0340527864045001,0.015,-0.01227639320225));
#1400=CARTESIAN_POINT('',(0.033940983005625,0.015,-0.0125));
#1401=CARTESIAN_POINT('',(0.0371527864045001,0.015,-0.01892360679775));
#1402=CARTESIAN_POINT('',(0.,0.015,-0.025));
#1403=CARTESIAN_POINT('',(0.,0.015,0.));
#1404=CARTESIAN_POINT('',(-1.04083408558608E-17,0.015,-0.05));
#1405=CARTESIAN_POINT('',(0.025,0.015,0.));
#1406=CARTESIAN_POINT('',(0.05,0.015,0.));
#1407=CARTESIAN_POINT('',(0.05,0.015,-0.025));
#1408=CARTESIAN_POINT('',(0.05,0.015,-0.05));
#1409=CARTESIAN_POINT('',(0.025,0.015,-0.05));
#1410=CARTESIAN_POINT('',(0.,0.015,-0.025));
#1411=CARTESIAN_POINT('',(0.,0.015,0.));
#1412=CARTESIAN_POINT('',(-1.04083408558608E-17,0.015,-0.05));
#1413=CARTESIAN_POINT('',(0.025,0.015,0.));
#1414=CARTESIAN_POINT('',(0.05,0.015,0.));
#1415=CARTESIAN_POINT('',(0.05,0.015,-0.025));
#1416=CARTESIAN_POINT('',(0.05,0.015,-0.05));
#1417=CARTESIAN_POINT('',(0.025,0.015,-0.05));
#1418=CARTESIAN_POINT('',(0.036,0.009,-0.0155));
#1419=CARTESIAN_POINT('',(0.0375,0.009,-0.0185));
#1420=CARTESIAN_POINT('',(0.0375,0.009,-0.0185));
#1421=CARTESIAN_POINT('',(0.0375,0.0145,-0.0185));
#1422=CARTESIAN_POINT('',(0.036,0.0145,-0.0155));
#1423=CARTESIAN_POINT('',(0.0345,0.0145,-0.0125));
#1424=CARTESIAN_POINT('',(0.0345,0.009,-0.0125));
#1425=CARTESIAN_POINT('',(0.0345,0.009,-0.0125));
#1426=CARTESIAN_POINT('',(0.036,0.009,-0.0155));
#1427=CARTESIAN_POINT('',(0.036,0.009,-0.0095));
#1428=CARTESIAN_POINT('',(0.0375,0.0145,-0.0065));
#1429=CARTESIAN_POINT('',(0.0375,0.0145,-0.0065));
#1430=CARTESIAN_POINT('',(0.0375,0.009,-0.0065));
#1431=CARTESIAN_POINT('',(0.0375,0.009,-0.0065));
#1432=CARTESIAN_POINT('',(0.036,0.009,-0.0095));
#1433=CARTESIAN_POINT('',(0.039,0.009,-0.0095));
#1434=CARTESIAN_POINT('',(0.039,0.0145,-0.0095));
#1435=CARTESIAN_POINT('',(0.0405,0.0145,-0.0125));
#1436=CARTESIAN_POINT('',(0.0405,0.009,-0.0125));
#1437=CARTESIAN_POINT('',(0.0405,0.009,-0.0125));
#1438=CARTESIAN_POINT('',(0.039,0.009,-0.0095));
#1439=CARTESIAN_POINT('',(0.039,0.009,-0.0155));
#1440=CARTESIAN_POINT('',(0.0375,0.0145,-0.0185));
#1441=CARTESIAN_POINT('',(0.039,0.009,-0.0155));
#1442=CARTESIAN_POINT('',(0.025,0.009,-0.025));
#1443=CARTESIAN_POINT('',(0.014,0.009,-0.0345));
#1444=CARTESIAN_POINT('',(0.0125,0.009,-0.0315));
#1445=CARTESIAN_POINT('',(0.0125,0.009,-0.0315));
#1446=CARTESIAN_POINT('',(0.0125,0.0145,-0.0315));
#1447=CARTESIAN_POINT('',(0.014,0.0145,-0.0345));
#1448=CARTESIAN_POINT('',(0.0155,0.0145,-0.0375));
#1449=CARTESIAN_POINT('',(0.0155,0.009,-0.0375));
#1450=CARTESIAN_POINT('',(0.0155,0.009,-0.0375));
#1451=CARTESIAN_POINT('',(0.014,0.009,-0.0345));
#1452=CARTESIAN_POINT('',(0.014,0.009,-0.0405));
#1453=CARTESIAN_POINT('',(0.0125,0.0145,-0.0435));
#1454=CARTESIAN_POINT('',(0.0125,0.0145,-0.0435));
#1455=CARTESIAN_POINT('',(0.0125,0.009,-0.0435));
#1456=CARTESIAN_POINT('',(0.0125,0.009,-0.0435));
#1457=CARTESIAN_POINT('',(0.014,0.009,-0.0405));
#1458=CARTESIAN_POINT('',(0.011,0.009,-0.0405));
#1459=CARTESIAN_POINT('',(0.011,0.0145,-0.0405));
#1460=CARTESIAN_POINT('',(0.0095,0.0145,-0.0375));
#1461=CARTESIAN_POINT('',(0.0095,0.009,-0.0375));
#1462=CARTESIAN_POINT('',(0.0095,0.009,-0.0375));
#1463=CARTESIAN_POINT('',(0.011,0.009,-0.0405));
#1464=CARTESIAN_POINT('',(0.011,0.009,-0.0345));
#1465=CARTESIAN_POINT('',(0.0125,0.0145,-0.0315));
#1466=CARTESIAN_POINT('',(0.011,0.009,-0.0345));
#1467=CARTESIAN_POINT('',(0.025,0.009,-0.025));
#1468=CARTESIAN_POINT('',(0.036,0.009,-0.0405));
#1469=CARTESIAN_POINT('',(0.0375,0.009,-0.0435));
#1470=CARTESIAN_POINT('',(0.0375,0.009,-0.0435));
#1471=CARTESIAN_POINT('',(0.0375,0.0145,-0.0435));
#1472=CARTESIAN_POINT('',(0.036,0.0145,-0.0405));
#1473=CARTESIAN_POINT('',(0.0345,0.0145,-0.0375));
#1474=CARTESIAN_POINT('',(0.0345,0.009,-0.0375));
#1475=CARTESIAN_POINT('',(0.0345,0.009,-0.0375));
#1476=CARTESIAN_POINT('',(0.036,0.009,-0.0405));
#1477=CARTESIAN_POINT('',(0.036,0.009,-0.0345));
#1478=CARTESIAN_POINT('',(0.0375,0.0145,-0.0315));
#1479=CARTESIAN_POINT('',(0.0375,0.0145,-0.0315));
#1480=CARTESIAN_POINT('',(0.0375,0.009,-0.0315));
#1481=CARTESIAN_POINT('',(0.0375,0.009,-0.0315));
#1482=CARTESIAN_POINT('',(0.036,0.009,-0.0345));
#1483=CARTESIAN_POINT('',(0.039,0.009,-0.0345));
#1484=CARTESIAN_POINT('',(0.039,0.0145,-0.0345));
#1485=CARTESIAN_POINT('',(0.0405,0.0145,-0.0375));
#1486=CARTESIAN_POINT('',(0.0405,0.009,-0.0375));
#1487=CARTESIAN_POINT('',(0.0405,0.009,-0.0375));
#1488=CARTESIAN_POINT('',(0.039,0.009,-0.0345));
#1489=CARTESIAN_POINT('',(0.039,0.009,-0.0405));
#1490=CARTESIAN_POINT('',(0.0375,0.0145,-0.0435));
#1491=CARTESIAN_POINT('',(0.039,0.009,-0.0405));
#1492=CARTESIAN_POINT('',(0.025,0.009,-0.025));
#1493=CARTESIAN_POINT('',(0.014,0.009,-0.0095));
#1494=CARTESIAN_POINT('',(0.0125,0.009,-0.0065));
#1495=CARTESIAN_POINT('',(0.0125,0.009,-0.0065));
#1496=CARTESIAN_POINT('',(0.0125,0.0145,-0.0065));
#1497=CARTESIAN_POINT('',(0.014,0.0145,-0.0095));
#1498=CARTESIAN_POINT('',(0.0155,0.0145,-0.0125));
#1499=CARTESIAN_POINT('',(0.0155,0.009,-0.0125));
#1500=CARTESIAN_POINT('',(0.0155,0.009,-0.0125));
#1501=CARTESIAN_POINT('',(0.014,0.009,-0.0095));
#1502=CARTESIAN_POINT('',(0.014,0.009,-0.0155));
#1503=CARTESIAN_POINT('',(0.0125,0.0145,-0.0185));
#1504=CARTESIAN_POINT('',(0.0125,0.0145,-0.0185));
#1505=CARTESIAN_POINT('',(0.0125,0.009,-0.0185));
#1506=CARTESIAN_POINT('',(0.0125,0.009,-0.0185));
#1507=CARTESIAN_POINT('',(0.014,0.009,-0.0155));
#1508=CARTESIAN_POINT('',(0.011,0.009,-0.0155));
#1509=CARTESIAN_POINT('',(0.011,0.0145,-0.0155));
#1510=CARTESIAN_POINT('',(0.0095,0.0145,-0.0125));
#1511=CARTESIAN_POINT('',(0.0095,0.009,-0.0125));
#1512=CARTESIAN_POINT('',(0.0095,0.009,-0.0125));
#1513=CARTESIAN_POINT('',(0.011,0.009,-0.0155));
#1514=CARTESIAN_POINT('',(0.011,0.009,-0.0095));
#1515=CARTESIAN_POINT('',(0.0125,0.0145,-0.0065));
#1516=CARTESIAN_POINT('',(0.011,0.009,-0.0095));
#1517=CARTESIAN_POINT('',(0.025,0.009,-0.025));
#1518=CARTESIAN_POINT('',(0.011,0.0145,-0.0345));
#1519=CARTESIAN_POINT('',(0.00794754044944449,0.0158885620349444,-0.0375));
#1520=CARTESIAN_POINT('',(0.0125,0.0133819660112501,-0.034));
#1521=CARTESIAN_POINT('',(0.0128472135954999,0.015,-0.03107639320225));
#1522=CARTESIAN_POINT('',(0.0146666666666667,0.0137546440075001,-0.0375));
#1523=CARTESIAN_POINT('',(0.00715278640450004,0.015,-0.0339236067977499));
#1524=CARTESIAN_POINT('',(0.0125,0.0133819660112501,-0.041));
#1525=CARTESIAN_POINT('',(0.014,0.0145,-0.0405));
#1526=CARTESIAN_POINT('',(0.0328472135955,0.015,-0.0210763932022501));
#1527=CARTESIAN_POINT('',(0.0396666666666666,0.0137546440075001,-0.0375));
#1528=CARTESIAN_POINT('',(0.0375,0.0184679822284163,-0.02262732200375));
#1529=CARTESIAN_POINT('',(0.036,0.0145,-0.0345));
#1530=CARTESIAN_POINT('',(0.0301697626716667,0.0183730820099441,-0.0375));
#1531=CARTESIAN_POINT('',(0.039,0.0145,-0.0405));
#1532=CARTESIAN_POINT('',(0.0375,0.00728764234091737,-0.0273726779962499));
#1533=CARTESIAN_POINT('',(0.0271527864045001,0.015,-0.0239236067977499));
#1534=CARTESIAN_POINT('',(0.014,0.0145,-0.0155));
#1535=CARTESIAN_POINT('',(0.0146666666666667,0.0137546440075001,-0.0125));
#1536=CARTESIAN_POINT('',(0.0125,0.0184679822284163,-0.02737267799625));
#1537=CARTESIAN_POINT('',(0.0171527864045,0.015,-0.02892360679775));
#1538=CARTESIAN_POINT('',(0.0103333333333333,0.0137546440075001,-0.0125));
#1539=CARTESIAN_POINT('',(0.0228472135954999,0.015,-0.02607639320225));
#1540=CARTESIAN_POINT('',(0.0125,0.0133819660112501,-0.009));
#1541=CARTESIAN_POINT('',(0.011,0.0145,-0.0095));
#1542=CARTESIAN_POINT('',(0.0371527864045001,0.015,-0.01892360679775));
#1543=CARTESIAN_POINT('',(0.0357253182272223,0.0134040420599446,-0.0125));
#1544=CARTESIAN_POINT('',(0.0375,0.0133819660112501,-0.016));
#1545=CARTESIAN_POINT('',(0.039,0.0145,-0.0155));
#1546=CARTESIAN_POINT('',(0.0420524595505555,0.0158885620349444,-0.0125));
#1547=CARTESIAN_POINT('',(0.036,0.0145,-0.0095));
#1548=CARTESIAN_POINT('',(0.0375,0.011014422303417,-0.0142939886704167));
#1549=CARTESIAN_POINT('',(0.0428472135955,0.015,-0.0160763932022501));
#1550=CARTESIAN_POINT('',(0.037375,-0.01,-0.017075));
#1551=CARTESIAN_POINT('',(0.032425,-0.01,-0.017075));
#1552=CARTESIAN_POINT('',(0.032425,-0.0095,-0.017075));
#1553=CARTESIAN_POINT('',(0.037375,-0.0095,-0.017075));
#1554=CARTESIAN_POINT('',(0.042325,-0.0095,-0.017075));
#1555=CARTESIAN_POINT('',(0.042325,-0.01,-0.017075));
#1556=CARTESIAN_POINT('',(0.032425,-0.01,-0.025));
#1557=CARTESIAN_POINT('',(0.032425,-0.01,-0.032925));
#1558=CARTESIAN_POINT('',(0.032425,-0.0095,-0.032925));
#1559=CARTESIAN_POINT('',(0.032425,-0.0095,-0.017075));
#1560=CARTESIAN_POINT('',(0.037375,-0.01,-0.032925));
#1561=CARTESIAN_POINT('',(0.042325,-0.01,-0.032925));
#1562=CARTESIAN_POINT('',(0.042325,-0.0095,-0.032925));
#1563=CARTESIAN_POINT('',(0.037375,-0.0095,-0.032925));
#1564=CARTESIAN_POINT('',(0.042325,-0.01,-0.025));
#1565=CARTESIAN_POINT('',(0.042325,-0.0095,-0.025));
#1566=CARTESIAN_POINT('',(0.025,-0.01,-0.025));
#1567=CARTESIAN_POINT('',(0.032925,-0.01,-0.032925));
#1568=CARTESIAN_POINT('',(0.032925,-0.01,-0.017075));
#1569=CARTESIAN_POINT('',(0.032925,-0.01,-0.032925));
#1570=CARTESIAN_POINT('',(0.037375,-0.01,-0.032925));
#1571=CARTESIAN_POINT('',(0.041825,-0.01,-0.032925));
#1572=CARTESIAN_POINT('',(0.041825,-0.01,-0.025));
#1573=CARTESIAN_POINT('',(0.041825,-0.01,-0.017075));
#1574=CARTESIAN_POINT('',(0.037375,-0.01,-0.017075));
#1575=CARTESIAN_POINT('',(0.012625,-0.01,-0.017075));
#1576=CARTESIAN_POINT('',(0.007675,-0.01,-0.017075));
#1577=CARTESIAN_POINT('',(0.007675,-0.0095,-0.017075));
#1578=CARTESIAN_POINT('',(0.012625,-0.0095,-0.017075));
#1579=CARTESIAN_POINT('',(0.017575,-0.0095,-0.017075));
#1580=CARTESIAN_POINT('',(0.017575,-0.01,-0.017075));
#1581=CARTESIAN_POINT('',(0.007675,-0.01,-0.025));
#1582=CARTESIAN_POINT('',(0.007675,-0.01,-0.032925));
#1583=CARTESIAN_POINT('',(0.007675,-0.0095,-0.032925));
#1584=CARTESIAN_POINT('',(0.007675,-0.0095,-0.017075));
#1585=CARTESIAN_POINT('',(0.012625,-0.01,-0.032925));
#1586=CARTESIAN_POINT('',(0.017575,-0.01,-0.032925));
#1587=CARTESIAN_POINT('',(0.017575,-0.0095,-0.032925));
#1588=CARTESIAN_POINT('',(0.012625,-0.0095,-0.032925));
#1589=CARTESIAN_POINT('',(0.017575,-0.01,-0.025));
#1590=CARTESIAN_POINT('',(0.017575,-0.0095,-0.025));
#1591=CARTESIAN_POINT('',(0.025,-0.01,-0.025));
#1592=CARTESIAN_POINT('',(0.008175,-0.01,-0.032925));
#1593=CARTESIAN_POINT('',(0.008175,-0.01,-0.017075));
#1594=CARTESIAN_POINT('',(0.008175,-0.01,-0.032925));
#1595=CARTESIAN_POINT('',(0.012625,-0.01,-0.032925));
#1596=CARTESIAN_POINT('',(0.017075,-0.01,-0.032925));
#1597=CARTESIAN_POINT('',(0.017075,-0.01,-0.025));
#1598=CARTESIAN_POINT('',(0.017075,-0.01,-0.017075));
#1599=CARTESIAN_POINT('',(0.012625,-0.01,-0.017075));
#1600=CARTESIAN_POINT('',(0.037375,-0.0095,-0.017075));
#1601=CARTESIAN_POINT('',(0.032925,-0.01,-0.017075));
#1602=CARTESIAN_POINT('',(0.042325,-0.0095,-0.017075));
#1603=CARTESIAN_POINT('',(0.042325,-0.0095,-0.025));
#1604=CARTESIAN_POINT('',(0.042325,-0.0095,-0.032925));
#1605=CARTESIAN_POINT('',(0.032925,-0.01,-0.025));
#1606=CARTESIAN_POINT('',(0.032925,-0.01,-0.032925));
#1607=CARTESIAN_POINT('',(0.037375,-0.0095,-0.032925));
#1608=CARTESIAN_POINT('',(0.012625,-0.01,-0.017075));
#1609=CARTESIAN_POINT('',(0.017575,-0.0095,-0.017075));
#1610=CARTESIAN_POINT('',(0.008175,-0.01,-0.017075));
#1611=CARTESIAN_POINT('',(0.008175,-0.01,-0.025));
#1612=CARTESIAN_POINT('',(0.008175,-0.01,-0.032925));
#1613=CARTESIAN_POINT('',(0.017575,-0.0095,-0.025));
#1614=CARTESIAN_POINT('',(0.017575,-0.0095,-0.032925));
#1615=CARTESIAN_POINT('',(0.012625,-0.01,-0.032925));
#1616=MECHANICAL_DESIGN_GEOMETRIC_PRESENTATION_REPRESENTATION('',(#993),
#1617);
#1617=(
GEOMETRIC_REPRESENTATION_CONTEXT(3)
GLOBAL_UNCERTAINTY_ASSIGNED_CONTEXT((#1618))
GLOBAL_UNIT_ASSIGNED_CONTEXT((#1621,#1620,#1619))
REPRESENTATION_CONTEXT('Part 1','TOP_LEVEL_ASSEMBLY_PART')
);
#1618=UNCERTAINTY_MEASURE_WITH_UNIT(LENGTH_MEASURE(1.E-8),#1621,
'DISTANCE_ACCURACY_VALUE','Maximum Tolerance applied to model');
#1619=(
NAMED_UNIT(*)
SI_UNIT($,.STERADIAN.)
SOLID_ANGLE_UNIT()
);
#1620=(
NAMED_UNIT(*)
PLANE_ANGLE_UNIT()
SI_UNIT($,.RADIAN.)
);
#1621=(
LENGTH_UNIT()
NAMED_UNIT(*)
SI_UNIT($,.METRE.)
);
#1622=PRODUCT_DEFINITION_SHAPE('','',#1623);
#1623=PRODUCT_DEFINITION('','',#1625,#1624);
#1624=PRODUCT_DEFINITION_CONTEXT('',#1631,'design');
#1625=PRODUCT_DEFINITION_FORMATION_WITH_SPECIFIED_SOURCE('','',#1627,
 .NOT_KNOWN.);
#1626=PRODUCT_RELATED_PRODUCT_CATEGORY('','',(#1627));
#1627=PRODUCT('Part 1','Part 1','Part 1',(#1629));
#1628=PRODUCT_CATEGORY('','');
#1629=PRODUCT_CONTEXT('',#1631,'mechanical');
#1630=APPLICATION_PROTOCOL_DEFINITION('international standard',
'ap242_managed_model_based_3d_engineering',2020,#1631);
#1631=APPLICATION_CONTEXT('managed model based 3d engineering');
ENDSEC;
END-ISO-10303-21;
